<svg viewBox="0 0 105 129" fill="none" xmlns="http://www.w3.org/2000/svg">
<path d="M57.7359 0.0660937H27.2977C27.2977 0.0660937 17.8763 -1.02099 9.17968 5.62227C0.483048 12.2655 0.603848 20.9622 0.603848 20.9622H49.4016C49.4016 20.9622 73.3173 19.6335 71.8679 42.0998C70.4185 64.5661 49.4016 61.5464 49.4016 61.5464L40 61.6672L49.1461 81.3554H50.0055C50.0055 81.3554 64.7414 86.3077 82.7387 74.1082C100.736 61.9088 99.528 42.0998 99.528 42.0998C99.528 42.0998 101.34 26.156 90.469 13.4734C79.5982 0.790833 57.7359 0.0660937 57.7359 0.0660937Z" fill="#0576D3"/>
<path d="M49.1461 81.3554L49.1461 61.5464L57.7359 68L70.5253 81.3553L49.1461 81.3554Z" fill="white"/>
<path d="M57.1321 61.667H38.4102L72.7135 128.583H104.843L77.1826 77.3037C77.1826 77.3037 67.5197 61.667 57.1321 61.667Z" fill="#004B98"/>
<path d="M55.0787 61.3047C41.5506 61.6671 38.4102 61.6671 38.4102 61.6671L48.7735 81.4545C48.7735 81.4545 61.7391 81.225 67.2781 79.9059C72.8172 78.5867 77.0618 77.3693 77.0618 77.3693C77.0618 77.3693 68.6068 60.9424 55.0787 61.3047Z" fill="#004B98"/>
<rect y="0.065918" width="27.0562" height="20.7753" fill="#004B98"/>
<rect y="20.8413" width="27.0562" height="107.5" fill="#0576D3"/>
</svg>
