<svg viewBox="0 0 70 72" fill="none" xmlns="http://www.w3.org/2000/svg">
<path d="M15.1095 0.0200195H0V11.8194H15.1095V0.0200195Z" fill="#004B98"/>
<path d="M15.1095 11.8193H0V71.9949H15.1095V11.8193Z" fill="#0676D3"/>
<path d="M15.1099 11.8195H29.2321C29.2321 11.8195 40.3375 12.2589 40.1571 23.2045C39.9767 33.8903 30.3096 34.3597 30.3096 34.3597L21.7901 34.5195L27.4982 45.9494C27.4982 45.9494 54.9108 48.7308 55.6174 23.1545C55.6174 -1.20832 30.2695 0.0100731 30.2695 0.0100731H15.1099V11.8195Z" fill="#0676D3"/>
<path d="M21.79 34.5195L40.6281 71.97L59 72L43.3393 43.2529C43.3393 43.2529 38.0321 34.6093 32.6248 34.3796L21.79 34.5195Z" fill="#004B98"/>
<circle cx="57" cy="56" r="12" fill="#077719" stroke="white" stroke-width="2"/>
<path d="M51.9785 60L49.7344 53.5488H51.5684L52.9043 58.4004H53.0098L54.334 53.5488H56.1328L53.9004 60H51.9785ZM61.0898 60V58.4473H56.9473V57.0586C57.1621 56.6758 57.3789 56.2969 57.5977 55.9219C57.8164 55.543 58.0371 55.168 58.2598 54.7969C58.4863 54.4219 58.7109 54.0527 58.9336 53.6895C59.1602 53.3223 59.3867 52.9609 59.6133 52.6055C59.8398 52.2461 60.0664 51.8926 60.293 51.5449H62.7773V57.0293H63.8789V58.4473H62.7773V60H61.0898ZM58.541 57.0762H61.125V52.8867H61.0312C60.8672 53.1406 60.6992 53.4004 60.5273 53.666C60.3594 53.9316 60.1895 54.2031 60.0176 54.4805C59.8496 54.7578 59.6797 55.0371 59.5078 55.3184C59.3398 55.5957 59.1738 55.875 59.0098 56.1562C58.8496 56.4336 58.6934 56.709 58.541 56.9824V57.0762Z" fill="white"/>
</svg>
