<svg viewBox="0 0 317 178" fill="none" xmlns="http://www.w3.org/2000/svg">
    <path d="M159.458 2.38782H161.853L179.314 27.6117V2.38782H181.578V31.5625H179.358L161.722 6.16489V31.5625H159.502V2.38782H159.458Z" fill="black"/>
    <path fill-rule="evenodd" clip-rule="evenodd" d="M195.208 10.2024C189.634 10.2024 186.194 15.0214 186.194 20.9258C186.194 26.917 189.155 32.04 195.6 32.04C198.145 32.0946 200.643 31.3505 202.741 29.9126L201.783 28.1326C200.022 29.4025 197.904 30.0861 195.73 30.0863C190.679 30.0863 188.676 25.7014 188.633 20.9258V20.4482H203.089C203.525 14.5004 200.564 10.2024 195.208 10.2024ZM195.121 12.1994C199.127 12.1994 200.738 15.4121 200.782 18.5814H188.764C189.373 15.0214 191.463 12.1994 195.121 12.1994Z" fill="black"/>
    <path d="M205.527 10.6799H208.009L213.104 28.0892L218.591 10.6799H220.811L226.298 28.1326L231.436 10.6799H233.744L227.43 31.6058H225.34L219.679 13.9794L214.018 31.6058H211.928L205.527 10.6799Z" fill="black"/>
    <path d="M253.948 20.5786L244.151 2.38782H246.894L255.211 18.1473H255.298L263.615 2.38782H266.097L256.343 20.5786V31.5625H253.948V20.5786Z" fill="black"/>
    <path fill-rule="evenodd" clip-rule="evenodd" d="M273.5 10.2024C266.925 10.2024 264.094 15.8897 264.094 21.1429C264.094 26.3961 266.925 32.04 273.543 32.04C280.118 32.04 283.123 26.3092 283.123 21.0561C283.123 15.8463 280.075 10.2024 273.5 10.2024ZM273.369 12.156C278.159 12.156 280.684 16.4541 280.684 21.1429C280.684 25.8751 278.376 30.0863 273.543 30.0863C268.797 30.0863 266.445 25.7882 266.445 21.056C266.445 16.3673 268.623 12.156 273.369 12.156Z" fill="black"/>
    <path d="M287.521 10.68H289.828V14.3268C290.612 12.8073 292.528 10.2024 295.445 10.2024C296.129 10.1973 296.807 10.315 297.449 10.5497L296.882 12.6771C296.343 12.4633 295.765 12.3599 295.184 12.3732C292.267 12.3732 290.394 15.8029 289.828 17.0185V31.5624H287.521L287.521 10.68Z" fill="black"/>
    <path fill-rule="evenodd" clip-rule="evenodd" d="M303.937 0H301.673V31.5624H303.937V0ZM313.343 10.68L304.155 19.8405L313.822 31.6058H316.696L306.942 19.8405L316.217 10.68H313.343Z" fill="black"/>
    <path fill-rule="evenodd" clip-rule="evenodd" d="M165.859 46.3235H159.502H159.458V75.5415H161.896V63.125H165.598C172.216 63.125 175.874 59.8254 175.874 54.5723C175.874 49.3625 171.999 46.3235 165.859 46.3235ZM173.436 54.6591C173.436 58.4796 171.128 61.0411 165.554 61.0411V61.0845H161.896V48.4074H165.641C171.258 48.4074 173.436 51.0123 173.436 54.6591Z" fill="black"/>
    <path d="M179.575 69.3767V54.6157H181.883V68.8991C181.883 71.9816 182.972 73.9352 186.194 73.9352C189.329 73.9352 191.898 70.983 192.595 69.7674V54.6157H194.859V71.504C194.836 72.8603 194.968 74.2149 195.251 75.5416H192.9C192.712 74.4076 192.61 73.2611 192.595 72.1118C191.594 73.6747 189.199 76.0191 185.628 76.0191C181.317 75.9757 179.575 73.1104 179.575 69.3767Z" fill="black"/>
    <path fill-rule="evenodd" clip-rule="evenodd" d="M200.607 43.9357V74.4127C202.044 75.3679 204.395 75.9757 206.877 75.9323C213.278 75.9323 217.241 70.8093 217.241 64.9484C217.241 58.8703 214.323 54.0947 208.358 54.0947C206.27 54.1101 204.282 54.9909 202.871 56.5259V43.9357H200.607ZM207.966 56.1786C213.104 56.1786 214.846 60.5201 214.846 65.0786C214.846 69.4201 212.277 74.022 206.965 74.022C205.556 74.0506 204.158 73.7689 202.871 73.1972V58.5664C204.188 57.1333 206.019 56.2754 207.966 56.1786Z" fill="black"/>
    <path d="M221.944 43.9357H224.251V75.4981H221.944V43.9357Z" fill="black"/>
    <path fill-rule="evenodd" clip-rule="evenodd" d="M231.332 46.9036C230.796 47.2149 230.47 47.7894 230.478 48.4074C230.454 49.0353 230.777 49.626 231.319 49.9469C231.861 50.2679 232.535 50.2679 233.077 49.9469C233.619 49.626 233.942 49.0353 233.918 48.4074C233.926 47.7894 233.6 47.2149 233.064 46.9036C232.529 46.5923 231.867 46.5923 231.332 46.9036ZM233.395 54.5722H231.044V75.4981H233.395V54.5722Z" fill="black"/>
    <path d="M237.794 65.0351C237.794 58.4361 241.626 54.1381 247.025 54.1381C250.16 54.1381 252.12 55.3103 253.252 56.3088L252.076 57.9585C250.668 56.7291 248.853 56.064 246.981 56.0917C242.322 56.0917 240.232 60.1293 240.232 64.9483C240.232 69.5937 242.279 74.022 246.938 74.022C248.886 74.0369 250.779 73.3771 252.294 72.1551L253.295 73.8483C252.163 74.8468 249.942 75.9756 246.807 75.9756C240.755 75.9756 237.794 70.6356 237.794 65.0351Z" fill="black"/>
    <path d="M158.848 119.434V90.259H165.075V114.441H175.961V119.434H158.848Z" fill="black"/>
    <path fill-rule="evenodd" clip-rule="evenodd" d="M181.014 94.2822C181.685 94.9432 182.595 95.3081 183.538 95.2952C184.813 95.342 186.012 94.6905 186.664 93.5966C187.315 92.5027 187.315 91.1413 186.664 90.0474C186.012 88.9534 184.813 88.3019 183.538 88.3488C182.606 88.3238 181.703 88.6729 181.032 89.3178C180.361 89.9626 179.977 90.8492 179.967 91.7786C179.966 92.7192 180.343 93.6211 181.014 94.2822ZM180.62 98.0737V119.434H186.499V98.0737H180.62Z" fill="black"/>
    <path fill-rule="evenodd" clip-rule="evenodd" d="M197.516 99.7668V87.8712H191.681V118.261C192.682 118.739 195.643 119.955 200.477 119.955C206.921 119.955 211.842 115.917 211.842 108.623C211.842 101.286 208.097 97.5961 202.741 97.5961C200.785 97.6303 198.917 98.4066 197.516 99.7668ZM200.476 115.396C199.469 115.418 198.465 115.256 197.516 114.919V103.804C198.459 102.812 199.759 102.234 201.13 102.198C204.308 102.198 205.658 104.629 205.658 108.623C205.658 112.965 203.742 115.396 200.476 115.396Z" fill="black"/>
    <path d="M228.257 103.197C227.563 102.829 226.778 102.663 225.993 102.719C223.38 102.719 221.856 105.02 221.334 105.975V119.434H215.499V98.0737H221.334V100.982C222.248 99.4196 224.034 97.5527 226.733 97.5527C228.301 97.5527 229.172 97.8566 229.651 98.1171L228.257 103.197Z" fill="black"/>
    <path fill-rule="evenodd" clip-rule="evenodd" d="M243.411 117.133C243.45 117.909 243.566 118.68 243.759 119.434V119.39H249.507C249.071 117.321 248.866 115.21 248.897 113.095V105.411C248.897 99.7234 246.11 97.5093 240.275 97.5093C235.703 97.5093 232.873 99.4629 231.61 100.592L234.179 104.152C235.722 102.904 237.636 102.202 239.622 102.155C242.366 102.155 243.106 103.327 243.106 105.15V106.366H242.366C236.705 106.366 230.957 108.406 230.957 113.963C230.957 117.784 233.744 119.955 237.402 119.955C239.722 119.934 241.917 118.903 243.411 117.133ZM242.322 109.969H243.062H243.106V113.833C242.116 114.996 240.672 115.676 239.143 115.7C237.793 115.7 236.531 115.049 236.531 113.486C236.531 110.968 238.882 109.969 242.322 109.969Z" fill="black"/>
    <path d="M266.315 103.197C265.634 102.833 264.865 102.668 264.094 102.719C261.482 102.719 259.958 105.02 259.435 105.975V119.434H253.6V98.0737H259.435V100.982C260.349 99.4196 262.135 97.5527 264.834 97.5527C266.402 97.5527 267.273 97.8566 267.752 98.1171L266.315 103.197Z" fill="black"/>
    <path d="M269.842 98.0737H276.068L280.815 112.14H281.033L285.387 98.0737H291.396L282.557 121.691C280.684 126.727 278.42 129.68 272.585 129.68C271.469 129.707 270.355 129.575 269.276 129.289L270.103 124.687C270.77 124.864 271.46 124.938 272.15 124.904C275.154 124.904 276.199 123.471 277.026 121.17L277.81 119L269.842 98.0737Z" fill="black"/>
    <path d="M80.2512 85.3532C79.3804 83.7034 76.8548 83.3127 74.1986 83.4429C72.783 83.4803 71.378 83.6992 70.0184 84.0942C68.5379 84.5283 66.5349 85.5268 67.4058 87.5673C67.9719 88.9566 69.9749 89.521 71.4118 89.9986C73.0665 90.5629 74.8953 90.9971 76.1581 91.7351C76.8984 92.1693 77.6822 93.2981 78.7272 93.1678C79.7723 93.0376 80.4254 90.9537 80.6431 89.9117C80.948 88.3054 80.8173 86.3517 80.2512 85.3532Z" fill="black"/>
    <path fill-rule="evenodd" clip-rule="evenodd" d="M68.1027 42.1122C31.0468 42.1122 0.87085 72.1551 0.87085 109.492C0.87085 146.828 31.2645 176.915 68.1463 176.915C105.594 176.915 135.944 146.872 135.944 109.535C135.901 72.1551 105.551 42.1122 68.1027 42.1122ZM28.6517 156.77C27.6445 155.917 26.8032 154.887 26.1697 153.731C20.4219 144.571 17.1996 112.183 24.6021 101.2C26.9535 97.3356 29.4355 99.1156 28.6081 102.111C27.1712 108.797 28.0421 112.531 31.3079 119.781C34.9389 127.39 43.8978 137.102 50.3162 144.06C52.9802 146.947 55.2066 149.361 56.4327 150.953C63.6175 160.243 66.0124 167.016 65.9688 168.84C65.9253 170.229 65.664 171.14 63.182 170.923C50.2495 169.925 37.6653 164.541 28.6517 156.77ZM127.704 126.195L127.758 126.033C138.6 89.521 111.647 46.4971 64.837 48.1902C61.876 48.3639 59.4375 49.2756 61.6147 50.9688C68.277 56.0917 71.8476 62.7341 73.1103 68.7688C73.1974 69.2897 73.4587 69.5936 74.1554 69.8107C77.2035 70.6356 84.9108 73.6746 87.3057 75.498C88.2546 76.2205 89.1967 77.1884 90.1726 78.191C91.6597 79.7187 93.2252 81.3271 95.013 82.2707C98.425 84.0701 101.782 85.5417 105.037 86.9686L105.038 86.9687L105.038 86.9688L105.038 86.9689L105.038 86.969L105.039 86.9691L105.04 86.9697C106.81 87.7458 108.551 88.5087 110.253 89.3039C112.387 90.259 116.306 92.8639 116.045 95.9463C116.004 96.4315 115.888 96.8978 115.776 97.3496C115.647 97.8683 115.522 98.3679 115.522 98.8551C115.522 99.4172 115.754 100.045 115.972 100.638C116.108 101.006 116.239 101.361 116.306 101.677C116.752 103.788 116.869 105.955 116.654 108.102C116.349 110.403 115.609 114.05 114.303 116.178C114.169 116.384 114.021 116.578 113.874 116.769C113.499 117.259 113.134 117.736 113.04 118.392C112.906 119.255 112.673 120.1 112.343 120.91C112.213 121.127 112.213 121.518 112.474 121.561C117.612 123.471 122.968 126.901 125.363 128.681C126.583 129.561 127.193 127.729 127.704 126.195ZM108.729 105.367C108.686 105.15 108.599 104.325 108.599 104.152C108.599 103.793 109.193 103.346 109.645 103.005L109.645 103.005C109.74 102.933 109.829 102.866 109.905 102.806C110.466 102.34 111.063 101.92 111.69 101.547C111.83 101.477 111.913 101.602 111.963 101.677C111.976 101.696 111.986 101.712 111.995 101.72C113.737 104.325 113.084 110.794 111.821 113.877C111.69 114.18 111.429 114.311 111.298 114.094C110.645 112.704 109.731 111.445 108.642 110.794C108.498 110.66 108.419 110.47 108.425 110.273C108.859 108.675 108.963 107.006 108.729 105.367ZM68.4949 74.239C60.7876 72.3722 54.3431 74.8034 52.1224 76.5834C47.9422 79.8829 44.6764 85.2229 45.9827 92.8205C46.5052 96.0766 47.5067 98.8117 49.1178 101.069C53.5688 107.366 60.7407 110.743 67.9079 114.117C71.1181 115.629 74.3274 117.14 77.2908 118.913C77.427 119.023 77.603 119.071 77.7765 119.046C77.9499 119.021 78.1053 118.926 78.2052 118.782L78.2213 118.759C79.825 116.425 81.1316 114.524 83.8224 113.399C86.252 112.399 89.9453 112.591 93.3597 112.769L93.3627 112.769C93.8025 112.792 94.2376 112.815 94.6648 112.835C98.5402 113.008 102.72 112.661 104.114 110.664C105.812 108.276 105.725 103.5 103.156 102.024C102.415 101.609 101.489 101.402 100.561 101.195C99.7452 101.012 98.9283 100.83 98.2354 100.505C97.1468 100.027 96.3195 99.0722 95.7099 97.7698C95.2309 96.6844 94.7519 94.9044 95.4051 93.7322C95.9613 92.6656 97.4427 92.9826 98.6509 93.241L98.7144 93.2546C101.109 93.819 105.159 94.3834 107.467 93.3849C108.12 93.0376 105.681 91.3878 104.767 90.9537C102.618 89.8924 100.16 89.0806 97.7074 88.2701L97.7073 88.2701C94.9422 87.3566 92.1824 86.4448 89.875 85.1795C88.3303 84.3217 86.9524 83.2188 85.5679 82.1106C83.8691 80.7509 82.1604 79.3831 80.1211 78.4502C76.3698 76.7269 72.4809 75.3183 68.4949 74.239ZM37.1866 59.3912C35.3142 59.1741 35.2707 57.7849 36.0545 57.2639C38.8072 55.4607 41.7404 53.9475 44.8068 52.7488C45.5607 52.3738 46.4115 52.2375 47.2453 52.358C49.7273 52.6185 53.8204 54.2683 58.5232 57.6112C64.1403 61.6054 69.1914 69.2463 65.8386 68.6385C64.6152 68.3981 63.3796 68.2242 62.1373 68.1176C60.6971 67.9938 59.526 68.0253 58.5673 68.0511C57.8449 68.0705 57.2431 68.0867 56.7379 68.0307C56.2525 67.9419 55.8093 67.6981 55.4751 67.3361C50.7288 63.0815 45.2423 60.3898 37.1866 59.3912ZM89.0037 119.043C88.1951 119.55 87.6051 120.339 87.3491 121.257C87.322 121.347 87.28 121.472 87.2312 121.618C87.0443 122.176 86.7575 123.031 86.8265 123.341C86.8941 123.711 87.4064 124.238 87.7957 124.638L87.7957 124.638C87.9085 124.754 88.011 124.86 88.0893 124.947C88.948 125.968 89.8639 126.939 90.8326 127.856C91.3081 128.349 91.8504 128.772 92.4437 129.115C93.047 129.416 93.8825 129.485 94.7912 129.56L94.7916 129.561C95.0634 129.583 95.3418 129.606 95.6224 129.636L95.6572 129.64C99.0009 129.986 102.683 130.368 104.549 128.464C104.767 128.247 104.854 127.596 104.897 127.161C105.103 125.826 105.768 124.792 106.434 123.756C107.175 122.602 107.918 121.446 108.032 119.868C108.107 118.985 107.988 118.096 107.684 117.263C107.467 116.511 106.947 115.882 106.247 115.526C105.034 115.017 104.149 115.628 103.351 116.178C103.06 116.379 102.781 116.571 102.502 116.699C100.88 117.467 98.502 117.633 96.213 117.792H96.2128L95.9188 117.813L95.7095 117.827C95.4138 117.848 95.1168 117.866 94.8205 117.885L94.8198 117.885L94.8192 117.885L94.8185 117.885C92.5851 118.024 90.3873 118.162 89.0037 119.043ZM22.9474 68.0308C23.333 67.6006 23.8303 67.2851 24.3844 67.119C32.2462 65.2191 40.5145 65.92 47.9417 69.1161C49.3351 69.7239 49.9882 70.5922 49.0738 71.2C47.8981 71.8947 44.3711 74.1956 42.4116 76.0191C41.8455 76.4966 40.844 76.54 40.2344 76.4532L39.9889 76.4211C32.8319 75.486 28.9637 74.9806 18.1141 79.1015C16.4159 79.7961 14.8918 78.841 15.6756 77.5386C17.1126 74.8903 20.509 70.5054 22.9474 68.0308ZM8.36033 95.8161C7.98625 96.2742 7.75871 96.8338 7.70717 97.4224C4.92036 110.924 7.1411 122.212 9.79729 129.419C10.4069 130.982 12.8454 130.374 12.7583 127.031C12.7744 126.426 12.7805 125.756 12.7871 125.029V125.029C12.8697 115.944 13.0337 97.904 33.8771 85.4834C35.1399 84.7453 36.2285 84.0073 35.7059 82.7048C35.4011 81.9668 34.0513 81.8365 32.2224 82.097C18.1577 84.5717 9.10058 94.6873 8.36033 95.8161ZM36.098 113.095C32.1355 103.457 34.7046 94.8175 36.4899 91.518C37.3608 89.8683 38.2317 88.7829 39.3638 89.0868C40.5831 89.4341 40.8879 90.6932 41.0621 92.9941C42.3248 112.227 53.9946 118.696 68.6254 125.512C80.2081 131.416 93.3583 138.145 104.375 154.469C106.03 156.814 106.291 158.246 104.419 159.592C97.7127 164.151 91.6166 167.363 82.6901 169.447C81.3402 169.751 79.9468 169.534 78.7711 166.452C72.0291 149.187 62.8068 141.724 54.2738 134.82C47.1001 129.015 40.4137 123.604 36.098 113.095ZM109.165 151.43C109.774 152.602 110.863 154.079 112.735 152.212C115.958 149.042 120.53 142.921 122.054 139.969C122.089 139.892 122.128 139.814 122.169 139.734C122.427 139.223 122.729 138.624 122.315 137.798C121.575 136.279 117.438 131.633 114.651 129.506L114.618 129.48C113.533 128.658 112.068 127.548 110.689 127.161C110.336 127.057 109.968 127.013 109.6 127.031C108.575 127.149 108.443 127.623 108.039 129.065C107.997 129.216 107.951 129.377 107.902 129.549C107.162 132.067 105.725 133.847 104.462 134.368C103.295 134.914 101.998 135.124 100.717 134.976C99.6287 134.889 99.0626 135.888 99.8028 136.626C103.94 141.141 106.509 145.83 109.165 151.43Z" fill="black"/>
    <path d="M71.4555 89.9985C73.1102 90.5629 74.939 90.997 76.2018 91.7351C76.9421 92.1692 77.7259 93.298 78.7709 93.1678C79.816 93.0375 80.4691 90.9536 80.6868 89.9117C80.9916 88.3487 80.8175 86.3951 80.2949 85.3965C79.4241 83.7468 76.8985 83.356 74.2423 83.4863C72.8267 83.5237 71.4217 83.7426 70.0621 84.1375C68.5816 84.5716 66.5786 85.5702 67.4495 87.6107C68.0156 88.9131 70.0186 89.5209 71.4555 89.9985Z" fill="black"/>
</svg>
