<svg viewBox="0 0 70 72" fill="none" xmlns="http://www.w3.org/2000/svg">
<path d="M15.1095 0.0200195H0V11.8194H15.1095V0.0200195Z" fill="#004B98"/>
<path d="M15.1095 11.8193H0V71.9949H15.1095V11.8193Z" fill="#0676D3"/>
<path d="M15.1099 11.8195H29.2321C29.2321 11.8195 40.3375 12.2589 40.1571 23.2045C39.9767 33.8903 30.3096 34.3597 30.3096 34.3597L21.7901 34.5195L27.4982 45.9494C27.4982 45.9494 54.9108 48.7308 55.6174 23.1545C55.6174 -1.20832 30.2695 0.0100731 30.2695 0.0100731H15.1099V11.8195Z" fill="#0676D3"/>
<path d="M21.79 34.5197L40.6281 71.9703L59 72.0002L43.3393 43.2532C43.3393 43.2532 38.0321 34.6096 32.6248 34.3799L21.79 34.5197Z" fill="#004B98"/>
<circle cx="57" cy="56" r="12" fill="#97272C" stroke="white" stroke-width="2"/>
<path d="M52.6836 60L50.4395 53.5488H52.2734L53.6094 58.4004H53.7148L55.0391 53.5488H56.8379L54.6055 60H52.6836ZM57.9922 60V58.8105L60.7168 56.1211C61.9062 54.9668 62.2285 54.5391 62.2285 53.9473V53.9297C62.2285 53.209 61.7363 52.7051 60.9277 52.7051C60.1016 52.7051 59.5332 53.2559 59.5332 54.0586V54.0879H57.8984L57.8926 54.0645C57.8926 52.4414 59.1582 51.3281 61.0098 51.3281C62.75 51.3281 63.9688 52.3242 63.9688 53.7832V53.8008C63.9688 54.7617 63.4707 55.5586 61.9297 56.9824L60.3652 58.4414V58.5762H64.0918V60H57.9922Z" fill="white"/>
</svg>
