<svg viewBox="0 0 70 72" fill="none" xmlns="http://www.w3.org/2000/svg">
<path d="M15.1095 0.0200195H0V11.8194H15.1095V0.0200195Z" fill="#004B98"/>
<path d="M15.1095 11.8193H0V71.9949H15.1095V11.8193Z" fill="#0676D3"/>
<path d="M15.1099 11.8195H29.2321C29.2321 11.8195 40.3375 12.2589 40.1571 23.2045C39.9767 33.8903 30.3096 34.3597 30.3096 34.3597L21.7901 34.5195L27.4982 45.9494C27.4982 45.9494 54.9108 48.7308 55.6174 23.1545C55.6174 -1.20832 30.2695 0.0100731 30.2695 0.0100731H15.1099V11.8195Z" fill="#0676D3"/>
<path d="M21.79 34.5197L40.6281 71.9703L59 72.0002L43.3393 43.2532C43.3393 43.2532 38.0321 34.6096 32.6248 34.3799L21.79 34.5197Z" fill="#004B98"/>
<circle cx="57" cy="56" r="12" fill="#C25700" stroke="white" stroke-width="2"/>
<path d="M52.0312 60L49.7871 53.5488H51.6211L52.957 58.4004H53.0625L54.3867 53.5488H56.1855L53.9531 60H52.0312ZM60.498 60.1875C58.5879 60.1875 57.3281 59.1621 57.2109 57.6504L57.2051 57.5742H58.8984L58.9043 57.6387C58.9805 58.2949 59.584 58.7637 60.498 58.7637C61.4004 58.7637 61.9922 58.2598 61.9922 57.5449V57.5332C61.9922 56.7246 61.3887 56.2793 60.3633 56.2793H59.3965V55.0195H60.3398C61.2305 55.0195 61.8047 54.5508 61.8047 53.8652V53.8535C61.8047 53.1504 61.3184 52.7168 60.4863 52.7168C59.6543 52.7168 59.0977 53.168 59.0273 53.8711L59.0215 53.9238H57.3926L57.3984 53.8535C57.5215 52.3418 58.7109 51.3574 60.4863 51.3574C62.3027 51.3574 63.4746 52.2715 63.4746 53.6191V53.6309C63.4746 54.6855 62.7012 55.3711 61.7109 55.5762V55.6113C62.9707 55.7285 63.791 56.4551 63.791 57.6035V57.6152C63.791 59.1504 62.4727 60.1875 60.498 60.1875Z" fill="white"/>
</svg>
