<svg viewBox="0 0 70 72" fill="none" xmlns="http://www.w3.org/2000/svg">
<path d="M15.1095 0.0200195H0V11.8194H15.1095V0.0200195Z" fill="#004B98"/>
<path d="M15.1095 11.8193H0V71.9949H15.1095V11.8193Z" fill="#0676D3"/>
<path d="M15.1099 11.8195H29.2321C29.2321 11.8195 40.3375 12.2589 40.1571 23.2045C39.9767 33.8903 30.3096 34.3597 30.3096 34.3597L21.7901 34.5195L27.4982 45.9494C27.4982 45.9494 54.9108 48.7308 55.6174 23.1545C55.6174 -1.20832 30.2695 0.0100731 30.2695 0.0100731H15.1099V11.8195Z" fill="#0676D3"/>
<path d="M21.79 34.5195L40.6281 71.97L59 72L43.3393 43.2529C43.3393 43.2529 38.0321 34.6093 32.6248 34.3796L21.79 34.5195Z" fill="#004B98"/>
<circle cx="57" cy="56" r="12" fill="#004B98" stroke="white" stroke-width="2"/>
<path d="M52.9746 60L50.7305 53.5488H52.5645L53.9004 58.4004H54.0059L55.3301 53.5488H57.1289L54.8965 60H52.9746ZM60.3516 60V53.2148H60.2461L58.1719 54.6562V53.0625L60.3574 51.5449H62.1211V60H60.3516Z" fill="white"/>
</svg>
