<svg viewBox="0 0 24 24" xmlns="http://www.w3.org/2000/svg">
  <path fill-rule="evenodd" clip-rule="evenodd" d="M11.99 2C6.47 2 2 6.48 2 12C2 17.52 6.47 22 11.99 22C17.52 22 22 17.52 22 12C22 6.48 17.52 2 11.99 2ZM13.003 7H11.003V13H13.003V7ZM13.003 14.9985H11.003V16.9985H13.003V14.9985ZM4.00149 12.0015C4.00149 16.4215 7.58149 20.0015 12.0015 20.0015C16.4215 20.0015 20.0015 16.4215 20.0015 12.0015C20.0015 7.58149 16.4215 4.00149 12.0015 4.00149C7.58149 4.00149 4.00149 7.58149 4.00149 12.0015Z" />
</svg>
