<svg viewBox="0 0 24 24" xmlns="http://www.w3.org/2000/svg">
    <path fill-rule="evenodd" clip-rule="evenodd" d="M3 2.1875C3 1.63522 3.44772 1.1875 4 1.1875H16C16.2664 1.1875 16.5218 1.29382 16.7096 1.48287L20.7096 5.5109C20.8956 5.69823 21 5.95152 21 6.21553V22.1875C21 22.7398 20.5523 23.1875 20 23.1875H4C3.44772 23.1875 3 22.7398 3 22.1875V2.1875ZM5 3.1875V21.1875H19V6.6277L15.5837 3.1875H5Z"/>
    <path fill-rule="evenodd" clip-rule="evenodd" d="M14 6.1875V2.1875H16V6.1875H20V8.1875H16C14.8954 8.1875 14 7.29207 14 6.1875Z"/>
    <rect x="7" y="11.1875" width="10" height="2"/>
    <rect x="7" y="15.1875" width="10" height="2"/>
</svg>
