<svg viewBox="0 0 32 32" xmlns="http://www.w3.org/2000/svg">
  <path d="M32 6.1334C30.8013 6.66196 29.5304 7.00873 28.2293 7.16227C29.5986 6.3479 30.6248 5.06293 31.116 3.54732C29.8265 4.30883 28.4167 4.84506 26.947 5.13297C25.9614 4.07664 24.6546 3.3752 23.2296 3.1375C21.8045 2.89981 20.3409 3.13916 19.0657 3.81841C17.7906 4.49765 16.7754 5.5788 16.1776 6.89407C15.5798 8.20933 15.4328 9.68514 15.7596 11.0925C13.152 10.964 10.6005 10.29 8.26961 9.11408C5.93877 7.93815 3.88049 6.2864 2.2277 4.26552C1.38825 5.70402 1.13105 7.4092 1.50885 9.0313C1.88665 10.6534 2.87082 12.0695 4.25949 12.989C3.21742 12.9567 2.19806 12.6765 1.28584 12.1717C1.28537 12.199 1.28528 12.2263 1.28528 12.2539C1.28819 13.7657 1.81433 15.2299 2.77433 16.3978C3.73433 17.5657 5.06901 18.3653 6.55168 18.6609C5.58463 18.9223 4.57082 18.9606 3.58681 18.7728C4.00937 20.0735 4.82743 21.2099 5.92686 22.0234C7.02628 22.8369 8.35222 23.2869 9.71967 23.3106C7.39091 25.1282 4.52022 26.1129 1.56612 26.1076C1.04275 26.1077 0.519815 26.0773 0 26.0163C3.00487 27.9371 6.49752 28.9559 10.0638 28.9519C22.1396 28.9519 28.7431 18.9955 28.7431 10.3611C28.7431 10.0778 28.7368 9.79604 28.7241 9.51581C30.0085 8.59202 31.1178 7.44663 32 6.1334V6.1334Z"/>
</svg>
