<svg viewBox="0 0 136 135" fill="none" xmlns="http://www.w3.org/2000/svg">
<path d="M80.2515 43.3532C79.3806 41.7034 76.8551 41.3127 74.1989 41.4429C72.7832 41.4803 71.3783 41.6992 70.0187 42.0942C68.5382 42.5283 66.5351 43.5268 67.406 45.5673C67.9721 46.9566 69.9751 47.521 71.4121 47.9986C73.0667 48.5629 74.8956 48.9971 76.1584 49.7351C76.8986 50.1693 77.6824 51.2981 78.7275 51.1678C79.7725 51.0376 80.4257 48.9537 80.6434 47.9117C80.9482 46.3054 80.8176 44.3517 80.2515 43.3532Z" fill="#000000"/>
<path fill-rule="evenodd" clip-rule="evenodd" d="M68.1027 0.112183C31.0468 0.112183 0.87085 30.1551 0.87085 67.4917C0.87085 104.828 31.2645 134.915 68.1463 134.915C105.594 134.915 135.944 104.872 135.944 67.5351C135.901 30.1551 105.551 0.112183 68.1027 0.112183ZM28.6519 114.77C27.6447 113.917 26.8034 112.887 26.1699 111.731C20.4221 102.571 17.1998 70.1834 24.6023 59.1995C26.9537 55.3356 29.4357 57.1156 28.6083 60.1112C27.1714 66.7971 28.0423 70.5307 31.3081 77.781C34.9391 85.3897 43.898 95.1016 50.3164 102.06C52.9804 104.947 55.2068 107.361 56.4329 108.953C63.6177 118.243 66.0126 125.016 65.969 126.84C65.9255 128.229 65.6642 129.14 63.1822 128.923C50.2497 127.925 37.6655 122.541 28.6519 114.77ZM127.704 84.1946L127.758 84.0326C138.6 47.521 111.647 4.49706 64.8369 6.19023C61.8759 6.36389 59.4375 7.2756 61.6147 8.96877C68.2769 14.0917 71.8475 20.7341 73.1103 26.7688C73.1974 27.2897 73.4586 27.5936 74.1553 27.8107C77.2034 28.6356 84.9107 31.6746 87.3056 33.498C88.2545 34.2205 89.1967 35.1884 90.1726 36.191C91.6596 37.7187 93.2251 39.3271 95.0129 40.2707C98.4249 42.0701 101.782 43.5417 105.037 44.9686L105.038 44.9687L105.038 44.9688L105.038 44.9689L105.038 44.969L105.039 44.9691L105.04 44.9697C106.81 45.7458 108.551 46.5087 110.253 47.3039C112.387 48.259 116.306 50.8639 116.045 53.9463C116.004 54.4314 115.888 54.8978 115.776 55.3496C115.646 55.8683 115.522 56.3679 115.522 56.8551C115.522 57.4172 115.754 58.0453 115.972 58.6376C116.108 59.0061 116.239 59.3607 116.306 59.677C116.752 61.7884 116.869 63.9555 116.654 66.1024C116.349 68.4034 115.609 72.0502 114.303 74.1775C114.169 74.3844 114.021 74.5777 113.874 74.7688C113.499 75.2593 113.134 75.7356 113.04 76.3917C112.906 77.2551 112.673 78.1001 112.343 78.9097C112.213 79.1268 112.213 79.5175 112.474 79.5609C117.612 81.4712 122.968 84.9009 125.363 86.6809C126.583 87.5614 127.193 85.729 127.704 84.1946ZM108.729 63.3673C108.686 63.1502 108.599 62.3254 108.599 62.1517C108.599 61.7932 109.192 61.3459 109.645 61.0053C109.74 60.9335 109.829 60.8664 109.905 60.8059C110.466 60.3405 111.063 59.9195 111.69 59.5468C111.83 59.4774 111.913 59.6024 111.963 59.6774C111.976 59.6962 111.986 59.7118 111.995 59.7205C113.737 62.3254 113.084 68.7941 111.821 71.8766C111.69 72.1805 111.429 72.3107 111.298 72.0937C110.645 70.7044 109.731 69.4454 108.642 68.7941C108.498 68.6596 108.419 68.4699 108.424 68.2732C108.859 66.6754 108.962 65.0063 108.729 63.3673ZM68.4946 32.239C60.7873 30.3722 54.3428 32.8034 52.1221 34.5834C47.9419 37.8829 44.6761 43.2229 45.9824 50.8205C46.5049 54.0766 47.5064 56.8117 49.1176 59.0693C53.5685 65.366 60.7404 68.7428 67.9076 72.1174L67.9078 72.1175C71.1179 73.6289 74.3271 75.14 77.2905 76.9127C77.4268 77.0225 77.6027 77.0709 77.7762 77.0462C77.9496 77.0215 78.105 76.9259 78.2049 76.7825L78.2211 76.759C79.8248 74.4253 81.1314 72.524 83.8221 71.399C86.2517 70.3993 89.9451 70.5915 93.3594 70.7692L93.3625 70.7693C93.8022 70.7922 94.2374 70.8148 94.6645 70.8346C98.54 71.0083 102.72 70.661 104.114 68.6639C105.812 66.2761 105.725 61.5005 103.156 60.0244C102.414 59.6087 101.488 59.4018 100.561 59.1947C99.7449 59.0125 98.928 58.83 98.2351 58.5049C97.1465 58.0273 96.3192 57.0722 95.7096 55.7698C95.2306 54.6844 94.7516 52.9044 95.4048 51.7322C95.9611 50.6656 97.4425 50.9826 98.6506 51.2411L98.7141 51.2546C101.109 51.819 105.159 52.3834 107.466 51.3849C108.12 51.0376 105.681 49.3878 104.767 48.9537C102.617 47.8924 100.16 47.0806 97.7071 46.2701C94.9419 45.3566 92.1821 44.4448 89.8747 43.1795C88.33 42.3217 86.9521 41.2188 85.5676 40.1106C83.8689 38.7509 82.1601 37.3831 80.1209 36.4503C76.3695 34.7269 72.4807 33.3183 68.4946 32.239ZM37.1865 17.3912C35.3141 17.1741 35.2706 15.7849 36.0544 15.2639C38.8071 13.4607 41.7403 11.9475 44.8067 10.7488C45.5606 10.3738 46.4114 10.2375 47.2452 10.358C49.7272 10.6185 53.8203 12.2683 58.5231 15.6112C64.1402 19.6054 69.1913 27.2463 65.8384 26.6385C64.6151 26.3981 63.3795 26.2242 62.1372 26.1176C60.697 25.9938 59.5259 26.0253 58.5672 26.0511C57.8448 26.0705 57.243 26.0867 56.7378 26.0307C56.2524 25.9419 55.8092 25.6981 55.475 25.3361C50.7287 21.0815 45.2421 18.3897 37.1865 17.3912ZM89.0038 77.0429C88.1951 77.55 87.6051 78.3394 87.3491 79.2571C87.3221 79.347 87.2801 79.4724 87.2312 79.6181C87.0443 80.1756 86.7576 81.0312 86.8266 81.341C86.8941 81.7112 87.4065 82.238 87.7958 82.6381C87.9086 82.7541 88.0111 82.8595 88.0894 82.9473C88.948 83.9677 89.8639 84.9389 90.8326 85.8561C91.3082 86.3486 91.8505 86.7724 92.4438 87.1151C93.0471 87.4159 93.8825 87.4851 94.7913 87.5605L94.7917 87.5605C95.0635 87.583 95.3418 87.6061 95.6225 87.6361L95.6573 87.6397C99.0009 87.9861 102.683 88.3675 104.549 86.4639C104.767 86.2468 104.854 85.5956 104.897 85.1615C105.103 83.826 105.768 82.792 106.434 81.7557C107.175 80.6021 107.918 79.4458 108.033 77.8678C108.107 76.9846 107.988 76.0959 107.684 75.2629C107.467 74.5107 106.947 73.882 106.247 73.5263C105.034 73.0171 104.149 73.6279 103.351 74.1783C103.06 74.3787 102.781 74.5711 102.502 74.6985C100.88 75.4669 98.502 75.6325 96.213 75.792H96.2129C96.0445 75.8037 95.8766 75.8154 95.7096 75.8273C95.4136 75.8477 95.1164 75.8662 94.8199 75.8847L94.8192 75.8848L94.8185 75.8848C92.5851 76.0243 90.3874 76.1616 89.0038 77.0429ZM22.9476 26.0307C23.3332 25.6006 23.8305 25.2851 24.3846 25.119C32.2464 23.219 40.5147 23.92 47.9419 27.1161C49.3353 27.7239 49.9884 28.5922 49.074 29.2C47.8983 29.8946 44.3713 32.1956 42.4118 34.019C41.8457 34.4966 40.8442 34.54 40.2346 34.4532L39.9891 34.4211C32.8321 33.486 28.9639 32.9805 18.1143 37.1015C16.416 37.7961 14.892 36.841 15.6758 35.5385C17.1128 32.8903 20.5092 28.5054 22.9476 26.0307ZM8.36042 53.8161C7.98633 54.2743 7.7588 54.8338 7.70726 55.4224C4.92045 68.9243 7.14119 80.2122 9.79737 87.419C10.407 88.9819 12.8454 88.3741 12.7584 85.0312C12.7745 84.4262 12.7806 83.7563 12.7872 83.029V83.0289C12.8698 73.9444 13.0338 55.9041 33.8772 43.4834C35.14 42.7453 36.2286 42.0073 35.706 40.7048C35.4012 39.9668 34.0514 39.8366 32.2225 40.097C18.1578 42.5717 9.10067 52.6873 8.36042 53.8161ZM36.0979 71.0951C32.1354 61.4571 34.7045 52.8175 36.4898 49.518C37.3607 47.8683 38.2315 46.7829 39.3637 47.0868C40.5829 47.4341 40.8877 48.6932 41.0619 50.9941C42.3247 70.2268 53.9944 76.6956 68.6252 83.5117C80.2079 89.4161 93.3582 96.1453 104.375 112.469C106.029 114.814 106.291 116.246 104.418 117.592C97.7126 122.151 91.6164 125.363 82.6899 127.447C81.34 127.751 79.9466 127.534 78.771 124.452C72.029 107.187 62.8066 99.7243 54.2737 92.8196C47.1 87.0148 40.4135 81.6043 36.0979 71.0951ZM109.165 109.43C109.774 110.602 110.863 112.079 112.735 110.212C115.958 107.042 120.53 100.921 122.054 97.9688C122.089 97.8924 122.128 97.8145 122.169 97.7344C122.427 97.2226 122.729 96.6239 122.315 95.798C121.575 94.2785 117.438 89.6332 114.651 87.5059L114.618 87.4805C113.532 86.658 112.068 85.5482 110.689 85.1615C110.336 85.0566 109.968 85.0126 109.6 85.0312C108.575 85.1491 108.442 85.623 108.039 87.0649C107.996 87.2155 107.951 87.3768 107.902 87.5493C107.162 90.0673 105.725 91.8473 104.462 92.3683C103.295 92.9138 101.998 93.1243 100.717 92.9761C99.6286 92.8893 99.0625 93.8878 99.8027 94.6259C103.939 99.141 106.508 103.83 109.165 109.43Z" fill="#000000"/>
<path d="M71.4555 47.9985C73.1102 48.5629 74.939 48.997 76.2018 49.7351C76.9421 50.1692 77.7259 51.298 78.7709 51.1678C79.816 51.0375 80.4691 48.9536 80.6868 47.9117C80.9916 46.3487 80.8175 44.3951 80.2949 43.3965C79.4241 41.7468 76.8985 41.356 74.2423 41.4863C72.8267 41.5237 71.4217 41.7426 70.0621 42.1375C68.5816 42.5716 66.5786 43.5702 67.4495 45.6107C68.0156 46.9131 70.0186 47.5209 71.4555 47.9985Z" fill="#000000"/>
</svg>
