<svg viewBox="0 0 152 139" fill="none" xmlns="http://www.w3.org/2000/svg">
<g clip-path="url(#clip0_53471_41906)">
<path d="M130.79 29.5411H20.9897C17.8568 29.5411 15.3171 32.0758 15.3171 35.2025V133.341C15.3171 136.467 17.8568 139.002 20.9897 139.002H130.79C133.923 139.002 136.462 136.467 136.462 133.341V35.2025C136.462 32.0758 133.923 29.5411 130.79 29.5411Z" fill="#012F53"/>
<path d="M76.0001 7.79019C76.0001 7.79019 43.5204 -12.1819 -0.00830078 11.8424V123.174C-0.00830078 123.174 22.2179 100.053 58.7746 109.532V30.593H93.2256V109.532C129.784 100.059 152.008 123.168 152.008 123.168V11.8424C108.482 -12.1819 76.0001 7.79019 76.0001 7.79019Z" fill="url(#paint0_linear_53471_41906)"/>
<path d="M13.3123 98.9825C32.528 91.2552 51.7437 90.8696 70.9615 98.9825V20.0685C52.067 11.2537 32.845 11.1091 13.3123 20.0685V98.9825Z" fill="white"/>
<path d="M80.1023 98.9825C99.318 91.2552 118.534 90.8696 137.752 98.9825V20.0685C118.847 11.2537 99.635 11.1091 80.1023 20.0685V98.9825Z" fill="white"/>
</g>
<defs>
<linearGradient id="paint0_linear_53471_41906" x1="76.5186" y1="132.496" x2="75.5128" y2="5.94004" gradientUnits="userSpaceOnUse">
<stop offset="0.15" stop-color="#8AC33E"/>
<stop offset="0.3" stop-color="#5F9445"/>
<stop offset="0.47" stop-color="#37694B"/>
<stop offset="0.62" stop-color="#19494F"/>
<stop offset="0.74" stop-color="#073652"/>
<stop offset="0.83" stop-color="#012F53"/>
</linearGradient>
</defs>
</svg>
