<svg viewBox="0 0 155 139" fill="none" xmlns="http://www.w3.org/2000/svg">
<g clip-path="url(#clip0_54498_42322)">
<path d="M78.0867 9.49969C36.2607 -12.0237 1.80178 9.58976 0 10.7471V121.185C1.07431 119.913 5.51794 115.027 15.3939 111.613V133.209C15.3981 134.743 16.0094 136.213 17.0944 137.298C18.1793 138.384 19.6497 138.995 21.1844 139H133.298C134.832 138.995 136.303 138.384 137.388 137.298C138.473 136.213 139.084 134.743 139.088 133.209V111.003C150.908 114.714 155 120.888 155 120.888V10.7966C155 10.7966 121.052 -12.6091 78.0867 9.49969Z" fill="white"/>
<path d="M100.627 10.8012C143.223 6.9329 154.973 23.6355 154.973 23.6355V121.19C154.973 121.19 143.223 104.485 100.627 108.355V10.8012Z" fill="url(#paint0_linear_54498_42322)"/>
<path d="M147.325 106.011C110.989 88.8854 82.3547 106.011 82.3547 106.011V16.268C82.3547 16.268 110.958 -0.860131 147.325 16.268V106.011Z" fill="#0B1F31"/>
<path d="M130.113 124.927C130.124 125.565 129.945 126.192 129.599 126.729C129.233 127.268 128.72 127.691 128.12 127.947C127.403 128.249 126.631 128.397 125.854 128.379C125.243 128.388 124.633 128.338 124.032 128.23C123.502 128.112 122.988 127.932 122.5 127.695V125.085C123.057 125.372 123.643 125.598 124.248 125.76C124.79 125.912 125.35 125.993 125.912 126.001C126.248 126.027 126.583 125.948 126.872 125.776C126.967 125.71 127.044 125.623 127.097 125.52C127.15 125.418 127.177 125.304 127.176 125.189C127.18 125.049 127.135 124.913 127.05 124.803C126.943 124.664 126.809 124.548 126.656 124.461C126.187 124.204 125.706 123.971 125.214 123.763C124.642 123.523 124.105 123.208 123.615 122.827C123.279 122.542 123.009 122.187 122.827 121.786C122.649 121.344 122.563 120.871 122.575 120.395C122.554 119.946 122.643 119.498 122.833 119.091C123.024 118.683 123.31 118.328 123.667 118.055C124.404 117.488 125.406 117.204 126.671 117.204C127.861 117.218 129.034 117.484 130.113 117.986L129.212 120.251C128.197 119.787 127.319 119.554 126.579 119.553C126.288 119.528 125.996 119.598 125.748 119.753C125.668 119.809 125.602 119.883 125.557 119.97C125.511 120.057 125.487 120.153 125.487 120.251C125.492 120.365 125.524 120.477 125.581 120.576C125.637 120.676 125.717 120.76 125.813 120.823C126.39 121.176 126.992 121.484 127.615 121.746C128.552 122.165 129.201 122.615 129.563 123.097C129.946 123.628 130.14 124.273 130.113 124.927V124.927ZM121.825 128.237H118.509L116.361 124.083L115.491 124.603V128.237H112.541V117.362H115.491V122.09C115.762 121.609 116.063 121.145 116.392 120.701L118.676 117.371H121.885L118.467 122.23L121.825 128.237ZM103.1 122.788C103.1 124.89 103.831 125.941 105.293 125.941C106.034 125.941 106.584 125.684 106.942 125.175C107.3 124.666 107.485 123.869 107.485 122.788C107.485 121.707 107.302 120.904 106.935 120.39C106.753 120.132 106.508 119.924 106.223 119.787C105.938 119.651 105.623 119.589 105.307 119.609C103.835 119.603 103.1 120.66 103.1 122.779V122.788ZM110.577 122.788C110.577 124.617 110.127 126.007 109.226 126.958C108.325 127.91 107.012 128.386 105.287 128.386C103.579 128.386 102.271 127.907 101.361 126.949C100.451 125.992 100.001 124.6 100.01 122.775C100.01 120.973 100.46 119.593 101.361 118.634C102.262 117.675 103.577 117.197 105.307 117.2C107.037 117.2 108.347 117.673 109.239 118.621C110.131 119.568 110.579 120.954 110.584 122.779L110.577 122.788ZM90.9693 122.788C90.9693 124.89 91.6997 125.941 93.1607 125.941C93.9039 125.941 94.4535 125.684 94.8116 125.175C95.1697 124.666 95.3521 123.869 95.3521 122.788C95.3521 121.707 95.1719 120.904 94.8026 120.39C94.6209 120.131 94.3757 119.924 94.0906 119.787C93.8054 119.65 93.4899 119.589 93.1742 119.609C91.7043 119.603 90.9693 120.66 90.9693 122.779V122.788ZM98.4444 122.788C98.4444 124.617 97.9939 126.007 97.0931 126.958C96.1922 127.91 94.8791 128.386 93.1539 128.386C91.4497 128.386 90.1412 127.907 89.2283 126.949C88.3154 125.992 87.865 124.6 87.877 122.775C87.877 120.973 88.3274 119.593 89.2283 118.634C90.1292 117.675 91.4445 117.197 93.1742 117.2C94.9054 117.2 96.2162 117.673 97.1066 118.621C97.9969 119.568 98.4429 120.954 98.4444 122.779V122.788ZM80.9559 123.689V125.97H81.9807C82.8973 125.97 83.3568 125.585 83.3568 124.81C83.3659 124.652 83.337 124.493 83.2723 124.349C83.2077 124.204 83.1092 124.076 82.9852 123.977C82.6734 123.764 82.2988 123.662 81.9221 123.689H80.9559ZM80.9559 121.541H81.841C82.1852 121.563 82.527 121.471 82.814 121.28C82.9311 121.189 83.0242 121.072 83.0851 120.937C83.146 120.802 83.1728 120.655 83.1631 120.507C83.1631 119.899 82.7126 119.593 81.7802 119.593H80.9559V121.541ZM78.028 117.371H81.8185C83.296 117.371 84.3905 117.596 85.1045 118.033C85.8184 118.47 86.1833 119.159 86.1833 120.077C86.1982 120.634 86.034 121.181 85.7149 121.638C85.419 122.057 84.98 122.353 84.4806 122.471V122.543C85.0584 122.664 85.576 122.982 85.9446 123.444C86.2635 123.922 86.4213 124.49 86.395 125.065C86.4103 125.516 86.3159 125.964 86.1197 126.37C85.9235 126.776 85.6316 127.129 85.2689 127.397C84.5279 127.963 83.5212 128.246 82.2419 128.246H78.019L78.028 117.371ZM72.3412 121.649C72.022 121.641 71.7125 121.758 71.4786 121.975C71.2248 122.251 71.082 122.612 71.0777 122.986H73.5754C73.5844 122.63 73.4599 122.283 73.2263 122.014C73.1149 121.888 72.9768 121.789 72.8221 121.723C72.6674 121.658 72.5 121.628 72.3322 121.635L72.3412 121.649ZM72.5123 128.39C71.11 128.39 70.0199 128.015 69.2421 127.265C68.4644 126.514 68.0777 125.451 68.0822 124.076C68.0822 122.653 68.4411 121.563 69.1588 120.807C69.8765 120.05 70.9028 119.668 72.2376 119.661C73.5048 119.661 74.4808 119.993 75.1655 120.658C75.8569 121.316 76.206 122.268 76.206 123.511V124.803H71.0079C71.0077 125.014 71.0536 125.223 71.1423 125.414C71.231 125.605 71.3603 125.775 71.5214 125.911C71.9046 126.196 72.3755 126.338 72.8524 126.312C73.3239 126.316 73.7944 126.269 74.2556 126.17C74.7384 126.055 75.2073 125.888 75.6542 125.673V127.762C75.2103 127.991 74.7353 128.153 74.2443 128.244C73.6691 128.34 73.0865 128.385 72.5033 128.377L72.5123 128.39ZM64.8638 128.237H63.4224L57.4833 119.118H57.4315C57.5111 120.188 57.5501 121.169 57.5486 122.061V128.237H56.3819V117.362H57.8099L63.7377 126.436H63.7985C63.7865 126.304 63.764 125.876 63.7309 125.152C63.6972 124.423 63.6836 123.903 63.6949 123.592V117.362H64.8638V128.237ZM52.8955 128.237H46.8461V117.362H52.9045V118.488H48.1073V121.987H52.6117V123.101H48.1073V127.1H52.9045L52.8955 128.237ZM37.8619 122.878H38.9993C40.1194 122.878 40.9295 122.697 41.4295 122.336C41.9295 121.975 42.1795 121.395 42.1795 120.597C42.1795 119.88 41.9445 119.344 41.4745 118.99C41.0038 118.641 40.2696 118.463 39.2741 118.463H37.8619V122.878ZM43.4925 120.537C43.4925 121.638 43.1171 122.486 42.3664 123.079C41.6156 123.672 40.5428 123.965 39.148 123.959H37.871V128.237H36.6075V117.362H39.425C42.1397 117.362 43.497 118.417 43.497 120.528L43.4925 120.537ZM24.4455 122.788C24.4455 124.258 24.7578 125.375 25.3824 126.141C26.007 126.907 26.9184 127.286 28.1166 127.278C29.3178 127.278 30.2269 126.899 30.844 126.141C31.4611 125.383 31.7689 124.265 31.7674 122.788C31.7674 121.326 31.4596 120.219 30.844 119.467C30.2284 118.715 29.3275 118.34 28.1414 118.341C26.9402 118.341 26.0235 118.723 25.3914 119.485C24.7593 120.248 24.4455 121.346 24.45 122.779L24.4455 122.788ZM33.1053 122.788C33.1053 124.53 32.6646 125.897 31.7832 126.891C30.9018 127.884 29.6796 128.383 28.1166 128.386C26.5175 128.386 25.2811 127.895 24.4094 126.922C23.5378 125.95 23.1077 124.558 23.1077 122.775C23.1077 120.991 23.5423 119.636 24.4162 118.666C25.2901 117.695 26.5265 117.2 28.1324 117.2C29.6939 117.2 30.9131 117.696 31.79 118.688C32.6668 119.68 33.106 121.044 33.1075 122.779L33.1053 122.788Z" fill="black"/>
<path d="M54.3459 10.7925C11.7497 6.92423 -0.000115907 23.6268 -0.000115907 23.6268V121.181C-0.000115907 121.181 11.7497 104.476 54.3459 108.347V10.7925Z" fill="url(#paint1_linear_54498_42322)"/>
<path d="M8.52051 106.014C44.8578 88.8855 73.4925 106.014 73.4925 106.014V16.2659C73.4925 16.2659 44.8893 -0.857749 8.52051 16.2659V106.014Z" fill="#0B1F31"/>
</g>
<defs>
<linearGradient id="paint0_linear_54498_42322" x1="127.8" y1="121.19" x2="127.8" y2="10.218" gradientUnits="userSpaceOnUse">
<stop stop-color="#8ABF3F"/>
<stop offset="0.36" stop-color="#9EC856"/>
<stop offset="0.9" stop-color="#FFFFF9"/>
<stop offset="0.97" stop-color="white"/>
<stop offset="1" stop-color="white"/>
</linearGradient>
<linearGradient id="paint1_linear_54498_42322" x1="27.1729" y1="121.181" x2="27.1729" y2="10.2094" gradientUnits="userSpaceOnUse">
<stop stop-color="#8ABF3F"/>
<stop offset="0.36" stop-color="#9EC856"/>
<stop offset="0.9" stop-color="#FFFFF9"/>
<stop offset="0.97" stop-color="white"/>
<stop offset="1" stop-color="white"/>
</linearGradient>
</defs>
</svg>
