<svg viewBox="0 0 170 150" fill="none" xmlns="http://www.w3.org/2000/svg">
<g clip-path="url(#clip0_50221_35656)">
<path d="M78.2826 0H77.8576C74.6865 0.183333 0.0172589 4.8 0.0172589 44.05V136.367C0.0172589 138.333 -0.309664 140 1.65187 140.283L76.1413 149.667H77.073L154.505 140.833C156.466 140.6 156.139 138.917 156.139 134.583V46.3667C156.074 4.8 81.4538 0.183333 78.2826 0Z" fill="white"/>
<path d="M152.885 35.6835L107.737 42.3502L150.891 33.0668C150.976 33.0419 151.055 33.0002 151.124 32.9439C151.193 32.8876 151.251 32.818 151.293 32.739C151.336 32.66 151.363 32.5732 151.372 32.4835C151.382 32.3939 151.374 32.3033 151.349 32.2168C151.3 32.0616 151.201 31.9284 151.066 31.8402C150.932 31.752 150.772 31.7143 150.613 31.7335L105.432 41.0668L147.932 29.1335C148.017 29.1105 148.096 29.0704 148.165 29.0158C148.234 28.9611 148.291 28.893 148.334 28.8153C148.376 28.7376 148.403 28.652 148.413 28.5636C148.423 28.4751 148.415 28.3855 148.39 28.3002C148.344 28.1259 148.232 27.9772 148.079 27.8867C147.926 27.7961 147.744 27.771 147.573 27.8168L104.893 39.4835L144.581 25.6502C144.751 25.5927 144.89 25.4691 144.97 25.3066C145.05 25.1441 145.063 24.9559 145.006 24.7835C144.95 24.6111 144.829 24.4686 144.669 24.3874C144.51 24.3061 144.326 24.2927 144.156 24.3502V24.3502L102.392 38.3335L140.593 22.1502C140.758 22.0817 140.889 21.9492 140.958 21.782C141.027 21.6148 141.028 21.4265 140.961 21.2585C140.894 21.0905 140.764 20.9567 140.6 20.8863C140.436 20.816 140.251 20.815 140.086 20.8835L99.417 37.7335L135.804 18.8335C135.957 18.7429 136.07 18.5936 136.116 18.4186C136.162 18.2436 136.138 18.0571 136.049 17.9002C135.964 17.7572 135.831 17.65 135.675 17.598C135.519 17.5461 135.35 17.5527 135.199 17.6168L97.4391 36.6668L130.671 15.8502C130.799 15.7567 130.891 15.6213 130.933 15.4665C130.975 15.3118 130.963 15.1471 130.9 15.0002C130.854 14.9216 130.794 14.8531 130.722 14.7987C130.651 14.7443 130.569 14.7051 130.482 14.6833C130.395 14.6616 130.305 14.6578 130.217 14.6721C130.128 14.6865 130.044 14.7187 129.968 14.7668V14.7668L94.3987 36.4335L124.884 13.1002C124.955 13.0476 125.015 12.9809 125.061 12.9041C125.106 12.8274 125.135 12.7421 125.148 12.6535C125.16 12.5648 125.154 12.4746 125.132 12.3881C125.109 12.3016 125.069 12.2207 125.015 12.1502C124.965 12.0765 124.9 12.0139 124.826 11.9662C124.751 11.9186 124.668 11.8868 124.581 11.8728C124.494 11.8587 124.405 11.8628 124.319 11.8847C124.234 11.9066 124.154 11.9459 124.083 12.0002V12.0002L91.816 36.0168L118.656 10.6335C118.763 10.5008 118.819 10.3326 118.812 10.1609C118.805 9.98921 118.737 9.82608 118.62 9.70255C118.503 9.57902 118.345 9.50372 118.177 9.49099C118.009 9.47826 117.842 9.52899 117.708 9.63351V9.63351L89.266 35.7668L112.036 8.50018C112.153 8.36315 112.212 8.18432 112.2 8.00304C112.188 7.82175 112.105 7.65286 111.971 7.53351C111.836 7.41416 111.661 7.35414 111.483 7.36664C111.305 7.37914 111.14 7.46315 111.023 7.60018V7.60018L87.4516 34.9002L105.547 6.85018C105.596 6.77576 105.631 6.69216 105.648 6.60415C105.666 6.51613 105.667 6.42543 105.65 6.33721C105.633 6.24899 105.6 6.165 105.551 6.09001C105.503 6.01502 105.44 5.95052 105.367 5.90018C105.294 5.84984 105.212 5.81465 105.126 5.79662C105.039 5.77859 104.95 5.77807 104.864 5.79509C104.777 5.81212 104.695 5.84635 104.621 5.89584C104.548 5.94532 104.485 6.0091 104.435 6.08351L84.8199 35.1668L98.6324 5.50018C98.69 5.32996 98.6794 5.14344 98.6029 4.98115C98.5264 4.81886 98.3901 4.69393 98.2237 4.63351C98.0825 4.58207 97.9285 4.58038 97.7863 4.62873C97.644 4.67707 97.5218 4.77265 97.4391 4.90018L83.0708 34.2668L92.0449 4.56685C92.0643 4.48148 92.0669 4.39306 92.0528 4.30665C92.0386 4.22023 92.0079 4.1375 91.9623 4.0632C91.9168 3.9889 91.8573 3.92448 91.7874 3.87363C91.7174 3.82278 91.6382 3.78649 91.5545 3.76685C91.4032 3.73489 91.2456 3.75725 91.1086 3.83015C90.9716 3.90305 90.8635 4.02199 90.8026 4.16685L80.9949 34.0335L85.5064 4.03351C85.5346 3.85449 85.4919 3.67139 85.3877 3.52449C85.2834 3.37758 85.1262 3.27891 84.9507 3.25018C84.7751 3.22145 84.5955 3.26501 84.4514 3.37128C84.3073 3.47755 84.2106 3.63782 84.1824 3.81685V3.81685L78.8535 34.5335L78.6901 3.70018C78.6901 3.51895 78.6195 3.34514 78.4938 3.21699C78.3681 3.08884 78.1976 3.01685 78.0199 3.01685C77.8421 3.01685 77.6717 3.08884 77.546 3.21699C77.4203 3.34514 77.3497 3.51895 77.3497 3.70018L76.843 34.7335L71.7266 3.76685C71.6925 3.5954 71.5952 3.44383 71.4547 3.34336C71.3142 3.2429 71.1413 3.20118 70.9716 3.22682C70.8019 3.25246 70.6483 3.34349 70.5424 3.48117C70.4365 3.61884 70.3865 3.79267 70.4026 3.96685L74.767 35.0002L64.5507 4.20018C64.4864 4.04364 64.3674 3.91706 64.2167 3.84508C64.0659 3.77311 63.8944 3.76088 63.7353 3.81078C63.5762 3.86069 63.4411 3.96915 63.3561 4.11506C63.2711 4.26097 63.2425 4.4339 63.2757 4.60018L72.5766 35.0002L57.5381 5.00018C57.4493 4.84328 57.3029 4.7288 57.1312 4.68192C56.9596 4.63504 56.7767 4.65959 56.6228 4.75018C56.4825 4.83697 56.3774 4.97208 56.3264 5.13105C56.2755 5.29003 56.282 5.46236 56.3449 5.61685L70.4843 35.2835L50.5093 6.25018C50.4589 6.17576 50.3945 6.11221 50.32 6.06314C50.2455 6.01407 50.1622 5.98045 50.0749 5.9642C49.9876 5.94795 49.8981 5.94939 49.8113 5.96843C49.7246 5.98747 49.6424 6.02374 49.5694 6.07518C49.4964 6.12661 49.4341 6.1922 49.386 6.2682C49.3378 6.3442 49.3049 6.42911 49.2889 6.5181C49.273 6.60709 49.2744 6.69841 49.2931 6.78684C49.3117 6.87528 49.3473 6.9591 49.3978 7.03351V7.03351L68.0487 35.2502L43.7583 7.83351C43.6993 7.76676 43.628 7.71251 43.5484 7.67387C43.4688 7.63523 43.3825 7.61295 43.2945 7.60831C43.2064 7.60367 43.1183 7.61675 43.0353 7.64681C42.9522 7.67687 42.8757 7.72332 42.8103 7.78351C42.7448 7.8437 42.6916 7.91645 42.6537 7.9976C42.6158 8.07876 42.5939 8.16673 42.5894 8.25649C42.5848 8.34625 42.5977 8.43605 42.6272 8.52076C42.6566 8.60547 42.7022 8.68342 42.7612 8.75018V8.75018L65.9074 35.7335L37.1218 9.86685C36.9896 9.74529 36.8154 9.68227 36.6376 9.69164C36.4598 9.70102 36.2929 9.78203 36.1737 9.91685C36.0545 10.0517 35.9927 10.2292 36.0019 10.4105C36.0111 10.5918 36.0905 10.762 36.2228 10.8835V10.8835L62.7362 35.4502L31.1718 12.1168C31.1016 12.0625 31.0214 12.0233 30.936 12.0014C30.8505 11.9795 30.7616 11.9754 30.6746 11.9894C30.5876 12.0034 30.5042 12.0352 30.4295 12.0829C30.3549 12.1306 30.2904 12.1931 30.2401 12.2668C30.186 12.3374 30.1464 12.4183 30.1236 12.5048C30.1009 12.5912 30.0954 12.6815 30.1077 12.7702C30.1199 12.8588 30.1494 12.9441 30.1947 13.0208C30.2399 13.0975 30.2998 13.1642 30.3708 13.2168L60.4968 36.0835L25.5324 14.7335C25.4578 14.6857 25.3744 14.6538 25.2874 14.6396C25.2003 14.6255 25.1114 14.6294 25.0259 14.6512C24.9404 14.673 24.8601 14.7122 24.7898 14.7664C24.7196 14.8207 24.6608 14.8889 24.617 14.9668C24.5253 15.1197 24.4962 15.3033 24.5359 15.4778C24.5757 15.6524 24.6811 15.8041 24.8295 15.9002L58.4862 37.0002L20.1872 17.7502C20.0306 17.6814 19.8541 17.676 19.6938 17.7352C19.5334 17.7944 19.4013 17.9137 19.3242 18.0688C19.2471 18.2239 19.2309 18.4031 19.2788 18.57C19.3268 18.7368 19.4354 18.8787 19.5824 18.9668L55.593 37.5668L15.4958 20.9002C15.4143 20.8663 15.3269 20.849 15.2388 20.8495C15.1508 20.85 15.0636 20.8682 14.9824 20.903C14.9012 20.9378 14.8275 20.9886 14.7656 21.0525C14.7036 21.1163 14.6546 21.192 14.6213 21.2752C14.588 21.3583 14.5712 21.4474 14.5716 21.5372C14.5721 21.627 14.5899 21.7159 14.6241 21.7987C14.6582 21.8815 14.7081 21.9566 14.7707 22.0198C14.8333 22.0829 14.9075 22.1329 14.9891 22.1668V22.1668L53.9583 38.8168L11.2622 24.4835C11.1785 24.4551 11.0901 24.4437 11.002 24.4501C10.914 24.4565 10.8281 24.4804 10.7492 24.5207C10.6702 24.5609 10.5998 24.6166 10.542 24.6846C10.4842 24.7526 10.4401 24.8315 10.4122 24.9168C10.3843 25.0022 10.3731 25.0923 10.3794 25.1821C10.3856 25.2718 10.4092 25.3594 10.4486 25.4399C10.5283 25.6025 10.6681 25.726 10.8372 25.7835V25.7835L51.9478 40.0002L7.63334 28.3335C7.4675 28.3026 7.29634 28.3366 7.15398 28.4286C7.01161 28.5207 6.9085 28.6641 6.86519 28.8302C6.82188 28.9963 6.84156 29.1729 6.92031 29.3249C6.99905 29.4769 7.13108 29.593 7.29007 29.6502L50.1824 41.3168L4.67468 32.2668C4.58989 32.2417 4.50107 32.2338 4.41328 32.2436C4.3255 32.2534 4.24048 32.2808 4.16306 32.3241C4.08565 32.3675 4.01737 32.4259 3.96211 32.4962C3.90686 32.5664 3.86571 32.6471 3.84103 32.7335C3.81634 32.82 3.8086 32.9105 3.81824 33C3.82788 33.0895 3.85472 33.1762 3.89722 33.2552C3.93972 33.3341 3.99705 33.4037 4.06594 33.4601C4.13483 33.5164 4.21393 33.5583 4.29872 33.5835H4.3968L47.0112 42.4502L2.54968 36.1168C2.37886 36.1004 2.20837 36.1515 2.07334 36.2594C1.93832 36.3673 1.84903 36.524 1.82389 36.697C1.79874 36.8701 1.83965 37.0464 1.93819 37.1896C2.03672 37.3328 2.18538 37.432 2.35353 37.4668L34.343 42.3168L77.7093 47.5002L114.75 43.0168L153.081 37.0335C153.17 37.0252 153.255 36.9991 153.334 36.9568C153.412 36.9145 153.481 36.8568 153.537 36.7871C153.593 36.7174 153.636 36.6369 153.661 36.5505C153.687 36.4641 153.695 36.3733 153.686 36.2835C153.678 36.1936 153.652 36.1063 153.611 36.0265C153.57 35.9467 153.513 35.8761 153.445 35.8188C153.376 35.7615 153.297 35.7185 153.213 35.6924C153.128 35.6663 153.039 35.6577 152.951 35.6668L152.885 35.6835Z" fill="#ED1C24"/>
<path d="M165.507 134.684C165.372 134.529 165.211 134.4 165.033 134.3C165.364 134.267 165.671 134.114 165.899 133.867C166.1 133.632 166.206 133.328 166.193 133.017C166.194 132.769 166.126 132.527 165.997 132.317C165.882 132.118 165.703 131.965 165.491 131.884C165.156 131.787 164.808 131.747 164.461 131.767H162.826V136.25H163.627V134.584H163.791C163.921 134.568 164.053 134.568 164.183 134.584C164.269 134.624 164.347 134.68 164.412 134.75C164.559 134.934 164.69 135.134 164.82 135.334L165.376 136.184H166.471L165.932 135.334C165.809 135.105 165.667 134.887 165.507 134.684V134.684ZM164.199 133.817H163.693V132.6H164.232C164.423 132.701 164.638 132.747 164.853 132.734C164.979 132.744 165.096 132.804 165.18 132.9C165.259 132.999 165.3 133.123 165.294 133.25C165.326 133.353 165.326 133.464 165.294 133.567C165.242 133.654 165.161 133.719 165.066 133.75C164.781 133.812 164.49 133.834 164.199 133.817Z" fill="#00ACE4"/>
<path d="M164.379 130C163.564 129.997 162.767 130.24 162.088 130.699C161.409 131.157 160.878 131.811 160.563 132.577C160.248 133.344 160.164 134.188 160.319 135.003C160.475 135.818 160.865 136.568 161.438 137.158C162.012 137.748 162.745 138.151 163.543 138.316C164.341 138.481 165.17 138.401 165.924 138.087C166.678 137.772 167.323 137.236 167.779 136.547C168.234 135.858 168.479 135.047 168.482 134.217V134.217C168.484 133.665 168.38 133.119 168.175 132.608C167.97 132.098 167.668 131.634 167.287 131.242C166.906 130.85 166.453 130.539 165.954 130.326C165.455 130.113 164.92 130.002 164.379 130ZM164.379 137.817C163.674 137.817 162.985 137.604 162.399 137.204C161.813 136.805 161.356 136.238 161.087 135.574C160.817 134.91 160.746 134.179 160.884 133.475C161.021 132.77 161.361 132.122 161.859 131.614C162.358 131.106 162.993 130.76 163.684 130.62C164.375 130.48 165.091 130.552 165.743 130.827C166.394 131.102 166.95 131.567 167.342 132.165C167.733 132.762 167.942 133.465 167.942 134.183C167.938 135.146 167.561 136.067 166.894 136.748C166.227 137.428 165.323 137.812 164.379 137.817V137.817Z" fill="#00ACE4"/>
<path d="M77.8566 51.8166H78.0201L56.8518 49.4166V49.4333L1.63452 42.95V138.05L76.4999 147.817L154.487 138.7V42.95L77.8566 51.8166Z" fill="#00ACE4"/>
<path d="M9.64478 98.1V67.5667L26.4486 69.65V76L16.8371 74.8V80.6333L23.6534 81.4833V87.65L16.8371 86.8V98.9833L9.64478 98.1Z" fill="#ED1C24"/>
<path d="M9.9387 68.3336L25.6474 70.2669V75.2669L16.4445 74.1169V81.1669L23.2445 82.0169V87.0169L16.4445 86.167V98.3336L10.0368 97.5336V68.1336L9.9387 68.3336ZM8.84351 66.8669V98.5336L9.92235 98.667L16.2647 99.4503L17.6377 99.617V87.4836L23.13 88.167L24.5358 88.3336V80.9503L23.506 80.817L17.7358 80.1003V75.5003L25.6474 76.5003L26.9387 76.6669V69.1003L25.8925 68.9669L10.1839 67.0503L8.84351 66.8836V66.8669Z" fill="white"/>
<path d="M26.4475 100.116V77.9663L32.8552 78.7663V100.9L26.4475 100.116Z" fill="#ED1C24"/>
<path d="M27.2677 78.683L32.4495 79.333V100.183L27.2514 99.533V78.733L27.2677 78.683ZM26.0581 77.2664V100.6L27.1043 100.733L32.3187 101.383L33.6591 101.55V78.2164L32.6129 78.083L27.3985 77.433L26.0581 77.2664Z" fill="white"/>
<path d="M34.8506 101.216V78.8665L40.3592 79.5665L40.5391 81.8331C40.9111 81.1963 41.4405 80.6703 42.0745 80.3076C42.7084 79.945 43.4247 79.7583 44.1515 79.7665C44.9268 79.7862 45.6939 79.9325 46.4237 80.1998L46.816 80.3498V86.8331L46.0804 86.6665C45.2371 86.401 44.3633 86.2497 43.4814 86.2165C41.9612 86.2165 41.2583 86.8331 41.2583 88.1665V102L34.8506 101.216Z" fill="#ED1C24"/>
<path d="M35.226 79.5665L39.5904 80.0998L39.9337 84.3165C40.6529 81.5998 42.0587 80.3665 43.9712 80.3665C44.6799 80.3842 45.381 80.5193 46.0472 80.7665V85.9998C45.1471 85.7112 44.2116 85.5541 43.2683 85.5332C41.2087 85.5332 40.4404 86.6332 40.4404 88.0998V101.316L35.2423 100.667V79.5498L35.226 79.5665ZM34.0491 78.1665V101.766L35.0952 101.9L40.3097 102.55L41.65 102.716V88.0832C41.65 87.3998 41.7808 86.7332 43.2847 86.7332C44.111 86.762 44.9299 86.9021 45.7202 87.1498L47.2731 87.5998V79.8998L46.4722 79.6165C45.6762 79.3153 44.8364 79.152 43.9875 79.1332C42.8415 79.1172 41.7299 79.5326 40.8654 80.2998V78.9998L39.8846 78.8832L35.4058 78.3332L34.0491 78.1665Z" fill="white"/>
<path d="M56.5417 104.217C56.0938 104.214 55.6463 104.186 55.2013 104.134C50.2975 103.534 47.2571 100.3 47.2571 95.8836V94.4336L52.8638 95.1336V96.3336C52.7994 96.9037 52.9594 97.4766 53.3087 97.9266C53.6581 98.3765 54.1683 98.6668 54.7273 98.7336H55.5936C56.4927 98.7336 56.8523 98.4003 56.8523 97.5336C56.8523 96.117 55.4792 95.3003 52.6186 93.7336C50.2157 92.4503 47.7148 90.6336 47.7148 86.8836C47.7148 83.1336 50.1667 80.9503 53.9753 80.9503C54.3888 80.917 54.8042 80.917 55.2177 80.9503C59.6475 81.5003 62.4917 84.5336 62.4917 88.667V89.6836L57.2282 89.117V87.9003C57.2282 86.767 56.5907 86.1336 55.2667 85.967H54.8253C53.8936 85.967 53.7138 86.3836 53.7138 86.9836C53.7138 87.8503 54.4657 88.517 56.983 89.817C60.0071 91.3836 63.0802 93.5836 63.0802 98.017C63.0997 98.8186 62.9636 99.6164 62.6796 100.364C62.3957 101.112 61.9695 101.795 61.4257 102.375C60.8818 102.954 60.231 103.418 59.5106 103.74C58.7903 104.062 58.0146 104.235 57.2282 104.25L56.5417 104.217Z" fill="#ED1C24"/>
<path d="M53.9586 81.4333H55.1518C59.549 81.9833 62.0172 84.9166 62.0172 88.6666V89.0166L57.6201 88.4666V87.8333C57.6201 86.45 56.8355 85.5 55.1192 85.2833H54.5961C53.4845 85.2833 52.9615 85.8333 52.9615 86.95C52.9615 88.0666 53.9749 89 56.5086 90.2833C59.7778 91.95 62.2951 94.05 62.2951 97.9333C62.3125 98.6534 62.1906 99.37 61.9362 100.042C61.6819 100.714 61.3002 101.329 60.8129 101.85C60.3256 102.372 59.7423 102.79 59.0963 103.082C58.4503 103.374 57.7543 103.533 57.048 103.55H56.3615C55.9425 103.583 55.5217 103.583 55.1028 103.55C50.199 102.95 47.6817 99.7666 47.6817 95.9166V95.15L52.0788 95.7V96.45C52.0427 96.818 52.0786 97.1896 52.1842 97.5434C52.2898 97.8972 52.4632 98.2262 52.6942 98.5113C52.9252 98.7965 53.2093 99.0321 53.5301 99.2047C53.851 99.3772 54.2021 99.4832 54.5634 99.5166H55.4461C56.672 99.5166 57.3259 98.9333 57.3259 97.6666C57.3259 95.8166 55.6913 94.85 52.7163 93.2666C49.7413 91.6833 48.1067 89.9333 48.1067 86.85C48.1067 83.4166 50.4442 81.4333 53.8605 81.4333H53.9586ZM54.2038 80.3833C50.0192 80.3833 47.3057 82.9833 47.3057 87.05C47.3057 91.1166 50.0845 93.25 52.5201 94.55L52.6999 94.65L48.3355 94.1L46.9951 93.9333V96.05C46.9951 100.717 50.2643 104.133 55.2663 104.767C55.7236 104.791 56.182 104.791 56.6393 104.767C57.4798 104.842 58.3265 104.748 59.1313 104.49C59.9361 104.232 60.6831 103.815 61.3297 103.262C61.9764 102.71 62.5099 102.033 62.8999 101.27C63.29 100.507 63.5288 99.6735 63.6028 98.8166C63.6028 98.5666 63.6028 98.3333 63.6028 98.1C63.6028 93.85 60.9874 91.5666 58.1922 89.9666L62.0663 90.45L63.4067 90.6166V88.95C63.4067 84.4166 60.3336 81.1 55.5605 80.5C55.121 80.4473 54.679 80.4195 54.2365 80.4166L54.2038 80.3833ZM56.574 89.0166C54.6942 87.9833 54.3182 87.5166 54.3182 87.0833C54.2857 86.9803 54.2857 86.8696 54.3182 86.7666C54.4635 86.733 54.6143 86.733 54.7595 86.7666H55.1192C56.4105 86.9333 56.5249 87.5166 56.5249 88.05V89.05L56.574 89.0166ZM55.4297 98.35H54.9884C53.8115 98.2 53.3538 97.6666 53.3538 96.5V95C55.2172 96.0666 56.1326 96.6666 56.1326 97.65C56.1326 98.15 56.1326 98.2666 55.4624 98.2666L55.4297 98.35Z" fill="white"/>
<path d="M67.0379 105.2L66.8908 104.883C65.9077 102.499 65.4824 99.9139 65.6485 97.3331V87.9164L63.2456 87.5831V82.1831L66.0408 82.5331V78.8331L72.4485 77.9998V83.3331L75.7177 83.7331V89.0164L72.4485 88.6164V97.9997C72.3015 100.415 72.7747 102.828 73.8216 105L74.3937 106.083L67.0379 105.2Z" fill="#ED1C24"/>
<path d="M71.6624 78.7331V83.8998L74.9316 84.2998V88.3331L71.6624 87.9331V98.1831C71.5327 100.536 72 102.884 73.0191 105L67.5595 104.316C66.6712 102.158 66.2905 99.8181 66.448 97.4831V87.3831L63.6528 87.0331V82.8665L66.448 83.2165V79.3498L71.4989 78.6998L71.6624 78.7331ZM72.872 77.2998L71.4826 77.4831L66.3172 78.1498L65.2383 78.3331V81.8331L63.7672 81.6665L62.4922 81.4998V88.1665L63.5874 88.2998L65.222 88.5165V97.6165C65.08 100.143 65.5107 102.67 66.4806 105L66.7585 105.6H67.4124L72.8883 106.283L75.2095 106.666L74.1307 104.616C73.2028 102.663 72.7807 100.5 72.9047 98.3331V89.4165L74.7845 89.6498L76.0922 89.8165V83.1498L75.0624 83.0165L72.8883 82.7498V77.2998H72.872Z" fill="white"/>
<path d="M90.9349 104.75L80.457 105.967V77.1002L90.6734 75.9335C95.1849 75.4169 97.6695 77.6002 97.6695 81.6502V83.7835C97.6695 83.7835 96.9176 88.7835 94.0243 89.6169C97.032 90.0002 98.0945 94.5169 98.0945 94.5169V97.3002C98.0945 101.467 95.5118 104.217 90.9349 104.75ZM92.0628 82.9335C92.0628 81.5002 91.458 80.6502 89.8724 80.8335L86.4561 81.2502V88.6669L89.6272 88.3335C89.9535 88.3292 90.2758 88.2594 90.5756 88.128C90.8754 87.9967 91.1469 87.8064 91.3746 87.568C91.6023 87.3297 91.7817 87.048 91.9026 86.7389C92.0235 86.4299 92.0835 86.0996 92.0791 85.7669C92.0872 85.6837 92.0872 85.6 92.0791 85.5169L92.0628 82.9335ZM92.0628 94.8335C92.0628 93.1669 91.2291 92.4335 89.6763 92.6002L86.407 92.9669V100.334L89.9215 100C90.207 99.9959 90.4888 99.9342 90.751 99.8188C91.0131 99.7034 91.2504 99.5364 91.4492 99.3275C91.6481 99.1185 91.8046 98.8717 91.9099 98.6011C92.0152 98.3304 92.0671 98.0413 92.0628 97.7502C92.0709 97.6671 92.0709 97.5833 92.0628 97.5002V94.8335Z" fill="white"/>
<path d="M107.705 103.083C103.341 103.583 100.464 101.217 100.464 96.6166V89.9999C100.352 87.9186 101.049 85.8762 102.405 84.316C103.761 82.7559 105.665 81.8038 107.705 81.6666C108.473 81.5004 109.265 81.4903 110.036 81.6367C110.807 81.7831 111.543 82.0831 112.2 82.5197C112.858 82.9563 113.424 83.5208 113.867 84.1808C114.311 84.8409 114.622 85.5837 114.783 86.3666C114.917 87.013 114.945 87.6776 114.865 88.3332V94.9999C114.946 97.0343 114.241 99.02 112.903 100.531C111.564 102.042 109.698 102.958 107.705 103.083V103.083ZM109.667 87.9832C109.727 87.4776 109.589 86.9681 109.283 86.5655C108.977 86.1629 108.527 85.8998 108.032 85.8332C107.853 85.8083 107.672 85.8083 107.493 85.8332C106.855 85.8885 106.264 86.1975 105.848 86.6934C105.432 87.1894 105.224 87.8323 105.27 88.4832V96.8166C105.23 97.118 105.262 97.4247 105.362 97.7112C105.462 97.9977 105.628 98.2559 105.845 98.4643C106.062 98.6728 106.325 98.8255 106.611 98.9099C106.898 98.9944 107.2 99.0081 107.493 98.9499C108.12 98.8784 108.696 98.563 109.101 98.0694C109.506 97.5758 109.708 96.942 109.667 96.2999V87.9832Z" fill="white"/>
<path d="M124.509 101.15C120.145 101.65 117.268 99.283 117.268 94.683V88.0163C117.183 85.9536 117.893 83.9387 119.246 82.403C120.6 80.8673 122.489 79.9329 124.509 79.7997C126.057 79.4691 127.67 79.7784 128.994 80.6597C130.318 81.541 131.245 82.9221 131.571 84.4997C131.701 85.1126 131.734 85.7428 131.669 86.3663V93.033C131.763 95.0742 131.064 97.0709 129.724 98.5902C128.384 100.11 126.51 101.029 124.509 101.15V101.15ZM126.471 86.0497C126.51 85.7482 126.479 85.4415 126.379 85.155C126.279 84.8685 126.113 84.6103 125.896 84.4019C125.679 84.1935 125.416 84.0407 125.129 83.9563C124.843 83.8719 124.541 83.8582 124.248 83.9163C123.61 83.9716 123.019 84.2807 122.603 84.7766C122.187 85.2725 121.98 85.9154 122.025 86.5663V94.8997C121.986 95.1542 121.997 95.4142 122.059 95.664C122.121 95.9139 122.231 96.1485 122.384 96.3539C122.536 96.5592 122.728 96.7311 122.947 96.8593C123.166 96.9874 123.409 97.0692 123.659 97.0997C123.881 97.1413 124.108 97.1413 124.33 97.0997C124.957 97.0282 125.533 96.7128 125.938 96.2192C126.343 95.7256 126.545 95.0918 126.504 94.4497L126.471 86.0497Z" fill="white"/>
<path d="M144.549 98.5836L141.279 90.6336L139.318 94.3336V99.2003L134.054 99.7836V70.9003L139.253 70.3003V87.7836L144.026 77.7836L149.093 77.2003L144.516 86.4503L149.616 98.0003L144.549 98.5836Z" fill="white"/>
<path d="M30.0782 67.8337L31.1244 70.8004L33.4945 71.1337L31.7782 72.6171L32.4974 75.4337L30.0782 73.6504L27.6426 74.7671L28.3619 72.1504L26.6455 70.2171L29.0157 70.5004L30.0782 67.8337Z" fill="white"/>
</g>
</svg>
