<svg viewBox="0 0 36 36" fill="none" xmlns="http://www.w3.org/2000/svg">
<g clip-path="url(#clip0_77652_129156)">
<path d="M0 18.0003C0 25.371 4.43222 31.7031 10.7745 34.487C10.7239 33.2301 10.7655 31.7212 11.0879 30.3536C11.4339 28.8924 13.404 20.5453 13.404 20.5453C13.404 20.5453 12.8289 19.396 12.8289 17.6974C12.8289 15.0299 14.375 13.0376 16.3004 13.0376C17.9377 13.0376 18.7287 14.2674 18.7287 15.74C18.7287 17.3859 17.679 19.8478 17.1391 22.128C16.6881 24.0374 18.0965 25.5949 19.9801 25.5949C23.3906 25.5949 25.6875 21.2145 25.6875 16.0246C25.6875 12.0795 23.0304 9.1267 18.1976 9.1267C12.7374 9.1267 9.33581 13.1986 9.33581 17.747C9.33581 19.3153 9.79819 20.4211 10.5224 21.2775C10.8554 21.6709 10.9017 21.8291 10.7812 22.2808C10.6948 22.6119 10.4965 23.4093 10.4144 23.7253C10.2946 24.1812 9.92517 24.3442 9.51314 24.1758C6.9982 23.1491 5.82694 20.395 5.82694 17.299C5.82694 12.1857 10.1393 6.05447 18.6916 6.05447C25.5639 6.05447 30.0871 11.0275 30.0871 16.3658C30.0871 23.427 26.1615 28.7023 20.3747 28.7023C18.4314 28.7023 16.6035 27.6518 15.9772 26.4586C15.9772 26.4586 14.9323 30.6059 14.7109 31.4068C14.3293 32.7946 13.5823 34.1817 12.8992 35.2628C14.5181 35.7407 16.2283 36.001 18.0007 36.001C27.9406 36.001 36.0001 27.9419 36.0001 18.0003C36.0001 8.05908 27.9406 0 18.0007 0C8.05978 0 0 8.05908 0 18.0003Z" />
</g>
</svg>
