<svg viewBox="0 0 37 37" xmlns="http://www.w3.org/2000/svg">
    <g clip-path="url(#clip0_17226_335)">
    <g clip-path="url(#clip1_17226_335)">
    <path fill-rule="evenodd" clip-rule="evenodd" d="M18.209 0.684814C13.3205 0.684814 12.7075 0.705534 10.7876 0.793133C8.87174 0.880517 7.56323 1.18482 6.4183 1.62982C5.23464 2.08975 4.23083 2.70523 3.23009 3.70591C2.22941 4.70665 1.61392 5.71047 1.15399 6.89413C0.708994 8.03906 0.404698 9.34755 0.317314 11.2634C0.229715 13.1833 0.208984 13.7963 0.208984 18.6848C0.208984 23.5733 0.229715 24.1863 0.317314 26.1062C0.404698 28.0221 0.708994 29.3306 1.15399 30.4755C1.61392 31.6592 2.22941 32.663 3.23009 33.6637C4.23083 34.6644 5.23464 35.2799 6.4183 35.7399C7.56323 36.1848 8.87174 36.4891 10.7876 36.5765C12.7075 36.6641 13.3205 36.6848 18.209 36.6848C23.0975 36.6848 23.7104 36.6641 25.6303 36.5765C27.5462 36.4891 28.8547 36.1848 29.9996 35.7399C31.1833 35.2799 32.1871 34.6644 33.1879 33.6637C34.1886 32.663 34.804 31.6592 35.264 30.4755C35.709 29.3306 36.0133 28.0221 36.1007 26.1062C36.1883 24.1863 36.209 23.5733 36.209 18.6848C36.209 13.7963 36.1883 13.1833 36.1007 11.2634C36.0133 9.34755 35.709 8.03906 35.264 6.89413C34.804 5.71047 34.1886 4.70665 33.1879 3.70591C32.1871 2.70523 31.1833 2.08975 29.9996 1.62982C28.8547 1.18482 27.5462 0.880517 25.6303 0.793133C23.7104 0.705534 23.0975 0.684814 18.209 0.684814ZM18.209 3.92805C23.0152 3.92805 23.5845 3.94641 25.4825 4.03301C27.2375 4.11304 28.1906 4.40627 28.8249 4.65278C29.6651 4.97931 30.2647 5.36937 30.8945 5.99928C31.5244 6.62912 31.9145 7.22874 32.241 8.06893C32.4875 8.7032 32.7807 9.65629 32.8608 11.4113C32.9474 13.3093 32.9657 13.8786 32.9657 18.6848C32.9657 23.491 32.9474 24.0603 32.8608 25.9584C32.7807 27.7133 32.4875 28.6664 32.241 29.3007C31.9145 30.1409 31.5244 30.7405 30.8945 31.3703C30.2647 32.0003 29.6651 32.3903 28.8249 32.7169C28.1906 32.9634 27.2375 33.2566 25.4825 33.3366C23.5848 33.4232 23.0155 33.4416 18.209 33.4416C13.4024 33.4416 12.8333 33.4232 10.9354 33.3366C9.18046 33.2566 8.22737 32.9634 7.5931 32.7169C6.75291 32.3903 6.15328 32.0003 5.52344 31.3703C4.8936 30.7405 4.50348 30.1409 4.17695 29.3007C3.93044 28.6664 3.63721 27.7133 3.55718 25.9584C3.47058 24.0603 3.45222 23.491 3.45222 18.6848C3.45222 13.8786 3.47058 13.3093 3.55718 11.4113C3.63721 9.65629 3.93044 8.7032 4.17695 8.06893C4.50348 7.22874 4.89352 6.62912 5.52344 5.99928C6.15328 5.36937 6.75291 4.97931 7.5931 4.65278C8.22737 4.40627 9.18046 4.11304 10.9354 4.03301C12.8335 3.94641 13.4028 3.92805 18.209 3.92805ZM18.209 9.44158C13.1041 9.44158 8.96575 13.5799 8.96575 18.6848C8.96575 23.7897 13.1041 27.928 18.209 27.928C23.3139 27.928 27.4522 23.7897 27.4522 18.6848C27.4522 13.5799 23.3139 9.44158 18.209 9.44158ZM18.209 24.6848C14.8953 24.6848 12.209 21.9985 12.209 18.6848C12.209 15.3711 14.8953 12.6848 18.209 12.6848C21.5227 12.6848 24.209 15.3711 24.209 18.6848C24.209 21.9985 21.5227 24.6848 18.209 24.6848ZM29.9774 9.07639C29.9774 10.2693 29.0103 11.2364 27.8174 11.2364C26.6245 11.2364 25.6574 10.2693 25.6574 9.07639C25.6574 7.88344 26.6245 6.91635 27.8174 6.91635C29.0103 6.91635 29.9774 7.88344 29.9774 9.07639Z"/>
    </g>
    </g>
</svg>
