<svg width="24" height="24" fill="none" xmlns="http://www.w3.org/2000/svg"><path fill-rule="evenodd" clip-rule="evenodd" d="M1.676 0h20.647C23.245 0 24 .755 24 1.676v20.648c0 .922-.755 1.676-1.677 1.676H1.676A1.681 1.681 0 010 22.324V1.676C0 .755.754 0 1.676 0z" fill="#155196"/><path fill-rule="evenodd" clip-rule="evenodd" d="M9.407 5.593a1.781 1.781 0 001.601-1.768c0-.977-.796-1.774-1.773-1.774-.977 0-1.775.797-1.775 1.774 0 .298.084.603.222.86l.632 8.895 6.511.002 2.67 6.257 3.506-1.375-.543-1.293-1.962.708-2.583-5.965-6.055.04-.082-1.126 4.382.002V9.163l-4.55-.002-.2-3.568z" fill="#fff"/><path fill-rule="evenodd" clip-rule="evenodd" d="M15.956 18.35c-1.099 2.172-3.4 3.604-5.852 3.604-3.604 0-6.543-2.94-6.543-6.543 0-2.53 1.533-4.881 3.821-5.924l.149 1.933c-1.354.853-2.188 2.391-2.188 4.005a4.756 4.756 0 004.746 4.745c2.392 0 4.43-1.835 4.71-4.19l1.157 2.37z" fill="#fff"/></svg>