<svg width="65" height="65" xmlns="http://www.w3.org/2000/svg"><path fill-rule="evenodd" clip-rule="evenodd" d="M40.46 32.5a7.96 7.96 0 11-15.918 0 7.96 7.96 0 0115.918 0zm-2.653 0a5.306 5.306 0 11-10.613 0 5.306 5.306 0 0110.613 0z"/><path fill-rule="evenodd" clip-rule="evenodd" d="M32.5 48.419c8.792 0 15.919-7.127 15.919-15.919 0-8.791-7.127-15.918-15.919-15.918-8.791 0-15.918 7.127-15.918 15.918 0 8.792 7.127 15.919 15.918 15.919zm0-2.654c7.326 0 13.265-5.939 13.265-13.265 0-7.326-5.939-13.265-13.265-13.265-7.326 0-13.265 5.939-13.265 13.265 0 7.326 5.939 13.265 13.265 13.265zm-12.663-.602a5.307 5.307 0 10-7.503 7.506 5.307 5.307 0 007.503-7.506zm-1.875 1.876a2.653 2.653 0 10-3.753 3.753 2.653 2.653 0 003.753-3.753z"/><path fill-rule="evenodd" clip-rule="evenodd" d="M44.694 12.802a5.306 5.306 0 117.504 7.504 5.306 5.306 0 01-7.504-7.504zm1.876 1.876a2.653 2.653 0 113.752 3.752 2.653 2.653 0 01-3.752-3.752zM15.255 32.5a5.306 5.306 0 10-10.612 0 5.306 5.306 0 0010.612 0zm-2.653 0a2.653 2.653 0 10-5.306 0 2.653 2.653 0 005.306 0zm43.112-5.306a5.306 5.306 0 110 10.613 5.306 5.306 0 010-10.613zm0 2.653a2.653 2.653 0 110 5.306 2.653 2.653 0 010-5.306zm-35.878-10.01a5.306 5.306 0 10-7.504-7.504 5.306 5.306 0 007.504 7.504zm-1.876-1.876a2.653 2.653 0 10-3.752-3.752 2.653 2.653 0 003.752 3.752zm34.237 26.733a5.306 5.306 0 11-7.504 7.505 5.306 5.306 0 017.504-7.505zm-1.876 1.877a2.653 2.653 0 11-3.751 3.752 2.653 2.653 0 013.751-3.752zM32.499 15.255a5.306 5.306 0 100-10.612 5.306 5.306 0 000 10.612zm0-2.653a2.653 2.653 0 100-5.306 2.653 2.653 0 000 5.306zm5.306 43.112a5.306 5.306 0 11-10.613 0 5.306 5.306 0 0110.613 0zm-2.653 0a2.653 2.653 0 11-5.306 0 2.653 2.653 0 015.306 0z"/><path fill-rule="evenodd" clip-rule="evenodd" d="M34.158 64.959c-.55.027-1.102.041-1.658.041C14.55 65 0 50.45 0 32.5S14.55 0 32.5 0 65 14.55 65 32.5c0 13.373-8.077 24.859-19.618 29.847h18.29a1.327 1.327 0 010 2.653H34.49c-.115 0-.225-.014-.331-.041zM62.347 32.5c0 16.484-13.363 29.847-29.847 29.847S2.653 48.984 2.653 32.5 16.016 2.653 32.5 2.653 62.347 16.016 62.347 32.5z"/></svg>