<svg width="228" height="37" fill="none" xmlns="http://www.w3.org/2000/svg"><path fill-rule="evenodd" clip-rule="evenodd" d="M71.229 36H53.987A1.987 1.987 0 0152 34.013V1.987C52 .889 52.89 0 53.987 0h32.026C87.11 0 88 .89 88 1.987v32.026C88 35.11 87.11 36 86.013 36H76.84V22.059h4.68l.7-5.433h-5.38v-3.469c0-1.573.437-2.645 2.693-2.645l2.877-.001V5.65c-.498-.066-2.205-.214-4.192-.214-4.148 0-6.988 2.532-6.988 7.182v4.007h-4.692v5.433h4.692V36z" fill="#000"/><g clip-path="url(#clip0)"><path fill-rule="evenodd" clip-rule="evenodd" d="M174.555 28.756c-.655.319-1.908.597-2.842.62-2.821.078-3.368-2.024-3.391-3.548V14.621h7.076v-5.45h-7.051V0h-5.16c-.085 0-.234.076-.254.269C162.631 3.075 161.345 8 156 9.97v4.65h3.566v11.762c0 4.028 2.907 9.75 10.583 9.615 2.59-.046 5.466-1.153 6.101-2.11l-1.695-5.132z" fill="#000"/></g><g clip-path="url(#clip1)"><path fill-rule="evenodd" clip-rule="evenodd" d="M18 0c-4.889 0-5.502.02-7.421.108C8.663.196 7.354.5 6.209.945a8.823 8.823 0 00-3.188 2.076A8.83 8.83 0 00.945 6.209C.5 7.354.195 8.663.108 10.58.021 12.499 0 13.11 0 18s.02 5.502.108 7.421c.088 1.916.392 3.225.837 4.37a8.823 8.823 0 002.076 3.188c1 1 2.005 1.616 3.188 2.076 1.145.445 2.454.75 4.37.837 1.92.087 2.532.108 7.421.108s5.502-.02 7.421-.108c1.916-.088 3.225-.392 4.37-.837a8.824 8.824 0 003.188-2.076c1-1 1.616-2.005 2.076-3.188.445-1.145.75-2.454.837-4.37.087-1.92.108-2.532.108-7.421s-.02-5.502-.108-7.421c-.088-1.916-.392-3.225-.837-4.37a8.823 8.823 0 00-2.076-3.188A8.83 8.83 0 0029.791.945C28.646.5 27.337.195 25.42.108 23.501.021 22.89 0 18 0zm0 3.243c4.806 0 5.375.019 7.273.105 1.756.08 2.709.373 3.343.62.84.327 1.44.717 2.07 1.346.63.63 1.02 1.23 1.346 2.07.247.634.54 1.587.62 3.342.086 1.898.105 2.468.105 7.274s-.019 5.375-.105 7.273c-.08 1.756-.373 2.709-.62 3.343a5.574 5.574 0 01-1.346 2.07c-.63.63-1.23 1.02-2.07 1.346-.634.247-1.587.54-3.343.62-1.897.086-2.466.105-7.273.105-4.806 0-5.376-.019-7.274-.105-1.755-.08-2.708-.373-3.342-.62a5.576 5.576 0 01-2.07-1.346 5.577 5.577 0 01-1.346-2.07c-.247-.634-.54-1.587-.62-3.343-.086-1.898-.105-2.467-.105-7.273 0-4.806.019-5.376.105-7.274.08-1.755.373-2.708.62-3.342.327-.84.717-1.44 1.346-2.07.63-.63 1.23-1.02 2.07-1.346.634-.247 1.587-.54 3.342-.62 1.898-.086 2.468-.105 7.274-.105zm0 5.514a9.243 9.243 0 100 18.486 9.243 9.243 0 000-18.486zM18 24a6 6 0 110-12 6 6 0 010 12zM29.768 8.392a2.16 2.16 0 11-4.32 0 2.16 2.16 0 014.32 0z" fill="#000"/></g><g clip-path="url(#clip2)"><path fill-rule="evenodd" clip-rule="evenodd" d="M118.283 23.452l-.001-10.186 9.727 5.11-9.726 5.076zm21.357-11.951s-.352-2.499-1.431-3.599c-1.369-1.444-2.904-1.451-3.607-1.535C129.564 6 122.008 6 122.008 6h-.016s-7.556 0-12.594.367c-.704.084-2.238.09-3.608 1.535-1.079 1.1-1.43 3.599-1.43 3.599s-.36 2.934-.36 5.867v2.751c0 2.935.36 5.868.36 5.868s.351 2.498 1.43 3.598c1.37 1.445 3.169 1.4 3.97 1.55 2.88.279 12.24.365 12.24.365s7.564-.011 12.602-.378c.703-.085 2.238-.092 3.607-1.537 1.079-1.1 1.431-3.598 1.431-3.598s.36-2.933.36-5.868v-2.75c0-2.934-.36-5.868-.36-5.868z" fill="#000"/></g><path fill-rule="evenodd" clip-rule="evenodd" d="M228 7.551a14.428 14.428 0 01-4.241 1.192 7.558 7.558 0 003.248-4.188 14.553 14.553 0 01-4.693 1.835A7.285 7.285 0 00216.923 4c-4.076 0-7.383 3.391-7.383 7.573 0 .594.064 1.17.191 1.725-6.139-.316-11.58-3.328-15.225-7.916a7.711 7.711 0 00-.999 3.812c0 2.626 1.303 4.945 3.285 6.303a7.256 7.256 0 01-3.347-.944v.093c0 3.67 2.547 6.732 5.927 7.425a7.04 7.04 0 01-1.946.267 7.24 7.24 0 01-1.39-.134c.94 3.007 3.666 5.198 6.899 5.256a14.584 14.584 0 01-9.173 3.244A14.64 14.64 0 01192 30.6a20.565 20.565 0 0011.322 3.4c13.587 0 21.014-11.538 21.014-21.547 0-.33-.006-.659-.019-.982A15.166 15.166 0 00228 7.551z" fill="#000"/><defs><clipPath id="clip0"><path fill="#fff" transform="translate(156)" d="M0 0h20.25v36H0z"/></clipPath><clipPath id="clip1"><path fill="#fff" d="M0 0h36v36H0z"/></clipPath><clipPath id="clip2"><path fill="#fff" transform="translate(104 6)" d="M0 0h36v25.5H0z"/></clipPath></defs></svg>