<svg viewBox="0 0 24 24" xmlns="http://www.w3.org/2000/svg">
    <path fill-rule="evenodd" clip-rule="evenodd" d="M3 2C3 1.44772 3.44772 1 4 1H16C16.2664 1 16.5218 1.10632 16.7096 1.29537L20.7096 5.3234C20.8956 5.51073 21 5.76402 21 6.02803V22C21 22.5523 20.5523 23 20 23H4C3.44772 23 3 22.5523 3 22V2ZM5 3V21H19V6.4402L15.5837 3H5Z"/>
    <path fill-rule="evenodd" clip-rule="evenodd" d="M14 6V2H16V6H20V8H16C14.8954 8 14 7.10457 14 6Z"/>
    <path d="M7.5 12.5V15.5H9.5L12 18V9.99999L9.5 12.5H7.5ZM14.25 14C14.25 13.115 13.74 12.355 13 11.985V16.01C13.74 15.645 14.25 14.885 14.25 14ZM13 9.61499V10.645C14.445 11.075 15.5 12.415 15.5 14C15.5 15.585 14.445 16.925 13 17.355V18.385C15.005 17.93 16.5 16.14 16.5 14C16.5 11.86 15.005 10.07 13 9.61499Z"/>
</svg>
