<svg viewBox="0 0 32 32" xmlns="http://www.w3.org/2000/svg">
  <path d="M32 27.8956C31.9946 28.9826 31.5604 30.0234 30.7919 30.7921C30.0234 31.5607 28.9826 31.995 27.8956 32.0007H4.10437C3.01744 31.995 1.97664 31.5607 1.20812 30.7921C0.439601 30.0234 0.00544922 28.9826 0 27.8956L0 4.10437C0.00562488 3.01755 0.439854 1.97686 1.20836 1.20836C1.97686 0.439854 3.01755 0.00562488 4.10437 0L27.8956 0C28.9824 0.00562488 30.0231 0.439854 30.7916 1.20836C31.5601 1.97686 31.9944 3.01755 32 4.10437V27.8956ZM28.3753 13.5421H25.5628C25.8392 14.4253 25.9795 15.3455 25.9789 16.2709C25.9586 17.5582 25.6849 18.8289 25.1734 20.0104C24.662 21.1918 23.9227 22.261 22.998 23.1567C22.0732 24.0524 20.9811 24.7572 19.7839 25.2308C18.5867 25.7043 17.308 25.9374 16.0207 25.9167C13.4242 25.9542 10.9189 24.9594 9.05554 23.1507C7.19216 21.342 6.1231 18.8675 6.08329 16.2709C6.08277 15.3452 6.22331 14.4248 6.50008 13.5414H3.56247V27.042C3.5614 27.2092 3.59355 27.375 3.65705 27.5297C3.72056 27.6844 3.81415 27.8249 3.93239 27.9432C4.05064 28.0614 4.19119 28.155 4.34589 28.2185C4.50059 28.282 4.66636 28.3142 4.83358 28.3131H27.1049C27.2721 28.3142 27.4378 28.282 27.5925 28.2185C27.7471 28.155 27.8876 28.0614 28.0058 27.9431C28.124 27.8249 28.2175 27.6843 28.281 27.5296C28.3444 27.3749 28.3765 27.2092 28.3753 27.042V13.5421ZM16.0207 9.70865C14.3442 9.68522 12.727 10.328 11.5239 11.4959C10.3209 12.6638 9.63053 14.2613 9.60428 15.9378C9.6307 17.6141 10.3212 19.2115 11.5242 20.3792C12.7272 21.547 14.3444 22.1897 16.0207 22.1662C16.8525 22.1802 17.6788 22.0301 18.4525 21.7246C19.2262 21.419 19.9321 20.9641 20.53 20.3857C21.1278 19.8073 21.6059 19.1168 21.9368 18.3536C22.2677 17.5904 22.445 16.7695 22.4586 15.9378C22.4451 15.106 22.2678 14.285 21.937 13.5218C21.6061 12.7585 21.1281 12.0679 20.5302 11.4894C19.9324 10.911 19.2264 10.456 18.4526 10.1504C17.6789 9.84485 16.8525 9.69474 16.0207 9.70865V9.70865ZM28.3753 5.00017C28.3744 4.61908 28.2226 4.25388 27.953 3.98454C27.6834 3.7152 27.318 3.56367 26.9369 3.56314H23.3123C22.9314 3.56402 22.5664 3.71571 22.2971 3.98501C22.0278 4.25431 21.8761 4.61931 21.8752 5.00017V8.43753C21.8758 8.81862 22.0273 9.18396 22.2966 9.45355C22.566 9.72315 22.9312 9.87501 23.3123 9.8759H26.9376C27.3188 9.87519 27.6842 9.7234 27.9537 9.45379C28.2232 9.18418 28.3748 8.81873 28.3753 8.43753V5.00017Z"/>
</svg>
