<svg viewBox="0 0 84 111" fill="#ffffff" xmlns="http://www.w3.org/2000/svg">
<path d="M5.48333 30.3546C5.48333 30.7465 5.425 31.0781 5.27916 31.4097C5.13333 31.7111 4.95833 31.9824 4.69583 32.1935C4.43333 32.4045 4.14166 32.5853 3.7625 32.7059C3.38333 32.8265 2.975 32.8868 2.5375 32.8868C2.1875 32.8868 1.89583 32.8567 1.63333 32.7964C1.37083 32.7361 1.10833 32.6758 0.904166 32.5853C0.7 32.4949 0.525 32.4045 0.35 32.314C0.204167 32.2236 0.0875 32.1332 0 32.0427L0.729166 30.7766C0.7875 30.8068 0.845833 30.8671 0.9625 30.9273C1.05 30.9876 1.19583 31.0781 1.34167 31.1384C1.4875 31.1987 1.6625 31.2589 1.86667 31.3192C2.07083 31.3795 2.275 31.4097 2.50833 31.4097C2.91667 31.4097 3.2375 31.3192 3.47083 31.1082C3.70417 30.9273 3.82083 30.6862 3.82083 30.4149C3.82083 30.234 3.7625 30.0531 3.675 29.9325C3.55833 29.812 3.44167 29.6914 3.26667 29.5708C3.09167 29.4804 2.91667 29.3598 2.68333 29.2694C2.45 29.1789 2.21667 29.0583 1.98333 28.9377C1.72083 28.8172 1.4875 28.6664 1.28333 28.5157C1.07917 28.365 0.875 28.1841 0.729166 28.0032C0.583333 27.8224 0.4375 27.5812 0.35 27.3099C0.2625 27.0386 0.204167 26.7371 0.204167 26.4055C0.204167 26.0438 0.2625 25.7122 0.408333 25.4107C0.554166 25.1093 0.729166 24.8681 0.9625 24.6571C1.19583 24.4461 1.4875 24.2954 1.80833 24.1748C2.12917 24.0542 2.47917 23.9939 2.85833 23.9939C3.20833 23.9939 3.5 24.024 3.7625 24.0843C4.025 24.1446 4.25833 24.2049 4.4625 24.2652C4.66667 24.3255 4.8125 24.4159 4.95833 24.5064C5.10417 24.5968 5.19167 24.6571 5.27916 24.7174L4.57917 25.9835C4.49167 25.9232 4.40416 25.8629 4.31667 25.8026C4.2 25.7423 4.08333 25.682 3.9375 25.6217C3.79167 25.5615 3.64583 25.5313 3.47083 25.5012C3.29583 25.471 3.15 25.4409 2.975 25.4409C2.625 25.4409 2.3625 25.5012 2.15833 25.6519C1.95417 25.8026 1.86667 26.0136 1.86667 26.3151C1.86667 26.496 1.89583 26.6165 1.98333 26.7371C2.07083 26.8577 2.15833 26.9481 2.30417 27.0386C2.45 27.129 2.59583 27.2195 2.8 27.3099C2.975 27.4003 3.17917 27.4908 3.4125 27.5812C3.675 27.7018 3.9375 27.8525 4.2 28.0032C4.4625 28.154 4.66667 28.3348 4.87083 28.5157C5.075 28.6966 5.22083 28.9679 5.3375 29.2392C5.425 29.6311 5.48333 29.9627 5.48333 30.3546Z"/>
<path d="M11.1714 25.7122V32.7361H9.39219V25.7122H7.11719V24.2351H13.4172V25.7122H11.1714Z"/>
<path d="M18.3456 27.6717C18.2872 27.4908 18.2289 27.3099 18.1706 27.1592C18.1122 26.9783 18.0831 26.8276 18.0247 26.707C17.9956 26.5865 17.9664 26.4659 17.9372 26.3754C17.9081 26.285 17.9081 26.2247 17.9081 26.1946H17.8789C17.8789 26.2247 17.8497 26.285 17.8206 26.3754C17.7914 26.4659 17.7622 26.5865 17.7331 26.707C17.7039 26.8578 17.6456 27.0085 17.5872 27.1592C17.5289 27.3099 17.4706 27.4908 17.4122 27.6717L16.7122 29.6914H19.0164L18.3456 27.6717ZM15.6914 32.7361H13.9414L17.0914 24.2351H18.7831L22.0206 32.7361H20.1247L19.5414 31.1384H16.2456L15.6914 32.7361Z"/>
<path d="M27.1835 32.7361H25.521L22.3418 24.2351H24.2085L25.9585 29.3297C26.0168 29.4804 26.046 29.6613 26.1043 29.812C26.1626 29.9627 26.1918 30.1135 26.2501 30.2642C26.2793 30.4149 26.3376 30.5054 26.3376 30.5958C26.3668 30.6862 26.3668 30.7465 26.3668 30.7465H26.396C26.396 30.7465 26.396 30.6862 26.4251 30.5958C26.4543 30.5054 26.4835 30.3848 26.5126 30.2642C26.5418 30.1135 26.6001 29.9929 26.6585 29.812C26.7168 29.6613 26.746 29.4804 26.8043 29.3297L28.4668 24.2351H30.2168L27.1835 32.7361Z"/>
<path d="M36.2551 26.7975C36.2551 26.4056 36.1384 26.1041 35.9051 25.9233C35.6717 25.7424 35.3217 25.6218 34.8259 25.6218H33.9509V27.9731H34.9134C35.3801 27.9731 35.7301 27.8827 35.9342 27.6717C36.1384 27.4607 36.2551 27.1592 36.2551 26.7975ZM36.7217 32.7361L35.2051 30.3245C35.0301 30.0833 34.9134 29.8723 34.7967 29.7517C34.6801 29.601 34.5926 29.5106 34.5051 29.4201C34.4176 29.3598 34.3592 29.2995 34.2717 29.2694C34.2134 29.2393 34.1259 29.2393 34.0092 29.2393H33.8926V32.7361H32.1426V24.2351H34.8842C35.8467 24.2351 36.6051 24.4461 37.1301 24.8682C37.6551 25.2902 37.9176 25.8931 37.9176 26.707C37.9176 27.0688 37.8592 27.3702 37.7426 27.6114C37.6259 27.8827 37.4801 28.0937 37.3051 28.2746C37.1301 28.4555 36.9259 28.6062 36.6926 28.7268C36.4592 28.8474 36.2259 28.9077 35.9634 28.9679V28.9981C36.0801 29.0885 36.2259 29.2091 36.3717 29.39C36.5176 29.5709 36.7217 29.8422 36.9259 30.2039L38.5301 32.7361H36.7217Z"/>
<path d="M46.5222 28.4856C46.5222 28.0937 46.4639 27.732 46.3764 27.3702C46.2889 27.0085 46.143 26.707 45.9389 26.4357C45.7347 26.1644 45.5014 25.9534 45.2097 25.8026C44.918 25.6519 44.568 25.5615 44.1597 25.5615C43.7514 25.5615 43.4014 25.6519 43.0805 25.8026C42.7889 25.9534 42.5264 26.1644 42.3222 26.4357C42.118 26.707 41.9722 27.0085 41.8847 27.3702C41.7972 27.732 41.7389 28.0937 41.7389 28.4856C41.7389 28.8775 41.7972 29.2694 41.8847 29.6311C41.9722 29.9929 42.118 30.3245 42.3222 30.5958C42.5264 30.8671 42.7597 31.0781 43.0805 31.259C43.3722 31.4097 43.7514 31.5001 44.1597 31.5001C44.568 31.5001 44.918 31.4097 45.2389 31.259C45.5305 31.1083 45.793 30.8972 45.9972 30.6259C46.2014 30.3546 46.3472 30.0532 46.4347 29.6914C46.4639 29.2694 46.5222 28.9076 46.5222 28.4856ZM48.3597 28.4554C48.3597 29.0282 48.2722 29.601 48.0972 30.1134C47.9222 30.6561 47.6597 31.1083 47.3097 31.5303C46.9597 31.9523 46.5222 32.2538 45.9972 32.5251C45.4722 32.7662 44.8597 32.8868 44.1889 32.8868C43.4889 32.8868 42.8764 32.7662 42.3514 32.5251C41.8264 32.2839 41.3597 31.9523 41.0097 31.5604C40.6597 31.1685 40.368 30.6862 40.193 30.1737C39.9889 29.6311 39.9014 29.0885 39.9014 28.5157C39.9014 27.943 39.9889 27.3702 40.193 26.8577C40.368 26.3151 40.6597 25.8629 41.0097 25.4409C41.3597 25.0189 41.7972 24.7174 42.3514 24.4762C42.8764 24.2351 43.4889 24.1145 44.1889 24.1145C44.8889 24.1145 45.5014 24.2351 46.0264 24.4762C46.5514 24.7174 46.9889 25.049 47.368 25.4409C47.718 25.8328 48.0097 26.3151 48.1847 26.8276C48.2722 27.3401 48.3597 27.8827 48.3597 28.4554Z"/>
<path d="M55.5341 30.3551C55.5341 30.747 55.4758 31.0786 55.3299 31.4102C55.1841 31.7116 55.0091 31.9829 54.7466 32.1939C54.4841 32.405 54.1924 32.5858 53.8133 32.7064C53.4341 32.827 53.0258 32.8873 52.5883 32.8873C52.2383 32.8873 51.9466 32.8571 51.6841 32.7969C51.4216 32.7366 51.1591 32.6763 50.9549 32.5858C50.7508 32.4954 50.5758 32.405 50.4008 32.3145C50.2549 32.2241 50.1383 32.1337 50.0508 32.0432L50.7799 30.7771C50.8383 30.8073 50.8966 30.8675 51.0133 30.9278C51.1008 30.9881 51.2466 31.0786 51.3924 31.1389C51.5383 31.1991 51.7133 31.2594 51.9174 31.3197C52.1216 31.38 52.3258 31.4102 52.5591 31.4102C52.9674 31.4102 53.2883 31.3197 53.5216 31.1087C53.7549 30.9278 53.8716 30.6867 53.8716 30.4154C53.8716 30.2345 53.8133 30.0536 53.7258 29.933C53.6091 29.8125 53.4924 29.6919 53.3174 29.5713C53.1424 29.4809 52.9674 29.3603 52.7341 29.2698C52.5008 29.1794 52.2674 29.0588 52.0341 28.9382C51.7716 28.8177 51.5383 28.6669 51.3341 28.5162C51.1299 28.3655 50.9258 28.1846 50.7799 28.0037C50.6341 27.8229 50.4883 27.5817 50.4008 27.3104C50.3133 27.0391 50.2549 26.7376 50.2549 26.406C50.2549 26.0443 50.3133 25.7127 50.4591 25.4112C50.6049 25.1098 50.7799 24.8686 51.0133 24.6576C51.2466 24.4466 51.5383 24.2958 51.8591 24.1753C52.1799 24.0547 52.5299 23.9944 52.9091 23.9944C53.2591 23.9944 53.5508 24.0245 53.8133 24.0848C54.0758 24.1451 54.3091 24.2054 54.5133 24.2657C54.7174 24.326 54.8633 24.4164 55.0091 24.5069C55.1549 24.5973 55.2424 24.6576 55.3299 24.7179L54.6299 25.984C54.5424 25.9237 54.4549 25.8634 54.3674 25.8031C54.2508 25.7428 54.1341 25.6825 53.9883 25.6222C53.8424 25.5619 53.6966 25.5318 53.5216 25.5017C53.3466 25.4715 53.2008 25.4414 53.0258 25.4414C52.6758 25.4414 52.4133 25.5017 52.2091 25.6524C52.0049 25.8031 51.9174 26.0141 51.9174 26.3156C51.9174 26.4965 51.9466 26.617 52.0341 26.7376C52.1216 26.8582 52.2091 26.9486 52.3549 27.0391C52.5008 27.1295 52.6466 27.2199 52.8508 27.3104C53.0258 27.4008 53.2299 27.4913 53.4633 27.5817C53.7258 27.7023 53.9883 27.853 54.2508 28.0037C54.5133 28.1545 54.7174 28.3353 54.9216 28.5162C55.1258 28.7272 55.2716 28.9684 55.3883 29.2397C55.4758 29.6316 55.5341 29.9632 55.5341 30.3551Z"/>
<path d="M84 62.187H0V63.9957H84V62.187Z"/>
<path d="M84 39.1272H0V40.9359H84V39.1272Z"/>
<path d="M84 108.31H0V110.119H84V108.31Z"/>
<path d="M84 85.25H0V87.0587H84V85.25Z"/>
<path d="M5.54167 55.7964L2.33333 51.0636C2.1 50.732 1.89583 50.4305 1.75 50.1894C1.60417 49.9482 1.54583 49.7975 1.51667 49.7975H1.54583C1.54583 49.7975 1.54583 49.8578 1.54583 49.9181C1.54583 49.9784 1.54583 50.0688 1.575 50.1894C1.575 50.3099 1.575 50.4004 1.60417 50.5511C1.60417 50.6717 1.60417 50.8224 1.60417 50.943V55.7964H0V47.2954H1.75L4.725 51.6966C4.84167 51.8775 4.95833 52.0584 5.075 52.2091C5.19167 52.39 5.27917 52.5407 5.3375 52.6613C5.425 52.7819 5.48333 52.9025 5.5125 52.9929C5.57083 53.0833 5.57083 53.1135 5.57083 53.1135H5.6C5.6 53.1135 5.6 53.0532 5.6 52.9929C5.6 52.9025 5.6 52.812 5.57083 52.6914C5.57083 52.5709 5.57083 52.4201 5.54167 52.2694C5.54167 52.1187 5.54167 51.9679 5.54167 51.7871V47.2954H7.11667V55.7964H5.54167Z"/>
<path d="M11.8418 47.2954H10.0918V55.7964H11.8418V47.2954Z"/>
<path d="M18.4063 50.732C18.3479 50.5511 18.2896 50.3702 18.2313 50.2195C18.1729 50.0386 18.1438 49.8879 18.0854 49.7673C18.0563 49.6468 18.0271 49.5262 17.9979 49.4357C17.9688 49.3453 17.9688 49.285 17.9688 49.2549H17.9396C17.9396 49.285 17.9104 49.3453 17.8813 49.4357C17.8521 49.5262 17.8229 49.6468 17.7938 49.7673C17.7646 49.9181 17.7063 50.0688 17.6479 50.2195C17.5896 50.3702 17.5313 50.5511 17.4729 50.732L16.7729 52.7517H19.0771L18.4063 50.732ZM15.7813 55.7964H14.0312L17.1813 47.2954H18.8729L22.1104 55.7964H20.2146L19.6604 54.1987H16.3354L15.7813 55.7964Z"/>
<path d="M28.174 49.8578C28.174 49.4659 28.0574 49.1644 27.824 48.9836C27.5907 48.8027 27.2407 48.6821 26.7157 48.6821H25.8407V51.0334H26.8032C27.2699 51.0334 27.6199 50.943 27.824 50.732C28.0574 50.521 28.174 50.2195 28.174 49.8578ZM28.6407 55.7964L27.124 53.3848C26.949 53.1436 26.8324 52.9326 26.7157 52.812C26.599 52.6613 26.5115 52.5709 26.424 52.4804C26.3365 52.4201 26.2782 52.3598 26.1907 52.3297C26.1324 52.2995 26.0449 52.2995 25.9282 52.2995H25.8115V55.7964H24.0615V47.2954H26.8032C27.7657 47.2954 28.524 47.5064 29.049 47.9285C29.574 48.3505 29.8365 48.9534 29.8365 49.7673C29.8365 50.1291 29.7782 50.4305 29.6615 50.6717C29.5449 50.943 29.399 51.154 29.224 51.3349C29.049 51.5158 28.8449 51.6665 28.6115 51.7871C28.3782 51.9077 28.1449 51.9679 27.8824 52.0282V52.0584C27.999 52.1488 28.1449 52.2694 28.2907 52.4503C28.4365 52.6311 28.6407 52.9025 28.8449 53.2642L30.449 55.7964H28.6407Z"/>
<path d="M38.7628 55.043C38.6461 55.1335 38.5294 55.254 38.3544 55.3445C38.1794 55.4349 37.9753 55.5555 37.7711 55.6459C37.5378 55.7364 37.3044 55.7966 37.0419 55.8569C36.7794 55.9172 36.4878 55.9474 36.1961 55.9474C35.4961 55.9474 34.8836 55.8268 34.3586 55.5856C33.8336 55.3445 33.3961 55.0129 33.0461 54.621C32.6961 54.1989 32.4336 53.7468 32.2586 53.2041C32.0836 52.6615 31.9961 52.1189 31.9961 51.5461C31.9961 50.9734 32.0836 50.4006 32.2586 49.8881C32.4336 49.3455 32.6961 48.8933 33.0753 48.5015C33.4253 48.1096 33.8919 47.778 34.4169 47.5368C34.9419 47.2956 35.5544 47.175 36.2544 47.175C36.8086 47.175 37.2753 47.2353 37.6544 47.3559C38.0336 47.4765 38.4128 47.6272 38.7336 47.8684L37.9461 49.1948C37.7128 49.0441 37.4794 48.9235 37.1878 48.833C36.9253 48.7426 36.6044 48.7125 36.2253 48.7125C35.8461 48.7125 35.4961 48.7728 35.2044 48.9235C34.9128 49.0742 34.6503 49.2852 34.4753 49.5264C34.2711 49.7977 34.1253 50.0992 34.0378 50.4308C33.9211 50.7624 33.8919 51.1542 33.8919 51.5461C33.8919 51.9682 33.9503 52.3299 34.0378 52.6917C34.1253 53.0534 34.2711 53.3549 34.4753 53.6262C34.6794 53.8975 34.9128 54.1085 35.2336 54.2592C35.5253 54.41 35.8753 54.5004 36.2836 54.5004C36.7211 54.5004 37.1003 54.4401 37.3919 54.2894C37.6836 54.1688 37.9461 54.0181 38.1503 53.8372L38.7628 55.043Z"/>
<path d="M46.3147 55.7964V52.1187H42.6105V55.7964H40.8896V47.2954H42.6105V50.6415H46.3147V47.2954H48.0355V55.7964H46.3147Z"/>
<path d="M56.9617 51.5461C56.9617 51.1542 56.9033 50.7925 56.8158 50.4308C56.7283 50.069 56.5825 49.7676 56.3783 49.4962C56.1742 49.2249 55.9408 49.0139 55.6492 48.8632C55.3575 48.7125 55.0075 48.622 54.5992 48.622C54.1908 48.622 53.8408 48.7125 53.52 48.8632C53.2283 49.0139 52.9658 49.2249 52.7617 49.4962C52.5575 49.7676 52.4117 50.069 52.3242 50.4308C52.2367 50.7925 52.1783 51.1542 52.1783 51.5461C52.1783 51.938 52.2367 52.3299 52.3242 52.6917C52.4117 53.0534 52.5575 53.385 52.7617 53.6563C52.9658 53.9276 53.1992 54.1386 53.52 54.3195C53.8117 54.4702 54.1908 54.5607 54.5992 54.5607C55.0075 54.5607 55.3575 54.4702 55.6783 54.3195C55.97 54.1688 56.2325 53.9578 56.4367 53.6865C56.6408 53.4152 56.7867 53.1137 56.8742 52.752C56.9033 52.3299 56.9617 51.9682 56.9617 51.5461ZM58.7992 51.516C58.7992 52.0888 58.7117 52.6615 58.5367 53.174C58.3617 53.7166 58.0992 54.1688 57.7492 54.5908C57.3992 55.0129 56.9617 55.3143 56.4367 55.5856C55.9117 55.8268 55.2992 55.9474 54.6283 55.9474C53.9283 55.9474 53.3158 55.8268 52.7908 55.5856C52.2658 55.3445 51.7992 55.0129 51.4492 54.621C51.0992 54.2291 50.8075 53.7468 50.6325 53.2343C50.4283 52.6917 50.3408 52.1491 50.3408 51.5763C50.3408 51.0035 50.4283 50.4308 50.6325 49.9183C50.8075 49.3757 51.0992 48.9235 51.4492 48.5015C51.7992 48.0794 52.2367 47.778 52.7908 47.5368C53.3158 47.2956 53.9283 47.175 54.6283 47.175C55.3283 47.175 55.9408 47.2956 56.4658 47.5368C56.9908 47.778 57.4283 48.1096 57.8075 48.5015C58.1867 48.8933 58.4492 49.3757 58.6242 49.8881C58.7117 50.4006 58.7992 50.9432 58.7992 51.516Z"/>
<path d="M66.0331 53.4161C66.0331 53.808 65.9748 54.1396 65.829 54.4712C65.6831 54.7727 65.5081 55.044 65.2456 55.255C64.9831 55.466 64.6915 55.6469 64.3123 55.7675C63.9331 55.888 63.5248 55.9483 63.0873 55.9483C62.7373 55.9483 62.4456 55.9182 62.1831 55.8579C61.9206 55.7976 61.6581 55.7373 61.454 55.6469C61.2498 55.5564 61.0748 55.466 60.8998 55.3756C60.754 55.2851 60.6373 55.1947 60.5498 55.1043L61.279 53.8382C61.3373 53.8683 61.3956 53.9286 61.5123 53.9889C61.5998 54.0492 61.7456 54.1396 61.8915 54.1999C62.0373 54.2602 62.2123 54.3205 62.4165 54.3808C62.6206 54.4411 62.8248 54.4712 63.0581 54.4712C63.4665 54.4712 63.7873 54.3808 64.0206 54.1698C64.254 53.9889 64.3706 53.7477 64.3706 53.4764C64.3706 53.2955 64.3123 53.1147 64.2248 52.9941C64.1373 52.8735 63.9915 52.7529 63.8165 52.6323C63.6415 52.5419 63.4665 52.4213 63.2331 52.3309C62.9998 52.2404 62.7665 52.1199 62.5331 51.9993C62.2706 51.8787 62.0373 51.728 61.8331 51.5772C61.629 51.4265 61.4248 51.2456 61.279 51.0648C61.1331 50.8839 60.9873 50.6427 60.8998 50.3714C60.8123 50.1001 60.754 49.7987 60.754 49.4671C60.754 49.1053 60.8123 48.7737 60.9581 48.4723C61.104 48.1708 61.279 47.9296 61.5123 47.7186C61.7456 47.5076 62.0373 47.3569 62.3581 47.2363C62.679 47.1157 63.029 47.0554 63.4081 47.0554C63.7581 47.0554 64.0498 47.0856 64.3123 47.1459C64.5748 47.2061 64.8081 47.2664 65.0123 47.3267C65.2165 47.387 65.3623 47.4775 65.5081 47.5679C65.654 47.6583 65.7415 47.7186 65.829 47.7789L65.129 49.045C65.0415 48.9847 64.954 48.9244 64.8665 48.8943C64.7498 48.834 64.6331 48.7737 64.4873 48.7134C64.3415 48.6531 64.1956 48.623 64.0206 48.5928C63.8456 48.5627 63.6998 48.5325 63.5248 48.5325C63.1748 48.5325 62.9123 48.5928 62.7081 48.7436C62.504 48.8943 62.4165 49.1053 62.4165 49.4068C62.4165 49.5876 62.4456 49.7082 62.5331 49.8288C62.6206 49.9494 62.7081 50.0398 62.854 50.1303C62.9998 50.2207 63.1456 50.3111 63.3498 50.4016C63.5248 50.492 63.729 50.5824 63.9623 50.6729C64.2248 50.7935 64.4873 50.9442 64.7498 51.0949C65.0123 51.2456 65.2165 51.4265 65.4206 51.6074C65.6248 51.8184 65.7706 52.0596 65.8873 52.3309C66.004 52.6022 66.0331 53.0242 66.0331 53.4161Z"/>
<path d="M1.75 71.8341V73.9141H4.375V75.3309H1.75V78.8579H0V70.3569H4.725V71.8341H1.75Z"/>
<path d="M13.1824 74.6082C13.1824 74.2163 13.124 73.8545 13.0365 73.4928C12.949 73.131 12.8032 72.8296 12.599 72.5583C12.3949 72.287 12.1615 72.0759 11.8699 71.9252C11.5782 71.7745 11.2282 71.684 10.8199 71.684C10.4115 71.684 10.0615 71.7745 9.74069 71.9252C9.44902 72.0759 9.18652 72.287 8.98236 72.5583C8.77819 72.8296 8.63236 73.131 8.54486 73.4928C8.45736 73.8545 8.39902 74.2163 8.39902 74.6082C8.39902 75.0001 8.45736 75.3919 8.54486 75.7537C8.63236 76.1154 8.77819 76.447 8.98236 76.7184C9.18652 76.9897 9.41986 77.2007 9.74069 77.3815C10.0324 77.5323 10.4115 77.6227 10.8199 77.6227C11.2282 77.6227 11.5782 77.5323 11.899 77.3815C12.2199 77.2308 12.4532 77.0198 12.6574 76.7485C12.8615 76.4772 13.0074 76.1757 13.0949 75.814C13.124 75.3919 13.1824 75.0302 13.1824 74.6082ZM15.0199 74.578C15.0199 75.1508 14.9324 75.7235 14.7574 76.236C14.5824 76.7786 14.3199 77.2308 13.9699 77.6529C13.6199 78.0749 13.1824 78.3764 12.6574 78.6477C12.1324 78.8888 11.5199 79.0094 10.849 79.0094C10.149 79.0094 9.53652 78.8888 9.01152 78.6477C8.48652 78.4065 8.01986 78.0749 7.66986 77.683C7.31986 77.2911 7.02819 76.8088 6.85319 76.2963C6.64902 75.7537 6.56152 75.2111 6.56152 74.6383C6.56152 74.0655 6.64902 73.4928 6.85319 72.9803C7.02819 72.4377 7.31986 71.9855 7.66986 71.5635C8.01986 71.1414 8.45736 70.84 9.01152 70.5988C9.53652 70.3576 10.149 70.2371 10.849 70.2371C11.549 70.2371 12.1615 70.3576 12.6865 70.5988C13.2115 70.84 13.649 71.1716 14.0282 71.5635C14.4074 71.9554 14.6699 72.4377 14.8449 72.9502C14.9324 73.4626 15.0199 74.0053 15.0199 74.578Z"/>
<path d="M24.0923 75.3921C24.0923 76.5677 23.8006 77.442 23.2465 78.075C22.6923 78.7081 21.8465 79.0095 20.709 79.0095C19.5131 79.0095 18.6382 78.7081 18.0548 78.1353C17.4715 77.5324 17.209 76.6883 17.209 75.5729V70.3578H18.959V75.4222C18.959 76.1457 19.1048 76.6883 19.3673 77.0199C19.6298 77.3515 20.0965 77.5324 20.7673 77.5324C21.3798 77.5324 21.8173 77.3515 22.109 76.9898C22.4006 76.628 22.5173 76.1457 22.5173 75.5127V70.3276H24.1215V75.3921H24.0923Z"/>
<path d="M32.3452 78.8579L29.1369 74.1251C28.9036 73.7935 28.6994 73.4921 28.5536 73.2509C28.4077 73.0097 28.3494 72.859 28.3202 72.859H28.2911C28.2911 72.859 28.2911 72.9193 28.2911 72.9796C28.2911 73.0399 28.2911 73.1303 28.3202 73.2509C28.3202 73.3715 28.3202 73.4619 28.3494 73.6126C28.3494 73.7332 28.3494 73.8839 28.3494 74.0045V78.8579H26.7744V70.3569H28.5244L31.4994 74.7582C31.6161 74.939 31.7327 75.1199 31.8494 75.2706C31.9661 75.4515 32.0536 75.6022 32.1119 75.7228C32.1994 75.8434 32.2577 75.964 32.2869 76.0544C32.3452 76.1449 32.3452 76.175 32.3452 76.175H32.3744C32.3744 76.175 32.3744 76.1147 32.3744 76.0544C32.3744 75.964 32.3744 75.8735 32.3452 75.753C32.3452 75.6324 32.3452 75.4817 32.3161 75.3309C32.3161 75.1802 32.3161 75.0295 32.3161 74.8486V70.3569H33.8911V78.8579H32.3452Z"/>
<path d="M42.2622 74.5471C42.2622 73.5825 42.0288 72.8892 41.5622 72.4671C41.0955 72.0149 40.3663 71.8039 39.4038 71.8039H38.6455V77.411H39.4622C40.3955 77.411 41.0955 77.1698 41.5622 76.6875C42.0288 76.2051 42.2622 75.4817 42.2622 74.5471ZM44.0997 74.4869C44.0997 75.0898 44.0122 75.6625 43.808 76.2051C43.6038 76.7478 43.3413 77.1999 42.933 77.5918C42.5538 77.9837 42.058 78.2852 41.4455 78.5264C40.833 78.7374 40.133 78.8579 39.3163 78.8579H36.8955V70.3569H39.3747C40.1913 70.3569 40.8913 70.4474 41.4747 70.6584C42.058 70.8694 42.5538 71.1407 42.933 71.5025C43.3122 71.8642 43.6038 72.3164 43.7788 72.7987C44.0122 73.3112 44.0997 73.8839 44.0997 74.4869Z"/>
<path d="M49.5244 73.7935C49.4661 73.6126 49.4077 73.4318 49.3494 73.281C49.2911 73.1002 49.2619 72.9494 49.2036 72.8289C49.1744 72.7083 49.1452 72.5877 49.1161 72.4973C49.0869 72.4068 49.0869 72.3465 49.0869 72.3164H49.0577C49.0577 72.3465 49.0286 72.4068 48.9994 72.4973C48.9702 72.5877 48.9411 72.7083 48.9119 72.8289C48.8827 72.9796 48.8244 73.1303 48.7661 73.281C48.7077 73.4318 48.6494 73.6126 48.5911 73.7935L47.8911 75.8133H50.1952L49.5244 73.7935ZM46.8994 78.8579H45.1494L48.2994 70.3569H49.9911L53.2286 78.8579H51.3327L50.7786 77.2602H47.4827L46.8994 78.8579Z"/>
<path d="M57.6344 71.8341V78.8579H55.8844V71.8341H53.6094V70.3569H59.9094V71.8341H57.6344Z"/>
<path d="M63.8457 70.3569H62.0957V78.8579H63.8457V70.3569Z"/>
<path d="M72.7694 74.6082C72.7694 74.2163 72.7111 73.8545 72.6236 73.4928C72.5361 73.131 72.3902 72.8296 72.1861 72.5583C71.9819 72.287 71.7486 72.0759 71.4569 71.9252C71.1652 71.7745 70.8152 71.684 70.4069 71.684C69.9986 71.684 69.6486 71.7745 69.3277 71.9252C69.0361 72.0759 68.7736 72.287 68.5694 72.5583C68.3652 72.8296 68.2194 73.131 68.1319 73.4928C68.0444 73.8545 67.9861 74.2163 67.9861 74.6082C67.9861 75.0001 68.0444 75.3919 68.1319 75.7537C68.2194 76.1154 68.3652 76.447 68.5694 76.7184C68.7736 76.9897 69.0069 77.2007 69.3277 77.3815C69.6194 77.5323 69.9986 77.6227 70.4069 77.6227C70.8152 77.6227 71.1652 77.5323 71.4861 77.3815C71.7777 77.2308 72.0402 77.0198 72.2444 76.7485C72.4486 76.4772 72.5944 76.1757 72.6819 75.814C72.7402 75.3919 72.7694 75.0302 72.7694 74.6082ZM74.6361 74.578C74.6361 75.1508 74.5486 75.7235 74.3736 76.236C74.1986 76.7786 73.9361 77.2308 73.5861 77.6529C73.2361 78.0749 72.7986 78.3764 72.2736 78.6477C71.7486 78.8888 71.1361 79.0094 70.4652 79.0094C69.7652 79.0094 69.1527 78.8888 68.6277 78.6477C68.1027 78.4065 67.6361 78.0749 67.2861 77.683C66.9361 77.2911 66.6444 76.8088 66.4694 76.2963C66.2652 75.7537 66.1777 75.2111 66.1777 74.6383C66.1777 74.0655 66.2652 73.4928 66.4694 72.9803C66.6444 72.4377 66.9361 71.9855 67.2861 71.5635C67.6361 71.1414 68.0736 70.84 68.6277 70.5988C69.1527 70.3576 69.7652 70.2371 70.4652 70.2371C71.1652 70.2371 71.7777 70.3576 72.3027 70.5988C72.8277 70.84 73.2652 71.1716 73.6444 71.5635C74.0236 71.9554 74.2861 72.4377 74.4611 72.9502C74.5194 73.4626 74.6361 74.0053 74.6361 74.578Z"/>
<path d="M82.3951 78.8579L79.1867 74.1251C78.9534 73.7935 78.7492 73.4921 78.6034 73.2509C78.4576 73.0097 78.3992 72.859 78.3701 72.859H78.3409C78.3409 72.859 78.3409 72.9193 78.3409 72.9796C78.3409 73.0399 78.3409 73.1303 78.3701 73.2509C78.3701 73.3715 78.3701 73.4619 78.3992 73.6126C78.3992 73.7332 78.3992 73.8839 78.3992 74.0045V78.8579H76.8242V70.3569H78.5742L81.5492 74.7582C81.6659 74.939 81.7826 75.1199 81.8992 75.2706C82.0159 75.4515 82.1034 75.6022 82.1617 75.7228C82.2492 75.8434 82.3076 75.964 82.3367 76.0544C82.3951 76.1449 82.3951 76.175 82.3951 76.175H82.4242C82.4242 76.175 82.4242 76.1147 82.4242 76.0544C82.4242 75.964 82.4242 75.8735 82.3951 75.753C82.3951 75.6324 82.3951 75.4817 82.3659 75.3309C82.3659 75.1802 82.3659 75.0295 82.3659 74.8486V70.3569H83.9409V78.8579H82.3951Z"/>
<path d="M0 101.92V93.4189H1.75V100.473H4.8125V101.92H0Z"/>
<path d="M8.86719 93.4189H7.11719V101.92H8.86719V93.4189Z"/>
<path d="M16.0128 99.4179C16.0128 99.026 15.8961 98.7245 15.6628 98.5135C15.4294 98.3025 15.0503 98.2121 14.5544 98.2121H13.5628V100.563H14.4669C14.9628 100.563 15.3419 100.473 15.6044 100.292C15.8961 100.111 16.0128 99.8098 16.0128 99.4179ZM15.7211 95.8004C15.7211 95.1071 15.2836 94.7755 14.4086 94.7755H13.5628V96.8857H14.3794C14.8461 96.8857 15.1961 96.7952 15.4003 96.6144C15.6336 96.4636 15.7211 96.1923 15.7211 95.8004ZM17.7919 99.5686C17.7919 99.9907 17.7044 100.383 17.5586 100.684C17.3836 100.985 17.1794 101.227 16.8878 101.407C16.5961 101.588 16.2753 101.739 15.8669 101.799C15.4586 101.89 15.0503 101.92 14.5836 101.92H11.8711V93.4189H14.6128C14.9919 93.4189 15.3419 93.4491 15.6919 93.5094C16.0419 93.5697 16.3336 93.6903 16.5961 93.8711C16.8586 94.0219 17.0628 94.263 17.2086 94.5343C17.3544 94.8056 17.4419 95.1372 17.4419 95.5291C17.4419 96.0717 17.2961 96.5239 17.0336 96.8254C16.7711 97.1268 16.4211 97.368 15.9836 97.4886V97.5187C16.2169 97.5489 16.4503 97.6393 16.6836 97.7297C16.8878 97.8202 17.0919 97.9709 17.2669 98.1518C17.4419 98.3327 17.5586 98.5135 17.6461 98.7547C17.7336 98.9657 17.7919 99.237 17.7919 99.5686Z"/>
<path d="M24.2668 95.9813C24.2668 95.5894 24.1501 95.288 23.9168 95.1071C23.6835 94.9262 23.3335 94.8056 22.8085 94.8056H21.9335V97.157H22.896C23.3626 97.157 23.7126 97.0665 23.9168 96.8555C24.1793 96.6445 24.2668 96.3431 24.2668 95.9813ZM24.7335 101.92L23.2168 99.5083C23.0418 99.2672 22.9251 99.0561 22.8085 98.9356C22.6918 98.7848 22.6043 98.6944 22.5168 98.604C22.4293 98.5437 22.371 98.4834 22.2835 98.4532C22.2251 98.4231 22.1376 98.4231 22.021 98.4231H21.9043V101.92H20.1543V93.4189H22.896C23.8585 93.4189 24.6168 93.63 25.1418 94.052C25.6668 94.474 25.9293 95.0769 25.9293 95.8909C25.9293 96.2526 25.871 96.5541 25.7543 96.7952C25.6376 97.0665 25.4918 97.2776 25.3168 97.4584C25.1418 97.6393 24.9376 97.79 24.7043 97.9106C24.471 98.0312 24.2376 98.0915 23.9751 98.1518V98.1819C24.0918 98.2724 24.2376 98.393 24.3835 98.5738C24.5293 98.7547 24.7335 99.026 24.9376 99.3877L26.5418 101.92H24.7335Z"/>
<path d="M32.4639 96.8555C32.4055 96.6747 32.3472 96.4938 32.2889 96.3431C32.2305 96.1622 32.2014 96.0115 32.143 95.8909C32.1139 95.7703 32.0847 95.6497 32.0555 95.5593C32.0264 95.4688 32.0264 95.4085 32.0264 95.3784H31.9972C31.9972 95.4085 31.968 95.4688 31.9389 95.5593C31.9097 95.6497 31.8805 95.7703 31.8514 95.8909C31.8222 96.0416 31.7639 96.1923 31.7055 96.3431C31.6472 96.4938 31.5889 96.6747 31.5305 96.8555L30.8305 98.8753H33.1347L32.4639 96.8555ZM29.8389 101.92H28.0889L31.2389 93.4189H32.9305L36.168 101.92H34.2722L33.718 100.322H30.4222L29.8389 101.92Z"/>
<path d="M42.2053 95.9813C42.2053 95.5894 42.0886 95.288 41.8553 95.1071C41.6219 94.9262 41.2719 94.8056 40.7761 94.8056H39.9011V97.157H40.8636C41.3303 97.157 41.6803 97.0665 41.8844 96.8555C42.0886 96.6445 42.2053 96.3431 42.2053 95.9813ZM42.6719 101.92L41.1553 99.5083C40.9803 99.2672 40.8636 99.0561 40.7469 98.9356C40.6303 98.7848 40.5428 98.6944 40.4553 98.604C40.3678 98.5437 40.3094 98.4834 40.2219 98.4532C40.1636 98.4231 40.0761 98.4231 39.9594 98.4231H39.8428V101.92H38.0928V93.4189H40.8344C41.7969 93.4189 42.5553 93.63 43.0803 94.052C43.6053 94.474 43.8678 95.0769 43.8678 95.8909C43.8678 96.2526 43.8094 96.5541 43.6928 96.7952C43.5761 97.0665 43.4303 97.2776 43.2553 97.4584C43.0803 97.6393 42.8761 97.79 42.6428 97.9106C42.4094 98.0312 42.1761 98.0915 41.9136 98.1518V98.1819C42.0303 98.2724 42.1761 98.393 42.3219 98.5738C42.4678 98.7547 42.6719 99.026 42.8761 99.3877L44.4803 101.92H42.6719Z"/>
<path d="M49.7877 98.7246V101.92H48.0377V98.7246L45.3252 93.4189H47.2502L49.0002 97.0364L50.7502 93.4189H52.4419L49.7877 98.7246Z"/>
<path d="M84 17.8442H55.5333V3.22364L28.4667 17.8442H0V16.0656H28L57.2542 0.118652V16.0656H84V17.8442Z"/>
</svg>
