<svg viewBox="0 0 512 148" fill="#ffffff" xmlns="http://www.w3.org/2000/svg">
<path d="M25.0165 34.1611C24.5128 33.5446 24.4762 32.72 25.2323 32.4701L77.6336 15.1432C77.7755 15.0963 77.9266 15.0837 78.0743 15.1066C78.2221 15.1294 78.3623 15.187 78.4834 15.2746C78.6045 15.3622 78.7031 15.4774 78.7711 15.6105C78.8391 15.7437 78.8744 15.8911 78.8743 16.0406C78.8866 16.2848 78.9882 16.516 79.1597 16.6903C79.3313 16.8645 79.5609 16.9697 79.8049 16.9858C80.2191 17.0533 80.6399 17.0704 81.0582 17.0366C81.315 17.0388 81.5628 16.9423 81.7504 16.767C81.9381 16.5918 82.0513 16.3512 82.0667 16.0948C82.0667 16.0948 82.0642 10.8418 82.0642 10.5828C82.0673 10.3933 82.0166 10.2067 81.9178 10.0448C81.819 9.88297 81.6763 9.75251 81.5062 9.66865C81.2544 9.52519 80.9573 9.48328 80.6756 9.55146L21.9809 29.0226C19.7212 29.7537 19.3184 30.0273 19.3184 32.455L19.3377 132.219C19.336 132.314 19.3492 132.41 19.3769 132.501C20.5889 136.198 24.9238 137.89 24.9238 137.89C29.1795 139.505 31.3728 139.954 35.2278 138.617C35.2278 138.617 35.3131 39.0919 35.2627 38.6542C35.2555 38.5944 35.2294 38.5386 35.188 38.4949C35.1466 38.4512 35.0923 38.422 35.0331 38.4116C34.6234 38.3349 28.3174 38.2022 25.0164 34.1611"/>
<path d="M6.38207 25.4806C5.85345 24.8852 5.84181 24.0391 6.59791 23.7892L58.9992 6.46274C59.1411 6.41581 59.2922 6.40326 59.4399 6.42611C59.5877 6.44895 59.7279 6.50656 59.849 6.59417C59.9702 6.68179 60.0688 6.79691 60.1367 6.93008C60.2047 7.06324 60.2401 7.21064 60.24 7.36014C60.2496 7.60516 60.3503 7.83778 60.5223 8.01256C60.6943 8.18734 60.9253 8.29174 61.1701 8.30537C61.5853 8.36351 62.0053 8.3804 62.4238 8.35578C62.6809 8.35931 62.9294 8.26332 63.1174 8.08788C63.3053 7.91244 63.4182 7.67113 63.4324 7.4144C63.4324 7.4144 63.4298 2.33669 63.4298 2.01185C63.4349 1.81901 63.3924 1.62789 63.3059 1.45542C63.2195 1.28295 63.0919 1.13446 62.9344 1.02311C62.8055 0.934369 62.6588 0.87479 62.5046 0.848525C62.3503 0.82226 62.1922 0.82994 62.0413 0.871032L3.34647 20.3422C1.08679 21.0733 1.00195 21.3923 1.00195 23.82L1.00801 123.924C1.01106 124.02 1.0242 124.114 1.04721 124.207C1.97728 127.945 6.28944 129.21 6.28944 129.21C10.5451 130.825 12.7384 131.274 16.5934 129.936C16.5934 129.936 16.6787 30.411 16.6283 29.9737C16.6211 29.9141 16.595 29.8583 16.5537 29.8147C16.5124 29.771 16.4583 29.7417 16.3991 29.7312C15.989 29.6545 9.81354 29.3452 6.38202 25.4806"/>
<path d="M112.969 28.1385C112.969 27.9889 112.933 27.8415 112.865 27.7084C112.797 27.5753 112.698 27.4602 112.577 27.3727C112.455 27.2852 112.315 27.2278 112.167 27.2051C112.02 27.1825 111.868 27.1952 111.727 27.2424L65.072 42.7443C53.0654 46.29 52.4644 46.7006 48.636 45.2918C46.7723 44.68 45.1112 43.5704 43.8323 42.083C43.3451 41.4531 43.3433 40.6415 44.0995 40.3916L96.5007 23.0646C96.6427 23.0178 96.7938 23.0053 96.9415 23.0282C97.0893 23.0512 97.2295 23.1088 97.3506 23.1965C97.4717 23.2841 97.5703 23.3992 97.6383 23.5324C97.7062 23.6656 97.7416 23.813 97.7415 23.9625C97.7508 24.2076 97.8513 24.4405 98.0234 24.6154C98.1955 24.7902 98.4267 24.8945 98.6717 24.9077C99.0857 24.9617 99.5037 24.9785 99.9207 24.9577C100.179 24.9642 100.429 24.8694 100.619 24.6936C100.808 24.5177 100.921 24.2748 100.934 24.0168C100.934 24.0168 100.931 18.7405 100.931 18.5983C100.952 18.3934 100.91 18.1871 100.811 18.0068C100.711 17.8266 100.559 17.6812 100.374 17.5902C100.252 17.5108 100.115 17.4592 99.9714 17.439C99.8277 17.4189 99.6814 17.4306 99.5428 17.4734L40.848 36.9445C38.5884 37.6756 38.1855 37.9492 38.1855 40.3765L38.2049 137.856C38.2049 137.952 38.2088 138.898 38.2071 138.994C38.1481 142.149 41.8622 143.905 43.6251 144.693C46.8789 146.305 50.6291 146.6 54.0951 145.517L112.331 126.605C112.517 126.541 112.678 126.421 112.793 126.26C112.907 126.1 112.969 125.908 112.969 125.711V106.996C112.969 106.849 112.934 106.704 112.868 106.572C112.801 106.44 112.705 106.326 112.587 106.238C112.468 106.15 112.331 106.092 112.186 106.066C112.041 106.041 111.892 106.05 111.751 106.093L65.0501 121.4C64.9054 121.442 64.7531 121.451 64.6048 121.425C64.4564 121.399 64.316 121.339 64.1941 121.251C64.0723 121.162 63.9722 121.047 63.9016 120.914C63.8309 120.781 63.7915 120.634 63.7865 120.483V103.949C63.7865 103.746 63.8518 103.549 63.9727 103.386C64.0936 103.223 64.2636 103.104 64.4577 103.045L112.251 87.3894C112.832 87.1761 112.969 87.077 112.969 86.5807L112.932 67.4697C112.917 67.3319 112.871 67.1994 112.797 67.0822C112.722 66.965 112.623 66.8662 112.505 66.7933C112.387 66.7204 112.254 66.6754 112.116 66.6616C111.978 66.6478 111.838 66.6656 111.708 66.7136L64.9368 82.2036C64.3336 82.3776 63.7865 81.7654 63.7865 81.1368L63.858 64.5354C63.8579 64.3354 63.9214 64.1405 64.0392 63.9788C64.1571 63.8171 64.3232 63.697 64.5137 63.6359L112.409 47.7333C112.8 47.6079 112.964 47.0525 112.964 46.642L112.969 28.1385Z"/>
<path d="M193.94 91.6295C193.983 94.8939 193.331 98.13 192.029 101.124C190.79 103.934 188.906 106.413 186.53 108.36C183.938 110.433 180.969 111.986 177.788 112.934C174.053 114.057 170.168 114.604 166.268 114.555C163.391 114.582 160.52 114.311 157.699 113.744C155.392 113.274 153.126 112.615 150.926 111.776C149.156 111.103 147.451 110.269 145.832 109.286C144.644 108.568 143.503 107.775 142.416 106.913L149.363 95.5661C149.826 95.8752 150.521 96.3576 151.447 97.0134C152.54 97.7622 153.703 98.4022 154.92 98.924C156.496 99.6071 158.122 100.168 159.784 100.603C161.787 101.124 163.85 101.377 165.92 101.355C169.857 101.355 172.887 100.487 175.009 98.7502C175.994 98.0182 176.794 97.0668 177.347 95.9714C177.9 94.8761 178.19 93.667 178.193 92.4401C178.235 90.8677 177.723 89.3308 176.746 88.0978C175.676 86.8139 174.381 85.735 172.925 84.9137C171.15 83.8924 169.314 82.9837 167.425 82.193C165.341 81.3063 163.18 80.2835 160.941 79.1247C158.646 78.0237 156.44 76.7462 154.342 75.3039C152.394 73.97 150.64 72.3724 149.131 70.5568C147.623 68.7091 146.447 66.6131 145.658 64.3625C144.758 61.6971 144.328 58.8961 144.384 56.0836C144.331 52.9985 145.006 49.9443 146.353 47.1681C147.636 44.5799 149.451 42.2916 151.679 40.4528C154.014 38.5475 156.684 37.0948 159.552 36.1691C162.691 35.1458 165.976 34.6375 169.278 34.6637C172.091 34.6336 174.902 34.8662 177.672 35.3585C179.853 35.7562 182.001 36.3174 184.098 37.0373C185.705 37.5825 187.256 38.2803 188.729 39.1213C189.963 39.8556 191.005 40.5311 191.855 41.1476L185.256 52.61C184.561 52.1471 183.713 51.6455 182.709 51.1051C181.591 50.516 180.43 50.0127 179.235 49.5998C177.832 49.1112 176.402 48.7053 174.951 48.384C173.393 48.0352 171.801 47.8604 170.204 47.863C167.544 47.7211 164.908 48.4309 162.678 49.8893C161.756 50.5742 161.019 51.478 160.534 52.5191C160.049 53.5602 159.831 54.7057 159.899 55.8522C159.85 57.2286 160.235 58.5857 161 59.7311C161.818 60.8552 162.839 61.817 164.01 62.5675C165.443 63.5046 166.954 64.318 168.525 64.9992C170.262 65.7716 172.134 66.6208 174.141 67.5465C176.688 68.7042 179.158 69.9393 181.551 71.2516C183.877 72.5145 186.003 74.1141 187.861 75.9987C189.891 78.0491 191.477 80.4944 192.523 83.1832C193.569 85.8719 194.051 88.7468 193.94 91.6295Z"/>
<path d="M220.454 40.2215C220.46 41.4297 220.222 42.6267 219.754 43.7408C219.287 44.8549 218.599 45.8632 217.733 46.7054C216.858 47.6125 215.804 48.3279 214.638 48.8062C213.472 49.2846 212.22 49.5154 210.96 49.4842C209.708 49.5193 208.463 49.2899 207.305 48.8111C206.148 48.3323 205.105 47.6148 204.244 46.7054C203.392 45.8553 202.718 44.8443 202.261 43.7311C201.804 42.6179 201.572 41.4249 201.581 40.2215C201.566 39.0344 201.795 37.8569 202.253 36.7616C202.711 35.6663 203.388 34.6766 204.244 33.8534C205.122 32.9747 206.171 32.2851 207.326 31.8271C208.481 31.3691 209.718 31.1524 210.96 31.1903C212.21 31.1561 213.454 31.3744 214.617 31.832C215.781 32.2895 216.841 32.977 217.733 33.8534C218.603 34.6684 219.294 35.6554 219.762 36.7516C220.23 37.8478 220.466 39.0294 220.454 40.2215ZM203.202 113.165V56.7787H218.717V113.165L203.202 113.165Z"/>
<path d="M275.449 64.3045C277.615 61.73 280.199 59.5381 283.092 57.8206C286.287 56.0978 289.884 55.2584 293.512 55.3889C296.11 55.3101 298.695 55.7837 301.096 56.7786C303.041 57.6281 304.75 58.9396 306.074 60.5994C307.389 62.3094 308.318 64.2846 308.795 66.3885C309.352 68.7795 309.624 71.2279 309.605 73.6829V113.165H294.207V76.8093C294.344 74.5918 293.842 72.3816 292.76 70.4411C291.793 68.9758 290.037 68.2424 287.492 68.2409C286.304 68.2326 285.125 68.4486 284.018 68.8777C282.981 69.2781 282.006 69.824 281.123 70.4987C280.299 71.1329 279.525 71.8298 278.808 72.5832C278.113 73.3176 277.496 73.9929 276.955 74.6091V113.165H261.556V76.8092C261.556 73.9543 261.035 71.8122 259.992 70.383C258.951 68.9557 257.272 68.2417 254.956 68.2409C253.614 68.2303 252.287 68.5274 251.078 69.1095C249.95 69.6432 248.899 70.3244 247.951 71.1354C247.139 71.8284 246.402 72.6046 245.751 73.4513C245.172 74.2238 244.729 74.8027 244.42 75.1882V113.165H229.021V56.7786H244.072V63.7254C244.767 62.9549 245.616 62.0674 246.62 61.0628C247.694 60.0053 248.901 59.0907 250.209 58.3416C251.713 57.4803 253.304 56.7817 254.956 56.2576C256.905 55.6527 258.936 55.3595 260.977 55.389C264.99 55.389 268.136 56.1995 270.414 57.8206C272.691 59.4429 274.441 61.6972 275.449 64.3045Z"/>
<path d="M371.897 84.9138C371.951 89.0406 371.325 93.1482 370.044 97.0715C368.928 100.487 367.159 103.652 364.834 106.392C362.634 108.949 359.909 111.002 356.845 112.412C353.646 113.864 350.168 114.595 346.655 114.555C343.811 114.667 340.974 114.194 338.319 113.165C336.662 112.49 335.104 111.595 333.687 110.502V138.522H318.289V56.7786H333.341V62.6834C335.036 60.626 337.097 58.899 339.419 57.5891C342.351 56.0202 345.649 55.2607 348.972 55.3889C356.15 55.3889 361.766 57.9363 365.818 63.031C369.87 68.1253 371.896 75.4195 371.897 84.9138ZM355.571 84.9138C355.571 79.5881 354.645 75.3814 352.792 72.2937C351.949 70.8157 350.713 69.6004 349.221 68.7828C347.729 67.9652 346.039 67.5773 344.34 67.6623C342.995 67.6404 341.659 67.8761 340.403 68.3567C339.308 68.7876 338.261 69.3309 337.277 69.9778C336.446 70.5154 335.687 71.1575 335.02 71.8884C334.44 72.5451 333.996 73.0661 333.688 73.4514V98.8079C334.859 99.7732 336.12 100.626 337.451 101.355C339.297 102.283 341.35 102.721 343.414 102.629C345.198 102.707 346.972 102.315 348.557 101.492C350.142 100.669 351.483 99.444 352.445 97.9397C354.529 94.8137 355.571 90.4718 355.571 84.9138Z"/>
<path d="M380.929 113.165V29.801H396.328V113.165H380.929Z"/>
<path d="M402.811 56.7786H419.252L431.757 93.9451H432.336L443.799 56.7786H459.661L436.389 119.186C435.266 122.256 433.911 125.237 432.336 128.102C430.984 130.58 429.222 132.811 427.126 134.701C425.041 136.52 422.622 137.916 420.005 138.812C416.809 139.845 413.463 140.335 410.105 140.259C408.206 140.297 406.307 140.161 404.432 139.854C403.043 139.582 402.04 139.37 401.422 139.217L403.621 127.06C404.184 127.256 404.767 127.392 405.358 127.465C406.588 127.605 407.826 127.662 409.063 127.638C413 127.638 415.856 126.75 417.631 124.975C419.571 122.927 421.034 120.476 421.915 117.797L423.999 112.007L402.811 56.7786Z"/>
<path d="M466.725 113.165V36.053H511.186V49.4841H482.818V66.8518H507.827V79.5881H482.818V99.7341H511.996V113.165H466.725Z"/>
</svg>
