<svg xmlns="http://www.w3.org/2000/svg" xmlns:xlink="http://www.w3.org/1999/xlink"><symbol viewBox="0 0 24 14" id="arrow" xmlns="http://www.w3.org/2000/svg"><path fill-rule="evenodd" clip-rule="evenodd" d="M10.526 12.871L.263 1.676 1.737.324 12 11.52 22.263.324l1.474 1.352L13.474 12.87a2 2 0 01-2.948 0z"/></symbol><symbol viewBox="0 0 14 9" id="arrow-xsmall" xmlns="http://www.w3.org/2000/svg"><path fill-rule="evenodd" clip-rule="evenodd" d="M5.984 7.578L.424 1.514 1.9.163l5.22 5.695L12.341.163l1.475 1.351-5.56 6.064a1.542 1.542 0 01-2.272 0zm1.474-1.351z"/></symbol><symbol viewBox="0 0 16 16" id="download" xmlns="http://www.w3.org/2000/svg"><path d="M8 0C3.6 0 0 3.6 0 8s3.6 8 8 8 8-3.6 8-8-3.6-8-8-8zm0 15.3C4 15.3.7 12 .7 8S4 .7 8 .7 15.3 4 15.3 8 12 15.3 8 15.3z"/><path d="M11.3 8.2c-.2-.2-.5-.2-.7 0l-2.2 2.2V4.5h-.9v5.9L5.3 8.2c-.1-.2-.4-.2-.6 0s-.2.5 0 .7l3 3c.2.2.5.2.7 0l3-3c.1-.2.1-.5-.1-.7z"/></symbol><symbol viewBox="0 0 24 2" id="minus" xmlns="http://www.w3.org/2000/svg"><rect width="24" height="2" rx="1"/></symbol><symbol viewBox="0 0 24 24" id="plus" xmlns="http://www.w3.org/2000/svg"><rect x="11" y="24" width="24" height="2" rx="1" transform="rotate(-90 11 24)"/><rect y="11" width="24" height="2" rx="1"/></symbol><symbol viewBox="0 0 24 24" id="search" xmlns="http://www.w3.org/2000/svg"><path fill-rule="evenodd" clip-rule="evenodd" d="M18 10a8 8 0 11-16 0 8 8 0 0116 0zm-1.671 7.743A9.958 9.958 0 0110 20C4.477 20 0 15.523 0 10S4.477 0 10 0s10 4.477 10 10a9.958 9.958 0 01-2.257 6.329l5.96 5.96a1 1 0 01-1.414 1.414l-5.96-5.96z"/></symbol><symbol viewBox="0 0 18 18" id="search-small" xmlns="http://www.w3.org/2000/svg"><path fill-rule="evenodd" clip-rule="evenodd" d="M13.002 7.501A5.501 5.501 0 112 7.501a5.501 5.501 0 0111.002 0zm-.95 5.965a7.501 7.501 0 111.414-1.414l3.785 3.785a1 1 0 01-1.414 1.414l-3.786-3.786z"/></symbol></svg>