<svg width="68" height="68" fill="none" xmlns="http://www.w3.org/2000/svg">
  <path d="M15.495 45.526a1.153 1.153 0 0 0 0 2.305h37.01a1.153 1.153 0 0 0 0-2.305h-37.01zM14.342 52.44c0-.636.516-1.152 1.153-1.152h37.01a1.153 1.153 0 1 1 0 2.305h-37.01a1.152 1.152 0 0 1-1.152-1.152zM15.495 57.05a1.152 1.152 0 1 0 0 2.306h37.01a1.153 1.153 0 1 0 0-2.305h-37.01z" fill="#fff"/>
  <path fill-rule="evenodd" clip-rule="evenodd" d="M6.587 0a2.776 2.776 0 0 0-2.775 2.776V36.41c0 .503.134.975.368 1.382a2.767 2.767 0 0 0-.694 1.492L.026 64.852A2.775 2.775 0 0 0 2.776 68h62.448a2.776 2.776 0 0 0 2.75-3.148l-3.46-25.568a2.767 2.767 0 0 0-.694-1.49c.234-.408.368-.88.368-1.383V2.776A2.776 2.776 0 0 0 61.412 0H6.587zm54.825 2.776H6.587V36.41h54.825V2.776zm.35 36.88H6.238L2.776 65.225h62.448l-3.461-25.567z" fill="#fff"/>
</svg>
