<svg width="65" height="65" fill="none" xmlns="http://www.w3.org/2000/svg">
  <path fill-rule="evenodd" clip-rule="evenodd" d="M40.46 32.5a7.96 7.96 0 1 1-15.918 0 7.96 7.96 0 0 1 15.918 0zm-2.653 0a5.306 5.306 0 1 1-10.613 0 5.306 5.306 0 0 1 10.613 0z" fill="#8a1a9c"/>
  <path fill-rule="evenodd" clip-rule="evenodd" d="M32.5 48.419c8.792 0 15.919-7.127 15.919-15.919 0-8.791-7.127-15.918-15.919-15.918-8.791 0-15.918 7.127-15.918 15.918 0 8.792 7.127 15.919 15.918 15.919zm0-2.654c7.326 0 13.265-5.939 13.265-13.265 0-7.326-5.939-13.265-13.265-13.265-7.326 0-13.265 5.939-13.265 13.265 0 7.326 5.939 13.265 13.265 13.265zM19.837 45.163a5.307 5.307 0 1 0-7.503 7.506 5.307 5.307 0 0 0 7.503-7.506zm-1.875 1.876a2.653 2.653 0 1 0-3.753 3.753 2.653 2.653 0 0 0 3.753-3.753z" fill="#8a1a9c"/>
  <path fill-rule="evenodd" clip-rule="evenodd" d="M44.694 12.802a5.306 5.306 0 1 1 7.504 7.504 5.306 5.306 0 0 1-7.504-7.504zm1.876 1.876a2.653 2.653 0 1 1 3.752 3.752 2.653 2.653 0 0 1-3.752-3.752zM15.255 32.5a5.306 5.306 0 1 0-10.612 0 5.306 5.306 0 0 0 10.612 0zm-2.653 0a2.653 2.653 0 1 0-5.306 0 2.653 2.653 0 0 0 5.306 0zM55.714 27.194a5.306 5.306 0 1 1 0 10.613 5.306 5.306 0 0 1 0-10.613zm0 2.653a2.653 2.653 0 1 1 0 5.306 2.653 2.653 0 0 1 0-5.306zM19.836 19.837a5.306 5.306 0 1 0-7.504-7.504 5.306 5.306 0 0 0 7.504 7.504zm-1.876-1.876a2.653 2.653 0 1 0-3.752-3.752 2.653 2.653 0 0 0 3.752 3.752zM52.197 44.694a5.306 5.306 0 1 1-7.504 7.505 5.306 5.306 0 0 1 7.504-7.505zm-1.876 1.877a2.653 2.653 0 1 1-3.751 3.752 2.653 2.653 0 0 1 3.751-3.752zM32.499 15.255a5.306 5.306 0 1 0 0-10.612 5.306 5.306 0 0 0 0 10.612zm0-2.653a2.653 2.653 0 1 0 0-5.306 2.653 2.653 0 0 0 0 5.306zM37.805 55.714a5.306 5.306 0 1 1-10.613 0 5.306 5.306 0 0 1 10.613 0zm-2.653 0a2.653 2.653 0 1 1-5.306 0 2.653 2.653 0 0 1 5.306 0z" fill="#8a1a9c"/>
  <path fill-rule="evenodd" clip-rule="evenodd" d="M34.158 64.959c-.55.027-1.102.041-1.658.041C14.55 65 0 50.45 0 32.5S14.55 0 32.5 0 65 14.55 65 32.5c0 13.373-8.077 24.859-19.618 29.847h18.29a1.327 1.327 0 0 1 0 2.653H34.49c-.115 0-.225-.014-.331-.041zM62.347 32.5c0 16.484-13.363 29.847-29.847 29.847S2.653 48.984 2.653 32.5 16.016 2.653 32.5 2.653 62.347 16.016 62.347 32.5z" fill="#8a1a9c"/>
</svg>
