<svg width="36" height="36" fill="none" xmlns="http://www.w3.org/2000/svg">
  <path fill-rule="evenodd" clip-rule="evenodd" d="M18 0c-4.889 0-5.502.02-7.421.108C8.663.196 7.354.5 6.209.945a8.823 8.823 0 0 0-3.188 2.076c-1 1-1.616 2.005-2.076 3.188C.5 7.354.195 8.663.108 10.58.021 12.499 0 13.11 0 18s.02 5.502.108 7.421c.088 1.916.392 3.225.837 4.37a8.823 8.823 0 0 0 2.076 3.188c1 1 2.005 1.616 3.188 2.076 1.145.445 2.454.75 4.37.837 1.92.087 2.532.108 7.421.108s5.502-.02 7.421-.108c1.916-.088 3.225-.392 4.37-.837a8.824 8.824 0 0 0 3.188-2.076c1-1 1.616-2.005 2.076-3.188.445-1.145.75-2.454.837-4.37.087-1.92.108-2.532.108-7.421s-.02-5.502-.108-7.421c-.088-1.916-.392-3.225-.837-4.37a8.823 8.823 0 0 0-2.076-3.188c-1-1-2.005-1.616-3.188-2.076C28.646.5 27.337.195 25.42.108 23.501.021 22.89 0 18 0zm0 3.243c4.806 0 5.375.019 7.273.105 1.756.08 2.709.373 3.343.62.84.327 1.44.717 2.07 1.346.63.63 1.02 1.23 1.346 2.07.247.634.54 1.587.62 3.342.086 1.898.105 2.468.105 7.274s-.019 5.375-.105 7.273c-.08 1.756-.373 2.709-.62 3.343a5.574 5.574 0 0 1-1.346 2.07c-.63.63-1.23 1.02-2.07 1.346-.634.247-1.587.54-3.343.62-1.897.086-2.466.105-7.273.105-4.806 0-5.376-.019-7.274-.105-1.755-.08-2.708-.373-3.342-.62a5.576 5.576 0 0 1-2.07-1.346 5.577 5.577 0 0 1-1.346-2.07c-.247-.634-.54-1.587-.62-3.343-.086-1.898-.105-2.467-.105-7.273 0-4.806.019-5.376.105-7.274.08-1.755.373-2.708.62-3.342.327-.84.717-1.44 1.346-2.07.63-.63 1.23-1.02 2.07-1.346.634-.247 1.587-.54 3.342-.62 1.898-.086 2.468-.105 7.274-.105zm0 5.514a9.243 9.243 0 1 0 0 18.486 9.243 9.243 0 0 0 0-18.486zM18 24a6 6 0 1 1 0-12 6 6 0 0 1 0 12zM29.768 8.392a2.16 2.16 0 1 1-4.32 0 2.16 2.16 0 0 1 4.32 0z" fill="#000"/>
</svg>
