<svg width="68" height="68" xmlns="http://www.w3.org/2000/svg"><path d="M65.437 36.55c-2.032-2.2-4.471-7.513 0-13.199" stroke="#000" stroke-width="3"/><path fill-rule="evenodd" clip-rule="evenodd" d="M6.366 20.177l29.751 7.274a.273.273 0 00.103.003.172.172 0 00.063-.02L64.575 9.366 34.84 3.006a.265.265 0 00-.097-.003.178.178 0 00-.061.02L6.366 20.178zm-.52-.134l.002.001a.026.026 0 01-.002-.001zm29.558 10.322L5.197 22.979a3.243 3.243 0 01-.803-.31 8.056 8.056 0 00-.287.69c-.408 1.12-.644 2.46-.68 3.83-.037 1.37.127 2.711.473 3.83.351 1.139.849 1.921 1.382 2.346a.26.26 0 00.057.03c.046.018.112.04.207.06l30.097 6.621c.508.112 1.036.03 1.432-.19L63.253 23.47a11.515 11.515 0 01-1.742-4.709 10.872 10.872 0 01.222-4.02l-23.836 15.22a3.23 3.23 0 01-2.492.403zM4.313 17.913a2.83 2.83 0 00-1.158 1.295c-.839.86-1.445 1.97-1.865 3.124-.536 1.47-.817 3.136-.861 4.776-.044 1.64.147 3.314.605 4.796.28.908.676 1.794 1.217 2.56-1.71 1.77-2.346 4.35-2.238 6.706.092 2.034.747 4.172 2.011 5.797-1.54 1.76-2.114 4.21-2.011 6.46.122 2.696 1.233 5.574 3.44 7.2a3.801 3.801 0 001.45.633l30.096 6.62c1.213.267 2.518.087 3.593-.531l.025-.014.024-.016 27.615-17.315a1.5 1.5 0 00.16-2.426c-.806-.927-1.684-2.466-1.93-4.334-.191-1.448-.01-3.147.956-4.987l.814-.511a1.5 1.5 0 00.16-2.426c-.806-.927-1.684-2.466-1.93-4.333-.21-1.593.03-3.49 1.27-5.544l.5-.314a1.5 1.5 0 00.162-2.425c-.807-.926-1.686-2.466-1.932-4.334-.249-1.89.135-4.209 2.074-6.71l.129-.082c2.17-1.385 1.53-4.5-1.038-5.049L35.466.072a3.232 3.232 0 00-2.34.386L4.313 17.913zM38.616 42.46l22.969-14.402a10.843 10.843 0 00-.075 3.32 11.51 11.51 0 001.728 4.687l-.031.051-26.132 16.386c-.396.22-.924.302-1.432.19l-30.097-6.62a.859.859 0 01-.315-.117c-1.26-.929-2.127-2.82-2.223-4.922-.09-1.982.52-3.733 1.638-4.71.089.024.174.045.255.063l30.097 6.62c1.213.267 2.518.086 3.593-.531l.025-.015zm22.906-1.746L38.64 55.062l-.024.015-.025.014c-1.075.618-2.38.798-3.593.532l-30.096-6.62a4.414 4.414 0 01-.535-.153c-.94 1.012-1.441 2.63-1.359 4.44.096 2.103.963 3.994 2.223 4.922a.857.857 0 00.315.118l30.097 6.62c.508.112 1.036.03 1.432-.19l26.178-16.415a11.511 11.511 0 01-1.742-4.709c-.123-.929-.13-1.909.01-2.922zM36.205 6.64a1 1 0 00-.454 1.948l15.25 3.554a1 1 0 10.453-1.948L36.205 6.64zm-5.083 3.046a1 1 0 00-.454 1.948l15.25 3.553a1 1 0 10.453-1.947L31.122 9.685zM26.04 13.24a1 1 0 00-.454 1.948l15.25 3.554a1 1 0 10.453-1.948L26.04 13.24z"/></svg>