<svg width="68" height="68" xmlns="http://www.w3.org/2000/svg"><path fill-rule="evenodd" clip-rule="evenodd" d="M2.778 2.871c-.004 2.183.005 4.08.784 5.81.78 1.73 2.446 3.486 6.387 4.868h55.276A2.77 2.77 0 0168 16.314v48.92A2.77 2.77 0 0165.225 68H8.328v-.017c-1.795-.09-3.272-.537-4.464-1.293-1.346-.852-2.223-2.033-2.788-3.297C0 60.99 0 58.131 0 56.273V3.863a79.399 79.399 0 010-.892v-.388h.002v-.287H.04A2.774 2.774 0 012.777 0h59.62c.795 0 1.44.643 1.44 1.436 0 .793-.645 1.435-1.44 1.435H2.777zM2.777 56.17V12.421c1.265 1.348 3.057 2.52 5.55 3.48v49.312c-1.332-.086-2.283-.42-2.973-.856-.801-.508-1.355-1.221-1.743-2.09-.814-1.818-.834-4.122-.834-6.097zm8.326 9.064v-48.92h54.122v48.92H11.103z"/><path d="M6.705 5.169a1.15 1.15 0 00-1.153 1.148 1.15 1.15 0 001.153 1.149h57.367a1.15 1.15 0 001.153-1.149 1.15 1.15 0 00-1.153-1.148H6.705zm2.317 5.168a1.15 1.15 0 011.152-1.149H65.46a1.15 1.15 0 011.152 1.149 1.15 1.15 0 01-1.152 1.149H10.174a1.15 1.15 0 01-1.152-1.149z"/></svg>