<svg width="68" height="68" xmlns="http://www.w3.org/2000/svg"><path fill-rule="evenodd" clip-rule="evenodd" d="M42.327 34a8.327 8.327 0 11-16.653 0 8.327 8.327 0 0116.653 0zm-2.775 0a5.551 5.551 0 11-11.102 0 5.551 5.551 0 0111.102 0z"/><path fill-rule="evenodd" clip-rule="evenodd" d="M68 34c0 18.778-15.222 34-34 34S0 52.778 0 34 15.222 0 34 0s34 15.222 34 34zm-2.776 0c0 17.245-13.98 31.224-31.224 31.224-17.245 0-31.224-13.98-31.224-31.224C2.776 16.755 16.756 2.776 34 2.776c17.245 0 31.224 13.98 31.224 31.224z"/></svg>