<svg width="36" height="36" xmlns="http://www.w3.org/2000/svg"><g clip-path="url(#clip0)"><path fill-rule="evenodd" clip-rule="evenodd" d="M14.283 22.452l-.001-10.186 9.727 5.11-9.726 5.076zM35.64 10.501s-.352-2.499-1.431-3.599c-1.37-1.444-2.904-1.451-3.607-1.535C25.564 5 18.008 5 18.008 5h-.016s-7.557 0-12.594.367c-.704.084-2.238.09-3.608 1.535C.71 8.002.36 10.501.36 10.501S0 13.435 0 16.368v2.751c0 2.935.36 5.868.36 5.868s.351 2.498 1.43 3.598c1.37 1.445 3.169 1.4 3.97 1.55C8.64 30.414 18 30.5 18 30.5s7.564-.011 12.602-.378c.703-.085 2.238-.092 3.607-1.537 1.079-1.1 1.431-3.598 1.431-3.598s.36-2.933.36-5.868v-2.75c0-2.934-.36-5.868-.36-5.868z"/></g><defs><clipPath id="clip0"><path fill="#fff" transform="translate(0 5)" d="M0 0h36v25.5H0z"/></clipPath></defs></svg>