<svg width="36" height="36" xmlns="http://www.w3.org/2000/svg"><path fill-rule="evenodd" clip-rule="evenodd" d="M36 6.551a14.427 14.427 0 01-4.24 1.192 7.557 7.557 0 003.247-4.188 14.548 14.548 0 01-4.693 1.835A7.284 7.284 0 0024.924 3c-4.077 0-7.384 3.391-7.384 7.573 0 .594.064 1.17.19 1.725-6.138-.316-11.579-3.328-15.224-7.916a7.711 7.711 0 00-1 3.812 7.623 7.623 0 003.286 6.303 7.252 7.252 0 01-3.347-.944v.093c0 3.67 2.547 6.732 5.927 7.425a7.042 7.042 0 01-1.946.267 7.24 7.24 0 01-1.39-.134c.94 3.007 3.666 5.198 6.899 5.256a14.584 14.584 0 01-9.173 3.244A14.64 14.64 0 010 29.6 20.563 20.563 0 0011.322 33c13.587 0 21.014-11.538 21.014-21.547 0-.33-.006-.659-.02-.982A15.158 15.158 0 0036 6.551z"/></svg>