<svg width="314" height="35" fill="none" xmlns="http://www.w3.org/2000/svg">
  <path d="M.564 2.024h1.944l14.292 20.7v-20.7h1.872V26h-1.836L2.4 5.156V26H.564V2.024zm29.18 24.372c-1.32 0-2.46-.24-3.42-.72a7.474 7.474 0 0 1-2.412-1.98c-.624-.84-1.092-1.812-1.404-2.916a13.174 13.174 0 0 1-.468-3.528c0-1.224.168-2.364.504-3.42.336-1.08.816-2.016 1.44-2.808a7.085 7.085 0 0 1 2.34-1.872c.912-.48 1.944-.72 3.096-.72 1.032 0 1.944.192 2.736.576.816.36 1.5.876 2.052 1.548.552.648.972 1.428 1.26 2.34.288.912.432 1.92.432 3.024v.468c0 .144-.012.3-.036.468H24.02v.396c0 .984.108 1.932.324 2.844a8.21 8.21 0 0 0 1.044 2.376 5.77 5.77 0 0 0 1.8 1.692c.72.408 1.596.612 2.628.612 1.104 0 2.088-.18 2.952-.54.864-.36 1.536-.72 2.016-1.08l.792 1.476c-.552.408-1.32.804-2.304 1.188-.96.384-2.136.576-3.528.576zm4.248-11.088c0-.648-.096-1.284-.288-1.908a4.84 4.84 0 0 0-.828-1.692c-.36-.504-.84-.9-1.44-1.188-.576-.312-1.272-.468-2.088-.468-.744 0-1.416.144-2.016.432A4.588 4.588 0 0 0 25.82 11.6a5.815 5.815 0 0 0-1.08 1.656 7.859 7.859 0 0 0-.612 2.052h9.864zm2.59-6.48h2.016l4.176 14.292 4.5-14.292h1.836l4.5 14.328 4.212-14.328h1.872L54.51 26h-1.728l-4.644-14.472L43.494 26h-1.728L36.582 8.828zm37.506 8.136L66.06 2.024h2.232l6.804 12.96h.072l6.804-12.96h2.016l-7.956 14.94V26h-1.944v-9.036zm14.855 9.432c-1.344 0-2.508-.264-3.492-.792s-1.788-1.212-2.412-2.052a9.453 9.453 0 0 1-1.404-2.88 12.528 12.528 0 0 1-.432-3.24c0-1.08.144-2.148.432-3.204a9.384 9.384 0 0 1 1.404-2.916 7.122 7.122 0 0 1 2.376-2.088c.984-.528 2.148-.792 3.492-.792 1.344 0 2.508.264 3.492.792a7.27 7.27 0 0 1 2.484 2.088 8.599 8.599 0 0 1 1.44 2.844c.312 1.056.468 2.124.468 3.204s-.156 2.16-.468 3.24a8.956 8.956 0 0 1-1.44 2.916 7.974 7.974 0 0 1-2.448 2.088c-.984.528-2.148.792-3.492.792zm.036-1.62c.984 0 1.836-.192 2.556-.576a5.433 5.433 0 0 0 1.836-1.62c.48-.696.84-1.476 1.08-2.34.24-.888.36-1.824.36-2.808 0-.96-.132-1.884-.396-2.772a6.821 6.821 0 0 0-1.116-2.34 5.627 5.627 0 0 0-1.872-1.656c-.744-.408-1.608-.612-2.592-.612s-1.836.204-2.556.612a4.961 4.961 0 0 0-1.728 1.584c-.456.672-.804 1.452-1.044 2.34a11.688 11.688 0 0 0-.324 2.772c0 .984.12 1.92.36 2.808.24.888.6 1.68 1.08 2.376a5.546 5.546 0 0 0 1.8 1.62c.72.408 1.572.612 2.556.612zM99.707 8.828h1.872v2.988c.168-.312.384-.66.648-1.044a6.33 6.33 0 0 1 1.008-1.116 6.099 6.099 0 0 1 1.296-.864 3.802 3.802 0 0 1 1.656-.36c.408 0 .744.036 1.008.108.288.072.504.132.648.18l-.468 1.764a5.567 5.567 0 0 0-.54-.144c-.216-.072-.504-.108-.864-.108-.6 0-1.14.156-1.62.468-.48.288-.912.648-1.296 1.08-.36.408-.672.828-.936 1.26-.24.432-.42.768-.54 1.008V26h-1.872V8.828zm12.007 7.524l7.524-7.524h2.34l-7.596 7.524L121.974 26h-2.34l-7.92-9.648zM109.662.08h1.872V26h-1.872V.08zm21.579 1.944h5.22c2.544 0 4.548.588 6.012 1.764 1.464 1.176 2.196 2.844 2.196 5.004 0 2.184-.72 3.9-2.16 5.148-1.44 1.248-3.528 1.872-6.264 1.872h-3.024V26h-1.98V2.024zm4.968 12.096c2.28 0 3.924-.48 4.932-1.44 1.008-.96 1.512-2.232 1.512-3.816a5.67 5.67 0 0 0-.36-2.052 4.136 4.136 0 0 0-1.116-1.656c-.504-.456-1.164-.804-1.98-1.044-.792-.264-1.764-.396-2.916-.396h-3.06V14.12h2.988zm16.447 12.276c-.912 0-1.68-.132-2.304-.396a4.437 4.437 0 0 1-1.548-1.152 4.564 4.564 0 0 1-.9-1.728 8.884 8.884 0 0 1-.252-2.16V8.828h1.872v11.736c0 1.272.252 2.28.756 3.024.528.744 1.452 1.116 2.772 1.116.648 0 1.248-.132 1.8-.396a7.586 7.586 0 0 0 1.548-.936c.48-.36.876-.732 1.188-1.116.336-.384.576-.708.72-.972V8.828h1.872v13.86c0 .696.024 1.344.072 1.944.072.576.156 1.032.252 1.368h-1.908a38.81 38.81 0 0 1-.18-1.26 17.932 17.932 0 0 1-.072-1.548 9.327 9.327 0 0 1-.828 1.08c-.336.36-.744.696-1.224 1.008a7.57 7.57 0 0 1-1.656.792c-.6.216-1.26.324-1.98.324zm17.17 0a11.42 11.42 0 0 1-2.916-.36c-.888-.216-1.632-.528-2.232-.936V.08h1.872v10.332a5.782 5.782 0 0 1 1.98-1.44 6.02 6.02 0 0 1 2.52-.54c1.224 0 2.292.228 3.204.684a6.236 6.236 0 0 1 2.268 1.908c.6.792 1.044 1.74 1.332 2.844.312 1.08.468 2.244.468 3.492a9.89 9.89 0 0 1-.612 3.456 8.69 8.69 0 0 1-1.692 2.88c-.72.816-1.608 1.476-2.664 1.98-1.032.48-2.208.72-3.528.72zm.072-1.62c1.08 0 2.028-.216 2.844-.648a6.032 6.032 0 0 0 2.016-1.692 7.429 7.429 0 0 0 1.188-2.34 9.307 9.307 0 0 0 .396-2.664c0-.936-.096-1.836-.288-2.7-.192-.888-.516-1.668-.972-2.34a4.765 4.765 0 0 0-1.728-1.656c-.72-.408-1.596-.612-2.628-.612-.744 0-1.512.192-2.304.576-.768.36-1.392.816-1.872 1.368v12.024c.408.192.888.36 1.44.504.576.12 1.212.18 1.908.18zM181.317.08h1.872V26h-1.872V.08zm7.555 5.148c-.384 0-.72-.144-1.008-.432a1.49 1.49 0 0 1-.396-1.044c0-.408.132-.744.396-1.008a1.382 1.382 0 0 1 1.008-.432c.408 0 .744.144 1.008.432.288.264.432.6.432 1.008 0 .408-.144.756-.432 1.044-.264.288-.6.432-1.008.432zm-.936 3.6h1.908V26h-1.908V8.828zm12.375 17.568c-1.224 0-2.304-.252-3.24-.756a7.143 7.143 0 0 1-2.304-2.016c-.6-.84-1.056-1.8-1.368-2.88a12.002 12.002 0 0 1-.468-3.348c0-1.368.18-2.604.54-3.708.384-1.104.912-2.04 1.584-2.808a6.65 6.65 0 0 1 2.376-1.8c.936-.432 1.956-.648 3.06-.648 1.296 0 2.352.204 3.168.612.816.384 1.464.78 1.944 1.188l-.972 1.368a7.578 7.578 0 0 0-1.728-1.08c-.672-.312-1.488-.468-2.448-.468s-1.788.192-2.484.576a4.961 4.961 0 0 0-1.728 1.584c-.456.648-.792 1.416-1.008 2.304a11.845 11.845 0 0 0-.324 2.808c0 .96.108 1.884.324 2.772.216.888.54 1.68.972 2.376a5.535 5.535 0 0 0 1.728 1.692c.696.408 1.524.612 2.484.612 1.008 0 1.896-.168 2.664-.504.768-.36 1.344-.708 1.728-1.044l.828 1.404c-.48.408-1.164.804-2.052 1.188-.888.384-1.98.576-3.276.576zm13.874-24.372h4.068v20.664h9.144V26h-13.212V2.024zm18.408 3.852c-.696 0-1.284-.24-1.764-.72a2.357 2.357 0 0 1-.72-1.728c0-.672.24-1.248.72-1.728s1.068-.72 1.764-.72c.72 0 1.32.24 1.8.72s.72 1.056.72 1.728c0 .672-.24 1.248-.72 1.728s-1.08.72-1.8.72zm-1.908 2.7h3.852V26h-3.852V8.576zm14.753 17.856c-1.512 0-2.832-.144-3.96-.432-1.104-.288-1.956-.6-2.556-.936V.08h3.816v9.864c.48-.48 1.092-.9 1.836-1.26a5.78 5.78 0 0 1 2.484-.54c2.28 0 4.092.792 5.436 2.376 1.344 1.56 2.016 3.78 2.016 6.66 0 1.416-.228 2.7-.684 3.852a8.662 8.662 0 0 1-1.908 2.916 8.568 8.568 0 0 1-2.88 1.836c-1.104.432-2.304.648-3.6.648zm.036-3.096c.816 0 1.524-.144 2.124-.432a4.426 4.426 0 0 0 1.548-1.26c.432-.552.756-1.2.972-1.944a9.143 9.143 0 0 0 .324-2.484c0-.864-.084-1.656-.252-2.376-.168-.72-.432-1.332-.792-1.836a3.439 3.439 0 0 0-1.332-1.224c-.552-.312-1.212-.468-1.98-.468-.696 0-1.344.156-1.944.468-.6.312-1.068.648-1.404 1.008v10.116c.288.12.66.228 1.116.324.456.072.996.108 1.62.108zm11.891-14.76h3.852v2.52c.168-.312.384-.636.648-.972.288-.36.624-.684 1.008-.972a5.918 5.918 0 0 1 1.26-.72 4.228 4.228 0 0 1 1.584-.288c.6 0 1.056.048 1.368.144.336.096.588.192.756.288l-.936 3.42c-.12-.072-.312-.144-.576-.216-.264-.096-.636-.144-1.116-.144-.576 0-1.104.132-1.584.396a5.723 5.723 0 0 0-1.188.9 7.262 7.262 0 0 0-.792 1.008 5.86 5.86 0 0 0-.432.756V26h-3.852V8.576zm16.213 17.856c-.72 0-1.392-.108-2.016-.324a4.707 4.707 0 0 1-1.62-.936 4.841 4.841 0 0 1-1.08-1.512c-.264-.6-.396-1.284-.396-2.052 0-1.128.276-2.076.828-2.844a6.153 6.153 0 0 1 2.16-1.908c.888-.48 1.884-.816 2.988-1.008a17.212 17.212 0 0 1 3.312-.324h.684v-1.26c0-1.056-.24-1.812-.72-2.268-.48-.48-1.284-.72-2.412-.72-.888 0-1.704.156-2.448.468a7.59 7.59 0 0 0-2.016 1.296l-1.8-2.448c.768-.696 1.704-1.272 2.808-1.728 1.104-.48 2.388-.72 3.852-.72 2.184 0 3.816.48 4.896 1.44 1.104.96 1.656 2.532 1.656 4.716v7.092c0 1.032.036 1.944.108 2.736.096.768.204 1.392.324 1.872h-3.78c-.048-.24-.108-.564-.18-.972a39.73 39.73 0 0 1-.108-1.008c-.504.648-1.188 1.212-2.052 1.692-.864.48-1.86.72-2.988.72zm1.008-2.952c.84 0 1.572-.18 2.196-.54a6.274 6.274 0 0 0 1.656-1.404v-3.492h-.684c-1.608 0-2.928.252-3.96.756-1.008.504-1.512 1.368-1.512 2.592 0 .384.072.708.216.972.144.264.324.48.54.648.216.168.456.288.72.36.288.072.564.108.828.108zm11.717-14.904h3.852v2.52c.168-.312.384-.636.648-.972.288-.36.624-.684 1.008-.972a5.918 5.918 0 0 1 1.26-.72 4.228 4.228 0 0 1 1.584-.288c.6 0 1.056.048 1.368.144.336.096.588.192.756.288l-.936 3.42c-.12-.072-.312-.144-.576-.216-.264-.096-.636-.144-1.116-.144-.576 0-1.104.132-1.584.396a5.723 5.723 0 0 0-1.188.9 7.262 7.262 0 0 0-.792 1.008 5.86 5.86 0 0 0-.432.756V26h-3.852V8.576zm12.216 25.812c-.624 0-1.116-.036-1.476-.108a8.244 8.244 0 0 1-.792-.144l.54-3.06c.12.024.288.048.504.072.216.048.564.072 1.044.072.6 0 1.116-.084 1.548-.252.456-.144.84-.36 1.152-.648.312-.288.576-.648.792-1.08.24-.432.456-.924.648-1.476l.756-2.016-6.552-17.172h4.14l4.392 12.564h.108l4.104-12.564h3.96l-7.272 19.476c-.36.936-.744 1.788-1.152 2.556a7.55 7.55 0 0 1-1.476 2.016 6.15 6.15 0 0 1-2.088 1.296c-.792.312-1.752.468-2.88.468z" fill="#000"/>
</svg>
