<svg width="190" height="49" fill="none" xmlns="http://www.w3.org/2000/svg" id="nypl-acronym-lockup">
  <title>New York Public Library Logo</title>
  <desc>The New York Public Library has been an essential provider of free books, information, ideas, and education for all New Yorkers for more than 100 years. Founded in 1895, NYPL is the nation’s largest public library system, featuring a unique combination of 88 neighborhood branches and four scholarly research centers, bringing together an extraordinary richness of resources and opportunities available to all.</desc>
  <path d="M61.118 14.083V43h3.645V19.794h.081L79.951 43h4.212V14.083h-3.645v23.45h-.081l-15.228-23.45h-4.09zm40.717 17.091l11.056-17.091h-4.374l-8.464 13.77-8.668-13.77H86.81l11.178 17.091V43h3.848V31.174zm17.661-3.24V17.323h7.533c2.187 0 3.78.459 4.779 1.377 1.026.891 1.539 2.2 1.539 3.928 0 1.729-.513 3.052-1.539 3.97-.999.918-2.592 1.363-4.779 1.336h-7.533zm-3.847-13.851V43h3.847V31.174h8.829c2.916.027 5.117-.715 6.602-2.227 1.512-1.512 2.268-3.619 2.268-6.319 0-2.7-.756-4.792-2.268-6.277-1.485-1.512-3.686-2.268-6.602-2.268h-12.676zm25.761 0V43h19.157v-3.24h-15.309V14.083h-3.848z" fill="#000"/>
  <mask id="a" maskUnits="userSpaceOnUse" x="0" y="0" width="48" height="49">
    <path fill-rule="evenodd" clip-rule="evenodd" d="M0 .271h48v48H0v-48z" fill="#fff"/>
  </mask>
  <g mask="url(#a)">
    <path fill-rule="evenodd" clip-rule="evenodd" d="M39.765 39.49c-.67.669-1.05.145-1.269-.285-.937-1.992-1.853-3.66-3.33-5.276-.256-.259-.06-.623.317-.586.48.039.796.013 1.325-.215.447-.191.96-.818 1.216-1.719.186-.657.195-.85.597-.891.1-.01.284.016.395.048.49.14 1.017.54 1.401.834.987.753 2.459 2.416 2.717 2.954.163.342.007.574-.086.77-.516 1.055-2.144 3.24-3.283 4.366zm-27.24-13.926c-1.408-3.427-.489-6.512.133-7.683.314-.59.62-.976 1.02-.865.436.121.536.566.596 1.392.443 6.85 4.59 9.156 9.798 11.574 4.109 2.1 8.784 4.499 12.702 10.311.593.84.678 1.349.009 1.83-2.389 1.629-4.553 2.765-7.719 3.502-.477.112-.968.028-1.39-1.06-4.399-11.324-11.783-10.813-15.15-19.001zM2.439 19.978c.05-.278.07-.355.238-.574.266-.396 3.485-4.006 8.475-4.88.657-.094 1.13-.049 1.238.214.188.461-.194.727-.654.993C3.733 20.51 4.3 27.615 4.224 30.52c.024 1.19-.835 1.406-1.05.846-.94-2.56-1.729-6.573-.735-11.389zM7.85 9.507c.164-.174.271-.254.514-.322 3.074-.763 6.157-.277 8.378.712.498.22.723.533.395.743-.416.241-1.677 1.061-2.375 1.71-.202.175-.564.184-.777.156-2.603-.343-3.955-.545-7.868.937-.6.252-1.14-.091-.864-.563.521-.932 1.733-2.492 2.597-3.373zm22.898 18.96c.133-.381.287-.606.583-.792.56-.35 1.488-.365 2.384-.427.869-.058 1.797-.109 2.415-.394.373-.172.747-.661 1.325-.412.274.118.423.368.505.617.091.278.158.558.13.93-.084 1.074-.957 1.598-1.114 2.602-.014.155-.04.38-.13.469-.666.678-1.984.535-3.175.415-.427-.042-.849-.054-1.137-.19-.208-.098-.395-.297-.568-.457-.381-.353-.597-.613-.979-1.04-.13-.146-.423-.409-.442-.568-.017-.153.147-.592.203-.753zM12.908 6.44c-.673-.077-.683-.569-.398-.76.73-.512 1.917-1.13 3.11-1.603.358-.142.543-.179.87-.146.88.088 2.336.68 4.007 1.871C22.5 7.23 24.284 9.944 23.09 9.725c-.754-.13-.425-.095-1.31-.192-.902-.08-1.495.013-1.911-.03-.182-.014-.325-.135-.452-.24-1.692-1.515-3.646-2.477-6.51-2.824zm5.314 6.117c.794-.628 3.085-1.5 5.812-.83.772.19 2.79.849 4.13 1.505 1.315.602 2.251 1.72 3.473 2.397 1.542.856 3.662 1.256 5.294 2.054.329.16 1.197.74.954.865-.824.361-2.255.153-3.112-.044-.432-.1-.97-.209-1.184.175-.231.416-.065 1.055.114 1.443.213.465.511.8.898.978.53.244 1.256.257 1.744.538.908.52.943 2.227.348 3.074-.498.709-1.98.838-3.354.772-1.329-.065-2.87-.204-3.85.205-.965.4-1.43 1.078-2.004 1.92-.076.105-.202.126-.322.045-3.41-2.048-7.716-3.103-10.016-6.35-.567-.8-.924-1.774-1.115-2.932-.453-2.74.706-4.643 2.19-5.815zm20.12 10.245a6.718 6.718 0 0 1-.048-.43c.001-.152.312-.358.458-.473.22-.175.475-.368.642-.452.06-.038.1.05.108.067.614.932.384 3.234-.06 4.328-.051.111-.145.155-.183.073-.227-.494-.563-.938-.948-1.182-.072-.055-.077-.17-.072-.192.125-.52.19-1.097.103-1.739zm6.764 7.362c-.18.563-.395 1.269-.854.941-.854-.634-2.75-1.854-4.587-2.53-.099-.023-.088-.16-.053-.237.13-.288.189-.555.245-.896.052-.319.283-.532.441-.788.471-.752.726-2.061.829-2.878a7.213 7.213 0 0 0-.131-2.285c-.07-.298-.285-.682-.28-1.011.006-.322.158-.66.19-1.04.09-1.1-1.3-2.018-2.059-2.372-1.721-.803-3.55-1.521-5.41-2.501-1.049-.554-1.89-1.767-2.733-2.418-.85-.656-3.584-1.74-4.677-2.027-.246-.078-.334-.18-.375-.377-.45-2.147-1.72-4.513-4.089-6.343-.767-.595.094-.934 1.15-.986 16.657-.57 26.242 14.747 22.393 27.748zM9.883 41.123c-.437-.359-.625-.66-.877-1.085-2.04-3.258-3.183-14.797-.554-18.71.836-1.372 1.723-.74 1.428.32-.503 2.38-.195 3.713.963 6.295 1.82 3.837 7.437 9.164 8.924 11.096 2.55 3.314 3.397 5.728 3.386 6.378-.014.5-.11.817-.985.743-4.615-.365-9.077-2.277-12.285-5.038zM23.896.27C10.73.271 0 10.97 0 24.273 0 37.576 10.794 48.28 23.911 48.28 37.225 48.28 48 37.58 48 24.278 48 10.974 37.21.271 23.896.271z" fill="#000"/>
  </g>
  <path fill-rule="evenodd" clip-rule="evenodd" d="M25.05 17.266c.592.197 1.234.362 1.688.615.27.151.54.553.915.505.373-.048.605-.785.679-1.167.106-.55.048-1.254-.142-1.608-.314-.589-1.21-.723-2.146-.678-.637.03-.995.086-1.484.236-.518.16-1.239.503-.93 1.23.205.488.907.698 1.42.867z" fill="#000"/>
</svg>
