<svg width="24" height="21" fill="none" xmlns="http://www.w3.org/2000/svg">
  <path d="M23.648 4.768c-1.44.528-2.544 1.344-3.312 2.448-.72 1.104-1.08 2.424-1.08 3.96h4.392v9.72h-9v-9.72c0-1.344.24-2.592.72-3.744a9.908 9.908 0 0 1 1.944-3.024 11.801 11.801 0 0 1 2.808-2.304A17.76 17.76 0 0 1 23.648.592v4.176zm-14.328 0c-1.44.528-2.544 1.344-3.312 2.448-.72 1.104-1.08 2.424-1.08 3.96H9.32v9.72h-9v-9.72c0-1.344.24-2.592.72-3.744a9.908 9.908 0 0 1 1.944-3.024 11.801 11.801 0 0 1 2.808-2.304A17.76 17.76 0 0 1 9.32.592v4.176z" fill="#C7C7C7"/>
</svg>
