<svg viewBox="0 0 18 18" fill="none" xmlns="http://www.w3.org/2000/svg">
    <path fill-rule="evenodd" clip-rule="evenodd" d="M1.257 0h15.485C17.434 0 18 .566 18 1.257v15.485c0 .692-.566 1.258-1.258 1.258H1.257A1.26 1.26 0 010 16.742V1.257C0 .566.566 0 1.257 0z" fill="#EFEDEB"/>
    <path fill-rule="evenodd" clip-rule="evenodd" d="M7.055 4.194A1.336 1.336 0 008.256 2.87c0-.733-.597-1.33-1.33-1.33a1.333 1.333 0 00-1.165 1.975l.475 6.67 4.883.003 2.003 4.692 2.629-1.031-.407-.97-1.472.531-1.938-4.473-4.54.03-.062-.845 3.287.001v-1.25l-3.412-.001-.152-2.677z" fill="#000"/>
    <path fill-rule="evenodd" clip-rule="evenodd" d="M11.967 13.762a4.973 4.973 0 01-4.39 2.703 4.917 4.917 0 01-4.907-4.907c0-1.897 1.15-3.66 2.867-4.443l.111 1.45a3.571 3.571 0 00-1.641 3.003c0 1.96 1.6 3.56 3.56 3.56 1.794 0 3.323-1.377 3.532-3.143l.868 1.777z" fill="#000"/>
</svg>
