<svg viewBox="0 0 26 26" fill="none" xmlns="http://www.w3.org/2000/svg">
  <path d="M7.32625 7.08462C7.47508 7.08446 7.62096 7.04315 7.74776 6.96527L12.9951 3.75656L18.2424 6.96527C18.3331 7.0207 18.4337 7.05774 18.5387 7.07428C18.6437 7.09082 18.7509 7.08654 18.8542 7.06166C18.9575 7.03679 19.0549 6.99182 19.1409 6.92933C19.2268 6.86683 19.2996 6.78802 19.355 6.69742C19.4105 6.60681 19.4476 6.50617 19.4641 6.40124C19.4807 6.29632 19.4764 6.18916 19.4515 6.08589C19.4266 5.98262 19.3816 5.88527 19.3191 5.79938C19.2566 5.71349 19.1777 5.64075 19.0871 5.58531L13.4171 2.11866C13.2899 2.04106 13.1438 2 12.9948 2C12.8458 2 12.6997 2.04106 12.5725 2.11866L6.9031 5.58531C6.75209 5.6771 6.63532 5.81579 6.57062 5.98018C6.50593 6.14457 6.49689 6.32561 6.54487 6.49563C6.59285 6.66564 6.69523 6.81527 6.83633 6.92164C6.97744 7.028 7.14952 7.08524 7.32625 7.08462V7.08462ZM25.2 22.34H24.3393V13.0439H25.1224C25.3374 13.036 25.5409 12.9452 25.6903 12.7904C25.8396 12.6356 25.923 12.4289 25.923 12.2139C25.923 11.9989 25.8396 11.7922 25.6903 11.6374C25.5409 11.4827 25.3374 11.3918 25.1224 11.384H21.9215C21.7065 11.3918 21.5029 11.4827 21.3536 11.6374C21.2043 11.7922 21.1208 11.9989 21.1208 12.2139C21.1208 12.4289 21.2043 12.6356 21.3536 12.7904C21.5029 12.9452 21.7065 13.036 21.9215 13.0439H22.6786V22.34H3.41332V13.0439H4.4038C4.61879 13.036 4.82236 12.9452 4.97169 12.7904C5.12102 12.6356 5.20446 12.4289 5.20446 12.2139C5.20446 11.9989 5.12102 11.7922 4.97169 11.6374C4.82236 11.4827 4.61879 11.3918 4.4038 11.384H1.20346C0.988468 11.3918 0.784894 11.4827 0.635565 11.6374C0.486236 11.7922 0.402794 11.9989 0.402794 12.2139C0.402794 12.4289 0.486236 12.6356 0.635565 12.7904C0.784894 12.9452 0.988468 13.036 1.20346 13.0439H1.75207V22.34H0.800665C0.585674 22.3478 0.3821 22.4387 0.232771 22.5935C0.0834419 22.7482 0 22.9549 0 23.1699C0 23.385 0.0834419 23.5916 0.232771 23.7464C0.3821 23.9012 0.585674 23.992 0.800665 23.9999H25.2C25.4149 23.992 25.6185 23.9012 25.7678 23.7464C25.9172 23.5916 26.0006 23.385 26.0006 23.1699C26.0006 22.9549 25.9172 22.7482 25.7678 22.5935C25.6185 22.4387 25.4149 22.3478 25.2 22.34V22.34Z"/>
  <path d="M11.5593 21.3202C11.7761 21.321 11.9845 21.2367 12.1397 21.0855C12.295 20.9344 12.3847 20.7283 12.3896 20.5117V14.3814C12.4005 13.9822 12.3312 13.5848 12.1858 13.2128C12.0404 12.8408 11.822 12.5017 11.5433 12.2155C11.2646 11.9293 10.9314 11.7018 10.5633 11.5464C10.1951 11.3911 9.79963 11.3111 9.40005 11.3111C9.00048 11.3111 8.60496 11.3911 8.23685 11.5464C7.86874 11.7018 7.53551 11.9293 7.25683 12.2155C6.97815 12.5017 6.75967 12.8408 6.61431 13.2128C6.46894 13.5848 6.39963 13.9822 6.41047 14.3814V20.5117C6.41604 20.7282 6.506 20.9339 6.66117 21.0851C6.81633 21.2362 7.02443 21.3208 7.24109 21.3208C7.45776 21.3208 7.66585 21.2362 7.82102 21.0851C7.97618 20.9339 8.06614 20.7282 8.07172 20.5117V14.3814C8.05534 14.1971 8.07753 14.0114 8.13686 13.8362C8.19619 13.6609 8.29137 13.4999 8.41633 13.3634C8.5413 13.2269 8.69333 13.1179 8.86273 13.0434C9.03214 12.9688 9.21522 12.9303 9.40033 12.9303C9.58544 12.9303 9.76852 12.9688 9.93792 13.0434C10.1073 13.1179 10.2594 13.2269 10.3843 13.3634C10.5093 13.4999 10.6045 13.6609 10.6638 13.8362C10.7231 14.0114 10.7453 14.1971 10.7289 14.3814V20.5117C10.7338 20.7283 10.8236 20.9344 10.9788 21.0855C11.1341 21.2367 11.3425 21.321 11.5593 21.3202ZM18.8668 21.3202C19.0836 21.321 19.292 21.2367 19.4473 21.0855C19.6025 20.9344 19.6923 20.7283 19.6972 20.5117V14.3814C19.708 13.9822 19.6387 13.5848 19.4933 13.2128C19.348 12.8408 19.1295 12.5017 18.8508 12.2155C18.5721 11.9293 18.2389 11.7018 17.8708 11.5464C17.5027 11.3911 17.1071 11.3111 16.7076 11.3111C16.308 11.3111 15.9125 11.3911 15.5444 11.5464C15.1763 11.7018 14.843 11.9293 14.5643 12.2155C14.2857 12.5017 14.0672 12.8408 13.9218 13.2128C13.7765 13.5848 13.7071 13.9822 13.718 14.3814V20.5117C13.7236 20.7282 13.8135 20.9339 13.9687 21.0851C14.1238 21.2362 14.3319 21.3208 14.5486 21.3208C14.7653 21.3208 14.9734 21.2362 15.1285 21.0851C15.2837 20.9339 15.3737 20.7282 15.3792 20.5117V14.3814C15.3629 14.1971 15.385 14.0114 15.4444 13.8362C15.5037 13.6609 15.5989 13.4999 15.7238 13.3634C15.8488 13.2269 16.0008 13.1179 16.1702 13.0434C16.3397 12.9688 16.5227 12.9303 16.7078 12.9303C16.893 12.9303 17.076 12.9688 17.2454 13.0434C17.4148 13.1179 17.5669 13.2269 17.6918 13.3634C17.8168 13.4999 17.912 13.6609 17.9713 13.8362C18.0306 14.0114 18.0528 14.1971 18.0365 14.3814V20.5117C18.0414 20.7283 18.1311 20.9344 18.2864 21.0855C18.4416 21.2367 18.65 21.321 18.8668 21.3202ZM1.13343 10.0557H25.1321C25.3471 10.0478 25.5507 9.95696 25.7 9.80217C25.8493 9.64738 25.9328 9.44073 25.9328 9.2257C25.9328 9.01067 25.8493 8.80402 25.7 8.64923C25.5507 8.49444 25.3471 8.40358 25.1321 8.39575H1.13343C0.918438 8.40358 0.714863 8.49444 0.565535 8.64923C0.416206 8.80402 0.332764 9.01067 0.332764 9.2257C0.332764 9.44073 0.416206 9.64738 0.565535 9.80217C0.714863 9.95696 0.918438 10.0478 1.13343 10.0557V10.0557Z"/>
</svg>
