<svg viewBox="0 0 96 96" fill="none" xmlns="http://www.w3.org/2000/svg">
<path d="M95.6982 80.0063L51.964 78.1783C51.964 78.1783 51.2175 79.4215 48.8017 79.4396C46.1446 79.4599 45.288 78.1783 45.288 78.1783L0.306641 80.0255V23.1799L48.667 22.1494L95.6993 23.1799V80.0063H95.6982Z"/>
<path d="M0.303094 80.3302C0.224514 80.3302 0.149301 80.2997 0.0931727 80.2454C0.0336765 80.1877 0 80.1085 0 80.0248V23.1792C0 23.0129 0.132463 22.8772 0.297481 22.8738L48.6578 21.8433L95.7036 22.8738C95.8687 22.8772 96 23.0129 96 23.1792V80.0056C96 80.0893 95.9663 80.1685 95.9068 80.2261C95.8473 80.2838 95.7665 80.3144 95.6846 80.311L52.1097 78.4898C51.8089 78.8529 50.8715 79.7295 48.8026 79.7443C46.5193 79.7635 45.4697 78.8484 45.1475 78.4886L0.316565 80.3302C0.316565 80.3302 0.308707 80.3302 0.304217 80.3302H0.303094ZM0.60731 23.4778V79.7058L45.2733 77.871C45.3799 77.8676 45.4787 77.9174 45.5371 78.0056C45.5674 78.0497 46.3487 79.1323 48.7364 79.1323C48.7566 79.1323 48.7768 79.1323 48.797 79.1323C50.9894 79.1153 51.6753 78.0611 51.7034 78.0158C51.7617 77.923 51.8673 77.8676 51.9739 77.871L95.3927 79.6854V23.4778L48.6578 22.4541L0.60731 23.4778Z" fill="#2E2E2E"/>
<path d="M3.86602 22.0068H2.04297V77.383C16.3108 77.383 34.7513 74.1467 48.6667 77.383" fill="white"/>
<path d="M48.667 77.6898C48.6446 77.6898 48.621 77.6876 48.5986 77.6819C39.2341 75.5044 27.904 76.2645 16.9477 76.9998C11.6649 77.355 6.67505 77.6898 2.04333 77.6898C1.87607 77.6898 1.74023 77.5529 1.74023 77.3844V22.0071C1.74023 21.8385 1.87607 21.7017 2.04333 21.7017H3.86638C4.03365 21.7017 4.16948 21.8385 4.16948 22.0071C4.16948 22.1756 4.03365 22.3125 3.86638 22.3125H2.34755V77.0767C6.87375 77.062 11.7513 76.7351 16.9084 76.389C27.9096 75.6503 39.2846 74.8867 48.7366 77.0846C48.8994 77.1231 49.0016 77.2871 48.9645 77.4511C48.932 77.5925 48.8074 77.6876 48.6693 77.6876L48.667 77.6898Z" fill="#2E2E2E"/>
<path d="M48.6631 77.3826C48.6631 77.3826 42.6461 74.2707 33.6678 74.282C27.0974 74.2899 17.9204 75.2933 3.86133 75.9041V20.0698H5.60917" fill="white"/>
<path d="M48.6596 77.6899C48.6135 77.6899 48.5653 77.6786 48.5215 77.656C48.462 77.6254 42.4787 74.5893 33.7114 74.5893H33.6654C30.1809 74.5938 25.9735 74.8778 20.6481 75.2375C15.8715 75.5599 10.4574 75.9252 3.87125 76.2114C3.78818 76.2148 3.70848 76.1843 3.64786 76.1266C3.58724 76.0689 3.55469 75.9886 3.55469 75.906V20.0706C3.55469 19.902 3.69052 19.7651 3.85778 19.7651H5.60562C5.77289 19.7651 5.90872 19.902 5.90872 20.0706C5.90872 20.2391 5.77289 20.376 5.60562 20.376H4.162V75.5859C10.5977 75.302 15.9108 74.9434 20.6077 74.6255C25.9444 74.2658 30.1596 73.9807 33.6643 73.9762H33.7114C42.6347 73.9762 48.7382 77.0791 48.7988 77.1107C48.9481 77.1876 49.0064 77.372 48.9301 77.5225C48.8762 77.6277 48.7696 77.6888 48.6596 77.6888V77.6899Z" fill="#2E2E2E"/>
<path d="M48.6614 77.3833V22.1497C48.6614 22.1497 47.3468 15.9824 37.9723 15.9824C24.5014 15.9824 24.2713 18.7968 5.60742 18.7968V74.1142C5.60742 74.1142 26.174 72.6357 33.4595 72.6357C43.154 72.6357 48.6614 77.3844 48.6614 77.3844V77.3833Z" fill="white"/>
<path d="M48.6598 77.6895C48.5891 77.6895 48.5183 77.6646 48.4622 77.6159C48.4083 77.5696 42.9167 72.9407 33.4579 72.9407C26.2656 72.9407 5.83259 74.4034 5.62716 74.4181C5.54296 74.4237 5.45989 74.3943 5.39928 74.3366C5.33753 74.2789 5.30273 74.1975 5.30273 74.1126V18.7964C5.30273 18.6279 5.43857 18.491 5.60583 18.491C15.6708 18.491 20.4496 17.6551 24.6671 16.9175C28.3132 16.2795 31.7572 15.6777 37.9707 15.6777C40.7019 15.6777 44.4928 16.2286 47.0466 18.853C48.5913 20.44 48.9415 22.0203 48.9561 22.0859C48.9606 22.1074 48.9629 22.1289 48.9629 22.1504V77.3852C48.9629 77.5039 48.8944 77.6125 48.7866 77.6623C48.7462 77.6815 48.7024 77.6906 48.6598 77.6906V77.6895ZM33.4579 72.3288C41.5124 72.3288 46.775 75.6239 48.3556 76.7664V22.1855C48.3017 21.9739 47.9144 20.6041 46.5864 19.2534C44.6803 17.3134 41.701 16.2886 37.9695 16.2886C31.8078 16.2886 28.3895 16.887 24.7692 17.5193C20.5708 18.2535 15.8179 19.0849 5.9078 19.1018V73.7846C8.56829 73.5968 26.745 72.3288 33.4568 72.3288H33.4579Z" fill="#2E2E2E"/>
<path d="M48.6625 77.6894C48.4952 77.6894 48.3594 77.5525 48.3594 77.384V22.1492C48.3594 21.9806 48.4952 21.8438 48.6625 21.8438C48.8297 21.8438 48.9656 21.9806 48.9656 22.1492V77.384C48.9656 77.5525 48.8297 77.6894 48.6625 77.6894Z" fill="#2E2E2E"/>
<path d="M48.668 22.1495L53.7802 18.6519L51.4475 24.7863L54.6771 27.0464L51.6271 32.0644L55.4618 35.1966L51.8056 39.9306L55.2159 43.7733L52.3624 48.0175L55.6189 51.7753L52.7036 55.4833L55.4404 59.0092L52.6587 64.1177L54.6771 68.0961L52.405 71.1254L55.8883 75.0133L48.668 77.3831V22.1495Z" fill="white"/>
<path d="M48.6655 77.6892C48.6027 77.6892 48.5398 77.6689 48.4871 77.6304C48.4085 77.5727 48.3613 77.4811 48.3613 77.3827V22.149C48.3613 22.0472 48.4107 21.9533 48.4949 21.8956L53.6071 18.398C53.7171 18.3234 53.8619 18.3279 53.9663 18.4116C54.0707 18.4942 54.1089 18.6356 54.0606 18.7611L51.8132 24.6716L54.8475 26.7948C54.98 26.8876 55.017 27.0674 54.9329 27.2054L52.0209 31.9949L55.6502 34.9586C55.7782 35.0638 55.8006 35.2527 55.6984 35.3839L52.1983 39.9166L55.4391 43.5692C55.5323 43.6733 55.5424 43.8282 55.4638 43.9448L52.7416 47.9933L55.8455 51.5735C55.942 51.6843 55.9454 51.8495 55.8545 51.9649L53.0862 55.4829L55.676 58.8199C55.7512 58.916 55.7613 59.0484 55.7029 59.1558L52.9987 64.1229L54.9441 67.9576C54.9968 68.0617 54.9856 68.1873 54.916 68.2811L52.7955 71.108L56.1104 74.8081C56.1789 74.885 56.2047 74.9914 56.1789 75.092C56.1531 75.1927 56.0779 75.2719 55.9791 75.3036L48.7576 77.6745C48.7273 77.6847 48.6947 77.6892 48.6633 77.6892H48.6655ZM48.9686 22.3108V76.9619L55.3471 74.868L52.1769 71.3297C52.0793 71.2211 52.0725 71.0571 52.1601 70.9406L54.3177 68.064L52.3857 64.2564C52.3397 64.1659 52.342 64.0584 52.3902 63.9702L55.0754 59.0382L52.4621 55.6707C52.3756 55.5598 52.3756 55.4026 52.4632 55.2928L55.2225 51.785L52.1309 48.2184C52.04 48.1143 52.031 47.9605 52.1085 47.8462L54.8285 43.8L51.5764 40.1349C51.4787 40.0252 51.4731 39.86 51.5629 39.7435L55.0361 35.2459L51.4316 32.3026C51.3137 32.2064 51.2845 32.0356 51.3642 31.9055L54.2649 27.133L51.2699 25.037C51.1554 24.9566 51.1094 24.8073 51.1599 24.6761L53.1468 19.4511L48.9675 22.3108H48.9686Z" fill="#2E2E2E"/>
</svg>
