<svg viewBox="0 0 68 68" xmlns="http://www.w3.org/2000/svg">
  <path d="M65.2403 60.1447H2.75967C2.399 60.1465 2.0415 60.0773 1.7076 59.941C1.37369 59.8046 1.06992 59.6038 0.813646 59.3501C0.557368 59.0963 0.353604 58.7945 0.213995 58.462C0.0743867 58.1294 0.00167011 57.7726 0 57.4119L0 10.5854C0.0018552 10.225 0.0747187 9.86837 0.214428 9.53606C0.354136 9.20375 0.557952 8.90222 0.814231 8.64871C1.07051 8.39519 1.37423 8.19465 1.70803 8.05855C2.04184 7.92246 2.39919 7.85346 2.75967 7.85551H65.2403C65.9682 7.85175 66.6679 8.1372 67.1854 8.64912C67.7029 9.16104 67.9959 9.85752 68 10.5854V57.4133C67.9959 58.1413 67.7029 58.8377 67.1854 59.3497C66.6679 59.8616 65.9682 60.147 65.2403 60.1433V60.1447ZM5.51933 54.682H62.4807V13.3153H5.51933V54.682Z" />
  <path d="M33.9996 43.2812C33.3964 43.2818 32.8101 43.0814 32.3336 42.7117L15.4327 29.6061C14.8599 29.1642 14.4861 28.5129 14.3935 27.7955C14.3009 27.078 14.4972 26.3532 14.939 25.7804C15.3809 25.2076 16.0322 24.8338 16.7496 24.7412C17.4671 24.6486 18.1919 24.8448 18.7647 25.2867L33.9996 37.1003L49.2344 25.2867C49.8072 24.8448 50.532 24.6486 51.2495 24.7412C51.967 24.8338 52.6182 25.2076 53.0601 25.7804C53.5019 26.3532 53.6982 27.078 53.6056 27.7955C53.513 28.5129 53.1392 29.1642 52.5664 29.6061L35.6656 42.7103C35.1891 43.0803 34.6029 43.2812 33.9996 43.2812V43.2812Z" />
</svg>
