<svg viewBox="0 0 68 68" xmlns="http://www.w3.org/2000/svg">
  <path d="M61.2146 57.0131H6.78638C4.98665 57.011 3.26128 56.2949 1.98896 55.0221C0.716635 53.7492 0.0013159 52.0235 0 50.2238L0 17.7747C0.0023687 15.9754 0.718257 14.2504 1.99065 12.9782C3.26305 11.706 4.98807 10.9904 6.78737 10.9883H61.2146C63.0138 10.9907 64.7386 11.7066 66.0107 12.979C67.2827 14.2514 67.9982 15.9764 68 17.7757V50.2257C67.9979 52.0248 67.2824 53.7496 66.0103 55.0218C64.7383 56.294 63.0137 57.0098 61.2146 57.0121V57.0131ZM6.78638 14.28C5.86003 14.2816 4.97207 14.6503 4.31704 15.3053C3.66202 15.9604 3.29333 16.8483 3.29175 17.7747V50.2248C3.29307 51.1516 3.66191 52.0401 4.3174 52.6954C4.97288 53.3507 5.8615 53.7193 6.78836 53.7204H61.2156C62.1424 53.7191 63.0308 53.3502 63.6859 52.6947C64.3411 52.0391 64.7094 51.1505 64.7102 50.2238V17.7747C64.7092 16.8481 64.3407 15.9597 63.6856 15.3044C63.0305 14.6491 62.1422 14.2804 61.2156 14.279L6.78638 14.28Z" />
  <path d="M52.3261 24.3672H39.1369C38.9277 24.3723 38.7197 24.3354 38.525 24.2589C38.3303 24.1824 38.1529 24.0677 38.0032 23.9216C37.8535 23.7755 37.7346 23.6009 37.6534 23.4081C37.5721 23.2153 37.5303 23.0082 37.5303 22.7991C37.5303 22.5899 37.5721 22.3828 37.6534 22.19C37.7346 21.9973 37.8535 21.8227 38.0032 21.6766C38.1529 21.5304 38.3303 21.4157 38.525 21.3392C38.7197 21.2627 38.9277 21.2259 39.1369 21.2309H52.3261C52.7354 21.2408 53.1247 21.4104 53.4106 21.7034C53.6966 21.9964 53.8567 22.3896 53.8567 22.7991C53.8567 23.2085 53.6966 23.6017 53.4106 23.8947C53.1247 24.1877 52.7354 24.3573 52.3261 24.3672V24.3672ZM52.3261 30.2584H39.1369C38.9277 30.2635 38.7197 30.2266 38.525 30.1501C38.3303 30.0736 38.1529 29.9589 38.0032 29.8128C37.8535 29.6666 37.7346 29.4921 37.6534 29.2993C37.5721 29.1065 37.5303 28.8994 37.5303 28.6903C37.5303 28.4811 37.5721 28.274 37.6534 28.0812C37.7346 27.8884 37.8535 27.7139 38.0032 27.5677C38.1529 27.4216 38.3303 27.3069 38.525 27.2304C38.7197 27.1539 38.9277 27.1171 39.1369 27.1221H52.3261C52.5352 27.1171 52.7433 27.1539 52.9379 27.2304C53.1326 27.3069 53.31 27.4216 53.4597 27.5677C53.6094 27.7139 53.7284 27.8884 53.8096 28.0812C53.8908 28.274 53.9327 28.4811 53.9327 28.6903C53.9327 28.8994 53.8908 29.1065 53.8096 29.2993C53.7284 29.4921 53.6094 29.6666 53.4597 29.8128C53.31 29.9589 53.1326 30.0736 52.9379 30.1501C52.7433 30.2266 52.5352 30.2635 52.3261 30.2584ZM52.3261 36.1496H39.1369C38.7208 36.1496 38.3219 35.9843 38.0277 35.6901C37.7335 35.396 37.5683 34.997 37.5683 34.581C37.5683 34.165 37.7335 33.766 38.0277 33.4718C38.3219 33.1776 38.7208 33.0124 39.1369 33.0124H52.3261C52.7421 33.0124 53.1411 33.1776 53.4353 33.4718C53.7294 33.766 53.8947 34.165 53.8947 34.581C53.8947 34.997 53.7294 35.396 53.4353 35.6901C53.1411 35.9843 52.7421 36.1496 52.3261 36.1496V36.1496ZM20.6491 24.1604C21.5708 24.1604 22.3501 25.1979 22.3501 26.4256C22.3501 27.6533 21.5708 28.6898 20.6501 28.6898C19.7293 28.6898 18.9482 27.6533 18.9482 26.4256C18.9482 25.1979 19.7275 24.1604 20.6491 24.1604V24.1604ZM20.6491 21.3017C18.2627 21.3017 16.3275 23.5953 16.3275 26.4256C16.3275 29.2558 18.2627 31.5495 20.6491 31.5495C23.0356 31.5495 24.9708 29.2549 24.9708 26.4256C24.9708 23.5962 23.0356 21.3017 20.6491 21.3017ZM20.5866 33.6244C18.4072 33.655 16.2329 33.8432 14.0807 34.1877C13.6315 34.2651 13.2106 34.459 12.8598 34.7501C12.5091 35.0411 12.2409 35.4191 12.0821 35.8463L10.0053 41.2661C9.8532 41.6551 9.79835 42.0754 9.84552 42.4905C9.89268 42.9055 10.0404 43.3027 10.2759 43.6477C10.5115 43.9927 10.8276 44.275 11.197 44.4701C11.5663 44.6652 11.9777 44.7672 12.3954 44.7672H16.1685C16.6056 44.7672 17.0248 44.5936 17.3339 44.2845C17.6429 43.9754 17.8166 43.5562 17.8166 43.1191C17.8166 42.682 17.6429 42.2628 17.3339 41.9537C17.0248 41.6447 16.6056 41.471 16.1685 41.471L13.4724 41.4288L15.0033 37.4315C16.8507 37.1346 18.7161 36.9635 20.5866 36.9196C22.4208 36.9416 24.2512 37.0921 26.0643 37.3699L27.6357 41.471H24.9782C24.5412 41.471 24.1221 41.6446 23.8131 41.9536C23.5041 42.2626 23.3305 42.6817 23.3305 43.1187C23.3305 43.5556 23.5041 43.9747 23.8131 44.2837C24.1221 44.5927 24.5412 44.7663 24.9782 44.7663H28.7503C29.1686 44.7662 29.5804 44.664 29.9502 44.4685C30.3199 44.273 30.6363 43.9901 30.8718 43.6445C31.1072 43.2988 31.2547 42.9009 31.3014 42.4853C31.3481 42.0697 31.2925 41.6489 31.1395 41.2597L29.0095 35.8454C28.8423 35.4157 28.5671 35.0363 28.2106 34.7438C27.8541 34.4513 27.4282 34.2557 26.9741 34.1757C24.8617 33.8352 22.7271 33.651 20.5876 33.6244H20.5866Z" />
</svg>
