<svg viewBox="0 0 24 25" xmlns="http://www.w3.org/2000/svg">
    <path fill-rule="evenodd" clip-rule="evenodd" d="M11.988 0.912109C5.364 0.912109 0 6.28811 0 12.9121C0 19.5361 5.364 24.9121 11.988 24.9121C18.624 24.9121 24 19.5361 24 12.9121C24 6.28811 18.624 0.912109 11.988 0.912109ZM13.2 14.1121V6.91211H10.8V14.1121H13.2ZM13.2 18.9121V16.5121H10.8V18.9121H13.2ZM2.4 12.9121C2.4 18.2161 6.696 22.5121 12 22.5121C17.304 22.5121 21.6 18.2161 21.6 12.9121C21.6 7.60811 17.304 3.31211 12 3.31211C6.696 3.31211 2.4 7.60811 2.4 12.9121Z"/>
</svg>
