<svg viewBox="0 0 24 24" xmlns="http://www.w3.org/2000/svg">
    <path fill-rule="evenodd" clip-rule="evenodd" d="M3 2C3 1.44772 3.44772 1 4 1H16C16.2664 1 16.5218 1.10632 16.7096 1.29537L20.7096 5.3234C20.8956 5.51073 21 5.76402 21 6.02803V22C21 22.5523 20.5523 23 20 23H4C3.44772 23 3 22.5523 3 22V2ZM5 3V21H19V6.4402L15.5837 3H5Z"/>
    <path fill-rule="evenodd" clip-rule="evenodd" d="M14 6V2H16V6H20V8H16C14.8954 8 14 7.10457 14 6Z"/>
    <path d="M13.6828 13.8743C13.2704 13.4142 12.863 12.9001 12.4962 12.4376C12.3232 12.219 12.1577 12.0106 12.0029 11.8212L11.9915 11.8074C12.2182 11.1612 12.3478 10.6324 12.3767 10.2353C12.4502 9.22357 12.3372 8.57191 12.0318 8.24344C11.8255 8.02117 11.5157 7.94372 11.2243 8.0418C11.0156 8.11179 10.733 8.29939 10.5714 8.79483C10.3306 9.53339 10.4473 10.8413 11.1318 11.9231C10.8264 12.7235 10.4006 13.6433 9.93027 14.519C9.03462 14.8332 8.32073 15.2463 7.80833 15.7475C7.13895 16.4013 6.86685 17.0504 7.06155 17.5278C7.18148 17.8236 7.45884 18 7.80329 18C8.04315 18 8.30253 17.9133 8.55358 17.7496C9.18744 17.3349 10.0151 15.9533 10.4591 15.1526C11.3776 14.8656 12.2844 14.7483 12.7453 14.7037C12.9538 14.6835 13.1608 14.6675 13.3601 14.6563C14.1667 15.5087 14.8264 15.9583 15.4342 16.0705C15.5566 16.0933 15.6789 16.1047 15.7984 16.1047C16.2937 16.1047 16.703 15.907 16.894 15.5759C17.0381 15.3258 17.0352 15.0339 16.8859 14.775C16.5487 14.1907 15.5309 13.8691 14.02 13.8691C13.9113 13.8693 13.799 13.8708 13.6828 13.8743ZM8.13305 17.1068C8.01311 17.1851 7.88989 17.2318 7.80307 17.2318C7.78663 17.2318 7.77544 17.2301 7.76909 17.2285C7.75396 17.152 7.80833 16.8209 8.34441 16.2967C8.59611 16.0505 8.91447 15.8258 9.29137 15.627C8.8158 16.3928 8.38782 16.9402 8.13305 17.1068ZM11.3006 9.03334C11.3565 8.86197 11.4258 8.78452 11.469 8.77004C11.4701 8.76982 11.471 8.76938 11.4718 8.76916C11.5135 8.81612 11.6907 9.08446 11.6113 10.1802C11.5975 10.3713 11.551 10.6129 11.4727 10.8999C11.2166 10.2399 11.1463 9.50662 11.3006 9.03334ZM12.6712 13.9397C12.2629 13.979 11.6411 14.0599 10.9474 14.2243C11.2164 13.6867 11.4655 13.1419 11.6736 12.637C11.7457 12.7274 11.8196 12.8202 11.8946 12.9153C12.1456 13.2319 12.4276 13.5878 12.7198 13.9353L12.6712 13.9397ZM16.2207 15.1592C16.2321 15.179 16.2319 15.1869 16.229 15.1921C16.1968 15.2481 16.051 15.3369 15.7973 15.3369C15.7265 15.3369 15.6511 15.3297 15.5732 15.3152C15.2566 15.2566 14.8874 15.0377 14.4473 14.6471C15.6414 14.7041 16.124 14.9922 16.2207 15.1592Z"/>
</svg>
