<svg viewBox="0 0 24 24" xmlns="http://www.w3.org/2000/svg">
    <path fill-rule="evenodd" clip-rule="evenodd" d="M3 2C3 1.44772 3.44772 1 4 1H16C16.2664 1 16.5218 1.10632 16.7096 1.29537L20.7096 5.3234C20.8956 5.51073 21 5.76402 21 6.02803V22C21 22.5523 20.5523 23 20 23H4C3.44772 23 3 22.5523 3 22V2ZM5 3V21H19V6.4402L15.5837 3H5Z"/>
    <path fill-rule="evenodd" clip-rule="evenodd" d="M14 6V2H16V6H20V8H16C14.8954 8 14 7.10457 14 6Z"/>
    <path fill-rule="evenodd" clip-rule="evenodd" d="M7.33333 10.5H14.3333C14.6542 10.5 14.9167 10.7625 14.9167 11.0833V13.125L17.25 10.7917V17.2083L14.9167 14.875V16.9167C14.9167 17.2375 14.6542 17.5 14.3333 17.5H7.33333C7.0125 17.5 6.75 17.2375 6.75 16.9167V11.0833C6.75 10.7625 7.0125 10.5 7.33333 10.5ZM13.75 16.3333V11.6667H7.91667V16.3333H13.75Z"/>
</svg>
