<svg viewBox="0 0 32 32" xmlns="http://www.w3.org/2000/svg">
  <path d="M31.3319 8.27117C31.1465 7.60661 30.7927 7.00113 30.3048 6.51325C29.8169 6.02538 29.2115 5.67161 28.5469 5.48614C26.0526 4.81789 16.0142 4.81789 16.0142 4.81789C16.0142 4.81789 6.00118 4.80455 3.48158 5.48614C2.81702 5.67161 2.21154 6.02538 1.72366 6.51325C1.23579 7.00113 0.882017 7.60661 0.696547 8.27117C0.223732 10.8248 -0.00936809 13.417 0.000288097 16.014C-0.00754264 18.6013 0.22555 21.1836 0.696547 23.7276C0.882017 24.3921 1.23579 24.9976 1.72366 25.4855C2.21154 25.9734 2.81702 26.3271 3.48158 26.5126C5.97317 27.1822 16.0142 27.1822 16.0142 27.1822C16.0142 27.1822 26.026 27.1822 28.5469 26.5126C29.2115 26.3271 29.8169 25.9734 30.3048 25.4855C30.7927 24.9976 31.1465 24.3921 31.3319 23.7276C31.7931 21.1827 32.0164 18.6003 31.9988 16.014C32.0182 13.418 31.7949 10.8257 31.3319 8.27117V8.27117ZM12.8104 20.8038V11.2096L21.1655 16.014L12.8104 20.8038Z"/>
</svg>
