<svg viewBox="0 0 33 33" xmlns="http://www.w3.org/2000/svg">
  <path d="M16.7773 3.27073C18.5337 3.27073 20.0175 5.24892 20.0175 7.59046C20.0175 9.932 18.5337 11.9102 16.7773 11.9102C15.0209 11.9102 13.5371 9.93198 13.5371 7.59044C13.5371 5.2489 15.0209 3.27072 16.7773 3.27072M16.7773 0.724121C13.5832 0.724121 10.9939 3.79828 10.9939 7.59044C10.9939 11.3826 13.5832 14.4568 16.7773 14.4568C19.9714 14.4568 22.5607 11.3826 22.5607 7.59044C22.5607 3.79828 19.9714 0.724121 16.7773 0.724121V0.724121Z"/>
  <path d="M29.7889 32.726H23.7401C23.3654 32.726 23.006 32.577 22.741 32.3117C22.476 32.0463 22.3272 31.6865 22.3272 31.3113C22.3272 30.936 22.476 30.5762 22.741 30.3109C23.006 30.0455 23.3654 29.8965 23.7401 29.8965H29.7889L26.4305 21.1191C26.3972 21.051 26.3456 20.9936 26.2815 20.9533C23.1111 20.4459 19.9081 20.1693 16.6977 20.1256C13.4048 20.1752 10.1198 20.4629 6.86832 20.9864C6.9035 20.9864 6.86556 21.0347 6.83727 21.1066L3.50995 29.8012L9.6113 29.8965C9.98602 29.8965 10.3454 30.0455 10.6104 30.3109C10.8753 30.5762 11.0242 30.936 11.0242 31.3113C11.0242 31.6865 10.8753 32.0463 10.6104 32.3117C10.3454 32.577 9.98602 32.726 9.6113 32.726H3.56173C3.09138 32.7261 2.62813 32.6111 2.21232 32.391C1.7965 32.1708 1.44072 31.8523 1.17595 31.463C0.911181 31.0737 0.745446 30.6255 0.693172 30.1575C0.640897 29.6894 0.70367 29.2156 0.876024 28.7774L4.20335 20.0829C4.37716 19.6001 4.6742 19.1714 5.0649 18.8393C5.4556 18.5072 5.92635 18.2834 6.43028 18.1901C9.82675 17.6443 13.2582 17.3456 16.6978 17.2961C20.067 17.339 23.4284 17.6304 26.7549 18.1679C27.2696 18.2657 27.7512 18.4926 28.1544 18.8275C28.5577 19.1624 28.8694 19.5944 29.0605 20.0829L32.4754 28.7774C32.6473 29.2157 32.7097 29.6894 32.6572 30.1574C32.6047 30.6253 32.4389 31.0733 32.1741 31.4625C31.9094 31.8517 31.5537 32.1702 31.138 32.3904C30.7223 32.6106 30.2592 32.7258 29.7889 32.726Z"/>
</svg>
