<svg viewBox="0 0 32 33" xmlns="http://www.w3.org/2000/svg">
  <path d="M16.1062 13.7323C19.3005 13.7323 21.8899 10.6582 21.8899 6.86615C21.8899 3.07408 19.3005 0 16.1062 0C12.912 0 10.3225 3.07408 10.3225 6.86615C10.3225 10.6582 12.912 13.7323 16.1062 13.7323Z"/>
  <path d="M29.0871 32.0027L2.73962 31.9916C2.31341 31.9677 1.89772 31.85 1.52217 31.6468C1.14663 31.4436 0.820479 31.16 0.566992 30.8161C0.313505 30.4722 0.138921 30.0766 0.0556894 29.6574C-0.0275417 29.2382 -0.0173696 28.8057 0.0854806 28.3909L3.56402 19.1916C3.73971 18.7901 4.00118 18.4319 4.33003 18.1425C4.65887 17.853 5.04709 17.6392 5.46735 17.5162C8.73821 16.9525 12.0475 16.6417 15.366 16.5867C19.5318 16.5867 23.658 17.2262 25.3845 17.3497C25.9474 17.3346 26.5039 17.4726 26.9947 17.7491C27.4855 18.0256 27.8922 18.4302 28.1716 18.9198L31.8785 28.3236C32.0085 28.7551 32.0346 29.2112 31.9548 29.6547C31.8749 30.0982 31.6913 30.5165 31.4191 30.8754C31.1468 31.2342 30.7935 31.5234 30.3882 31.7194C29.9829 31.9153 29.537 32.0124 29.0871 32.0027Z"/>
</svg>
