<svg viewBox="0 0 32 32" xmlns="http://www.w3.org/2000/svg">
  <g>
    <path d="M15.9996,11.594a2.00366,2.00366,0,1,1-2.00366,2.00366A2.00388,2.00388,0,0,1,15.9996,11.594m0-1.68708a3.69114,3.69114,0,1,0,3.69074,3.69074A3.69513,3.69513,0,0,0,15.9996,9.90695" />
    <path d="M27.23733,10.69471a11.53736,11.53736,0,0,0-2.931-5.21513c-0.03126-.03206-0.0577-0.06732-0.089-0.09938-0.03286-.03286-0.06973-0.06011-0.10259-0.093a11.5287,11.5287,0,0,0-5.22074-2.935,11.3323,11.3323,0,0,0-5.789,0,11.52609,11.52609,0,0,0-5.21994,2.935c-0.03366.03286-.06973,0.06011-0.10259,0.093-0.03206.03206-.05851,0.06732-0.08976,0.09938a11.52831,11.52831,0,0,0-2.93015,5.21513,11.69294,11.69294,0,0,0,0,5.80581,11.52676,11.52676,0,0,0,2.93015,5.21593c0.03126,0.03206.05771,0.06732,0.08976,0.09858,0.03286,0.03366.06893,0.06091,0.10259,0.09377L16,30.02362l8.11482-8.11482c0.03286-.03286.06973-0.06011,0.10259-0.09377,0.03126-.03126.05771-0.06652,0.089-0.09858a11.5358,11.5358,0,0,0,2.931-5.21593,11.693,11.693,0,0,0,0-5.80581M22.79321,20.94463l-3.89912,3.89912L16,27.73784l-2.89489-2.89409L9.206,20.94383l-0.55221-.55221A10.00247,10.00247,0,0,1,8.653,6.8044l0.55381-.553a9.97128,9.97128,0,0,1,13.58562-.0008L23.347,6.8052a10.00228,10.00228,0,0,1-.0008,13.58642Z" />
  </g>
</svg>
