<svg viewBox="0 0 155 139" fill="none" xmlns="http://www.w3.org/2000/svg">
<g clip-path="url(#clip0_54498_42323)">
<path d="M78.0867 9.49969C36.2607 -12.0237 1.80178 9.58976 0 10.7471V121.185C1.07431 119.913 5.51794 115.027 15.3939 111.613V133.209C15.3981 134.743 16.0094 136.213 17.0944 137.298C18.1793 138.384 19.6497 138.995 21.1844 139H133.298C134.832 138.995 136.303 138.384 137.388 137.298C138.473 136.213 139.084 134.743 139.088 133.209V111.003C150.908 114.714 155 120.888 155 120.888V10.7966C155 10.7966 121.052 -12.6091 78.0867 9.49969Z" fill="white"/>
<path d="M100.627 10.8012C143.223 6.9329 154.973 23.6355 154.973 23.6355V121.19C154.973 121.19 143.223 104.485 100.627 108.355V10.8012Z" fill="url(#paint0_linear_54498_42323)"/>
<path d="M147.325 106.011C110.989 88.8854 82.3547 106.011 82.3547 106.011V16.268C82.3547 16.268 110.958 -0.860131 147.325 16.268V106.011Z" fill="#0B1F31"/>
<path d="M54.3459 10.7925C11.7497 6.92423 -0.000115907 23.6268 -0.000115907 23.6268V121.181C-0.000115907 121.181 11.7497 104.476 54.3459 108.347V10.7925Z" fill="url(#paint1_linear_54498_42323)"/>
<path d="M8.52051 106.014C44.8578 88.8855 73.4925 106.014 73.4925 106.014V16.2659C73.4925 16.2659 44.8893 -0.857749 8.52051 16.2659V106.014Z" fill="#0B1F31"/>
</g>
<defs>
<linearGradient id="paint0_linear_54498_42323" x1="127.8" y1="121.19" x2="127.8" y2="10.218" gradientUnits="userSpaceOnUse">
<stop stop-color="#8ABF3F"/>
<stop offset="0.36" stop-color="#9EC856"/>
<stop offset="0.9" stop-color="#FFFFF9"/>
<stop offset="0.97" stop-color="white"/>
<stop offset="1" stop-color="white"/>
</linearGradient>
<linearGradient id="paint1_linear_54498_42323" x1="27.1729" y1="121.181" x2="27.1729" y2="10.2094" gradientUnits="userSpaceOnUse">
<stop stop-color="#8ABF3F"/>
<stop offset="0.36" stop-color="#9EC856"/>
<stop offset="0.9" stop-color="#FFFFF9"/>
<stop offset="0.97" stop-color="white"/>
<stop offset="1" stop-color="white"/>
</linearGradient>
</defs>
</svg>
