<svg viewBox="0 0 200 67" fill="none" xmlns="http://www.w3.org/2000/svg">
<path d="M184.072 0H12.569C11.4488 0.017257 10.3314 0.118035 9.22616 0.3015C8.12109 0.492882 7.05074 0.848553 6.0505 1.35675C5.04367 1.86574 4.12857 2.5394 3.34282 3.35C2.53991 4.13873 1.87341 5.05573 1.37057 6.0635C0.863464 7.0659 0.508556 8.13856 0.317586 9.246C0.131064 10.3529 0.0360291 11.4734 0.0334473 12.596C0.0334473 13.1153 0.0334473 13.6345 0.0334473 14.137V52.863C0.0334473 53.3823 0.0334473 53.8848 0.0334473 54.404C0.0360291 55.5266 0.131064 56.6471 0.317586 57.754C0.508403 58.8668 0.863278 59.945 1.37057 60.9533C1.87808 61.9532 2.54415 62.8639 3.34282 63.65C4.12986 64.4546 5.04489 65.1226 6.0505 65.6265C7.05074 66.1347 8.12109 66.4904 9.22616 66.6818C10.3314 66.8652 11.4488 66.966 12.569 66.9833H187.431C188.551 66.9667 189.669 66.866 190.774 66.6818C191.884 66.4879 192.959 66.1324 193.966 65.6265C194.969 65.1182 195.884 64.4507 196.674 63.65C197.462 62.8552 198.127 61.9461 198.646 60.9533C199.141 59.9413 199.49 58.8641 199.682 57.754C199.866 56.6465 199.967 55.5266 199.983 54.404C199.983 53.8848 199.983 53.3823 199.983 52.863V14.137C199.983 13.6345 199.983 13.1153 199.983 12.596C199.967 11.4734 199.866 10.3535 199.682 9.246C199.49 8.14123 199.141 7.06963 198.646 6.0635C198.132 5.06282 197.467 4.14758 196.674 3.35C195.884 2.54927 194.969 1.88183 193.966 1.3735C192.959 0.867607 191.884 0.512092 190.774 0.31825C189.669 0.134041 188.551 0.0332577 187.431 0.01675H184.088L184.072 0Z" fill="#B7B7B7"/>
<path d="M14.1065 65.526H12.6023C11.5567 65.5441 10.5114 65.4769 9.47674 65.325C8.50102 65.1332 7.55993 64.7943 6.6855 64.32C5.8234 63.8952 5.03817 63.3291 4.36225 62.645C3.67881 61.9619 3.11392 61.1694 2.69085 60.3C2.24572 59.4251 1.93576 58.4876 1.77157 57.5195C1.60165 56.4839 1.51224 55.4367 1.50415 54.3872C1.50415 54.0355 1.50415 52.8462 1.50415 52.8462V14.137C1.50415 14.137 1.50415 12.9812 1.50415 12.6462C1.51156 11.5967 1.60097 10.5495 1.77157 9.51397C1.92457 8.53464 2.22909 7.58523 2.67413 6.69997C3.09361 5.82842 3.65891 5.03529 4.34553 4.35497C5.03337 3.67751 5.82295 3.11231 6.6855 2.67997C7.55847 2.23389 8.49398 1.92326 9.46003 1.75872C10.4989 1.58756 11.5495 1.49796 12.6023 1.49072H187.414C188.456 1.49956 189.495 1.58916 190.523 1.75872C191.494 1.92678 192.434 2.2372 193.314 2.67997C195.048 3.55887 196.458 4.96644 197.342 6.69997C197.777 7.57177 198.081 8.50303 198.245 9.46372C198.412 10.5056 198.507 11.5578 198.529 12.6127V14.1035C198.529 14.74 198.529 15.343 198.529 15.946V51.0205C198.529 51.6402 198.529 52.2265 198.529 52.8295V54.3872C198.508 55.4256 198.413 56.4611 198.245 57.486C198.086 58.4586 197.782 59.4016 197.342 60.2832C196.912 61.1432 196.348 61.929 195.671 62.6115C194.989 63.2964 194.199 63.8625 193.331 64.2865C192.462 64.7799 191.52 65.1306 190.54 65.325C189.507 65.4993 188.462 65.589 187.414 65.593H14.1065V65.526Z" fill="black"/>
<path d="M41.4006 34.0024C41.4153 32.6035 41.7851 31.2313 42.4752 30.0152C43.1653 28.7991 44.153 27.779 45.3451 27.0511C44.5877 25.9692 43.5892 25.0789 42.4287 24.4509C41.2682 23.8229 39.9777 23.4744 38.6595 23.4331C35.8683 23.1316 33.1439 25.1081 31.7065 25.1081C30.2691 25.1081 28.0461 23.4331 25.6727 23.4331C24.1392 23.4831 22.6448 23.9307 21.3354 24.7321C20.026 25.5336 18.9463 26.6615 18.2016 28.0059C15.0426 33.6841 17.3826 41.8749 20.4747 46.4644C22.0291 48.6921 23.8175 51.1711 26.2076 51.0706C28.5977 50.9701 29.3833 49.5966 32.1912 49.5966C34.9992 49.5966 35.768 51.0706 38.1915 51.0204C40.6151 50.9701 42.2531 48.7927 43.7406 46.5481C44.8512 44.966 45.7084 43.2197 46.2811 41.3724C44.8338 40.7621 43.5986 39.7371 42.7304 38.426C41.8621 37.1148 41.3995 35.576 41.4006 34.0024Z" fill="white"/>
<path d="M36.7708 20.4517C38.1215 18.8175 38.7866 16.7218 38.6261 14.606C36.5543 14.83 34.6408 15.8217 33.2608 17.3865C31.9084 18.9363 31.2234 20.9598 31.3555 23.0145C32.3926 23.0247 33.4186 22.7995 34.3565 22.3556C35.2943 21.9118 36.1198 21.2609 36.7708 20.4517V20.4517Z" fill="white"/>
<path d="M70.7003 45.4594H62.7946L60.8892 51.0874H57.5464L65.0343 30.2839H68.5275L76.0154 51.0874H72.6726L70.7003 45.4594ZM63.6136 42.8632H69.8813L66.8561 33.7344H66.7725L63.6136 42.8632Z" fill="white"/>
<path d="M92.1945 43.55C92.1945 48.2567 89.6707 51.2885 85.8767 51.2885C84.9086 51.3295 83.9486 51.0968 83.1062 50.617C82.2639 50.1371 81.5732 49.4295 81.1132 48.575V48.575V56.079H77.9375V35.979H80.946V38.525C81.4346 37.6827 82.1417 36.9888 82.9921 36.5169C83.8426 36.0451 84.8048 35.8129 85.7764 35.845C89.6707 35.7612 92.1945 38.793 92.1945 43.55ZM89.0022 43.55C89.0022 40.4847 87.3308 38.525 85.0075 38.525C82.6843 38.525 81.0296 40.5852 81.0296 43.55C81.0296 46.5147 82.701 48.6587 85.0075 48.6587C87.3141 48.6587 89.0022 46.5985 89.0022 43.55Z" fill="white"/>
<path d="M108.842 43.5499C108.842 48.2567 106.335 51.2885 102.54 51.2885C101.572 51.3315 100.611 51.0996 99.7686 50.6196C98.9259 50.1395 98.2355 49.4308 97.777 48.5749V56.0789H94.6013V35.9789H97.6098V38.5249C98.097 37.6852 98.8015 36.993 99.6487 36.5213C100.496 36.0495 101.455 35.8159 102.423 35.8449C106.318 35.7612 108.842 38.7929 108.842 43.5499ZM105.649 43.5499C105.649 40.4847 104.078 38.5249 101.655 38.5249C99.2311 38.5249 97.6934 40.5852 97.6934 43.5499C97.6934 46.5147 99.2812 48.5749 101.655 48.5749C104.028 48.5749 105.649 46.5984 105.649 43.5499V43.5499Z" fill="white"/>
<path d="M119.856 45.2251C120.09 47.2853 122.079 48.5751 124.871 48.5751C127.662 48.5751 129.367 47.2183 129.367 45.3591C129.367 43.4998 128.23 42.7796 125.539 42.1096L122.848 41.4563C119.037 40.5351 117.282 38.7596 117.282 35.8618C117.282 32.2606 120.391 29.7983 124.82 29.7983C129.25 29.7983 132.225 32.2606 132.325 35.8618H129.133C128.949 33.7848 127.227 32.5118 124.737 32.5118C122.246 32.5118 120.525 33.7681 120.525 35.6273C120.525 37.0846 121.611 37.9556 124.286 38.6256L126.575 39.1783C130.837 40.1833 132.609 41.9086 132.609 44.9403C132.609 48.8431 129.5 51.2718 124.586 51.2718C119.99 51.2718 116.881 48.8933 116.681 45.1413L119.856 45.2251Z" fill="white"/>
<path d="M139.311 32.3274V35.9119H142.186V38.3741H139.311V46.7491C139.311 48.0389 139.88 48.6419 141.15 48.6419C141.489 48.6627 141.83 48.6627 142.169 48.6419V51.0874C141.618 51.1915 141.059 51.2419 140.498 51.2381C137.423 51.2381 136.236 50.0824 136.236 47.1344V38.3741H133.979V35.9119H136.186V32.3274H139.311Z" fill="white"/>
<path d="M143.841 43.5501C143.841 38.7763 146.649 35.7781 151.028 35.7781C155.407 35.7781 158.198 38.7763 158.198 43.5501C158.198 48.3238 155.44 51.2718 151.028 51.2718C146.615 51.2718 143.841 48.2903 143.841 43.5501ZM155.039 43.5501C155.039 40.2838 153.535 38.3408 151.028 38.3408C148.521 38.3408 147.083 40.2001 147.083 43.5501C147.083 46.9001 148.571 48.7593 151.095 48.7593C153.619 48.7593 155.039 46.7828 155.039 43.5501Z" fill="white"/>
<path d="M160.772 35.9121H163.797V38.5251C164 37.7201 164.473 37.0095 165.136 36.5124C165.8 36.0153 166.613 35.7619 167.441 35.7948C167.801 35.789 168.161 35.8284 168.511 35.9121V38.8266C168.075 38.6452 167.611 38.543 167.14 38.5251C166.673 38.4908 166.205 38.5615 165.769 38.7319C165.333 38.9023 164.94 39.1682 164.62 39.5101C164.3 39.8521 164.059 40.2614 163.917 40.7082C163.775 41.1551 163.734 41.6281 163.797 42.0928V51.0876H160.772V35.9121Z" fill="white"/>
<path d="M182.818 46.632C182.4 49.379 179.726 51.2718 176.316 51.2718C171.904 51.2718 169.179 48.307 169.179 43.5668C169.179 38.8265 171.921 35.7278 176.183 35.7278C180.445 35.7278 183.002 38.6088 183.002 43.215V44.2703H172.305V44.4713C172.257 45.0293 172.328 45.5912 172.514 46.1196C172.699 46.648 172.994 47.131 173.38 47.5364C173.765 47.9418 174.233 48.2605 174.75 48.4713C175.268 48.6822 175.825 48.7803 176.383 48.7593C177.116 48.8279 177.852 48.658 178.481 48.2749C179.11 47.8917 179.599 47.3157 179.876 46.632H182.818ZM172.322 42.0928H179.893C179.921 41.5917 179.845 41.0902 179.67 40.62C179.495 40.1498 179.224 39.7211 178.876 39.3607C178.527 39.0004 178.108 38.7163 177.645 38.5263C177.181 38.3364 176.683 38.2447 176.183 38.257C175.678 38.2548 175.177 38.3523 174.71 38.5439C174.243 38.7354 173.818 39.0174 173.459 39.3735C173.101 39.7297 172.816 40.1532 172.621 40.6198C172.425 41.0863 172.324 41.5869 172.322 42.0928Z" fill="white"/>
<path d="M63.2291 14.6228C63.8849 14.5764 64.5427 14.6776 65.1545 14.9187C65.7663 15.1599 66.3165 15.535 66.7651 16.0166C67.2136 16.4982 67.5491 17.0742 67.7471 17.7025C67.945 18.3307 68.0003 18.9953 67.9091 19.6478C67.9091 22.8303 66.2377 24.6728 63.2291 24.6728H59.6189V14.6228H63.2291ZM61.1733 23.1988H63.0453C63.5144 23.2367 63.9861 23.168 64.4251 22.9977C64.864 22.8274 65.2589 22.56 65.5803 22.2154C65.9017 21.8708 66.1413 21.4578 66.2811 21.0074C66.421 20.557 66.4576 20.0808 66.3881 19.6143C66.4543 19.1483 66.4155 18.6733 66.2744 18.2244C66.1334 17.7754 65.8937 17.3639 65.573 17.02C65.2523 16.6761 64.8587 16.4087 64.4213 16.2373C63.9839 16.0659 63.5137 15.995 63.0453 16.0298H61.1733V23.1988Z" fill="white"/>
<path d="M69.6641 20.837C69.6307 20.349 69.6978 19.8594 69.8611 19.3985C70.0245 18.9376 70.2806 18.5153 70.6137 18.1578C70.9468 17.8003 71.3497 17.5152 71.7973 17.3204C72.245 17.1255 72.7278 17.0249 73.2159 17.0249C73.7039 17.0249 74.1867 17.1255 74.6344 17.3204C75.082 17.5152 75.4849 17.8003 75.818 18.1578C76.1511 18.5153 76.4072 18.9376 76.5706 19.3985C76.734 19.8594 76.801 20.349 76.7676 20.837C76.801 21.3249 76.734 21.8146 76.5706 22.2755C76.4072 22.7363 76.1511 23.1587 75.818 23.5162C75.4849 23.8736 75.082 24.1587 74.6344 24.3536C74.1867 24.5485 73.7039 24.649 73.2159 24.649C72.7278 24.649 72.245 24.5485 71.7973 24.3536C71.3497 24.1587 70.9468 23.8736 70.6137 23.5162C70.2806 23.1587 70.0245 22.7363 69.8611 22.2755C69.6978 21.8146 69.6307 21.3249 69.6641 20.837ZM75.2299 20.837C75.2299 19.162 74.5112 18.2575 73.2242 18.2575C71.9372 18.2575 71.2018 19.2122 71.2018 20.837C71.2018 22.4617 71.8704 23.45 73.2242 23.45C74.578 23.45 75.2132 22.4785 75.2132 20.837H75.2299Z" fill="white"/>
<path d="M86.1942 24.6226H84.6565L83.1021 19.0616H82.9851L81.4307 24.6226H79.9097L77.8372 17.0684H79.3414L80.6953 22.8304H80.7955L82.3499 17.0684H83.7706L85.325 22.8304H85.442L86.7792 17.0684H88.2667L86.1942 24.6226Z" fill="white"/>
<path d="M90.005 17.0683H91.4424V18.2743H91.5594C91.7442 17.843 92.0603 17.4811 92.4625 17.2405C92.8647 16.9999 93.3325 16.8927 93.7991 16.9343C94.165 16.9051 94.5329 16.959 94.8751 17.0921C95.2174 17.2251 95.5253 17.4339 95.7759 17.7027C96.0266 17.9716 96.2134 18.2937 96.3226 18.6449C96.4317 18.9962 96.4604 19.3676 96.4064 19.7316V24.6226H94.9189V20.1001C94.9189 18.8773 94.3841 18.2743 93.2475 18.2743C92.9959 18.2514 92.7424 18.286 92.5061 18.3754C92.2698 18.4648 92.0567 18.6067 91.883 18.7905C91.7092 18.9743 91.5793 19.1951 91.503 19.4364C91.4267 19.6778 91.406 19.9333 91.4424 20.1838V24.6226H89.9548L90.005 17.0683Z" fill="white"/>
<path d="M98.7632 14.137H100.284V24.6225H98.7966L98.7632 14.137Z" fill="white"/>
<path d="M102.323 20.837C102.29 20.349 102.357 19.8594 102.52 19.3985C102.684 18.9376 102.94 18.5153 103.273 18.1578C103.606 17.8003 104.009 17.5152 104.456 17.3204C104.904 17.1255 105.387 17.0249 105.875 17.0249C106.363 17.0249 106.846 17.1255 107.294 17.3204C107.741 17.5152 108.144 17.8003 108.477 18.1578C108.81 18.5153 109.066 18.9376 109.23 19.3985C109.393 19.8594 109.46 20.349 109.427 20.837C109.46 21.3249 109.393 21.8146 109.23 22.2755C109.066 22.7363 108.81 23.1587 108.477 23.5162C108.144 23.8736 107.741 24.1587 107.294 24.3536C106.846 24.5485 106.363 24.649 105.875 24.649C105.387 24.649 104.904 24.5485 104.456 24.3536C104.009 24.1587 103.606 23.8736 103.273 23.5162C102.94 23.1587 102.684 22.7363 102.52 22.2755C102.357 21.8146 102.29 21.3249 102.323 20.837V20.837ZM107.889 20.837C107.889 19.162 107.154 18.2575 105.867 18.2575C104.58 18.2575 103.861 19.2122 103.861 20.837C103.861 22.4617 104.58 23.45 105.867 23.45C107.154 23.45 107.889 22.4785 107.889 20.837Z" fill="white"/>
<path d="M110.981 22.4785C110.981 21.1217 111.984 20.3512 113.789 20.234L115.828 20.1V19.4467C115.828 18.6595 115.293 18.2072 114.274 18.2072C113.254 18.2072 112.87 18.5087 112.719 19.0447H111.265C111.432 17.7382 112.636 16.9175 114.341 16.9175C116.046 16.9175 117.299 17.8555 117.299 19.4467V24.6225H115.862V23.5505H115.745C115.51 23.9341 115.177 24.2471 114.78 24.4564C114.383 24.6657 113.936 24.7636 113.488 24.7397C113.172 24.7725 112.853 24.7385 112.55 24.6399C112.248 24.5412 111.97 24.3801 111.734 24.1671C111.497 23.954 111.308 23.6936 111.179 23.4027C111.049 23.1119 110.982 22.797 110.981 22.4785ZM115.828 21.775V21.1385L113.99 21.2557C112.953 21.2557 112.469 21.6912 112.469 22.3445C112.469 22.9977 113.07 23.4165 113.873 23.4165C114.109 23.4418 114.349 23.4191 114.577 23.3496C114.805 23.2801 115.016 23.1654 115.199 23.0121C115.381 22.8589 115.531 22.6704 115.639 22.4578C115.747 22.2453 115.812 22.013 115.828 21.775V21.775Z" fill="white"/>
<path d="M119.255 20.837C119.255 18.4585 120.475 16.951 122.38 16.951C122.85 16.9307 123.316 17.0443 123.724 17.2785C124.132 17.5126 124.466 17.8579 124.687 18.2742H124.787V14.137H126.275V24.6225H124.854V23.45H124.737C124.5 23.8621 124.155 24.2015 123.74 24.4318C123.325 24.662 122.854 24.7743 122.38 24.7565C120.458 24.7397 119.255 23.2322 119.255 20.837ZM120.792 20.837C120.792 22.512 121.544 23.3997 122.798 23.3997C124.052 23.3997 124.82 22.4282 124.82 20.8537C124.82 19.2792 124.035 18.291 122.798 18.291C121.561 18.291 120.792 19.2625 120.792 20.837Z" fill="white"/>
<path d="M132.425 20.837C132.392 20.349 132.459 19.8594 132.622 19.3985C132.785 18.9376 133.042 18.5153 133.375 18.1578C133.708 17.8003 134.111 17.5152 134.558 17.3204C135.006 17.1255 135.489 17.0249 135.977 17.0249C136.465 17.0249 136.948 17.1255 137.395 17.3204C137.843 17.5152 138.246 17.8003 138.579 18.1578C138.912 18.5153 139.168 18.9376 139.332 19.3985C139.495 19.8594 139.562 20.349 139.529 20.837C139.562 21.3249 139.495 21.8146 139.332 22.2755C139.168 22.7363 138.912 23.1587 138.579 23.5162C138.246 23.8736 137.843 24.1587 137.395 24.3536C136.948 24.5485 136.465 24.649 135.977 24.649C135.489 24.649 135.006 24.5485 134.558 24.3536C134.111 24.1587 133.708 23.8736 133.375 23.5162C133.042 23.1587 132.785 22.7363 132.622 22.2755C132.459 21.8146 132.392 21.3249 132.425 20.837ZM137.991 20.837C137.991 19.162 137.255 18.2575 135.985 18.2575C134.715 18.2575 133.963 19.2122 133.963 20.837C133.963 22.4617 134.681 23.45 135.985 23.45C137.289 23.45 137.991 22.4785 137.991 20.837Z" fill="white"/>
<path d="M141.518 17.0683H142.938V18.2743H143.055C143.247 17.8447 143.567 17.4852 143.971 17.2453C144.375 17.0053 144.843 16.8967 145.312 16.9343C145.676 16.9078 146.042 16.9637 146.382 17.0979C146.723 17.2321 147.028 17.4412 147.277 17.7097C147.526 17.9783 147.711 18.2994 147.819 18.6493C147.927 18.9993 147.956 19.3691 147.902 19.7315V24.6225H146.431V20.1C146.431 18.8773 145.897 18.2743 144.76 18.2743C144.51 18.2541 144.258 18.2906 144.024 18.3812C143.79 18.4718 143.579 18.6141 143.407 18.7976C143.235 18.981 143.107 19.2009 143.032 19.4409C142.956 19.6809 142.936 19.9348 142.972 20.1838V24.6225H141.484L141.518 17.0683Z" fill="white"/>
<path d="M156.31 15.1921V17.1184H157.981V18.4249H156.31V22.3109C156.31 23.0981 156.627 23.4499 157.363 23.4499H157.931V24.6894C157.664 24.7081 157.396 24.7081 157.129 24.6894C155.457 24.6894 154.822 24.1199 154.822 22.6626V18.4249H153.619V17.1854H154.822V15.1921H156.31Z" fill="white"/>
<path d="M159.953 14.137H161.441V18.291H161.558C161.748 17.8626 162.065 17.5029 162.465 17.2603C162.865 17.0178 163.33 16.904 163.797 16.9342C164.162 16.9135 164.527 16.9739 164.865 17.1112C165.204 17.2485 165.508 17.4592 165.756 17.7282C166.003 17.9973 166.189 18.3179 166.298 18.6672C166.407 19.0164 166.438 19.3856 166.388 19.7482V24.6225H164.9V20.1C164.9 18.894 164.349 18.291 163.229 18.291C162.974 18.2708 162.717 18.3064 162.477 18.3952C162.236 18.484 162.018 18.624 161.837 18.8055C161.656 18.987 161.516 19.2057 161.428 19.4465C161.339 19.6874 161.304 19.9446 161.324 20.2005V24.6225H159.953V14.137Z" fill="white"/>
<path d="M175.096 22.579C174.894 23.2844 174.444 23.893 173.83 24.293C173.216 24.693 172.479 24.8576 171.753 24.7565C171.254 24.7831 170.756 24.6972 170.294 24.5053C169.833 24.3134 169.42 24.0203 169.087 23.6475C168.753 23.2747 168.507 22.8317 168.367 22.3511C168.227 21.8705 168.196 21.3646 168.277 20.8705C168.212 20.3765 168.254 19.8743 168.4 19.398C168.545 18.9216 168.791 18.482 169.121 18.109C169.45 17.7359 169.856 17.438 170.31 17.2353C170.764 17.0327 171.256 16.93 171.753 16.9342C173.843 16.9342 175.096 18.358 175.096 20.7365V21.2557H169.798V21.3395C169.778 21.6187 169.818 21.899 169.915 22.1615C170.012 22.4241 170.164 22.6631 170.36 22.8626C170.555 23.0622 170.791 23.2177 171.052 23.319C171.312 23.4202 171.591 23.4649 171.87 23.45C172.228 23.4904 172.59 23.4247 172.911 23.2609C173.232 23.0972 173.498 22.8426 173.675 22.5287L175.096 22.579ZM169.881 20.1H173.675C173.694 19.8463 173.66 19.5916 173.574 19.352C173.489 19.1125 173.355 18.8935 173.18 18.709C173.005 18.5245 172.794 18.3786 172.56 18.2806C172.326 18.1827 172.074 18.1349 171.82 18.1402C171.563 18.1379 171.309 18.1872 171.072 18.2851C170.834 18.383 170.619 18.5275 170.438 18.7102C170.257 18.8928 170.115 19.1099 170.019 19.3486C169.924 19.5873 169.877 19.8428 169.881 20.1V20.1Z" fill="white"/>
</svg>
