<svg viewBox="0 0 200 60" fill="none" xmlns="http://www.w3.org/2000/svg">
<g clip-path="url(#clip0_55995_43169)">
<path d="M192.593 0H7.40741C3.31641 0 0 3.31641 0 7.40741V51.8518C0 55.9428 3.31641 59.2593 7.40741 59.2593H192.593C196.684 59.2593 200 55.9428 200 51.8518V7.40741C200 3.31641 196.684 0 192.593 0Z" fill="black"/>
<path d="M192.593 1.18519C194.242 1.1891 195.822 1.84591 196.988 3.01195C198.154 4.178 198.811 5.75837 198.815 7.40741V51.8518C198.811 53.5009 198.154 55.0813 196.988 56.2473C195.822 57.4133 194.242 58.0702 192.593 58.0741H7.40741C6.59029 58.0741 5.78118 57.9131 5.02627 57.6004C4.27135 57.2877 3.58542 56.8294 3.00763 56.2516C2.42984 55.6738 1.97152 54.9879 1.65882 54.233C1.34613 53.4781 1.18519 52.669 1.18519 51.8518V7.40741C1.18519 5.75717 1.84074 4.17452 3.00763 3.00763C4.17452 1.84074 5.75717 1.18519 7.40741 1.18519H192.593ZM192.593 0H7.40741C5.44284 0 3.55874 0.780421 2.16958 2.16958C0.780421 3.55874 0 5.44284 0 7.40741V51.8518C0 53.8164 0.780421 55.7005 2.16958 57.0897C3.55874 58.4788 5.44284 59.2593 7.40741 59.2593H192.593C194.557 59.2593 196.441 58.4788 197.83 57.0897C199.22 55.7005 200 53.8164 200 51.8518V7.40741C200 5.44284 199.22 3.55874 197.83 2.16958C196.441 0.780421 194.557 0 192.593 0Z" fill="#A6A6A6"/>
<path d="M70.237 15.1704C70.2641 15.7127 70.1809 16.2549 69.9925 16.7642C69.8041 17.2735 69.5143 17.7393 69.1407 18.1333C68.717 18.5682 68.2065 18.9091 67.6424 19.1337C67.0783 19.3583 66.4732 19.4617 65.8666 19.437C65.2579 19.441 64.6546 19.3236 64.0918 19.0916C63.5291 18.8596 63.0183 18.5177 62.5892 18.0859C62.1602 17.6542 61.8216 17.1412 61.5932 16.5769C61.3648 16.0127 61.2513 15.4086 61.2592 14.8C61.2513 14.1914 61.3648 13.5873 61.5932 13.0231C61.8216 12.4588 62.1602 11.9458 62.5892 11.5141C63.0183 11.0823 63.5291 10.7404 64.0918 10.5084C64.6546 10.2764 65.2579 10.159 65.8666 10.163C66.4979 10.1584 67.1234 10.2845 67.7036 10.5333C68.2355 10.7496 68.7079 11.0899 69.0814 11.5259L68.311 12.3111C68.0153 11.9546 67.6401 11.6724 67.2156 11.4872C66.7911 11.3019 66.329 11.2188 65.8666 11.2444C65.4025 11.2442 64.943 11.3372 64.5155 11.5179C64.088 11.6986 63.7012 11.9632 63.3779 12.2962C63.0546 12.6292 62.8014 13.0237 62.6334 13.4563C62.4654 13.8889 62.386 14.3509 62.3999 14.8148C62.3881 15.2762 62.4685 15.7354 62.6365 16.1653C62.8045 16.5953 63.0566 16.9873 63.3781 17.3185C63.6997 17.6497 64.0841 17.9133 64.5088 18.0939C64.9336 18.2746 65.3902 18.3685 65.8518 18.3704C66.3074 18.3819 66.7608 18.3027 67.1855 18.1374C67.6103 17.9721 67.9979 17.7239 68.3258 17.4074C68.784 16.9148 69.0473 16.2724 69.0666 15.6H65.8666V14.4444H70.1777C70.222 14.6838 70.2419 14.927 70.237 15.1704Z" fill="white" stroke="white" stroke-width="0.2" stroke-miterlimit="10"/>
<path d="M77.0668 11.4815H73.0223V14.2964H76.6668V15.363H73.0223V18.1778H77.0668V19.2741H71.8816V10.3853H77.0668V11.4815Z" fill="white" stroke="white" stroke-width="0.2" stroke-miterlimit="10"/>
<path d="M81.8814 19.2593H80.7407V11.4815H78.2666V10.3853H84.3703V11.4815H81.8814V19.2593Z" fill="white" stroke="white" stroke-width="0.2" stroke-miterlimit="10"/>
<path d="M88.7852 19.2592V10.3704H89.9259V19.2592H88.7852Z" fill="white" stroke="white" stroke-width="0.2" stroke-miterlimit="10"/>
<path d="M94.9925 19.2593H93.8518V11.4815H91.3777V10.3853H97.4814V11.4815H94.9925V19.2593Z" fill="white" stroke="white" stroke-width="0.2" stroke-miterlimit="10"/>
<path d="M109.037 18.1036C108.609 18.5319 108.101 18.8716 107.542 19.1034C106.982 19.3351 106.383 19.4544 105.778 19.4544C105.172 19.4544 104.573 19.3351 104.014 19.1034C103.454 18.8716 102.946 18.5319 102.518 18.1036C101.681 17.2133 101.215 16.0371 101.215 14.8147C101.215 13.5924 101.681 12.4162 102.518 11.5259C102.946 11.0976 103.454 10.7579 104.014 10.5261C104.573 10.2943 105.172 10.175 105.778 10.175C106.383 10.175 106.982 10.2943 107.542 10.5261C108.101 10.7579 108.609 11.0976 109.037 11.5259C109.465 11.9584 109.802 12.4723 110.028 13.0371C110.255 13.6019 110.366 14.2063 110.355 14.8147C110.373 15.4241 110.265 16.0305 110.038 16.5963C109.811 17.1621 109.471 17.6752 109.037 18.1036ZM103.363 17.4073C103.675 17.7315 104.05 17.9882 104.466 18.1615C104.881 18.3348 105.328 18.421 105.778 18.4147C106.228 18.4237 106.675 18.3387 107.091 18.1653C107.507 17.9918 107.882 17.7337 108.193 17.4073C108.524 17.0731 108.782 16.6745 108.953 16.2362C109.124 15.7979 109.203 15.3292 109.185 14.8592C109.203 14.3891 109.124 13.9205 108.953 13.4821C108.782 13.0438 108.524 12.6453 108.193 12.311C107.882 11.9847 107.507 11.7266 107.091 11.5531C106.675 11.3797 106.228 11.2947 105.778 11.3036C105.328 11.2974 104.881 11.3836 104.466 11.5569C104.05 11.7301 103.675 11.9868 103.363 12.311C102.733 13.0103 102.384 13.9181 102.384 14.8592C102.384 15.8003 102.733 16.7081 103.363 17.4073Z" fill="white" stroke="white" stroke-width="0.2" stroke-miterlimit="10"/>
<path d="M111.956 19.2592V10.3704H113.348L117.659 17.2889V15.5704V10.3704H118.815V19.2592H117.615L113.17 12.0148V13.7185V19.2592H111.956Z" fill="white" stroke="white" stroke-width="0.2" stroke-miterlimit="10"/>
<path d="M100.918 32.2223C99.6702 32.2253 98.4509 32.5983 97.4147 33.2942C96.3784 33.9901 95.5718 34.9776 95.0969 36.132C94.6219 37.2863 94.4999 38.5555 94.7463 39.7792C94.9927 41.0028 95.5964 42.126 96.4811 43.0065C97.3658 43.8871 98.4917 44.4855 99.7165 44.7261C100.941 44.9668 102.21 44.8388 103.362 44.3584C104.514 43.8781 105.498 43.0668 106.189 42.0274C106.88 40.9879 107.247 39.7668 107.244 38.5186C107.256 37.6859 107.101 36.8593 106.787 36.088C106.473 35.3167 106.007 34.6165 105.417 34.029C104.826 33.4415 104.124 32.9788 103.351 32.6684C102.578 32.3581 101.751 32.2063 100.918 32.2223ZM100.918 42.3408C100.153 42.3944 99.3899 42.2165 98.7273 41.8303C98.0646 41.4441 97.5335 40.8676 97.2029 40.1756C96.8723 39.4835 96.7575 38.7081 96.8735 37.95C96.9895 37.1918 97.3308 36.4861 97.8532 35.9246C98.3755 35.3631 99.0548 34.9717 99.8025 34.8012C100.55 34.6308 101.332 34.6893 102.046 34.9691C102.76 35.2489 103.374 35.737 103.807 36.37C104.24 37.0031 104.472 37.7517 104.474 38.5186C104.498 39.0046 104.424 39.4904 104.257 39.9474C104.09 40.4044 103.834 40.8234 103.502 41.1796C103.171 41.5359 102.772 41.8221 102.328 42.0216C101.884 42.221 101.405 42.3296 100.918 42.3408ZM87.1406 32.2223C85.8944 32.234 84.6795 32.6145 83.6491 33.3157C82.6188 34.0169 81.8191 35.0075 81.351 36.1625C80.8828 37.3175 80.7671 38.5853 81.0185 39.8061C81.2699 41.0268 81.877 42.1457 82.7634 43.0218C83.6499 43.8979 84.7758 44.492 85.9994 44.729C87.223 44.9661 88.4893 44.8356 89.6388 44.354C90.7883 43.8723 91.7695 43.0611 92.4586 42.0227C93.1477 40.9842 93.5139 39.7649 93.511 38.5186C93.5233 37.6821 93.3663 36.8517 93.0496 36.0774C92.7328 35.3031 92.2628 34.6008 91.6678 34.0127C91.0728 33.4246 90.365 32.9628 89.5871 32.6552C88.8091 32.3475 87.9769 32.2003 87.1406 32.2223ZM87.1406 42.3408C86.3756 42.3944 85.6121 42.2165 84.9495 41.8303C84.2868 41.4441 83.7557 40.8676 83.4251 40.1756C83.0945 39.4835 82.9797 38.7081 83.0957 37.95C83.2117 37.1918 83.553 36.4861 84.0754 35.9246C84.5978 35.3631 85.277 34.9717 86.0247 34.8012C86.7725 34.6308 87.5542 34.6893 88.2683 34.9691C88.9824 35.2489 89.5958 35.737 90.0288 36.37C90.4618 37.0031 90.6943 37.7517 90.6962 38.5186C90.7201 39.0046 90.6464 39.4904 90.4795 39.9474C90.3126 40.4044 90.0559 40.8234 89.7245 41.1796C89.3932 41.5359 88.9938 41.8221 88.55 42.0216C88.1063 42.221 87.627 42.3296 87.1406 42.3408ZM70.7258 34.1631V36.8297H77.1258C77.0313 38.0872 76.5084 39.2742 75.6443 40.1927C75.0057 40.8471 74.2363 41.3596 73.3862 41.6965C72.5361 42.0335 71.6246 42.1874 70.711 42.1483C68.825 42.1483 67.0163 41.399 65.6827 40.0655C64.3491 38.7319 63.5999 36.9231 63.5999 35.0371C63.5999 33.1512 64.3491 31.3424 65.6827 30.0088C67.0163 28.6752 68.825 27.926 70.711 27.926C72.5046 27.9061 74.2341 28.5925 75.5258 29.8371L77.4221 27.9557C76.5386 27.083 75.4902 26.3951 74.3379 25.9322C73.1856 25.4692 71.9527 25.2405 70.711 25.2594C69.394 25.2081 68.0801 25.4233 66.8482 25.8919C65.6163 26.3606 64.4917 27.0731 63.5418 27.9868C62.5918 28.9005 61.8361 29.9965 61.3199 31.2093C60.8037 32.422 60.5376 33.7265 60.5376 35.0445C60.5376 36.3626 60.8037 37.6671 61.3199 38.8798C61.8361 40.0926 62.5918 41.1886 63.5418 42.1023C64.4917 43.016 65.6163 43.7285 66.8482 44.1972C68.0801 44.6658 69.394 44.881 70.711 44.8297C71.9782 44.8794 73.2416 44.661 74.4185 44.1887C75.5954 43.7164 76.6593 43.0009 77.5406 42.089C79.0964 40.38 79.9253 38.1322 79.8517 35.8223C79.86 35.2656 79.8104 34.7095 79.7036 34.1631H70.7258ZM137.852 36.2371C137.465 35.1005 136.743 34.1079 135.78 33.391C134.817 32.674 133.659 32.2665 132.459 32.2223C131.649 32.2207 130.847 32.3854 130.102 32.7061C129.358 33.0268 128.688 33.4967 128.132 34.0868C127.577 34.6769 127.148 35.3747 126.873 36.137C126.598 36.8992 126.483 37.7098 126.533 38.5186C126.515 39.3486 126.665 40.1737 126.973 40.9446C127.281 41.7155 127.741 42.4164 128.326 43.0055C128.911 43.5946 129.608 44.0597 130.377 44.3732C131.146 44.6866 131.97 44.8419 132.8 44.8297C133.822 44.8191 134.827 44.5584 135.726 44.0703C136.624 43.5823 137.39 42.8817 137.955 42.0297L135.807 40.5483C135.487 41.082 135.033 41.5228 134.49 41.8268C133.947 42.1309 133.333 42.2876 132.711 42.2816C132.067 42.3091 131.429 42.1413 130.882 41.8003C130.335 41.4593 129.903 40.9609 129.644 40.3705L138.074 36.889L137.852 36.2371ZM129.259 38.3408C129.227 37.8814 129.287 37.4202 129.436 36.9844C129.585 36.5486 129.82 36.147 130.126 35.8032C130.433 35.4594 130.805 35.1805 131.221 34.9828C131.637 34.7851 132.088 34.6726 132.548 34.652C133.027 34.6237 133.504 34.7363 133.92 34.9759C134.336 35.2154 134.673 35.5715 134.889 36.0001L129.259 38.3408ZM122.4 44.4445H125.17V25.926H122.4V44.4445ZM117.867 33.7038H117.778C117.36 33.237 116.849 32.8637 116.277 32.6084C115.705 32.3531 115.085 32.2215 114.459 32.2223C112.84 32.3008 111.313 32.9992 110.195 34.1728C109.077 35.3464 108.454 36.9051 108.454 38.526C108.454 40.1469 109.077 41.7057 110.195 42.8792C111.313 44.0528 112.84 44.7512 114.459 44.8297C115.087 44.8403 115.709 44.7131 116.283 44.4572C116.856 44.2012 117.366 43.8227 117.778 43.3482H117.867V44.252C117.867 46.6668 116.578 47.9557 114.504 47.9557C113.81 47.9518 113.134 47.7411 112.561 47.3504C111.989 46.9598 111.545 46.4071 111.289 45.7631L108.874 46.7557C109.328 47.863 110.102 48.8097 111.097 49.4748C112.092 50.1398 113.262 50.4929 114.459 50.489C117.704 50.489 120.385 48.5779 120.385 43.926V32.6075H117.867V33.7038ZM114.696 42.3408C113.726 42.2803 112.814 41.8521 112.148 41.1433C111.483 40.4345 111.112 39.4986 111.112 38.526C111.112 37.5535 111.483 36.6175 112.148 35.9088C112.814 35.2 113.726 34.7717 114.696 34.7112C115.172 34.7334 115.639 34.8514 116.068 35.0581C116.497 35.2649 116.88 35.5561 117.194 35.9143C117.508 36.2726 117.746 36.6905 117.895 37.1431C118.044 37.5957 118.1 38.0736 118.059 38.5483C118.095 39.0198 118.036 39.4938 117.886 39.9421C117.735 40.3903 117.495 40.8037 117.182 41.1575C116.868 41.5114 116.486 41.7985 116.059 42.0018C115.632 42.2051 115.169 42.3204 114.696 42.3408ZM150.815 25.926H144.192V44.4445H146.963V37.4223H150.815C151.604 37.479 152.397 37.3725 153.144 37.1093C153.89 36.8462 154.575 36.432 155.154 35.8927C155.733 35.3534 156.196 34.7005 156.512 33.9747C156.828 33.2489 156.991 32.4658 156.991 31.6742C156.991 30.8826 156.828 30.0995 156.512 29.3737C156.196 28.6479 155.733 27.995 155.154 27.4557C154.575 26.9164 153.89 26.5022 153.144 26.239C152.397 25.9759 151.604 25.8693 150.815 25.926ZM150.815 34.8149H146.889V28.5038H150.815C151.656 28.5038 152.462 28.8378 153.057 29.4324C153.651 30.0269 153.985 30.8333 153.985 31.6742C153.985 32.515 153.651 33.3214 153.057 33.916C152.462 34.5105 151.656 34.8445 150.815 34.8445V34.8149ZM167.97 32.2223C166.962 32.162 165.957 32.3977 165.081 32.9004C164.205 33.4031 163.494 34.1509 163.037 35.052L165.496 36.0742C165.739 35.6288 166.107 35.264 166.554 35.0245C167.002 34.785 167.509 34.6813 168.015 34.726C168.366 34.685 168.723 34.7143 169.063 34.8124C169.403 34.9105 169.72 35.0754 169.996 35.2975C170.272 35.5195 170.501 35.7942 170.669 36.1056C170.838 36.417 170.943 36.7589 170.978 37.1112V37.289C170.064 36.8106 169.046 36.5663 168.015 36.5779C165.363 36.5779 162.681 38.0594 162.681 40.7557C162.708 41.3274 162.848 41.8881 163.095 42.4046C163.341 42.9211 163.689 43.3829 164.117 43.7628C164.545 44.1426 165.045 44.4327 165.587 44.616C166.13 44.7992 166.703 44.8719 167.274 44.8297C167.971 44.8698 168.666 44.7218 169.286 44.4012C169.907 44.0807 170.429 43.5993 170.8 43.0075H170.904V44.489H173.57V37.3186C173.6 34.0297 171.141 32.2223 167.97 32.2223ZM167.585 42.3408C166.667 42.3408 165.407 41.8816 165.407 40.7705C165.407 39.289 166.978 38.7853 168.37 38.7853C169.255 38.7638 170.129 38.9786 170.904 39.4075C170.8 40.2154 170.406 40.9581 169.795 41.4976C169.185 42.0371 168.4 42.3368 167.585 42.3408ZM183.259 32.5927L180.089 40.6223H179.985L176.711 32.5927H173.748L178.667 43.8223L175.911 50.0001H178.785L186.385 32.5334L183.259 32.5927ZM158.355 44.4445H161.126V25.926H158.355V44.4445Z" fill="white"/>
<path d="M15.4519 11.1704C14.9691 11.7498 14.7253 12.4915 14.7704 13.2444V46.0148C14.7253 46.7677 14.9691 47.5094 15.4519 48.0889L15.5556 48.2074L33.9112 29.8518V29.4074L15.5556 11.0667L15.4519 11.1704Z" fill="url(#paint0_linear_55995_43169)"/>
<path d="M40.0297 35.9703L33.9111 29.8518V29.4073L40.0297 23.3333H40.1778L47.4222 27.4518C49.4963 28.6221 49.4963 30.5481 47.4222 31.7333L40.1778 35.8962L40.0297 35.9703Z" fill="url(#paint1_linear_55995_43169)"/>
<path d="M40.1778 35.8815L33.9112 29.6296L15.4519 48.0889C15.8729 48.4627 16.4113 48.6776 16.9739 48.6966C17.5366 48.7155 18.0882 48.5372 18.5334 48.1926L40.1778 35.8815Z" fill="url(#paint2_linear_55995_43169)"/>
<path d="M40.1778 23.3333L18.5334 11.037C18.0911 10.6876 17.5399 10.505 16.9765 10.5213C16.4131 10.5375 15.8733 10.7516 15.4519 11.1259L33.9112 29.6296L40.1778 23.3333Z" fill="url(#paint3_linear_55995_43169)"/>
<path opacity="0.2" d="M40.0295 35.748L18.5332 47.9703C18.1046 48.2878 17.5852 48.4592 17.0517 48.4592C16.5183 48.4592 15.9989 48.2878 15.5703 47.9703L15.4666 48.074L15.5703 48.1925C15.9989 48.51 16.5183 48.6814 17.0517 48.6814C17.5852 48.6814 18.1046 48.51 18.5332 48.1925L40.1777 35.8814L40.0295 35.748Z" fill="black"/>
<path opacity="0.12" d="M15.4518 47.8814C14.9653 47.2981 14.7214 46.5504 14.7703 45.7925V46.0147C14.7252 46.7676 14.9689 47.5094 15.4518 48.0888L15.5555 47.9851L15.4518 47.8814Z" fill="black"/>
<path opacity="0.12" d="M47.4223 31.5556L40.0149 35.7482L40.163 35.8815L47.4075 31.763C47.8202 31.5691 48.1745 31.2698 48.4346 30.8952C48.6947 30.5206 48.8515 30.0841 48.889 29.6296C48.8042 30.0399 48.6284 30.426 48.3745 30.7593C48.1207 31.0926 47.7953 31.3647 47.4223 31.5556Z" fill="black"/>
<path opacity="0.25" d="M18.5332 11.289L47.4221 27.7779C47.7979 27.967 48.1262 28.2383 48.3826 28.5718C48.6391 28.9052 48.8172 29.2921 48.9036 29.7038C48.8661 29.2493 48.7094 28.8128 48.4493 28.4382C48.1892 28.0637 47.8349 27.7644 47.4221 27.5705L18.5332 11.0816C16.4592 9.8964 14.7703 10.8742 14.7703 13.2445V13.4668C14.7703 11.0964 16.474 10.1186 18.5332 11.289Z" fill="white"/>
</g>
<defs>
<linearGradient id="paint0_linear_55995_43169" x1="32.2816" y1="12.9037" x2="7.4223" y2="37.7629" gradientUnits="userSpaceOnUse">
<stop stop-color="#00A0FF"/>
<stop offset="0.01" stop-color="#00A1FF"/>
<stop offset="0.26" stop-color="#00BEFF"/>
<stop offset="0.51" stop-color="#00D2FF"/>
<stop offset="0.76" stop-color="#00DFFF"/>
<stop offset="1" stop-color="#00E3FF"/>
</linearGradient>
<linearGradient id="paint1_linear_55995_43169" x1="50.1185" y1="29.6296" x2="14.2667" y2="29.6296" gradientUnits="userSpaceOnUse">
<stop stop-color="#FFE000"/>
<stop offset="0.41" stop-color="#FFBD00"/>
<stop offset="0.78" stop-color="#FFA500"/>
<stop offset="1" stop-color="#FF9C00"/>
</linearGradient>
<linearGradient id="paint2_linear_55995_43169" x1="36.7704" y1="33.037" x2="3.0519" y2="66.7407" gradientUnits="userSpaceOnUse">
<stop stop-color="#FF3A44"/>
<stop offset="1" stop-color="#C31162"/>
</linearGradient>
<linearGradient id="paint3_linear_55995_43169" x1="10.8001" y1="0.26661" x2="25.8519" y2="15.3185" gradientUnits="userSpaceOnUse">
<stop stop-color="#32A071"/>
<stop offset="0.07" stop-color="#2DA771"/>
<stop offset="0.48" stop-color="#15CF74"/>
<stop offset="0.8" stop-color="#06E775"/>
<stop offset="1" stop-color="#00F076"/>
</linearGradient>
<clipPath id="clip0_55995_43169">
<rect width="200" height="59.2593" fill="white"/>
</clipPath>
</defs>
</svg>
