<svg viewBox="0 0 320 43" fill="#ffffff" xmlns="http://www.w3.org/2000/svg">
<path fill-rule="evenodd" clip-rule="evenodd" d="M32.4615 9.32237V27.9653L24.3461 32.6256V13.9827L16.2317 9.32237L8.11628 13.9827V32.6247L0 27.9644V9.32327L8.11628 4.66028L16.2299 0H16.2317L24.347 4.66028L32.4624 9.32057L32.4615 9.32237ZM8.11448 32.6256L16.2308 27.9644L24.3461 32.6256L32.4624 37.2859L24.3461 41.9461L16.2308 37.2859L8.11448 32.6256Z" />
<path fill-rule="evenodd" clip-rule="evenodd" d="M8.11475 32.6259L24.3379 41.9464L32.4505 37.2855L16.2252 27.9642L8.11475 32.6259Z" />
<path fill-rule="evenodd" clip-rule="evenodd" d="M24.3379 13.9821V32.6259L32.4506 27.9649V9.32178L24.3379 13.9821Z" />
<path fill-rule="evenodd" clip-rule="evenodd" d="M0 27.9652L8.11268 32.6248V13.9823L0 9.32202V27.9652Z" />
<path fill-rule="evenodd" clip-rule="evenodd" d="M-0.000244141 9.32215L8.11581 13.9824L16.2252 9.32215L24.3379 13.9824L32.4506 9.32215L16.2252 0.000244141L-0.000244141 9.32215Z" />
<path d="M59.4432 28.6711C59.5614 28.7267 59.6617 28.8142 59.733 28.9236C59.8042 29.033 59.8436 29.1601 59.8467 29.2907C59.8498 29.4212 59.8165 29.5501 59.7504 29.6627C59.6844 29.7754 59.5883 29.8675 59.4729 29.9286L58.7013 30.3658C58.4201 30.528 58.046 30.4848 57.7873 30.3306L54.499 28.4674C53.5994 28.837 52.5925 29.0299 51.4883 29.0299C47.3535 29.0299 44.0643 25.7587 44.0643 21.6465C44.0603 20.6704 44.2497 19.7033 44.6214 18.8008C44.9931 17.8983 45.5398 17.0783 46.2299 16.3881C46.9201 15.698 47.7401 15.1513 48.6426 14.7796C49.5451 14.4079 50.5122 14.2185 51.4883 14.2225C52.4654 14.2181 53.4338 14.4069 54.3376 14.7782C55.2415 15.1495 56.063 15.6958 56.755 16.3858C57.4469 17.0758 57.9955 17.8958 58.3693 18.7986C58.7431 19.7015 58.9347 20.6693 58.933 21.6465C58.933 23.5791 58.1073 25.6469 56.6371 27.0693L59.4432 28.6711V28.6711ZM149.303 21.7222C150.009 21.7198 150.686 21.4377 151.185 20.9377C151.683 20.4376 151.964 19.7603 151.965 19.054C151.965 17.6821 150.769 16.5842 149.303 16.5842H146.502V21.7222H149.303ZM146.502 28.1258C146.498 28.3132 146.422 28.4918 146.289 28.6239C146.156 28.7561 145.977 28.8315 145.79 28.8343H145.04C144.947 28.8347 144.854 28.8166 144.768 28.7812C144.681 28.7458 144.603 28.6936 144.537 28.6278C144.47 28.562 144.418 28.4838 144.382 28.3977C144.346 28.3115 144.327 28.2191 144.327 28.1258V15.1266C144.327 14.7408 144.64 14.4181 145.039 14.4181H149.401C152.012 14.4181 154.16 16.5292 154.16 19.0919C154.16 21.7069 152.022 23.8477 149.422 23.8477H146.502V28.1249V28.1258ZM157.882 15.1266C157.882 14.7444 158.211 14.4181 158.595 14.4181H159.344C159.745 14.4181 160.058 14.7408 160.058 15.1266V23.3141C160.058 25.463 161.396 26.9648 163.431 26.9648C165.495 26.9648 166.842 25.4901 166.842 23.3537V15.1275C166.842 14.7417 167.156 14.419 167.555 14.419H168.306C168.69 14.419 169.018 14.7453 169.018 15.1275V23.4322C169.018 26.6511 166.688 29.0317 163.43 29.0317C160.193 29.0317 157.882 26.652 157.882 23.4322V15.1275V15.1266ZM179.195 20.5819C180.453 20.5819 181.224 19.7346 181.224 18.4654C181.224 17.1989 180.49 16.4453 179.195 16.4453H176.315V20.5828H179.195V20.5819ZM179.531 26.8458C180.773 26.8458 181.68 25.9291 181.68 24.6887C181.68 23.5205 180.592 22.6101 179.195 22.6101H176.276V26.8458H179.53H179.531ZM184.012 24.7076C184.012 27.118 182.08 28.8343 179.372 28.8343H174.872C174.779 28.8344 174.686 28.8161 174.6 28.7805C174.514 28.7449 174.435 28.6926 174.369 28.6266C174.303 28.5607 174.25 28.4823 174.215 28.3961C174.179 28.3098 174.16 28.2174 174.16 28.124V15.1266C174.16 14.7417 174.473 14.419 174.872 14.419H179.195C181.748 14.419 183.579 16.0821 183.579 18.3671C183.579 19.6228 182.939 20.7288 181.986 21.4608C183.212 22.1341 184.012 23.2221 184.012 24.7085V24.7076ZM196.006 26.8458C196.406 26.8458 196.72 27.1685 196.72 27.5543V28.1249C196.719 28.2184 196.701 28.311 196.665 28.3973C196.629 28.4836 196.576 28.5619 196.51 28.6279C196.443 28.6939 196.365 28.7461 196.278 28.7817C196.192 28.8172 196.099 28.8354 196.006 28.8352H189.177C188.988 28.8352 188.807 28.7604 188.674 28.6273C188.54 28.4941 188.465 28.3134 188.465 28.1249V15.1266C188.465 14.7417 188.778 14.419 189.177 14.419H189.947C190.331 14.419 190.659 14.7453 190.659 15.1275V26.8458H196.006ZM200.125 15.1266C200.125 14.7453 200.454 14.4181 200.837 14.4181H201.628C202.012 14.4181 202.342 14.7444 202.342 15.1266V28.1249C202.338 28.3126 202.261 28.4914 202.128 28.6237C201.995 28.756 201.815 28.8315 201.628 28.8343H200.837C200.65 28.8311 200.471 28.7552 200.338 28.6228C200.205 28.4903 200.129 28.3115 200.125 28.124V15.1266ZM214.119 14.2225C216.068 14.2225 217.596 14.8399 219.136 16.1461C219.424 16.4345 219.446 16.8807 219.155 17.1719L218.647 17.674C218.355 18.0372 217.966 18.0147 217.648 17.6992C216.65 16.8384 215.32 16.3083 214.1 16.3083C211.224 16.3083 208.931 18.7097 208.931 21.6266C208.931 24.5265 211.228 26.9251 214.1 26.9251C215.472 26.9251 216.286 26.5573 217.658 25.5261C217.949 25.2963 218.268 25.2755 218.569 25.4793L219.14 25.9913C219.474 26.2418 219.435 26.7502 219.151 27.0324C217.786 28.3493 216.023 29.0317 214.119 29.0317C209.978 29.0317 206.656 25.7515 206.656 21.6465C206.656 17.5342 209.986 14.2225 214.119 14.2225V14.2225ZM238.992 26.8467C239.392 26.8467 239.706 27.1694 239.706 27.5552V28.1249C239.706 28.2184 239.687 28.311 239.651 28.3973C239.615 28.4836 239.562 28.5619 239.496 28.6279C239.43 28.6939 239.351 28.7461 239.265 28.7817C239.178 28.8172 239.086 28.8354 238.992 28.8352H232.163C232.07 28.8354 231.977 28.8172 231.891 28.7816C231.804 28.7461 231.726 28.6938 231.66 28.6278C231.593 28.5618 231.541 28.4834 231.505 28.3971C231.469 28.3108 231.451 28.2183 231.451 28.1249V15.1266C231.451 14.7417 231.763 14.419 232.163 14.419H232.934C233.317 14.419 233.646 14.7462 233.646 15.1275V26.8458H238.992V26.8467ZM243.111 15.1275C243.111 14.7453 243.44 14.419 243.824 14.419H244.612C244.997 14.419 245.326 14.7453 245.326 15.1275V28.1249C245.322 28.3126 245.246 28.4914 245.113 28.6237C244.979 28.756 244.8 28.8315 244.612 28.8343H243.824C243.636 28.8313 243.457 28.7555 243.324 28.623C243.191 28.4905 243.115 28.3116 243.111 28.124V15.1266V15.1275ZM255.683 20.5828C256.942 20.5828 257.713 19.7355 257.713 18.4663C257.713 17.1998 256.979 16.4462 255.683 16.4462H252.803V20.5837H255.683V20.5828ZM256.019 26.8467C257.261 26.8467 258.168 25.93 258.168 24.6896C258.168 23.5214 257.08 22.611 255.683 22.611H252.765V26.8467H256.019V26.8467ZM260.501 24.7085C260.501 27.1189 258.568 28.8352 255.86 28.8352H251.361C251.268 28.8354 251.175 28.8172 251.089 28.7817C251.002 28.7461 250.923 28.6939 250.857 28.6279C250.791 28.5619 250.738 28.4836 250.702 28.3973C250.666 28.311 250.647 28.2184 250.647 28.1249V15.1266C250.647 14.7417 250.961 14.419 251.361 14.419H255.683C258.237 14.419 260.068 16.0821 260.068 18.3671C260.068 19.6228 259.428 20.7288 258.474 21.4608C259.7 22.1341 260.501 23.2221 260.501 24.7085V24.7085ZM270.679 21.4869C272.039 21.4869 273.183 20.3538 273.183 18.9567C273.183 17.6559 272.019 16.5247 270.679 16.5247H267.188V21.4869H270.679ZM267.15 28.1249C267.146 28.3122 267.07 28.4906 266.937 28.6228C266.804 28.7549 266.625 28.8304 266.438 28.8334H265.667C265.574 28.8337 265.482 28.8157 265.395 28.7803C265.309 28.7448 265.23 28.6927 265.164 28.6269C265.098 28.5611 265.045 28.4829 265.009 28.3968C264.973 28.3106 264.955 28.2182 264.954 28.1249V15.1266C264.954 14.7399 265.267 14.4181 265.667 14.4181H270.778C273.345 14.4181 275.42 16.4228 275.42 18.9359C275.42 20.7189 274.329 22.2892 272.632 23.1022L275.163 27.7688C275.425 28.2556 275.115 28.8334 274.528 28.8334H273.522C273.396 28.8371 273.271 28.8053 273.162 28.7416C273.053 28.6778 272.964 28.5847 272.905 28.4728L270.374 23.4547H267.15V28.1249ZM286.037 20.7405C285.461 19.4443 285.141 18.7277 284.828 18.0327L282.387 23.488H287.265C286.947 22.7813 286.625 22.062 286.037 20.7405V20.7405ZM284.111 14.6209C284.167 14.4996 284.257 14.3973 284.37 14.3264C284.483 14.2554 284.614 14.219 284.748 14.2216H284.946C285.243 14.2216 285.46 14.3784 285.589 14.6362L291.55 27.8464C291.772 28.3268 291.446 28.8343 290.906 28.8343H290.116C289.98 28.8363 289.846 28.7979 289.732 28.724C289.617 28.65 289.527 28.5438 289.473 28.4187L288.103 25.3783H281.534L280.187 28.407C280.133 28.5348 280.043 28.6436 279.927 28.7197C279.811 28.7958 279.675 28.8357 279.536 28.8343H278.748C278.209 28.8343 277.882 28.3277 278.104 27.8482L284.111 14.6209V14.6209ZM300.75 21.486C302.11 21.486 303.253 20.3529 303.253 18.9558C303.253 17.655 302.089 16.5238 300.75 16.5238H297.259V21.486H300.75ZM297.219 28.1249C297.215 28.3123 297.138 28.4908 297.006 28.623C296.873 28.7552 296.694 28.8306 296.506 28.8334H295.736C295.642 28.8337 295.55 28.8157 295.463 28.7803C295.377 28.7448 295.299 28.6927 295.232 28.6269C295.166 28.5611 295.113 28.4829 295.078 28.3968C295.042 28.3106 295.023 28.2182 295.023 28.1249V15.1266C295.023 14.7408 295.336 14.4181 295.735 14.4181H300.848C303.414 14.4181 305.489 16.4228 305.489 18.9359C305.489 20.718 304.397 22.2892 302.701 23.1022L305.232 27.7697C305.493 28.2565 305.183 28.8334 304.597 28.8334H303.591C303.464 28.8375 303.339 28.8059 303.23 28.7421C303.121 28.6783 303.032 28.585 302.973 28.4728L300.443 23.4547H297.219V28.1249V28.1249ZM308.115 15.4998C308.045 15.393 308.005 15.2691 308.001 15.1414C307.996 15.0138 308.027 14.8873 308.089 14.7758C308.151 14.6643 308.243 14.572 308.354 14.5089C308.465 14.4458 308.591 14.4144 308.719 14.4181H309.645C309.886 14.4181 310.095 14.5506 310.235 14.7336L313.949 19.8355L317.665 14.7291C317.732 14.6357 317.82 14.559 317.922 14.5051C318.023 14.4511 318.136 14.4214 318.251 14.4181H319.18C319.758 14.4181 320.081 15.0175 319.768 15.5223L315.017 21.9719V28.1249C315.013 28.3126 314.937 28.4917 314.804 28.6242C314.671 28.7568 314.492 28.8324 314.304 28.8352H313.533C313.44 28.8354 313.347 28.8172 313.261 28.7816C313.174 28.7461 313.096 28.6938 313.03 28.6278C312.964 28.5618 312.911 28.4834 312.875 28.3971C312.839 28.3108 312.821 28.2183 312.821 28.1249V21.9908L308.115 15.5007V15.4998ZM63.0885 15.1707C63.0885 14.7894 63.4166 14.4631 63.8006 14.4631H64.5506C64.9517 14.4631 65.2645 14.7849 65.2645 15.1707V23.3591C65.2645 25.5081 66.6022 27.0098 68.6376 27.0098C70.7009 27.0098 72.0494 25.5351 72.0494 23.3988V15.1707C72.0494 14.7849 72.3622 14.4631 72.7615 14.4631H73.5124C73.8964 14.4631 74.2245 14.7894 74.2245 15.1707V23.4772C74.2245 26.6953 71.8953 29.075 68.6376 29.075C65.3988 29.075 63.0885 26.6962 63.0885 23.4772V15.1707V15.1707ZM87.8556 26.89C88.2558 26.89 88.5695 27.2127 88.5695 27.5994V28.1691C88.5688 28.3578 88.4932 28.5385 88.3593 28.6715C88.2255 28.8045 88.0443 28.8789 87.8556 28.8785H80.0791C79.9858 28.8787 79.8933 28.8605 79.807 28.825C79.7206 28.7895 79.6422 28.7373 79.576 28.6714C79.5099 28.6055 79.4574 28.5272 79.4215 28.441C79.3857 28.3548 79.3671 28.2624 79.367 28.1691V15.1707C79.367 14.7849 79.6789 14.4631 80.0791 14.4631H87.8556C88.2549 14.4631 88.5695 14.7849 88.5695 15.1707V15.7404C88.5693 15.834 88.5506 15.9265 88.5146 16.0128C88.4786 16.0991 88.426 16.1775 88.3597 16.2434C88.2934 16.3094 88.2147 16.3617 88.1282 16.3972C88.0418 16.4328 87.9491 16.451 87.8556 16.4507H81.562V20.5693H86.8893C87.2724 20.5693 87.6014 20.8965 87.6014 21.2769V21.8466C87.6014 22.245 87.2769 22.556 86.8893 22.556H81.562V26.89H87.8556ZM101.509 26.89C101.909 26.89 102.223 27.2127 102.223 27.5994V28.1691C102.222 28.3578 102.147 28.5385 102.013 28.6715C101.879 28.8045 101.698 28.8789 101.509 28.8785H93.7319C93.6385 28.8787 93.546 28.8605 93.4597 28.825C93.3734 28.7895 93.2949 28.7373 93.2288 28.6714C93.1626 28.6055 93.1101 28.5272 93.0743 28.441C93.0384 28.3548 93.0199 28.2624 93.0198 28.1691V15.1707C93.0198 14.7858 93.3326 14.4631 93.7319 14.4631H101.509C101.909 14.4631 102.223 14.7849 102.223 15.1707V15.7404C102.223 15.834 102.204 15.9265 102.168 16.0128C102.132 16.0991 102.08 16.1775 102.013 16.2434C101.947 16.3094 101.868 16.3617 101.782 16.3972C101.695 16.4328 101.603 16.451 101.509 16.4507H95.2147V20.5693H100.542C100.926 20.5693 101.255 20.8965 101.255 21.2769V21.8466C101.255 22.245 100.931 22.556 100.543 22.556H95.2156V26.89H101.509V26.89ZM108.79 28.17C108.79 28.2632 108.771 28.3556 108.735 28.4416C108.699 28.5277 108.647 28.6059 108.581 28.6717C108.514 28.7375 108.436 28.7896 108.35 28.8251C108.263 28.8606 108.171 28.8787 108.078 28.8785H107.386C107.199 28.8757 107.02 28.8001 106.887 28.6678C106.754 28.5354 106.678 28.3566 106.674 28.1691V14.9562C106.674 14.5713 107.003 14.2666 107.386 14.2666H107.718C107.924 14.2666 108.117 14.3595 108.245 14.519L116.483 24.7284V15.1716C116.483 14.7867 116.796 14.4631 117.196 14.4631H117.887C118.271 14.4631 118.601 14.7903 118.601 15.1716V28.3863C118.601 28.7703 118.27 29.0759 117.887 29.0759H117.695C117.594 29.0758 117.494 29.0531 117.403 29.0094C117.311 28.9658 117.231 28.9022 117.168 28.8235L108.79 18.4212V28.17ZM123.082 26.3004L123.109 26.2644C123.145 26.2193 123.177 26.1796 123.248 26.0886C123.325 25.9894 123.359 25.9462 123.395 25.9047C123.735 25.4612 124.147 25.3098 124.575 25.6767L124.682 25.7704C124.942 25.9987 125.221 26.2052 125.516 26.3879C126.223 26.8269 126.96 27.0865 127.69 27.0865C129.051 27.0865 129.997 26.2761 129.997 25.262C129.997 24.1902 129.128 23.4592 126.746 22.4694C124.078 21.3102 123.068 20.2664 123.068 18.0967C123.068 16.074 124.754 14.2666 127.611 14.2666C128.486 14.2725 129.35 14.4514 130.155 14.7931C130.432 14.9084 130.681 15.031 130.899 15.1554C131.032 15.2302 131.127 15.2906 131.139 15.3033C131.513 15.4907 131.699 15.9631 131.387 16.4571C131.358 16.5003 131.333 16.5391 131.277 16.6292L131.275 16.6346C131.235 16.6988 131.195 16.7622 131.153 16.8248C130.874 17.2593 130.476 17.3729 130.013 17.1133C130.005 17.1097 129.827 17.0024 129.738 16.951C129.566 16.8519 129.39 16.7601 129.21 16.6761C128.683 16.4309 128.168 16.2777 127.701 16.256C127.665 16.2543 127.628 16.2534 127.592 16.2533C126.015 16.2533 125.206 17.0962 125.206 18.0769C125.206 19.1189 125.933 19.8193 127.659 20.535C130.976 21.8781 132.253 22.9995 132.253 25.2043C132.253 27.4056 130.187 29.075 127.651 29.075C126.601 29.072 125.567 28.8169 124.637 28.3313C124.14 28.0829 123.679 27.7704 123.264 27.402L123.222 27.3659C122.893 27.0756 122.799 26.7439 123.082 26.3004V26.3004ZM51.4883 26.9837C54.4449 26.9837 56.8733 24.5787 56.8733 21.6465C56.8733 18.7061 54.4359 16.2687 51.4883 16.2687C48.5443 16.2687 46.1231 18.7025 46.1231 21.6465C46.1231 24.5823 48.5362 26.9828 51.4883 26.9828V26.9837Z" />
</svg>
