<svg viewBox="0 0 324 265" fill="none" xmlns="http://www.w3.org/2000/svg">
<path d="M21.5527 153.725C20.5563 153.666 18.0984 153.607 16.2236 153.607C14.3488 153.607 11.8909 153.666 10.8944 153.725C10.8354 153.725 10.7763 153.548 10.8354 153.489C12.9464 152.67 13.8247 151.503 13.8247 146.595V115.528H10.3113C4.56888 115.528 2.17003 116.812 0.236194 122.068C0.177145 122.127 0 122.068 0 122.009C0.236194 118.621 0.236191 114.886 0.118094 112.841C0.118094 112.723 0.177141 112.664 0.295238 112.664C1.46883 112.723 5.68341 112.782 8.43655 112.782H24.018C26.7711 112.782 30.9857 112.723 32.1593 112.664C32.2774 112.664 32.3364 112.723 32.3364 112.841C32.2183 114.886 32.2183 118.621 32.4545 122.009C32.4545 122.068 32.2774 122.127 32.2183 122.068C30.2845 116.812 27.8857 115.528 22.1432 115.528H18.6298V146.595C18.6298 151.503 19.5081 152.67 21.6191 153.489C21.6708 153.548 21.6118 153.725 21.5527 153.725Z" fill="#D3BA81"/>
<path d="M21.5527 153.725C20.5563 153.666 18.0984 153.607 16.2236 153.607C14.3488 153.607 11.8909 153.666 10.8944 153.725C10.8354 153.725 10.7763 153.548 10.8354 153.489C12.9464 152.67 13.8247 151.503 13.8247 146.595V115.528H10.3113C4.56888 115.528 2.17003 116.812 0.236194 122.068C0.177145 122.127 0 122.068 0 122.009C0.236194 118.621 0.236191 114.886 0.118094 112.841C0.118094 112.723 0.177141 112.664 0.295238 112.664C1.46883 112.723 5.68341 112.782 8.43655 112.782H24.018C26.7711 112.782 30.9857 112.723 32.1593 112.664C32.2774 112.664 32.3364 112.723 32.3364 112.841C32.2183 114.886 32.2183 118.621 32.4545 122.009C32.4545 122.068 32.2774 122.127 32.2183 122.068C30.2845 116.812 27.8857 115.528 22.1432 115.528H18.6298V146.595C18.6298 151.503 19.5081 152.67 21.6191 153.489C21.6708 153.548 21.6118 153.725 21.5527 153.725Z" fill="#D3BA81"/>
<path d="M51.2464 115.536H43.9835V132.298H51.2464C57.7491 132.298 60.613 129.73 60.613 123.891C60.6204 118.046 57.7491 115.536 51.2464 115.536ZM56.5165 134.395L62.9011 146.249C64.835 149.865 66.6507 151.445 68.8134 151.445C69.3374 151.445 69.9869 151.268 69.9869 151.268C70.046 151.268 70.1641 151.445 70.1641 151.504C69.5219 152.847 67.8243 154.073 65.5952 154.073C62.4287 154.073 60.613 152.434 58.2732 148.057L51.3645 135.037H43.9835V146.596C43.9835 151.504 44.8618 152.67 46.9728 153.49C47.0318 153.549 46.9728 153.726 46.9137 153.726C45.9173 153.667 43.4594 153.608 41.5846 153.608C39.7098 153.608 37.4291 153.667 36.4326 153.726C36.3736 153.726 36.3145 153.549 36.3736 153.49C38.3074 152.67 39.1858 151.622 39.1858 146.891V119.559C39.1858 114.827 38.3074 113.779 36.3736 112.96C36.3145 112.901 36.3736 112.724 36.4326 112.724C36.4326 112.724 38.1893 112.783 42.5811 112.783H51.3055C60.6204 112.783 65.6543 116.348 65.6543 123.707C65.6543 129.722 62.4361 133.288 56.5165 134.395Z" fill="#D3BA81"/>
<path d="M51.2464 115.536H43.9835V132.298H51.2464C57.7491 132.298 60.613 129.73 60.613 123.891C60.6204 118.046 57.7491 115.536 51.2464 115.536ZM56.5165 134.395L62.9011 146.249C64.835 149.865 66.6507 151.445 68.8134 151.445C69.3374 151.445 69.9869 151.268 69.9869 151.268C70.046 151.268 70.1641 151.445 70.1641 151.504C69.5219 152.847 67.8243 154.073 65.5952 154.073C62.4287 154.073 60.613 152.434 58.2732 148.057L51.3645 135.037H43.9835V146.596C43.9835 151.504 44.8618 152.67 46.9728 153.49C47.0318 153.549 46.9728 153.726 46.9137 153.726C45.9173 153.667 43.4594 153.608 41.5846 153.608C39.7098 153.608 37.4291 153.667 36.4326 153.726C36.3736 153.726 36.3145 153.549 36.3736 153.49C38.3074 152.67 39.1858 151.622 39.1858 146.891V119.559C39.1858 114.827 38.3074 113.779 36.3736 112.96C36.3145 112.901 36.3736 112.724 36.4326 112.724C36.4326 112.724 38.1893 112.783 42.5811 112.783H51.3055C60.6204 112.783 65.6543 116.348 65.6543 123.707C65.6543 129.722 62.4361 133.288 56.5165 134.395Z" fill="#D3BA81"/>
<path d="M104.139 153.784C102.965 153.725 98.7507 153.666 95.9975 153.666H80.5933C76.2015 153.666 74.4448 153.725 74.4448 153.725C74.3858 153.725 74.3267 153.548 74.3858 153.489C76.3196 152.67 77.198 151.622 77.198 146.89V119.558C77.198 114.827 76.3196 113.779 74.3858 112.96C74.3267 112.9 74.3858 112.723 74.4448 112.723C74.4448 112.723 76.2015 112.782 80.5933 112.782H94.4697C97.2228 112.782 101.437 112.723 102.611 112.664C102.729 112.664 102.788 112.723 102.788 112.841C102.67 114.709 102.67 118.038 102.906 121.189C102.906 121.248 102.729 121.308 102.67 121.248C100.795 116.635 97.8649 115.528 92.5949 115.528H81.9957V131.235H89.4948C95.0011 131.235 96.8168 130.298 98.1011 127.382C98.1602 127.323 98.3373 127.382 98.3373 127.441C98.2192 128.489 98.1602 130.711 98.1602 132.578C98.1602 134.446 98.2192 136.668 98.3373 137.716C98.3373 137.775 98.1602 137.834 98.1011 137.775C96.8095 134.852 94.9937 133.922 89.4948 133.922H81.9957V150.913H93.5323C99.8578 150.913 102.257 149.857 104.191 144.602C104.25 144.543 104.427 144.602 104.427 144.661C104.191 148.049 104.191 151.555 104.309 153.6C104.309 153.725 104.25 153.784 104.139 153.784Z" fill="#D3BA81"/>
<path d="M104.139 153.784C102.965 153.725 98.7507 153.666 95.9975 153.666H80.5933C76.2015 153.666 74.4448 153.725 74.4448 153.725C74.3858 153.725 74.3267 153.548 74.3858 153.489C76.3196 152.67 77.198 151.622 77.198 146.89V119.558C77.198 114.827 76.3196 113.779 74.3858 112.96C74.3267 112.9 74.3858 112.723 74.4448 112.723C74.4448 112.723 76.2015 112.782 80.5933 112.782H94.4697C97.2228 112.782 101.437 112.723 102.611 112.664C102.729 112.664 102.788 112.723 102.788 112.841C102.67 114.709 102.67 118.038 102.906 121.189C102.906 121.248 102.729 121.308 102.67 121.248C100.795 116.635 97.8649 115.528 92.5949 115.528H81.9957V131.235H89.4948C95.0011 131.235 96.8168 130.298 98.1011 127.382C98.1602 127.323 98.3373 127.382 98.3373 127.441C98.2192 128.489 98.1602 130.711 98.1602 132.578C98.1602 134.446 98.2192 136.668 98.3373 137.716C98.3373 137.775 98.1602 137.834 98.1011 137.775C96.8095 134.852 94.9937 133.922 89.4948 133.922H81.9957V150.913H93.5323C99.8578 150.913 102.257 149.857 104.191 144.602C104.25 144.543 104.427 144.602 104.427 144.661C104.191 148.049 104.191 151.555 104.309 153.6C104.309 153.725 104.25 153.784 104.139 153.784Z" fill="#D3BA81"/>
<path d="M133.126 138.661L125.863 120.969L118.6 138.661H133.126ZM135.296 153.726C135.237 153.667 135.237 153.438 135.237 153.438C137.754 152.501 138.337 151.216 136.056 145.732L134.3 141.466H117.493L115.972 145.142C113.751 150.515 113.802 152.146 117.146 153.438C117.146 153.438 117.146 153.674 117.087 153.726C116.031 153.667 113.92 153.608 111.935 153.608C110.178 153.608 108.008 153.667 106.783 153.726C106.724 153.667 106.724 153.438 106.724 153.438C109.359 152.213 110.532 150.515 112.754 145.142L126.638 111.388C126.697 111.329 126.933 111.329 126.992 111.388L141.223 145.725C143.511 151.275 144.33 152.264 146.375 153.431C146.375 153.431 146.375 153.667 146.316 153.718C145.024 153.659 143.208 153.6 140.751 153.6C138.344 153.608 136.411 153.667 135.296 153.726Z" fill="#D3BA81"/>
<path d="M133.126 138.661L125.863 120.969L118.6 138.661H133.126ZM135.296 153.726C135.237 153.667 135.237 153.438 135.237 153.438C137.754 152.501 138.337 151.216 136.056 145.732L134.3 141.466H117.493L115.972 145.142C113.751 150.515 113.802 152.146 117.146 153.438C117.146 153.438 117.146 153.674 117.087 153.726C116.031 153.667 113.92 153.608 111.935 153.608C110.178 153.608 108.008 153.667 106.783 153.726C106.724 153.667 106.724 153.438 106.724 153.438C109.359 152.213 110.532 150.515 112.754 145.142L126.638 111.388C126.697 111.329 126.933 111.329 126.992 111.388L141.223 145.725C143.511 151.275 144.33 152.264 146.375 153.431C146.375 153.431 146.375 153.667 146.316 153.718C145.024 153.659 143.208 153.6 140.751 153.6C138.344 153.608 136.411 153.667 135.296 153.726Z" fill="#D3BA81"/>
<path d="M170.141 113.491C170.783 113.491 171.426 113.255 171.78 113.026C171.839 113.026 172.016 113.085 172.016 113.144C172.016 116.126 172.252 119.042 172.717 122.024C172.717 122.083 172.54 122.142 172.481 122.083C169.787 117.064 165.801 114.665 161.528 114.665C157.372 114.665 154.501 117.233 154.501 121.086C154.501 125.699 157.719 126.984 164.104 129.966C169.256 132.357 175.234 135.339 175.234 142.462C175.234 149.703 170.2 154.552 162.347 154.552C156.198 154.552 152.449 151.747 150.515 151.747C149.991 151.747 149.46 151.924 149.113 152.153C149.054 152.153 148.876 152.094 148.935 152.035C149.467 149.171 149.755 146.079 150.05 142.167C150.05 142.108 150.286 142.108 150.286 142.108C151.984 147.828 155.615 151.799 162.524 151.799C168.089 151.799 170.961 148.529 170.961 143.975C170.961 139.244 168.266 137.664 161.587 134.571C156.376 132.18 150.227 129.604 150.227 122.658C150.227 116.119 155.32 111.912 161.646 111.912C165.462 111.912 167.979 113.491 170.141 113.491Z" fill="#D3BA81"/>
<path d="M170.141 113.491C170.783 113.491 171.426 113.255 171.78 113.026C171.839 113.026 172.016 113.085 172.016 113.144C172.016 116.126 172.252 119.042 172.717 122.024C172.717 122.083 172.54 122.142 172.481 122.083C169.787 117.064 165.801 114.665 161.528 114.665C157.372 114.665 154.501 117.233 154.501 121.086C154.501 125.699 157.719 126.984 164.104 129.966C169.256 132.357 175.234 135.339 175.234 142.462C175.234 149.703 170.2 154.552 162.347 154.552C156.198 154.552 152.449 151.747 150.515 151.747C149.991 151.747 149.46 151.924 149.113 152.153C149.054 152.153 148.876 152.094 148.935 152.035C149.467 149.171 149.755 146.079 150.05 142.167C150.05 142.108 150.286 142.108 150.286 142.108C151.984 147.828 155.615 151.799 162.524 151.799C168.089 151.799 170.961 148.529 170.961 143.975C170.961 139.244 168.266 137.664 161.587 134.571C156.376 132.18 150.227 129.604 150.227 122.658C150.227 116.119 155.32 111.912 161.646 111.912C165.462 111.912 167.979 113.491 170.141 113.491Z" fill="#D3BA81"/>
<path d="M183.444 138.366V119.559C183.444 114.827 182.566 113.779 180.632 112.96C180.573 112.901 180.632 112.724 180.691 112.724C181.687 112.783 183.968 112.842 185.843 112.842C187.718 112.842 189.998 112.783 190.995 112.724C191.054 112.724 191.113 112.901 191.054 112.96C189.12 113.779 188.242 114.827 188.242 119.559V138.476C188.242 147.644 192.279 151.15 199.66 151.15C206.746 151.15 210.791 147.12 210.791 138.07V120.843C210.791 115.824 210.031 113.957 207.396 112.96C207.337 112.901 207.396 112.724 207.455 112.724C208.51 112.783 210.326 112.842 212.319 112.842C214.371 112.842 216.186 112.783 217.183 112.724C217.242 112.724 217.301 112.901 217.242 112.96C214.607 113.957 213.847 115.824 213.847 120.843V138.248C213.847 149.578 207.816 154.538 198.797 154.538C189.474 154.545 183.444 149.578 183.444 138.366Z" fill="#D3BA81"/>
<path d="M183.444 138.366V119.559C183.444 114.827 182.566 113.779 180.632 112.96C180.573 112.901 180.632 112.724 180.691 112.724C181.687 112.783 183.968 112.842 185.843 112.842C187.718 112.842 189.998 112.783 190.995 112.724C191.054 112.724 191.113 112.901 191.054 112.96C189.12 113.779 188.242 114.827 188.242 119.559V138.476C188.242 147.644 192.279 151.15 199.66 151.15C206.746 151.15 210.791 147.12 210.791 138.07V120.843C210.791 115.824 210.031 113.957 207.396 112.96C207.337 112.901 207.396 112.724 207.455 112.724C208.51 112.783 210.326 112.842 212.319 112.842C214.371 112.842 216.186 112.783 217.183 112.724C217.242 112.724 217.301 112.901 217.242 112.96C214.607 113.957 213.847 115.824 213.847 120.843V138.248C213.847 149.578 207.816 154.538 198.797 154.538C189.474 154.545 183.444 149.578 183.444 138.366Z" fill="#D3BA81"/>
<path d="M238.379 115.536H231.116V132.298H238.379C244.881 132.298 247.752 129.73 247.752 123.891C247.745 118.046 244.874 115.536 238.379 115.536ZM243.649 134.395L250.033 146.249C251.967 149.865 253.783 151.445 255.945 151.445C256.47 151.445 257.119 151.268 257.119 151.268C257.178 151.268 257.296 151.445 257.296 151.504C256.654 152.847 254.956 154.073 252.727 154.073C249.561 154.073 247.752 152.434 245.405 148.057L238.497 135.037H231.116V146.596C231.116 151.504 231.994 152.67 234.105 153.49C234.164 153.549 234.105 153.726 234.046 153.726C233.049 153.667 230.591 153.608 228.717 153.608C226.842 153.608 224.561 153.667 223.565 153.726C223.506 153.726 223.447 153.549 223.506 153.49C225.439 152.67 226.318 151.622 226.318 146.891V119.559C226.318 114.827 225.439 113.779 223.506 112.96C223.447 112.901 223.506 112.724 223.565 112.724C223.565 112.724 225.321 112.783 229.713 112.783H238.438C247.752 112.783 252.786 116.348 252.786 123.707C252.786 129.722 249.561 133.288 243.649 134.395Z" fill="#D3BA81"/>
<path d="M238.379 115.536H231.116V132.298H238.379C244.881 132.298 247.752 129.73 247.752 123.891C247.745 118.046 244.874 115.536 238.379 115.536ZM243.649 134.395L250.033 146.249C251.967 149.865 253.783 151.445 255.945 151.445C256.47 151.445 257.119 151.268 257.119 151.268C257.178 151.268 257.296 151.445 257.296 151.504C256.654 152.847 254.956 154.073 252.727 154.073C249.561 154.073 247.752 152.434 245.405 148.057L238.497 135.037H231.116V146.596C231.116 151.504 231.994 152.67 234.105 153.49C234.164 153.549 234.105 153.726 234.046 153.726C233.049 153.667 230.591 153.608 228.717 153.608C226.842 153.608 224.561 153.667 223.565 153.726C223.506 153.726 223.447 153.549 223.506 153.49C225.439 152.67 226.318 151.622 226.318 146.891V119.559C226.318 114.827 225.439 113.779 223.506 112.96C223.447 112.901 223.506 112.724 223.565 112.724C223.565 112.724 225.321 112.783 229.713 112.783H238.438C247.752 112.783 252.786 116.348 252.786 123.707C252.786 129.722 249.561 133.288 243.649 134.395Z" fill="#D3BA81"/>
<path d="M291.728 153.784C290.554 153.725 286.34 153.666 283.586 153.666H268.182C263.79 153.666 262.034 153.725 262.034 153.725C261.975 153.725 261.916 153.548 261.975 153.489C263.908 152.67 264.787 151.622 264.787 146.89V119.558C264.787 114.827 263.908 113.779 261.975 112.96C261.916 112.9 261.975 112.723 262.034 112.723C262.034 112.723 263.79 112.782 268.182 112.782H282.066C284.819 112.782 289.034 112.723 290.207 112.664C290.325 112.664 290.384 112.723 290.384 112.841C290.266 114.709 290.266 118.038 290.502 121.189C290.502 121.248 290.325 121.308 290.266 121.248C288.391 116.635 285.461 115.528 280.191 115.528H269.592V131.235H277.091C282.597 131.235 284.413 130.298 285.697 127.382C285.756 127.323 285.934 127.382 285.934 127.441C285.815 128.489 285.756 130.711 285.756 132.578C285.756 134.446 285.815 136.668 285.934 137.716C285.934 137.775 285.756 137.834 285.697 137.775C284.406 134.852 282.59 133.922 277.091 133.922H269.592V150.913H281.129C287.454 150.913 289.853 149.857 291.787 144.602C291.846 144.543 292.023 144.602 292.023 144.661C291.787 148.049 291.787 151.555 291.905 153.6C291.905 153.725 291.846 153.784 291.728 153.784Z" fill="#D3BA81"/>
<path d="M291.728 153.784C290.554 153.725 286.34 153.666 283.586 153.666H268.182C263.79 153.666 262.034 153.725 262.034 153.725C261.975 153.725 261.916 153.548 261.975 153.489C263.908 152.67 264.787 151.622 264.787 146.89V119.558C264.787 114.827 263.908 113.779 261.975 112.96C261.916 112.9 261.975 112.723 262.034 112.723C262.034 112.723 263.79 112.782 268.182 112.782H282.066C284.819 112.782 289.034 112.723 290.207 112.664C290.325 112.664 290.384 112.723 290.384 112.841C290.266 114.709 290.266 118.038 290.502 121.189C290.502 121.248 290.325 121.308 290.266 121.248C288.391 116.635 285.461 115.528 280.191 115.528H269.592V131.235H277.091C282.597 131.235 284.413 130.298 285.697 127.382C285.756 127.323 285.934 127.382 285.934 127.441C285.815 128.489 285.756 130.711 285.756 132.578C285.756 134.446 285.815 136.668 285.934 137.716C285.934 137.775 285.756 137.834 285.697 137.775C284.406 134.852 282.59 133.922 277.091 133.922H269.592V150.913H281.129C287.454 150.913 289.853 149.857 291.787 144.602C291.846 144.543 292.023 144.602 292.023 144.661C291.787 148.049 291.787 151.555 291.905 153.6C291.905 153.725 291.846 153.784 291.728 153.784Z" fill="#D3BA81"/>
<path d="M318.907 113.491C319.549 113.491 320.191 113.255 320.546 113.026C320.605 113.026 320.782 113.085 320.782 113.144C320.782 116.126 321.018 119.042 321.483 122.024C321.483 122.083 321.306 122.142 321.247 122.083C318.553 117.064 314.567 114.665 310.293 114.665C306.138 114.665 303.267 117.233 303.267 121.086C303.267 125.699 306.485 126.984 312.869 129.966C318.021 132.357 324 135.339 324 142.462C324 149.703 318.966 154.552 311.113 154.552C304.964 154.552 301.215 151.747 299.281 151.747C298.757 151.747 298.225 151.924 297.878 152.153C297.819 152.153 297.642 152.094 297.701 152.035C298.225 149.171 298.521 146.079 298.816 142.167C298.816 142.108 299.052 142.108 299.052 142.108C300.75 147.828 304.381 151.799 311.29 151.799C316.855 151.799 319.726 148.529 319.726 143.975C319.726 139.244 317.032 137.664 310.352 134.571C305.141 132.18 298.993 129.604 298.993 122.658C298.993 116.119 304.086 111.912 310.412 111.912C314.22 111.912 316.744 113.491 318.907 113.491Z" fill="#D3BA81"/>
<path d="M318.907 113.491C319.549 113.491 320.191 113.255 320.546 113.026C320.605 113.026 320.782 113.085 320.782 113.144C320.782 116.126 321.018 119.042 321.483 122.024C321.483 122.083 321.306 122.142 321.247 122.083C318.553 117.064 314.567 114.665 310.293 114.665C306.138 114.665 303.267 117.233 303.267 121.086C303.267 125.699 306.485 126.984 312.869 129.966C318.021 132.357 324 135.339 324 142.462C324 149.703 318.966 154.552 311.113 154.552C304.964 154.552 301.215 151.747 299.281 151.747C298.757 151.747 298.225 151.924 297.878 152.153C297.819 152.153 297.642 152.094 297.701 152.035C298.225 149.171 298.521 146.079 298.816 142.167C298.816 142.108 299.052 142.108 299.052 142.108C300.75 147.828 304.381 151.799 311.29 151.799C316.855 151.799 319.726 148.529 319.726 143.975C319.726 139.244 317.032 137.664 310.352 134.571C305.141 132.18 298.993 129.604 298.993 122.658C298.993 116.119 304.086 111.912 310.412 111.912C314.22 111.912 316.744 113.491 318.907 113.491Z" fill="#D3BA81"/>
<path d="M43.5654 89.5545C43.5875 89.4881 43.7056 89.3848 43.7794 89.3848C44.2001 89.5545 45.4918 89.8793 46.5252 90.0638C46.5916 90.1007 46.5621 90.3517 46.4957 90.3886C45.049 90.5584 44.3847 91.1636 43.9049 92.9572L43.5949 94.1234L52.216 96.4337C53.5889 96.8027 54.1793 96.6994 54.8289 95.8801C54.8732 95.858 55.0872 95.9465 55.0946 96.0056C54.9101 96.5518 54.7108 97.2308 54.5115 97.9763C54.3122 98.7292 54.1498 99.4083 54.0317 99.9766C54.0022 100.028 53.766 99.9987 53.7365 99.9545C53.5815 98.9285 53.1239 98.5447 51.751 98.1756L43.1299 95.8653L42.8199 97.0316C42.3401 98.8252 42.6132 99.6814 43.7794 100.552C43.8163 100.619 43.7204 100.855 43.6466 100.848C42.6575 100.493 41.3806 100.124 40.9303 100.065C40.8639 100.028 40.8122 99.8806 40.827 99.8142C40.982 99.5042 41.2772 98.6849 41.757 96.9061L42.9306 92.5143C43.3956 90.7576 43.5432 89.9088 43.5654 89.5545Z" fill="#05002F"/>
<path d="M43.5654 89.5545C43.5875 89.4881 43.7056 89.3848 43.7794 89.3848C44.2001 89.5545 45.4918 89.8793 46.5252 90.0638C46.5916 90.1007 46.5621 90.3517 46.4957 90.3886C45.049 90.5584 44.3847 91.1636 43.9049 92.9572L43.5949 94.1234L52.216 96.4337C53.5889 96.8027 54.1793 96.6994 54.8289 95.8801C54.8732 95.858 55.0872 95.9465 55.0946 96.0056C54.9101 96.5518 54.7108 97.2308 54.5115 97.9763C54.3122 98.7292 54.1498 99.4083 54.0317 99.9766C54.0022 100.028 53.766 99.9987 53.7365 99.9545C53.5815 98.9285 53.1239 98.5447 51.751 98.1756L43.1299 95.8653L42.8199 97.0316C42.3401 98.8252 42.6132 99.6814 43.7794 100.552C43.8163 100.619 43.7204 100.855 43.6466 100.848C42.6575 100.493 41.3806 100.124 40.9303 100.065C40.8639 100.028 40.8122 99.8806 40.827 99.8142C40.982 99.5042 41.2772 98.6849 41.757 96.9061L42.9306 92.5143C43.3956 90.7576 43.5432 89.9088 43.5654 89.5545Z" fill="#05002F"/>
<path d="M52.1178 86.1002L55.1809 87.3254C56.4504 87.8347 57.0409 87.8199 57.72 87.1409C57.7643 87.1187 57.9709 87.2442 57.9709 87.2959C57.7274 87.7978 57.469 88.4104 57.1885 89.0969C56.9154 89.7833 56.6866 90.4107 56.5095 90.9421C56.4726 90.9864 56.2438 90.9347 56.2216 90.8831C56.1995 89.9235 55.7861 89.5028 54.5092 88.9935L47.512 86.1961C46.2424 85.6868 45.6519 85.7016 44.9729 86.3806C44.9286 86.4028 44.7219 86.2773 44.7219 86.2256C44.9655 85.7237 45.2238 85.1111 45.5043 84.4246C45.7774 83.7382 46.0062 83.1108 46.1834 82.5794C46.2203 82.5351 46.4491 82.5868 46.4712 82.6384C46.4934 83.598 46.9067 84.0187 48.1836 84.528L51.1287 85.7089L53.6087 79.5015L50.6637 78.3205C49.3941 77.8112 48.8037 77.826 48.1246 78.505C48.0803 78.5272 47.8736 78.4017 47.8736 78.35C48.1172 77.8481 48.3756 77.2281 48.656 76.5491C48.9291 75.8626 49.1579 75.2352 49.3351 74.7038C49.372 74.6595 49.6008 74.7112 49.623 74.7628C49.6451 75.7224 50.0584 76.1431 51.3354 76.6524L58.3326 79.4498C59.6022 79.9591 60.1926 79.9443 60.8717 79.2579C60.916 79.2358 61.1227 79.3612 61.1227 79.4129C60.8791 79.9148 60.6207 80.5274 60.3403 81.2139C60.0672 81.9003 59.8383 82.5277 59.6612 83.0591C59.6243 83.1034 59.3955 83.0518 59.3733 83.0001C59.3512 82.0406 58.9379 81.6198 57.6609 81.1106L54.5978 79.8853L52.1178 86.1002Z" fill="#05002F"/>
<path d="M52.1178 86.1002L55.1809 87.3254C56.4504 87.8347 57.0409 87.8199 57.72 87.1409C57.7643 87.1187 57.9709 87.2442 57.9709 87.2959C57.7274 87.7978 57.469 88.4104 57.1885 89.0969C56.9154 89.7833 56.6866 90.4107 56.5095 90.9421C56.4726 90.9864 56.2438 90.9347 56.2216 90.8831C56.1995 89.9235 55.7861 89.5028 54.5092 88.9935L47.512 86.1961C46.2424 85.6868 45.6519 85.7016 44.9729 86.3806C44.9286 86.4028 44.7219 86.2773 44.7219 86.2256C44.9655 85.7237 45.2238 85.1111 45.5043 84.4246C45.7774 83.7382 46.0062 83.1108 46.1834 82.5794C46.2203 82.5351 46.4491 82.5868 46.4712 82.6384C46.4934 83.598 46.9067 84.0187 48.1836 84.528L51.1287 85.7089L53.6087 79.5015L50.6637 78.3205C49.3941 77.8112 48.8037 77.826 48.1246 78.505C48.0803 78.5272 47.8736 78.4017 47.8736 78.35C48.1172 77.8481 48.3756 77.2281 48.656 76.5491C48.9291 75.8626 49.1579 75.2352 49.3351 74.7038C49.372 74.6595 49.6008 74.7112 49.623 74.7628C49.6451 75.7224 50.0584 76.1431 51.3354 76.6524L58.3326 79.4498C59.6022 79.9591 60.1926 79.9443 60.8717 79.2579C60.916 79.2358 61.1227 79.3612 61.1227 79.4129C60.8791 79.9148 60.6207 80.5274 60.3403 81.2139C60.0672 81.9003 59.8383 82.5277 59.6612 83.0591C59.6243 83.1034 59.3955 83.0518 59.3733 83.0001C59.3512 82.0406 58.9379 81.6198 57.6609 81.1106L54.5978 79.8853L52.1178 86.1002Z" fill="#05002F"/>
<path d="M62.3914 76.9182C62.3471 76.9551 62.1257 76.8739 62.1109 76.8296C62.1774 75.8774 61.7935 75.3829 60.4502 74.6448L54.3903 71.3307C52.9067 70.5188 52.2351 70.4598 51.4822 71.0133C51.4305 71.0281 51.246 70.8805 51.2534 70.8288C51.5117 70.3933 51.9029 69.7216 52.2351 69.109L54.2058 65.4997C55.0842 63.8906 55.4385 63.0934 55.5418 62.7613C55.5787 62.6949 55.7189 62.6284 55.7854 62.6506C56.1544 62.9163 57.0992 63.4108 58.0587 63.8316C58.1104 63.8832 58.0218 64.1194 57.948 64.1416C56.6932 63.994 55.9846 64.4663 55.1432 66.0016L53.5858 68.8507L57.6823 71.0945L58.7378 69.1607C59.2987 68.1347 59.4095 67.3745 58.8485 66.5921C58.819 66.533 58.9814 66.3116 59.033 66.3264C59.343 66.5183 59.9999 66.8947 60.4354 67.1383C60.8783 67.3819 61.55 67.7288 61.8747 67.8838C61.9116 67.928 61.8157 68.179 61.7493 68.1864C60.7897 68.1347 60.2066 68.6366 59.6457 69.67L58.5902 71.5964L62.7826 73.892L64.436 70.8731C65.3365 69.2271 65.3069 68.4152 64.3105 67.2342C64.2883 67.1604 64.4433 66.9538 64.5098 66.9759C65.4693 67.5811 66.4584 68.1052 66.9308 68.2971C66.9972 68.334 67.0267 68.4964 66.9972 68.5554C66.8201 68.8064 66.4805 69.3452 65.3881 71.3529L63.2993 75.1836C62.9745 75.7815 62.6202 76.4679 62.3914 76.9182Z" fill="#05002F"/>
<path d="M62.3914 76.9182C62.3471 76.9551 62.1257 76.8739 62.1109 76.8296C62.1774 75.8774 61.7935 75.3829 60.4502 74.6448L54.3903 71.3307C52.9067 70.5188 52.2351 70.4598 51.4822 71.0133C51.4305 71.0281 51.246 70.8805 51.2534 70.8288C51.5117 70.3933 51.9029 69.7216 52.2351 69.109L54.2058 65.4997C55.0842 63.8906 55.4385 63.0934 55.5418 62.7613C55.5787 62.6949 55.7189 62.6284 55.7854 62.6506C56.1544 62.9163 57.0992 63.4108 58.0587 63.8316C58.1104 63.8832 58.0218 64.1194 57.948 64.1416C56.6932 63.994 55.9846 64.4663 55.1432 66.0016L53.5858 68.8507L57.6823 71.0945L58.7378 69.1607C59.2987 68.1347 59.4095 67.3745 58.8485 66.5921C58.819 66.533 58.9814 66.3116 59.033 66.3264C59.343 66.5183 59.9999 66.8947 60.4354 67.1383C60.8783 67.3819 61.55 67.7288 61.8747 67.8838C61.9116 67.928 61.8157 68.179 61.7493 68.1864C60.7897 68.1347 60.2066 68.6366 59.6457 69.67L58.5902 71.5964L62.7826 73.892L64.436 70.8731C65.3365 69.2271 65.3069 68.4152 64.3105 67.2342C64.2883 67.1604 64.4433 66.9538 64.5098 66.9759C65.4693 67.5811 66.4584 68.1052 66.9308 68.2971C66.9972 68.334 67.0267 68.4964 66.9972 68.5554C66.8201 68.8064 66.4805 69.3452 65.3881 71.3529L63.2993 75.1836C62.9745 75.7815 62.6202 76.4679 62.3914 76.9182Z" fill="#05002F"/>
<path d="M77.8315 53.5276L64.8261 53.8819L70.2216 58.1038C71.5724 59.1593 72.2145 59.3586 73.1962 58.8936C73.2479 58.8862 73.4103 59.056 73.3881 59.115C73.115 59.4324 72.6722 59.9712 72.3031 60.4436C71.934 60.916 71.5207 61.477 71.2771 61.8165C71.2255 61.846 71.0188 61.7353 71.0188 61.6836C71.2329 60.6134 70.8859 60.0451 69.5352 58.9896L64.1249 54.7602C63.0472 53.9188 62.3977 53.749 61.5563 54.1476C61.5046 54.155 61.3422 53.9778 61.3644 53.9261C61.6448 53.594 62.0729 53.0847 62.4494 52.5976C62.8849 52.044 63.1211 51.7045 63.4163 51.269C63.4606 51.2395 63.6156 51.2468 63.6746 51.2911C64.0216 51.8373 64.6046 52.0661 65.6823 52.0366L74.7019 51.8595L69.8747 48.0877C68.524 47.0322 67.8818 46.8256 66.9002 47.298C66.8485 47.3053 66.6861 47.1282 66.7083 47.0765C66.974 46.7591 67.4242 46.2203 67.7933 45.7479C68.1623 45.2829 68.5757 44.7146 68.8192 44.375C68.8635 44.3455 69.0702 44.4563 69.0776 44.5079C68.8635 45.5782 69.2104 46.1465 70.5612 47.202L78.0603 53.0626C78.0899 53.129 77.9201 53.4981 77.8315 53.5276Z" fill="#05002F"/>
<path d="M77.8315 53.5276L64.8261 53.8819L70.2216 58.1038C71.5724 59.1593 72.2145 59.3586 73.1962 58.8936C73.2479 58.8862 73.4103 59.056 73.3881 59.115C73.115 59.4324 72.6722 59.9712 72.3031 60.4436C71.934 60.916 71.5207 61.477 71.2771 61.8165C71.2255 61.846 71.0188 61.7353 71.0188 61.6836C71.2329 60.6134 70.8859 60.0451 69.5352 58.9896L64.1249 54.7602C63.0472 53.9188 62.3977 53.749 61.5563 54.1476C61.5046 54.155 61.3422 53.9778 61.3644 53.9261C61.6448 53.594 62.0729 53.0847 62.4494 52.5976C62.8849 52.044 63.1211 51.7045 63.4163 51.269C63.4606 51.2395 63.6156 51.2468 63.6746 51.2911C64.0216 51.8373 64.6046 52.0661 65.6823 52.0366L74.7019 51.8595L69.8747 48.0877C68.524 47.0322 67.8818 46.8256 66.9002 47.298C66.8485 47.3053 66.6861 47.1282 66.7083 47.0765C66.974 46.7591 67.4242 46.2203 67.7933 45.7479C68.1623 45.2829 68.5757 44.7146 68.8192 44.375C68.8635 44.3455 69.0702 44.4563 69.0776 44.5079C68.8635 45.5782 69.2104 46.1465 70.5612 47.202L78.0603 53.0626C78.0899 53.129 77.9201 53.4981 77.8315 53.5276Z" fill="#05002F"/>
<path d="M80.6099 50.2652C80.5582 50.2947 80.3663 50.1545 80.3663 50.1028C80.6911 49.2097 80.4623 48.6266 79.3699 47.5416L74.4689 42.6848C73.2658 41.4965 72.6384 41.2529 71.76 41.5777C71.7083 41.5777 71.5681 41.3858 71.5902 41.3341C71.9593 40.9872 72.5203 40.4484 73.0148 39.9538L75.9082 37.0309C77.1999 35.7245 77.7608 35.0602 77.9527 34.765C78.0044 34.7133 78.1594 34.6911 78.2184 34.728C78.4989 35.0823 79.2666 35.8204 80.0711 36.4921C80.108 36.5585 79.9604 36.7578 79.8792 36.7578C78.7204 36.2633 77.9011 36.5216 76.6684 37.769L74.3877 40.0719L77.7018 43.3565L79.2518 41.7917C80.0785 40.9577 80.3885 40.2565 80.0711 39.356C80.0563 39.2895 80.2704 39.1272 80.322 39.1493C80.5656 39.415 81.0897 39.9612 81.4513 40.3155C81.813 40.6698 82.3592 41.1939 82.6323 41.4301C82.6618 41.4817 82.4921 41.6958 82.433 41.6884C81.5252 41.371 80.824 41.6958 80.0047 42.5298L78.4546 44.0946L81.8499 47.453L84.2709 45.0099C85.5921 43.6813 85.7914 42.8841 85.1566 41.4743C85.1566 41.4005 85.3559 41.2455 85.4224 41.2824C86.1752 42.1313 86.9871 42.9063 87.3783 43.2236C87.43 43.2753 87.4153 43.4377 87.3636 43.4894C87.12 43.6813 86.655 44.102 85.0385 45.7332L81.968 48.8333C81.4809 49.3352 80.9494 49.8961 80.6099 50.2652Z" fill="#05002F"/>
<path d="M80.6099 50.2652C80.5582 50.2947 80.3663 50.1545 80.3663 50.1028C80.6911 49.2097 80.4623 48.6266 79.3699 47.5416L74.4689 42.6848C73.2658 41.4965 72.6384 41.2529 71.76 41.5777C71.7083 41.5777 71.5681 41.3858 71.5902 41.3341C71.9593 40.9872 72.5203 40.4484 73.0148 39.9538L75.9082 37.0309C77.1999 35.7245 77.7608 35.0602 77.9527 34.765C78.0044 34.7133 78.1594 34.6911 78.2184 34.728C78.4989 35.0823 79.2666 35.8204 80.0711 36.4921C80.108 36.5585 79.9604 36.7578 79.8792 36.7578C78.7204 36.2633 77.9011 36.5216 76.6684 37.769L74.3877 40.0719L77.7018 43.3565L79.2518 41.7917C80.0785 40.9577 80.3885 40.2565 80.0711 39.356C80.0563 39.2895 80.2704 39.1272 80.322 39.1493C80.5656 39.415 81.0897 39.9612 81.4513 40.3155C81.813 40.6698 82.3592 41.1939 82.6323 41.4301C82.6618 41.4817 82.4921 41.6958 82.433 41.6884C81.5252 41.371 80.824 41.6958 80.0047 42.5298L78.4546 44.0946L81.8499 47.453L84.2709 45.0099C85.5921 43.6813 85.7914 42.8841 85.1566 41.4743C85.1566 41.4005 85.3559 41.2455 85.4224 41.2824C86.1752 42.1313 86.9871 42.9063 87.3783 43.2236C87.43 43.2753 87.4153 43.4377 87.3636 43.4894C87.12 43.6813 86.655 44.102 85.0385 45.7332L81.968 48.8333C81.4809 49.3352 80.9494 49.8961 80.6099 50.2652Z" fill="#05002F"/>
<path d="M80.5847 32.543C80.533 32.5357 80.4149 32.329 80.4518 32.2847C80.7766 32.0559 81.4704 31.5687 82.024 31.1333C82.6514 30.6461 83.3305 30.0778 83.6478 29.8121C83.6995 29.7973 83.8767 29.9597 83.8693 30.0113C83.3378 30.6756 83.3083 31.3178 84.7329 32.2404L90.837 36.2041L88.7851 29.3101L88.667 29.2437C87.1169 28.2989 86.6962 28.1735 86.0172 28.3506C85.9655 28.3432 85.8474 28.1366 85.8843 28.0923C86.2091 27.8635 86.9029 27.3763 87.4565 26.9408C88.0839 26.4537 88.7629 25.8853 89.0803 25.6196C89.132 25.5975 89.3091 25.7672 89.3017 25.8189C88.7851 26.4684 88.726 27.1106 90.2022 28.0185L96.4023 31.8418L94.0921 25.1472C93.6344 23.7891 92.9701 23.3684 91.7818 23.8998C91.7301 23.8924 91.6194 23.6858 91.6489 23.6415C92.0032 23.3905 92.7561 22.8296 93.2654 22.431C93.7378 22.0693 94.3209 21.5895 94.6087 21.346C94.6604 21.3238 94.8375 21.4936 94.8302 21.5453C94.4611 22.2169 94.4094 22.8296 94.9852 24.4829L98.4543 34.7057C98.4469 34.7574 98.1369 35.0009 98.0704 35.0009L90.1063 30.1294L92.7856 39.0901C92.7782 39.1417 92.4682 39.3853 92.4018 39.3853L83.205 33.4878C81.6845 32.5209 81.249 32.3733 80.5847 32.543Z" fill="#05002F"/>
<path d="M80.5847 32.543C80.533 32.5357 80.4149 32.329 80.4518 32.2847C80.7766 32.0559 81.4704 31.5687 82.024 31.1333C82.6514 30.6461 83.3305 30.0778 83.6478 29.8121C83.6995 29.7973 83.8767 29.9597 83.8693 30.0113C83.3378 30.6756 83.3083 31.3178 84.7329 32.2404L90.837 36.2041L88.7851 29.3101L88.667 29.2437C87.1169 28.2989 86.6962 28.1735 86.0172 28.3506C85.9655 28.3432 85.8474 28.1366 85.8843 28.0923C86.2091 27.8635 86.9029 27.3763 87.4565 26.9408C88.0839 26.4537 88.7629 25.8853 89.0803 25.6196C89.132 25.5975 89.3091 25.7672 89.3017 25.8189C88.7851 26.4684 88.726 27.1106 90.2022 28.0185L96.4023 31.8418L94.0921 25.1472C93.6344 23.7891 92.9701 23.3684 91.7818 23.8998C91.7301 23.8924 91.6194 23.6858 91.6489 23.6415C92.0032 23.3905 92.7561 22.8296 93.2654 22.431C93.7378 22.0693 94.3209 21.5895 94.6087 21.346C94.6604 21.3238 94.8375 21.4936 94.8302 21.5453C94.4611 22.2169 94.4094 22.8296 94.9852 24.4829L98.4543 34.7057C98.4469 34.7574 98.1369 35.0009 98.0704 35.0009L90.1063 30.1294L92.7856 39.0901C92.7782 39.1417 92.4682 39.3853 92.4018 39.3853L83.205 33.4878C81.6845 32.5209 81.249 32.3733 80.5847 32.543Z" fill="#05002F"/>
<path d="M113.49 25.2803C112.966 25.5165 112.332 25.8339 111.653 26.1956C110.966 26.5572 110.353 26.9042 109.866 27.2068C109.807 27.2142 109.667 27.0296 109.682 26.978C110.331 26.166 110.302 25.5682 109.63 24.3134L108.257 21.7374L103.423 19.1024C101.873 18.2535 101.445 18.0321 100.647 18.069C100.596 18.0543 100.522 17.8328 100.559 17.7885C100.913 17.6188 101.695 17.2423 102.338 16.9028C103.024 16.5411 103.733 16.1204 104.094 15.9064C104.153 15.899 104.294 16.0835 104.279 16.1352C103.806 16.7109 103.806 17.2054 105.106 17.9214L108.84 19.9955L109.217 16.0614C109.342 14.6885 108.966 14.0537 107.829 14.253C107.777 14.2383 107.704 14.0168 107.741 13.9725C108.117 13.7954 108.981 13.3525 109.542 13.0573C110.08 12.7694 110.553 12.4963 110.878 12.3044C110.937 12.297 111.077 12.4816 111.062 12.5332C110.678 12.9613 110.582 13.6256 110.39 15.4857L109.852 20.8738L111.232 23.4646C111.903 24.7194 112.376 25.081 113.417 24.9998C113.454 25.022 113.535 25.2434 113.49 25.2803Z" fill="#05002F"/>
<path d="M113.49 25.2803C112.966 25.5165 112.332 25.8339 111.653 26.1956C110.966 26.5572 110.353 26.9042 109.866 27.2068C109.807 27.2142 109.667 27.0296 109.682 26.978C110.331 26.166 110.302 25.5682 109.63 24.3134L108.257 21.7374L103.423 19.1024C101.873 18.2535 101.445 18.0321 100.647 18.069C100.596 18.0543 100.522 17.8328 100.559 17.7885C100.913 17.6188 101.695 17.2423 102.338 16.9028C103.024 16.5411 103.733 16.1204 104.094 15.9064C104.153 15.899 104.294 16.0835 104.279 16.1352C103.806 16.7109 103.806 17.2054 105.106 17.9214L108.84 19.9955L109.217 16.0614C109.342 14.6885 108.966 14.0537 107.829 14.253C107.777 14.2383 107.704 14.0168 107.741 13.9725C108.117 13.7954 108.981 13.3525 109.542 13.0573C110.08 12.7694 110.553 12.4963 110.878 12.3044C110.937 12.297 111.077 12.4816 111.062 12.5332C110.678 12.9613 110.582 13.6256 110.39 15.4857L109.852 20.8738L111.232 23.4646C111.903 24.7194 112.376 25.081 113.417 24.9998C113.454 25.022 113.535 25.2434 113.49 25.2803Z" fill="#05002F"/>
<path d="M124.912 13.4407C123.606 10.134 121.524 8.82754 119.037 9.80922C116.571 10.7835 115.929 13.1307 117.228 16.43C118.535 19.7368 120.616 21.0432 123.104 20.0615C125.569 19.0946 126.211 16.7474 124.912 13.4407ZM115.398 17.1903C113.981 13.6031 115.339 10.1192 118.66 8.81277C122.011 7.49156 125.318 9.07111 126.735 12.6805C128.152 16.2676 126.794 19.7515 123.473 21.058C120.122 22.3866 116.822 20.7996 115.398 17.1903Z" fill="#05002F"/>
<path d="M124.912 13.4407C123.606 10.134 121.524 8.82754 119.037 9.80922C116.571 10.7835 115.929 13.1307 117.228 16.43C118.535 19.7368 120.616 21.0432 123.104 20.0615C125.569 19.0946 126.211 16.7474 124.912 13.4407ZM115.398 17.1903C113.981 13.6031 115.339 10.1192 118.66 8.81277C122.011 7.49156 125.318 9.07111 126.735 12.6805C128.152 16.2676 126.794 19.7515 123.473 21.058C120.122 22.3866 116.822 20.7996 115.398 17.1903Z" fill="#05002F"/>
<path d="M133.974 5.22554L131.442 5.88245L132.719 10.7835L135.251 10.1266C137.133 9.63941 137.731 8.71677 137.288 7.00437C136.838 5.28458 135.841 4.73839 133.974 5.22554ZM130.18 8.18534C129.752 6.54675 129.339 6.02269 128.416 5.85292C128.372 5.83078 128.349 5.59459 128.394 5.55768C128.888 5.44697 129.641 5.26982 130.32 5.09267L133.723 4.20695C136.565 3.46884 138.631 4.32504 139.192 6.47293C139.643 8.2001 138.816 9.6837 137.022 10.5768L139.163 12.9461C140.004 13.8835 140.528 14.2673 141.281 14.0754C141.562 14.0016 141.805 13.8097 141.953 13.6399C142.004 13.6104 142.189 13.6695 142.196 13.7211C142.226 14.4002 141.835 15.3228 140.816 15.5885C139.51 15.9281 138.58 15.0719 137.598 13.9647L135.192 11.219L132.977 11.7947L133.716 14.6216C134.062 15.9428 134.424 16.4078 135.376 16.5555C135.421 16.5776 135.443 16.8138 135.398 16.8507C134.852 16.954 134.195 17.109 133.479 17.2936C132.763 17.4781 132.121 17.6626 131.59 17.8398C131.531 17.8324 131.442 17.6183 131.464 17.5741C132.225 16.9836 132.313 16.4005 131.966 15.0793L130.18 8.18534Z" fill="#05002F"/>
<path d="M133.974 5.22554L131.442 5.88245L132.719 10.7835L135.251 10.1266C137.133 9.63941 137.731 8.71677 137.288 7.00437C136.838 5.28458 135.841 4.73839 133.974 5.22554ZM130.18 8.18534C129.752 6.54675 129.339 6.02269 128.416 5.85292C128.372 5.83078 128.349 5.59459 128.394 5.55768C128.888 5.44697 129.641 5.26982 130.32 5.09267L133.723 4.20695C136.565 3.46884 138.631 4.32504 139.192 6.47293C139.643 8.2001 138.816 9.6837 137.022 10.5768L139.163 12.9461C140.004 13.8835 140.528 14.2673 141.281 14.0754C141.562 14.0016 141.805 13.8097 141.953 13.6399C142.004 13.6104 142.189 13.6695 142.196 13.7211C142.226 14.4002 141.835 15.3228 140.816 15.5885C139.51 15.9281 138.58 15.0719 137.598 13.9647L135.192 11.219L132.977 11.7947L133.716 14.6216C134.062 15.9428 134.424 16.4078 135.376 16.5555C135.421 16.5776 135.443 16.8138 135.398 16.8507C134.852 16.954 134.195 17.109 133.479 17.2936C132.763 17.4781 132.121 17.6626 131.59 17.8398C131.531 17.8324 131.442 17.6183 131.464 17.5741C132.225 16.9836 132.313 16.4005 131.966 15.0793L130.18 8.18534Z" fill="#05002F"/>
<path d="M148.67 14.083C148.109 14.12 147.444 14.1938 146.714 14.2897C145.983 14.3857 145.319 14.4964 144.772 14.6071C144.713 14.5997 144.647 14.3709 144.684 14.3266C145.511 13.8321 145.666 13.2637 145.488 11.9056L144.477 4.43599C144.293 3.07787 143.99 2.57596 143.06 2.31763C143.023 2.2881 143.023 2.0519 143.075 2.02238C143.636 1.98547 144.293 1.91166 145.031 1.81571C145.761 1.71975 146.418 1.60904 146.972 1.49833C147.031 1.50571 147.097 1.73451 147.061 1.7788C146.234 2.27333 146.079 2.84167 146.263 4.19979L146.802 8.16343L150.515 3.43954C151.43 2.25857 151.497 1.54261 150.485 1.3138C150.441 1.28428 150.448 1.04808 150.5 1.01855C150.928 0.981646 151.969 0.85617 152.633 0.767597C153.275 0.679025 154.08 0.553547 154.486 0.479736C154.538 0.487117 154.611 0.715934 154.574 0.76022C153.829 1.06284 153.312 1.67547 152.058 3.2624L149.828 6.03768L154.176 10.8944C155.305 12.1418 155.63 12.4961 156.368 12.7471C156.412 12.7766 156.405 13.0128 156.353 13.0423C155.955 13.0792 155.099 13.1604 154.383 13.2564C153.593 13.3597 152.759 13.5147 152.353 13.5885C152.294 13.5811 152.227 13.3523 152.264 13.308C152.921 12.9242 153.098 12.4666 152.153 11.3963L148.699 7.47698L147.001 9.59536L147.282 11.6694C147.466 13.0275 147.769 13.5295 148.699 13.7878C148.721 13.8247 148.714 14.0609 148.67 14.083Z" fill="#05002F"/>
<path d="M148.67 14.083C148.109 14.12 147.444 14.1938 146.714 14.2897C145.983 14.3857 145.319 14.4964 144.772 14.6071C144.713 14.5997 144.647 14.3709 144.684 14.3266C145.511 13.8321 145.666 13.2637 145.488 11.9056L144.477 4.43599C144.293 3.07787 143.99 2.57596 143.06 2.31763C143.023 2.2881 143.023 2.0519 143.075 2.02238C143.636 1.98547 144.293 1.91166 145.031 1.81571C145.761 1.71975 146.418 1.60904 146.972 1.49833C147.031 1.50571 147.097 1.73451 147.061 1.7788C146.234 2.27333 146.079 2.84167 146.263 4.19979L146.802 8.16343L150.515 3.43954C151.43 2.25857 151.497 1.54261 150.485 1.3138C150.441 1.28428 150.448 1.04808 150.5 1.01855C150.928 0.981646 151.969 0.85617 152.633 0.767597C153.275 0.679025 154.08 0.553547 154.486 0.479736C154.538 0.487117 154.611 0.715934 154.574 0.76022C153.829 1.06284 153.312 1.67547 152.058 3.2624L149.828 6.03768L154.176 10.8944C155.305 12.1418 155.63 12.4961 156.368 12.7471C156.412 12.7766 156.405 13.0128 156.353 13.0423C155.955 13.0792 155.099 13.1604 154.383 13.2564C153.593 13.3597 152.759 13.5147 152.353 13.5885C152.294 13.5811 152.227 13.3523 152.264 13.308C152.921 12.9242 153.098 12.4666 152.153 11.3963L148.699 7.47698L147.001 9.59536L147.282 11.6694C147.466 13.0275 147.769 13.5295 148.699 13.7878C148.721 13.8247 148.714 14.0609 148.67 14.083Z" fill="#05002F"/>
<path d="M166.79 1.18096L166.665 6.61343L168.945 6.6651C170.916 6.70939 171.75 5.92699 171.794 4.0522C171.839 2.1405 171.005 1.27692 169.071 1.23264L166.79 1.18096ZM167.742 12.6364C167.779 12.6733 167.735 12.9095 167.683 12.9242C167.1 12.8726 166.391 12.843 165.609 12.8209C164.864 12.8061 164.184 12.8061 163.624 12.8283C163.572 12.8061 163.542 12.5699 163.579 12.533C164.48 12.1714 164.731 11.6325 164.76 10.2449L164.93 3.04837C164.967 1.33597 164.709 0.708582 163.867 0.287861C163.83 0.250956 163.874 0.0147621 163.926 0C164.435 0.0295243 165.218 0.06643 165.926 0.0811922L169.115 0.154996C172.067 0.221426 173.854 1.70503 173.802 4.03744C173.75 6.36986 171.876 7.78702 168.923 7.71321L166.642 7.66154L166.583 10.1932C166.546 11.6399 166.79 12.1935 167.742 12.6364Z" fill="#05002F"/>
<path d="M166.79 1.18096L166.665 6.61343L168.945 6.6651C170.916 6.70939 171.75 5.92699 171.794 4.0522C171.839 2.1405 171.005 1.27692 169.071 1.23264L166.79 1.18096ZM167.742 12.6364C167.779 12.6733 167.735 12.9095 167.683 12.9242C167.1 12.8726 166.391 12.843 165.609 12.8209C164.864 12.8061 164.184 12.8061 163.624 12.8283C163.572 12.8061 163.542 12.5699 163.579 12.533C164.48 12.1714 164.731 11.6325 164.76 10.2449L164.93 3.04837C164.967 1.33597 164.709 0.708582 163.867 0.287861C163.83 0.250956 163.874 0.0147621 163.926 0C164.435 0.0295243 165.218 0.06643 165.926 0.0811922L169.115 0.154996C172.067 0.221426 173.854 1.70503 173.802 4.03744C173.75 6.36986 171.876 7.78702 168.923 7.71321L166.642 7.66154L166.583 10.1932C166.546 11.6399 166.79 12.1935 167.742 12.6364Z" fill="#05002F"/>
<path d="M185.818 9.49218L186.401 4.90853C186.615 3.21827 186.467 2.56136 185.559 1.95611C185.53 1.9192 185.596 1.69039 185.648 1.67562C186.054 1.74944 186.748 1.85278 187.338 1.92659C187.929 2.0004 188.623 2.0742 189.036 2.10373C189.088 2.12587 189.095 2.36207 189.051 2.39898C188.025 2.76065 187.715 3.35113 187.501 5.04878L186.918 9.63241C186.489 12.9687 184.533 14.5334 181.323 14.1201C177.986 13.692 176.466 11.7065 176.894 8.35549L177.544 3.24042C177.713 1.8823 177.551 1.32133 176.724 0.834184C176.695 0.797278 176.761 0.568473 176.813 0.553711C177.359 0.657046 178.016 0.760372 178.747 0.856326C179.477 0.95228 180.142 1.01872 180.695 1.04824C180.747 1.07038 180.754 1.30657 180.71 1.34348C179.787 1.6092 179.492 2.11111 179.315 3.46923L178.666 8.5843C178.341 11.116 179.359 12.5184 181.714 12.8137C184.157 13.1163 185.493 12.0386 185.818 9.49218Z" fill="#05002F"/>
<path d="M185.818 9.49218L186.401 4.90853C186.615 3.21827 186.467 2.56136 185.559 1.95611C185.53 1.9192 185.596 1.69039 185.648 1.67562C186.054 1.74944 186.748 1.85278 187.338 1.92659C187.929 2.0004 188.623 2.0742 189.036 2.10373C189.088 2.12587 189.095 2.36207 189.051 2.39898C188.025 2.76065 187.715 3.35113 187.501 5.04878L186.918 9.63241C186.489 12.9687 184.533 14.5334 181.323 14.1201C177.986 13.692 176.466 11.7065 176.894 8.35549L177.544 3.24042C177.713 1.8823 177.551 1.32133 176.724 0.834184C176.695 0.797278 176.761 0.568473 176.813 0.553711C177.359 0.657046 178.016 0.760372 178.747 0.856326C179.477 0.95228 180.142 1.01872 180.695 1.04824C180.747 1.07038 180.754 1.30657 180.71 1.34348C179.787 1.6092 179.492 2.11111 179.315 3.46923L178.666 8.5843C178.341 11.116 179.359 12.5184 181.714 12.8137C184.157 13.1163 185.493 12.0386 185.818 9.49218Z" fill="#05002F"/>
<path d="M196.219 9.79456C198.035 10.2669 198.98 9.7798 199.378 8.22977C199.792 6.64285 199.186 5.74236 197.385 5.27735L195.252 4.72377L194.086 9.24098L196.219 9.79456ZM195.149 15.5296C196.979 16.002 197.968 15.5149 198.374 13.928C198.802 12.2894 198.16 11.3741 196.345 10.9091L193.835 10.2596L192.639 14.8875L195.149 15.5296ZM189.584 15.227C189.532 15.1975 189.561 14.9613 189.606 14.9318C190.543 14.762 190.934 14.2675 191.318 12.7839L193.045 6.09665C193.466 4.45805 193.363 3.79376 192.639 3.19589C192.61 3.15161 192.706 2.93756 192.765 2.93018C193.252 3.0778 193.997 3.28446 194.676 3.4616L197.681 4.23662C200.456 4.95258 201.858 6.59856 201.371 8.48812C201.017 9.84623 199.888 10.636 198.264 10.7172C199.939 11.5808 200.699 12.8946 200.301 14.4299C199.777 16.4744 197.703 17.279 194.891 16.5556L191.525 15.6847C190.831 15.5149 190.078 15.3377 189.584 15.227Z" fill="#05002F"/>
<path d="M196.219 9.79456C198.035 10.2669 198.98 9.7798 199.378 8.22977C199.792 6.64285 199.186 5.74236 197.385 5.27735L195.252 4.72377L194.086 9.24098L196.219 9.79456ZM195.149 15.5296C196.979 16.002 197.968 15.5149 198.374 13.928C198.802 12.2894 198.16 11.3741 196.345 10.9091L193.835 10.2596L192.639 14.8875L195.149 15.5296ZM189.584 15.227C189.532 15.1975 189.561 14.9613 189.606 14.9318C190.543 14.762 190.934 14.2675 191.318 12.7839L193.045 6.09665C193.466 4.45805 193.363 3.79376 192.639 3.19589C192.61 3.15161 192.706 2.93756 192.765 2.93018C193.252 3.0778 193.997 3.28446 194.676 3.4616L197.681 4.23662C200.456 4.95258 201.858 6.59856 201.371 8.48812C201.017 9.84623 199.888 10.636 198.264 10.7172C199.939 11.5808 200.699 12.8946 200.301 14.4299C199.777 16.4744 197.703 17.279 194.891 16.5556L191.525 15.6847C190.831 15.5149 190.078 15.3377 189.584 15.227Z" fill="#05002F"/>
<path d="M203.754 19.2573C203.097 19.0137 202.366 18.7554 201.887 18.593C201.842 18.5561 201.894 18.3273 201.938 18.3051C202.868 18.2313 203.341 17.7515 203.931 16.1646L206.426 9.49214C206.906 8.20783 206.876 7.62472 206.182 6.96043C206.16 6.91614 206.278 6.70947 206.337 6.70947C206.847 6.93829 207.467 7.18924 208.16 7.44758C208.884 7.72068 209.555 7.94949 210.102 8.11926C210.146 8.15616 210.094 8.38498 210.05 8.40712C209.009 8.45879 208.581 8.87951 208.087 10.2155L204.957 18.5708L207.673 19.5894C209.43 20.2463 210.235 20.1061 211.26 18.9473C211.327 18.9178 211.556 19.0359 211.548 19.1097C211.083 20.1504 210.707 21.1985 210.581 21.693C210.559 21.7595 210.397 21.8185 210.33 21.789C210.057 21.6487 209.482 21.3904 207.334 20.5933L203.754 19.2573Z" fill="#05002F"/>
<path d="M203.754 19.2573C203.097 19.0137 202.366 18.7554 201.887 18.593C201.842 18.5561 201.894 18.3273 201.938 18.3051C202.868 18.2313 203.341 17.7515 203.931 16.1646L206.426 9.49214C206.906 8.20783 206.876 7.62472 206.182 6.96043C206.16 6.91614 206.278 6.70947 206.337 6.70947C206.847 6.93829 207.467 7.18924 208.16 7.44758C208.884 7.72068 209.555 7.94949 210.102 8.11926C210.146 8.15616 210.094 8.38498 210.05 8.40712C209.009 8.45879 208.581 8.87951 208.087 10.2155L204.957 18.5708L207.673 19.5894C209.43 20.2463 210.235 20.1061 211.26 18.9473C211.327 18.9178 211.556 19.0359 211.548 19.1097C211.083 20.1504 210.707 21.1985 210.581 21.693C210.559 21.7595 210.397 21.8185 210.33 21.789C210.057 21.6487 209.482 21.3904 207.334 20.5933L203.754 19.2573Z" fill="#05002F"/>
<path d="M216.547 24.3722C216.562 24.4165 216.429 24.6157 216.377 24.6084C215.868 24.3279 215.24 24.0179 214.539 23.6857C213.838 23.3536 213.196 23.0731 212.657 22.8591C212.613 22.8222 212.686 22.5933 212.731 22.5786C213.772 22.6081 214.229 22.2317 214.834 20.94L217.964 14.2896C218.569 12.998 218.569 12.4075 217.883 11.6251C217.868 11.5734 217.993 11.3815 218.053 11.3889C218.562 11.6694 219.189 11.9794 219.89 12.3115C220.592 12.6437 221.234 12.9241 221.773 13.1382C221.817 13.1751 221.743 13.4039 221.699 13.426C220.658 13.3965 220.2 13.773 219.595 15.0646L216.466 21.715C215.86 22.9919 215.86 23.5898 216.547 24.3722Z" fill="#05002F"/>
<path d="M216.547 24.3722C216.562 24.4165 216.429 24.6157 216.377 24.6084C215.868 24.3279 215.24 24.0179 214.539 23.6857C213.838 23.3536 213.196 23.0731 212.657 22.8591C212.613 22.8222 212.686 22.5933 212.731 22.5786C213.772 22.6081 214.229 22.2317 214.834 20.94L217.964 14.2896C218.569 12.998 218.569 12.4075 217.883 11.6251C217.868 11.5734 217.993 11.3815 218.053 11.3889C218.562 11.6694 219.189 11.9794 219.89 12.3115C220.592 12.6437 221.234 12.9241 221.773 13.1382C221.817 13.1751 221.743 13.4039 221.699 13.426C220.658 13.3965 220.2 13.773 219.595 15.0646L216.466 21.715C215.86 22.9919 215.86 23.5898 216.547 24.3722Z" fill="#05002F"/>
<path d="M230.961 17.8474C232.327 18.652 232.748 19.5008 233.419 19.892C233.604 20.0027 233.803 19.9879 233.98 19.9289C234.069 19.9584 234.187 20.1134 234.202 20.1651C233.648 21.1172 233.161 22.0841 232.748 23.1175C232.711 23.1765 232.474 23.1249 232.452 23.0511C232.548 21.1025 231.84 19.6041 230.423 18.77C228.23 17.4857 225.994 18.4527 224.208 21.501C222.421 24.5494 222.687 27.0221 224.909 28.3285C226.385 29.1921 228.127 29.1109 229.832 28.0554C229.906 28.0333 230.076 28.2178 230.031 28.2769C229.278 29.1331 228.607 30.0336 227.994 30.9267C227.942 30.9414 227.78 30.9045 227.706 30.8455C227.655 30.6462 227.551 30.5059 227.315 30.3657C226.68 29.9893 225.728 30.0409 224.348 29.229C221.3 27.4428 220.532 23.8335 222.473 20.5194C224.414 17.2126 227.987 16.1055 230.961 17.8474Z" fill="#05002F"/>
<path d="M230.961 17.8474C232.327 18.652 232.748 19.5008 233.419 19.892C233.604 20.0027 233.803 19.9879 233.98 19.9289C234.069 19.9584 234.187 20.1134 234.202 20.1651C233.648 21.1172 233.161 22.0841 232.748 23.1175C232.711 23.1765 232.474 23.1249 232.452 23.0511C232.548 21.1025 231.84 19.6041 230.423 18.77C228.23 17.4857 225.994 18.4527 224.208 21.501C222.421 24.5494 222.687 27.0221 224.909 28.3285C226.385 29.1921 228.127 29.1109 229.832 28.0554C229.906 28.0333 230.076 28.2178 230.031 28.2769C229.278 29.1331 228.607 30.0336 227.994 30.9267C227.942 30.9414 227.78 30.9045 227.706 30.8455C227.655 30.6462 227.551 30.5059 227.315 30.3657C226.68 29.9893 225.728 30.0409 224.348 29.229C221.3 27.4428 220.532 23.8335 222.473 20.5194C224.414 17.2126 227.987 16.1055 230.961 17.8474Z" fill="#05002F"/>
<path d="M236.254 37.0233C235.708 36.5804 235.095 36.108 234.689 35.8054C234.66 35.7537 234.778 35.5544 234.829 35.5471C235.737 35.7685 236.335 35.4659 237.398 34.152L241.886 28.6236C242.749 27.5607 242.904 26.9924 242.462 26.1436C242.454 26.0919 242.631 25.9369 242.683 25.9517C243.096 26.3281 243.598 26.7636 244.174 27.2286C244.779 27.7158 245.333 28.1439 245.805 28.4834C245.835 28.535 245.717 28.7343 245.665 28.7417C244.661 28.4612 244.13 28.7196 243.229 29.8267L237.612 36.7576L239.863 38.588C241.317 39.769 242.129 39.8871 243.465 39.1195C243.539 39.1121 243.716 39.2966 243.687 39.3631C242.919 40.1971 242.225 41.0755 241.952 41.5036C241.908 41.5626 241.738 41.5626 241.686 41.5183C241.472 41.2969 241.007 40.8688 239.229 39.4295L236.254 37.0233Z" fill="#05002F"/>
<path d="M236.254 37.0233C235.708 36.5804 235.095 36.108 234.689 35.8054C234.66 35.7537 234.778 35.5544 234.829 35.5471C235.737 35.7685 236.335 35.4659 237.398 34.152L241.886 28.6236C242.749 27.5607 242.904 26.9924 242.462 26.1436C242.454 26.0919 242.631 25.9369 242.683 25.9517C243.096 26.3281 243.598 26.7636 244.174 27.2286C244.779 27.7158 245.333 28.1439 245.805 28.4834C245.835 28.535 245.717 28.7343 245.665 28.7417C244.661 28.4612 244.13 28.7196 243.229 29.8267L237.612 36.7576L239.863 38.588C241.317 39.769 242.129 39.8871 243.465 39.1195C243.539 39.1121 243.716 39.2966 243.687 39.3631C242.919 40.1971 242.225 41.0755 241.952 41.5036C241.908 41.5626 241.738 41.5626 241.686 41.5183C241.472 41.2969 241.007 40.8688 239.229 39.4295L236.254 37.0233Z" fill="#05002F"/>
<path d="M247.103 46.2719C247.103 46.3235 246.919 46.4712 246.867 46.4416C246.476 46.0135 245.981 45.5116 245.42 44.9802C244.859 44.4414 244.343 43.969 243.9 43.5925C243.87 43.5409 244.011 43.349 244.062 43.349C245.036 43.7107 245.597 43.4966 246.587 42.4706L251.694 37.171C252.683 36.1451 252.875 35.5767 252.477 34.6172C252.477 34.5655 252.668 34.4253 252.713 34.4474C253.104 34.8755 253.599 35.3774 254.159 35.9089C254.72 36.4477 255.237 36.9201 255.68 37.2965C255.71 37.3482 255.569 37.5401 255.518 37.5401C254.543 37.1784 253.982 37.3925 252.993 38.4184L247.886 43.718C246.897 44.7514 246.705 45.3123 247.103 46.2719Z" fill="#05002F"/>
<path d="M247.103 46.2719C247.103 46.3235 246.919 46.4712 246.867 46.4416C246.476 46.0135 245.981 45.5116 245.42 44.9802C244.859 44.4414 244.343 43.969 243.9 43.5925C243.87 43.5409 244.011 43.349 244.062 43.349C245.036 43.7107 245.597 43.4966 246.587 42.4706L251.694 37.171C252.683 36.1451 252.875 35.5767 252.477 34.6172C252.477 34.5655 252.668 34.4253 252.713 34.4474C253.104 34.8755 253.599 35.3774 254.159 35.9089C254.72 36.4477 255.237 36.9201 255.68 37.2965C255.71 37.3482 255.569 37.5401 255.518 37.5401C254.543 37.1784 253.982 37.3925 252.993 38.4184L247.886 43.718C246.897 44.7514 246.705 45.3123 247.103 46.2719Z" fill="#05002F"/>
<path d="M257.738 47.9991C258.971 49.4162 260.019 49.5491 261.23 48.501C262.47 47.4234 262.477 46.3383 261.267 44.9359L259.827 43.2752L256.306 46.3383L257.738 47.9991ZM253.605 52.1177C254.845 53.5423 255.93 53.6973 257.17 52.627C258.447 51.5125 258.44 50.4053 257.207 48.9881L255.502 47.0322L251.9 50.1617L253.605 52.1177ZM249.191 48.7077C249.169 48.656 249.324 48.4715 249.376 48.4789C250.247 48.8701 250.844 48.6855 252.003 47.6817L257.214 43.1571C258.491 42.0426 258.779 41.4373 258.521 40.5368C258.528 40.4852 258.727 40.3597 258.772 40.3892C259.089 40.7804 259.584 41.3783 260.049 41.9097L262.078 44.2495C263.961 46.4122 264.175 48.5601 262.706 49.837C261.643 50.7596 260.263 50.767 258.882 49.9108C259.776 51.5715 259.657 53.0846 258.454 54.1254C256.86 55.5056 254.697 54.9963 252.793 52.8042L250.512 50.1765C250.062 49.6524 249.538 49.0841 249.191 48.7077Z" fill="#05002F"/>
<path d="M257.738 47.9991C258.971 49.4162 260.019 49.5491 261.23 48.501C262.47 47.4234 262.477 46.3383 261.267 44.9359L259.827 43.2752L256.306 46.3383L257.738 47.9991ZM253.605 52.1177C254.845 53.5423 255.93 53.6973 257.17 52.627C258.447 51.5125 258.44 50.4053 257.207 48.9881L255.502 47.0322L251.9 50.1617L253.605 52.1177ZM249.191 48.7077C249.169 48.656 249.324 48.4715 249.376 48.4789C250.247 48.8701 250.844 48.6855 252.003 47.6817L257.214 43.1571C258.491 42.0426 258.779 41.4373 258.521 40.5368C258.528 40.4852 258.727 40.3597 258.772 40.3892C259.089 40.7804 259.584 41.3783 260.049 41.9097L262.078 44.2495C263.961 46.4122 264.175 48.5601 262.706 49.837C261.643 50.7596 260.263 50.767 258.882 49.9108C259.776 51.5715 259.657 53.0846 258.454 54.1254C256.86 55.5056 254.697 54.9963 252.793 52.8042L250.512 50.1765C250.062 49.6524 249.538 49.0841 249.191 48.7077Z" fill="#05002F"/>
<path d="M270.23 56.5244L268.746 54.3691L264.568 57.2403L266.052 59.3956C267.152 60.9973 268.222 61.2482 269.683 60.2518C271.152 59.2332 271.322 58.1113 270.23 56.5244ZM266.155 53.9631C267.55 53.0036 267.905 52.4352 267.75 51.5126C267.757 51.4609 267.971 51.3576 268.015 51.3945C268.288 51.8226 268.709 52.4721 269.108 53.0479L271.101 55.9486C272.761 58.3696 272.658 60.6061 270.835 61.8609C269.366 62.8721 267.691 62.599 266.237 61.2113L264.738 64.0309C264.148 65.138 263.963 65.7654 264.399 66.4076C264.561 66.6438 264.827 66.8135 265.033 66.8874C265.078 66.9243 265.085 67.1162 265.033 67.1457C264.399 67.404 263.402 67.345 262.812 66.4888C262.044 65.3743 262.539 64.208 263.24 62.909L265.004 59.713L263.705 57.8234L261.299 59.4768C260.169 60.2518 259.859 60.7537 260.044 61.6985C260.036 61.7501 259.822 61.8535 259.778 61.8166C259.49 61.3368 259.129 60.7758 258.708 60.1632C258.287 59.5506 257.896 59.0118 257.549 58.5763C257.534 58.5246 257.704 58.3622 257.756 58.3696C258.568 58.8863 259.143 58.7682 260.273 57.9932L266.155 53.9631Z" fill="#05002F"/>
<path d="M270.23 56.5244L268.746 54.3691L264.568 57.2403L266.052 59.3956C267.152 60.9973 268.222 61.2482 269.683 60.2518C271.152 59.2332 271.322 58.1113 270.23 56.5244ZM266.155 53.9631C267.55 53.0036 267.905 52.4352 267.75 51.5126C267.757 51.4609 267.971 51.3576 268.015 51.3945C268.288 51.8226 268.709 52.4721 269.108 53.0479L271.101 55.9486C272.761 58.3696 272.658 60.6061 270.835 61.8609C269.366 62.8721 267.691 62.599 266.237 61.2113L264.738 64.0309C264.148 65.138 263.963 65.7654 264.399 66.4076C264.561 66.6438 264.827 66.8135 265.033 66.8874C265.078 66.9243 265.085 67.1162 265.033 67.1457C264.399 67.404 263.402 67.345 262.812 66.4888C262.044 65.3743 262.539 64.208 263.24 62.909L265.004 59.713L263.705 57.8234L261.299 59.4768C260.169 60.2518 259.859 60.7537 260.044 61.6985C260.036 61.7501 259.822 61.8535 259.778 61.8166C259.49 61.3368 259.129 60.7758 258.708 60.1632C258.287 59.5506 257.896 59.0118 257.549 58.5763C257.534 58.5246 257.704 58.3622 257.756 58.3696C258.568 58.8863 259.143 58.7682 260.273 57.9932L266.155 53.9631Z" fill="#05002F"/>
<path d="M272.487 73.8696L276.029 69.5665L270.501 70.0831L272.487 73.8696ZM266.574 72.1055C266.56 72.1572 266.338 72.231 266.294 72.1941C266.095 71.7734 265.762 71.1091 265.445 70.5039C265.157 69.9577 264.832 69.3819 264.626 69.0203C264.618 68.9612 264.81 68.821 264.855 68.8357C265.489 69.2343 266.124 69.3524 267.814 69.1974L278.805 68.26C278.864 68.2895 279.041 68.6291 279.034 68.6881L272.014 77.3535C270.885 78.7411 270.678 79.2726 270.656 79.8926C270.641 79.9442 270.42 80.0181 270.376 79.9811C270.139 79.4497 269.918 78.9994 269.571 78.3278C269.217 77.6561 268.818 76.9328 268.516 76.4382C268.508 76.3792 268.7 76.2389 268.744 76.2537C269.379 76.8368 269.977 76.9328 271.143 75.5082L271.785 74.748L269.394 70.1865L268.737 70.2455C267.084 70.3931 266.441 70.8286 266.574 72.1055Z" fill="#05002F"/>
<path d="M272.487 73.8696L276.029 69.5665L270.501 70.0831L272.487 73.8696ZM266.574 72.1055C266.56 72.1572 266.338 72.231 266.294 72.1941C266.095 71.7734 265.762 71.1091 265.445 70.5039C265.157 69.9577 264.832 69.3819 264.626 69.0203C264.618 68.9612 264.81 68.821 264.855 68.8357C265.489 69.2343 266.124 69.3524 267.814 69.1974L278.805 68.26C278.864 68.2895 279.041 68.6291 279.034 68.6881L272.014 77.3535C270.885 78.7411 270.678 79.2726 270.656 79.8926C270.641 79.9442 270.42 80.0181 270.376 79.9811C270.139 79.4497 269.918 78.9994 269.571 78.3278C269.217 77.6561 268.818 76.9328 268.516 76.4382C268.508 76.3792 268.7 76.2389 268.744 76.2537C269.379 76.8368 269.977 76.9328 271.143 75.5082L271.785 74.748L269.394 70.1865L268.737 70.2455C267.084 70.3931 266.441 70.8286 266.574 72.1055Z" fill="#05002F"/>
<path d="M283.825 82.4538L282.88 80.018L278.156 81.8486L279.101 84.2843C279.802 86.1 280.784 86.5872 282.43 85.9524C284.091 85.3029 284.519 84.2548 283.825 82.4538ZM280.444 79.0216C282.024 78.409 282.496 77.9366 282.563 77.0066C282.585 76.9623 282.814 76.9106 282.851 76.9549C283.02 77.4347 283.279 78.158 283.53 78.8149L284.799 82.0921C285.862 84.8305 285.242 86.9858 283.175 87.7829C281.507 88.4251 279.942 87.7756 278.85 86.0927L276.746 88.4915C275.912 89.4289 275.588 90.0046 275.868 90.7206C275.971 90.9937 276.193 91.2151 276.377 91.3332C276.414 91.3775 276.37 91.5694 276.318 91.5842C275.647 91.6875 274.687 91.407 274.303 90.4327C273.816 89.1706 274.562 88.152 275.543 87.0522L277.994 84.3434L277.167 82.2102L274.443 83.2657C273.167 83.7602 272.746 84.1736 272.709 85.1331C272.687 85.1774 272.458 85.2291 272.421 85.1848C272.251 84.6534 272.03 84.0186 271.764 83.3322C271.498 82.6457 271.24 82.0257 271.004 81.5164C271.004 81.4574 271.203 81.3393 271.255 81.3614C271.927 82.0478 272.517 82.07 273.794 81.5755L280.444 79.0216Z" fill="#05002F"/>
<path d="M283.825 82.4538L282.88 80.018L278.156 81.8486L279.101 84.2843C279.802 86.1 280.784 86.5872 282.43 85.9524C284.091 85.3029 284.519 84.2548 283.825 82.4538ZM280.444 79.0216C282.024 78.409 282.496 77.9366 282.563 77.0066C282.585 76.9623 282.814 76.9106 282.851 76.9549C283.02 77.4347 283.279 78.158 283.53 78.8149L284.799 82.0921C285.862 84.8305 285.242 86.9858 283.175 87.7829C281.507 88.4251 279.942 87.7756 278.85 86.0927L276.746 88.4915C275.912 89.4289 275.588 90.0046 275.868 90.7206C275.971 90.9937 276.193 91.2151 276.377 91.3332C276.414 91.3775 276.37 91.5694 276.318 91.5842C275.647 91.6875 274.687 91.407 274.303 90.4327C273.816 89.1706 274.562 88.152 275.543 87.0522L277.994 84.3434L277.167 82.2102L274.443 83.2657C273.167 83.7602 272.746 84.1736 272.709 85.1331C272.687 85.1774 272.458 85.2291 272.421 85.1848C272.251 84.6534 272.03 84.0186 271.764 83.3322C271.498 82.6457 271.24 82.0257 271.004 81.5164C271.004 81.4574 271.203 81.3393 271.255 81.3614C271.927 82.0478 272.517 82.07 273.794 81.5755L280.444 79.0216Z" fill="#05002F"/>
<path d="M277.367 100.663C277.256 100.095 277.094 99.4083 276.902 98.6628C276.703 97.9099 276.511 97.2383 276.334 96.6847C276.341 96.6256 276.555 96.5371 276.599 96.5592C277.242 97.3785 277.832 97.4892 279.205 97.1275L282.032 96.3894L285.715 92.3003C286.896 90.9865 287.213 90.6248 287.361 89.8424C287.391 89.7981 287.627 89.776 287.656 89.8203C287.737 90.2115 287.922 91.0529 288.107 91.7541C288.298 92.507 288.549 93.2968 288.668 93.6953C288.66 93.7544 288.446 93.843 288.402 93.8208C287.952 93.2303 287.472 93.1122 286.475 94.212L283.589 97.3637L287.332 98.6407C288.638 99.0835 289.347 98.8621 289.42 97.7033C289.45 97.659 289.679 97.6368 289.716 97.6811C289.804 98.0871 290.033 99.0318 290.188 99.6445C290.343 100.235 290.498 100.759 290.609 101.121C290.601 101.18 290.387 101.268 290.343 101.246C290.018 100.774 289.391 100.523 287.627 99.9028L282.504 98.124L279.663 98.8621C278.282 99.2238 277.825 99.6002 277.662 100.634C277.633 100.685 277.397 100.707 277.367 100.663Z" fill="#05002F"/>
<path d="M277.367 100.663C277.256 100.095 277.094 99.4083 276.902 98.6628C276.703 97.9099 276.511 97.2383 276.334 96.6847C276.341 96.6256 276.555 96.5371 276.599 96.5592C277.242 97.3785 277.832 97.4892 279.205 97.1275L282.032 96.3894L285.715 92.3003C286.896 90.9865 287.213 90.6248 287.361 89.8424C287.391 89.7981 287.627 89.776 287.656 89.8203C287.737 90.2115 287.922 91.0529 288.107 91.7541C288.298 92.507 288.549 93.2968 288.668 93.6953C288.66 93.7544 288.446 93.843 288.402 93.8208C287.952 93.2303 287.472 93.1122 286.475 94.212L283.589 97.3637L287.332 98.6407C288.638 99.0835 289.347 98.8621 289.42 97.7033C289.45 97.659 289.679 97.6368 289.716 97.6811C289.804 98.0871 290.033 99.0318 290.188 99.6445C290.343 100.235 290.498 100.759 290.609 101.121C290.601 101.18 290.387 101.268 290.343 101.246C290.018 100.774 289.391 100.523 287.627 99.9028L282.504 98.124L279.663 98.8621C278.282 99.2238 277.825 99.6002 277.662 100.634C277.633 100.685 277.397 100.707 277.367 100.663Z" fill="#05002F"/>
<path d="M55.7724 173.197C55.7946 173.263 55.7429 173.411 55.6765 173.448C55.2262 173.522 53.9493 173.898 52.9676 174.274C52.8938 174.274 52.7905 174.046 52.8274 173.979C53.9788 173.093 54.2446 172.23 53.7353 170.444L53.4031 169.285L44.819 171.721C43.4461 172.112 42.9958 172.503 42.863 173.529C42.8408 173.573 42.6046 173.603 42.5677 173.558C42.4422 172.99 42.2725 172.311 42.0584 171.566C41.8444 170.82 41.6377 170.148 41.4458 169.602C41.4458 169.543 41.6599 169.447 41.7115 169.469C42.3684 170.274 42.9589 170.37 44.3318 169.979L52.916 167.543L52.5838 166.384C52.0745 164.598 51.4029 164 49.9562 163.852C49.8897 163.815 49.8528 163.564 49.9193 163.528C50.9526 163.328 52.2369 162.981 52.6576 162.804C52.7315 162.804 52.8495 162.9 52.8717 162.967C52.8938 163.313 53.0636 164.17 53.5655 165.934L54.8055 170.303C55.3074 172.075 55.6101 172.887 55.7724 173.197Z" fill="#05002F"/>
<path d="M55.7724 173.197C55.7946 173.263 55.7429 173.411 55.6765 173.448C55.2262 173.522 53.9493 173.898 52.9676 174.274C52.8938 174.274 52.7905 174.046 52.8274 173.979C53.9788 173.093 54.2446 172.23 53.7353 170.444L53.4031 169.285L44.819 171.721C43.4461 172.112 42.9958 172.503 42.863 173.529C42.8408 173.573 42.6046 173.603 42.5677 173.558C42.4422 172.99 42.2725 172.311 42.0584 171.566C41.8444 170.82 41.6377 170.148 41.4458 169.602C41.4458 169.543 41.6599 169.447 41.7115 169.469C42.3684 170.274 42.9589 170.37 44.3318 169.979L52.916 167.543L52.5838 166.384C52.0745 164.598 51.4029 164 49.9562 163.852C49.8897 163.815 49.8528 163.564 49.9193 163.528C50.9526 163.328 52.2369 162.981 52.6576 162.804C52.7315 162.804 52.8495 162.9 52.8717 162.967C52.8938 163.313 53.0636 164.17 53.5655 165.934L54.8055 170.303C55.3074 172.075 55.6101 172.887 55.7724 173.197Z" fill="#05002F"/>
<path d="M51.9607 182.615L48.9419 183.943C47.6871 184.497 47.2885 184.925 47.2959 185.885C47.2811 185.929 47.0449 185.995 47.008 185.951C46.8161 185.427 46.5652 184.807 46.2625 184.135C45.9673 183.456 45.6794 182.858 45.4211 182.356C45.4137 182.297 45.613 182.172 45.6647 182.194C46.3659 182.851 46.9564 182.851 48.2111 182.297L55.1051 179.264C56.3598 178.71 56.7584 178.282 56.751 177.315C56.7732 177.271 57.002 177.204 57.0389 177.249C57.2308 177.773 57.4818 178.393 57.7844 179.064C58.0796 179.744 58.3675 180.341 58.6258 180.843C58.6332 180.902 58.4339 181.028 58.3822 181.006C57.681 180.349 57.0906 180.356 55.8358 180.902L52.935 182.179L55.6291 188.298L58.5299 187.021C59.7847 186.468 60.1832 186.04 60.1759 185.073C60.1906 185.021 60.4194 184.962 60.4637 185.006C60.6556 185.53 60.9066 186.15 61.2018 186.829C61.4971 187.508 61.7849 188.106 62.0433 188.608C62.0506 188.667 61.8514 188.793 61.7997 188.771C61.0985 188.114 60.508 188.121 59.2532 188.667L52.3593 191.701C51.1045 192.254 50.7059 192.683 50.7133 193.649C50.6912 193.694 50.4624 193.76 50.4255 193.716C50.2336 193.192 49.9826 192.572 49.68 191.893C49.3847 191.214 49.0969 190.616 48.8385 190.114C48.8312 190.055 49.0304 189.929 49.0821 189.952C49.7833 190.608 50.3738 190.601 51.6286 190.055L54.6474 188.726L51.9607 182.615Z" fill="#05002F"/>
<path d="M51.9607 182.615L48.9419 183.943C47.6871 184.497 47.2885 184.925 47.2959 185.885C47.2811 185.929 47.0449 185.995 47.008 185.951C46.8161 185.427 46.5652 184.807 46.2625 184.135C45.9673 183.456 45.6794 182.858 45.4211 182.356C45.4137 182.297 45.613 182.172 45.6647 182.194C46.3659 182.851 46.9564 182.851 48.2111 182.297L55.1051 179.264C56.3598 178.71 56.7584 178.282 56.751 177.315C56.7732 177.271 57.002 177.204 57.0389 177.249C57.2308 177.773 57.4818 178.393 57.7844 179.064C58.0796 179.744 58.3675 180.341 58.6258 180.843C58.6332 180.902 58.4339 181.028 58.3822 181.006C57.681 180.349 57.0906 180.356 55.8358 180.902L52.935 182.179L55.6291 188.298L58.5299 187.021C59.7847 186.468 60.1832 186.04 60.1759 185.073C60.1906 185.021 60.4194 184.962 60.4637 185.006C60.6556 185.53 60.9066 186.15 61.2018 186.829C61.4971 187.508 61.7849 188.106 62.0433 188.608C62.0506 188.667 61.8514 188.793 61.7997 188.771C61.0985 188.114 60.508 188.121 59.2532 188.667L52.3593 191.701C51.1045 192.254 50.7059 192.683 50.7133 193.649C50.6912 193.694 50.4624 193.76 50.4255 193.716C50.2336 193.192 49.9826 192.572 49.68 191.893C49.3847 191.214 49.0969 190.616 48.8385 190.114C48.8312 190.055 49.0304 189.929 49.0821 189.952C49.7833 190.608 50.3738 190.601 51.6286 190.055L54.6474 188.726L51.9607 182.615Z" fill="#05002F"/>
<path d="M53.4906 199.34C53.4758 199.281 53.6603 199.134 53.7046 199.141C54.4944 199.672 55.1218 199.584 56.4209 198.779L62.3036 195.163C63.7503 194.277 64.1267 193.723 64.0234 192.793C64.0381 192.742 64.2522 192.653 64.2965 192.69C64.5474 193.133 64.9386 193.797 65.3003 194.395L67.4556 197.894C68.4151 199.458 68.9318 200.16 69.1753 200.411C69.2123 200.47 69.2049 200.625 69.1532 200.684C68.7399 200.876 67.8468 201.444 67.0053 202.071C66.9315 202.093 66.7691 201.894 66.7913 201.82C67.5441 200.809 67.4851 199.953 66.5698 198.462L64.8722 195.701L60.8938 198.145L62.0452 200.019C62.6579 201.016 63.2631 201.488 64.2226 201.392C64.2891 201.392 64.3998 201.643 64.3629 201.687C64.0455 201.865 63.3886 202.241 62.9605 202.507C62.5324 202.772 61.8976 203.178 61.595 203.385C61.5359 203.4 61.3662 203.186 61.3957 203.127C61.9124 202.322 61.7721 201.562 61.1521 200.566L60.0007 198.691L55.9337 201.193L57.7347 204.123C58.7164 205.717 59.4397 206.101 60.9602 205.821C61.034 205.836 61.1374 206.072 61.0857 206.123C60.0819 206.655 59.1371 207.26 58.7385 207.57C58.6795 207.607 58.5171 207.555 58.4802 207.496C58.3473 207.216 58.0521 206.662 56.849 204.714L54.5608 201.001C54.1918 200.418 53.7711 199.761 53.4906 199.34Z" fill="#05002F"/>
<path d="M53.4906 199.34C53.4758 199.281 53.6603 199.134 53.7046 199.141C54.4944 199.672 55.1218 199.584 56.4209 198.779L62.3036 195.163C63.7503 194.277 64.1267 193.723 64.0234 192.793C64.0381 192.742 64.2522 192.653 64.2965 192.69C64.5474 193.133 64.9386 193.797 65.3003 194.395L67.4556 197.894C68.4151 199.458 68.9318 200.16 69.1753 200.411C69.2123 200.47 69.2049 200.625 69.1532 200.684C68.7399 200.876 67.8468 201.444 67.0053 202.071C66.9315 202.093 66.7691 201.894 66.7913 201.82C67.5441 200.809 67.4851 199.953 66.5698 198.462L64.8722 195.701L60.8938 198.145L62.0452 200.019C62.6579 201.016 63.2631 201.488 64.2226 201.392C64.2891 201.392 64.3998 201.643 64.3629 201.687C64.0455 201.865 63.3886 202.241 62.9605 202.507C62.5324 202.772 61.8976 203.178 61.595 203.385C61.5359 203.4 61.3662 203.186 61.3957 203.127C61.9124 202.322 61.7721 201.562 61.1521 200.566L60.0007 198.691L55.9337 201.193L57.7347 204.123C58.7164 205.717 59.4397 206.101 60.9602 205.821C61.034 205.836 61.1374 206.072 61.0857 206.123C60.0819 206.655 59.1371 207.26 58.7385 207.57C58.6795 207.607 58.5171 207.555 58.4802 207.496C58.3473 207.216 58.0521 206.662 56.849 204.714L54.5608 201.001C54.1918 200.418 53.7711 199.761 53.4906 199.34Z" fill="#05002F"/>
<path d="M76.2832 211.711L72.2457 215.254L73.7293 216.945C75.0136 218.406 76.1429 218.495 77.538 217.269C78.9625 216.022 79.0216 214.834 77.7594 213.402L76.2832 211.711ZM68.5921 220.074C68.5921 220.126 68.3854 220.251 68.3412 220.222C67.9869 219.764 67.5366 219.225 67.0273 218.642C66.5402 218.089 66.0899 217.594 65.6914 217.203C65.6692 217.151 65.8242 216.967 65.8759 216.974C66.7395 217.387 67.3004 217.21 68.3338 216.302L73.6851 211.601C74.962 210.486 75.2425 209.874 74.9767 208.98C74.9767 208.929 75.176 208.803 75.2277 208.833C75.5451 209.224 76.047 209.822 76.512 210.346L78.5935 212.715C80.5199 214.907 80.638 217.203 78.9035 218.723C77.1689 220.244 74.8882 219.831 72.9617 217.638L71.4781 215.948L69.5959 217.601C68.5109 218.539 68.2673 219.085 68.5921 220.074Z" fill="#05002F"/>
<path d="M76.2832 211.711L72.2457 215.254L73.7293 216.945C75.0136 218.406 76.1429 218.495 77.538 217.269C78.9625 216.022 79.0216 214.834 77.7594 213.402L76.2832 211.711ZM68.5921 220.074C68.5921 220.126 68.3854 220.251 68.3412 220.222C67.9869 219.764 67.5366 219.225 67.0273 218.642C66.5402 218.089 66.0899 217.594 65.6914 217.203C65.6692 217.151 65.8242 216.967 65.8759 216.974C66.7395 217.387 67.3004 217.21 68.3338 216.302L73.6851 211.601C74.962 210.486 75.2425 209.874 74.9767 208.98C74.9767 208.929 75.176 208.803 75.2277 208.833C75.5451 209.224 76.047 209.822 76.512 210.346L78.5935 212.715C80.5199 214.907 80.638 217.203 78.9035 218.723C77.1689 220.244 74.8882 219.831 72.9617 217.638L71.4781 215.948L69.5959 217.601C68.5109 218.539 68.2673 219.085 68.5921 220.074Z" fill="#05002F"/>
<path d="M87.9019 230.533C90.2417 227.861 90.4557 225.41 88.4481 223.653C86.4552 221.904 84.0785 222.406 81.7313 225.078C79.3915 227.75 79.1774 230.2 81.1851 231.957C83.178 233.706 85.5621 233.205 87.9019 230.533ZM80.2182 223.794C82.7573 220.893 86.4773 220.509 89.164 222.864C91.8729 225.24 91.9762 228.901 89.4224 231.817C86.8759 234.718 83.1632 235.101 80.4765 232.747C77.7603 230.37 77.6569 226.709 80.2182 223.794Z" fill="#05002F"/>
<path d="M87.9019 230.533C90.2417 227.861 90.4557 225.41 88.4481 223.653C86.4552 221.904 84.0785 222.406 81.7313 225.078C79.3915 227.75 79.1774 230.2 81.1851 231.957C83.178 233.706 85.5621 233.205 87.9019 230.533ZM80.2182 223.794C82.7573 220.893 86.4773 220.509 89.164 222.864C91.8729 225.24 91.9762 228.901 89.4224 231.817C86.8759 234.718 83.1632 235.101 80.4765 232.747C77.7603 230.37 77.6569 226.709 80.2182 223.794Z" fill="#05002F"/>
<path d="M91.5992 241.169C91.0161 240.778 90.3666 240.357 89.9311 240.091C89.8942 240.047 89.9976 239.833 90.0492 239.825C90.9719 239.973 91.5402 239.611 92.485 238.209L96.4708 232.304C97.2384 231.167 97.3417 230.592 96.825 229.78C96.8177 229.728 96.98 229.558 97.0317 229.573C97.4746 229.913 98.0208 230.304 98.6334 230.717C99.2756 231.153 99.866 231.529 100.368 231.824C100.405 231.869 100.302 232.083 100.25 232.09C99.2239 231.898 98.7146 232.208 97.9174 233.389L92.9278 240.785L95.3341 242.409C96.8915 243.457 97.7034 243.509 98.9729 242.623C99.0467 242.608 99.2387 242.778 99.2091 242.852C98.5153 243.752 97.9027 244.69 97.6665 245.14C97.6222 245.199 97.4598 245.221 97.4008 245.177C97.1646 244.977 96.6627 244.594 94.7657 243.317L91.5992 241.169Z" fill="#05002F"/>
<path d="M91.5992 241.169C91.0161 240.778 90.3666 240.357 89.9311 240.091C89.8942 240.047 89.9976 239.833 90.0492 239.825C90.9719 239.973 91.5402 239.611 92.485 238.209L96.4708 232.304C97.2384 231.167 97.3417 230.592 96.825 229.78C96.8177 229.728 96.98 229.558 97.0317 229.573C97.4746 229.913 98.0208 230.304 98.6334 230.717C99.2756 231.153 99.866 231.529 100.368 231.824C100.405 231.869 100.302 232.083 100.25 232.09C99.2239 231.898 98.7146 232.208 97.9174 233.389L92.9278 240.785L95.3341 242.409C96.8915 243.457 97.7034 243.509 98.9729 242.623C99.0467 242.608 99.2387 242.778 99.2091 242.852C98.5153 243.752 97.9027 244.69 97.6665 245.14C97.6222 245.199 97.4598 245.221 97.4008 245.177C97.1646 244.977 96.6627 244.594 94.7657 243.317L91.5992 241.169Z" fill="#05002F"/>
<path d="M113.329 246.572C114.945 243.413 114.546 240.985 112.17 239.767C109.808 238.564 107.623 239.627 106.007 242.793C104.39 245.952 104.789 248.388 107.165 249.598C109.527 250.801 111.712 249.731 113.329 246.572ZM104.228 241.922C105.984 238.49 109.49 237.206 112.672 238.829C115.882 240.468 116.872 243.996 115.107 247.443C113.351 250.875 109.845 252.16 106.663 250.536C103.46 248.89 102.464 245.369 104.228 241.922Z" fill="#05002F"/>
<path d="M113.329 246.572C114.945 243.413 114.546 240.985 112.17 239.767C109.808 238.564 107.623 239.627 106.007 242.793C104.39 245.952 104.789 248.388 107.165 249.598C109.527 250.801 111.712 249.731 113.329 246.572ZM104.228 241.922C105.984 238.49 109.49 237.206 112.672 238.829C115.882 240.468 116.872 243.996 115.107 247.443C113.351 250.875 109.845 252.16 106.663 250.536C103.46 248.89 102.464 245.369 104.228 241.922Z" fill="#05002F"/>
<path d="M127.326 258.809L122.771 246.623L120.528 253.096C119.967 254.713 119.981 255.385 120.742 256.167C120.764 256.211 120.653 256.425 120.594 256.418C120.21 256.263 119.553 256.019 118.985 255.827C118.424 255.635 117.752 255.421 117.354 255.303C117.31 255.266 117.354 255.038 117.398 255.015C118.476 254.875 118.904 254.359 119.465 252.735L121.716 246.247C122.166 244.955 122.107 244.283 121.458 243.619C121.436 243.575 121.546 243.368 121.605 243.368C122.011 243.531 122.631 243.759 123.214 243.966C123.879 244.195 124.277 244.313 124.779 244.453C124.823 244.49 124.868 244.638 124.846 244.704C124.44 245.213 124.417 245.833 124.794 246.845L127.887 255.318L129.894 249.524C130.455 247.907 130.44 247.236 129.68 246.453C129.658 246.409 129.769 246.195 129.828 246.195C130.212 246.35 130.869 246.594 131.437 246.793C131.998 246.985 132.669 247.199 133.068 247.317C133.112 247.354 133.068 247.583 133.024 247.605C131.946 247.745 131.518 248.262 130.957 249.886L127.842 258.883C127.776 258.927 127.377 258.883 127.326 258.809Z" fill="#05002F"/>
<path d="M127.326 258.809L122.771 246.623L120.528 253.096C119.967 254.713 119.981 255.385 120.742 256.167C120.764 256.211 120.653 256.425 120.594 256.418C120.21 256.263 119.553 256.019 118.985 255.827C118.424 255.635 117.752 255.421 117.354 255.303C117.31 255.266 117.354 255.038 117.398 255.015C118.476 254.875 118.904 254.359 119.465 252.735L121.716 246.247C122.166 244.955 122.107 244.283 121.458 243.619C121.436 243.575 121.546 243.368 121.605 243.368C122.011 243.531 122.631 243.759 123.214 243.966C123.879 244.195 124.277 244.313 124.779 244.453C124.823 244.49 124.868 244.638 124.846 244.704C124.44 245.213 124.417 245.833 124.794 246.845L127.887 255.318L129.894 249.524C130.455 247.907 130.44 247.236 129.68 246.453C129.658 246.409 129.769 246.195 129.828 246.195C130.212 246.35 130.869 246.594 131.437 246.793C131.998 246.985 132.669 247.199 133.068 247.317C133.112 247.354 133.068 247.583 133.024 247.605C131.946 247.745 131.518 248.262 130.957 249.886L127.842 258.883C127.776 258.927 127.377 258.883 127.326 258.809Z" fill="#05002F"/>
<path d="M138.92 251.458C138.654 252.765 139.355 253.385 141.333 254.603C143.105 255.754 144.67 256.92 144.212 259.149C143.747 261.408 141.909 262.508 139.436 261.998C137.687 261.644 136.691 260.685 135.997 260.544C135.731 260.493 135.569 260.566 135.414 260.685C135.34 260.685 135.17 260.596 135.148 260.537C135.517 259.452 135.849 258.382 136.13 257.282C136.174 257.238 136.395 257.245 136.44 257.311C136.632 259.245 137.776 260.603 139.665 260.987C141.186 261.297 142.241 260.707 142.514 259.4C142.795 258.042 142.234 257.341 140.241 256.123C138.403 254.957 136.794 253.894 137.237 251.717C137.658 249.65 139.392 248.572 141.599 249.022C142.891 249.288 143.444 249.805 144.079 249.93C144.293 249.975 144.47 249.916 144.596 249.82C144.67 249.812 144.839 249.886 144.861 249.945C144.692 250.956 144.596 251.968 144.529 253.008C144.515 253.082 144.271 253.104 144.227 253.038C143.651 251.355 142.669 250.307 141.363 250.041C140.079 249.761 139.156 250.307 138.92 251.458Z" fill="#05002F"/>
<path d="M138.92 251.458C138.654 252.765 139.355 253.385 141.333 254.603C143.105 255.754 144.67 256.92 144.212 259.149C143.747 261.408 141.909 262.508 139.436 261.998C137.687 261.644 136.691 260.685 135.997 260.544C135.731 260.493 135.569 260.566 135.414 260.685C135.34 260.685 135.17 260.596 135.148 260.537C135.517 259.452 135.849 258.382 136.13 257.282C136.174 257.238 136.395 257.245 136.44 257.311C136.632 259.245 137.776 260.603 139.665 260.987C141.186 261.297 142.241 260.707 142.514 259.4C142.795 258.042 142.234 257.341 140.241 256.123C138.403 254.957 136.794 253.894 137.237 251.717C137.658 249.65 139.392 248.572 141.599 249.022C142.891 249.288 143.444 249.805 144.079 249.93C144.293 249.975 144.47 249.916 144.596 249.82C144.67 249.812 144.839 249.886 144.861 249.945C144.692 250.956 144.596 251.968 144.529 253.008C144.515 253.082 144.271 253.104 144.227 253.038C143.651 251.355 142.669 250.307 141.363 250.041C140.079 249.761 139.156 250.307 138.92 251.458Z" fill="#05002F"/>
<path d="M153.814 263.821C153.261 263.748 152.597 263.674 151.858 263.622C151.12 263.57 150.456 263.534 149.895 263.534C149.843 263.511 149.821 263.275 149.866 263.238C150.773 262.928 151.047 262.404 151.15 261.039L151.703 253.525C151.807 252.159 151.615 251.598 150.759 251.155C150.729 251.119 150.781 250.89 150.832 250.875C151.386 250.949 152.05 251.015 152.788 251.074C153.527 251.133 154.191 251.163 154.752 251.163C154.803 251.185 154.826 251.421 154.781 251.458C153.873 251.768 153.6 252.292 153.497 253.658L153.202 257.651L157.808 253.798C158.944 252.838 159.158 252.145 158.214 251.716C158.184 251.68 158.236 251.443 158.287 251.436C158.715 251.488 159.756 251.584 160.42 251.628C161.07 251.68 161.875 251.716 162.295 251.731C162.347 251.753 162.369 251.99 162.332 252.026C161.542 252.167 160.908 252.661 159.35 253.96L156.597 256.211L159.845 261.858C160.694 263.312 160.937 263.725 161.609 264.124C161.646 264.161 161.587 264.39 161.535 264.412C161.144 264.36 160.28 264.264 159.564 264.213C158.774 264.154 157.926 264.131 157.512 264.117C157.461 264.094 157.439 263.858 157.483 263.829C158.206 263.593 158.472 263.179 157.771 261.932L155.195 257.385L153.098 259.112L152.943 261.201C152.84 262.567 153.032 263.12 153.888 263.563C153.918 263.578 153.866 263.807 153.814 263.821Z" fill="#05002F"/>
<path d="M153.814 263.821C153.261 263.748 152.597 263.674 151.858 263.622C151.12 263.57 150.456 263.534 149.895 263.534C149.843 263.511 149.821 263.275 149.866 263.238C150.773 262.928 151.047 262.404 151.15 261.039L151.703 253.525C151.807 252.159 151.615 251.598 150.759 251.155C150.729 251.119 150.781 250.89 150.832 250.875C151.386 250.949 152.05 251.015 152.788 251.074C153.527 251.133 154.191 251.163 154.752 251.163C154.803 251.185 154.826 251.421 154.781 251.458C153.873 251.768 153.6 252.292 153.497 253.658L153.202 257.651L157.808 253.798C158.944 252.838 159.158 252.145 158.214 251.716C158.184 251.68 158.236 251.443 158.287 251.436C158.715 251.488 159.756 251.584 160.42 251.628C161.07 251.68 161.875 251.716 162.295 251.731C162.347 251.753 162.369 251.99 162.332 252.026C161.542 252.167 160.908 252.661 159.35 253.96L156.597 256.211L159.845 261.858C160.694 263.312 160.937 263.725 161.609 264.124C161.646 264.161 161.587 264.39 161.535 264.412C161.144 264.36 160.28 264.264 159.564 264.213C158.774 264.154 157.926 264.131 157.512 264.117C157.461 264.094 157.439 263.858 157.483 263.829C158.206 263.593 158.472 263.179 157.771 261.932L155.195 257.385L153.098 259.112L152.943 261.201C152.84 262.567 153.032 263.12 153.888 263.563C153.918 263.578 153.866 263.807 153.814 263.821Z" fill="#05002F"/>
<path d="M174.948 263.88C174.373 263.88 173.671 263.91 172.896 263.954C172.121 264.006 171.42 264.065 170.852 264.139C170.8 264.124 170.748 263.895 170.778 263.851C171.708 263.379 171.922 262.818 171.833 261.4L171.649 258.485L168.335 254.093C167.272 252.683 166.977 252.3 166.231 252.004C166.194 251.967 166.216 251.739 166.268 251.709C166.667 251.702 167.53 251.687 168.246 251.635C169.021 251.584 169.848 251.495 170.261 251.451C170.313 251.466 170.365 251.694 170.335 251.739C169.671 252.071 169.464 252.514 170.35 253.702L172.896 257.134L174.86 253.702C175.539 252.506 175.458 251.768 174.336 251.48C174.299 251.443 174.321 251.207 174.373 251.192C174.786 251.185 175.76 251.141 176.388 251.096C177 251.06 177.539 251.008 177.915 250.964C177.967 250.978 178.019 251.207 177.989 251.251C177.465 251.48 177.104 252.049 176.159 253.665L173.443 258.352L173.627 261.282C173.716 262.7 174.003 263.224 174.985 263.578C175.022 263.63 175 263.866 174.948 263.88Z" fill="#05002F"/>
<path d="M174.948 263.88C174.373 263.88 173.671 263.91 172.896 263.954C172.121 264.006 171.42 264.065 170.852 264.139C170.8 264.124 170.748 263.895 170.778 263.851C171.708 263.379 171.922 262.818 171.833 261.4L171.649 258.485L168.335 254.093C167.272 252.683 166.977 252.3 166.231 252.004C166.194 251.967 166.216 251.739 166.268 251.709C166.667 251.702 167.53 251.687 168.246 251.635C169.021 251.584 169.848 251.495 170.261 251.451C170.313 251.466 170.365 251.694 170.335 251.739C169.671 252.071 169.464 252.514 170.35 253.702L172.896 257.134L174.86 253.702C175.539 252.506 175.458 251.768 174.336 251.48C174.299 251.443 174.321 251.207 174.373 251.192C174.786 251.185 175.76 251.141 176.388 251.096C177 251.06 177.539 251.008 177.915 250.964C177.967 250.978 178.019 251.207 177.989 251.251C177.465 251.48 177.104 252.049 176.159 253.665L173.443 258.352L173.627 261.282C173.716 262.7 174.003 263.224 174.985 263.578C175.022 263.63 175 263.866 174.948 263.88Z" fill="#05002F"/>
<path d="M189.9 261.887C189.841 261.88 189.752 261.666 189.782 261.622C190.534 261.039 190.645 260.419 190.291 258.928L188.697 252.211C188.305 250.565 187.899 250.026 186.984 249.842C186.94 249.812 186.925 249.583 186.969 249.546C187.464 249.443 188.224 249.288 188.903 249.118L192.904 248.166C194.69 247.738 195.517 247.472 195.834 247.317C195.908 247.302 196.048 247.362 196.085 247.428C196.137 247.878 196.402 248.912 196.727 249.908C196.727 249.982 196.491 250.078 196.425 250.033C195.701 249 194.867 248.793 193.169 249.199L190.01 249.952L191.088 254.492L193.229 253.982C194.365 253.709 195.007 253.281 195.207 252.344C195.229 252.285 195.502 252.255 195.531 252.307C195.598 252.661 195.753 253.399 195.871 253.894C195.989 254.381 196.181 255.119 196.284 255.466C196.277 255.525 196.026 255.621 195.974 255.577C195.369 254.831 194.609 254.735 193.465 255.001L191.324 255.51L192.431 260.16L195.782 259.363C197.605 258.928 198.196 258.367 198.403 256.831C198.44 256.765 198.698 256.743 198.735 256.809C198.927 257.931 199.2 259.016 199.37 259.496C199.384 259.57 199.288 259.703 199.222 259.717C198.912 259.754 198.292 259.865 196.07 260.396L191.826 261.408C191.132 261.555 190.387 261.747 189.9 261.887Z" fill="#05002F"/>
<path d="M189.9 261.887C189.841 261.88 189.752 261.666 189.782 261.622C190.534 261.039 190.645 260.419 190.291 258.928L188.697 252.211C188.305 250.565 187.899 250.026 186.984 249.842C186.94 249.812 186.925 249.583 186.969 249.546C187.464 249.443 188.224 249.288 188.903 249.118L192.904 248.166C194.69 247.738 195.517 247.472 195.834 247.317C195.908 247.302 196.048 247.362 196.085 247.428C196.137 247.878 196.402 248.912 196.727 249.908C196.727 249.982 196.491 250.078 196.425 250.033C195.701 249 194.867 248.793 193.169 249.199L190.01 249.952L191.088 254.492L193.229 253.982C194.365 253.709 195.007 253.281 195.207 252.344C195.229 252.285 195.502 252.255 195.531 252.307C195.598 252.661 195.753 253.399 195.871 253.894C195.989 254.381 196.181 255.119 196.284 255.466C196.277 255.525 196.026 255.621 195.974 255.577C195.369 254.831 194.609 254.735 193.465 255.001L191.324 255.51L192.431 260.16L195.782 259.363C197.605 258.928 198.196 258.367 198.403 256.831C198.44 256.765 198.698 256.743 198.735 256.809C198.927 257.931 199.2 259.016 199.37 259.496C199.384 259.57 199.288 259.703 199.222 259.717C198.912 259.754 198.292 259.865 196.07 260.396L191.826 261.408C191.132 261.555 190.387 261.747 189.9 261.887Z" fill="#05002F"/>
<path d="M208.286 256.389C208.33 256.411 208.382 256.64 208.338 256.676C207.924 256.817 207.009 257.141 206.404 257.378C205.828 257.599 205.319 257.813 204.95 257.968C204.891 257.968 204.773 257.761 204.795 257.717C205.282 257.319 205.526 256.647 205.998 254.957L207.29 250.373L203.141 247.598C201.769 246.69 201.377 246.417 200.595 246.35C200.551 246.328 200.499 246.099 200.543 246.062C200.92 245.937 201.739 245.664 202.418 245.406C203.156 245.125 203.939 244.786 204.315 244.623C204.374 244.623 204.492 244.83 204.47 244.874C203.916 245.391 203.85 245.878 205.001 246.66L208.109 248.771L209.032 245.391C209.364 244.143 209.15 243.472 208.013 243.523C207.969 243.501 207.917 243.272 207.961 243.236C208.375 243.095 209.29 242.763 209.895 242.534C210.449 242.32 210.98 242.099 211.349 241.944C211.408 241.944 211.526 242.15 211.504 242.195C211.017 242.593 210.773 243.265 210.301 244.955L209.083 249.281L213.46 252.203C214.826 253.111 215.224 253.384 215.999 253.451C216.044 253.473 216.095 253.702 216.051 253.739C215.674 253.864 214.855 254.137 214.176 254.396C213.438 254.676 212.656 255.016 212.279 255.178C212.22 255.178 212.102 254.971 212.124 254.927C212.678 254.403 212.744 253.916 211.593 253.141L208.257 250.868L207.26 254.529C206.928 255.769 207.149 256.44 208.286 256.389Z" fill="#05002F"/>
<path d="M208.286 256.389C208.33 256.411 208.382 256.64 208.338 256.676C207.924 256.817 207.009 257.141 206.404 257.378C205.828 257.599 205.319 257.813 204.95 257.968C204.891 257.968 204.773 257.761 204.795 257.717C205.282 257.319 205.526 256.647 205.998 254.957L207.29 250.373L203.141 247.598C201.769 246.69 201.377 246.417 200.595 246.35C200.551 246.328 200.499 246.099 200.543 246.062C200.92 245.937 201.739 245.664 202.418 245.406C203.156 245.125 203.939 244.786 204.315 244.623C204.374 244.623 204.492 244.83 204.47 244.874C203.916 245.391 203.85 245.878 205.001 246.66L208.109 248.771L209.032 245.391C209.364 244.143 209.15 243.472 208.013 243.523C207.969 243.501 207.917 243.272 207.961 243.236C208.375 243.095 209.29 242.763 209.895 242.534C210.449 242.32 210.98 242.099 211.349 241.944C211.408 241.944 211.526 242.15 211.504 242.195C211.017 242.593 210.773 243.265 210.301 244.955L209.083 249.281L213.46 252.203C214.826 253.111 215.224 253.384 215.999 253.451C216.044 253.473 216.095 253.702 216.051 253.739C215.674 253.864 214.855 254.137 214.176 254.396C213.438 254.676 212.656 255.016 212.279 255.178C212.22 255.178 212.102 254.971 212.124 254.927C212.678 254.403 212.744 253.916 211.593 253.141L208.257 250.868L207.26 254.529C206.928 255.769 207.149 256.44 208.286 256.389Z" fill="#05002F"/>
<path d="M220.929 244.793L222.531 247.679C223.195 248.875 223.66 249.236 224.619 249.14C224.671 249.155 224.752 249.376 224.715 249.421C224.206 249.657 223.616 249.967 222.974 250.329C222.331 250.69 221.756 251.03 221.283 251.325C221.224 251.332 221.084 251.148 221.099 251.096C221.689 250.336 221.63 249.753 220.966 248.55L217.312 241.959C216.648 240.763 216.183 240.401 215.223 240.497C215.172 240.482 215.091 240.261 215.135 240.217C215.644 239.98 216.235 239.67 216.877 239.309C217.526 238.947 218.095 238.608 218.567 238.312C218.626 238.305 218.766 238.489 218.752 238.541C218.161 239.301 218.22 239.884 218.884 241.088L220.42 243.863L226.265 240.623L224.73 237.847C224.066 236.652 223.601 236.29 222.641 236.386C222.59 236.371 222.509 236.15 222.545 236.105C223.055 235.862 223.645 235.559 224.287 235.197C224.937 234.843 225.505 234.504 225.978 234.201C226.037 234.186 226.177 234.378 226.162 234.43C225.572 235.19 225.631 235.773 226.295 236.976L229.949 243.568C230.613 244.763 231.078 245.125 232.037 245.029C232.089 245.044 232.17 245.265 232.126 245.31C231.617 245.553 231.026 245.856 230.384 246.217C229.735 246.572 229.166 246.911 228.694 247.214C228.635 247.221 228.495 247.037 228.509 246.985C229.1 246.225 229.041 245.642 228.376 244.439L226.775 241.553L220.929 244.793Z" fill="#05002F"/>
<path d="M220.929 244.793L222.531 247.679C223.195 248.875 223.66 249.236 224.619 249.14C224.671 249.155 224.752 249.376 224.715 249.421C224.206 249.657 223.616 249.967 222.974 250.329C222.331 250.69 221.756 251.03 221.283 251.325C221.224 251.332 221.084 251.148 221.099 251.096C221.689 250.336 221.63 249.753 220.966 248.55L217.312 241.959C216.648 240.763 216.183 240.401 215.223 240.497C215.172 240.482 215.091 240.261 215.135 240.217C215.644 239.98 216.235 239.67 216.877 239.309C217.526 238.947 218.095 238.608 218.567 238.312C218.626 238.305 218.766 238.489 218.752 238.541C218.161 239.301 218.22 239.884 218.884 241.088L220.42 243.863L226.265 240.623L224.73 237.847C224.066 236.652 223.601 236.29 222.641 236.386C222.59 236.371 222.509 236.15 222.545 236.105C223.055 235.862 223.645 235.559 224.287 235.197C224.937 234.843 225.505 234.504 225.978 234.201C226.037 234.186 226.177 234.378 226.162 234.43C225.572 235.19 225.631 235.773 226.295 236.976L229.949 243.568C230.613 244.763 231.078 245.125 232.037 245.029C232.089 245.044 232.17 245.265 232.126 245.31C231.617 245.553 231.026 245.856 230.384 246.217C229.735 246.572 229.166 246.911 228.694 247.214C228.635 247.221 228.495 247.037 228.509 246.985C229.1 246.225 229.041 245.642 228.376 244.439L226.775 241.553L220.929 244.793Z" fill="#05002F"/>
<path d="M240.985 238.755C241.036 238.762 241.14 238.977 241.11 239.021C240.623 239.331 240.04 239.729 239.413 240.18C238.785 240.63 238.224 241.058 237.781 241.427C237.722 241.442 237.56 241.272 237.567 241.228C238.099 240.335 237.988 239.744 237.154 238.593L232.851 232.629C232.017 231.477 231.5 231.182 230.482 231.404C230.43 231.396 230.327 231.182 230.356 231.138C230.843 230.828 231.426 230.429 232.054 229.979C232.681 229.529 233.242 229.101 233.685 228.732C233.737 228.717 233.906 228.887 233.899 228.931C233.368 229.824 233.478 230.414 234.312 231.566L238.615 237.53C239.442 238.689 239.966 238.984 240.985 238.755Z" fill="#05002F"/>
<path d="M240.985 238.755C241.036 238.762 241.14 238.977 241.11 239.021C240.623 239.331 240.04 239.729 239.413 240.18C238.785 240.63 238.224 241.058 237.781 241.427C237.722 241.442 237.56 241.272 237.567 241.228C238.099 240.335 237.988 239.744 237.154 238.593L232.851 232.629C232.017 231.477 231.5 231.182 230.482 231.404C230.43 231.396 230.327 231.182 230.356 231.138C230.843 230.828 231.426 230.429 232.054 229.979C232.681 229.529 233.242 229.101 233.685 228.732C233.737 228.717 233.906 228.887 233.899 228.931C233.368 229.824 233.478 230.414 234.312 231.566L238.615 237.53C239.442 238.689 239.966 238.984 240.985 238.755Z" fill="#05002F"/>
<path d="M249.227 230.939C250.645 229.684 250.785 228.591 249.692 227.366C248.563 226.097 247.456 226.126 246.054 227.366L244.112 229.093L247.286 232.666L249.227 230.939ZM245.065 226.849C246.467 225.602 246.592 224.554 245.522 223.351C244.43 222.126 243.345 222.126 241.957 223.358L240.311 224.82L243.411 228.311L245.065 226.849ZM245.876 235.389C245.825 235.411 245.64 235.264 245.648 235.212C246.031 234.341 245.84 233.743 244.821 232.599L240.23 227.44C239.101 226.17 238.495 225.897 237.595 226.163C237.543 226.163 237.418 225.964 237.44 225.912C237.831 225.587 238.422 225.085 238.946 224.62L241.263 222.561C243.404 220.657 245.552 220.413 246.843 221.867C247.773 222.915 247.796 224.296 246.961 225.691C248.607 224.775 250.128 224.879 251.176 226.067C252.578 227.647 252.091 229.809 249.921 231.743L247.323 234.053C246.806 234.511 246.245 235.042 245.876 235.389Z" fill="#05002F"/>
<path d="M249.227 230.939C250.645 229.684 250.785 228.591 249.692 227.366C248.563 226.097 247.456 226.126 246.054 227.366L244.112 229.093L247.286 232.666L249.227 230.939ZM245.065 226.849C246.467 225.602 246.592 224.554 245.522 223.351C244.43 222.126 243.345 222.126 241.957 223.358L240.311 224.82L243.411 228.311L245.065 226.849ZM245.876 235.389C245.825 235.411 245.64 235.264 245.648 235.212C246.031 234.341 245.84 233.743 244.821 232.599L240.23 227.44C239.101 226.17 238.495 225.897 237.595 226.163C237.543 226.163 237.418 225.964 237.44 225.912C237.831 225.587 238.422 225.085 238.946 224.62L241.263 222.561C243.404 220.657 245.552 220.413 246.843 221.867C247.773 222.915 247.796 224.296 246.961 225.691C248.607 224.775 250.128 224.879 251.176 226.067C252.578 227.647 252.091 229.809 249.921 231.743L247.323 234.053C246.806 234.511 246.245 235.042 245.876 235.389Z" fill="#05002F"/>
<path d="M260.086 221.21C260.138 221.21 260.286 221.395 260.263 221.447C259.85 221.845 259.356 222.355 258.831 222.923C258.307 223.491 257.842 224.023 257.481 224.473C257.429 224.502 257.23 224.37 257.23 224.318C257.569 223.336 257.341 222.783 256.292 221.816L250.875 216.841C249.827 215.874 249.258 215.697 248.306 216.118C248.254 216.118 248.107 215.933 248.129 215.881C248.542 215.483 249.037 214.973 249.561 214.405C250.085 213.837 250.55 213.305 250.912 212.855C250.963 212.826 251.155 212.958 251.163 213.01C250.823 213.992 251.052 214.545 252.1 215.505L257.518 220.48C258.566 221.454 259.134 221.631 260.086 221.21Z" fill="#05002F"/>
<path d="M260.086 221.21C260.138 221.21 260.286 221.395 260.263 221.447C259.85 221.845 259.356 222.355 258.831 222.923C258.307 223.491 257.842 224.023 257.481 224.473C257.429 224.502 257.23 224.37 257.23 224.318C257.569 223.336 257.341 222.783 256.292 221.816L250.875 216.841C249.827 215.874 249.258 215.697 248.306 216.118C248.254 216.118 248.107 215.933 248.129 215.881C248.542 215.483 249.037 214.973 249.561 214.405C250.085 213.837 250.55 213.305 250.912 212.855C250.963 212.826 251.155 212.958 251.163 213.01C250.823 213.992 251.052 214.545 252.1 215.505L257.518 220.48C258.566 221.454 259.134 221.631 260.086 221.21Z" fill="#05002F"/>
<path d="M260.161 200.927C260.205 200.868 260.352 200.824 260.419 200.854C260.751 201.164 261.829 201.946 262.722 202.5C262.766 202.559 262.648 202.78 262.574 202.795C261.164 202.418 260.323 202.736 259.216 204.227L258.492 205.194L265.652 210.53C266.796 211.379 267.379 211.505 268.28 210.98C268.331 210.973 268.494 211.143 268.479 211.195C268.103 211.637 267.667 212.191 267.21 212.811C266.745 213.431 266.339 214.007 266.021 214.494C265.977 214.523 265.763 214.413 265.755 214.361C265.992 213.35 265.711 212.818 264.567 211.97L257.407 206.633L256.684 207.6C255.577 209.091 255.511 209.984 256.271 211.231C256.286 211.305 256.101 211.49 256.035 211.46C255.252 210.766 254.189 209.955 253.798 209.726C253.754 209.667 253.754 209.512 253.798 209.453C254.064 209.224 254.64 208.567 255.732 207.098L258.448 203.452C259.555 201.983 260.013 201.245 260.161 200.927Z" fill="#05002F"/>
<path d="M260.161 200.927C260.205 200.868 260.352 200.824 260.419 200.854C260.751 201.164 261.829 201.946 262.722 202.5C262.766 202.559 262.648 202.78 262.574 202.795C261.164 202.418 260.323 202.736 259.216 204.227L258.492 205.194L265.652 210.53C266.796 211.379 267.379 211.505 268.28 210.98C268.331 210.973 268.494 211.143 268.479 211.195C268.103 211.637 267.667 212.191 267.21 212.811C266.745 213.431 266.339 214.007 266.021 214.494C265.977 214.523 265.763 214.413 265.755 214.361C265.992 213.35 265.711 212.818 264.567 211.97L257.407 206.633L256.684 207.6C255.577 209.091 255.511 209.984 256.271 211.231C256.286 211.305 256.101 211.49 256.035 211.46C255.252 210.766 254.189 209.955 253.798 209.726C253.754 209.667 253.754 209.512 253.798 209.453C254.064 209.224 254.64 208.567 255.732 207.098L258.448 203.452C259.555 201.983 260.013 201.245 260.161 200.927Z" fill="#05002F"/>
<path d="M275.512 199.731C275.564 199.717 275.741 199.872 275.733 199.923C275.408 200.403 275.032 200.994 274.641 201.665C274.242 202.33 273.903 202.942 273.637 203.459C273.593 203.496 273.371 203.407 273.364 203.356C273.497 202.322 273.157 201.828 271.932 201.104L265.606 197.347C264.381 196.617 263.791 196.558 262.942 197.17C262.89 197.185 262.713 197.03 262.72 196.978C263.045 196.499 263.422 195.908 263.813 195.236C264.211 194.572 264.551 193.96 264.817 193.443C264.861 193.406 265.082 193.494 265.09 193.546C264.957 194.58 265.296 195.074 266.522 195.797L272.847 199.554C274.073 200.278 274.663 200.337 275.512 199.731Z" fill="#05002F"/>
<path d="M275.512 199.731C275.564 199.717 275.741 199.872 275.733 199.923C275.408 200.403 275.032 200.994 274.641 201.665C274.242 202.33 273.903 202.942 273.637 203.459C273.593 203.496 273.371 203.407 273.364 203.356C273.497 202.322 273.157 201.828 271.932 201.104L265.606 197.347C264.381 196.617 263.791 196.558 262.942 197.17C262.89 197.185 262.713 197.03 262.72 196.978C263.045 196.499 263.422 195.908 263.813 195.236C264.211 194.572 264.551 193.96 264.817 193.443C264.861 193.406 265.082 193.494 265.09 193.546C264.957 194.58 265.296 195.074 266.522 195.797L272.847 199.554C274.073 200.278 274.663 200.337 275.512 199.731Z" fill="#05002F"/>
<path d="M277.085 182.947C273.852 181.478 271.438 181.988 270.339 184.416C269.239 186.83 270.412 188.963 273.645 190.432C276.878 191.9 279.292 191.391 280.392 188.963C281.491 186.549 280.318 184.416 277.085 182.947ZM272.855 192.255C269.342 190.66 267.903 187.206 269.379 183.958C270.87 180.674 274.346 179.522 277.875 181.124C281.388 182.718 282.827 186.173 281.351 189.42C279.86 192.705 276.384 193.856 272.855 192.255Z" fill="#05002F"/>
<path d="M277.085 182.947C273.852 181.478 271.438 181.988 270.339 184.416C269.239 186.83 270.412 188.963 273.645 190.432C276.878 191.9 279.292 191.391 280.392 188.963C281.491 186.549 280.318 184.416 277.085 182.947ZM272.855 192.255C269.342 190.66 267.903 187.206 269.379 183.958C270.87 180.674 274.346 179.522 277.875 181.124C281.388 182.718 282.827 186.173 281.351 189.42C279.86 192.705 276.384 193.856 272.855 192.255Z" fill="#05002F"/>
<path d="M288.748 168.082L276.798 173.226L283.374 175.145C285.02 175.625 285.692 175.581 286.43 174.784C286.474 174.762 286.688 174.858 286.696 174.917C286.563 175.308 286.349 175.98 286.179 176.548C286.009 177.116 285.832 177.803 285.736 178.201C285.707 178.246 285.471 178.216 285.441 178.172C285.249 177.101 284.71 176.695 283.064 176.216L276.473 174.289C275.159 173.905 274.495 173.994 273.86 174.673C273.816 174.695 273.602 174.599 273.594 174.54C273.735 174.127 273.941 173.492 274.111 172.909C274.31 172.237 274.406 171.831 274.517 171.322C274.547 171.278 274.694 171.226 274.768 171.241C275.292 171.617 275.92 171.617 276.909 171.189L285.22 167.683L279.337 165.963C277.691 165.484 277.019 165.528 276.281 166.325C276.237 166.347 276.023 166.251 276.015 166.192C276.148 165.801 276.362 165.129 276.532 164.561C276.702 163.993 276.879 163.314 276.982 162.908C277.012 162.863 277.248 162.893 277.27 162.937C277.462 164.007 278.001 164.406 279.647 164.893L288.785 167.565C288.844 167.624 288.814 168.03 288.748 168.082Z" fill="#05002F"/>
<path d="M288.748 168.082L276.798 173.226L283.374 175.145C285.02 175.625 285.692 175.581 286.43 174.784C286.474 174.762 286.688 174.858 286.696 174.917C286.563 175.308 286.349 175.98 286.179 176.548C286.009 177.116 285.832 177.803 285.736 178.201C285.707 178.246 285.471 178.216 285.441 178.172C285.249 177.101 284.71 176.695 283.064 176.216L276.473 174.289C275.159 173.905 274.495 173.994 273.86 174.673C273.816 174.695 273.602 174.599 273.594 174.54C273.735 174.127 273.941 173.492 274.111 172.909C274.31 172.237 274.406 171.831 274.517 171.322C274.547 171.278 274.694 171.226 274.768 171.241C275.292 171.617 275.92 171.617 276.909 171.189L285.22 167.683L279.337 165.963C277.691 165.484 277.019 165.528 276.281 166.325C276.237 166.347 276.023 166.251 276.015 166.192C276.148 165.801 276.362 165.129 276.532 164.561C276.702 163.993 276.879 163.314 276.982 162.908C277.012 162.863 277.248 162.893 277.27 162.937C277.462 164.007 278.001 164.406 279.647 164.893L288.785 167.565C288.844 167.624 288.814 168.03 288.748 168.082Z" fill="#05002F"/>
</svg>
