<svg viewBox="0 0 234 261" fill="none" xmlns="http://www.w3.org/2000/svg">
<g clip-path="url(#clip0_362_388)">
<path d="M3.63 181.54H17.3C19.5667 181.481 21.815 181.961 23.86 182.94C25.6436 183.806 27.1374 185.171 28.16 186.87C29.2064 188.693 29.7322 190.769 29.68 192.87V192.93C29.7509 195.447 28.9685 197.914 27.46 199.93C25.9387 201.891 23.7938 203.274 21.38 203.85L30.78 220.31H26.51L17.59 204.41C17.4603 204.421 17.3298 204.421 17.2 204.41H7.28V220.28H3.63V181.54ZM17 201.17C19.3862 201.308 21.7356 200.532 23.57 199C24.3686 198.227 24.9918 197.291 25.3972 196.255C25.8027 195.22 25.981 194.11 25.92 193C25.9815 191.884 25.7966 190.767 25.3784 189.73C24.9602 188.693 24.3189 187.761 23.5 187C21.6244 185.481 19.2491 184.718 16.84 184.86H7.28V201.21L17 201.17Z" fill="black"/>
<path d="M41.15 219C39.2283 217.8 37.7017 216.061 36.76 214C35.6822 211.6 35.1559 208.99 35.22 206.36C35.1592 203.727 35.6852 201.114 36.76 198.71C37.6923 196.637 39.1983 194.875 41.1 193.63C43.0506 192.406 45.3174 191.78 47.62 191.83C49.895 191.772 52.1383 192.373 54.08 193.56C55.9276 194.746 57.3931 196.441 58.3 198.44C59.3347 200.742 59.8437 203.246 59.79 205.77V207.17H37V204.35H58.07L56.27 206.9V205.55C56.3313 203.565 55.9522 201.591 55.16 199.77C54.5077 198.311 53.4444 197.074 52.1 196.21C51.0821 195.568 49.9386 195.152 48.7463 194.988C47.554 194.825 46.3407 194.919 45.1877 195.264C44.0348 195.609 42.9691 196.197 42.0622 196.988C41.1553 197.779 40.4283 198.755 39.93 199.85C39.1263 201.64 38.7366 203.588 38.79 205.55V206.9C38.7342 208.894 39.1237 210.875 39.93 212.7C40.6154 214.207 41.7325 215.478 43.14 216.35C44.609 217.221 46.2923 217.665 48 217.63C49.2454 217.651 50.4836 217.437 51.65 217C52.6704 216.619 53.5904 216.01 54.34 215.22C55.0482 214.452 55.5716 213.531 55.87 212.53L55.95 212.29H59.44V212.56C59.1694 213.737 58.681 214.853 58 215.85C57.34 216.87 56.4996 217.761 55.52 218.48C54.4751 219.238 53.313 219.819 52.08 220.2C50.7215 220.61 49.3089 220.812 47.89 220.8C45.5192 220.843 43.184 220.219 41.15 219Z" fill="black"/>
<path d="M70.65 219.74C69.1684 219.103 67.8767 218.093 66.9 216.81C65.9588 215.547 65.3844 214.049 65.24 212.48V212.23H68.76V212.48C69.0029 214.029 69.8429 215.422 71.1 216.36C72.568 217.365 74.3225 217.867 76.1 217.79C77.3558 217.822 78.6068 217.622 79.79 217.2C80.7322 216.872 81.5614 216.283 82.18 215.5C82.7405 214.761 83.0396 213.857 83.03 212.93C83.0737 212.397 83.0046 211.86 82.8271 211.355C82.6496 210.85 82.3678 210.389 82 210C80.8348 209.09 79.4592 208.488 78 208.25L73.78 207.25C71.6211 206.852 69.6022 205.901 67.92 204.49C67.2874 203.894 66.7891 203.17 66.458 202.367C66.127 201.563 65.9708 200.699 66 199.83C65.9724 198.356 66.4175 196.912 67.27 195.71C68.1711 194.476 69.3866 193.505 70.79 192.9C72.4115 192.201 74.1647 191.86 75.93 191.9C77.721 191.857 79.4987 192.219 81.13 192.96C82.5388 193.613 83.7523 194.623 84.65 195.89C85.5208 197.158 86.0354 198.636 86.14 200.17V200.47H82.8V200.28C82.7225 199.522 82.4963 198.786 82.1342 198.115C81.7722 197.444 81.2814 196.851 80.69 196.37C79.3517 195.333 77.6919 194.799 76 194.86C74.8611 194.836 73.7288 195.04 72.67 195.46C71.7928 195.811 71.031 196.4 70.47 197.16C69.9469 197.891 69.6733 198.771 69.69 199.67C69.6768 200.192 69.7783 200.711 69.9874 201.189C70.1964 201.668 70.508 202.095 70.9 202.44C72.0718 203.343 73.4439 203.95 74.9 204.21L79.09 205.21C81.89 205.877 83.8733 206.793 85.04 207.96C85.6358 208.58 86.0991 209.314 86.4017 210.119C86.7042 210.923 86.8398 211.781 86.8 212.64C86.8234 214.16 86.3415 215.644 85.43 216.86C84.4524 218.126 83.1591 219.112 81.68 219.72C79.9586 220.425 78.1097 220.766 76.25 220.72C74.3344 220.803 72.4236 220.469 70.65 219.74Z" fill="black"/>
<path d="M99.15 219C97.2283 217.8 95.7017 216.061 94.76 214C93.6787 211.601 93.1491 208.991 93.21 206.36C93.1523 203.727 93.6818 201.113 94.76 198.71C95.5063 197.185 96.5609 195.831 97.857 194.734C99.1532 193.637 100.663 192.82 102.29 192.336C103.918 191.852 105.629 191.711 107.314 191.922C108.999 192.132 110.622 192.69 112.08 193.56C113.925 194.747 115.387 196.441 116.29 198.44C117.33 200.741 117.839 203.246 117.78 205.77V207.17H95V204.35H116.09L114.29 206.9V205.55C114.353 203.564 113.97 201.589 113.17 199.77C112.524 198.307 111.459 197.068 110.11 196.21C109.093 195.567 107.95 195.149 106.758 194.985C105.567 194.821 104.353 194.915 103.201 195.26C102.048 195.605 100.983 196.193 100.077 196.985C99.1712 197.777 98.4459 198.754 97.95 199.85C97.1382 201.638 96.7449 203.587 96.8 205.55V206.9C96.7422 208.895 97.1353 210.878 97.95 212.7C98.6347 214.205 99.7477 215.474 101.15 216.35C102.624 217.216 104.311 217.652 106.02 217.61C107.265 217.629 108.503 217.415 109.67 216.98C110.687 216.599 111.604 215.99 112.35 215.2C113.065 214.437 113.59 213.515 113.88 212.51L113.96 212.27H117.46L117.4 212.54C117.153 213.709 116.695 214.824 116.05 215.83C115.384 216.848 114.54 217.739 113.56 218.46C112.516 219.219 111.354 219.801 110.12 220.18C108.762 220.591 107.349 220.794 105.93 220.78C103.547 220.839 101.196 220.222 99.15 219Z" fill="black"/>
<path d="M125.67 192.36H129.22V197.36H129.3C129.723 195.801 130.609 194.406 131.84 193.36C133.058 192.361 134.596 191.836 136.17 191.88C136.918 191.883 137.662 191.991 138.38 192.2V195.67C138.059 195.539 137.723 195.445 137.38 195.39C136.838 195.304 136.289 195.264 135.74 195.27C134.536 195.238 133.351 195.569 132.338 196.22C131.325 196.871 130.531 197.812 130.06 198.92C129.504 200.217 129.235 201.619 129.27 203.03V220.32H125.72L125.67 192.36Z" fill="black"/>
<path d="M143.52 192.36H147.25L155.74 216.58H155.84L164.36 192.36H168L157.63 220.29H153.87L143.52 192.36Z" fill="black"/>
<path d="M177.41 219C175.47 217.799 173.917 216.062 172.94 214C171.821 211.598 171.274 208.969 171.34 206.32V206.26C171.27 203.617 171.818 200.994 172.94 198.6C173.914 196.535 175.467 194.798 177.41 193.6C179.438 192.446 181.732 191.84 184.065 191.84C186.398 191.84 188.692 192.446 190.72 193.6C192.655 194.808 194.206 196.542 195.19 198.6C196.316 201 196.867 203.63 196.8 206.28V206.34C196.866 208.993 196.315 211.626 195.19 214.03C194.204 216.083 192.658 217.816 190.73 219.03C188.723 220.239 186.413 220.853 184.07 220.8C181.727 220.824 179.422 220.201 177.41 219ZM188.88 216.27C190.291 215.308 191.392 213.956 192.05 212.38C192.844 210.457 193.228 208.39 193.18 206.31V206.25C193.232 204.17 192.847 202.102 192.05 200.18C191.385 198.613 190.276 197.275 188.86 196.33C187.408 195.413 185.716 194.95 184 195C182.319 194.967 180.666 195.433 179.25 196.34C177.841 197.299 176.737 198.642 176.07 200.21C175.271 202.107 174.883 204.152 174.93 206.21V206.27C174.879 208.351 175.268 210.419 176.07 212.34C176.731 213.917 177.836 215.268 179.25 216.23C180.696 217.106 182.354 217.57 184.045 217.57C185.736 217.57 187.394 217.106 188.84 216.23L188.88 216.27Z" fill="black"/>
<path d="M204 186.63C203.778 186.411 203.603 186.149 203.486 185.86C203.369 185.572 203.312 185.262 203.32 184.95C203.312 184.643 203.369 184.337 203.486 184.053C203.603 183.769 203.778 183.513 204 183.3C204.218 183.081 204.478 182.907 204.764 182.788C205.049 182.669 205.356 182.608 205.665 182.608C205.974 182.608 206.281 182.669 206.566 182.788C206.852 182.907 207.112 183.081 207.33 183.3C207.556 183.52 207.733 183.785 207.848 184.078C207.964 184.371 208.015 184.685 208 185C207.997 185.462 207.858 185.913 207.601 186.296C207.344 186.68 206.98 186.98 206.554 187.159C206.128 187.338 205.659 187.388 205.205 187.303C204.751 187.217 204.332 187.001 204 186.68V186.63ZM203.88 192.36H207.42V220.29H203.88V192.36Z" fill="black"/>
<path d="M215.8 192.36H219.35V197.36H219.43C219.851 195.802 220.733 194.408 221.96 193.36C223.182 192.362 224.723 191.837 226.3 191.88C226.732 191.878 227.164 191.915 227.59 191.99C227.898 192.04 228.202 192.11 228.5 192.2V195.67C228.179 195.536 227.843 195.442 227.5 195.39C226.958 195.305 226.409 195.265 225.86 195.27C224.654 195.228 223.465 195.556 222.45 196.208C221.435 196.86 220.643 197.806 220.18 198.92C219.624 200.217 219.355 201.619 219.39 203.03V220.32H215.8V192.36Z" fill="black"/>
<path d="M3.28 235.89H5.2L13.44 247.72L11.24 245.77H12.14V235.89H14.2V249.28H12.28L4.05 237.43L6.25 239.37H5.35V249.28H3.28V235.89Z" fill="black"/>
<path d="M22 243.79L17.29 235.89H19.6L23.02 241.79H23.08L26.49 235.89H28.81L24.09 243.79V249.28H22V243.79Z" fill="black"/>
<path d="M31.86 235.89H33.94V249.28H31.86V235.89ZM32.86 242.96H36.29C37.0516 243.011 37.8026 242.759 38.38 242.26C38.6359 242.009 38.8351 241.706 38.9645 241.371C39.0938 241.036 39.1502 240.678 39.13 240.32C39.1577 239.952 39.105 239.583 38.9754 239.237C38.8459 238.892 38.6427 238.579 38.38 238.32C37.7974 237.83 37.0502 237.58 36.29 237.62H32.9V235.87H36.9C37.7072 235.856 38.5049 236.045 39.22 236.42C39.8602 236.796 40.3831 237.343 40.73 238C41.1202 238.703 41.3169 239.496 41.3 240.3C41.3169 241.104 41.1202 241.897 40.73 242.6C40.365 243.252 39.8246 243.789 39.17 244.15C38.4566 244.529 37.6577 244.719 36.85 244.7H32.85L32.86 242.96Z" fill="black"/>
<path d="M44.71 235.89H46.79V247.48H53V249.28H44.71V235.89Z" fill="black"/>
<path d="M64.88 235.89H69.6C70.7844 235.857 71.9577 236.126 73.01 236.67C73.9464 237.19 74.7031 237.981 75.18 238.94C75.7128 240.064 75.9732 241.297 75.94 242.54C75.9767 243.79 75.7162 245.03 75.18 246.16C74.7121 247.144 73.9504 247.958 73 248.49C71.9456 249.04 70.7686 249.311 69.58 249.28H64.88V235.89ZM69.4 247.48C70.2396 247.506 71.0712 247.31 71.81 246.91C72.4695 246.528 72.991 245.947 73.3 245.25C73.6623 244.408 73.8363 243.497 73.81 242.58C73.8355 241.667 73.6615 240.759 73.3 239.92C72.9784 239.231 72.4554 238.656 71.8 238.27C71.0625 237.877 70.2352 237.684 69.4 237.71H67V247.5L69.4 247.48Z" fill="black"/>
<path d="M79.52 235.89H88V237.69H81.6V241.59H87.67V243.33H81.6V247.48H88V249.28H79.5L79.52 235.89Z" fill="black"/>
<path d="M93.69 249.05C92.9877 248.78 92.3699 248.328 91.9 247.74C91.4598 247.162 91.2021 246.465 91.16 245.74V245.6H93.16V245.72C93.2143 246.12 93.3968 246.492 93.68 246.78C93.9856 247.095 94.363 247.332 94.78 247.47C95.2896 247.638 95.8237 247.719 96.36 247.71C96.8878 247.724 97.4135 247.639 97.91 247.46C98.3013 247.318 98.6468 247.072 98.91 246.75C99.1435 246.435 99.2666 246.052 99.26 245.66C99.2702 245.416 99.2231 245.173 99.1223 244.951C99.0216 244.729 98.8701 244.533 98.68 244.38C98.1116 243.979 97.4578 243.715 96.77 243.61L95.31 243.31C94.2295 243.139 93.2163 242.675 92.38 241.97C92.0534 241.661 91.7955 241.287 91.6232 240.872C91.4509 240.456 91.3681 240.009 91.38 239.56C91.3699 238.843 91.5908 238.142 92.01 237.56C92.4441 236.96 93.0361 236.493 93.72 236.21C94.5154 235.869 95.3747 235.701 96.24 235.72C97.0836 235.706 97.9211 235.866 98.7 236.19C99.3661 236.475 99.9455 236.93 100.38 237.51C100.805 238.093 101.048 238.789 101.08 239.51V239.66H99.08V239.54C99.0362 239.146 98.8761 238.773 98.62 238.47C98.3508 238.159 98.0066 237.921 97.62 237.78C96.6993 237.467 95.7008 237.467 94.78 237.78C94.4084 237.918 94.0827 238.157 93.84 238.47C93.6161 238.755 93.4961 239.108 93.5 239.47C93.4945 239.708 93.5461 239.944 93.6505 240.158C93.7549 240.372 93.909 240.558 94.1 240.7C94.6518 241.078 95.2799 241.331 95.94 241.44L97.4 241.76C98.5012 241.926 99.5374 242.386 100.4 243.09C100.72 243.407 100.969 243.789 101.132 244.209C101.294 244.63 101.365 245.08 101.34 245.53C101.357 246.284 101.141 247.024 100.72 247.65C100.301 248.247 99.7221 248.715 99.05 249C98.1831 249.348 97.254 249.515 96.32 249.49C95.4234 249.511 94.5309 249.362 93.69 249.05Z" fill="black"/>
<path d="M105.26 235.89H107.34V249.28H105.26V235.89Z" fill="black"/>
<path d="M113.85 248.65C112.91 248.075 112.159 247.237 111.69 246.24C111.152 245.075 110.888 243.803 110.92 242.52C110.884 241.264 111.144 240.017 111.68 238.88C112.156 237.898 112.906 237.074 113.84 236.51C114.848 235.94 115.992 235.653 117.15 235.68C118.086 235.658 119.016 235.845 119.87 236.23C120.619 236.572 121.274 237.09 121.78 237.74C122.268 238.382 122.609 239.122 122.78 239.91V240.07H120.7V239.96C120.46 239.239 120.002 238.61 119.39 238.16C118.742 237.722 117.972 237.498 117.19 237.52C116.414 237.502 115.65 237.711 114.99 238.12C114.356 238.533 113.864 239.129 113.58 239.83C113.232 240.683 113.065 241.599 113.09 242.52C113.063 243.465 113.234 244.405 113.59 245.28C113.888 245.975 114.377 246.571 115 247C115.656 247.418 116.422 247.63 117.2 247.61C117.864 247.625 118.522 247.481 119.12 247.19C119.655 246.921 120.105 246.509 120.42 246C120.737 245.461 120.903 244.846 120.9 244.22V244H117.39V242.3H122.96V243.67C122.989 244.748 122.752 245.816 122.27 246.78C121.825 247.637 121.127 248.335 120.27 248.78C119.307 249.264 118.238 249.502 117.16 249.47C116.002 249.509 114.856 249.225 113.85 248.65Z" fill="black"/>
<path d="M126.56 235.89H128.48L136.72 247.72L134.52 245.77H135.42V235.89H137.49V249.28H135.57L127.33 237.43L129.53 239.37H128.63V249.28H126.56V235.89Z" fill="black"/>
<path d="M152 249.05C151.298 248.78 150.68 248.328 150.21 247.74C149.765 247.164 149.507 246.466 149.47 245.74V245.6H151.47V245.72C151.525 246.118 151.703 246.489 151.98 246.78C152.291 247.093 152.671 247.33 153.09 247.47C153.6 247.638 154.134 247.719 154.67 247.71C155.198 247.724 155.723 247.639 156.22 247.46C156.611 247.318 156.957 247.072 157.22 246.75C157.453 246.435 157.577 246.052 157.57 245.66C157.58 245.416 157.533 245.173 157.432 244.951C157.332 244.729 157.18 244.533 156.99 244.38C156.422 243.979 155.768 243.715 155.08 243.61L153.62 243.31C152.539 243.139 151.526 242.675 150.69 241.97C150.364 241.661 150.106 241.286 149.934 240.871C149.762 240.456 149.679 240.009 149.69 239.56C149.688 238.843 149.912 238.143 150.33 237.56C150.764 236.96 151.356 236.493 152.04 236.21C153.644 235.562 155.436 235.562 157.04 236.21C157.71 236.492 158.294 236.948 158.73 237.53C159.155 238.113 159.398 238.809 159.43 239.53V239.68H157.43V239.56C157.386 239.166 157.226 238.793 156.97 238.49C156.701 238.179 156.357 237.941 155.97 237.8C155.049 237.487 154.051 237.487 153.13 237.8C152.758 237.938 152.433 238.177 152.19 238.49C151.966 238.775 151.846 239.128 151.85 239.49C151.844 239.728 151.896 239.964 152 240.178C152.105 240.392 152.259 240.578 152.45 240.72C153.002 241.098 153.63 241.351 154.29 241.46L155.75 241.78C156.851 241.946 157.887 242.406 158.75 243.11C159.069 243.428 159.317 243.81 159.479 244.23C159.641 244.651 159.713 245.1 159.69 245.55C159.707 246.304 159.491 247.044 159.07 247.67C158.631 248.292 158.019 248.772 157.31 249.05C156.443 249.398 155.514 249.564 154.58 249.54C153.697 249.539 152.822 249.373 152 249.05Z" fill="black"/>
<path d="M166.38 243.79L161.66 235.89H164L167.43 241.79L170.85 235.89H173.17L168.44 243.79V249.28H166.36L166.38 243.79Z" fill="black"/>
<path d="M177.85 249.05C177.148 248.78 176.53 248.328 176.06 247.74C175.62 247.162 175.362 246.465 175.32 245.74V245.6H177.32V245.72C177.379 246.119 177.561 246.489 177.84 246.78C178.148 247.097 178.529 247.334 178.95 247.47C179.456 247.638 179.987 247.719 180.52 247.71C181.048 247.724 181.573 247.639 182.07 247.46C182.461 247.318 182.807 247.072 183.07 246.75C183.311 246.439 183.438 246.054 183.43 245.66C183.438 245.416 183.39 245.174 183.289 244.952C183.189 244.731 183.038 244.535 182.85 244.38C182.277 243.981 181.62 243.718 180.93 243.61L179.47 243.31C178.39 243.136 177.378 242.673 176.54 241.97C176.213 241.661 175.956 241.287 175.783 240.872C175.611 240.456 175.528 240.009 175.54 239.56C175.53 238.843 175.751 238.142 176.17 237.56C176.604 236.96 177.196 236.493 177.88 236.21C179.484 235.565 181.276 235.565 182.88 236.21C183.547 236.498 184.129 236.952 184.57 237.53C184.988 238.116 185.227 238.811 185.26 239.53V239.68H183.26V239.56C183.216 239.166 183.056 238.793 182.8 238.49C182.531 238.179 182.187 237.941 181.8 237.8C180.879 237.487 179.881 237.487 178.96 237.8C178.59 237.94 178.265 238.179 178.02 238.49C177.8 238.777 177.681 239.128 177.68 239.49C177.674 239.728 177.726 239.964 177.83 240.178C177.935 240.392 178.089 240.578 178.28 240.72C178.832 241.098 179.46 241.351 180.12 241.46L181.58 241.78C182.682 241.944 183.719 242.404 184.58 243.11C184.9 243.427 185.149 243.809 185.311 244.229C185.474 244.65 185.545 245.1 185.52 245.55C185.542 246.304 185.325 247.046 184.9 247.67C184.463 248.294 183.85 248.774 183.14 249.05C182.273 249.398 181.344 249.565 180.41 249.54C179.534 249.537 178.666 249.371 177.85 249.05Z" fill="black"/>
<path d="M192.36 237.69H188.26V235.89H198.53V237.69H194.44V249.28H192.36V237.69Z" fill="black"/>
<path d="M201.82 235.89H210.32V237.69H203.9V241.59H210V243.33H203.9V247.48H210.32V249.28H201.82V235.89Z" fill="black"/>
<path d="M214.06 235.89H216.46L220.79 246.57H220.85L225.18 235.89H227.59V249.28H225.69V239.41H224.69L226.86 236.26L221.55 249.26H220.01L214.7 236.26L216.87 239.41H216V249.28H214.1L214.06 235.89Z" fill="black"/>
<path d="M87.67 0.019989H57.52V23.65H87.67V0.019989Z" fill="#004B98"/>
<path d="M87.67 23.65H57.52V144.16H87.67V23.65Z" fill="#0676D3"/>
<path d="M87.67 23.65H115.85C115.85 23.65 138.01 24.53 137.65 46.45C137.29 67.85 118 68.79 118 68.79L101 69.11L112.39 92C112.39 92 167.09 97.57 168.5 46.35C168.5 -2.44 117.92 7.41333e-07 117.92 7.41333e-07H87.67V23.65Z" fill="#0676D3"/>
<path d="M101 69.11L138.59 144.11L175.25 144.17L144 86.6C144 86.6 133.41 69.29 122.62 68.83L101 69.11Z" fill="#004B98"/>
</g>
</svg>
