<svg viewBox="0 0 333 129" fill="none" xmlns="http://www.w3.org/2000/svg">
<path d="M133.043 70H136.998V57.4536H144.798L151.588 70H156.224L148.885 56.8384C152.862 55.5859 155.257 52.1582 155.257 47.7637V47.7197C155.257 42.0288 151.258 38.2935 145.15 38.2935H133.043V70ZM136.998 53.938V41.8091H144.623C148.709 41.8091 151.17 44.0723 151.17 47.8516V47.8955C151.17 51.7627 148.863 53.938 144.798 53.938H136.998ZM171.468 70.4175C177.049 70.4175 180.433 67.2534 181.246 64.0454L181.29 63.8696H177.466L177.378 64.0674C176.741 65.4956 174.764 67.0117 171.556 67.0117C167.337 67.0117 164.634 64.1553 164.524 59.2554H181.575V57.7612C181.575 50.686 177.664 45.896 171.226 45.896C164.788 45.896 160.613 50.9058 160.613 58.2227V58.2446C160.613 65.6714 164.7 70.4175 171.468 70.4175ZM171.204 49.3018C174.698 49.3018 177.291 51.521 177.686 56.2012H164.59C165.008 51.6968 167.688 49.3018 171.204 49.3018ZM196.138 70.4175C201.521 70.4175 205.63 67.4951 205.63 63.2764V63.2324C205.63 59.8486 203.477 57.915 199.016 56.8384L195.369 55.9595C192.578 55.2783 191.392 54.2676 191.392 52.6636V52.6196C191.392 50.5322 193.457 49.082 196.27 49.082C199.126 49.082 200.972 50.3784 201.477 52.2461H205.234C204.707 48.3789 201.257 45.896 196.292 45.896C191.26 45.896 187.48 48.8623 187.48 52.7954V52.8174C187.48 56.2231 189.48 58.1567 193.918 59.2114L197.588 60.0903C200.51 60.7935 201.719 61.9141 201.719 63.5181V63.562C201.719 65.7153 199.456 67.2314 196.27 67.2314C193.237 67.2314 191.348 65.9351 190.71 63.9575H186.799C187.239 67.8687 190.864 70.4175 196.138 70.4175ZM221.73 70.4175C227.312 70.4175 230.695 67.2534 231.508 64.0454L231.552 63.8696H227.729L227.641 64.0674C227.004 65.4956 225.026 67.0117 221.818 67.0117C217.6 67.0117 214.897 64.1553 214.787 59.2554H231.838V57.7612C231.838 50.686 227.927 45.896 221.489 45.896C215.051 45.896 210.876 50.9058 210.876 58.2227V58.2446C210.876 65.6714 214.963 70.4175 221.73 70.4175ZM221.467 49.3018C224.96 49.3018 227.553 51.521 227.949 56.2012H214.853C215.271 51.6968 217.951 49.3018 221.467 49.3018ZM238.271 70H242.094V55.3223C242.094 51.8506 244.687 49.5435 248.334 49.5435C249.169 49.5435 249.894 49.6313 250.685 49.7632V46.0498C250.312 45.9839 249.499 45.896 248.773 45.896C245.565 45.896 243.346 47.3462 242.445 49.8291H242.094V46.3135H238.271V70ZM262.831 70H266.698L275.465 46.3135H271.422L264.94 65.8252H264.588L258.106 46.3135H254.063L262.831 70ZM289.874 70.4175C296.619 70.4175 300.794 65.7593 300.794 58.1787V58.1348C300.794 50.5322 296.619 45.896 289.874 45.896C283.128 45.896 278.953 50.5322 278.953 58.1348V58.1787C278.953 65.7593 283.128 70.4175 289.874 70.4175ZM289.874 67.0337C285.391 67.0337 282.864 63.7598 282.864 58.1787V58.1348C282.864 52.5317 285.391 49.2798 289.874 49.2798C294.356 49.2798 296.883 52.5317 296.883 58.1348V58.1787C296.883 63.7598 294.356 67.0337 289.874 67.0337ZM309.248 41.7432C310.698 41.7432 311.885 40.5566 311.885 39.1064C311.885 37.6562 310.698 36.4697 309.248 36.4697C307.798 36.4697 306.611 37.6562 306.611 39.1064C306.611 40.5566 307.798 41.7432 309.248 41.7432ZM307.314 70H311.138V46.3135H307.314V70ZM318.845 70H322.668V55.3223C322.668 51.8506 325.261 49.5435 328.908 49.5435C329.743 49.5435 330.468 49.6313 331.259 49.7632V46.0498C330.886 45.9839 330.073 45.896 329.348 45.896C326.14 45.896 323.92 47.3462 323.02 49.8291H322.668V46.3135H318.845V70Z" fill="black"/>
<path d="M132.671 90H133.891V79.1692H134.008L141.632 90H142.824V76.9651H141.605V87.7869H141.488L133.891 76.9651H132.671V90ZM150.043 90H151.272V84.3633L155.942 76.9651H154.533L150.712 83.1077H150.603L146.782 76.9651H145.364L150.043 84.3633V90ZM158.491 90H159.728V85.0859H163.116C165.6 85.0859 167.298 83.4419 167.298 81.021V81.0029C167.298 78.582 165.6 76.9651 163.116 76.9651H158.491V90ZM162.827 78.0671C164.832 78.0671 166.042 79.1782 166.042 81.012V81.03C166.042 82.8728 164.832 83.9839 162.827 83.9839H159.728V78.0671H162.827ZM170.181 90H177.94V88.8799H171.418V76.9651H170.181V90ZM185.865 90H190.156C194.139 90 196.344 87.5339 196.344 83.4871V83.469C196.344 79.4312 194.13 76.9651 190.156 76.9651H185.865V90ZM187.103 88.8799V78.0852H190.083C193.263 78.0852 195.079 80.1177 195.079 83.478V83.4961C195.079 86.8564 193.272 88.8799 190.083 88.8799H187.103ZM199.362 90H207.239V88.8799H200.599V83.8755H206.905V82.7734H200.599V78.0852H207.239V76.9651H199.362V90ZM214.575 90.271C217.384 90.271 219.263 88.7444 219.263 86.4409V86.4319C219.263 84.6162 218.17 83.5232 215.46 82.9089L214.123 82.6018C212.145 82.1501 211.341 81.4185 211.341 80.2712V80.2622C211.341 78.8079 212.705 77.8413 214.503 77.8413C216.355 77.8323 217.583 78.7988 217.773 80.0544L217.782 80.1628H219.019L219.01 80.0454C218.857 78.1755 217.086 76.6941 214.539 76.6941C211.937 76.6941 210.086 78.2207 210.086 80.2893V80.2983C210.086 82.0959 211.188 83.207 213.807 83.8032L215.144 84.1013C217.15 84.553 218.008 85.375 218.008 86.5764V86.5945C218.008 88.0579 216.598 89.1238 214.638 89.1238C212.633 89.1238 211.133 88.1392 210.998 86.7029L210.989 86.6035H209.751L209.76 86.7029C209.95 88.7896 211.82 90.271 214.575 90.271ZM222.182 90H223.42V76.9651H222.182V90ZM232.247 90.271C235.526 90.271 237.685 88.0669 237.685 84.7788V83.5051H232.418V84.5981H236.447V84.8872C236.447 87.4165 234.776 89.1238 232.247 89.1238C229.473 89.1238 227.712 86.9287 227.712 83.46V83.4419C227.712 80.0183 229.482 77.8413 232.247 77.8413C234.297 77.8413 235.76 78.844 236.302 80.6868L236.33 80.7681H237.567L237.549 80.6777C237.034 78.2478 235.02 76.6941 232.247 76.6941C228.742 76.6941 226.447 79.3499 226.447 83.4419V83.46C226.447 87.6062 228.724 90.271 232.247 90.271ZM240.775 90H241.995V79.1692H242.112L249.736 90H250.928V76.9651H249.709V87.7869H249.592L241.995 76.9651H240.775V90ZM263.848 90.271C266.658 90.271 268.537 88.7444 268.537 86.4409V86.4319C268.537 84.6162 267.444 83.5232 264.734 82.9089L263.397 82.6018C261.419 82.1501 260.615 81.4185 260.615 80.2712V80.2622C260.615 78.8079 261.979 77.8413 263.776 77.8413C265.628 77.8323 266.857 78.7988 267.046 80.0544L267.055 80.1628H268.293L268.284 80.0454C268.13 78.1755 266.36 76.6941 263.812 76.6941C261.211 76.6941 259.359 78.2207 259.359 80.2893V80.2983C259.359 82.0959 260.461 83.207 263.081 83.8032L264.418 84.1013C266.423 84.553 267.281 85.375 267.281 86.5764V86.5945C267.281 88.0579 265.872 89.1238 263.912 89.1238C261.906 89.1238 260.407 88.1392 260.271 86.7029L260.262 86.6035H259.025L259.034 86.7029C259.223 88.7896 261.093 90.271 263.848 90.271ZM274.952 90H276.18V84.3633L280.85 76.9651H279.441L275.62 83.1077H275.512L271.691 76.9651H270.272L274.952 84.3633V90ZM287.41 90.271C290.219 90.271 292.098 88.7444 292.098 86.4409V86.4319C292.098 84.6162 291.005 83.5232 288.295 82.9089L286.958 82.6018C284.98 82.1501 284.176 81.4185 284.176 80.2712V80.2622C284.176 78.8079 285.54 77.8413 287.337 77.8413C289.189 77.8323 290.418 78.7988 290.607 80.0544L290.616 80.1628H291.854L291.845 80.0454C291.691 78.1755 289.921 76.6941 287.373 76.6941C284.772 76.6941 282.92 78.2207 282.92 80.2893V80.2983C282.92 82.0959 284.022 83.207 286.642 83.8032L287.979 84.1013C289.984 84.553 290.842 85.375 290.842 86.5764V86.5945C290.842 88.0579 289.433 89.1238 287.473 89.1238C285.467 89.1238 283.968 88.1392 283.832 86.7029L283.823 86.6035H282.586L282.595 86.7029C282.785 88.7896 284.654 90.271 287.41 90.271ZM298.513 90H299.741V78.0852H304.113V76.9651H294.141V78.0852H298.513V90ZM306.779 90H314.656V88.8799H308.017V83.8755H314.322V82.7734H308.017V78.0852H314.656V76.9651H306.779V90ZM317.81 90H318.966V79.3679H319.057L323.546 90H324.621L329.12 79.3679H329.21V90H330.366V76.9651H328.939L324.142 88.374H324.034L319.228 76.9651H317.81V90Z" fill="black"/>
<path d="M57.7359 0.0660937H27.2977C27.2977 0.0660937 17.8763 -1.02099 9.17968 5.62227C0.483048 12.2655 0.603848 20.9622 0.603848 20.9622H49.4016C49.4016 20.9622 73.3173 19.6335 71.8679 42.0998C70.4185 64.5661 49.4016 61.5464 49.4016 61.5464L40 61.6672L49.1461 81.3554H50.0055C50.0055 81.3554 64.7414 86.3077 82.7387 74.1082C100.736 61.9088 99.528 42.0998 99.528 42.0998C99.528 42.0998 101.34 26.156 90.469 13.4734C79.5982 0.790833 57.7359 0.0660937 57.7359 0.0660937Z" fill="#0576D3"/>
<path d="M49.1461 81.3554L49.1461 61.5464L57.7359 68L70.5253 81.3553L49.1461 81.3554Z" fill="white"/>
<path d="M57.1321 61.667H38.4102L72.7135 128.583H104.843L77.1826 77.3037C77.1826 77.3037 67.5197 61.667 57.1321 61.667Z" fill="#004B98"/>
<path d="M55.0787 61.3047C41.5506 61.6671 38.4102 61.6671 38.4102 61.6671L48.7735 81.4545C48.7735 81.4545 61.7391 81.225 67.2781 79.9059C72.8172 78.5867 77.0618 77.3693 77.0618 77.3693C77.0618 77.3693 68.6068 60.9424 55.0787 61.3047Z" fill="#004B98"/>
<rect y="0.065918" width="27.0562" height="20.7753" fill="#004B98"/>
<rect y="20.8413" width="27.0562" height="107.5" fill="#0576D3"/>
</svg>
