<svg viewBox="0 0 341 61" fill="none" xmlns="http://www.w3.org/2000/svg">
<g clip-path="url(#clip0_77131_127719)">
<path d="M188.913 1.96319H195.581C200.337 1.96319 203.182 4.85386 203.182 9.65253C203.182 14.7339 200.294 17.4712 195.581 17.4712H188.913V1.96319ZM192.953 13.9952H194.863C197.926 13.9325 199.143 12.7379 199.143 9.62986C199.143 6.80719 197.622 5.43919 194.863 5.43919H192.953V13.9952Z" fill="white"/>
<path d="M207.932 12.7382C207.997 14.2782 208.888 15.2995 210.45 15.2995C211.341 15.2995 212.21 14.8875 212.558 14.0609H216.012C215.338 16.6675 212.926 17.7969 210.408 17.7969C206.737 17.7969 204.24 15.5809 204.24 11.8035C204.24 8.35021 206.998 5.87421 210.321 5.87421C214.36 5.87421 216.381 8.91554 216.206 12.7382H207.932ZM212.514 10.6742C212.449 9.41421 211.558 8.37288 210.321 8.37288C209.017 8.37288 208.149 9.30488 207.932 10.6742H212.514Z" fill="white"/>
<path d="M217.615 6.19995H221.134V7.50262H221.176C221.894 6.43862 222.98 5.87462 224.283 5.87462C227.823 5.87462 229.322 8.91462 229.322 12.0853C229.322 15.0173 227.758 17.796 224.564 17.796C223.175 17.796 222.111 17.2773 221.35 16.256H221.307V21.252H217.615V6.19995ZM221.176 11.7173C221.176 13.6933 221.742 14.9733 223.414 14.9733C225.064 14.9733 225.63 13.2573 225.63 11.7173C225.63 10.2826 225.064 8.69729 223.435 8.69729C222.436 8.69729 221.176 9.39329 221.176 11.7173Z" fill="white"/>
<path d="M230.668 9.67554C230.735 8.19821 231.428 7.24088 232.427 6.65554C233.428 6.09154 234.729 5.87421 236.012 5.87421C238.683 5.87421 241.267 6.45954 241.267 9.65287V14.5835C241.267 15.5382 241.267 16.5822 241.703 17.4715H237.987C237.859 17.1235 237.813 16.7755 237.771 16.4075C236.815 17.4062 235.404 17.7969 234.057 17.7969C231.907 17.7969 230.212 16.7129 230.212 14.3862C230.212 10.7169 234.209 10.9995 236.772 10.4769C237.401 10.3489 237.749 10.1315 237.749 9.43554C237.749 8.58888 236.728 8.26221 235.968 8.26221C234.948 8.26221 234.296 8.71821 234.121 9.67554H230.668ZM235.447 15.5182C237.205 15.5182 237.792 14.5182 237.705 12.1942C237.184 12.5195 236.228 12.5849 235.425 12.8009C234.6 12.9969 233.904 13.3449 233.904 14.2355C233.904 15.1475 234.621 15.5182 235.447 15.5182Z" fill="white"/>
<path d="M243.378 6.19968H246.961V8.17568H247.003C247.547 6.74101 248.807 5.98235 250.393 5.98235C250.674 5.98235 250.979 6.00368 251.262 6.06901V9.43568C250.783 9.30501 250.35 9.21835 249.849 9.21835C248.026 9.21835 247.07 10.477 247.07 11.8903V17.4717H243.378V6.19968Z" fill="white"/>
<path d="M259.404 8.58941H257.123V13.7134C257.123 14.6054 257.646 14.8001 258.448 14.8001C258.751 14.8001 259.078 14.7574 259.404 14.7574V17.4721C258.73 17.4947 258.058 17.5801 257.383 17.5801C254.235 17.5801 253.431 16.6681 253.431 13.6054V8.58941H251.563V6.20008H253.431V2.78941H257.123V6.20008H259.404V8.58941Z" fill="white"/>
<path d="M260.831 6.19968H264.414V7.74235H264.459C265.131 6.61301 266.324 5.87435 267.692 5.87435C269.106 5.87435 270.364 6.33035 270.972 7.69701C271.864 6.50235 272.972 5.87435 274.492 5.87435C278.075 5.87435 278.466 8.58901 278.466 10.7383V17.4717H274.774V10.8477C274.774 9.63035 274.187 8.91435 273.232 8.91435C271.647 8.91435 271.494 10.1317 271.494 11.9543V17.4717H267.803V11.0637C267.803 9.73835 267.411 8.91435 266.412 8.91435C265.088 8.91435 264.523 9.67568 264.523 11.977V17.4717H260.831V6.19968Z" fill="white"/>
<path d="M283.631 12.7382C283.695 14.2782 284.587 15.2995 286.15 15.2995C287.042 15.2995 287.91 14.8875 288.258 14.0609H291.711C291.038 16.6675 288.627 17.7969 286.107 17.7969C282.437 17.7969 279.939 15.5809 279.939 11.8035C279.939 8.35021 282.697 5.87421 286.019 5.87421C290.059 5.87421 292.081 8.91554 291.906 12.7382H283.631ZM288.214 10.6742C288.149 9.41421 287.259 8.37288 286.019 8.37288C284.718 8.37288 283.849 9.30488 283.631 10.6742H288.214Z" fill="white"/>
<path d="M293.316 6.19968H296.898V7.74235H296.941C297.616 6.59035 299.136 5.87435 300.482 5.87435C304.238 5.87435 304.544 8.60901 304.544 10.2397V17.4717H300.852V12.0197C300.852 10.477 301.026 8.91435 299.005 8.91435C297.616 8.91435 297.008 10.0863 297.008 11.3237V17.4717H293.316V6.19968Z" fill="white"/>
<path d="M313.231 8.58941H310.953V13.7134C310.953 14.6054 311.473 14.8001 312.278 14.8001C312.581 14.8001 312.907 14.7574 313.231 14.7574V17.4721C312.559 17.4947 311.885 17.5801 311.213 17.5801C308.063 17.5801 307.261 16.6681 307.261 13.6054V8.58941H305.393V6.20008H307.261V2.78941H310.953V6.20008H313.231V8.58941Z" fill="white"/>
<path d="M326.246 5.87457C329.742 5.87457 332.196 8.45856 332.196 11.8452C332.196 15.2359 329.742 17.7959 326.246 17.7959C322.747 17.7959 320.316 15.2359 320.316 11.8452C320.316 8.45856 322.747 5.87457 326.246 5.87457ZM326.246 14.9732C327.962 14.9732 328.504 13.2799 328.504 11.8452C328.504 10.4132 327.962 8.69723 326.246 8.69723C324.53 8.69723 324.008 10.4132 324.008 11.8452C324.008 13.2799 324.53 14.9732 326.246 14.9732Z" fill="white"/>
<path d="M334.281 8.58901H332.498V6.19968H334.281C334.281 2.96368 335.409 1.96235 338.559 1.96235C339.145 1.96235 339.753 2.00768 340.339 2.02901V4.63435C339.991 4.59168 339.667 4.57168 339.341 4.57168C338.493 4.57168 337.973 4.67968 337.973 5.69968V6.19968H340.187V8.58901H337.973V17.4717H334.281V8.58901Z" fill="white"/>
<path d="M188.913 25.8255H201.271V29.0615H192.953V31.7788H200.554V34.9042H192.953V37.8588H201.487V41.3335H188.913V25.8255Z" fill="white"/>
<path d="M214.339 41.3338H210.82V40.0312H210.777C210.06 41.0938 208.973 41.6592 207.671 41.6592C204.131 41.6592 202.632 38.6192 202.632 35.4485C202.632 32.5165 204.196 29.7365 207.389 29.7365C208.779 29.7365 209.843 30.2565 210.603 31.2778H210.647V25.8258H214.339V41.3338ZM206.324 35.5792C206.324 37.1205 206.889 38.8365 208.583 38.8365C210.385 38.8365 210.777 37.1205 210.777 35.6885C210.777 34.0578 210.189 32.5592 208.583 32.5592C206.889 32.5592 206.324 34.1458 206.324 35.5792Z" fill="white"/>
<path d="M227.625 41.3338H224.041V39.7912H223.998C223.302 40.9432 221.87 41.6592 220.566 41.6592C217.329 41.6592 216.396 39.7912 216.396 36.8378V30.0618H220.088V36.6005C220.088 38.0978 220.74 38.6192 221.913 38.6192C222.716 38.6192 223.933 38.0978 223.933 36.0992V30.0618H227.625V41.3338Z" fill="white"/>
<path d="M237.03 34.1885C237.008 33.2338 236.16 32.5605 235.227 32.5605C233.164 32.5605 232.838 34.3192 232.838 35.8832C232.838 37.3392 233.468 38.8365 235.032 38.8365C236.312 38.8365 236.966 38.0978 237.139 36.9032H240.722C240.398 39.9218 238.05 41.6592 235.054 41.6592C231.664 41.6592 229.146 39.3352 229.146 35.8832C229.146 32.2978 231.426 29.7365 235.054 29.7365C237.855 29.7365 240.352 31.2138 240.614 34.1885H237.03Z" fill="white"/>
<path d="M241.963 33.5378C242.029 32.0618 242.723 31.1032 243.721 30.5192C244.723 29.9538 246.024 29.7378 247.307 29.7378C249.977 29.7378 252.561 30.3218 252.561 33.5152V38.4458C252.561 39.4005 252.561 40.4445 252.997 41.3338H249.281C249.153 40.9858 249.108 40.6392 249.065 40.2698C248.109 41.2685 246.699 41.6592 245.352 41.6592C243.201 41.6592 241.507 40.5752 241.507 38.2498C241.507 34.5792 245.504 34.8618 248.067 34.3405C248.696 34.2112 249.044 33.9938 249.044 33.2992C249.044 32.4512 248.024 32.1245 247.263 32.1245C246.243 32.1245 245.591 32.5805 245.416 33.5378H241.963ZM246.741 39.3805C248.5 39.3805 249.087 38.3805 249 36.0565C248.479 36.3818 247.523 36.4472 246.72 36.6645C245.895 36.8605 245.199 37.2085 245.199 38.0978C245.199 39.0098 245.916 39.3805 246.741 39.3805Z" fill="white"/>
<path d="M261.261 32.4512H258.979V37.5752C258.979 38.4686 259.502 38.6619 260.305 38.6619C260.61 38.6619 260.934 38.6192 261.261 38.6192V41.3339C260.589 41.3566 259.914 41.4419 259.242 41.4419C256.091 41.4419 255.287 40.5299 255.287 37.4672V32.4512H253.419V30.0619H255.287V26.6526H258.979V30.0619H261.261V32.4512Z" fill="white"/>
<path d="M266.463 28.6509H262.771V25.8255H266.463V28.6509Z" fill="white"/>
<path d="M262.771 30.0629H266.463V41.335H262.771V30.0629Z" fill="white"/>
<path d="M273.933 29.7375C277.429 29.7375 279.884 32.3202 279.884 35.7082C279.884 39.0988 277.429 41.6602 273.933 41.6602C270.435 41.6602 268.004 39.0988 268.004 35.7082C268.004 32.3202 270.435 29.7375 273.933 29.7375ZM273.933 38.8362C275.649 38.8362 276.192 37.1428 276.192 35.7082C276.192 34.2762 275.649 32.5602 273.933 32.5602C272.217 32.5602 271.696 34.2762 271.696 35.7082C271.696 37.1428 272.217 38.8362 273.933 38.8362Z" fill="white"/>
<path d="M281.37 30.0625H284.954V31.6051H284.998C285.671 30.4531 287.19 29.7371 288.537 29.7371C292.295 29.7371 292.601 32.4718 292.601 34.1025V41.3345H288.906V35.8825C288.906 34.3398 289.081 32.7771 287.061 32.7771C285.671 32.7771 285.062 33.9491 285.062 35.1865V41.3345H281.37V30.0625Z" fill="white"/>
<path d="M169.13 0.000457764H131.548L120.272 11.2751V48.8591L131.548 60.1338H169.13L180.408 48.8591V37.5831L176.649 33.8205H157.856V37.5831H142.822V22.5485H157.856V26.2605H176.649L180.408 22.5485V11.2751L169.13 0.000457764Z" fill="white"/>
<path d="M56.3773 0.000457764H41.344L37.5853 3.75646V18.7898L18.792 0.000457764H3.76L0 3.75646V56.3765L3.76 60.1338H18.792L22.552 56.3765V41.3405L41.344 60.1338H56.3773L60.1347 56.3765V3.75646L56.3773 0.000457764Z" fill="white"/>
<path d="M82.6864 60.1333H97.7197L101.478 56.376V45.1013L120.272 26.308V3.7573L116.513 -3.05176e-05H101.478L97.7197 3.7573V11.2746L90.2037 18.7906L82.6864 11.2746V3.7573L78.9277 -3.05176e-05H63.8944L60.1357 3.7573V26.308L78.9277 45.1013V56.376L82.6864 60.1333Z" fill="white"/>
<path d="M173.67 0.537792V0.00179172H176.397V0.537792H175.356V3.20312H174.718V0.537792H173.67Z" fill="white"/>
<path d="M177.853 0.00179172L178.672 2.29513L179.485 0.00179172H180.404V3.20312H179.815V0.623125L178.933 3.20312H178.421L177.529 0.623125V3.20312H176.941V0.00179172H177.853Z" fill="white"/>
</g>
</svg>
