<svg viewBox="0 0 967 568" fill="none" xmlns="http://www.w3.org/2000/svg">
    <g clip-path="url(#clip0_1147_1139)">
        <path d="M251.237 291.137C250.539 294.778 248.318 301.814 244.765 302.272C241.189 302.728 238.61 298.893 236.046 297.454C231.716 295.041 225.595 293.46 219.939 291.589C215.059 289.973 208.368 287.969 206.408 283.313C203.466 276.383 210.336 273.102 215.28 271.58C219.939 270.147 223.348 269.61 229.422 269.326C238.356 268.898 246.887 270.176 249.886 275.792C251.695 279.174 252.247 285.885 251.237 291.137ZM333.249 295.606C317.688 287.989 297.479 284.173 282.77 276.007C271.129 269.552 262.204 258.887 249.673 253.141C236.892 246.882 217.652 240.592 210.296 238.78C184.298 232.384 162.463 240.712 154.887 246.705C140.747 257.881 129.697 276.047 134.009 302.178C135.835 313.226 139.237 322.519 144.638 330.163C166.568 361.133 207.61 371.197 240.126 390.735C241.271 391.513 242.467 391.307 243.198 390.312C248.659 382.278 253.099 375.814 262.298 371.99C271.637 368.091 286.333 369.414 299.003 370.033C312.096 370.662 326.227 369.435 330.971 362.667C336.646 354.588 336.314 338.309 327.657 333.336C323.012 330.66 316.084 330.538 311.032 328.208C307.345 326.503 304.501 323.315 302.469 318.882C300.765 315.173 299.179 309.083 301.389 305.112C303.423 301.449 308.554 302.485 312.672 303.444C320.84 305.317 334.485 307.306 342.341 303.858C344.656 302.676 336.38 297.134 333.249 295.606V295.606ZM4.38608 317.474C4.8554 314.825 5.06046 314.085 6.65829 312.001C9.18689 308.218 39.8784 273.779 87.4491 265.434C93.7093 264.535 98.2212 264.97 99.2472 267.479C101.044 271.878 97.4008 274.414 93.0181 276.951C16.7216 322.55 22.1303 390.336 21.4002 418.066C21.6299 429.407 13.4384 431.475 11.3926 426.13C2.43866 401.705 -5.08928 363.422 4.38608 317.474V317.474ZM56.0113 217.612C57.5753 215.954 58.593 215.191 60.9132 214.538C90.2141 207.259 119.609 211.894 140.775 221.334C145.53 223.436 147.67 226.419 144.55 228.42C140.581 230.725 128.554 238.547 121.907 244.741C119.974 246.408 116.528 246.494 114.495 246.225C89.6818 242.953 76.792 241.022 39.4888 255.162C33.7655 257.569 28.6183 254.294 31.2515 249.796C36.219 240.898 47.7678 226.016 56.0113 217.612V217.612ZM104.227 188.336C97.8117 187.605 97.7207 182.913 100.433 181.085C107.404 176.2 118.715 170.304 130.089 165.794C133.5 164.444 135.257 164.092 138.378 164.406C146.762 165.244 160.644 170.89 176.576 182.256C195.682 195.888 212.676 221.784 201.31 219.69C194.121 218.444 197.251 218.786 188.825 217.862C180.214 217.098 174.564 217.982 170.596 217.578C168.867 217.436 167.505 216.283 166.287 215.288C150.163 200.83 131.536 191.653 104.227 188.336Z" fill="white"/>
        <path d="M411.177 414.687C409.458 420.055 407.413 426.787 403.035 423.666C394.9 417.611 376.819 405.977 359.309 399.517C358.37 399.308 358.477 398 358.807 397.265C360.049 394.515 360.604 391.971 361.142 388.717C361.639 385.671 363.836 383.638 365.347 381.195C369.835 374.026 372.267 361.534 373.246 353.737C373.989 346.576 373.547 338.595 371.995 331.942C371.332 329.099 369.284 325.436 369.339 322.294C369.391 319.221 370.838 315.999 371.132 312.37C372 301.869 358.746 293.112 351.515 289.739C335.104 282.077 317.667 275.224 299.943 265.875C289.938 260.598 281.91 249.022 273.883 242.809C265.775 236.553 239.714 226.216 229.301 223.467C226.948 222.726 226.115 221.748 225.717 219.875C221.424 199.386 209.328 176.815 186.742 159.361C179.428 153.675 187.629 150.443 197.703 149.951C356.498 144.508 447.878 290.643 411.177 414.687" fill="white"/>
        <path d="M346.699 344.448C346.585 343.64 346.238 340.903 346.241 340.337C346.25 338.895 349.217 336.931 350.602 335.831C352.7 334.16 355.131 332.324 356.724 331.522C357.298 331.16 357.682 331.994 357.758 332.16C363.612 341.048 361.418 363.007 357.187 373.452C356.698 374.514 355.802 374.93 355.436 374.15C353.279 369.439 350.077 365.198 346.401 362.87C345.719 362.343 345.667 361.245 345.719 361.039C346.903 356.077 347.518 350.574 346.699 344.448V344.448ZM274.305 398.504C275.569 394.865 277.036 392.72 279.864 390.951C285.191 387.608 294.046 387.465 302.59 386.879C310.868 386.323 319.715 385.835 325.604 383.115C329.172 381.475 332.737 376.807 338.243 379.184C340.851 380.307 342.274 382.698 343.05 385.075C343.925 387.721 344.561 390.397 344.29 393.947C343.497 404.192 335.176 409.194 333.68 418.771C333.538 420.251 333.288 422.393 332.437 423.243C326.085 429.71 313.523 428.351 302.164 427.206C298.098 426.803 294.078 426.692 291.327 425.383C289.343 424.453 287.563 422.562 285.915 421.03C282.28 417.662 280.226 415.185 276.581 411.1C275.348 409.716 272.548 407.21 272.364 405.689C272.204 404.229 273.766 400.041 274.305 398.504V398.504ZM75.3954 519.246C71.2263 515.829 69.4321 512.948 67.0347 508.902C47.5857 477.819 36.686 367.727 61.7484 330.39C69.7227 317.306 78.172 323.336 75.3631 333.449C70.5643 356.152 73.506 368.873 84.5452 393.505C101.893 430.114 155.441 480.938 169.617 499.37C193.918 530.986 202.006 554.017 201.896 560.221C201.766 564.981 200.851 568.016 192.511 567.311C148.51 563.823 105.976 545.583 75.3954 519.246" fill="white"/>
        <path d="M100.548 370.783C87.1276 338.089 95.8903 308.651 101.82 297.484C104.808 291.849 107.73 288.168 111.544 289.228C115.695 290.385 116.654 294.634 117.227 302.509C121.449 367.862 160.98 389.865 210.628 412.939C249.802 432.963 294.369 455.857 331.72 511.312C337.373 519.319 338.189 524.176 331.808 528.762C309.032 544.308 288.404 555.145 258.219 562.184C253.678 563.247 248.99 562.449 244.966 552.068C203.035 444.031 132.634 448.9 100.548 370.783ZM360.26 503.607C353.878 509.99 350.254 504.989 348.171 500.888C339.23 481.878 330.497 465.969 316.415 450.556C313.978 448.085 315.857 444.612 319.443 444.967C324.025 445.333 327.029 445.081 332.07 442.916C336.338 441.084 341.224 435.102 343.661 426.511C345.437 420.243 345.521 418.399 349.361 418.01C350.315 417.921 352.063 418.159 353.122 418.463C357.796 419.795 362.815 423.615 366.482 426.427C375.888 433.612 389.921 449.473 392.377 454.604C393.937 457.871 392.445 460.086 391.565 461.953C386.642 472.015 371.12 492.871 360.26 503.607V503.607ZM476.671 7.3883H484.04L538.309 85.9543V7.3883H545.397V98.3847H538.421L483.644 19.2547V98.3847H476.671V7.3883V7.3883ZM605.125 57.779C604.966 47.9393 599.942 37.8622 587.485 37.8622C576.163 37.8622 569.581 46.5873 567.671 57.779H605.125ZM559.738 65.1749C559.738 46.7167 570.424 31.685 587.747 31.685C604.45 31.685 613.59 45.07 612.21 63.6842H567.275V65.1749C567.389 80.0505 573.687 93.7168 589.267 93.7168C597.589 93.7168 604.562 90.3196 608.106 87.5863L611.143 93.1942C607.037 96.1914 599.501 99.8993 588.983 99.8993C569.03 99.8993 559.738 83.8744 559.738 65.1749V65.1749ZM620.521 33.2023H628.17L644.031 87.4436L661.094 33.2023H668.102L685.143 87.5863L701.169 33.2023H708.257L688.569 98.3847H682.05L664.441 43.4381L646.779 98.3847H640.207L620.521 33.2023V33.2023ZM771.793 64.0775L741.301 7.3883H749.804L775.619 56.5511H775.842L801.665 7.3883H809.329L779.166 64.0775V98.3847H771.793V64.0775V64.0775ZM854.883 65.8775C854.883 51.2552 847.094 37.8622 832.19 37.8622C817.456 37.8622 810.764 50.9739 810.764 65.5975C810.764 80.3318 817.953 93.7168 832.753 93.7168C847.653 93.7168 854.883 80.6131 854.883 65.8775ZM803.171 65.8775C803.171 49.4552 811.944 31.685 832.417 31.685C852.968 31.685 862.393 49.3433 862.393 65.5975C862.393 81.9624 853.057 99.8993 832.583 99.8993C812.113 99.8993 803.171 82.2438 803.171 65.8775ZM875.978 33.2023H883.118V44.562C885.551 39.7768 891.447 31.685 900.614 31.685C903.652 31.685 905.787 32.3597 906.912 32.809L905.16 39.5008C904.043 39.0529 902.524 38.5448 899.827 38.5448C890.784 38.5448 884.921 49.1753 883.118 52.9992V98.3847H875.978V33.2023V33.2023ZM927.774 61.7736L956.4 33.2023H965.228L936.381 61.7736L966.747 98.3847H957.867L927.774 61.7736ZM920.048 0.00847064H927.154V98.3847H920.048V0.00847064V0.00847064ZM495.649 190.396C512.97 190.396 520.112 182.467 520.112 170.432C520.112 159.071 513.251 150.866 495.929 150.866H484.289V190.396H495.649ZM476.768 144.45H496.605C515.727 144.45 527.763 153.898 527.763 170.151C527.763 186.569 516.402 196.809 495.761 196.809H484.289V235.501H476.768V144.45V144.45ZM539.231 216.379V170.283H546.318V214.86C546.318 224.423 549.746 230.551 559.702 230.551C569.433 230.551 577.472 221.386 579.667 217.56V170.283H586.752V222.906C586.752 228.077 587.315 233.027 587.989 235.501H580.746C580.343 233.252 579.79 228.379 579.79 224.815C576.664 229.764 569.262 237.003 558.223 237.003C544.56 237.003 539.231 228.077 539.231 216.379V216.379ZM648.8 202.942C648.8 188.72 643.327 175.212 627.468 175.212C621.902 175.212 615.322 178.475 611.642 182.581V228.248C614.646 229.764 619.145 230.779 624.347 230.779C640.871 230.779 648.8 216.436 648.8 202.942V202.942ZM604.524 232.069V137.082H611.642V176.281C615.603 171.782 622.014 168.802 628.707 168.802C647.32 168.802 656.32 183.697 656.32 202.655C656.32 220.992 644.004 237.003 624.092 237.003C616.278 237.003 609.022 235.087 604.524 232.069ZM672.271 137.082H679.414V235.501H672.271V137.082ZM700.549 170.283H707.756V235.501H700.549V170.283ZM698.759 151.03C698.759 147.881 701.233 145.574 704.104 145.574C707.137 145.574 709.612 147.881 709.612 151.03C709.612 154.178 707.137 156.615 704.104 156.615C701.233 156.615 698.759 154.178 698.759 151.03ZM721.477 202.826C721.477 182.185 733.343 168.802 750.16 168.802C759.89 168.802 766.018 172.456 769.55 175.605L765.85 180.823C762.196 177.687 757.245 174.931 749.992 174.931C735.52 174.931 728.955 187.526 728.955 202.543C728.955 216.999 735.426 230.779 749.896 230.779C757.416 230.779 763.713 227.515 766.584 224.983L769.675 230.295C766.184 233.421 759.328 237.003 749.431 237.003C730.73 237.003 721.477 220.262 721.477 202.826V202.826ZM476.671 372.798V281.801H496.073V357.193H529.98V372.798H476.671V372.798ZM544.358 372.798V306.263H562.677V372.798H544.358ZM553.512 297.664C547.097 297.664 542.442 292.547 542.442 286.748C542.442 281.003 547.097 276.063 553.512 276.063C559.923 276.063 564.713 281.003 564.713 286.748C564.713 292.547 559.923 297.664 553.512 297.664ZM596.817 358.681C598.049 359.11 600.917 360.202 605.98 360.202C616.102 360.202 622.119 352.722 622.119 338.999C622.119 326.57 617.897 318.922 608.06 318.922C602.324 318.922 597.937 322.687 596.817 324.039V358.681ZM596.817 274.378V311.442C599.849 308.401 605.698 304.578 613.106 304.578C629.77 304.578 641.376 316.05 641.376 338.999C641.376 361.718 626.058 374.443 605.98 374.443C590.961 374.443 581.796 370.61 578.647 369.142V274.378H596.817V274.378ZM692.525 322.214C691.403 321.564 689.323 320.774 685.496 320.774C677.455 320.774 672.675 327.864 670.99 330.838V372.798H652.852V306.263H670.99V315.266C673.856 310.315 679.367 304.578 687.804 304.578C692.752 304.578 695.393 305.536 696.839 306.402L692.525 322.214V322.214ZM738.535 343.296H736.167C725.589 343.296 718.171 346.422 718.171 354.238C718.171 359.11 722.167 361.155 726.214 361.155C732.786 361.155 736.619 357.33 738.535 355.277V343.296ZM740.555 372.798C739.992 371.11 739.6 367.734 739.494 365.711C736.507 369.198 730.206 374.443 720.797 374.443C709.398 374.443 700.673 367.625 700.673 355.752C700.673 338.377 718.565 332.079 736.167 332.079H738.535V328.255C738.535 322.518 736.167 318.922 727.732 318.922C719.127 318.922 713.222 323.475 710.749 325.22L702.874 314.139C706.866 310.653 715.535 304.578 729.812 304.578C747.979 304.578 756.582 311.61 756.582 329.212V353.112C756.582 362.111 757.538 368.577 758.494 372.798H740.555V372.798ZM811.517 322.214C810.394 321.564 808.312 320.774 804.488 320.774C796.447 320.774 791.664 327.864 789.992 330.838V372.798H771.811V306.263H789.992V315.266C792.87 310.315 798.357 304.578 806.793 304.578C811.741 304.578 814.386 305.536 815.876 306.402L811.517 322.214ZM822.121 306.263H841.47L856.269 350.077H856.936L870.49 306.263H889.216L861.717 379.882C855.827 395.575 848.892 404.74 830.729 404.74C825.153 404.74 821.788 403.954 820.437 403.558L823.079 389.22C824.033 389.444 825.554 389.836 829.442 389.836C838.77 389.836 842.032 385.395 844.675 378.276L847.149 371.447L822.121 306.263Z" fill="white"/>
    </g>
    <defs>
        <clipPath id="clip0_1147_1139">
            <rect width="966.773" height="567.413" fill="white"/>
        </clipPath>
    </defs>
</svg>
