<svg viewBox="0 0 360 49" fill="none" xmlns="http://www.w3.org/2000/svg">
<path fill-rule="evenodd" clip-rule="evenodd" d="M2.42997 19.7754C2.4791 19.4977 2.50057 19.4205 2.66774 19.2021C2.93271 18.8059 6.1469 15.1988 11.1287 14.3247C11.7842 14.2307 12.2567 14.2761 12.3641 14.539C12.5524 14.9998 12.171 15.2652 11.7118 15.531C3.72189 20.307 4.28828 27.4069 4.2118 30.3113C4.23575 31.4994 3.37797 31.7156 3.16368 31.1559C2.22618 28.5977 1.43762 24.5878 2.42997 19.7754Z" fill="white"/>
<path fill-rule="evenodd" clip-rule="evenodd" d="M7.83744 9.31569C8.00106 9.14201 8.10782 9.06228 8.35069 8.99382C11.4193 8.23141 14.4976 8.71677 16.7143 9.7054C17.212 9.92574 17.4361 10.238 17.1094 10.4477C16.6938 10.6892 15.4343 11.5085 14.7381 12.1573C14.5357 12.3318 14.175 12.3409 13.9621 12.3126C11.3634 11.9701 10.0137 11.7676 6.10706 13.2487C5.5076 13.5008 4.96856 13.1579 5.24434 12.6866C5.76454 11.7548 6.97411 10.196 7.83744 9.31569Z" fill="white"/>
<path fill-rule="evenodd" clip-rule="evenodd" d="M12.8868 6.24958C12.2149 6.17309 12.2055 5.68156 12.4895 5.49011C13.2195 4.97864 14.404 4.36102 15.5955 3.88849C15.9522 3.7471 16.1364 3.71033 16.4632 3.74309C17.3412 3.83101 18.7952 4.42221 20.4635 5.6128C22.4642 7.04057 24.244 9.75305 23.0538 9.53347C22.3009 9.40305 22.6288 9.4389 21.7463 9.34202C20.8446 9.26213 20.2529 9.35469 19.8373 9.31235C19.6562 9.29752 19.5136 9.17699 19.3861 9.07253C17.6975 7.55807 15.7468 6.59694 12.8868 6.24958Z" fill="white"/>
<path fill-rule="evenodd" clip-rule="evenodd" d="M28.3579 16.9679C28.2845 17.3501 28.0513 18.0883 27.6785 18.1363C27.3028 18.1843 27.0322 17.7818 26.7628 17.631C26.3083 17.3775 25.6656 17.2117 25.0716 17.0153C24.5592 16.8456 23.8567 16.6355 23.6506 16.1469C23.3419 15.4195 24.0632 15.0753 24.5824 14.9156C25.0716 14.7654 25.4296 14.7089 26.0674 14.6792C27.0055 14.6341 27.9012 14.7683 28.2162 15.3577C28.4061 15.7127 28.464 16.4169 28.3579 16.9679ZM36.9696 17.4368C35.3356 16.6377 33.2135 16.2373 31.6694 15.3802C30.4468 14.7027 29.5094 13.5837 28.1938 12.9807C26.8516 12.324 24.8315 11.6639 24.0592 11.4736C21.3294 10.8025 19.0364 11.6764 18.2411 12.3054C16.7561 13.4781 15.596 15.3843 16.0486 18.1267C16.2404 19.2859 16.5975 20.2611 17.1649 21.063C19.4675 24.3131 23.7771 25.3689 27.1912 27.4193C27.3116 27.5012 27.4372 27.4794 27.514 27.3749C28.0875 26.5321 28.5536 25.8537 29.5195 25.4522C30.5001 25.0431 32.0433 25.1821 33.3738 25.2468C34.7484 25.3132 36.2321 25.1843 36.7306 24.474C37.3262 23.6262 37.2915 21.918 36.3824 21.3962C35.8946 21.1152 35.1672 21.1023 34.6367 20.8579C34.2496 20.6791 33.951 20.3445 33.7376 19.8793C33.5585 19.4901 33.3921 18.851 33.6242 18.4341C33.8378 18.05 34.3764 18.1587 34.8091 18.2592C35.6665 18.456 37.0993 18.6645 37.9242 18.3029C38.1672 18.1788 37.2984 17.5974 36.9696 17.4368Z" fill="white"/>
<path fill-rule="evenodd" clip-rule="evenodd" d="M45.1527 29.9327C44.972 30.496 44.7575 31.2027 44.2977 30.8748C43.4435 30.2396 41.5449 29.0185 39.7063 28.3407C39.6076 28.3187 39.6188 28.1817 39.6536 28.1045C39.7839 27.8159 39.8423 27.549 39.8987 27.2075C39.9511 26.888 40.1817 26.6745 40.3404 26.4183C40.8116 25.666 41.0669 24.3548 41.1697 23.5367C41.2478 22.7851 41.2013 21.9476 41.0384 21.2495C40.9688 20.9514 40.7537 20.567 40.7594 20.2372C40.765 19.9146 40.9168 19.5766 40.9479 19.1958C41.0388 18.0939 39.6473 17.175 38.8878 16.821C37.1648 16.017 35.3336 15.2979 33.4727 14.3167C32.4222 13.763 31.5792 12.5483 30.7364 11.8964C29.885 11.2398 27.1486 10.1552 26.055 9.86651C25.808 9.78879 25.7205 9.68631 25.6787 9.48985C25.2279 7.33966 23.9581 4.97119 21.5863 3.13961C20.8182 2.54311 21.6795 2.20377 22.7372 2.15221C39.4112 1.58096 49.0064 16.9159 45.1527 29.9327Z" fill="white"/>
<path fill-rule="evenodd" clip-rule="evenodd" d="M38.3808 22.5618C38.3689 22.477 38.3323 22.1898 38.3326 22.1305C38.3335 21.979 38.6452 21.7728 38.7905 21.6574C39.011 21.482 39.2661 21.2894 39.4332 21.2052C39.4937 21.1673 39.5338 21.2551 39.542 21.2724C40.1567 22.2048 39.9262 24.5095 39.482 25.6054C39.4306 25.7169 39.3366 25.7603 39.2983 25.6787C39.0717 25.1842 38.7354 24.7391 38.3492 24.4948C38.2779 24.4396 38.2725 24.3244 38.2779 24.303C38.4022 23.7822 38.4668 23.2046 38.3808 22.5618Z" fill="white"/>
<path fill-rule="evenodd" clip-rule="evenodd" d="M30.7796 28.2347C30.9121 27.8527 31.0662 27.6276 31.3633 27.4418C31.9227 27.0911 32.8523 27.076 33.7496 27.0147C34.6189 26.956 35.5478 26.9052 36.1663 26.6196C36.5406 26.4476 36.915 25.9576 37.4935 26.2072C37.7673 26.3251 37.9164 26.5759 37.9982 26.8253C38.0899 27.1032 38.1566 27.3839 38.1281 27.7564C38.0449 28.8314 37.1712 29.3564 37.014 30.3612C36.9994 30.5165 36.973 30.7413 36.8837 30.8306C36.2167 31.5092 34.8975 31.3664 33.7048 31.2465C33.2779 31.204 32.8559 31.1924 32.5671 31.055C32.3588 30.9576 32.1718 30.759 31.9986 30.5984C31.6171 30.245 31.4013 29.9849 31.0188 29.5562C30.889 29.411 30.595 29.1481 30.5756 28.9885C30.5592 28.8354 30.7231 28.3959 30.7796 28.2347Z" fill="white"/>
<path fill-rule="evenodd" clip-rule="evenodd" d="M9.89366 40.9045C9.45588 40.5461 9.26751 40.2438 9.01578 39.8193C6.97375 36.5572 5.82911 25.005 8.46073 21.0867C9.29803 19.7138 10.1852 20.3467 9.8904 21.4079C9.38648 23.7901 9.69537 25.1251 10.8544 27.71C12.6762 31.5514 18.2988 36.8848 19.7873 38.8192C22.339 42.1365 23.1882 44.5534 23.1766 45.2046C23.1628 45.704 23.0669 46.0224 22.1911 45.9486C17.571 45.5826 13.1046 43.6684 9.89366 40.9045Z" fill="white"/>
<path fill-rule="evenodd" clip-rule="evenodd" d="M12.5342 25.3258C11.125 21.895 12.0452 18.8057 12.6676 17.6339C12.9816 17.0427 13.2884 16.6564 13.6888 16.7676C14.1247 16.8891 14.2253 17.3348 14.2855 18.1612C14.7289 25.0191 18.8797 27.3281 24.0932 29.7494C28.2062 31.8506 32.8859 34.253 36.808 40.0724C37.4016 40.9124 37.4873 41.4222 36.8171 41.9035C34.4259 43.5349 32.2596 44.672 29.0903 45.4107C28.6132 45.5223 28.1212 45.4385 27.6986 44.3491C23.2957 33.012 15.9036 33.5231 12.5342 25.3258Z" fill="white"/>
<mask id="mask0_75161_120622" style="mask-type:luminance" maskUnits="userSpaceOnUse" x="0" y="0" width="49" height="49">
<path fill-rule="evenodd" clip-rule="evenodd" d="M0 0H48.0491V48.0562H0V0Z" fill="white"/>
</mask>
<g mask="url(#mask0_75161_120622)">
<path fill-rule="evenodd" clip-rule="evenodd" d="M39.8049 39.2638C39.1346 39.9334 38.7545 39.4084 38.5354 38.9785C37.5967 36.9836 36.6798 35.3139 35.2011 33.6968C34.9449 33.4373 35.1423 33.073 35.5189 33.11C36.0002 33.1486 36.3156 33.1223 36.8451 32.8948C37.2929 32.7026 37.8061 32.075 38.062 31.1735C38.2485 30.5158 38.2572 30.3223 38.6605 30.2813C38.7607 30.2719 38.9441 30.2971 39.0553 30.3291C39.5461 30.4688 40.0731 30.8694 40.4582 31.1647C41.4459 31.9188 42.9194 33.583 43.1773 34.1214C43.3411 34.4642 43.1843 34.6969 43.092 34.8925C42.5752 35.9487 40.9452 38.1371 39.8049 39.2638Z" fill="white"/>
<path fill-rule="evenodd" clip-rule="evenodd" d="M39.8051 39.2648C39.1348 39.9343 38.7546 39.4094 38.5356 38.9795C37.5968 36.9845 36.6799 35.3149 35.2013 33.6977C34.945 33.4383 35.1424 33.0738 35.519 33.111C36.0003 33.1495 36.3157 33.1232 36.8452 32.8958C37.293 32.7035 37.8062 32.0759 38.0622 31.1744C38.2487 30.5168 38.2573 30.3233 38.6606 30.2822C38.7608 30.2728 38.9442 30.298 39.0554 30.3301C39.5462 30.4697 40.0732 30.8704 40.4583 31.1656C41.446 31.9195 42.9195 33.5838 43.1775 34.1224C43.3412 34.4651 43.1844 34.6978 43.0921 34.8935C42.5753 35.9496 40.9454 38.1379 39.8051 39.2648ZM12.5386 25.3222C11.1294 21.8915 12.0496 18.8023 12.672 17.6305C12.9858 17.0393 13.2926 16.653 13.6932 16.7642C14.1289 16.8857 14.2296 17.3314 14.2897 18.1578C14.7332 25.0157 18.8839 27.3247 24.0974 29.7458C28.2106 31.8472 32.8903 34.2494 36.8123 40.0688C37.406 40.909 37.4916 41.4188 36.8213 41.9C34.4301 43.5314 32.264 44.6686 29.0947 45.4071C28.6176 45.5187 28.1254 45.4349 27.7028 44.3455C23.3 33.0086 15.9078 33.5195 12.5386 25.3222ZM2.44191 19.7299C2.49133 19.4517 2.51286 19.3743 2.68047 19.1555C2.94615 18.7587 6.16875 15.1447 11.164 14.269C11.8211 14.1751 12.2948 14.2204 12.4025 14.4838C12.5913 14.9454 12.2089 15.2115 11.7486 15.4777C3.73728 20.2626 4.30518 27.3759 4.2285 30.2858C4.25266 31.476 3.39244 31.6927 3.17774 31.132C2.23759 28.5689 1.44692 24.5514 2.44191 19.7299ZM7.85724 9.2465C8.02129 9.07249 8.12834 8.99261 8.37186 8.92403C11.4487 8.16034 14.5351 8.6466 16.7578 9.63709C17.2568 9.85786 17.4815 10.1707 17.1539 10.3807C16.7372 10.6226 15.4744 11.4434 14.7763 12.0935C14.5734 12.2683 14.2117 12.2774 13.9982 12.2491C11.3926 11.9059 10.0393 11.7031 6.12224 13.1869C5.52119 13.4396 4.98071 13.0959 5.25722 12.6239C5.77881 11.6902 6.9916 10.1286 7.85724 9.2465ZM30.7797 28.2289C30.9122 27.8469 31.0663 27.6218 31.3634 27.4358C31.9228 27.0853 32.8524 27.0702 33.7497 27.0089C34.619 26.9502 35.5479 26.8994 36.1664 26.6138C36.5407 26.4418 36.9151 25.9518 37.4936 26.2014C37.7674 26.3193 37.9165 26.5701 37.9983 26.8195C38.09 27.0974 38.1567 27.3779 38.1282 27.7506C38.045 28.8256 37.1714 29.3505 37.0141 30.3554C36.9996 30.5107 36.9731 30.7355 36.8838 30.8248C36.2168 31.5034 34.8976 31.3606 33.7049 31.2407C33.278 31.1982 32.856 31.1866 32.5672 31.0492C32.3589 30.9516 32.1719 30.7531 31.9987 30.5926C31.6172 30.2392 31.4014 29.9791 31.0189 29.5504C30.8891 29.4052 30.5951 29.1423 30.5757 28.9827C30.5593 28.8296 30.7232 28.3901 30.7797 28.2289ZM12.9204 6.17451C12.2467 6.09773 12.2372 5.60542 12.5219 5.41361C13.2539 4.90103 14.4416 4.28224 15.6363 3.80883C15.994 3.66733 16.1786 3.63033 16.5063 3.6633C17.3866 3.75139 18.8445 4.3437 20.5172 5.53638C22.5233 6.96684 24.3079 9.68442 23.1144 9.46443C22.3596 9.33377 22.6883 9.36984 21.8034 9.27277C20.8994 9.19258 20.3061 9.28531 19.8893 9.24289C19.7078 9.22818 19.5648 9.10728 19.437 9.00278C17.7438 7.48546 15.7879 6.52253 12.9204 6.17451ZM18.2412 12.2995C19.0365 11.6705 21.3295 10.7966 24.0593 11.4677C24.8315 11.658 26.8517 12.3181 28.1939 12.975C29.5095 13.5778 30.4469 14.697 31.6694 15.3744C33.2136 16.2315 35.3357 16.6318 36.9697 17.4309C37.2984 17.5915 38.1673 18.1728 37.9243 18.297C37.0994 18.6586 35.6666 18.4501 34.8092 18.2533C34.3765 18.1528 33.8379 18.044 33.6243 18.4282C33.3922 18.8452 33.5586 19.4842 33.7377 19.8734C33.9511 20.3386 34.2496 20.6732 34.6368 20.852C35.1673 21.0964 35.8946 21.1093 36.3824 21.3903C37.2916 21.9121 37.3263 23.6203 36.7307 24.4681C36.2322 25.1782 34.7484 25.3072 33.3739 25.2409C32.0434 25.1762 30.5002 25.0372 29.5196 25.4463C28.5537 25.8478 28.0876 26.5262 27.5141 27.369C27.4373 27.4735 27.3117 27.4953 27.1913 27.4134C23.7772 25.3631 19.4676 24.3071 17.165 21.0571C16.5976 20.2552 16.2405 19.28 16.0487 18.1208C15.5961 15.3784 16.7562 13.4722 18.2412 12.2995ZM38.3807 22.5563C38.3688 22.4714 38.3323 22.1843 38.3326 22.125C38.3335 21.9734 38.6452 21.7672 38.7905 21.6519C39.0109 21.4765 39.2661 21.2839 39.4332 21.1997C39.4936 21.1617 39.5337 21.2495 39.542 21.2668C40.1566 22.1993 39.9261 24.504 39.482 25.5999C39.4306 25.7114 39.3365 25.7547 39.2983 25.6731C39.0716 25.1786 38.7353 24.7336 38.3491 24.4893C38.2779 24.434 38.2725 24.3188 38.2779 24.2975C38.4021 23.7767 38.4667 23.1991 38.3807 22.5563ZM45.1528 29.9269C44.9721 30.4903 44.7576 31.1968 44.2978 30.8691C43.4436 30.2339 41.5451 29.0127 39.7064 28.335C39.6077 28.3128 39.6189 28.176 39.6538 28.0987C39.784 27.81 39.8424 27.5433 39.8988 27.2017C39.9512 26.8822 40.1818 26.6687 40.3405 26.4125C40.8117 25.6603 41.067 24.349 41.1699 23.531C41.2479 22.7794 41.2015 21.9418 41.0385 21.2438C40.9689 20.9456 40.7538 20.5612 40.7595 20.2315C40.7651 19.9088 40.9169 19.5709 40.948 19.1901C41.039 18.0881 39.6474 17.1694 38.8879 16.8152C37.165 16.0113 35.3338 15.2923 33.4728 14.3111C32.4224 13.7574 31.5793 12.5426 30.7365 11.8907C29.8851 11.2343 27.1487 10.1495 26.0551 9.86091C25.8081 9.7832 25.7206 9.68056 25.6788 9.4841C25.228 7.33407 23.9582 4.96544 21.5864 3.13386C20.8183 2.53736 21.6796 2.19802 22.7374 2.14646C39.4113 1.57536 49.0065 16.9103 45.1528 29.9269ZM9.89364 40.8988C9.45586 40.5404 9.26749 40.238 9.01576 39.8135C6.97373 36.5515 5.82909 24.9992 8.46071 21.0809C9.29801 19.7079 10.1852 20.3409 9.89038 21.4022C9.38646 23.7844 9.69535 25.1194 10.8544 27.7043C12.6761 31.5456 18.2988 36.879 19.7873 38.8134C22.339 42.1307 23.1882 44.5477 23.1766 45.1988C23.1628 45.6982 23.0669 46.0167 22.1911 45.9427C17.571 45.5769 13.1046 43.6626 9.89364 40.8988ZM23.9207 0C10.74 0 0 10.7105 0 24.0298C0 37.3486 10.8053 48.0655 23.9356 48.0655C37.2633 48.0655 48.0491 37.3542 48.0491 24.0352C48.0491 10.7155 37.2478 0 23.9207 0Z" fill="black"/>
</g>
<path fill-rule="evenodd" clip-rule="evenodd" d="M25.0742 17.015C25.6681 17.2115 26.3107 17.3773 26.7652 17.6307C27.0346 17.7815 27.3052 18.184 27.681 18.136C28.0537 18.088 28.2867 17.3499 28.3603 16.9677C28.4664 16.4167 28.4085 15.7124 28.2186 15.3575C27.9038 14.7681 27.0079 14.6339 26.0698 14.6789C25.432 14.7086 25.0742 14.7651 24.5848 14.9153C24.0656 15.0751 23.3445 15.4192 23.653 16.1467C23.8591 16.6353 24.5616 16.8454 25.0742 17.015Z" fill="black"/>
<path d="M60.9845 15.8367H63.3999V6.28539H66.8632V4.29354H57.5212V6.28539H60.9845V15.8367Z" fill="#504E49"/>
<path d="M69.3263 15.8367H71.7418V10.973H76.9406V15.8367H79.3561V4.29354H76.9406V8.98119H71.7418V4.29354H69.3263V15.8367Z" fill="#504E49"/>
<path d="M82.4831 15.8367H90.1294V13.8448H84.8985V10.925H89.8334V9.06919H84.8985V6.28539H90.1294V4.29354H82.4831V15.8367Z" fill="#504E49"/>
<path d="M97.5511 15.8367H99.8626V8.45323H101.07L99.3747 7.59729L105.333 15.8367H107.333V4.29354H105.021V11.645H103.822L105.509 12.5009L99.5667 4.29354H97.5511V15.8367Z" fill="#504E49"/>
<path d="M110.468 15.8367H118.114V13.8448H112.883V10.925H117.818V9.06919H112.883V6.28539H118.114V4.29354H110.468V15.8367Z" fill="#504E49"/>
<path d="M123.345 15.8367H125.624L127.784 8.06126H127.912L130.095 15.8367H132.359L135.422 4.29354H132.927L131.143 12.5409H131.015L128.872 4.29354H126.832L124.728 12.5409H124.6L122.801 4.29354H120.289L123.345 15.8367Z" fill="#504E49"/>
<path d="M145.595 15.8367H148.011V11.525L152.034 4.29354H149.418L146.883 9.14918H146.739L144.195 4.29354H141.58L145.595 11.525V15.8367Z" fill="#504E49"/>
<path d="M158.704 16.1327C159.84 16.1327 160.823 15.8874 161.655 15.3967C162.487 14.9008 163.127 14.1995 163.575 13.2929C164.028 12.3863 164.255 11.3117 164.255 10.0691V10.0531C164.255 8.81054 164.028 7.73595 163.575 6.82935C163.122 5.92275 162.479 5.22414 161.647 4.7335C160.821 4.24287 159.84 3.99756 158.704 3.99756C157.574 3.99756 156.592 4.24287 155.761 4.7335C154.929 5.22414 154.284 5.92275 153.825 6.82935C153.372 7.73062 153.145 8.80521 153.145 10.0531V10.0691C153.145 11.3117 153.369 12.3863 153.817 13.2929C154.27 14.1995 154.913 14.9008 155.745 15.3967C156.576 15.8874 157.563 16.1327 158.704 16.1327ZM158.704 14.0848C158.069 14.0848 157.52 13.9195 157.056 13.5889C156.598 13.2582 156.241 12.7916 155.985 12.189C155.734 11.5863 155.609 10.8797 155.609 10.0691V10.0531C155.609 9.23717 155.737 8.53056 155.993 7.93327C156.249 7.33065 156.608 6.86668 157.072 6.54137C157.536 6.21073 158.08 6.04541 158.704 6.04541C159.328 6.04541 159.872 6.21073 160.336 6.54137C160.799 6.86668 161.157 7.33065 161.407 7.93327C161.663 8.53056 161.791 9.23717 161.791 10.0531V10.0691C161.791 10.8797 161.663 11.5863 161.407 12.189C161.157 12.7916 160.799 13.2582 160.336 13.5889C159.872 13.9195 159.328 14.0848 158.704 14.0848Z" fill="#504E49"/>
<path d="M166.878 15.8367H169.293V11.613H171.157C171.173 11.613 171.192 11.613 171.213 11.613C171.234 11.613 171.253 11.613 171.269 11.613L173.42 15.8367H176.156L173.724 11.253C174.386 10.9917 174.897 10.5677 175.26 9.98112C175.628 9.38916 175.812 8.72254 175.812 7.98127V7.96527C175.812 7.20799 175.649 6.5547 175.324 6.00541C175.004 5.45612 174.535 5.03482 173.916 4.7415C173.303 4.44286 172.559 4.29354 171.685 4.29354H166.878V15.8367ZM169.293 9.85313V6.1814H171.389C171.997 6.1814 172.474 6.34672 172.821 6.67736C173.167 7.008 173.34 7.4533 173.34 8.01326V8.02926C173.34 8.59989 173.17 9.04785 172.829 9.37316C172.493 9.69314 172.023 9.85313 171.421 9.85313H169.293Z" fill="#504E49"/>
<path d="M180.842 12.4929L182.29 10.7491L183.73 9.53315L188.089 4.29354H185.401L181.138 9.47716H180.754L180.842 12.4929ZM178.579 15.8367H180.994V4.29354H178.579V15.8367ZM185.489 15.8367H188.385L183.746 9.14918L182.01 10.7331L185.489 15.8367Z" fill="#504E49"/>
<path d="M196.294 12.197H199.846C200.656 12.197 201.365 12.0343 201.973 11.709C202.581 11.3837 203.053 10.925 203.389 10.3331C203.73 9.74114 203.901 9.04785 203.901 8.25325V8.23725C203.901 7.44797 203.73 6.75736 203.389 6.1654C203.053 5.57344 202.581 5.11481 201.973 4.7895C201.365 4.45886 200.656 4.29354 199.846 4.29354H196.294V6.2054H199.254C199.947 6.2054 200.485 6.38138 200.869 6.73336C201.259 7.08533 201.453 7.58929 201.453 8.24525V8.26125C201.453 8.9172 201.259 9.42383 200.869 9.78113C200.485 10.1331 199.947 10.3091 199.254 10.3091H196.294V12.197ZM195.087 15.8367H197.502V4.29354H195.087V15.8367Z" fill="#504E49"/>
<path d="M211.283 16.1327C212.275 16.1327 213.13 15.954 213.85 15.5967C214.575 15.2394 215.133 14.7408 215.522 14.1008C215.916 13.4555 216.114 12.7063 216.114 11.853V4.29354H213.698V11.637C213.698 12.133 213.605 12.5649 213.418 12.9329C213.232 13.2955 212.957 13.5782 212.594 13.7808C212.237 13.9835 211.8 14.0848 211.283 14.0848C210.766 14.0848 210.326 13.9835 209.963 13.7808C209.606 13.5782 209.331 13.2955 209.139 12.9329C208.953 12.5649 208.859 12.133 208.859 11.637V4.29354H206.444V11.853C206.444 12.7116 206.641 13.4609 207.036 14.1008C207.436 14.7408 207.995 15.2394 208.715 15.5967C209.44 15.954 210.296 16.1327 211.283 16.1327Z" fill="#504E49"/>
<path d="M220.448 15.8367H224.423C225.25 15.8367 225.959 15.7034 226.551 15.4367C227.148 15.1647 227.607 14.7834 227.927 14.2928C228.252 13.7968 228.415 13.2129 228.415 12.5409V12.5249C228.415 12.0343 228.3 11.589 228.071 11.189C227.847 10.7891 227.535 10.4638 227.135 10.2131C226.74 9.96245 226.287 9.81846 225.775 9.78113V9.63714C226.17 9.57848 226.524 9.43183 226.839 9.19718C227.154 8.96253 227.402 8.66922 227.583 8.31724C227.769 7.96527 227.863 7.58663 227.863 7.18132V7.16533C227.863 6.57337 227.719 6.06407 227.431 5.63744C227.148 5.20547 226.74 4.87483 226.207 4.64551C225.679 4.41086 225.039 4.29354 224.288 4.29354H220.448V6.08541H223.672C224.248 6.08541 224.693 6.21873 225.007 6.48538C225.327 6.74669 225.487 7.112 225.487 7.5813V7.59729C225.487 8.07193 225.314 8.4399 224.967 8.70121C224.621 8.96253 224.122 9.09318 223.472 9.09318H220.448V10.6851H223.752C224.226 10.6851 224.626 10.7491 224.951 10.8771C225.282 10.9997 225.53 11.1837 225.695 11.429C225.866 11.6743 225.951 11.9756 225.951 12.3329V12.3489C225.951 12.8982 225.767 13.3169 225.399 13.6049C225.037 13.8928 224.506 14.0368 223.808 14.0368H220.448V15.8367ZM219.241 15.8367H221.656V4.29354H219.241V15.8367Z" fill="#504E49"/>
<path d="M230.926 15.8367H238.476V13.8448H233.341V4.29354H230.926V15.8367Z" fill="#504E49"/>
<path d="M240.995 15.8367H243.411V4.29354H240.995V15.8367Z" fill="#504E49"/>
<path d="M251.441 16.1327C252.374 16.1327 253.2 15.962 253.92 15.6207C254.64 15.2741 255.221 14.7968 255.664 14.1888C256.106 13.5809 256.37 12.8742 256.455 12.069V11.973H254.104L254.088 12.045C254.008 12.4556 253.845 12.8156 253.6 13.1249C253.36 13.4289 253.056 13.6662 252.688 13.8368C252.326 14.0022 251.912 14.0848 251.449 14.0848C250.841 14.0848 250.315 13.9222 249.873 13.5969C249.43 13.2715 249.089 12.8076 248.849 12.205C248.615 11.6023 248.497 10.8904 248.497 10.0691V10.0531C248.497 9.22651 248.615 8.51456 248.849 7.91727C249.089 7.31465 249.43 6.85335 249.873 6.53337C250.315 6.20806 250.838 6.04541 251.441 6.04541C251.899 6.04541 252.312 6.13607 252.68 6.31739C253.054 6.49871 253.363 6.75469 253.608 7.08533C253.853 7.41064 254.016 7.78928 254.096 8.22125L254.104 8.27724H256.447V8.17325C256.373 7.36264 256.112 6.6427 255.664 6.01341C255.216 5.38412 254.627 4.89083 253.896 4.53352C253.171 4.17621 252.352 3.99756 251.441 3.99756C250.321 3.99756 249.356 4.24287 248.545 4.7335C247.74 5.2188 247.119 5.91475 246.682 6.82135C246.244 7.72795 246.026 8.80521 246.026 10.0531V10.0691C246.026 11.317 246.244 12.3943 246.682 13.3009C247.119 14.2075 247.743 14.9061 248.553 15.3967C249.364 15.8874 250.326 16.1327 251.441 16.1327Z" fill="#504E49"/>
<path d="M263.557 15.8367H271.108V13.8448H265.973V4.29354H263.557V15.8367Z" fill="#504E49"/>
<path d="M273.627 15.8367H276.042V4.29354H273.627V15.8367Z" fill="#504E49"/>
<path d="M280.377 15.8367H284.352C285.178 15.8367 285.888 15.7034 286.48 15.4367C287.077 15.1647 287.535 14.7834 287.855 14.2928C288.18 13.7968 288.343 13.2129 288.343 12.5409V12.5249C288.343 12.0343 288.228 11.589 287.999 11.189C287.775 10.7891 287.463 10.4638 287.063 10.2131C286.669 9.96245 286.216 9.81846 285.704 9.78113V9.63714C286.098 9.57848 286.453 9.43183 286.767 9.19718C287.082 8.96253 287.33 8.66922 287.511 8.31724C287.698 7.96527 287.791 7.58663 287.791 7.18132V7.16533C287.791 6.57337 287.647 6.06407 287.359 5.63744C287.077 5.20547 286.669 4.87483 286.136 4.64551C285.608 4.41086 284.968 4.29354 284.216 4.29354H280.377V6.08541H283.6C284.176 6.08541 284.621 6.21873 284.936 6.48538C285.256 6.74669 285.416 7.112 285.416 7.5813V7.59729C285.416 8.07193 285.242 8.4399 284.896 8.70121C284.549 8.96253 284.051 9.09318 283.4 9.09318H280.377V10.6851H283.68C284.155 10.6851 284.555 10.7491 284.88 10.8771C285.21 10.9997 285.458 11.1837 285.624 11.429C285.794 11.6743 285.88 11.9756 285.88 12.3329V12.3489C285.88 12.8982 285.696 13.3169 285.328 13.6049C284.965 13.8928 284.435 14.0368 283.736 14.0368H280.377V15.8367ZM279.169 15.8367H281.585V4.29354H279.169V15.8367Z" fill="#504E49"/>
<path d="M290.854 15.8367H293.27V11.613H295.133C295.149 11.613 295.168 11.613 295.189 11.613C295.211 11.613 295.229 11.613 295.245 11.613L297.397 15.8367H300.132L297.701 11.253C298.362 10.9917 298.874 10.5677 299.236 9.98112C299.604 9.38916 299.788 8.72254 299.788 7.98127V7.96527C299.788 7.20799 299.626 6.5547 299.3 6.00541C298.98 5.45612 298.511 5.03482 297.893 4.7415C297.279 4.44286 296.536 4.29354 295.661 4.29354H290.854V15.8367ZM293.27 9.85313V6.1814H295.365C295.973 6.1814 296.45 6.34672 296.797 6.67736C297.143 7.008 297.317 7.4533 297.317 8.01326V8.02926C297.317 8.59989 297.146 9.04785 296.805 9.37316C296.469 9.69314 296 9.85313 295.397 9.85313H293.27Z" fill="#504E49"/>
<path d="M301.731 15.8367H304.267L307.09 6.59737H307.794V4.29354H305.739L301.731 15.8367ZM303.875 13.0369H310.394L309.802 11.229H304.467L303.875 13.0369ZM310.05 15.8367H312.593L308.578 4.29354H307.234V6.59737L310.05 15.8367Z" fill="#504E49"/>
<path d="M314.88 15.8367H317.296V11.613H319.159C319.175 11.613 319.194 11.613 319.215 11.613C319.237 11.613 319.255 11.613 319.271 11.613L321.423 15.8367H324.158L321.727 11.253C322.388 10.9917 322.9 10.5677 323.262 9.98112C323.63 9.38916 323.814 8.72254 323.814 7.98127V7.96527C323.814 7.20799 323.652 6.5547 323.326 6.00541C323.006 5.45612 322.537 5.03482 321.919 4.7415C321.306 4.44286 320.562 4.29354 319.687 4.29354H314.88V15.8367ZM317.296 9.85313V6.1814H319.391C319.999 6.1814 320.476 6.34672 320.823 6.67736C321.17 7.008 321.343 7.4533 321.343 8.01326V8.02926C321.343 8.59989 321.172 9.04785 320.831 9.37316C320.495 9.69314 320.026 9.85313 319.423 9.85313H317.296Z" fill="#504E49"/>
<path d="M329.405 15.8367H331.82V11.525L335.843 4.29354H333.228L330.692 9.14918H330.548L328.005 4.29354H325.39L329.405 11.525V15.8367Z" fill="#504E49"/>
<path d="M59.541 40.9572H66.6306C68.482 40.9572 70.0603 40.5903 71.3656 39.8565C72.6709 39.1227 73.6691 38.0603 74.3601 36.6695C75.0597 35.2787 75.4095 33.602 75.4095 31.6395V31.6139C75.4095 29.6684 75.0597 28.0173 74.3601 26.6606C73.6691 25.3039 72.6666 24.2715 71.3528 23.5633C70.0475 22.8465 68.4734 22.4882 66.6306 22.4882H59.541V40.9572ZM63.4058 37.7702V25.6751H66.1444C67.2705 25.6751 68.2303 25.9055 69.0237 26.3663C69.8171 26.827 70.4229 27.5011 70.8409 28.3885C71.259 29.2759 71.468 30.3596 71.468 31.6395V31.6651C71.468 32.9962 71.2632 34.114 70.8537 35.0184C70.4442 35.9229 69.8427 36.6098 69.0493 37.0791C68.2644 37.5398 67.2961 37.7702 66.1444 37.7702H63.4058Z" fill="black"/>
<path d="M79.1708 40.9572H83.0356V22.4882H79.1708V40.9572Z" fill="black"/>
<path d="M95.6654 41.3028C96.9451 41.3028 98.0926 41.1193 99.1078 40.7524C100.123 40.3855 100.985 39.8522 101.693 39.1525C102.401 38.4528 102.938 37.6081 103.305 36.6183C103.681 35.62 103.868 34.4979 103.868 33.2522V31.0891H95.9213V33.9561H100.106L100.093 34.2377C100.059 34.9971 99.8543 35.6627 99.4789 36.2343C99.1121 36.806 98.6045 37.2497 97.9561 37.5654C97.3162 37.8726 96.5782 38.0262 95.7422 38.0262C94.9743 38.0262 94.279 37.8812 93.6562 37.591C93.042 37.3009 92.5173 36.8828 92.0822 36.3367C91.6471 35.7821 91.3101 35.1123 91.0712 34.3273C90.8408 33.5337 90.7257 32.6378 90.7257 31.6395V31.6267C90.7257 30.3212 90.9219 29.2077 91.3143 28.2861C91.7068 27.3561 92.2656 26.6478 92.9908 26.1615C93.7159 25.6666 94.5861 25.4191 95.6014 25.4191C96.6507 25.4191 97.5338 25.6709 98.2504 26.1743C98.9756 26.6692 99.4875 27.3646 99.7861 28.2605L99.8244 28.4013H103.702L103.664 28.2221C103.467 27.0446 103.011 25.9994 102.294 25.0864C101.578 24.1734 100.648 23.4566 99.5045 22.9361C98.3698 22.4071 97.0645 22.1426 95.5886 22.1426C93.7885 22.1426 92.2272 22.5265 90.9048 23.2945C89.591 24.0539 88.5757 25.1461 87.8591 26.5711C87.1425 27.9875 86.7841 29.6855 86.7841 31.6651V31.6779C86.7841 33.1796 86.9889 34.5278 87.3984 35.7224C87.8079 36.9084 88.3966 37.9196 89.1644 38.7558C89.9322 39.5834 90.8622 40.2149 91.9542 40.65C93.0547 41.0852 94.2918 41.3028 95.6654 41.3028Z" fill="black"/>
<path d="M107.681 40.9572H111.546V22.4882H107.681V40.9572Z" fill="black"/>
<path d="M120.349 40.9572H124.214V25.6751H129.589V22.4882H114.974V25.6751H120.349V40.9572Z" fill="black"/>
<path d="M129.396 40.9572H133.465L138.059 26.0975H139.237V22.4882H135.845L129.396 40.9572ZM132.864 36.4775H143.357L142.41 33.5849H133.811L132.864 36.4775ZM142.769 40.9572H146.825L140.388 22.4882H138.174V26.0975L142.769 40.9572Z" fill="black"/>
<path d="M149.985 40.9572H161.951V37.7702H153.85V22.4882H149.985V40.9572Z" fill="black"/>
<path d="M180.185 41.3028C181.678 41.3028 183.004 41.0169 184.164 40.4452C185.333 39.8735 186.276 39.0843 186.993 38.0774C187.709 37.0705 188.127 35.9144 188.247 34.6089L188.26 34.4809H184.497L184.472 34.5961C184.309 35.3128 184.032 35.9272 183.64 36.4391C183.247 36.9511 182.761 37.3436 182.181 37.6166C181.601 37.8897 180.94 38.0262 180.197 38.0262C179.216 38.0262 178.363 37.7745 177.638 37.2711C176.913 36.7591 176.354 36.0296 175.961 35.0824C175.569 34.1353 175.373 33.0132 175.373 31.7163V31.7035C175.373 30.398 175.569 29.2802 175.961 28.3501C176.354 27.4115 176.908 26.6905 177.625 26.1871C178.35 25.6751 179.203 25.4191 180.185 25.4191C180.952 25.4191 181.626 25.5599 182.206 25.8415C182.795 26.1231 183.277 26.5199 183.653 27.0318C184.036 27.5352 184.297 28.1283 184.433 28.8109L184.484 29.0029H188.247L188.234 28.8749C188.115 27.5694 187.696 26.4132 186.98 25.4063C186.272 24.3909 185.333 23.5931 184.164 23.0129C183.004 22.4327 181.678 22.1426 180.185 22.1426C178.393 22.1426 176.84 22.5265 175.526 23.2945C174.213 24.0624 173.197 25.1589 172.481 26.5839C171.773 28.0088 171.418 29.7154 171.418 31.7035V31.7163C171.418 33.7044 171.773 35.4152 172.481 36.8487C173.197 38.2737 174.213 39.3744 175.526 40.1509C176.84 40.9188 178.393 41.3028 180.185 41.3028Z" fill="black"/>
<path d="M200.185 41.3028C202.02 41.3028 203.598 40.9145 204.92 40.1381C206.251 39.3616 207.275 38.2566 207.992 36.8231C208.717 35.3896 209.079 33.6916 209.079 31.7291V31.7035C209.079 29.741 208.717 28.0472 207.992 26.6222C207.275 25.1888 206.251 24.0838 204.92 23.3073C203.59 22.5308 202.011 22.1426 200.185 22.1426C198.368 22.1426 196.794 22.5308 195.463 23.3073C194.132 24.0838 193.1 25.1888 192.366 26.6222C191.641 28.0472 191.279 29.741 191.279 31.7035V31.7291C191.279 33.6916 191.641 35.3896 192.366 36.8231C193.092 38.2566 194.12 39.3616 195.451 40.1381C196.781 40.9145 198.36 41.3028 200.185 41.3028ZM200.185 38.0262C199.17 38.0262 198.291 37.7702 197.549 37.2583C196.807 36.7463 196.231 36.021 195.822 35.0824C195.421 34.1353 195.22 33.0175 195.22 31.7291V31.7035C195.22 30.4065 195.425 29.2887 195.834 28.3501C196.244 27.4115 196.82 26.6905 197.562 26.1871C198.304 25.6751 199.179 25.4191 200.185 25.4191C201.192 25.4191 202.067 25.6751 202.809 26.1871C203.551 26.699 204.123 27.4243 204.524 28.3629C204.933 29.3015 205.138 30.415 205.138 31.7035V31.7291C205.138 33.009 204.937 34.1225 204.536 35.0696C204.136 36.0082 203.564 36.7378 202.822 37.2583C202.088 37.7702 201.209 38.0262 200.185 38.0262Z" fill="black"/>
<path d="M212.841 40.9572H224.806V37.7702H216.706V22.4882H212.841V40.9572Z" fill="black"/>
<path d="M228.376 40.9572H240.341V37.7702H232.24V22.4882H228.376V40.9572Z" fill="black"/>
<path d="M243.91 40.9572H256.144V37.7702H247.775V33.1242H255.671V30.1164H247.775V25.6751H256.144V22.4882H243.91V40.9572Z" fill="black"/>
<path d="M268.352 41.3028C269.845 41.3028 271.172 41.0169 272.332 40.4452C273.501 39.8735 274.443 39.0843 275.16 38.0774C275.877 37.0705 276.295 35.9144 276.414 34.6089L276.427 34.4809H272.665L272.639 34.5961C272.477 35.3128 272.2 35.9272 271.807 36.4391C271.415 36.9511 270.928 37.3436 270.348 37.6166C269.768 37.8897 269.107 38.0262 268.365 38.0262C267.384 38.0262 266.53 37.7745 265.805 37.2711C265.08 36.7591 264.521 36.0296 264.129 35.0824C263.736 34.1353 263.54 33.0132 263.54 31.7163V31.7035C263.54 30.398 263.736 29.2802 264.129 28.3501C264.521 27.4115 265.076 26.6905 265.792 26.1871C266.518 25.6751 267.371 25.4191 268.352 25.4191C269.12 25.4191 269.794 25.5599 270.374 25.8415C270.962 26.1231 271.445 26.5199 271.82 27.0318C272.204 27.5352 272.464 28.1283 272.601 28.8109L272.652 29.0029H276.414L276.401 28.8749C276.282 27.5694 275.864 26.4132 275.147 25.4063C274.439 24.3909 273.501 23.5931 272.332 23.0129C271.172 22.4327 269.845 22.1426 268.352 22.1426C266.56 22.1426 265.008 22.5265 263.694 23.2945C262.38 24.0624 261.365 25.1589 260.648 26.5839C259.94 28.0088 259.586 29.7154 259.586 31.7035V31.7163C259.586 33.7044 259.94 35.4152 260.648 36.8487C261.365 38.2737 262.38 39.3744 263.694 40.1509C265.008 40.9188 266.56 41.3028 268.352 41.3028Z" fill="black"/>
<path d="M283.963 40.9572H287.828V25.6751H293.203V22.4882H278.589V25.6751H283.963V40.9572Z" fill="black"/>
<path d="M296.632 40.9572H300.496V22.4882H296.632V40.9572Z" fill="black"/>
<path d="M313.152 41.3028C314.986 41.3028 316.564 40.9145 317.887 40.1381C319.218 39.3616 320.241 38.2566 320.958 36.8231C321.683 35.3896 322.046 33.6916 322.046 31.7291V31.7035C322.046 29.741 321.683 28.0472 320.958 26.6222C320.241 25.1888 319.218 24.0838 317.887 23.3073C316.556 22.5308 314.977 22.1426 313.152 22.1426C311.334 22.1426 309.76 22.5308 308.43 23.3073C307.099 24.0838 306.066 25.1888 305.333 26.6222C304.607 28.0472 304.245 29.741 304.245 31.7035V31.7291C304.245 33.6916 304.607 35.3896 305.333 36.8231C306.058 38.2566 307.086 39.3616 308.417 40.1381C309.748 40.9145 311.326 41.3028 313.152 41.3028ZM313.152 38.0262C312.136 38.0262 311.258 37.7702 310.515 37.2583C309.773 36.7463 309.197 36.021 308.788 35.0824C308.387 34.1353 308.186 33.0175 308.186 31.7291V31.7035C308.186 30.4065 308.391 29.2887 308.801 28.3501C309.21 27.4115 309.786 26.6905 310.528 26.1871C311.271 25.6751 312.145 25.4191 313.152 25.4191C314.158 25.4191 315.033 25.6751 315.775 26.1871C316.517 26.699 317.089 27.4243 317.49 28.3629C317.899 29.3015 318.104 30.415 318.104 31.7035V31.7291C318.104 33.009 317.904 34.1225 317.503 35.0696C317.102 36.0082 316.53 36.7378 315.788 37.2583C315.054 37.7702 314.175 38.0262 313.152 38.0262Z" fill="black"/>
<path d="M325.807 40.9572H329.633V28.9133H331.31L328.175 26.6734L338.131 40.9572H341.458V22.4882H337.632V34.4553H335.955L339.103 36.7079L329.16 22.4882H325.807V40.9572Z" fill="black"/>
<path d="M352.565 41.3028C354.118 41.3028 355.449 41.0681 356.558 40.5988C357.667 40.121 358.516 39.4469 359.104 38.5766C359.701 37.6977 360 36.6652 360 35.4792V35.4664C360 34.5022 359.804 33.6788 359.411 32.9962C359.019 32.305 358.409 31.7333 357.581 31.2811C356.754 30.8289 355.692 30.4748 354.395 30.2188L352.45 29.822C351.383 29.6002 350.603 29.3101 350.108 28.9517C349.613 28.5933 349.366 28.1197 349.366 27.531V27.5182C349.366 27.0745 349.494 26.6862 349.75 26.3535C350.014 26.0207 350.381 25.7604 350.85 25.5727C351.328 25.3765 351.891 25.2783 352.539 25.2783C353.188 25.2783 353.755 25.3722 354.241 25.5599C354.736 25.7476 355.133 26.0122 355.431 26.3535C355.73 26.6948 355.914 27.1086 355.982 27.595L355.995 27.7486H359.642L359.629 27.5182C359.569 26.4516 359.245 25.513 358.656 24.7024C358.076 23.8918 357.27 23.2646 356.238 22.8209C355.205 22.3687 353.973 22.1426 352.539 22.1426C351.183 22.1426 349.971 22.3772 348.905 22.8465C347.847 23.3158 347.015 23.9728 346.409 24.8176C345.812 25.6538 345.509 26.635 345.501 27.7614V27.7742C345.501 29.165 345.957 30.2998 346.87 31.1787C347.783 32.0576 349.157 32.6805 350.991 33.0474L352.949 33.4441C354.092 33.6745 354.907 33.9689 355.393 34.3273C355.888 34.6857 356.135 35.172 356.135 35.7864V35.7992C356.135 36.2685 355.995 36.6823 355.713 37.0407C355.431 37.3991 355.031 37.6764 354.51 37.8726C353.99 38.0689 353.371 38.167 352.654 38.167C351.955 38.167 351.328 38.0689 350.773 37.8726C350.227 37.6764 349.779 37.4076 349.43 37.0663C349.088 36.7164 348.879 36.3069 348.803 35.8376L348.777 35.6968H345.117L345.13 35.9016C345.207 37.0279 345.552 37.9963 346.166 38.807C346.789 39.609 347.642 40.2276 348.726 40.6628C349.818 41.0895 351.098 41.3028 352.565 41.3028Z" fill="black"/>
</svg>
