<svg viewBox="0 0 67 67" fill="#ffffff" xmlns="http://www.w3.org/2000/svg">
<path d="M60.9072 31.3658L64.81 35.2569L66.8365 33.2558L62.8961 29.4018L66.1234 26.2148L64.097 24.2507L54.9404 33.2928L64.172 42.372L66.1985 40.4079L58.9558 33.2928L60.9072 31.3658Z"/>
<path d="M0.675483 26.2157L7.88065 33.2938L5.92925 35.1837L2.02645 31.3297L0 33.2938L3.94033 37.1848L0.637957 40.4459L2.66441 42.41L11.8585 33.2938L2.66441 24.2146L0.675483 26.2157Z"/>
<path d="M17.7144 43.0401L33.4006 58.5303L49.1244 43.003L51.1133 41.039L33.4382 23.5847L31.4492 25.5488L47.098 41.039L33.4006 54.5651L17.7519 39.0749H17.7144L5.29297 51.341L7.31942 53.3422L17.7144 43.0401Z"/>
<path d="M33.3974 62.3117L17.7111 46.8215L8.74219 55.7154L10.7311 57.6794L17.7111 50.7867L19.625 52.6766L13.1328 59.0876L15.1218 61.0517L21.6139 54.6407L23.5278 56.5306L18.199 61.7929L20.2254 63.794L25.5543 58.5318L27.4681 60.4217L24.1658 63.6828L26.1922 65.6469L29.4571 62.3858L33.3974 66.2768L37.3377 62.4228L40.6026 65.6839L42.629 63.6828L39.3266 60.4217L41.278 58.5318L46.6069 63.794L48.5958 61.7929L43.267 56.5306L45.1808 54.6407L51.673 61.0517L53.6994 59.0876L47.2073 52.6766L49.0836 50.7867L56.0636 57.6794L58.0901 55.6783L51.1101 48.7856L53.024 46.8956L59.5161 53.3066L61.5051 51.3055L53.9621 43.8569L53.024 42.9304L33.3974 62.3117Z"/>
<path d="M53.0411 35.1628L51.0244 37.1543L62.1692 48.1598L64.1859 46.1683L53.0411 35.1628Z"/>
<path d="M31.6351 49.008L33.3989 50.7868L43.2685 41.0406L41.2795 39.0765L27.5822 25.5504L33.4364 19.8065L49.0851 35.2596H49.1227L64.246 20.3253L62.2571 18.3241L49.1227 31.2944L33.4364 15.8042L23.5668 25.5504L39.2531 41.0406L33.3989 46.8216L19.7391 33.2955L17.7126 31.3314L2.55176 46.3028L4.57821 48.2669L17.7126 35.2966L31.6351 49.008Z"/>
<path d="M4.60262 18.3608L2.58594 20.3523L13.8104 31.4364L15.827 29.4449L4.60262 18.3608Z"/>
<path d="M33.4368 4.27841L49.123 19.7686L58.0544 10.9488L56.0655 8.9477L49.123 15.8034L47.2091 13.9135L53.6638 7.57657L51.6373 5.57544L45.2202 11.9494L43.2688 10.0594L48.5226 4.87134L46.5337 2.87022L41.2799 8.05832L39.366 6.16837L42.5933 2.98139L40.5669 1.01733L37.3396 4.16724L35.4257 2.27729H35.4632L33.4368 0.313232L29.4964 4.20431L26.3066 1.01733L24.2802 2.98139L27.5075 6.16837L25.5936 8.05832L20.3774 2.94434L18.3885 4.9084L23.5672 10.0594L21.6533 11.9494L15.1987 5.57544L13.2098 7.57657L19.6644 13.9135L17.713 15.8034L10.7705 8.9477L8.78158 10.9488L15.7241 17.8045L13.8102 19.6945L7.31803 13.3205L5.3291 15.2846L13.8102 23.6597L33.4368 4.27841Z"/>
<path d="M33.4363 8.05688L15.7236 25.5482L17.7126 27.5122L33.3988 43.0024L35.4253 41.0384L19.739 25.5482L33.4363 12.0221L49.1226 27.5122L61.469 15.3202L59.4425 13.3562L49.1226 23.5471L33.4363 8.05688Z"/>
</svg>
