<svg viewBox="0 0 155 139" fill="none" xmlns="http://www.w3.org/2000/svg">
<g clip-path="url(#clip0_53471_41904)">
<path d="M78.2896 9.50048C35.438 -12.6064 0.114138 10.8003 0.114138 10.8003L0 121.192C0 121.192 3.35688 115.94 15.7665 111.467V133.21C15.7729 134.743 16.3832 136.212 17.4647 137.296C18.5462 138.381 20.0112 138.993 21.5409 139H133.354C134.884 138.993 136.349 138.381 137.431 137.296C138.512 136.212 139.122 134.743 139.129 133.21V111.004C150.917 114.714 155 120.888 155 120.888V10.8003C155 10.8003 121.141 -12.6064 78.2896 9.50048Z" fill="white"/>
<path d="M100.77 10.8002C143.245 6.93255 154.97 23.6375 154.97 23.6375V121.188C154.97 121.188 143.253 104.495 100.77 108.353V10.8002Z" fill="url(#paint0_linear_53471_41904)"/>
<path d="M54.0767 10.7103C11.6012 6.8401 -0.123569 23.5558 -0.123569 23.5558V121.17C-0.123569 121.17 11.5937 104.465 54.0767 108.326V10.7103Z" fill="url(#paint1_linear_53471_41904)"/>
<path d="M146.894 106.012C110.655 88.8871 82.0994 106.012 82.0994 106.012V16.2679C82.0994 16.2679 110.622 -0.859083 146.894 16.2679V106.012Z" fill="#081F32"/>
<path d="M8.46143 106.648C44.7022 89.5211 73.2581 106.648 73.2581 106.648V16.9C73.2581 16.9 44.7359 -0.225108 8.46143 16.9V106.648Z" fill="#081F32"/>
</g>
<defs>
<linearGradient id="paint0_linear_53471_41904" x1="127.87" y1="121.188" x2="127.87" y2="10.2206" gradientUnits="userSpaceOnUse">
<stop stop-color="#8CC038"/>
<stop offset="0.36" stop-color="#9FCA57"/>
<stop offset="0.9" stop-color="#FFFFFA"/>
<stop offset="0.97" stop-color="white"/>
<stop offset="1" stop-color="white"/>
</linearGradient>
<linearGradient id="paint1_linear_53471_41904" x1="26.9765" y1="121.17" x2="26.9765" y2="10.1303" gradientUnits="userSpaceOnUse">
<stop stop-color="#8CC038"/>
<stop offset="0.36" stop-color="#9FCA57"/>
<stop offset="0.9" stop-color="#FFFFFA"/>
<stop offset="0.97" stop-color="white"/>
<stop offset="1" stop-color="white"/>
</linearGradient>
</defs>
</svg>
