<svg viewBox="0 0 185 79" fill="#ffffff" xmlns="http://www.w3.org/2000/svg">
<path d="M72.3064 33.4369C72.647 33.4369 72.9194 33.1673 72.9194 32.8304C72.9194 32.4934 72.647 32.2238 72.3064 32.2238C71.9999 32.2238 71.6934 32.4934 71.6934 32.8304C71.7274 33.1673 71.9999 33.4369 72.3064 33.4369ZM71.9318 42.1646H72.7491V34.9533H71.9318V42.1646ZM74.6904 42.1646H75.4737V36.9078C75.9165 36.2338 76.802 35.4925 77.7215 35.4925C78.8114 35.4925 79.2201 36.1664 79.2201 37.2111V42.1646H80.0034V37.0426C80.0034 35.7284 79.3903 34.7848 77.8918 34.7848C76.8701 34.7848 76.0187 35.3914 75.4737 36.099V34.9533H74.6904V42.1646ZM84.3968 42.1646H86.7127C89.0286 42.1646 90.4931 41.3559 90.4931 39.3677C90.4931 37.9187 89.4373 37.0763 88.1772 36.8404V36.8067C89.3011 36.5371 90.0503 35.7621 90.0503 34.5826C90.0503 32.7967 88.7561 32.089 86.7468 32.089H84.4309V42.1646H84.3968ZM85.2142 41.457V37.2111H86.7468C88.7221 37.2111 89.6416 38.0198 89.6416 39.4014C89.6416 40.8504 88.688 41.4907 86.7127 41.4907H85.2142V41.457ZM85.2142 36.5034V32.7967H86.6446C88.3475 32.7967 89.1989 33.3358 89.1989 34.6163C89.1989 35.8631 88.3815 36.5034 86.6446 36.5034H85.2142ZM92.1619 42.1646H92.9452V31.2803H92.1619V42.1646ZM96.7937 42.3331C97.6792 42.3331 98.4966 41.895 99.0074 41.2548C99.0074 41.5244 99.0755 41.9287 99.1096 42.1646H99.8929C99.7908 41.8613 99.7226 41.3222 99.7226 40.7156V37.0763C99.7226 35.5262 98.8712 34.7848 97.3727 34.7848C96.4191 34.7848 95.6357 35.0881 94.9887 35.6947L95.4314 36.2338C96.0444 35.661 96.6234 35.4588 97.3386 35.4588C98.4285 35.4588 98.9393 35.9979 98.9393 37.1774V37.9861H98.5987C96.8959 37.9861 94.7503 38.5253 94.7503 40.446C94.7503 41.5917 95.5676 42.3331 96.7937 42.3331ZM96.8959 41.6591C96.2488 41.6591 95.5676 41.2211 95.5676 40.446C95.5676 39.0981 96.964 38.6264 98.5987 38.6264H98.9393V40.5471C98.4285 41.2548 97.7132 41.6591 96.8959 41.6591ZM104.354 42.3331C105.444 42.3331 106.228 41.9287 106.602 41.5918L106.262 40.9852C105.955 41.2885 105.24 41.6254 104.389 41.6254C102.754 41.6254 102.039 40.1091 102.039 38.4916C102.039 36.8404 102.788 35.4251 104.389 35.4251C105.206 35.4251 105.751 35.7284 106.159 36.0653L106.568 35.4925C106.16 35.1555 105.478 34.7511 104.389 34.7511C102.515 34.7511 101.187 36.2338 101.187 38.5253C101.221 40.4797 102.277 42.3331 104.354 42.3331ZM112.29 42.1646H113.277L109.872 38.1209L113.107 34.9533H112.12L108.918 38.1209L112.29 42.1646ZM108.067 42.1646H108.85V31.2803H108.067V42.1646ZM121.656 42.3331C122.984 42.3331 124.04 41.895 124.653 41.3222L124.244 40.7156C123.631 41.2548 122.78 41.5918 121.69 41.5918C119.101 41.5918 117.637 39.4351 117.637 37.0426C117.637 34.6837 119.101 32.5608 121.656 32.5608C122.609 32.5608 123.358 32.8304 123.972 33.2347L124.414 32.5945C123.699 32.1227 122.848 31.8531 121.69 31.8531C118.625 31.8531 116.785 34.3131 116.785 37.0426C116.785 39.8732 118.59 42.3331 121.656 42.3331ZM128.365 42.3331C129.591 42.3331 130.442 41.5244 130.783 40.9852C130.783 41.3896 130.851 41.9287 130.885 42.1646H131.703C131.634 41.895 131.566 41.3559 131.566 40.783V34.9533H130.783V40.1764C130.545 40.6145 129.625 41.6254 128.535 41.6254C127.411 41.6254 127.037 40.9515 127.037 39.8732V34.9533H126.253V40.0417C126.253 41.3559 126.832 42.3331 128.365 42.3331ZM134.121 42.1646H134.904V31.2803H134.121V42.1646ZM139.366 42.3331C140.047 42.3331 140.558 42.0635 140.762 41.895L140.455 41.2885C140.319 41.3896 139.876 41.6254 139.434 41.6254C138.787 41.6254 138.548 41.2211 138.548 40.4797V35.5599H140.421V34.9196H138.548V32.8641H137.765V34.9196H136.539V35.5599H137.765V40.5134C137.765 41.6928 138.276 42.3331 139.366 42.3331ZM144.372 42.3331C145.598 42.3331 146.449 41.5244 146.79 40.9852C146.79 41.3896 146.858 41.9287 146.892 42.1646H147.71C147.641 41.895 147.573 41.3559 147.573 40.783V34.9533H146.79V40.1764C146.552 40.6145 145.632 41.6254 144.542 41.6254C143.418 41.6254 143.044 40.9515 143.044 39.8732V34.9533H142.26V40.0417C142.26 41.3559 142.839 42.3331 144.372 42.3331ZM150.128 42.1646H150.911V37.1437C151.115 36.7056 151.762 35.5262 152.784 35.5262C153.091 35.5262 153.261 35.5936 153.397 35.6273L153.602 34.8859C153.465 34.8522 153.227 34.7511 152.886 34.7511C151.865 34.7511 151.217 35.661 150.945 36.1664V34.9196H150.162V42.1646H150.128ZM157.484 42.3331C158.676 42.3331 159.493 41.9287 159.97 41.5918L159.63 40.9852C159.221 41.2885 158.438 41.6591 157.518 41.6591C155.781 41.6591 155.066 40.1427 155.066 38.4916V38.3231H160.106C160.106 38.1883 160.106 38.0535 160.106 37.9187C160.106 36.0653 159.085 34.7848 157.348 34.7848C155.407 34.7848 154.215 36.436 154.215 38.4916C154.215 40.5471 155.236 42.3331 157.484 42.3331ZM155.1 37.6828C155.304 36.436 156.054 35.4588 157.314 35.4588C158.71 35.4588 159.289 36.5708 159.289 37.6828H155.1Z"/>
<path d="M72.1 26.5291H72.8833V19.9581H74.7905V19.3178H72.8833V18.1721C72.8833 16.8579 73.4282 16.184 74.5521 16.184C74.9949 16.184 75.3014 16.2851 75.4717 16.3861L75.676 15.6785C75.4717 15.5774 75.097 15.4763 74.5521 15.4763C72.9514 15.4763 72.1 16.4535 72.1 18.1047V19.3178H70.8398V19.9581H72.1V26.5291ZM78.8774 26.6976C81.1593 26.6976 82.215 24.7095 82.215 22.8898C82.215 21.1038 81.1593 19.1494 78.8774 19.1494C76.5956 19.1494 75.6079 21.1038 75.6079 22.9235C75.6079 24.7432 76.5956 26.6976 78.8774 26.6976ZM78.9115 26.0237C77.2426 26.0237 76.4593 24.541 76.4593 22.8898C76.4593 21.2723 77.2086 19.8233 78.8774 19.8233C80.5462 19.8233 81.4317 21.306 81.4317 22.9235C81.3977 24.5747 80.5803 26.0237 78.9115 26.0237ZM83.7476 26.5291H84.5309V21.5082C84.7353 21.0701 85.3824 19.8907 86.4041 19.8907C86.7106 19.8907 86.8809 19.9581 87.0171 19.9918L87.2215 19.2504C87.0852 19.2167 86.8468 19.1157 86.5063 19.1157C85.4845 19.1157 84.8375 19.9918 84.565 20.531V19.2841H83.7817V26.5291H83.7476ZM92.1939 26.5291H93.0453V21.643H93.3178C93.9308 21.643 94.1011 21.7441 95.1228 23.1257L97.609 26.5291H98.6307L95.804 22.7213C95.225 21.98 95.0206 21.7104 94.8163 21.6093H94.9525C96.7235 21.5419 97.9496 20.6994 97.9496 19.0483C97.9496 17.3634 96.6895 16.4535 94.646 16.4535H92.2279V26.5291H92.1939ZM93.0112 20.969V17.1612H94.4757C96.1445 17.1612 97.03 17.8014 97.03 19.0483C97.03 20.2951 96.1786 20.969 94.5438 20.969H93.0112ZM102.615 26.6976C103.807 26.6976 104.625 26.2933 105.102 25.9563L104.761 25.3497C104.352 25.653 103.569 26.0237 102.65 26.0237C100.913 26.0237 100.197 24.5073 100.197 22.8561V22.6876H105.238C105.238 22.5528 105.238 22.418 105.238 22.2832C105.238 20.4299 104.216 19.1494 102.479 19.1494C100.538 19.1494 99.3459 20.8005 99.3459 22.8561C99.3459 24.9454 100.402 26.6976 102.615 26.6976ZM100.231 22.0474C100.436 20.8005 101.185 19.8233 102.445 19.8233C103.842 19.8233 104.386 20.9353 104.42 22.0474H100.231ZM108.678 26.7313C110.176 26.7313 111.13 25.9563 111.13 24.7095C111.13 23.5301 110.108 23.0246 108.984 22.5191C108.133 22.1484 107.418 21.8452 107.418 21.0027C107.418 20.2951 107.894 19.8233 108.78 19.8233C109.529 19.8233 110.108 20.1266 110.449 20.3962L110.857 19.8233C110.517 19.5537 109.802 19.1494 108.78 19.1494C107.418 19.1494 106.634 19.9581 106.634 21.0364C106.634 22.2158 107.554 22.7213 108.644 23.1931C109.631 23.6311 110.312 23.9681 110.312 24.7769C110.312 25.5519 109.665 26.0237 108.678 26.0237C107.894 26.0237 107.145 25.6867 106.805 25.4171L106.464 26.0237C106.907 26.3607 107.724 26.7313 108.678 26.7313ZM115.694 26.6976C116.886 26.6976 117.703 26.2933 118.18 25.9563L117.839 25.3497C117.43 25.653 116.647 26.0237 115.728 26.0237C113.991 26.0237 113.275 24.5073 113.275 22.8561V22.6876H118.316C118.316 22.5528 118.316 22.418 118.316 22.2832C118.316 20.4299 117.294 19.1494 115.557 19.1494C113.616 19.1494 112.424 20.8005 112.424 22.8561C112.424 24.9454 113.48 26.6976 115.694 26.6976ZM113.309 22.0474C113.514 20.8005 114.263 19.8233 115.523 19.8233C116.92 19.8233 117.464 20.9353 117.499 22.0474H113.309ZM121.688 26.6976C122.573 26.6976 123.39 26.2596 123.901 25.6193C123.901 25.8889 123.969 26.2933 124.004 26.5291H124.787C124.685 26.2259 124.651 25.6867 124.651 25.0801V21.4408C124.651 19.8907 123.799 19.1494 122.301 19.1494C121.347 19.1494 120.564 19.4526 119.917 20.0592L120.359 20.5984C120.972 20.0255 121.551 19.8233 122.267 19.8233C123.356 19.8233 123.867 20.3625 123.867 21.5419V22.3506H123.527C121.824 22.3506 119.678 22.8898 119.678 24.8106C119.644 25.9563 120.462 26.6976 121.688 26.6976ZM121.79 26.0237C121.143 26.0237 120.462 25.5856 120.462 24.8106C120.462 23.4627 121.858 22.9909 123.493 22.9909H123.833V24.9117C123.288 25.6193 122.607 26.0237 121.79 26.0237ZM127.103 26.5291H127.886V21.5082C128.09 21.0701 128.737 19.8907 129.759 19.8907C130.066 19.8907 130.236 19.9581 130.372 19.9918L130.577 19.2504C130.44 19.2167 130.202 19.1157 129.861 19.1157C128.84 19.1157 128.193 19.9918 127.92 20.531V19.2841H127.103V26.5291ZM134.289 26.6976C135.379 26.6976 136.162 26.2933 136.537 25.9563L136.196 25.3497C135.89 25.653 135.174 25.99 134.323 25.99C132.688 25.99 131.973 24.4736 131.973 22.8561C131.973 21.2049 132.722 19.7896 134.323 19.7896C135.14 19.7896 135.685 20.0929 136.094 20.4299L136.503 19.857C136.094 19.52 135.413 19.1157 134.323 19.1157C132.45 19.1157 131.122 20.5984 131.122 22.8898C131.156 24.8443 132.177 26.6976 134.289 26.6976ZM138.274 26.5291H139.057V21.2723C139.329 20.8679 140.215 19.857 141.305 19.857C142.395 19.857 142.803 20.531 142.803 21.5756V26.5291H143.587V21.4071C143.587 20.0929 142.974 19.1494 141.475 19.1494C140.249 19.1494 139.397 19.9581 139.057 20.4636V15.6448H138.274V26.5291Z"/>
<path d="M74.452 48.7688V47.96H70.876V48.7688H72.1702V52.5766H73.1578V48.7688H74.452ZM77.8918 52.5766V50.2178C77.8918 49.6112 77.6194 49.1394 76.8701 49.1394C76.3252 49.1394 75.9846 49.4427 75.8143 49.6449V47.6231H74.8948V52.6103H75.8143V50.2852C75.8824 50.1841 76.1549 49.8471 76.5295 49.8471C76.8701 49.8471 76.9723 50.0156 76.9723 50.3526V52.5429H77.8918V52.5766ZM79.4244 51.0939H81.6041C81.7062 49.8471 81.1954 49.1057 80.1396 49.1057C79.186 49.1057 78.4367 49.7797 78.4367 50.858C78.4367 51.9364 79.0838 52.644 80.2077 52.644C80.9229 52.644 81.2635 52.4418 81.4678 52.307L81.1613 51.7005C80.991 51.7679 80.7186 51.9363 80.2758 51.9363C79.7309 51.97 79.4585 51.5994 79.4244 51.0939ZM79.4244 50.4537C79.4925 50.0156 79.6969 49.746 80.1055 49.746C80.5483 49.746 80.6845 50.0493 80.6845 50.4537H79.4244ZM87.9047 52.5766V47.96H87.0192V50.3863C87.0192 50.7569 87.0533 51.0939 87.0533 51.1276C87.0533 51.1276 86.8489 50.7569 86.5765 50.3526L84.9076 47.96H83.8519V52.5766H84.7374V49.9482C84.7374 49.6449 84.7033 49.3416 84.7033 49.3416C84.7033 49.3416 84.8736 49.6786 85.146 50.0493L86.9511 52.6103H87.9047V52.5766ZM89.4713 51.0939H91.651C91.7532 49.8471 91.2423 49.1057 90.1865 49.1057C89.2329 49.1057 88.4837 49.7797 88.4837 50.858C88.4837 51.9364 89.1308 52.644 90.2547 52.644C90.9699 52.644 91.3104 52.4418 91.5148 52.307L91.2083 51.7005C91.038 51.7679 90.7655 51.9363 90.3228 51.9363C89.7779 51.97 89.5054 51.5994 89.4713 51.0939ZM89.4713 50.4537C89.5395 50.0156 89.7438 49.746 90.1525 49.746C90.5952 49.746 90.7315 50.0493 90.7315 50.4537H89.4713ZM96.8959 49.2068H95.9763L95.4314 51.3635L94.8524 49.2068H94.001L93.422 51.3635L92.9111 49.2068H91.9235L92.8771 52.5766H93.7285L94.4437 50.3189L95.1589 52.5766H96.0104L96.8959 49.2068ZM102.447 47.96H101.494L100.506 49.9145L99.5183 47.96H98.4284L99.961 50.8243V52.5766H100.949V50.8243L102.447 47.96ZM105.478 50.858C105.478 49.9819 104.933 49.1057 103.741 49.1057C102.549 49.1057 102.039 50.0156 102.039 50.8917C102.039 51.7679 102.549 52.644 103.741 52.644C104.967 52.644 105.478 51.7005 105.478 50.858ZM104.491 50.8917C104.491 51.532 104.286 51.9363 103.775 51.9363C103.265 51.9363 103.026 51.4646 103.026 50.858C103.026 50.2515 103.196 49.7797 103.741 49.7797C104.252 49.7797 104.491 50.2515 104.491 50.8917ZM108.271 49.2068C108.203 49.1731 108.067 49.1057 107.794 49.1057C107.351 49.1057 107.079 49.409 106.943 49.6449V49.1731H106.023V52.5429H106.943V50.42C107.011 50.2515 107.283 49.9145 107.692 49.9145C107.896 49.9145 107.999 49.9482 108.033 49.9819L108.271 49.2068ZM109.599 50.9254L110.689 52.5766H111.779L110.485 50.7232L111.745 49.2068H110.723L109.599 50.5547V47.5894H108.68V52.5766H109.599V50.9254ZM117.16 49.409C117.16 48.4318 116.377 47.96 115.389 47.96H113.856V52.5766H114.844V50.9254H115.287C116.445 50.9254 117.16 50.42 117.16 49.409ZM116.172 49.409C116.172 49.9145 115.9 50.1841 115.287 50.1841H114.844V48.7014H115.321C115.934 48.7014 116.172 48.971 116.172 49.409ZM117.637 49.2068V51.5657C117.637 52.1722 117.909 52.644 118.659 52.644C119.238 52.644 119.578 52.3407 119.748 52.1048C119.748 52.2396 119.782 52.4755 119.817 52.5429H120.736C120.702 52.3407 120.634 52.0037 120.634 51.5657V49.1731H119.714V51.4309C119.646 51.4983 119.374 51.869 118.999 51.869C118.659 51.869 118.556 51.7005 118.556 51.3635V49.1731H117.637V49.2068ZM121.417 47.5894V52.3744C121.587 52.4418 122.03 52.644 122.814 52.644C123.835 52.644 124.619 52.0038 124.619 50.858C124.619 49.6786 124.04 49.1057 123.154 49.1057C122.78 49.1057 122.473 49.3079 122.337 49.4427V47.5894H121.417ZM122.371 50.083C122.439 50.0156 122.643 49.8134 122.95 49.8134C123.461 49.8134 123.665 50.1841 123.665 50.8243C123.665 51.532 123.358 51.9026 122.848 51.9026C122.575 51.9026 122.439 51.8353 122.371 51.8353V50.083ZM126.185 47.5894H125.266V52.5766H126.185V47.5894ZM128.058 49.2068H127.105V52.5766H128.058V49.2068ZM128.161 48.1959C128.161 47.8926 127.922 47.6568 127.582 47.6568C127.241 47.6568 127.003 47.8926 127.003 48.1959C127.003 48.4992 127.241 48.7351 127.582 48.7351C127.922 48.7688 128.161 48.4992 128.161 48.1959ZM131.6 52.3407L131.328 51.7342C131.226 51.8016 130.987 51.9363 130.579 51.9363C130 51.9363 129.727 51.4646 129.727 50.858C129.727 50.2515 130 49.8134 130.545 49.8134C130.885 49.8134 131.09 49.9145 131.26 50.0156L131.566 49.3753C131.396 49.2742 131.09 49.1057 130.511 49.1057C129.489 49.1057 128.706 49.746 128.706 50.8917C128.706 51.9363 129.387 52.644 130.476 52.644C131.124 52.644 131.43 52.4418 131.6 52.3407ZM136.505 52.5766V51.8016H134.768V47.9937H133.78V52.6103H136.505V52.5766ZM138.003 49.2068H137.05V52.5766H138.003V49.2068ZM138.105 48.1959C138.105 47.8926 137.867 47.6568 137.526 47.6568C137.186 47.6568 136.947 47.8926 136.947 48.1959C136.947 48.4992 137.186 48.7351 137.526 48.7351C137.867 48.7688 138.105 48.4992 138.105 48.1959ZM138.889 47.5894V52.3744C139.059 52.4418 139.502 52.644 140.285 52.644C141.307 52.644 142.09 52.0038 142.09 50.858C142.09 49.6786 141.511 49.1057 140.626 49.1057C140.251 49.1057 139.944 49.3079 139.808 49.4427V47.5894H138.889ZM139.842 50.083C139.91 50.0156 140.115 49.8134 140.421 49.8134C140.932 49.8134 141.136 50.1841 141.136 50.8243C141.136 51.532 140.83 51.9026 140.319 51.9026C140.047 51.9026 139.91 51.8353 139.842 51.8353V50.083ZM144.917 49.2068C144.849 49.1731 144.713 49.1057 144.44 49.1057C143.997 49.1057 143.725 49.409 143.589 49.6449V49.1731H142.669V52.5429H143.589V50.42C143.657 50.2515 143.929 49.9145 144.338 49.9145C144.542 49.9145 144.644 49.9482 144.678 49.9819L144.917 49.2068ZM148.05 52.5766C148.016 52.3744 147.948 52.0374 147.948 51.5657V50.3526C147.948 49.4427 147.505 49.1057 146.586 49.1057C145.87 49.1057 145.394 49.409 145.189 49.5775L145.598 50.1504C145.734 50.0493 146.041 49.8471 146.483 49.8471C146.926 49.8471 147.028 50.0156 147.028 50.3189V50.5211H146.892C145.973 50.5211 145.087 50.8243 145.087 51.7342C145.087 52.3407 145.53 52.6777 146.109 52.6777C146.586 52.6777 146.926 52.4081 147.062 52.2396C147.062 52.3407 147.097 52.5092 147.131 52.6103H148.05V52.5766ZM147.028 51.6668C146.926 51.7679 146.722 51.97 146.415 51.97C146.211 51.97 146.007 51.869 146.007 51.6331C146.007 51.2287 146.381 51.0939 146.926 51.0939H147.062V51.6668H147.028ZM150.979 49.2068C150.911 49.1731 150.775 49.1057 150.502 49.1057C150.06 49.1057 149.787 49.409 149.651 49.6449V49.1731H148.731V52.5429H149.651V50.42C149.719 50.2515 149.991 49.9145 150.4 49.9145C150.604 49.9145 150.707 49.9482 150.741 49.9819L150.979 49.2068ZM152.375 52.5092L152.239 52.8462C152.103 53.2169 151.933 53.4527 151.456 53.4527C151.252 53.4527 151.183 53.419 151.115 53.419L150.979 54.1604C151.047 54.1941 151.217 54.2278 151.49 54.2278C152.409 54.2278 152.784 53.756 153.091 52.981L154.487 49.2405H153.533L152.852 51.4646H152.818L152.069 49.2405H151.081L152.375 52.5092Z"/>
<path d="M55.2745 46.3745L58.8165 49.9127L60.6556 48.0931L57.0795 44.5885L60.0085 41.6905L58.1694 39.9045L49.8594 48.1268L58.2375 56.3827L60.0766 54.5967L53.5035 48.1268L55.2745 46.3745Z"/>
<path d="M0.613032 41.6925L7.15206 48.1287L5.38107 49.8473L1.8391 46.3427L0 48.1287L3.57603 51.667L0.578975 54.6324L2.41808 56.4183L10.7621 48.1287L2.41808 39.8728L0.613032 41.6925Z"/>
<path d="M16.0748 56.9915L30.3108 71.0772L44.5808 56.9578L46.3859 55.1719L30.3448 39.3003L28.5398 41.0863L42.7417 55.1719L30.3108 67.4715L16.1088 53.3859H16.0748L4.80176 64.5398L6.64086 66.3595L16.0748 56.9915Z"/>
<path d="M30.3093 74.5128L16.0733 60.4272L7.93359 68.5146L9.73864 70.3006L16.0733 64.0328L17.8103 65.7514L11.9183 71.5811L13.7234 73.3671L19.6153 67.5374L21.3522 69.2559L16.5161 74.041L18.3552 75.8607L23.1913 71.0756L24.9283 72.7942L21.9312 75.7596L23.7703 77.5456L26.7333 74.5802L30.3093 78.1184L33.8854 74.6139L36.8484 77.5793L38.6875 75.7596L35.6904 72.7942L37.4614 71.0756L42.2975 75.8607L44.1026 74.041L39.2664 69.2559L41.0034 67.5374L46.8953 73.3671L48.7344 71.5811L42.8425 65.7514L44.5453 64.0328L50.88 70.3006L52.7191 68.4809L46.3844 62.2131L48.1214 60.4946L54.0133 66.3243L55.8184 64.5046L48.9728 57.7314L48.1214 56.8889L30.3093 74.5128Z"/>
<path d="M48.1359 49.8297L46.3057 51.6406L56.4201 61.6482L58.2503 59.8373L48.1359 49.8297Z"/>
<path d="M28.709 62.417L30.3097 64.0344L39.2668 55.172L37.4617 53.386L25.0308 41.0864L30.3437 35.8632L44.5457 49.9151H44.5797L58.3049 36.335L56.4998 34.5153L44.5797 46.3095L30.3437 32.2239L21.3866 41.0864L35.6226 55.172L30.3097 60.4288L17.9128 48.1292L16.0737 46.3432L2.31445 59.957L4.15356 61.743L16.0737 49.9488L28.709 62.417Z"/>
<path d="M4.17984 34.5475L2.34961 36.3584L12.5363 46.4375L14.3665 44.6266L4.17984 34.5475Z"/>
<path d="M30.3469 21.7436L44.5829 35.8292L52.6886 27.8092L50.8835 25.9895L44.5829 32.2235L42.846 30.505L48.7039 24.7427L46.8648 22.923L41.0409 28.719L39.27 27.0004L44.038 22.2827L42.233 20.4631L37.4649 25.1807L35.728 23.4622L38.6569 20.5642L36.8178 18.7782L33.8889 21.6425L32.152 19.9239H32.186L30.3469 18.1379L26.7709 21.6762L23.876 18.7782L22.0369 20.5642L24.9658 23.4622L23.2289 25.1807L18.4949 20.5305L16.6899 22.3164L21.3898 27.0004L19.6529 28.719L13.795 22.923L11.99 24.7427L17.8478 30.505L16.0768 32.2235L9.77622 25.9895L7.97117 27.8092L14.2718 34.0432L12.5349 35.7618L6.64294 29.9658L4.83789 31.7518L12.5349 39.3675L30.3469 21.7436Z"/>
<path d="M30.3466 25.179L14.2715 41.0842L16.0765 42.8702L30.3125 56.9558L32.1516 55.1698L17.9156 41.0842L30.3466 28.7846L44.5826 42.8702L55.7875 31.7837L53.9484 29.9977L44.5826 39.2646L30.3466 25.179Z"/>
<path d="M77.6833 8.1284C77.6833 6.30873 76.4572 5.66847 75.129 5.06191C74.0732 4.59015 73.2899 4.35427 73.2899 3.57922C73.2899 2.90527 73.8008 2.56829 74.6181 2.56829C75.4696 2.56829 76.2188 2.93897 76.5594 3.17485L77.4109 1.72585C77.0022 1.42257 76.1167 0.917108 74.516 0.917108C72.745 0.917108 71.3146 1.96174 71.3146 3.64662C71.3146 5.23041 72.2341 5.97175 73.4261 6.57831C74.5841 7.15117 75.6399 7.38705 75.6399 8.26319C75.6399 8.90344 75.0609 9.40892 74.0732 9.40892C72.9153 9.40892 72.166 8.83605 71.9617 8.66756L71.0762 10.1166C71.5189 10.4535 72.5406 11.0938 74.1413 11.0938C76.3551 11.0264 77.6833 9.91438 77.6833 8.1284ZM84.3586 10.3861L83.7455 9.07194C83.5071 9.20673 83.0303 9.51 82.1789 9.51C80.9528 9.51 80.3738 8.53278 80.3738 7.21857C80.3738 5.90436 80.9869 4.99452 82.1448 4.99452C82.86 4.99452 83.3368 5.2304 83.6434 5.43259L84.2905 4.08468C83.9499 3.8488 83.2347 3.51183 82.0767 3.51183C79.897 3.51183 78.2623 4.85973 78.2623 7.28596C78.2623 9.51 79.6927 11.0264 82.0086 11.0264C83.3709 11.0264 84.018 10.622 84.3586 10.3861ZM91.6469 10.8579V5.83697C91.6469 4.52276 91.0679 3.51183 89.4672 3.51183C88.2752 3.51183 87.594 4.15208 87.2194 4.55645V0.276855H85.2441V10.8579H87.2194V6.03915C87.3556 5.83697 87.9346 5.12931 88.7179 5.12931C89.4331 5.12931 89.6715 5.49999 89.6715 6.20764V10.8579H91.6469ZM99.9228 7.25226C99.9228 5.39889 98.7649 3.54552 96.2446 3.54552C93.7244 3.54552 92.6345 5.49999 92.6345 7.31966C92.6345 9.17303 93.7244 11.0601 96.2446 11.0601C98.7989 11.0264 99.9228 9.03823 99.9228 7.25226ZM97.8113 7.28596C97.8113 8.63386 97.4026 9.5437 96.2787 9.5437C95.1548 9.5437 94.712 8.56648 94.712 7.21857C94.712 5.87067 95.0867 4.96082 96.2106 4.96082C97.3345 4.96082 97.8113 5.97175 97.8113 7.28596ZM106.905 4.65755C106.632 3.9836 106.087 3.51183 105.031 3.51183C103.873 3.51183 103.226 4.15208 102.852 4.55645V3.68032H100.91V10.8579H102.886V6.03915C103.022 5.83697 103.499 5.16301 104.248 5.16301C104.827 5.16301 105.1 5.53368 105.1 6.24133V10.8579H107.075V5.97175C107.347 5.63478 107.79 5.16301 108.437 5.16301C109.084 5.16301 109.289 5.53368 109.289 6.24133V10.8579H111.264V5.83697C111.264 4.52276 110.719 3.51183 109.186 3.51183C108.165 3.51183 107.484 3.9836 106.905 4.65755ZM112.626 0.276855V10.4535C112.967 10.622 113.954 11.0264 115.589 11.0264C117.769 11.0264 119.438 9.6448 119.438 7.21857C119.438 4.75864 118.178 3.51183 116.373 3.51183C115.555 3.51183 114.942 3.9162 114.602 4.25317V0.276855H112.626ZM114.602 5.60108C114.738 5.46629 115.181 5.06191 115.828 5.06191C116.883 5.06191 117.36 5.87067 117.36 7.21857C117.36 8.70127 116.713 9.51 115.589 9.51C115.044 9.51 114.738 9.37521 114.602 9.34152V5.60108ZM120.425 3.71401V8.73496C120.425 10.0492 121.004 11.0601 122.605 11.0601C123.797 11.0601 124.546 10.4198 124.921 9.91438C124.921 10.2177 125.023 10.6894 125.057 10.8579H126.998C126.896 10.4198 126.794 9.71219 126.794 8.80235V3.71401H124.819V8.49908C124.683 8.66756 124.104 9.40892 123.32 9.40892C122.605 9.40892 122.367 9.03824 122.367 8.33059V3.71401H120.425ZM133.163 3.71401C132.993 3.61292 132.72 3.51183 132.175 3.51183C131.256 3.51183 130.643 4.11839 130.336 4.65755V3.68032H128.361V10.8579H130.336V6.34243C130.506 6.00545 131.017 5.2641 131.903 5.2641C132.311 5.2641 132.55 5.36519 132.652 5.43259L133.163 3.71401ZM137.863 3.71401C137.488 3.57922 137.045 3.54552 136.569 3.54552C134.559 3.54552 133.367 4.59015 133.367 6.14024C133.367 7.08378 133.844 7.82512 134.661 8.29689C134.219 8.53277 133.844 8.97084 133.844 9.64479C133.844 10.1503 134.082 10.4872 134.491 10.7231C133.776 11.0938 133.265 11.6666 133.265 12.4754C133.265 13.7559 134.457 14.3962 136.432 14.3962C138.816 14.3962 140.383 13.3178 140.383 11.8014C140.383 9.67849 138.476 9.67849 136.977 9.61109C135.922 9.5437 135.513 9.4763 135.513 9.10563C135.513 8.90344 135.649 8.76866 135.785 8.66756C136.058 8.70126 136.33 8.73496 136.637 8.73496C138.646 8.73496 139.77 7.69033 139.77 6.14024C139.77 5.73587 139.668 5.3315 139.498 4.99452H140.451V3.71401H137.863ZM136.603 7.45445C135.785 7.45445 135.309 6.94899 135.309 6.14024C135.309 5.2978 135.785 4.82604 136.603 4.82604C137.42 4.82604 137.897 5.2978 137.897 6.14024C137.897 6.94899 137.42 7.45445 136.603 7.45445ZM135.751 11.0938C136.058 11.1275 136.398 11.1612 136.739 11.1949C137.795 11.2623 138.476 11.2286 138.476 12.0036C138.476 12.6102 137.795 13.0483 136.603 13.0483C135.581 13.0483 135.206 12.6439 135.206 12.071C135.172 11.6667 135.377 11.3297 135.751 11.0938ZM151.69 10.0155L150.839 8.56648C150.328 8.93715 149.681 9.30782 148.591 9.30782C146.65 9.30782 145.696 7.75772 145.696 5.90435C145.696 4.08468 146.684 2.63569 148.557 2.63569C149.476 2.63569 150.089 2.87157 150.634 3.20854L151.554 1.69215C150.771 1.18669 149.885 0.917108 148.591 0.917108C145.253 0.917108 143.482 3.30964 143.482 5.97175C143.482 8.63387 145.185 11.0601 148.557 11.0601C150.021 11.0264 151.213 10.4535 151.69 10.0155ZM153.938 7.72403H158.536C158.774 5.06192 157.684 3.51183 155.402 3.51183C153.393 3.51183 151.826 4.96083 151.826 7.21857C151.826 9.51001 153.189 11.0264 155.607 11.0264C157.105 11.0264 157.82 10.5883 158.297 10.3524L157.65 9.07194C157.31 9.24043 156.731 9.5774 155.777 9.5774C154.585 9.5774 154.04 8.83606 153.938 7.72403ZM153.938 6.40982C154.074 5.46629 154.551 4.92712 155.368 4.92712C156.288 4.92712 156.594 5.60108 156.628 6.40982H153.938ZM166.096 10.8579V5.83697C166.096 4.52276 165.517 3.51183 163.917 3.51183C162.725 3.51183 162.01 4.15208 161.601 4.59015V3.68032H159.66V10.8579H161.635V6.03915C161.771 5.83697 162.35 5.12931 163.133 5.12931C163.849 5.12931 164.087 5.49999 164.087 6.20764V10.8579H166.096ZM168.072 5.16301V8.80235C168.072 10.184 168.651 11.0264 170.354 11.0264C171.273 11.0264 171.886 10.7905 172.159 10.622L171.682 9.17303C171.546 9.27412 171.171 9.44261 170.728 9.44261C170.183 9.44261 170.013 9.13933 170.013 8.43168V5.16301H171.716V3.71401H170.013V1.62476H168.038V3.71401H166.88V5.16301H168.072ZM174.475 7.72403H179.072C179.311 5.06192 178.221 3.51183 175.939 3.51183C173.93 3.51183 172.363 4.96083 172.363 7.21857C172.363 9.51001 173.725 11.0264 176.143 11.0264C177.642 11.0264 178.357 10.5883 178.834 10.3524L178.187 9.07194C177.846 9.24043 177.267 9.5774 176.314 9.5774C175.122 9.5774 174.543 8.83606 174.475 7.72403ZM174.475 6.40982C174.611 5.46629 175.088 4.92712 175.905 4.92712C176.825 4.92712 177.131 5.60108 177.165 6.40982H174.475ZM184.998 3.71401C184.828 3.61292 184.556 3.51183 184.011 3.51183C183.091 3.51183 182.512 4.11839 182.172 4.65755V3.68032H180.23V10.8579H182.206V6.34243C182.376 6.00545 182.887 5.2641 183.772 5.2641C184.181 5.2641 184.419 5.36519 184.521 5.43259L184.998 3.71401Z"/>
</svg>
