<svg viewBox="0 0 201 165" fill="none" xmlns="http://www.w3.org/2000/svg">
<path d="M1.66113 3.03403H4.69144L26.7851 35.0843V3.03403H29.6501V40.1042H26.8402L4.52615 7.83329V40.1042H1.71623V3.03403H1.66113Z" fill="white"/>
<path fill-rule="evenodd" clip-rule="evenodd" d="M46.8952 12.9635C39.8429 12.9635 35.4902 19.0867 35.4902 26.589C35.4902 34.2017 39.2368 40.711 47.3911 40.711C50.6115 40.7805 53.7723 39.8349 56.4269 38.008L55.2147 35.7463C52.9863 37.3598 50.3064 38.2284 47.5563 38.2286C41.1652 38.2286 38.6307 32.6571 38.5756 26.589V25.9822H56.8676C57.4186 18.4248 53.672 12.9635 46.8952 12.9635ZM46.785 15.5011C51.8539 15.5011 53.8924 19.5832 53.9475 23.6102H38.7409C39.5123 19.0867 42.1569 15.5011 46.785 15.5011Z" fill="white"/>
<path d="M59.9531 13.5703H63.0936L69.5399 35.6911L76.482 13.5703H79.292L86.2341 35.7463L92.7355 13.5703H95.6556L87.6666 40.1594H85.022L77.8595 17.7628L70.6969 40.1594H68.0523L59.9531 13.5703Z" fill="white"/>
<path d="M121.22 26.1477L108.824 3.03403H112.295L122.818 23.0585H122.928L133.452 3.03403H136.592L124.251 26.1477V40.1042H121.22V26.1477Z" fill="white"/>
<path fill-rule="evenodd" clip-rule="evenodd" d="M145.959 12.9635C137.639 12.9635 134.058 20.19 134.058 26.8649C134.058 33.5397 137.639 40.711 146.014 40.711C154.333 40.711 158.135 33.4294 158.135 26.7545C158.135 20.1348 154.278 12.9635 145.959 12.9635ZM145.793 15.4459C151.854 15.4459 155.05 20.9071 155.05 26.8649C155.05 32.8777 152.13 38.2286 146.014 38.2286C140.008 38.2286 137.033 32.7674 137.033 26.7545C137.033 20.7968 139.788 15.4459 145.793 15.4459Z" fill="white"/>
<path d="M163.7 13.5703H166.62V18.2041C167.612 16.2734 170.036 12.9635 173.727 12.9635C174.592 12.957 175.45 13.1065 176.262 13.4048L175.545 16.1079C174.862 15.8362 174.132 15.7049 173.397 15.7217C169.705 15.7217 167.336 20.0797 166.62 21.6243V40.1042H163.7L163.7 13.5703Z" fill="white"/>
<path fill-rule="evenodd" clip-rule="evenodd" d="M184.471 0H181.606V40.1042H184.471V0ZM196.372 13.5703L184.746 25.2099L196.978 40.1594H200.614L188.273 25.2099L200.008 13.5703H196.372Z" fill="white"/>
<path fill-rule="evenodd" clip-rule="evenodd" d="M9.76031 58.86H1.71623H1.66113V95.9853H4.74653V80.2084H9.42973C17.8044 80.2084 22.4325 76.016 22.4325 69.3411C22.4325 62.7214 17.5289 58.86 9.76031 58.86ZM19.3471 69.4514C19.3471 74.3059 16.427 77.5605 9.37463 77.5605V77.6157H4.74653V61.5078H9.48483C16.5923 61.5078 19.3471 64.8177 19.3471 69.4514Z" fill="white"/>
<path d="M27.1157 88.152V69.3963H30.0358V87.5452C30.0358 91.4618 31.4132 93.9442 35.4904 93.9442C39.4573 93.9442 42.708 90.1931 43.5896 88.6485V69.3963H46.4546V90.855C46.4253 92.5784 46.5917 94.2995 46.9504 95.9853H43.9752C43.7371 94.5445 43.6082 93.0876 43.5896 91.6273C42.3223 93.6132 39.292 96.5921 34.7741 96.5921C29.3196 96.5369 27.1157 92.8961 27.1157 88.152Z" fill="white"/>
<path fill-rule="evenodd" clip-rule="evenodd" d="M53.7273 55.8259V94.551C55.5455 95.7646 58.5207 96.5369 61.6612 96.4818C69.7604 96.4818 74.7741 89.9724 74.7741 82.5253C74.7741 74.8023 71.0827 68.7343 63.5345 68.7343C60.8923 68.7539 58.3773 69.873 56.5923 71.8235V55.8259H53.7273ZM63.0386 71.3822C69.54 71.3822 71.7438 76.8986 71.7438 82.6908C71.7438 88.2072 68.4931 94.0545 61.7714 94.0545C59.989 94.0908 58.2207 93.7329 56.5923 93.0064V74.4162C58.2588 72.5953 60.5749 71.5052 63.0386 71.3822Z" fill="white"/>
<path d="M80.7246 55.8259H83.6447V95.9301H80.7246V55.8259Z" fill="white"/>
<path fill-rule="evenodd" clip-rule="evenodd" d="M92.6035 59.5972C91.9259 59.9927 91.5134 60.7226 91.5235 61.5078C91.4937 62.3058 91.9018 63.0562 92.5874 63.4641C93.2731 63.8719 94.1265 63.8719 94.8122 63.4641C95.4978 63.0562 95.906 62.3058 95.8761 61.5078C95.8863 60.7226 95.4737 59.9927 94.7962 59.5972C94.1186 59.2016 93.281 59.2016 92.6035 59.5972ZM95.215 69.3411H92.2398V95.9301H95.215V69.3411Z" fill="white"/>
<path d="M100.78 82.6356C100.78 74.2507 105.628 68.7895 112.46 68.7895C116.427 68.7895 118.906 70.2789 120.339 71.5477L118.851 73.6439C117.07 72.0818 114.773 71.2366 112.405 71.2718C106.51 71.2718 103.865 76.4021 103.865 82.5253C103.865 88.4278 106.454 94.0545 112.35 94.0545C114.815 94.0736 117.21 93.2352 119.127 91.6825L120.394 93.8339C118.961 95.1027 116.151 96.5369 112.185 96.5369C104.526 96.5369 100.78 89.7518 100.78 82.6356Z" fill="white"/>
<path d="M0.889648 151.756V114.686H8.76844V145.412H22.5425V151.756H0.889648Z" fill="white"/>
<path fill-rule="evenodd" clip-rule="evenodd" d="M28.936 119.798C29.7853 120.638 30.9356 121.101 32.1292 121.085C33.7427 121.144 35.2598 120.317 36.0842 118.927C36.9086 117.537 36.9086 115.807 36.0842 114.417C35.2598 113.027 33.7427 112.199 32.1292 112.259C30.9502 112.227 29.8077 112.671 28.9583 113.49C28.1089 114.309 27.6236 115.436 27.6113 116.617C27.6095 117.812 28.0867 118.958 28.936 119.798ZM28.4378 124.615V151.756H35.8758V124.615H28.4378Z" fill="white"/>
<path fill-rule="evenodd" clip-rule="evenodd" d="M49.8153 126.767V111.652H42.4324V150.267C43.6996 150.873 47.4461 152.418 53.5619 152.418C61.7161 152.418 67.942 147.288 67.942 138.02C67.942 128.698 63.2037 124.009 56.4269 124.009C53.9527 124.052 51.5883 125.038 49.8153 126.767ZM53.5618 146.626C52.2865 146.653 51.0169 146.448 49.8153 146.019V131.897C51.0085 130.636 52.6538 129.901 54.3883 129.856C58.4103 129.856 60.1183 132.945 60.1183 138.02C60.1183 143.537 57.6941 146.626 53.5618 146.626Z" fill="white"/>
<path d="M88.7133 131.125C87.8342 130.657 86.8413 130.447 85.8483 130.518C82.5425 130.518 80.6141 133.442 79.953 134.655V151.756H72.5701V124.615H79.953V128.311C81.11 126.325 83.369 123.953 86.7849 123.953C88.7684 123.953 89.8703 124.34 90.4764 124.671L88.7133 131.125Z" fill="white"/>
<path fill-rule="evenodd" clip-rule="evenodd" d="M107.887 148.832C107.936 149.819 108.084 150.799 108.328 151.756V151.701H115.6C115.049 149.071 114.79 146.389 114.829 143.702V133.938C114.829 126.712 111.303 123.898 103.92 123.898C98.1349 123.898 94.5536 126.381 92.9558 127.815L96.2065 132.338C98.1589 130.753 100.581 129.861 103.094 129.801C106.565 129.801 107.501 131.29 107.501 133.607V135.152H106.565C99.4021 135.152 92.1294 137.744 92.1294 144.805C92.1294 149.66 95.6556 152.418 100.284 152.418C103.22 152.392 105.997 151.082 107.887 148.832ZM106.51 139.73H107.446H107.501V144.64C106.249 146.117 104.422 146.981 102.488 147.012C100.78 147.012 99.1817 146.184 99.1817 144.199C99.1817 140.999 102.157 139.73 106.51 139.73Z" fill="white"/>
<path d="M136.868 131.125C136.006 130.663 135.033 130.452 134.058 130.518C130.752 130.518 128.824 133.442 128.162 134.655V151.756H120.78V124.615H128.162V128.311C129.319 126.325 131.578 123.953 134.994 123.953C136.978 123.953 138.08 124.34 138.686 124.671L136.868 131.125Z" fill="white"/>
<path d="M141.331 124.615H149.209L155.215 142.489H155.49L161 124.615H168.603L157.419 154.625C155.05 161.024 152.185 164.775 144.802 164.775C143.389 164.809 141.979 164.642 140.614 164.278L141.661 158.431C142.505 158.656 143.378 158.749 144.251 158.707C148.052 158.707 149.375 156.886 150.421 153.963L151.413 151.204L141.331 124.615Z" fill="white"/>
</svg>
