<svg viewBox="0 0 152 139" fill="none" xmlns="http://www.w3.org/2000/svg">
<g clip-path="url(#clip0_53471_41905)">
<path d="M130.79 29.5411H20.9897C17.8568 29.5411 15.3171 32.0758 15.3171 35.2025V133.341C15.3171 136.467 17.8568 139.002 20.9897 139.002H130.79C133.923 139.002 136.462 136.467 136.462 133.341V35.2025C136.462 32.0758 133.923 29.5411 130.79 29.5411Z" fill="#012F53"/>
<path d="M76.0001 7.79019C76.0001 7.79019 43.5204 -12.1819 -0.00830078 11.8424V123.174C-0.00830078 123.174 22.2179 100.053 58.7746 109.532V30.593H93.2256V109.532C129.784 100.059 152.008 123.168 152.008 123.168V11.8424C108.482 -12.1819 76.0001 7.79019 76.0001 7.79019Z" fill="url(#paint0_linear_53471_41905)"/>
<path d="M13.3123 98.9825C32.528 91.2552 51.7437 90.8696 70.9615 98.9825V20.0685C52.067 11.2537 32.845 11.1091 13.3123 20.0685V98.9825Z" fill="white"/>
<path d="M80.1023 98.9825C99.318 91.2552 118.534 90.8696 137.752 98.9825V20.0685C118.847 11.2537 99.635 11.1091 80.1023 20.0685V98.9825Z" fill="white"/>
<path d="M130.032 126.627C130.042 127.253 129.861 127.867 129.513 128.387C129.141 128.918 128.623 129.331 128.023 129.578C127.297 129.872 126.519 130.014 125.737 129.997C125.122 130.006 124.507 129.958 123.902 129.852C123.368 129.737 122.85 129.561 122.357 129.328V126.772C122.92 127.052 123.511 127.274 124.12 127.432C124.668 127.58 125.232 127.658 125.8 127.667C126.136 127.695 126.473 127.622 126.767 127.457C126.863 127.395 126.941 127.309 126.995 127.209C127.049 127.109 127.077 126.997 127.076 126.883C127.079 126.746 127.034 126.613 126.948 126.506C126.839 126.37 126.704 126.256 126.551 126.171C126.373 126.062 125.888 125.833 125.096 125.49C124.522 125.256 123.98 124.948 123.486 124.574C123.147 124.3 122.875 123.952 122.69 123.558C122.511 123.127 122.425 122.664 122.436 122.198C122.418 121.756 122.509 121.316 122.701 120.917C122.893 120.517 123.181 120.172 123.539 119.91C124.273 119.362 125.282 119.089 126.566 119.091C127.763 119.104 128.944 119.364 130.036 119.853L129.125 122.054C128.1 121.598 127.216 121.371 126.471 121.373C126.178 121.348 125.884 121.416 125.632 121.567C125.551 121.621 125.486 121.693 125.44 121.778C125.394 121.863 125.37 121.957 125.369 122.054C125.375 122.166 125.408 122.276 125.466 122.373C125.523 122.471 125.603 122.553 125.699 122.613C126.28 122.959 126.887 123.26 127.515 123.514C128.458 123.925 129.112 124.367 129.478 124.842C129.861 125.357 130.057 125.987 130.032 126.627ZM121.674 129.854H118.332L116.168 125.794L115.29 126.301V129.863H112.309V119.244H115.29V123.853C115.563 123.382 115.866 122.928 116.197 122.496L118.506 119.242H121.735L118.28 123.998L121.674 129.854ZM102.799 124.53C102.799 126.583 103.536 127.609 105.009 127.608C105.757 127.608 106.311 127.361 106.672 126.86C107.033 126.359 107.218 125.584 107.218 124.53C107.218 123.476 107.035 122.686 106.664 122.183C106.292 121.681 105.752 121.421 105.022 121.421C103.54 121.424 102.799 122.46 102.799 124.53V124.53ZM110.335 124.53C110.335 126.317 109.883 127.675 108.979 128.605C108.075 129.536 106.752 130 105.009 129.999C103.289 129.999 101.97 129.532 101.052 128.597C100.134 127.663 99.6769 126.302 99.6811 124.515C99.6811 122.747 100.135 121.398 101.044 120.469C101.952 119.541 103.278 119.073 105.022 119.068C106.767 119.068 108.089 119.53 108.988 120.455C109.886 121.38 110.335 122.738 110.335 124.53V124.53ZM90.5676 124.53C90.5676 126.583 91.3045 127.609 92.7783 127.608C93.5278 127.608 94.082 127.361 94.441 126.86C94.8 126.359 94.9889 125.584 94.9889 124.53C94.9889 123.476 94.8042 122.686 94.4326 122.183C94.061 121.681 93.5215 121.425 92.7846 121.425C91.3066 121.425 90.5676 122.46 90.5676 124.53V124.53ZM98.1044 124.53C98.1044 126.317 97.6531 127.675 96.7503 128.605C95.8476 129.536 94.5257 130 92.7846 129.999C91.0645 129.999 89.7454 129.532 88.8272 128.597C87.9091 127.663 87.4521 126.302 87.4563 124.515C87.4563 122.747 87.9112 121.398 88.8209 120.469C89.7307 119.541 91.0568 119.073 92.7993 119.068C94.5446 119.068 95.8658 119.53 96.7629 120.455C97.6601 121.38 98.1072 122.738 98.1044 124.53V124.53ZM80.4696 125.408V127.639H81.5088C82.4325 127.639 82.8951 127.261 82.8965 126.504C82.905 126.348 82.8754 126.193 82.8103 126.051C82.7452 125.91 82.6465 125.786 82.5228 125.691C82.2055 125.481 81.8278 125.381 81.4479 125.406L80.4696 125.408ZM80.4696 123.313H81.3597C81.7061 123.334 82.0504 123.245 82.3422 123.057C82.4594 122.97 82.553 122.856 82.6142 122.724C82.6755 122.591 82.7025 122.446 82.6928 122.301C82.6928 121.706 82.2288 121.408 81.3009 121.408H80.4612L80.4696 123.313ZM77.5073 119.237H81.3303C82.8181 119.237 83.9224 119.453 84.6431 119.883C85.3674 120.302 85.7306 120.974 85.7306 121.882C85.7453 122.428 85.5785 122.963 85.2562 123.405C84.9554 123.819 84.5134 124.109 84.0133 124.22V124.291C84.5885 124.378 85.1089 124.68 85.4683 125.136C85.8276 125.593 85.9988 126.169 85.9469 126.747C85.9623 127.19 85.8678 127.63 85.6719 128.027C85.4759 128.425 85.1846 128.768 84.8237 129.027C84.0777 129.585 83.0602 129.865 81.7712 129.865H77.5115L77.5073 119.237ZM71.7739 123.413C71.4542 123.406 71.1435 123.519 70.9048 123.732C70.6504 123.998 70.5058 124.351 70.4996 124.719H73.0188C73.0252 124.37 72.9001 124.031 72.6682 123.77C72.5541 123.65 72.4156 123.556 72.2621 123.494C72.1085 123.432 71.9435 123.404 71.7781 123.411L71.7739 123.413ZM71.9481 130.001C70.5332 130.001 69.4338 129.638 68.65 128.911C67.8662 128.185 67.4771 127.146 67.4827 125.796C67.4827 124.407 67.8438 123.342 68.566 122.6C69.2882 121.859 70.3232 121.486 71.671 121.481C72.9489 121.481 73.9356 121.806 74.6312 122.456C75.3282 123.097 75.6809 124.029 75.6809 125.245V126.502H70.445C70.4457 126.709 70.4923 126.914 70.5816 127.101C70.6709 127.288 70.8006 127.454 70.9614 127.585C71.3512 127.865 71.8255 128.003 72.305 127.977C72.7803 127.982 73.2547 127.935 73.72 127.839C74.2054 127.726 74.6776 127.563 75.1287 127.352V129.387C74.6798 129.612 74.2003 129.771 73.7053 129.858C73.1262 129.956 72.5397 130.003 71.9523 129.999L71.9481 130.001ZM64.256 129.856H62.8053L56.8178 120.943H56.7591C56.8388 121.991 56.8787 122.95 56.8787 123.82V129.856H55.701V119.237H57.1391L63.1139 128.113H63.1832C63.1727 127.981 63.1517 127.564 63.116 126.856C63.0803 126.148 63.0698 125.636 63.0803 125.331V119.237H64.2707L64.256 129.856ZM52.1887 129.856H46.0795V119.237H52.1887V120.333H47.3601V123.753H51.9032V124.842H47.3559V128.758H52.1845L52.1887 129.856ZM37.0332 124.618H38.1795C39.3089 124.618 40.1235 124.44 40.6295 124.086C41.1354 123.732 41.3852 123.166 41.3852 122.387C41.3852 121.685 41.148 121.163 40.6735 120.817C40.1991 120.472 39.4601 120.302 38.4566 120.302H37.0332V124.618ZM42.7016 122.33C42.7016 123.403 42.3223 124.23 41.5637 124.813C40.8051 125.395 39.7232 125.683 38.318 125.676H37.0311V129.854H35.7568V119.235H38.5973C41.3377 119.235 42.7079 120.267 42.7079 122.33H42.7016ZM23.5047 124.53C23.5047 125.967 23.8197 127.059 24.4495 127.805C25.0793 128.551 25.9981 128.921 27.206 128.915C28.4194 128.915 29.3361 128.545 29.9562 127.805C30.5762 127.065 30.8862 125.973 30.8862 124.53C30.8862 123.101 30.5762 122.019 29.9562 121.282C29.3361 120.546 28.4264 120.176 27.227 120.172C26.0135 120.172 25.0898 120.545 24.4558 121.291C23.8218 122.037 23.5047 123.116 23.5047 124.53ZM32.234 124.53C32.234 126.23 31.7896 127.566 30.9009 128.538C30.0122 129.511 28.7805 129.999 27.206 130.005C25.5936 130.005 24.3473 129.528 23.467 128.574C22.5866 127.62 22.1492 126.269 22.1548 124.522C22.1548 122.791 22.5943 121.452 23.4733 120.505C24.3522 119.558 25.6013 119.081 27.2207 119.074C28.7952 119.074 30.024 119.559 30.9072 120.528C31.7903 121.498 32.2333 122.832 32.2361 124.53H32.234Z" fill="white"/>
</g>
<defs>
<linearGradient id="paint0_linear_53471_41905" x1="76.5186" y1="132.496" x2="75.5128" y2="5.94004" gradientUnits="userSpaceOnUse">
<stop offset="0.15" stop-color="#8AC33E"/>
<stop offset="0.3" stop-color="#5F9445"/>
<stop offset="0.47" stop-color="#37694B"/>
<stop offset="0.62" stop-color="#19494F"/>
<stop offset="0.74" stop-color="#073652"/>
<stop offset="0.83" stop-color="#012F53"/>
</linearGradient>
</defs>
</svg>
