<svg viewBox="0 0 360 47" fill="none" xmlns="http://www.w3.org/2000/svg">
<path fill-rule="evenodd" clip-rule="evenodd" d="M45.2839 29.1926L45.2816 29.1998C45.0975 29.7838 44.8633 30.5269 44.3949 30.1861C42.9149 29.1018 41.3038 28.208 39.5996 27.5258C39.4982 27.5 39.5111 27.3602 39.548 27.2848C39.6803 26.9855 39.7661 26.6678 39.8025 26.3428C39.8959 26.0382 40.0517 25.7563 40.2599 25.5149C40.7373 24.5691 41.0302 23.5414 41.1231 22.4866C41.2047 21.6827 41.1574 20.871 40.9829 20.082C40.8474 19.7416 40.7497 19.3875 40.6915 19.0259C40.6915 18.8424 40.7387 18.6589 40.7884 18.4659C40.8318 18.297 40.8771 18.1209 40.8944 17.9312C40.6774 16.7723 39.8524 15.8194 38.7346 15.4365C38.1319 15.1555 37.5161 14.8832 36.8909 14.6066L36.8902 14.6063L36.8901 14.6063C35.6445 14.0554 34.3611 13.4877 33.067 12.8019C32.0386 12.0373 31.0779 11.186 30.1954 10.2575C28.6601 9.33992 27.0115 8.6256 25.2913 8.1325C25.0875 8.10174 24.9275 7.94214 24.8967 7.73879C24.3049 5.07852 22.7852 2.71437 20.6086 1.06779C19.8082 0.444103 20.7174 0.0871843 21.824 0.0375054C29.2499 -0.380325 36.4207 2.80585 41.0764 8.59183C45.7321 14.3778 47.2992 22.0509 45.2839 29.1926ZM10.8907 3.2644C10.5965 3.46006 10.5965 3.96521 11.3136 4.03815C13.8823 4.24978 16.3086 5.25585 18.2242 6.90368C18.3492 7.03406 18.5165 7.12052 18.6992 7.14915C18.8797 7.16413 19.0865 7.15741 19.3315 7.14946C19.6982 7.13755 20.1503 7.12286 20.7277 7.17405C21.1936 7.21179 21.6564 7.27774 22.1136 7.37149C23.3727 7.59384 21.4858 4.83682 19.3679 3.38535C18.1282 2.44333 16.6731 1.79425 15.1209 1.491C14.802 1.45063 14.4778 1.50203 14.1896 1.63863C13.0322 2.06615 11.9262 2.6112 10.8907 3.2644ZM6.09108 7.36165C6.22874 7.20128 6.41233 7.08497 6.61816 7.02774C9.51601 6.33416 12.5662 6.59008 15.3013 7.75627C15.8156 7.97947 16.0545 8.29196 15.7153 8.5098C14.8481 9.02442 14.0248 9.60664 13.2532 10.2508C13.0137 10.3976 12.728 10.4547 12.4489 10.4115C9.69673 9.86617 6.83853 10.1978 4.2928 11.3579C3.66542 11.6168 3.11098 11.2597 3.40097 10.7901C4.16925 9.55595 5.07117 8.40651 6.09108 7.36165ZM36.2813 16.1045C35.4939 15.7177 34.5983 15.4206 33.7046 15.1241C32.6653 14.7792 31.6284 14.4352 30.7667 13.952C30.1829 13.6294 29.6652 13.212 29.1458 12.7932C28.5246 12.2922 27.9009 11.7893 27.1588 11.4444C25.7728 10.7978 24.3334 10.2724 22.8567 9.874C20.8043 9.30797 18.6087 9.62448 16.8 10.7471C14.9433 12.173 14.0578 14.5289 14.5162 16.8238C14.6625 17.9216 15.0591 18.9711 15.6755 19.8915C17.3271 22.2292 19.9669 23.4795 22.6089 24.7306C23.8019 25.2956 24.9953 25.8608 26.0983 26.5265C26.1959 26.6084 26.3415 26.5957 26.4235 26.4982L26.4243 26.4972L26.4463 26.4807C26.9116 25.6076 27.6402 24.9031 28.5287 24.4673C29.8401 24.139 31.2024 24.0657 32.5414 24.2514C33.7686 24.4877 35.0385 24.193 36.0359 23.4405C36.723 22.4247 36.5675 21.0601 35.6696 20.2246C35.3934 20.0656 35.0423 19.9896 34.6901 19.9134L34.69 19.9134C34.3976 19.8502 34.1045 19.7867 33.8528 19.6755C33.4245 19.462 33.0915 19.0965 32.9187 18.6505C32.6684 18.1873 32.6271 17.6395 32.8052 17.144C33.1317 16.8172 33.634 16.7428 34.0414 16.961C35.0993 17.2625 36.218 17.2801 37.2849 17.0123C37.1016 16.5759 36.734 16.2434 36.2813 16.1045ZM27.3351 15.6103C27.3094 16.1056 27.0461 16.5582 26.6281 16.8256C26.2616 16.7593 25.9281 16.5717 25.6812 16.293C25.117 16.0255 24.5297 15.8092 23.9267 15.6469C23.3331 15.5484 22.8025 15.2195 22.4505 14.7317C22.1355 13.9721 22.8791 13.617 23.4212 13.4395C23.9221 13.2894 24.4406 13.2064 24.9633 13.1924C25.7809 13.0075 26.6347 13.2784 27.1959 13.9007C27.3879 14.4493 27.4358 15.0379 27.3351 15.6103ZM0.751709 17.7706C0.602344 17.9368 0.512103 18.1467 0.494743 18.3682C-0.365966 22.3517 -0.0999115 26.4923 1.26377 30.3364C1.49651 30.9174 2.40705 30.6931 2.38098 29.4464C2.3877 29.2163 2.39052 28.9613 2.39357 28.6844C2.43114 25.2801 2.50529 18.5621 10.3281 13.9167C10.816 13.6372 11.2256 13.3577 11.0208 12.8741C10.6686 12.5536 10.1601 12.4639 9.71738 12.6443C6.23331 13.3174 3.07733 15.1219 0.751709 17.7706ZM37.7003 20.9227C37.7003 20.9877 37.7423 21.2962 37.7563 21.3854C37.837 21.9989 37.8025 22.6208 37.6543 23.2233C37.6493 23.2997 37.6791 23.3746 37.7363 23.4296C38.2105 23.7517 38.5818 24.1871 38.8107 24.6896C38.8447 24.7788 38.9547 24.7267 39.0108 24.6115C39.6382 23.1415 39.6624 21.5087 39.0788 20.0232L39.0759 20.0178C39.0596 19.9866 39.0186 19.9085 38.9547 19.9452C38.6979 20.0853 38.4537 20.2443 38.2245 20.4209C38.0031 20.5398 37.8216 20.7136 37.7003 20.9227ZM30.128 27.2785C30.2162 26.9315 30.4295 26.6323 30.7243 26.4421C31.4983 26.1121 32.3322 25.9587 33.169 25.9923C34.0094 25.9932 34.8441 25.85 35.639 25.5685C35.9903 25.1979 36.4985 25.0338 36.9919 25.1317C37.2501 25.2613 37.4404 25.5011 37.5126 25.7878C37.6258 26.1043 37.6725 26.442 37.6495 26.7785C37.314 27.719 36.9328 28.6415 36.5073 29.5424C36.5113 29.7201 36.4636 29.8949 36.3704 30.0443C35.3892 30.6404 34.215 30.7982 33.1186 30.4811C32.7209 30.4812 32.3262 30.4114 31.9512 30.2748C31.7322 30.1456 31.535 29.9805 31.3675 29.7859C31.0811 29.5098 30.8842 29.2818 30.6394 28.9985L30.6391 28.9982C30.5544 28.9002 30.464 28.7955 30.3622 28.68C30.1728 28.5111 30.0168 28.3059 29.9028 28.0759C29.9565 27.8042 30.0318 27.5375 30.128 27.2785ZM7.35405 39.6856C7.57995 40.1259 7.89329 40.5156 8.27492 40.8308C11.8992 43.8942 16.3905 45.7488 21.1209 46.1352C22.0344 46.2107 22.1357 45.8812 22.1486 45.3583C21.5277 42.8685 20.3132 40.5659 18.6088 38.6472C18.155 38.0539 17.3288 37.1535 16.3394 36.0753C13.9519 33.4734 10.6145 29.8364 9.26941 26.9817C8.11003 24.9781 7.75208 22.6101 8.2675 20.3535C8.57138 19.2451 7.64498 18.5823 6.77016 20.0221C4.01681 24.1352 5.21027 36.2592 7.35405 39.6856ZM11.1144 24.0643C10.0309 21.4933 10.0815 18.5882 11.254 16.0561C11.5826 15.4371 11.8984 15.0336 12.317 15.1596C12.7724 15.2856 12.8679 15.753 12.9376 16.6203C13.4058 23.7685 17.7316 26.1677 23.159 28.6947C28.4971 30.9817 33.088 34.7042 36.4154 39.4435C37.036 40.3144 37.1241 40.8458 36.4283 41.3497C34.0167 43.094 31.2758 44.3361 28.3698 45.0015C27.8759 45.1147 27.3581 45.027 26.9156 43.8895C24.422 37.4561 21.003 34.6799 17.8379 32.1098C15.1883 29.9584 12.7166 27.9513 11.1144 24.0643ZM37.9272 38.5047C38.1529 38.9544 38.5584 39.4907 39.2538 38.8045C40.5813 37.4497 41.7286 35.9345 42.6684 34.2953C42.8361 34.0615 42.8694 33.7591 42.7565 33.4953C41.9732 32.3455 41.0188 31.3179 39.9254 30.4471C39.486 30.0845 38.9904 29.7937 38.4575 29.5857C38.3225 29.5458 38.1817 29.5287 38.041 29.5351C37.6557 29.5817 37.6097 29.7538 37.4615 30.3084C37.4488 30.356 37.4353 30.4063 37.4208 30.4597C37.2645 31.1965 36.8074 31.8376 36.1566 32.233C35.7291 32.4377 35.2505 32.5161 34.7787 32.4588C34.6196 32.4175 34.4526 32.4888 34.3746 32.6313C34.2965 32.7737 34.3278 32.9502 34.4502 33.0583C35.8945 34.6814 37.0681 36.5197 37.9272 38.5047Z" fill="white"/>
<mask id="mask0_75161_120621" style="mask-type:luminance" maskUnits="userSpaceOnUse" x="0" y="0" width="47" height="47">
<path fill-rule="evenodd" clip-rule="evenodd" d="M45.2839 29.1926L45.2816 29.1998C45.0975 29.7838 44.8633 30.5269 44.3949 30.1861C42.9149 29.1018 41.3038 28.208 39.5996 27.5258C39.4982 27.5 39.5111 27.3602 39.548 27.2848C39.6803 26.9855 39.7661 26.6678 39.8025 26.3428C39.8959 26.0382 40.0517 25.7563 40.2599 25.5149C40.7373 24.5691 41.0302 23.5414 41.1231 22.4866C41.2047 21.6827 41.1574 20.871 40.9829 20.082C40.8474 19.7416 40.7497 19.3875 40.6915 19.0259C40.6915 18.8424 40.7387 18.6589 40.7884 18.4659C40.8318 18.297 40.8771 18.1209 40.8944 17.9312C40.6774 16.7723 39.8524 15.8194 38.7346 15.4365C38.1319 15.1555 37.5161 14.8832 36.8909 14.6066L36.8902 14.6063L36.8901 14.6063C35.6445 14.0554 34.3611 13.4877 33.067 12.8019C32.0386 12.0373 31.0779 11.186 30.1954 10.2575C28.6601 9.33992 27.0115 8.6256 25.2913 8.1325C25.0875 8.10174 24.9275 7.94214 24.8967 7.73879C24.3049 5.07852 22.7852 2.71437 20.6086 1.06779C19.8082 0.444103 20.7174 0.0871843 21.824 0.0375054C29.2499 -0.380325 36.4207 2.80585 41.0764 8.59183C45.7321 14.3778 47.2992 22.0509 45.2839 29.1926ZM10.8907 3.2644C10.5965 3.46006 10.5965 3.96521 11.3136 4.03815C13.8823 4.24978 16.3086 5.25585 18.2242 6.90368C18.3492 7.03406 18.5165 7.12052 18.6992 7.14915C18.8797 7.16413 19.0865 7.15741 19.3315 7.14946C19.6982 7.13755 20.1503 7.12286 20.7277 7.17405C21.1936 7.21179 21.6564 7.27774 22.1136 7.37149C23.3727 7.59384 21.4858 4.83682 19.3679 3.38535C18.1282 2.44333 16.6731 1.79425 15.1209 1.491C14.802 1.45063 14.4778 1.50203 14.1896 1.63863C13.0322 2.06615 11.9262 2.6112 10.8907 3.2644ZM6.09108 7.36165C6.22874 7.20128 6.41233 7.08497 6.61816 7.02774C9.51601 6.33416 12.5662 6.59008 15.3013 7.75627C15.8156 7.97947 16.0545 8.29196 15.7153 8.5098C14.8481 9.02442 14.0248 9.60664 13.2532 10.2508C13.0137 10.3976 12.728 10.4547 12.4489 10.4115C9.69673 9.86617 6.83853 10.1978 4.2928 11.3579C3.66542 11.6168 3.11098 11.2597 3.40097 10.7901C4.16925 9.55595 5.07117 8.40651 6.09108 7.36165ZM36.2813 16.1045C35.4939 15.7177 34.5983 15.4206 33.7046 15.1241C32.6653 14.7792 31.6284 14.4352 30.7667 13.952C30.1829 13.6294 29.6652 13.212 29.1458 12.7932C28.5246 12.2922 27.9009 11.7893 27.1588 11.4444C25.7728 10.7978 24.3334 10.2724 22.8567 9.874C20.8043 9.30797 18.6087 9.62448 16.8 10.7471C14.9433 12.173 14.0578 14.5289 14.5162 16.8238C14.6625 17.9216 15.0591 18.9711 15.6755 19.8915C17.3271 22.2292 19.9669 23.4795 22.6089 24.7306C23.8019 25.2956 24.9953 25.8608 26.0983 26.5265C26.1959 26.6084 26.3415 26.5957 26.4235 26.4982L26.4243 26.4972L26.4463 26.4807C26.9116 25.6076 27.6402 24.9031 28.5287 24.4673C29.8401 24.139 31.2024 24.0657 32.5414 24.2514C33.7686 24.4877 35.0385 24.193 36.0359 23.4405C36.723 22.4247 36.5675 21.0601 35.6696 20.2246C35.3934 20.0656 35.0423 19.9896 34.6901 19.9134L34.69 19.9134C34.3976 19.8502 34.1045 19.7867 33.8528 19.6755C33.4245 19.462 33.0915 19.0965 32.9187 18.6505C32.6684 18.1873 32.6271 17.6395 32.8052 17.144C33.1317 16.8172 33.634 16.7428 34.0414 16.961C35.0993 17.2625 36.218 17.2801 37.2849 17.0123C37.1016 16.5759 36.734 16.2434 36.2813 16.1045ZM27.3351 15.6103C27.3094 16.1056 27.0461 16.5582 26.6281 16.8256C26.2616 16.7593 25.9281 16.5717 25.6812 16.293C25.117 16.0255 24.5297 15.8092 23.9267 15.6469C23.3331 15.5484 22.8025 15.2195 22.4505 14.7317C22.1355 13.9721 22.8791 13.617 23.4212 13.4395C23.9221 13.2894 24.4406 13.2064 24.9633 13.1924C25.7809 13.0075 26.6347 13.2784 27.1959 13.9007C27.3879 14.4493 27.4358 15.0379 27.3351 15.6103ZM0.751709 17.7706C0.602344 17.9368 0.512103 18.1467 0.494743 18.3682C-0.365966 22.3517 -0.0999115 26.4923 1.26377 30.3364C1.49651 30.9174 2.40705 30.6931 2.38098 29.4464C2.3877 29.2163 2.39052 28.9613 2.39357 28.6844C2.43114 25.2801 2.50529 18.5621 10.3281 13.9167C10.816 13.6372 11.2256 13.3577 11.0208 12.8741C10.6686 12.5536 10.1601 12.4639 9.71738 12.6443C6.23331 13.3174 3.07733 15.1219 0.751709 17.7706ZM37.7003 20.9227C37.7003 20.9877 37.7423 21.2962 37.7563 21.3854C37.837 21.9989 37.8025 22.6208 37.6543 23.2233C37.6493 23.2997 37.6791 23.3746 37.7363 23.4296C38.2105 23.7517 38.5818 24.1871 38.8107 24.6896C38.8447 24.7788 38.9547 24.7267 39.0108 24.6115C39.6382 23.1415 39.6624 21.5087 39.0788 20.0232L39.0759 20.0178C39.0596 19.9866 39.0186 19.9085 38.9547 19.9452C38.6979 20.0853 38.4537 20.2443 38.2245 20.4209C38.0031 20.5398 37.8216 20.7136 37.7003 20.9227ZM30.128 27.2785C30.2162 26.9315 30.4295 26.6323 30.7243 26.4421C31.4983 26.1121 32.3322 25.9587 33.169 25.9923C34.0094 25.9932 34.8441 25.85 35.639 25.5685C35.9903 25.1979 36.4985 25.0338 36.9919 25.1317C37.2501 25.2613 37.4404 25.5011 37.5126 25.7878C37.6258 26.1043 37.6725 26.442 37.6495 26.7785C37.314 27.719 36.9328 28.6415 36.5073 29.5424C36.5113 29.7201 36.4636 29.8949 36.3704 30.0443C35.3892 30.6404 34.215 30.7982 33.1186 30.4811C32.7209 30.4812 32.3262 30.4114 31.9512 30.2748C31.7322 30.1456 31.535 29.9805 31.3675 29.7859C31.0811 29.5098 30.8842 29.2818 30.6394 28.9985L30.6391 28.9982C30.5544 28.9002 30.464 28.7955 30.3622 28.68C30.1728 28.5111 30.0168 28.3059 29.9028 28.0759C29.9565 27.8042 30.0318 27.5375 30.128 27.2785ZM7.35405 39.6856C7.57995 40.1259 7.89329 40.5156 8.27492 40.8308C11.8992 43.8942 16.3905 45.7488 21.1209 46.1352C22.0344 46.2107 22.1357 45.8812 22.1486 45.3583C21.5277 42.8685 20.3132 40.5659 18.6088 38.6472C18.155 38.0539 17.3288 37.1535 16.3394 36.0753C13.9519 33.4734 10.6145 29.8364 9.26941 26.9817C8.11003 24.9781 7.75208 22.6101 8.2675 20.3535C8.57138 19.2451 7.64498 18.5823 6.77016 20.0221C4.01681 24.1352 5.21027 36.2592 7.35405 39.6856ZM11.1144 24.0643C10.0309 21.4933 10.0815 18.5882 11.254 16.0561C11.5826 15.4371 11.8984 15.0336 12.317 15.1596C12.7724 15.2856 12.8679 15.753 12.9376 16.6203C13.4058 23.7685 17.7316 26.1677 23.159 28.6947C28.4971 30.9817 33.088 34.7042 36.4154 39.4435C37.036 40.3144 37.1241 40.8458 36.4283 41.3497C34.0167 43.094 31.2758 44.3361 28.3698 45.0015C27.8759 45.1147 27.3581 45.027 26.9156 43.8895C24.422 37.4561 21.003 34.6799 17.8379 32.1098C15.1883 29.9584 12.7166 27.9513 11.1144 24.0643ZM37.9272 38.5047C38.1529 38.9544 38.5584 39.4907 39.2538 38.8045C40.5813 37.4497 41.7286 35.9345 42.6684 34.2953C42.8361 34.0615 42.8694 33.7591 42.7565 33.4953C41.9732 32.3455 41.0188 31.3179 39.9254 30.4471C39.486 30.0845 38.9904 29.7937 38.4575 29.5857C38.3225 29.5458 38.1817 29.5287 38.041 29.5351C37.6557 29.5817 37.6097 29.7538 37.4615 30.3084C37.4488 30.356 37.4353 30.4063 37.4208 30.4597C37.2645 31.1965 36.8074 31.8376 36.1566 32.233C35.7291 32.4377 35.2505 32.5161 34.7787 32.4588C34.6196 32.4175 34.4526 32.4888 34.3746 32.6313C34.2965 32.7737 34.3278 32.9502 34.4502 33.0583C35.8945 34.6814 37.0681 36.5197 37.9272 38.5047Z" fill="white"/>
</mask>
<g mask="url(#mask0_75161_120621)">
<rect y="-0.368164" width="46.145" height="46.5142" fill="white"/>
</g>
<path d="M59.1592 14.8325H61.5894V5.22431H65.0738V3.22059H55.6748V5.22431H59.1592V14.8325Z" fill="#BDBDBD"/>
<path d="M67.5519 14.8325H69.9821V9.93988H75.2127V14.8325H77.6429V3.22059H75.2127V7.93616H69.9821V3.22059H67.5519V14.8325Z" fill="#BDBDBD"/>
<path d="M80.789 14.8325H88.482V12.8288H83.2192V9.8916H88.1842V8.02468H83.2192V5.22431H88.482V3.22059H80.789V14.8325Z" fill="#BDBDBD"/>
<path d="M95.949 14.8325H98.2746V7.40506H99.4897L97.7837 6.54402L103.779 14.8325H105.791V3.22059H103.465V10.6158H102.258L103.956 11.4769L97.9769 3.22059H95.949V14.8325Z" fill="#BDBDBD"/>
<path d="M108.945 14.8325H116.638V12.8288H111.375V9.8916H116.34V8.02468H111.375V5.22431H116.638V3.22059H108.945V14.8325Z" fill="#BDBDBD"/>
<path d="M121.9 14.8325H124.194L126.366 7.01075H126.495L128.692 14.8325H130.969L134.051 3.22059H131.54L129.746 11.5171H129.617L127.461 3.22059H125.409L123.292 11.5171H123.163L121.353 3.22059H118.826L121.9 14.8325Z" fill="#BDBDBD"/>
<path d="M144.286 14.8325H146.717V10.4951L150.764 3.22059H148.133L145.582 8.10515H145.437L142.878 3.22059H140.247L144.286 10.4951V14.8325Z" fill="#BDBDBD"/>
<path d="M157.475 15.1302C158.618 15.1302 159.608 14.8834 160.445 14.3899C161.281 13.891 161.925 13.1855 162.376 12.2735C162.832 11.3615 163.06 10.2805 163.06 9.03056V9.01447C163.06 7.76449 162.832 6.68351 162.376 5.77151C161.92 4.85951 161.273 4.15673 160.436 3.66318C159.605 3.16963 158.618 2.92285 157.475 2.92285C156.338 2.92285 155.351 3.16963 154.514 3.66318C153.677 4.15673 153.028 4.85951 152.566 5.77151C152.11 6.67814 151.882 7.75913 151.882 9.01447V9.03056C151.882 10.2805 152.108 11.3615 152.558 12.2735C153.014 13.1855 153.661 13.891 154.498 14.3899C155.335 14.8834 156.327 15.1302 157.475 15.1302ZM157.475 13.0702C156.837 13.0702 156.284 12.9039 155.817 12.5713C155.356 12.2387 154.997 11.7692 154.739 11.163C154.487 10.5568 154.361 9.846 154.361 9.03056V9.01447C154.361 8.19367 154.49 7.48285 154.747 6.882C155.005 6.27579 155.367 5.80906 155.834 5.48181C156.3 5.1492 156.847 4.9829 157.475 4.9829C158.103 4.9829 158.65 5.1492 159.117 5.48181C159.583 5.80906 159.943 6.27579 160.195 6.882C160.453 7.48285 160.581 8.19367 160.581 9.01447V9.03056C160.581 9.846 160.453 10.5568 160.195 11.163C159.943 11.7692 159.583 12.2387 159.117 12.5713C158.65 12.9039 158.103 13.0702 157.475 13.0702Z" fill="#BDBDBD"/>
<path d="M165.699 14.8325H168.129V10.5836H170.004C170.02 10.5836 170.039 10.5836 170.06 10.5836C170.082 10.5836 170.101 10.5836 170.117 10.5836L172.281 14.8325H175.033L172.587 10.2215C173.252 9.95866 173.767 9.53216 174.132 8.94204C174.502 8.34656 174.687 7.67598 174.687 6.93028V6.91419C174.687 6.1524 174.524 5.49523 174.197 4.94266C173.875 4.3901 173.403 3.96629 172.78 3.67123C172.163 3.3708 171.415 3.22059 170.535 3.22059H165.699V14.8325ZM168.129 8.81329V5.1197H170.237C170.849 5.1197 171.329 5.286 171.678 5.61861C172.027 5.95122 172.201 6.39918 172.201 6.96247V6.97856C172.201 7.55259 172.029 8.00322 171.686 8.33047C171.348 8.65235 170.876 8.81329 170.27 8.81329H168.129Z" fill="#BDBDBD"/>
<path d="M179.749 11.4688L181.205 9.71456L182.654 8.49141L187.039 3.22059H184.336L180.046 8.43508H179.66L179.749 11.4688ZM177.471 14.8325H179.902V3.22059H177.471V14.8325ZM184.424 14.8325H187.337L182.67 8.10515L180.924 9.69847L184.424 14.8325Z" fill="#BDBDBD"/>
<path d="M195.295 11.1711H198.868C199.683 11.1711 200.397 11.0075 201.008 10.6802C201.62 10.353 202.095 9.8916 202.433 9.29611C202.776 8.70063 202.948 8.00322 202.948 7.20388V7.18779C202.948 6.39381 202.776 5.69908 202.433 5.1036C202.095 4.50812 201.62 4.04676 201.008 3.71951C200.397 3.3869 199.683 3.22059 198.868 3.22059H195.295V5.14384H198.272C198.97 5.14384 199.512 5.32087 199.898 5.67494C200.29 6.02901 200.485 6.53598 200.485 7.19584V7.21193C200.485 7.87179 200.29 8.38143 199.898 8.74087C199.512 9.09494 198.97 9.27197 198.272 9.27197H195.295V11.1711ZM194.08 14.8325H196.51V3.22059H194.08V14.8325Z" fill="#BDBDBD"/>
<path d="M210.375 15.1302C211.373 15.1302 212.234 14.9505 212.958 14.5911C213.688 14.2316 214.248 13.73 214.64 13.0863C215.037 12.4371 215.235 11.6834 215.235 10.8251V3.22059H212.805V10.6078C212.805 11.1067 212.711 11.5412 212.523 11.9114C212.336 12.2762 212.059 12.5605 211.695 12.7644C211.335 12.9683 210.895 13.0702 210.375 13.0702C209.854 13.0702 209.412 12.9683 209.047 12.7644C208.688 12.5605 208.411 12.2762 208.218 11.9114C208.03 11.5412 207.937 11.1067 207.937 10.6078V3.22059H205.506V10.8251C205.506 11.6888 205.705 12.4425 206.102 13.0863C206.504 13.73 207.068 14.2316 207.792 14.5911C208.521 14.9505 209.382 15.1302 210.375 15.1302Z" fill="#BDBDBD"/>
<path d="M219.596 14.8325H223.596C224.427 14.8325 225.141 14.6984 225.736 14.4301C226.337 14.1565 226.799 13.773 227.12 13.2794C227.448 12.7805 227.611 12.1931 227.611 11.5171V11.501C227.611 11.0075 227.496 10.5595 227.265 10.1571C227.04 9.7548 226.726 9.42755 226.324 9.17541C225.927 8.92327 225.471 8.77842 224.956 8.74087V8.59602C225.353 8.53701 225.71 8.38948 226.026 8.15343C226.343 7.91739 226.592 7.62233 226.774 7.26826C226.962 6.91419 227.056 6.53329 227.056 6.12558V6.10948C227.056 5.514 226.911 5.00167 226.622 4.5725C226.337 4.13796 225.927 3.80534 225.39 3.57466C224.859 3.33862 224.215 3.22059 223.459 3.22059H219.596V5.02313H222.839C223.419 5.02313 223.867 5.15725 224.183 5.42548C224.505 5.68835 224.666 6.05584 224.666 6.52793V6.54402C224.666 7.02148 224.492 7.39165 224.143 7.65452C223.794 7.91739 223.293 8.04882 222.638 8.04882H219.596V9.65019H222.92C223.397 9.65019 223.8 9.71456 224.127 9.84331C224.46 9.9667 224.709 10.1518 224.875 10.3986C225.047 10.6453 225.133 10.9484 225.133 11.3079V11.324C225.133 11.8765 224.948 12.2977 224.578 12.5874C224.213 12.8771 223.679 13.0219 222.976 13.0219H219.596V14.8325ZM218.381 14.8325H220.812V3.22059H218.381V14.8325Z" fill="#BDBDBD"/>
<path d="M230.138 14.8325H237.734V12.8288H232.568V3.22059H230.138V14.8325Z" fill="#BDBDBD"/>
<path d="M240.269 14.8325H242.699V3.22059H240.269V14.8325Z" fill="#BDBDBD"/>
<path d="M250.778 15.1302C251.717 15.1302 252.548 14.9586 253.272 14.6152C253.997 14.2665 254.581 13.7864 255.027 13.1748C255.472 12.5632 255.737 11.8524 255.823 11.0423V10.9458H253.457L253.441 11.0182C253.361 11.4313 253.197 11.7934 252.951 12.1045C252.709 12.4103 252.403 12.6491 252.033 12.8207C251.668 12.987 251.253 13.0702 250.786 13.0702C250.174 13.0702 249.646 12.9066 249.201 12.5793C248.755 12.2521 248.412 11.7853 248.171 11.1791C247.934 10.5729 247.816 9.85673 247.816 9.03056V9.01447C247.816 8.18294 247.934 7.46675 248.171 6.86591C248.412 6.25969 248.755 5.79565 249.201 5.47377C249.646 5.14652 250.172 4.9829 250.778 4.9829C251.239 4.9829 251.655 5.0741 252.025 5.2565C252.401 5.4389 252.712 5.6964 252.959 6.02901C253.205 6.35626 253.369 6.73715 253.449 7.17169L253.457 7.22802H255.815V7.12341C255.74 6.30798 255.477 5.58374 255.027 4.95071C254.576 4.31767 253.983 3.82144 253.248 3.462C252.519 3.10257 251.695 2.92285 250.778 2.92285C249.651 2.92285 248.68 3.16963 247.865 3.66318C247.055 4.15137 246.43 4.85146 245.99 5.76346C245.55 6.67546 245.33 7.75913 245.33 9.01447V9.03056C245.33 10.2859 245.55 11.3696 245.99 12.2816C246.43 13.1936 247.057 13.8963 247.873 14.3899C248.688 14.8834 249.657 15.1302 250.778 15.1302Z" fill="#BDBDBD"/>
<path d="M262.968 14.8325H270.565V12.8288H265.399V3.22059H262.968V14.8325Z" fill="#BDBDBD"/>
<path d="M273.099 14.8325H275.53V3.22059H273.099V14.8325Z" fill="#BDBDBD"/>
<path d="M279.891 14.8325H283.89C284.722 14.8325 285.435 14.6984 286.031 14.4301C286.631 14.1565 287.093 13.773 287.415 13.2794C287.742 12.7805 287.906 12.1931 287.906 11.5171V11.501C287.906 11.0075 287.79 10.5595 287.56 10.1571C287.334 9.7548 287.02 9.42755 286.618 9.17541C286.221 8.92327 285.765 8.77842 285.25 8.74087V8.59602C285.647 8.53701 286.004 8.38948 286.32 8.15343C286.637 7.91739 286.886 7.62233 287.069 7.26826C287.256 6.91419 287.35 6.53329 287.35 6.12558V6.10948C287.35 5.514 287.206 5.00167 286.916 4.5725C286.631 4.13796 286.221 3.80534 285.685 3.57466C285.154 3.33862 284.51 3.22059 283.753 3.22059H279.891V5.02313H283.134C283.713 5.02313 284.161 5.15725 284.478 5.42548C284.799 5.68835 284.96 6.05584 284.96 6.52793V6.54402C284.96 7.02148 284.786 7.39165 284.437 7.65452C284.089 7.91739 283.587 8.04882 282.933 8.04882H279.891V9.65019H283.214C283.692 9.65019 284.094 9.71456 284.421 9.84331C284.754 9.9667 285.003 10.1518 285.17 10.3986C285.341 10.6453 285.427 10.9484 285.427 11.3079V11.324C285.427 11.8765 285.242 12.2977 284.872 12.5874C284.507 12.8771 283.973 13.0219 283.271 13.0219H279.891V14.8325ZM278.676 14.8325H281.106V3.22059H278.676V14.8325Z" fill="#BDBDBD"/>
<path d="M290.432 14.8325H292.862V10.5836H294.737C294.753 10.5836 294.772 10.5836 294.794 10.5836C294.815 10.5836 294.834 10.5836 294.85 10.5836L297.015 14.8325H299.767L297.32 10.2215C297.986 9.95866 298.501 9.53216 298.865 8.94204C299.236 8.34656 299.421 7.67598 299.421 6.93028V6.91419C299.421 6.1524 299.257 5.49523 298.93 4.94266C298.608 4.3901 298.136 3.96629 297.513 3.67123C296.897 3.3708 296.148 3.22059 295.268 3.22059H290.432V14.8325ZM292.862 8.81329V5.1197H294.971C295.582 5.1197 296.062 5.286 296.411 5.61861C296.76 5.95122 296.934 6.39918 296.934 6.96247V6.97856C296.934 7.55259 296.762 8.00322 296.419 8.33047C296.081 8.65235 295.609 8.81329 295.003 8.81329H292.862Z" fill="#BDBDBD"/>
<path d="M301.376 14.8325H303.927L306.767 5.53814H307.475V3.22059H305.407L301.376 14.8325ZM303.532 12.016H310.091L309.495 10.1974H304.128L303.532 12.016ZM309.745 14.8325H312.304L308.264 3.22059H306.912V5.53814L309.745 14.8325Z" fill="#BDBDBD"/>
<path d="M314.605 14.8325H317.035V10.5836H318.91C318.926 10.5836 318.945 10.5836 318.966 10.5836C318.988 10.5836 319.007 10.5836 319.023 10.5836L321.187 14.8325H323.939L321.493 10.2215C322.158 9.95866 322.673 9.53216 323.038 8.94204C323.408 8.34656 323.593 7.67598 323.593 6.93028V6.91419C323.593 6.1524 323.43 5.49523 323.102 4.94266C322.781 4.3901 322.308 3.96629 321.686 3.67123C321.069 3.3708 320.321 3.22059 319.441 3.22059H314.605V14.8325ZM317.035 8.81329V5.1197H319.143C319.755 5.1197 320.235 5.286 320.584 5.61861C320.932 5.95122 321.107 6.39918 321.107 6.96247V6.97856C321.107 7.55259 320.935 8.00322 320.592 8.33047C320.254 8.65235 319.782 8.81329 319.175 8.81329H317.035Z" fill="#BDBDBD"/>
<path d="M329.218 14.8325H331.648V10.4951L335.696 3.22059H333.064L330.513 8.10515H330.369L327.81 3.22059H325.178L329.218 10.4951V14.8325Z" fill="#BDBDBD"/>
<path d="M57.707 40.1024H64.8399C66.7026 40.1024 68.2905 39.7333 69.6038 38.9952C70.9171 38.257 71.9213 37.1883 72.6166 35.7892C73.3205 34.3901 73.6724 32.7034 73.6724 30.7292V30.7035C73.6724 28.7464 73.3205 27.0855 72.6166 25.7208C71.9213 24.356 70.9128 23.3174 69.5909 22.6049C68.2776 21.8839 66.694 21.5234 64.8399 21.5234H57.707V40.1024ZM61.5954 36.8965V24.7294H64.3507C65.4837 24.7294 66.4493 24.9611 67.2476 25.4246C68.0459 25.8881 68.6553 26.5662 69.0759 27.4589C69.4965 28.3516 69.7068 29.4417 69.7068 30.7292V30.755C69.7068 32.094 69.5008 33.2185 69.0888 34.1283C68.6768 35.0382 68.0716 35.7291 67.2734 36.2012C66.4837 36.6647 65.5094 36.8965 64.3507 36.8965H61.5954Z" fill="white"/>
<path d="M77.4567 40.1024H81.345V21.5234H77.4567V40.1024Z" fill="white"/>
<path d="M94.0519 40.4501C95.3394 40.4501 96.4939 40.2655 97.5153 39.8964C98.5368 39.5273 99.4037 38.9909 100.116 38.287C100.829 37.5832 101.369 36.7334 101.738 35.7377C102.116 34.7334 102.305 33.6047 102.305 32.3515V30.1756H94.3094V33.0597H98.5196L98.5067 33.3429C98.4724 34.1069 98.2664 34.7764 97.8887 35.3515C97.5196 35.9266 97.0089 36.3729 96.3566 36.6905C95.7128 36.9995 94.9703 37.154 94.1291 37.154C93.3566 37.154 92.6571 37.0081 92.0305 36.7162C91.4124 36.4244 90.8846 36.0038 90.4468 35.4545C90.009 34.8965 89.67 34.2227 89.4297 33.433C89.1979 32.6348 89.082 31.7335 89.082 30.7292V30.7164C89.082 29.4031 89.2794 28.2829 89.6743 27.3559C90.0691 26.4203 90.6313 25.7079 91.3609 25.2186C92.0905 24.7208 92.9661 24.4719 93.9875 24.4719C95.0433 24.4719 95.9317 24.7251 96.6527 25.2315C97.3823 25.7293 97.8973 26.4289 98.1977 27.3302L98.2363 27.4718H102.138L102.099 27.2915C101.902 26.107 101.442 25.0555 100.721 24.1371C100 23.2187 99.0647 22.4976 97.9145 21.974C96.7729 21.4419 95.4596 21.1758 93.9746 21.1758C92.1635 21.1758 90.5927 21.562 89.2623 22.3346C87.9404 23.0985 86.919 24.1972 86.198 25.6306C85.4769 27.0555 85.1164 28.7636 85.1164 30.755V30.7679C85.1164 32.2786 85.3224 33.6348 85.7345 34.8365C86.1465 36.0296 86.7387 37.0467 87.5112 37.8879C88.2838 38.7205 89.2194 39.3557 90.3181 39.7934C91.4253 40.2312 92.6699 40.4501 94.0519 40.4501Z" fill="white"/>
<path d="M106.141 40.1024H110.029V21.5234H106.141V40.1024Z" fill="white"/>
<path d="M118.886 40.1024H122.775V24.7294H128.182V21.5234H113.479V24.7294H118.886V40.1024Z" fill="white"/>
<path d="M127.988 40.1024H132.082L136.705 25.1542H137.889V21.5234H134.477L127.988 40.1024ZM131.477 35.5961H142.035L141.082 32.6863H132.43L131.477 35.5961ZM141.443 40.1024H145.524L139.048 21.5234H136.82V25.1542L141.443 40.1024Z" fill="white"/>
<path d="M148.703 40.1024H160.742V36.8965H152.592V21.5234H148.703V40.1024Z" fill="white"/>
<path d="M179.087 40.4501C180.589 40.4501 181.924 40.1625 183.091 39.5874C184.267 39.0123 185.216 38.2184 185.937 37.2055C186.658 36.1926 187.078 35.0296 187.198 33.7163L187.211 33.5875H183.426L183.4 33.7034C183.237 34.4244 182.958 35.0425 182.563 35.5575C182.168 36.0725 181.679 36.4673 181.095 36.742C180.512 37.0167 179.847 37.154 179.1 37.154C178.113 37.154 177.254 36.9008 176.525 36.3944C175.795 35.8793 175.233 35.1455 174.838 34.1927C174.443 33.2399 174.246 32.1112 174.246 30.8065V30.7936C174.246 29.4803 174.443 28.3559 174.838 27.4203C175.233 26.4761 175.791 25.7508 176.512 25.2444C177.241 24.7294 178.1 24.4719 179.087 24.4719C179.859 24.4719 180.538 24.6135 181.121 24.8967C181.713 25.18 182.198 25.5791 182.576 26.0941C182.962 26.6006 183.224 27.1971 183.362 27.8838L183.413 28.0769H187.198L187.185 27.9482C187.065 26.6349 186.645 25.4718 185.924 24.459C185.211 23.4375 184.267 22.635 183.091 22.0513C181.924 21.4676 180.589 21.1758 179.087 21.1758C177.284 21.1758 175.722 21.562 174.4 22.3346C173.078 23.1071 172.057 24.2101 171.336 25.6435C170.624 27.077 170.267 28.7937 170.267 30.7936V30.8065C170.267 32.8064 170.624 34.5274 171.336 35.9695C172.057 37.4029 173.078 38.5102 174.4 39.2913C175.722 40.0638 177.284 40.4501 179.087 40.4501Z" fill="white"/>
<path d="M199.21 40.4501C201.055 40.4501 202.643 40.0595 203.974 39.2784C205.313 38.4973 206.343 37.3858 207.064 35.9437C207.793 34.5017 208.158 32.7936 208.158 30.8194V30.7936C208.158 28.8194 207.793 27.1156 207.064 25.6821C206.343 24.2401 205.313 23.1285 203.974 22.3474C202.635 21.5663 201.047 21.1758 199.21 21.1758C197.382 21.1758 195.798 21.5663 194.459 22.3474C193.12 23.1285 192.081 24.2401 191.343 25.6821C190.614 27.1156 190.249 28.8194 190.249 30.7936V30.8194C190.249 32.7936 190.614 34.5017 191.343 35.9437C192.073 37.3858 193.107 38.4973 194.446 39.2784C195.785 40.0595 197.373 40.4501 199.21 40.4501ZM199.21 37.154C198.189 37.154 197.304 36.8965 196.558 36.3815C195.811 35.8665 195.231 35.1369 194.819 34.1927C194.416 33.2399 194.214 32.1155 194.214 30.8194V30.7936C194.214 29.4889 194.42 28.3645 194.832 27.4203C195.244 26.4761 195.824 25.7508 196.571 25.2444C197.317 24.7294 198.197 24.4719 199.21 24.4719C200.223 24.4719 201.103 24.7294 201.849 25.2444C202.596 25.7594 203.171 26.489 203.575 27.4332C203.987 28.3774 204.193 29.4975 204.193 30.7936V30.8194C204.193 32.1069 203.991 33.227 203.588 34.1798C203.184 35.124 202.609 35.8579 201.862 36.3815C201.124 36.8965 200.24 37.154 199.21 37.154Z" fill="white"/>
<path d="M211.943 40.1024H223.981V36.8965H215.831V21.5234H211.943V40.1024Z" fill="white"/>
<path d="M227.572 40.1024H239.611V36.8965H231.46V21.5234H227.572V40.1024Z" fill="white"/>
<path d="M243.202 40.1024H255.51V36.8965H247.09V32.2228H255.034V29.1971H247.09V24.7294H255.51V21.5234H243.202V40.1024Z" fill="white"/>
<path d="M267.792 40.4501C269.295 40.4501 270.629 40.1625 271.797 39.5874C272.973 39.0123 273.921 38.2184 274.642 37.2055C275.363 36.1926 275.784 35.0296 275.904 33.7163L275.917 33.5875H272.131L272.106 33.7034C271.943 34.4244 271.664 35.0425 271.269 35.5575C270.874 36.0725 270.385 36.4673 269.801 36.742C269.217 37.0167 268.552 37.154 267.805 37.154C266.818 37.154 265.96 36.9008 265.23 36.3944C264.501 35.8793 263.938 35.1455 263.544 34.1927C263.149 33.2399 262.951 32.1112 262.951 30.8065V30.7936C262.951 29.4803 263.149 28.3559 263.544 27.4203C263.938 26.4761 264.496 25.7508 265.217 25.2444C265.947 24.7294 266.805 24.4719 267.792 24.4719C268.565 24.4719 269.243 24.6135 269.827 24.8967C270.419 25.18 270.904 25.5791 271.282 26.0941C271.668 26.6006 271.93 27.1971 272.067 27.8838L272.119 28.0769H275.904L275.891 27.9482C275.771 26.6349 275.35 25.4718 274.629 24.459C273.917 23.4375 272.973 22.635 271.797 22.0513C270.629 21.4676 269.295 21.1758 267.792 21.1758C265.99 21.1758 264.428 21.562 263.106 22.3346C261.784 23.1071 260.763 24.2101 260.042 25.6435C259.329 27.077 258.973 28.7937 258.973 30.7936V30.8065C258.973 32.8064 259.329 34.5274 260.042 35.9695C260.763 37.4029 261.784 38.5102 263.106 39.2913C264.428 40.0638 265.99 40.4501 267.792 40.4501Z" fill="white"/>
<path d="M283.499 40.1024H287.388V24.7294H292.795V21.5234H278.092V24.7294H283.499V40.1024Z" fill="white"/>
<path d="M296.245 40.1024H300.133V21.5234H296.245V40.1024Z" fill="white"/>
<path d="M312.866 40.4501C314.711 40.4501 316.299 40.0595 317.63 39.2784C318.969 38.4973 319.999 37.3858 320.72 35.9437C321.449 34.5017 321.814 32.7936 321.814 30.8194V30.7936C321.814 28.8194 321.449 27.1156 320.72 25.6821C319.999 24.2401 318.969 23.1285 317.63 22.3474C316.29 21.5663 314.703 21.1758 312.866 21.1758C311.037 21.1758 309.454 21.5663 308.115 22.3474C306.776 23.1285 305.737 24.2401 304.999 25.6821C304.269 27.1156 303.904 28.8194 303.904 30.7936V30.8194C303.904 32.7936 304.269 34.5017 304.999 35.9437C305.728 37.3858 306.763 38.4973 308.102 39.2784C309.441 40.0595 311.029 40.4501 312.866 40.4501ZM312.866 37.154C311.844 37.154 310.96 36.8965 310.213 36.3815C309.467 35.8665 308.887 35.1369 308.475 34.1927C308.072 33.2399 307.87 32.1155 307.87 30.8194V30.7936C307.87 29.4889 308.076 28.3645 308.488 27.4203C308.9 26.4761 309.479 25.7508 310.226 25.2444C310.973 24.7294 311.853 24.4719 312.866 24.4719C313.879 24.4719 314.758 24.7294 315.505 25.2444C316.252 25.7594 316.827 26.489 317.23 27.4332C317.642 28.3774 317.848 29.4975 317.848 30.7936V30.8194C317.848 32.1069 317.647 33.227 317.243 34.1798C316.84 35.124 316.265 35.8579 315.518 36.3815C314.78 36.8965 313.896 37.154 312.866 37.154Z" fill="white"/>
<path d="M325.598 40.1024H329.448V27.9868H331.135L327.98 25.7336L337.997 40.1024H341.345V21.5234H337.495V33.5618H335.808L338.976 35.8278L328.972 21.5234H325.598V40.1024Z" fill="white"/>
<path d="M352.519 40.4501C354.082 40.4501 355.421 40.214 356.537 39.7419C357.652 39.2613 358.507 38.5832 359.099 37.7076C359.7 36.8235 360 35.7849 360 34.5918V34.5789C360 33.609 359.803 32.7807 359.408 32.094C359.013 31.3988 358.399 30.8237 357.567 30.3687C356.734 29.9138 355.665 29.5576 354.361 29.3001L352.404 28.9009C351.331 28.6778 350.545 28.3859 350.047 28.0254C349.55 27.6649 349.301 27.1885 349.301 26.5963V26.5834C349.301 26.1371 349.429 25.7465 349.687 25.4117C349.953 25.077 350.322 24.8152 350.794 24.6264C351.275 24.4289 351.841 24.3302 352.494 24.3302C353.146 24.3302 353.717 24.4246 354.206 24.6135C354.704 24.8023 355.103 25.0684 355.404 25.4117C355.704 25.7551 355.889 26.1714 355.957 26.6606L355.97 26.8152H359.639L359.627 26.5834C359.567 25.5105 359.24 24.5663 358.648 23.7508C358.064 22.9354 357.253 22.3045 356.215 21.8582C355.176 21.4032 353.936 21.1758 352.494 21.1758C351.129 21.1758 349.91 21.4118 348.837 21.8839C347.773 22.356 346.936 23.0169 346.326 23.8667C345.726 24.7079 345.421 25.695 345.412 26.828V26.8409C345.412 28.24 345.872 29.3816 346.79 30.2657C347.708 31.1498 349.09 31.7764 350.936 32.1455L352.906 32.5447C354.056 32.7764 354.876 33.0725 355.365 33.433C355.863 33.7936 356.112 34.2828 356.112 34.9008V34.9137C356.112 35.3858 355.97 35.8021 355.687 36.1626C355.404 36.5231 355 36.8021 354.477 36.9995C353.953 37.1969 353.331 37.2956 352.61 37.2956C351.906 37.2956 351.275 37.1969 350.717 36.9995C350.168 36.8021 349.717 36.5317 349.365 36.1884C349.022 35.8364 348.811 35.4244 348.734 34.9523L348.708 34.8107H345.026L345.039 35.0167C345.116 36.1497 345.464 37.124 346.082 37.9394C346.708 38.7462 347.567 39.3685 348.657 39.8063C349.756 40.2355 351.043 40.4501 352.519 40.4501Z" fill="white"/>
</svg>
