<svg viewBox="0 0 312 88" fill="#436CF2" xmlns="http://www.w3.org/2000/svg">
<path fill-rule="evenodd" clip-rule="evenodd" d="M0 44.2746C0 20.3424 17.6673 0.92041 42.9935 0.92041C58.5248 0.92041 67.8314 6.1671 75.4903 13.7763L63.9562 27.2459C57.6094 21.4162 51.1101 17.8264 42.8714 17.8264C28.9878 17.8264 18.9489 29.4857 18.9489 43.7837C18.9489 58.3272 28.7132 70.2319 42.8714 70.2319C52.3001 70.2319 58.0671 66.4273 64.536 60.4749L76.0701 72.257C67.5873 81.431 58.1587 87.1379 42.2612 87.1379C18.0029 87.1379 0 68.2069 0 44.2746Z"/>
<path fill-rule="evenodd" clip-rule="evenodd" d="M77.7183 0H95.6297V86.9539H77.7183V0Z"/>
<path fill-rule="evenodd" clip-rule="evenodd" d="M128.828 35.2234C121.413 35.2234 116.592 40.5928 115.158 48.8157H142.132C141.094 40.6849 136.365 35.2234 128.828 35.2234ZM159.342 60.1068H115.402C117.172 68.3297 122.817 72.6252 130.842 72.6252C136.853 72.6252 141.217 70.7229 146.16 66.0592L156.412 75.2332C150.523 82.6277 142.04 87.138 130.628 87.138C111.68 87.138 97.6433 73.6684 97.6433 54.1544V53.909C97.6433 35.6836 110.489 20.6799 128.859 20.6799C149.943 20.6799 159.586 37.2484 159.586 55.351V55.5965C159.586 57.3761 159.464 58.45 159.342 60.1068Z"/>
<path fill-rule="evenodd" clip-rule="evenodd" d="M193.638 86.8005H177.374L152.536 22.4902H171.485L185.612 65.2615L199.862 22.4902H218.476L193.638 86.8005Z"/>
<path fill-rule="evenodd" clip-rule="evenodd" d="M241.665 35.2234C234.25 35.2234 229.429 40.5928 227.995 48.8157H254.969C253.931 40.6849 249.202 35.2234 241.665 35.2234ZM272.178 60.1068H228.239C230.009 68.3297 235.654 72.6252 243.679 72.6252C249.69 72.6252 254.053 70.7229 258.997 66.0592L269.249 75.2332C263.36 82.6277 254.877 87.138 243.465 87.138C224.516 87.138 210.48 73.6684 210.48 54.1544V53.909C210.48 35.6836 223.326 20.6799 241.696 20.6799C262.78 20.6799 272.423 37.2484 272.423 55.351V55.5965C272.423 57.3761 272.301 58.45 272.178 60.1068Z"/>
<path fill-rule="evenodd" clip-rule="evenodd" d="M311.054 40.8691C299.154 40.8691 291.861 48.1408 291.861 63.39V86.9848H273.95V23.104H291.861V35.9599C295.523 27.1541 301.412 21.4165 312 21.9074V40.8384H311.054"/>
</svg>
