<svg viewBox="0 0 200 67" fill="none" xmlns="http://www.w3.org/2000/svg">
<path d="M184.072 0H12.569C11.4488 0.01722 10.3314 0.117782 9.22616 0.300852C8.12109 0.491823 7.05074 0.846731 6.0505 1.35384C5.04367 1.86174 4.12857 2.53394 3.34282 3.3428C2.53991 4.12984 1.87341 5.04487 1.37057 6.05048C0.863464 7.05072 0.508556 8.12107 0.317586 9.22614C0.131064 10.3307 0.0360291 11.4488 0.0334473 12.5689C0.0334473 13.0871 0.0334473 13.6052 0.0334473 14.1066V52.7495C0.0334473 53.2676 0.0334473 53.769 0.0334473 54.2871C0.0360291 55.4073 0.131064 56.5254 0.317586 57.6299C0.508403 58.7404 0.863278 59.8163 1.37057 60.8223C1.87808 61.8201 2.54415 62.7289 3.34282 63.5133C4.12986 64.3162 5.04489 64.9827 6.0505 65.4855C7.05074 65.9926 8.12109 66.3475 9.22616 66.5385C10.3314 66.7216 11.4488 66.8222 12.569 66.8394H187.431C188.551 66.8229 189.669 66.7223 190.774 66.5385C191.884 66.3451 192.959 65.9903 193.966 65.4855C194.969 64.9783 195.884 64.3123 196.674 63.5133C197.462 62.7201 198.127 61.813 198.646 60.8223C199.141 59.8125 199.49 58.7377 199.682 57.6299C199.866 56.5248 199.967 55.4074 199.983 54.2871C199.983 53.769 199.983 53.2676 199.983 52.7495V14.1066C199.983 13.6052 199.983 13.0871 199.983 12.5689C199.967 11.4487 199.866 10.3313 199.682 9.22614C199.49 8.12375 199.141 7.05445 198.646 6.05048C198.132 5.05195 197.467 4.13867 196.674 3.3428C195.884 2.54379 194.969 1.87778 193.966 1.37055C192.959 0.865743 191.884 0.510992 190.774 0.317566C189.669 0.133753 188.551 0.0331862 187.431 0.016714H184.088L184.072 0Z" fill="black"/>
<path d="M14.1065 65.3853H12.6023C11.5567 65.4034 10.5114 65.3363 9.47674 65.1847C8.50102 64.9933 7.55993 64.6552 6.6855 64.1819C5.8234 63.758 5.03817 63.1931 4.36225 62.5104C3.67881 61.8289 3.11392 61.038 2.69085 60.1705C2.24572 59.2975 1.93576 58.362 1.77157 57.396C1.60165 56.3626 1.51224 55.3176 1.50415 54.2704C1.50415 53.9194 1.50415 52.7327 1.50415 52.7327V14.1066C1.50415 14.1066 1.50415 12.9534 1.50415 12.6191C1.51156 11.5719 1.60097 10.5268 1.77157 9.49357C1.92457 8.51634 2.22909 7.56896 2.67413 6.68561C3.09361 5.81593 3.65891 5.0245 4.34553 4.34565C5.03337 3.66964 5.82295 3.10565 6.6855 2.67424C7.55847 2.22912 8.49398 1.91916 9.46003 1.75497C10.4989 1.58418 11.5495 1.49477 12.6023 1.48755H187.414C188.456 1.49636 189.495 1.58577 190.523 1.75497C191.494 1.92267 192.434 2.23242 193.314 2.67424C195.048 3.55125 196.458 4.9558 197.342 6.68561C197.777 7.55553 198.081 8.48479 198.245 9.44342C198.412 10.483 198.507 11.533 198.529 12.5857V14.0732C198.529 14.7083 198.529 15.31 198.529 15.9117V50.9109C198.529 51.5293 198.529 52.1143 198.529 52.716V54.2704C198.508 55.3066 198.413 56.3398 198.245 57.3625C198.086 58.333 197.782 59.274 197.342 60.1538C196.912 61.0119 196.348 61.7961 195.671 62.477C194.989 63.1605 194.199 63.7253 193.331 64.1484C192.462 64.6408 191.52 64.9907 190.54 65.1847C189.507 65.3587 188.462 65.4481 187.414 65.4521H14.1065V65.3853Z" fill="white"/>
<path d="M41.7851 33.2441C41.8036 31.793 42.1887 30.37 42.9047 29.1077C43.6206 27.8453 44.6441 26.7844 45.88 26.0237C45.094 24.9038 44.058 23.9824 42.854 23.3325C41.65 22.6826 40.3112 22.3222 38.9437 22.2797C36.0187 21.9621 33.1941 23.9511 31.7065 23.9511C30.219 23.9511 27.8957 22.2797 25.4388 22.2797C23.8436 22.3329 22.289 22.7961 20.9248 23.6245C19.5606 24.453 18.4328 25.6189 17.65 27.0098C14.3072 32.843 16.7976 41.3838 20.0234 46.0972C21.6948 48.4037 23.5167 50.961 25.9736 50.8774C28.4306 50.7938 29.3164 49.3397 32.2079 49.3397C35.0995 49.3397 35.9352 50.8774 38.4423 50.8273C40.9494 50.7771 42.6542 48.504 44.2086 46.1808C45.3448 44.5615 46.219 42.7735 46.7993 40.8824C45.3122 40.2334 44.0463 39.1656 43.1559 37.8092C42.2655 36.4528 41.7892 34.8666 41.7851 33.2441Z" fill="black"/>
<path d="M37.0382 19.1878C38.4395 17.4894 39.1338 15.3169 38.977 13.1206C36.832 13.3483 34.8512 14.3745 33.428 15.9954C32.0171 17.6054 31.3018 19.709 31.439 21.8453C32.5114 21.8482 33.5709 21.611 34.5398 21.1511C35.5086 20.6913 36.3623 20.0205 37.0382 19.1878Z" fill="black"/>
<path d="M70.7003 45.3619H62.7946L60.8892 50.9778H57.5464L65.0343 30.219H68.5275L76.0154 50.9778H72.6726L70.7003 45.3619ZM63.6136 42.7712H69.8813L66.8561 33.6621H66.7725L63.6136 42.7712Z" fill="black"/>
<path d="M92.1945 43.4565C92.1945 48.1532 89.6707 51.1784 85.8767 51.1784C84.9086 51.2193 83.9486 50.9871 83.1062 50.5083C82.2639 50.0295 81.5732 49.3234 81.1132 48.4707V55.9586H77.9375V35.9018H80.946V38.4423C81.4346 37.6019 82.1417 36.9094 82.9921 36.4386C83.8426 35.9677 84.8048 35.736 85.7764 35.7681C89.654 35.6845 92.1945 38.7097 92.1945 43.4565ZM89.0022 43.4565C89.0022 40.3978 87.3308 38.4423 85.0075 38.4423C82.6843 38.4423 81.0296 40.4981 81.0296 43.4565C81.0296 46.4149 82.701 48.5543 85.0075 48.5543C87.3141 48.5543 89.0022 46.4985 89.0022 43.4565Z" fill="black"/>
<path d="M108.842 43.4565C108.842 48.1531 106.335 51.1784 102.54 51.1784C101.572 51.2213 100.611 50.9899 99.7686 50.5109C98.9259 50.0319 98.2355 49.3247 97.777 48.4707V55.9586H94.6013V35.9017H97.5931V38.4423C98.0803 37.6044 98.7848 36.9136 99.632 36.4429C100.479 35.9722 101.438 35.739 102.407 35.768C106.318 35.6845 108.842 38.7097 108.842 43.4565ZM105.649 43.4565C105.649 40.3978 104.078 38.4423 101.655 38.4423C99.2311 38.4423 97.6934 40.4981 97.6934 43.4565C97.6934 46.4149 99.2812 48.4707 101.655 48.4707C104.028 48.4707 105.649 46.4984 105.649 43.4565Z" fill="black"/>
<path d="M119.856 45.1277C120.09 47.1836 122.079 48.4705 124.871 48.4705C127.662 48.4705 129.367 47.1167 129.367 45.2615C129.367 43.4062 128.23 42.6875 125.539 42.0189L122.848 41.3671C119.037 40.4478 117.266 38.6761 117.266 35.7846C117.266 32.1911 120.391 29.7341 124.82 29.7341C129.25 29.7341 132.225 32.1911 132.325 35.7846H129.133C128.949 33.7121 127.227 32.4418 124.737 32.4418C122.246 32.4418 120.525 33.6954 120.525 35.5506C120.525 37.0047 121.611 37.8739 124.286 38.5424L126.575 39.094C130.837 40.0968 132.592 41.8184 132.592 44.8436C132.592 48.738 129.5 51.1615 124.586 51.1615C119.99 51.1615 116.881 48.7881 116.681 45.0442L119.856 45.1277Z" fill="black"/>
<path d="M139.311 32.2581V35.8349H142.186V38.2918H139.311V46.6488C139.311 47.9358 139.88 48.5375 141.15 48.5375C141.489 48.5583 141.83 48.5583 142.169 48.5375V50.9778C141.618 51.0816 141.059 51.132 140.498 51.1282C137.423 51.1282 136.236 49.9749 136.236 47.0333V38.2918H133.979V35.8349H136.186V32.2581H139.311Z" fill="black"/>
<path d="M143.841 43.4565C143.841 38.693 146.649 35.7012 151.028 35.7012C155.407 35.7012 158.198 38.693 158.198 43.4565C158.198 48.22 155.44 51.1616 151.028 51.1616C146.615 51.1616 143.841 48.1865 143.841 43.4565ZM155.039 43.4565C155.039 40.1972 153.535 38.2584 151.028 38.2584C148.521 38.2584 147.083 40.1137 147.083 43.4565C147.083 46.7993 148.571 48.6545 151.095 48.6545C153.619 48.6545 155.039 46.6823 155.039 43.4565Z" fill="black"/>
<path d="M160.772 35.8349H163.797V38.4423C164 37.6391 164.473 36.93 165.136 36.434C165.8 35.9379 166.613 35.6851 167.441 35.7179C167.796 35.7119 168.15 35.7512 168.494 35.8349V38.7432C168.065 38.5606 167.606 38.4586 167.14 38.4423C166.673 38.4081 166.205 38.4786 165.769 38.6487C165.333 38.8187 164.94 39.0841 164.62 39.4253C164.3 39.7664 164.059 40.1749 163.917 40.6208C163.775 41.0667 163.734 41.5387 163.797 42.0024V50.9778H160.772V35.8349Z" fill="black"/>
<path d="M182.818 46.532C182.4 49.2731 179.726 51.1617 176.3 51.1617C171.904 51.1617 169.179 48.2034 169.179 43.4733C169.179 38.7432 171.921 35.6511 176.183 35.6511C180.445 35.6511 183.002 38.5259 183.002 43.1223V44.1753H172.305V44.3758C172.257 44.9327 172.328 45.4933 172.514 46.0206C172.699 46.5479 172.994 47.0298 173.38 47.4344C173.765 47.8389 174.233 48.1569 174.75 48.3673C175.268 48.5777 175.825 48.6756 176.383 48.6546C177.116 48.7231 177.852 48.5536 178.481 48.1712C179.11 47.7889 179.599 47.2141 179.876 46.532H182.818ZM172.322 42.0024H179.893C179.918 41.503 179.841 41.0038 179.665 40.5357C179.489 40.0676 179.218 39.6408 178.87 39.2817C178.522 38.9227 178.104 38.6391 177.642 38.4487C177.179 38.2583 176.683 38.1651 176.183 38.1749C175.677 38.1705 175.176 38.2663 174.708 38.4566C174.239 38.647 173.813 38.9282 173.455 39.2841C173.096 39.64 172.811 40.0634 172.616 40.53C172.422 40.9965 172.322 41.497 172.322 42.0024Z" fill="black"/>
<path d="M63.2291 14.5912C63.8849 14.545 64.5427 14.6459 65.1545 14.8866C65.7663 15.1272 66.3165 15.5015 66.7651 15.9821C67.2136 16.4627 67.5491 17.0374 67.7471 17.6643C67.945 18.2912 68.0003 18.9544 67.9091 19.6054C67.9091 22.7811 66.2377 24.6197 63.2291 24.6197H59.6189V14.5912H63.2291ZM61.1733 23.1488H63.0453C63.5144 23.1867 63.9861 23.1181 64.4251 22.9482C64.864 22.7783 65.2589 22.5114 65.5803 22.1676C65.9017 21.8237 66.1413 21.4116 66.2811 20.9622C66.421 20.5128 66.4576 20.0376 66.3881 19.572C66.4543 19.107 66.4155 18.6331 66.2744 18.1851C66.1334 17.7372 65.8937 17.3265 65.573 16.9833C65.2523 16.6402 64.8587 16.3733 64.4213 16.2023C63.9839 16.0313 63.5137 15.9605 63.0453 15.9952H61.1733V23.1488Z" fill="black"/>
<path d="M69.6641 20.7922C69.6307 20.3052 69.6978 19.8167 69.8611 19.3568C70.0245 18.8969 70.2806 18.4755 70.6137 18.1187C70.9468 17.762 71.3497 17.4776 71.7973 17.2831C72.245 17.0886 72.7278 16.9883 73.2159 16.9883C73.7039 16.9883 74.1867 17.0886 74.6344 17.2831C75.082 17.4776 75.4849 17.762 75.818 18.1187C76.1511 18.4755 76.4072 18.8969 76.5706 19.3568C76.734 19.8167 76.801 20.3052 76.7676 20.7922C76.801 21.2791 76.734 21.7676 76.5706 22.2276C76.4072 22.6875 76.1511 23.1089 75.818 23.4656C75.4849 23.8223 75.082 24.1067 74.6344 24.3012C74.1867 24.4957 73.7039 24.596 73.2159 24.596C72.7278 24.596 72.245 24.4957 71.7973 24.3012C71.3497 24.1067 70.9468 23.8223 70.6137 23.4656C70.2806 23.1089 70.0245 22.6875 69.8611 22.2276C69.6978 21.7676 69.6307 21.2791 69.6641 20.7922ZM75.2299 20.7922C75.2299 19.1208 74.5112 18.2182 73.2242 18.2182C71.9372 18.2182 71.2018 19.1709 71.2018 20.7922C71.2018 22.4134 71.8704 23.3995 73.2242 23.3995C74.578 23.3995 75.2132 22.4301 75.2132 20.7922H75.2299Z" fill="black"/>
<path d="M86.1942 24.5695H84.6565L83.1021 19.0205H82.9851L81.4307 24.5695H79.9097L77.8372 17.0315H79.3414L80.6953 22.7811H80.7955L82.3499 17.0315H83.7706L85.325 22.7811H85.442L86.7792 17.0315H88.2667L86.1942 24.5695Z" fill="black"/>
<path d="M90.005 17.0316H91.4424V18.235H91.5594C91.7442 17.8046 92.0603 17.4436 92.4625 17.2034C92.8647 16.9633 93.3325 16.8564 93.7991 16.8979C94.165 16.8688 94.5329 16.9226 94.8751 17.0554C95.2174 17.1881 95.5253 17.3964 95.7759 17.6647C96.0266 17.933 96.2134 18.2543 96.3226 18.6049C96.4317 18.9554 96.4604 19.326 96.4064 19.6892V24.5696H94.9189V20.0569C94.9189 18.8367 94.3841 18.235 93.2475 18.235C92.9959 18.2122 92.7424 18.2467 92.5061 18.3359C92.2698 18.4251 92.0567 18.5667 91.883 18.7501C91.7092 18.9335 91.5793 19.1539 91.503 19.3947C91.4267 19.6355 91.406 19.8905 91.4424 20.1404V24.5696H89.9548L90.005 17.0316Z" fill="black"/>
<path d="M98.7632 14.1067H100.284V24.5697H98.7966L98.7632 14.1067Z" fill="black"/>
<path d="M102.323 20.7922C102.29 20.3052 102.357 19.8167 102.52 19.3568C102.684 18.8969 102.94 18.4755 103.273 18.1187C103.606 17.762 104.009 17.4776 104.456 17.2831C104.904 17.0886 105.387 16.9883 105.875 16.9883C106.363 16.9883 106.846 17.0886 107.294 17.2831C107.741 17.4776 108.144 17.762 108.477 18.1187C108.81 18.4755 109.066 18.8969 109.23 19.3568C109.393 19.8167 109.46 20.3052 109.427 20.7922C109.46 21.2791 109.393 21.7676 109.23 22.2276C109.066 22.6875 108.81 23.1089 108.477 23.4656C108.144 23.8223 107.741 24.1067 107.294 24.3012C106.846 24.4957 106.363 24.596 105.875 24.596C105.387 24.596 104.904 24.4957 104.456 24.3012C104.009 24.1067 103.606 23.8223 103.273 23.4656C102.94 23.1089 102.684 22.6875 102.52 22.2276C102.357 21.7676 102.29 21.2791 102.323 20.7922ZM107.889 20.7922C107.889 19.1208 107.154 18.2182 105.867 18.2182C104.58 18.2182 103.861 19.1709 103.861 20.7922C103.861 22.4134 104.58 23.3995 105.867 23.3995C107.154 23.3995 107.889 22.4301 107.889 20.7922Z" fill="black"/>
<path d="M110.981 22.4302C110.981 21.0763 111.984 20.3075 113.789 20.1905L115.828 20.0568V19.4049C115.828 18.6194 115.293 18.1681 114.274 18.1681C113.254 18.1681 112.87 18.4689 112.719 19.0038H111.265C111.432 17.7001 112.636 16.8811 114.341 16.8811C116.046 16.8811 117.299 17.8171 117.299 19.4049V24.5696H115.862V23.4999H115.745C115.51 23.8826 115.177 24.1949 114.78 24.4038C114.383 24.6127 113.936 24.7104 113.488 24.6866C113.172 24.7193 112.853 24.6853 112.55 24.5869C112.248 24.4885 111.97 24.3277 111.734 24.1151C111.497 23.9025 111.308 23.6427 111.179 23.3524C111.049 23.0622 110.982 22.748 110.981 22.4302ZM115.828 21.7282V21.093L113.99 21.21C112.953 21.21 112.469 21.6446 112.469 22.2964C112.469 22.9483 113.07 23.3661 113.873 23.3661C114.109 23.3914 114.349 23.3687 114.577 23.2994C114.805 23.2301 115.016 23.1156 115.199 22.9627C115.381 22.8098 115.531 22.6217 115.639 22.4095C115.747 22.1974 115.812 21.9657 115.828 21.7282Z" fill="black"/>
<path d="M119.255 20.7923C119.255 18.4189 120.475 16.9146 122.38 16.9146C122.85 16.8945 123.316 17.0078 123.724 17.2414C124.132 17.4751 124.466 17.8196 124.687 18.2351H124.787V14.1067H126.275V24.5697H124.854V23.3997H124.737C124.5 23.8109 124.155 24.1496 123.74 24.3794C123.325 24.6091 122.854 24.7211 122.38 24.7034C120.458 24.6867 119.255 23.1824 119.255 20.7923ZM120.792 20.7923C120.792 22.4637 121.544 23.3495 122.798 23.3495C124.052 23.3495 124.82 22.3801 124.82 20.809C124.82 19.2379 124.035 18.2518 122.798 18.2518C121.561 18.2518 120.792 19.2212 120.792 20.7923Z" fill="black"/>
<path d="M132.425 20.7922C132.392 20.3052 132.459 19.8167 132.622 19.3568C132.785 18.8969 133.042 18.4755 133.375 18.1187C133.708 17.762 134.111 17.4776 134.558 17.2831C135.006 17.0886 135.489 16.9883 135.977 16.9883C136.465 16.9883 136.948 17.0886 137.395 17.2831C137.843 17.4776 138.246 17.762 138.579 18.1187C138.912 18.4755 139.168 18.8969 139.332 19.3568C139.495 19.8167 139.562 20.3052 139.529 20.7922C139.562 21.2791 139.495 21.7676 139.332 22.2276C139.168 22.6875 138.912 23.1089 138.579 23.4656C138.246 23.8223 137.843 24.1067 137.395 24.3012C136.948 24.4957 136.465 24.596 135.977 24.596C135.489 24.596 135.006 24.4957 134.558 24.3012C134.111 24.1067 133.708 23.8223 133.375 23.4656C133.042 23.1089 132.785 22.6875 132.622 22.2276C132.459 21.7676 132.392 21.2791 132.425 20.7922ZM137.991 20.7922C137.991 19.1208 137.255 18.2182 135.985 18.2182C134.715 18.2182 133.963 19.1709 133.963 20.7922C133.963 22.4134 134.681 23.3995 135.985 23.3995C137.289 23.3995 137.991 22.4301 137.991 20.7922Z" fill="black"/>
<path d="M141.518 17.0316H142.938V18.235H143.055C143.247 17.8063 143.567 17.4476 143.971 17.2082C144.375 16.9688 144.843 16.8604 145.312 16.8979C145.676 16.8714 146.042 16.9272 146.382 17.0611C146.723 17.1951 147.028 17.4037 147.277 17.6717C147.526 17.9396 147.711 18.26 147.819 18.6092C147.927 18.9584 147.956 19.3275 147.902 19.6891V24.5696H146.431V20.0568C146.431 18.8367 145.897 18.235 144.76 18.235C144.51 18.2149 144.258 18.2513 144.024 18.3417C143.79 18.4321 143.579 18.5741 143.407 18.7572C143.235 18.9402 143.107 19.1596 143.032 19.3991C142.956 19.6386 142.936 19.892 142.972 20.1404V24.5696H141.484L141.518 17.0316Z" fill="black"/>
<path d="M156.31 15.1597V17.0818H157.981V18.3855H156.31V22.2631C156.31 23.0487 156.627 23.3997 157.363 23.3997H157.931V24.6365C157.664 24.6551 157.396 24.6551 157.129 24.6365C155.457 24.6365 154.822 24.0682 154.822 22.6141V18.3855H153.619V17.1486H154.822V15.1597H156.31Z" fill="black"/>
<path d="M159.953 14.1067H161.441V18.2518H161.558C161.748 17.8243 162.065 17.4654 162.465 17.2234C162.865 16.9813 163.33 16.8677 163.797 16.8979C164.162 16.8772 164.527 16.9375 164.865 17.0745C165.204 17.2115 165.508 17.4218 165.756 17.6902C166.003 17.9587 166.189 18.2787 166.298 18.6272C166.407 18.9757 166.438 19.3441 166.388 19.7059V24.5697H164.9V20.0569C164.9 18.8535 164.349 18.2518 163.229 18.2518C162.974 18.2316 162.717 18.2671 162.477 18.3558C162.236 18.4444 162.018 18.5841 161.837 18.7652C161.656 18.9463 161.516 19.1645 161.428 19.4049C161.339 19.6452 161.304 19.9018 161.324 20.1572V24.5697H159.953V14.1067Z" fill="black"/>
<path d="M175.096 22.5305C174.894 23.2344 174.444 23.8417 173.83 24.2408C173.216 24.64 172.479 24.8042 171.753 24.7033C171.254 24.7298 170.756 24.6442 170.294 24.4527C169.833 24.2612 169.42 23.9687 169.087 23.5967C168.753 23.2247 168.507 22.7826 168.367 22.3031C168.227 21.8236 168.196 21.3187 168.277 20.8256C168.212 20.3327 168.254 19.8316 168.4 19.3563C168.545 18.8809 168.791 18.4423 169.121 18.0701C169.45 17.6978 169.856 17.4005 170.31 17.1983C170.764 16.9961 171.256 16.8936 171.753 16.8978C173.843 16.8978 175.096 18.3185 175.096 20.6919V21.21H169.798V21.2936C169.778 21.5723 169.818 21.8519 169.915 22.1139C170.012 22.376 170.164 22.6144 170.36 22.8135C170.555 23.0126 170.791 23.1678 171.052 23.2689C171.312 23.3699 171.591 23.4145 171.87 23.3996C172.228 23.44 172.59 23.3744 172.911 23.211C173.232 23.0476 173.498 22.7935 173.675 22.4803L175.096 22.5305ZM169.881 20.0568H173.675C173.694 19.8037 173.66 19.5495 173.574 19.3105C173.489 19.0714 173.355 18.8529 173.18 18.6688C173.005 18.4847 172.794 18.3391 172.56 18.2413C172.326 18.1436 172.074 18.0959 171.82 18.1012C171.563 18.099 171.309 18.1481 171.072 18.2458C170.834 18.3435 170.619 18.4877 170.438 18.67C170.257 18.8523 170.115 19.0689 170.019 19.307C169.924 19.5452 169.877 19.8002 169.881 20.0568Z" fill="black"/>
</svg>
