<svg viewBox="0 0 355 48" fill="none" xmlns="http://www.w3.org/2000/svg">
<g clip-path="url(#clip0)">
<path fill-rule="evenodd" clip-rule="evenodd" d="M36.012 11.0161V31.6981L27.009 36.8681V16.1861L18.007 11.0161L9.004 16.1861V36.8671L0 31.6971V11.0171L9.004 5.84407L18.005 0.674072H18.007L27.01 5.84407L36.013 11.0141L36.012 11.0161ZM9.002 36.8681L18.006 31.6971L27.009 36.8681L36.013 42.0381L27.009 47.2081L18.006 42.0381L9.002 36.8681Z" fill="#4B2D83"/>
<path fill-rule="evenodd" clip-rule="evenodd" d="M9.00293 36.8685L27.0005 47.2085L36.0005 42.0378L18.0005 31.697L9.00293 36.8685Z" fill="#422980"/>
<path fill-rule="evenodd" clip-rule="evenodd" d="M27 16.1854V36.8684L36 31.6976V11.0154L27 16.1854Z" fill="#5C3296"/>
<path fill-rule="evenodd" clip-rule="evenodd" d="M0 31.6979L9 36.8671V16.1856L0 11.0156V31.6979Z" fill="#282561"/>
<path fill-rule="evenodd" clip-rule="evenodd" d="M0 11.0158L9.00375 16.1858L18.0002 11.0158L27.0002 16.1858L36.0001 11.0158L18.0002 0.674316L0 11.0158Z" fill="#422980"/>
<path d="M65.9449 32.4811C66.0759 32.5428 66.1872 32.6397 66.2663 32.7611C66.3454 32.8825 66.3891 33.0235 66.3925 33.1684C66.3959 33.3132 66.3589 33.4561 66.2857 33.5811C66.2125 33.7061 66.1059 33.8082 65.9779 33.8761L65.1219 34.3611C64.8099 34.5411 64.3949 34.4931 64.1079 34.3221L60.4599 32.2551C59.4619 32.6651 58.3449 32.8791 57.1199 32.8791C52.5329 32.8791 48.8839 29.2501 48.8839 24.6881C48.8795 23.6053 49.0895 22.5323 49.5019 21.5311C49.9142 20.5299 50.5207 19.6203 51.2864 18.8546C52.052 18.0889 52.9617 17.4825 53.9629 17.0701C54.9641 16.6578 56.0371 16.4477 57.1199 16.4521C58.2039 16.4472 59.2782 16.6567 60.2809 17.0686C61.2836 17.4805 62.195 18.0866 62.9626 18.8521C63.7302 19.6175 64.3388 20.5272 64.7535 21.5288C65.1682 22.5303 65.3807 23.604 65.3789 24.6881C65.3789 26.8321 64.4629 29.1261 62.8319 30.7041L65.9449 32.4811ZM165.633 24.7721C166.416 24.7694 167.167 24.4565 167.72 23.9018C168.274 23.347 168.585 22.5957 168.586 21.8121C168.586 20.2901 167.26 19.0721 165.633 19.0721H162.526V24.7721H165.633ZM162.526 31.8761C162.522 32.0839 162.437 32.2821 162.29 32.4287C162.142 32.5753 161.944 32.659 161.736 32.6621H160.904C160.8 32.6625 160.698 32.6424 160.602 32.6031C160.506 32.5638 160.419 32.506 160.345 32.433C160.272 32.36 160.214 32.2733 160.174 32.1777C160.134 32.0821 160.113 31.9796 160.113 31.8761V17.4551C160.113 17.0271 160.46 16.6691 160.903 16.6691H165.742C168.638 16.6691 171.022 19.0111 171.022 21.8541C171.022 24.7551 168.65 27.1301 165.765 27.1301H162.526V31.8751V31.8761ZM175.15 17.4551C175.15 17.0311 175.515 16.6691 175.941 16.6691H176.773C177.217 16.6691 177.564 17.0271 177.564 17.4551V26.5381C177.564 28.9221 179.049 30.5881 181.306 30.5881C183.596 30.5881 185.091 28.9521 185.091 26.5821V17.4561C185.091 17.0281 185.439 16.6701 185.881 16.6701H186.715C187.141 16.6701 187.505 17.0321 187.505 17.4561V26.6691C187.505 30.2401 184.92 32.8811 181.305 32.8811C177.714 32.8811 175.15 30.2411 175.15 26.6691V17.4561V17.4551ZM198.795 23.5071C200.19 23.5071 201.046 22.5671 201.046 21.1591C201.046 19.7541 200.231 18.9181 198.795 18.9181H195.6V23.5081H198.795V23.5071ZM199.167 30.4561C200.545 30.4561 201.551 29.4391 201.551 28.0631C201.551 26.7671 200.344 25.7571 198.795 25.7571H195.556V30.4561H199.166H199.167ZM204.139 28.0841C204.139 30.7581 201.995 32.6621 198.991 32.6621H193.999C193.895 32.6622 193.793 32.6419 193.697 32.6024C193.601 32.5629 193.514 32.5049 193.441 32.4317C193.367 32.3585 193.309 32.2716 193.269 32.1759C193.23 32.0803 193.209 31.9777 193.209 31.8741V17.4551C193.209 17.0281 193.556 16.6701 193.999 16.6701H198.795C201.627 16.6701 203.658 18.5151 203.658 21.0501C203.658 22.4431 202.948 23.6701 201.891 24.4821C203.251 25.2291 204.139 26.4361 204.139 28.0851V28.0841ZM217.444 30.4561C217.888 30.4561 218.236 30.8141 218.236 31.2421V31.8751C218.236 31.9788 218.215 32.0815 218.175 32.1772C218.135 32.273 218.077 32.3599 218.003 32.4331C217.93 32.5063 217.842 32.5642 217.746 32.6037C217.65 32.6432 217.548 32.6633 217.444 32.6631H209.868C209.659 32.6631 209.458 32.5801 209.31 32.4324C209.162 32.2847 209.078 32.0842 209.078 31.8751V17.4551C209.078 17.0281 209.426 16.6701 209.868 16.6701H210.723C211.149 16.6701 211.513 17.0321 211.513 17.4561V30.4561H217.444ZM222.014 17.4551C222.014 17.0321 222.379 16.6691 222.804 16.6691H223.681C224.107 16.6691 224.473 17.0311 224.473 17.4551V31.8751C224.468 32.0833 224.383 32.2817 224.236 32.4285C224.088 32.5753 223.889 32.659 223.681 32.6621H222.804C222.596 32.6585 222.397 32.5744 222.25 32.4274C222.103 32.2805 222.018 32.0821 222.014 31.8741V17.4551ZM237.539 16.4521C239.701 16.4521 241.396 17.1371 243.104 18.5861C243.424 18.9061 243.448 19.4011 243.125 19.7241L242.562 20.2811C242.238 20.6841 241.806 20.6591 241.453 20.3091C240.346 19.3541 238.871 18.7661 237.517 18.7661C234.327 18.7661 231.783 21.4301 231.783 24.6661C231.783 27.8831 234.331 30.5441 237.517 30.5441C239.04 30.5441 239.942 30.1361 241.465 28.9921C241.787 28.7371 242.141 28.7141 242.475 28.9401L243.109 29.5081C243.479 29.7861 243.436 30.3501 243.121 30.6631C241.607 32.1241 239.651 32.8811 237.539 32.8811C232.945 32.8811 229.259 29.2421 229.259 24.6881C229.259 20.1261 232.953 16.4521 237.539 16.4521ZM265.132 30.4571C265.576 30.4571 265.924 30.8151 265.924 31.2431V31.8751C265.924 31.9788 265.903 32.0815 265.863 32.1772C265.823 32.273 265.765 32.3599 265.691 32.4331C265.618 32.5063 265.53 32.5642 265.434 32.6037C265.338 32.6432 265.236 32.6633 265.132 32.6631H257.556C257.452 32.6633 257.35 32.6431 257.254 32.6037C257.158 32.5642 257.071 32.5062 256.997 32.433C256.924 32.3598 256.866 32.2728 256.826 32.1771C256.786 32.0813 256.766 31.9787 256.766 31.8751V17.4551C256.766 17.0281 257.112 16.6701 257.556 16.6701H258.411C258.836 16.6701 259.201 17.0331 259.201 17.4561V30.4561H265.132V30.4571ZM269.702 17.4561C269.702 17.0321 270.066 16.6701 270.492 16.6701H271.367C271.794 16.6701 272.159 17.0321 272.159 17.4561V31.8751C272.154 32.0833 272.069 32.2817 271.922 32.4285C271.774 32.5753 271.575 32.659 271.367 32.6621H270.492C270.284 32.6587 270.085 32.5747 269.938 32.4277C269.79 32.2807 269.706 32.0822 269.702 31.8741V17.4551V17.4561ZM283.649 23.5081C285.045 23.5081 285.901 22.5681 285.901 21.1601C285.901 19.7551 285.086 18.9191 283.649 18.9191H280.454V23.5091H283.649V23.5081ZM284.021 30.4571C285.399 30.4571 286.405 29.4401 286.405 28.0641C286.405 26.7681 285.198 25.7581 283.649 25.7581H280.411V30.4571H284.021ZM288.994 28.0851C288.994 30.7591 286.849 32.6631 283.845 32.6631H278.854C278.75 32.6633 278.647 32.6432 278.551 32.6037C278.455 32.5642 278.368 32.5063 278.295 32.4331C278.221 32.3599 278.163 32.273 278.123 32.1772C278.083 32.0815 278.062 31.9788 278.062 31.8751V17.4551C278.062 17.0281 278.41 16.6701 278.854 16.6701H283.649C286.482 16.6701 288.513 18.5151 288.513 21.0501C288.513 22.4431 287.803 23.6701 286.745 24.4821C288.105 25.2291 288.994 26.4361 288.994 28.0851ZM300.285 24.5111C301.794 24.5111 303.063 23.2541 303.063 21.7041C303.063 20.2611 301.771 19.0061 300.285 19.0061H296.412V24.5111H300.285ZM296.37 31.8751C296.365 32.0828 296.281 32.2808 296.133 32.4274C295.986 32.574 295.788 32.6577 295.58 32.6611H294.725C294.621 32.6615 294.519 32.6414 294.423 32.6021C294.327 32.5628 294.24 32.505 294.166 32.432C294.093 32.359 294.035 32.2723 293.995 32.1767C293.955 32.0811 293.934 31.9786 293.934 31.8751V17.4551C293.934 17.0261 294.281 16.6691 294.724 16.6691H300.395C303.242 16.6691 305.544 18.8931 305.544 21.6811C305.544 23.6591 304.334 25.4011 302.451 26.3031L305.259 31.4801C305.55 32.0201 305.206 32.6611 304.555 32.6611H303.439C303.299 32.6652 303.16 32.6299 303.039 32.5592C302.918 32.4885 302.819 32.3852 302.754 32.2611L299.946 26.6941H296.37V31.8751ZM317.323 23.6831C316.683 22.2451 316.328 21.4501 315.981 20.6791L313.273 26.7311H318.685C318.332 25.9471 317.975 25.1491 317.323 23.6831ZM315.186 16.8941C315.248 16.7596 315.347 16.646 315.473 16.5673C315.598 16.4886 315.744 16.4482 315.892 16.4511H316.112C316.442 16.4511 316.682 16.6251 316.826 16.9111L323.438 31.5661C323.685 32.0991 323.323 32.6621 322.724 32.6621H321.848C321.697 32.6643 321.548 32.6217 321.421 32.5397C321.294 32.4576 321.194 32.3398 321.134 32.2011L319.614 28.8281H312.327L310.833 32.1881C310.773 32.3298 310.673 32.4506 310.544 32.535C310.415 32.6194 310.265 32.6636 310.111 32.6621H309.236C308.638 32.6621 308.276 32.1001 308.522 31.5681L315.186 16.8941ZM333.645 24.5101C335.153 24.5101 336.422 23.2531 336.422 21.7031C336.422 20.2601 335.13 19.0051 333.645 19.0051H329.772V24.5101H333.645ZM329.727 31.8751C329.723 32.0829 329.638 32.2811 329.491 32.4277C329.343 32.5743 329.145 32.658 328.937 32.6611H328.082C327.978 32.6615 327.876 32.6414 327.78 32.6021C327.684 32.5628 327.597 32.505 327.523 32.432C327.45 32.359 327.392 32.2723 327.352 32.1767C327.312 32.0811 327.291 31.9786 327.291 31.8751V17.4551C327.291 17.0271 327.639 16.6691 328.081 16.6691H333.753C336.6 16.6691 338.902 18.8931 338.902 21.6811C338.902 23.6581 337.691 25.4011 335.809 26.3031L338.617 31.4811C338.907 32.0211 338.563 32.6611 337.913 32.6611H336.796C336.656 32.6657 336.517 32.6306 336.396 32.5598C336.275 32.489 336.176 32.3855 336.111 32.2611L333.304 26.6941H329.727V31.8751ZM341.815 17.8691C341.737 17.7506 341.693 17.6131 341.688 17.4715C341.683 17.3299 341.717 17.1897 341.786 17.0659C341.855 16.9422 341.957 16.8398 342.08 16.7699C342.203 16.6999 342.343 16.665 342.485 16.6691H343.513C343.78 16.6691 344.012 16.8161 344.167 17.0191L348.287 22.6791L352.41 17.0141C352.484 16.9105 352.582 16.8254 352.695 16.7656C352.807 16.7058 352.932 16.6727 353.06 16.6691H354.09C354.732 16.6691 355.09 17.3341 354.743 17.8941L349.472 25.0491V31.8751C349.468 32.0834 349.383 32.282 349.236 32.429C349.088 32.5761 348.889 32.66 348.681 32.6631H347.826C347.722 32.6633 347.62 32.6431 347.524 32.6037C347.428 32.5642 347.341 32.5062 347.267 32.433C347.194 32.3598 347.136 32.2728 347.096 32.1771C347.056 32.0813 347.036 31.9787 347.036 31.8751V25.0701L341.815 17.8701V17.8691ZM69.9889 17.5041C69.9889 17.0811 70.3529 16.7191 70.7789 16.7191H71.6109C72.0559 16.7191 72.4029 17.0761 72.4029 17.5041V26.5881C72.4029 28.9721 73.8869 30.6381 76.1449 30.6381C78.4339 30.6381 79.9299 29.0021 79.9299 26.6321V17.5041C79.9299 17.0761 80.2769 16.7191 80.7199 16.7191H81.5529C81.9789 16.7191 82.3429 17.0811 82.3429 17.5041V26.7191C82.3429 30.2891 79.7589 32.9291 76.1449 32.9291C72.5519 32.9291 69.9889 30.2901 69.9889 26.7191V17.5041ZM97.4649 30.5051C97.9089 30.5051 98.2569 30.8631 98.2569 31.2921V31.9241C98.2561 32.1334 98.1722 32.3339 98.0237 32.4814C97.8752 32.629 97.6742 32.7116 97.4649 32.7111H88.8379C88.7343 32.7113 88.6317 32.6912 88.5359 32.6518C88.4401 32.6123 88.3531 32.5544 88.2797 32.4813C88.2063 32.4082 88.1481 32.3214 88.1083 32.2258C88.0685 32.1302 88.048 32.0276 88.0479 31.9241V17.5041C88.0479 17.0761 88.3939 16.7191 88.8379 16.7191H97.4649C97.9079 16.7191 98.2569 17.0761 98.2569 17.5041V18.1361C98.2566 18.2398 98.2359 18.3425 98.196 18.4382C98.156 18.534 98.0976 18.6209 98.0241 18.6941C97.9505 18.7673 97.8633 18.8252 97.7673 18.8647C97.6714 18.9042 97.5686 18.9243 97.4649 18.9241H90.4829V23.4931H96.3929C96.8179 23.4931 97.1829 23.8561 97.1829 24.2781V24.9101C97.1829 25.3521 96.8229 25.6971 96.3929 25.6971H90.4829V30.5051H97.4649ZM112.612 30.5051C113.056 30.5051 113.404 30.8631 113.404 31.2921V31.9241C113.403 32.1334 113.319 32.3339 113.171 32.4814C113.022 32.629 112.821 32.7116 112.612 32.7111H103.984C103.88 32.7113 103.778 32.6912 103.682 32.6518C103.586 32.6123 103.499 32.5544 103.426 32.4813C103.352 32.4082 103.294 32.3214 103.254 32.2258C103.215 32.1302 103.194 32.0276 103.194 31.9241V17.5041C103.194 17.0771 103.541 16.7191 103.984 16.7191H112.612C113.056 16.7191 113.404 17.0761 113.404 17.5041V18.1361C113.404 18.2398 113.383 18.3425 113.343 18.4382C113.303 18.534 113.245 18.6209 113.171 18.6941C113.098 18.7673 113.01 18.8252 112.914 18.8647C112.818 18.9042 112.716 18.9243 112.612 18.9241H105.629V23.4931H111.539C111.965 23.4931 112.33 23.8561 112.33 24.2781V24.9101C112.33 25.3521 111.97 25.6971 111.54 25.6971H105.63V30.5051H112.612ZM120.689 31.9251C120.689 32.0285 120.668 32.131 120.628 32.2265C120.588 32.322 120.53 32.4087 120.457 32.4817C120.383 32.5547 120.296 32.6125 120.201 32.6518C120.105 32.6912 120.002 32.7113 119.899 32.7111H119.132C118.924 32.708 118.725 32.6242 118.578 32.4773C118.43 32.3305 118.346 32.1321 118.342 31.9241V17.2661C118.342 16.8391 118.707 16.5011 119.132 16.5011H119.5C119.728 16.5011 119.943 16.6041 120.085 16.7811L129.224 28.1071V17.5051C129.224 17.0781 129.571 16.7191 130.014 16.7191H130.781C131.207 16.7191 131.573 17.0821 131.573 17.5051V32.1651C131.573 32.5911 131.206 32.9301 130.781 32.9301H130.568C130.456 32.93 130.345 32.9048 130.244 32.8564C130.142 32.8079 130.053 32.7374 129.983 32.6501L120.689 21.1101V31.9251ZM136.544 29.8511L136.574 29.8111C136.614 29.7611 136.65 29.7171 136.729 29.6161C136.814 29.5061 136.852 29.4581 136.892 29.4121C137.269 28.9201 137.726 28.7521 138.201 29.1591L138.319 29.2631C138.608 29.5163 138.917 29.7454 139.244 29.9481C140.029 30.4351 140.846 30.7231 141.656 30.7231C143.166 30.7231 144.216 29.8241 144.216 28.6991C144.216 27.5101 143.252 26.6991 140.609 25.6011C137.649 24.3151 136.529 23.1571 136.529 20.7501C136.529 18.5061 138.399 16.5011 141.569 16.5011C142.539 16.5076 143.498 16.7061 144.391 17.0851C144.698 17.2131 144.974 17.3491 145.216 17.4871C145.364 17.5701 145.469 17.6371 145.482 17.6511C145.897 17.8591 146.104 18.3831 145.758 18.9311C145.726 18.9791 145.698 19.0221 145.636 19.1221L145.633 19.1281C145.589 19.1992 145.544 19.2696 145.498 19.3391C145.188 19.8211 144.747 19.9471 144.233 19.6591C144.224 19.6551 144.027 19.5361 143.928 19.4791C143.737 19.369 143.542 19.2673 143.343 19.1741C142.758 18.9021 142.187 18.7321 141.668 18.7081C141.628 18.7062 141.588 18.7052 141.548 18.7051C139.798 18.7051 138.901 19.6401 138.901 20.7281C138.901 21.8841 139.707 22.6611 141.622 23.4551C145.302 24.9451 146.718 26.1891 146.718 28.6351C146.718 31.0771 144.426 32.9291 141.613 32.9291C140.448 32.9257 139.301 32.6428 138.269 32.1041C137.718 31.8285 137.206 31.4819 136.746 31.0731L136.7 31.0331C136.335 30.7111 136.23 30.3431 136.544 29.8511ZM57.1199 30.6091C60.3999 30.6091 63.0939 27.9411 63.0939 24.6881C63.0939 21.4261 60.3899 18.7221 57.1199 18.7221C53.8539 18.7221 51.1679 21.4221 51.1679 24.6881C51.1679 27.9451 53.8449 30.6081 57.1199 30.6081V30.6091Z" fill="#422980"/>
</g>
<defs>
<clipPath id="clip0">
<rect width="355" height="47" fill="white" transform="translate(0 0.674072)"/>
</clipPath>
</defs>
</svg>
