<svg viewBox="0 0 328 120" fill="#ffffff" xmlns="http://www.w3.org/2000/svg">
<path d="M277.596 75.8511C277.596 66.8825 277.55 57.9501 277.55 48.9953C277.533 42.4967 278.746 29.3438 265.868 24.3751C264.726 23.9933 263.554 23.7068 262.364 23.5185C259.041 23.1662 255.681 23.4571 252.468 24.3751C250.306 25.1545 248.275 26.2577 246.445 27.647C246.012 27.9563 245.164 28.6788 244.606 29.1748C243.415 30.2554 242.295 31.4115 241.253 32.6359C241.227 32.6359 241.524 25.6055 241.557 24.2194H193.825C193.721 24.446 187.159 48.7925 186.551 50.9016C186.037 48.9006 178.979 24.9295 178.803 24.2194H153.649V0H128.184V24.4554C128.157 24.4754 101.022 24.4554 100.86 24.4554C100.813 24.5028 88.1848 34.5752 87.7386 34.92C87.7386 22.2652 87.7422 0.21551 87.7422 0.0346C79.3844 0.03461 70.9701 0 62.6122 0C62.6122 4.62018 62.6151 9.45264 62.6151 14.0728C61.5597 10.9655 59.6518 8.21772 57.1091 6.14324C56.8438 5.92388 56.1953 5.37424 55.6793 5.02782C51.8869 2.48265 50.3963 2.01622 45.9651 0.92107C44.6721 0.670397 43.366 0.492871 42.053 0.38934C41.3394 0.32214 38.5222 0.17071 38.0034 0.15576C35.3078 0.09973 31.228 0.07788 29.2813 0.07788H0C0 25.4109 0.0156867 50.7341 0.04706 76.0475C0.76331 76.0475 34.2054 75.9063 34.8073 75.9063C36.1531 75.9063 37.1127 75.8463 38.4005 75.8463C41.2784 75.7682 44.1456 75.4628 46.9754 74.9329C50.2891 74.2289 53.4014 72.787 56.0812 70.7146C61.7191 65.9285 62.3884 62.5011 62.61 62.1361C62.61 62.6938 62.5982 75.2979 62.5982 75.744H87.5763V61.4059C87.9211 61.1221 90.3636 59.0941 90.4156 59.0941C91.4142 60.3814 103.314 74.8923 104.024 75.744H153.649V29.7486C153.675 29.7486 173.005 71.9728 173.269 72.6217C172.639 73.897 154.895 110.869 154.895 110.895H181.969C182.334 110.018 217.581 30.43 217.581 30.3781C217.607 30.3781 217.561 48.4274 217.561 75.8511H243.135V53.0716C243.135 47.9053 242.192 43.2605 248.367 43.4385C250.683 43.5053 251.981 46.0471 252.078 47.4134V75.8511H277.596ZM37.0651 55.6329C34.4276 58.4305 29.3453 57.8571 25.1132 57.8571V46.1282C32.8062 46.1282 33.8425 46.1421 35.0303 46.6487C36.0086 47.032 36.8466 47.7046 37.4325 48.5767C38.0183 49.4489 38.3241 50.479 38.309 51.5295C38.309 53.882 37.7841 54.8703 37.0651 55.6329ZM37.0651 27.5651C34.4276 30.3627 29.3453 29.7893 25.1132 29.7893V18.0604C32.8062 18.0604 33.8425 18.0743 35.0303 18.581C36.0086 18.9642 36.8466 19.6368 37.4324 20.509C38.0183 21.3811 38.3241 22.4112 38.309 23.4617C38.309 25.8142 37.7841 26.8025 37.0651 27.5651ZM62.5506 48.67C62.03 45.9052 57.663 41.5922 55.1281 39.9698C54.2698 39.4288 53.3829 38.9346 52.4713 38.4894C52.1016 38.3057 51.2602 37.9678 51.2342 37.9418C54.6687 36.6321 57.717 34.4766 60.0967 31.6752C61.2067 30.4174 62.0508 28.9481 62.5782 27.3555C62.5782 34.2858 62.5765 48.67 62.5506 48.67ZM128.15 69.8831C128.124 69.8831 107.666 43.0186 107.64 43.0186C108.357 42.4508 128.124 27.0562 128.15 27.0562V69.8831Z"/>
<path d="M143.024 91.4629C144.57 91.3545 146.12 91.6217 147.541 92.2416C147.779 92.3622 148.322 92.6104 148.553 92.7089V99.3164C148.501 99.3164 146.051 96.9099 143.225 97.8968C142.296 98.4034 141.566 99.2101 141.155 100.185C140.974 100.817 140.895 101.475 140.921 102.132C141.089 103.954 142.955 106.049 146.217 105.169C147.104 104.834 147.903 104.302 148.553 103.612V110.231C147.702 110.647 146.816 110.986 145.905 111.243C143.09 111.771 140.18 111.244 137.728 109.764C134.87 108.078 132.281 103.259 133.912 98.2381C134.38 96.9045 135.12 95.6828 136.086 94.6505C137.051 93.6182 138.22 92.7979 139.519 92.2417C140.655 91.8513 141.83 91.5901 143.024 91.4629Z"/>
<path d="M73.247 92.0859H80.5674V100.652C80.5674 102.198 80.463 103.808 81.1125 104.702C81.438 105.017 81.833 105.252 82.2658 105.388C82.6986 105.523 83.1572 105.555 83.6045 105.481C84.1946 105.419 84.7584 105.204 85.2399 104.858C86.0019 104.08 85.9408 102.418 85.9408 100.886V92.0859H93.1833C93.1833 92.7321 93.3358 104.048 92.9496 105.87C92.5922 107.861 90.7129 109.97 87.7319 110.932C86.926 111.161 86.0995 111.31 85.2643 111.376C83.959 111.481 82.6471 111.472 81.3434 111.349C79.6897 111.25 78.0764 110.798 76.6114 110.024C75.3355 109.213 74.3469 108.021 73.7857 106.617C73.343 104.767 73.1617 102.864 73.2471 100.964L73.247 92.0859ZM85.9408 100.886V92.0859H93.1833C93.1833 92.7321 93.3358 104.048 92.9496 105.87"/>
<path d="M72.2985 90.5616C72.0258 88.8598 71.2046 87.2938 69.9599 86.1016C68.7152 84.9095 67.1152 84.1566 65.4033 83.9575C63.1995 83.6331 51.7095 83.8066 51.5254 83.8066V110.965H59.2927V102.243C65.0758 102.263 68.921 102.076 71.1298 98.505C71.6429 97.561 72.0096 96.5445 72.2174 95.4903C72.2783 95.1658 72.4141 94.4019 72.4243 94.1585C72.4752 92.9581 72.4331 91.7555 72.2985 90.5616ZM63.8992 94.9291C62.8142 95.9026 60.9591 95.6998 59.3066 95.6998V90.1324C62.368 90.1734 62.9338 90.4189 63.382 90.65C63.7084 90.8889 63.9734 91.202 64.155 91.5634C64.3366 91.9248 64.4296 92.3242 64.4265 92.7287C64.4074 94.0269 64.2236 94.5641 63.8992 94.9291V94.9291Z"/>
<path d="M115.861 98.8162C115.486 97.2115 114.702 95.7309 113.586 94.5181C112.471 93.3052 111.061 92.4013 109.493 91.8939C108.181 91.4713 106.787 91.3671 105.428 91.5901C104.068 91.8131 102.78 92.3567 101.672 93.1761V81.0275H94.4297V110.854H101.672V109.608C102.47 110.441 103.502 111.011 104.631 111.243C106.468 111.605 108.368 111.459 110.128 110.822C111.814 110.103 113.268 108.933 114.332 107.441C115.395 105.95 116.027 104.193 116.157 102.366C116.2 101.175 116.1 99.9833 115.861 98.8162ZM105.058 105.068C104.343 105.068 103.644 104.856 103.05 104.458C102.455 104.061 101.992 103.497 101.718 102.836C101.445 102.175 101.373 101.449 101.512 100.747C101.652 100.046 101.996 99.4019 102.502 98.8963C103.007 98.3907 103.652 98.0464 104.353 97.9069C105.054 97.7674 105.781 97.839 106.442 98.1127C107.102 98.3863 107.667 98.8496 108.064 99.4441C108.461 100.039 108.673 100.738 108.673 101.453C108.673 101.927 108.58 102.397 108.398 102.836C108.216 103.275 107.95 103.673 107.614 104.009C107.279 104.345 106.88 104.611 106.442 104.793C106.003 104.974 105.533 105.068 105.058 105.068Z"/>
<path d="M129.029 89.7629C131.257 89.7629 133.064 87.9567 133.064 85.7287C133.064 83.5006 131.257 81.6945 129.029 81.6945C126.801 81.6945 124.995 83.5006 124.995 85.7287C124.995 87.9567 126.801 89.7629 129.029 89.7629Z"/>
<path d="M116.931 81.0575H124.161V110.857H116.931C116.931 110.857 116.901 81.0271 116.931 81.0575Z"/>
<path d="M125.368 92.1102H132.598V110.857H125.368C125.368 110.857 125.338 92.0798 125.368 92.1102Z"/>
<path d="M223.562 89.7629C225.79 89.7629 227.596 87.9567 227.596 85.7287C227.596 83.5006 225.79 81.6945 223.562 81.6945C221.334 81.6945 219.527 83.5006 219.527 85.7287C219.527 87.9567 221.334 89.7629 223.562 89.7629Z"/>
<path d="M219.901 92.1102H227.131V110.857H219.901C219.901 110.857 219.871 92.0798 219.901 92.1102Z"/>
<path d="M249.872 98.8702C249.497 97.2655 248.714 95.785 247.598 94.5721C246.483 93.3593 245.072 92.4554 243.504 91.9479C242.193 91.5253 240.799 91.4212 239.439 91.6442C238.079 91.8672 236.792 92.4108 235.684 93.2302V81.0815H228.441V110.908H235.684V109.662C236.482 110.495 237.514 111.065 238.643 111.297C240.48 111.659 242.38 111.513 244.14 110.876C245.825 110.157 247.28 108.987 248.343 107.496C249.407 106.004 250.039 104.247 250.169 102.42C250.211 101.229 250.112 100.037 249.872 98.8702ZM239.07 105.122C238.355 105.122 237.656 104.91 237.061 104.513C236.467 104.115 236.004 103.551 235.73 102.89C235.456 102.23 235.385 101.503 235.524 100.801C235.664 100.1 236.008 99.456 236.514 98.9504C237.019 98.4448 237.663 98.1005 238.365 97.961C239.066 97.8215 239.793 97.8931 240.453 98.1667C241.114 98.4404 241.678 98.9037 242.076 99.4982C242.473 100.093 242.685 100.792 242.685 101.507C242.685 101.981 242.591 102.451 242.41 102.89C242.228 103.329 241.962 103.727 241.626 104.063C241.29 104.399 240.892 104.665 240.453 104.847C240.015 105.028 239.545 105.122 239.07 105.122Z"/>
<path d="M279.092 92.093C279.092 92.4304 279.093 92.8184 279.093 93.1558C278.862 93.0195 278.518 92.7287 278.18 92.5361C277.48 92.1008 276.701 91.8079 275.888 91.6741C270.26 91.086 267.806 93.7123 266.356 95.6085C265.941 96.2733 265.614 96.989 265.383 97.7379H265.289V92.093C259.928 91.7726 258.316 94.2903 258.265 94.2903V92.093H250.96V110.854C251.427 110.854 257.617 110.849 258.227 110.849C258.386 105.14 257.839 101.327 259.015 99.6341C259.641 98.9044 260.518 98.4344 261.472 98.3159C262.103 98.2505 262.74 98.271 263.365 98.3768C263.89 98.5246 264.403 98.7125 264.9 98.9389C264.738 100.1 264.66 101.271 264.666 102.443C265.204 106.969 267.36 109.369 270.74 110.854C273.292 111.914 277.759 111.544 278.981 109.703H279.143C279.143 110.093 279.151 110.707 279.151 110.854H286.393V92.093H279.092ZM275.736 105.122C275.021 105.122 274.322 104.91 273.727 104.513C273.133 104.115 272.67 103.551 272.396 102.89C272.122 102.23 272.051 101.503 272.19 100.801C272.33 100.1 272.674 99.456 273.18 98.9504C273.685 98.4448 274.329 98.1005 275.031 97.961C275.732 97.8215 276.459 97.8931 277.119 98.1667C277.78 98.4403 278.345 98.9037 278.742 99.4982C279.139 100.093 279.351 100.792 279.351 101.507C279.351 101.981 279.258 102.451 279.076 102.89C278.894 103.329 278.628 103.727 278.292 104.063C277.957 104.399 277.558 104.665 277.119 104.847C276.681 105.028 276.211 105.122 275.736 105.122Z"/>
<path d="M202.876 83.7277V110.849H218.857V104.13L210.691 104.157V83.7277C210.691 83.7277 202.849 83.7007 202.876 83.7277Z"/>
<path d="M302.06 99.1271C301.552 98.9618 300.67 98.5034 300.113 98.3903C299.54 98.2924 298.956 98.272 298.377 98.3295C297.875 98.3619 297.385 98.4954 296.936 98.722C296.486 98.9485 296.088 99.2633 295.763 99.6477C294.587 101.341 295.175 105.143 295.016 110.852H287.708V92.093H295.013V94.3038C295.064 94.3038 296.706 92.093 302.037 92.093C302.037 92.452 302.073 97.3086 302.073 97.7345L302.06 99.1271ZM287.708 110.852V92.093H294.95"/>
<path d="M301.248 92.093L310.442 107.956L304.168 119.691H312.335L327.044 92.093H318.838L314.457 100.736L309.941 92.093C309.941 92.093 301.262 92.0795 301.248 92.093Z"/>
</svg>
