<svg viewBox="0 0 156 139" fill="none" xmlns="http://www.w3.org/2000/svg">
<path d="M79.2896 9.50048C36.438 -12.6064 1.11414 10.8003 1.11414 10.8003L1 121.192C1 121.192 4.35688 115.94 16.7665 111.467V133.21C16.7729 134.743 17.3832 136.212 18.4647 137.296C19.5462 138.381 21.0112 138.993 22.5409 139H134.354C135.884 138.993 137.349 138.381 138.431 137.296C139.512 136.212 140.122 134.743 140.129 133.21V111.004C151.917 114.714 156 120.888 156 120.888V10.8003C156 10.8003 122.141 -12.6064 79.2896 9.50048Z" fill="white"/>
<path d="M101.77 10.8003C144.245 6.93267 155.97 23.6376 155.97 23.6376V121.189C155.97 121.189 144.253 104.495 101.77 108.353V10.8003Z" fill="url(#paint0_linear_53471_41903)"/>
<path d="M55.0762 10.7101C12.6007 6.83998 0.875943 23.5557 0.875943 23.5557V121.17C0.875943 121.17 12.5932 104.465 55.0762 108.326V10.7101Z" fill="url(#paint1_linear_53471_41903)"/>
<path d="M147.894 106.012C111.655 88.8873 83.0996 106.012 83.0996 106.012V16.268C83.0996 16.268 111.622 -0.858961 147.894 16.268V106.012Z" fill="#081F32"/>
<path d="M131.178 124.927C131.188 125.564 131.011 126.191 130.667 126.727C130.302 127.267 129.789 127.689 129.191 127.945C128.476 128.247 127.706 128.394 126.93 128.376C126.322 128.385 125.714 128.336 125.115 128.228C124.587 128.11 124.074 127.93 123.587 127.691V125.077C124.143 125.363 124.727 125.589 125.331 125.752C125.871 125.902 126.428 125.983 126.988 125.992C127.323 126.017 127.658 125.939 127.947 125.767C128.041 125.701 128.118 125.614 128.172 125.511C128.225 125.409 128.252 125.295 128.252 125.18C128.254 125.04 128.209 124.904 128.124 124.793C128.017 124.654 127.884 124.538 127.731 124.452C127.554 124.339 127.075 124.106 126.292 123.752C125.722 123.512 125.186 123.196 124.698 122.815C124.362 122.532 124.094 122.177 123.914 121.775C123.736 121.334 123.651 120.861 123.662 120.386C123.662 119.385 124.025 118.605 124.751 118.045C125.477 117.484 126.475 117.204 127.744 117.204C128.931 117.218 130.1 117.484 131.176 117.985L130.282 120.254C129.269 119.789 128.396 119.556 127.662 119.555C127.371 119.531 127.081 119.601 126.833 119.755C126.753 119.811 126.687 119.886 126.642 119.973C126.596 120.06 126.573 120.156 126.573 120.254C126.578 120.369 126.61 120.48 126.667 120.58C126.724 120.679 126.803 120.764 126.899 120.826C127.121 120.993 127.719 121.3 128.693 121.747C129.629 122.167 130.276 122.621 130.635 123.107C131.014 123.636 131.205 124.276 131.178 124.927ZM122.913 128.228H119.616L117.464 124.073L116.596 124.593V128.228H113.653V117.362H116.596V122.081C116.865 121.6 117.165 121.135 117.492 120.691L119.769 117.362H122.971L119.554 122.239L122.913 128.228ZM104.239 122.788C104.239 124.889 104.967 125.939 106.424 125.938C107.165 125.938 107.714 125.682 108.071 125.172C108.43 124.664 108.61 123.859 108.61 122.788C108.61 121.717 108.423 120.901 108.062 120.387C107.7 119.873 107.16 119.607 106.439 119.607C104.972 119.602 104.239 120.659 104.239 122.779V122.788ZM111.695 122.788C111.695 124.615 111.248 126.004 110.354 126.956C109.459 127.908 108.15 128.383 106.424 128.383C104.724 128.383 103.419 127.905 102.51 126.949C101.6 125.992 101.148 124.6 101.153 122.773C101.153 120.965 101.604 119.585 102.504 118.634C103.405 117.682 104.715 117.204 106.434 117.199C108.159 117.199 109.469 117.672 110.363 118.619C111.258 119.565 111.702 120.952 111.695 122.779V122.788ZM92.138 122.788C92.138 124.889 92.8671 125.939 94.3254 125.938C95.0664 125.938 95.6152 125.682 95.972 125.172C96.3313 124.664 96.5128 123.859 96.5128 122.788C96.5128 121.717 96.3257 120.901 95.9626 120.387C95.5996 119.873 95.0608 119.607 94.3404 119.607C92.8721 119.602 92.138 120.659 92.138 122.779V122.788ZM99.5965 122.788C99.5965 124.615 99.1492 126.004 98.2548 126.956C97.3604 127.908 96.0506 128.383 94.3254 128.383C92.6251 128.383 91.3203 127.905 90.4109 126.949C89.5015 125.992 89.0493 124.6 89.0543 122.773C89.0543 120.965 89.5046 119.585 90.4053 118.634C91.3059 117.682 92.6158 117.204 94.3347 117.199C96.06 117.199 97.3698 117.672 98.2642 118.619C99.1586 119.565 99.6021 120.952 99.5946 122.779L99.5965 122.788ZM82.1534 123.687V125.968H83.1826C84.0957 125.968 84.5541 125.583 84.5541 124.808C84.5629 124.65 84.5334 124.492 84.4683 124.347C84.4032 124.202 84.3042 124.076 84.1799 123.977C83.8701 123.763 83.4965 123.66 83.1208 123.687H82.1534ZM82.1534 121.539H83.0348C83.3782 121.561 83.7191 121.469 84.0059 121.278C84.1227 121.188 84.2156 121.07 84.2763 120.936C84.337 120.801 84.3637 120.653 84.3539 120.506C84.3539 119.897 83.8949 119.592 82.9767 119.592H82.1534V121.539ZM79.2232 117.369H83.0048C84.4793 117.369 85.5721 117.59 86.2831 118.032C86.9998 118.469 87.3571 119.157 87.3571 120.076C87.3722 120.632 87.2082 121.179 86.8894 121.635C86.5955 122.055 86.158 122.352 85.66 122.469V122.541C86.3318 122.728 86.8164 123.019 87.1195 123.434C87.4391 123.911 87.5978 124.479 87.5723 125.054C87.5889 125.504 87.4964 125.951 87.3029 126.358C87.1093 126.764 86.8204 127.117 86.4609 127.387C85.7236 127.951 84.7176 128.234 83.4427 128.235H79.2232V117.369ZM73.5517 121.642C73.2335 121.635 72.9251 121.752 72.6928 121.97C72.4396 122.246 72.2969 122.605 72.2924 122.98H74.7829C74.7915 122.623 74.6674 122.276 74.4349 122.006C74.3241 121.883 74.1875 121.786 74.0348 121.721C73.8821 121.657 73.7171 121.628 73.5517 121.635V121.642ZM73.7238 128.383C72.3242 128.383 71.2371 128.012 70.4624 127.269C69.6877 126.527 69.3023 125.464 69.306 124.081C69.306 122.659 69.664 121.569 70.3801 120.811C71.0961 120.054 72.1196 119.672 73.4506 119.665C74.7156 119.665 75.6911 119.998 76.3772 120.663C77.0633 121.328 77.4094 122.279 77.4156 123.516V124.808H72.2325C72.2325 125.019 72.2783 125.228 72.3668 125.419C72.4554 125.611 72.5845 125.781 72.7452 125.917C73.1268 126.203 73.5964 126.345 74.0719 126.318C74.5422 126.323 75.0116 126.275 75.4715 126.176C75.9529 126.06 76.4208 125.893 76.8674 125.679V127.766C76.4239 127.995 75.9491 128.158 75.4584 128.248C74.8852 128.343 74.3047 128.386 73.7238 128.376V128.383ZM66.1138 128.235H64.6749L58.7526 119.116H58.6946C58.7732 120.187 58.8125 121.166 58.8125 122.059V128.235H57.6468V117.362H59.0707L64.978 126.444H65.036C65.036 126.311 65.0042 125.881 64.9705 125.159C64.9368 124.437 64.9237 123.91 64.935 123.599V117.362H66.1119L66.1138 128.235ZM54.1776 128.235H48.1375V117.362H54.1833V118.487H49.3987V121.987H53.8895V123.113H49.3987V127.093H54.1833L54.1776 128.235ZM39.184 122.876H40.3179C41.4406 122.876 42.2514 122.696 42.7504 122.334C43.2494 121.973 43.4989 121.393 43.4989 120.596C43.4989 119.877 43.2637 119.341 42.7934 118.99C42.3238 118.639 41.5922 118.461 40.6004 118.461H39.1914L39.184 122.876ZM44.7975 120.536C44.7975 121.635 44.4232 122.482 43.6748 123.077C42.9263 123.672 41.8566 123.965 40.4657 123.955H39.1914V128.228H37.9303V117.362H40.737C43.4427 117.362 44.7956 118.417 44.7956 120.528L44.7975 120.536ZM25.8014 122.786C25.8014 124.257 26.1132 125.374 26.737 126.136C27.3607 126.899 28.2701 127.278 29.4651 127.273C30.6664 127.273 31.5727 126.894 32.1839 126.136C32.7995 125.386 33.1046 124.261 33.1046 122.786C33.1046 121.312 32.7995 120.217 32.1839 119.463C31.5683 118.709 30.6758 118.326 29.4801 118.326C28.2844 118.326 27.3638 118.701 26.737 119.472C26.1101 120.243 25.7995 121.327 25.7995 122.779L25.8014 122.786ZM34.4368 122.786C34.4368 124.525 34.0002 125.891 33.127 126.887C32.2538 127.882 31.0357 128.382 29.4726 128.387C27.8759 128.387 26.6428 127.9 25.7733 126.924C24.9038 125.949 24.4716 124.566 24.4766 122.777C24.4766 121.006 24.9132 119.637 25.7864 118.667C26.6596 117.698 27.8952 117.21 29.4932 117.202C31.05 117.202 32.2656 117.698 33.1401 118.69C34.0146 119.682 34.4462 121.045 34.4349 122.779L34.4368 122.786Z" fill="black"/>
<path d="M9.46094 106.648C45.7017 89.5211 74.2576 106.648 74.2576 106.648V16.9C74.2576 16.9 45.7354 -0.225108 9.46094 16.9V106.648Z" fill="#081F32"/>
<defs>
<linearGradient id="paint0_linear_53471_41903" x1="128.87" y1="121.189" x2="128.87" y2="10.2208" gradientUnits="userSpaceOnUse">
<stop stop-color="#8CC038"/>
<stop offset="0.36" stop-color="#9FCA57"/>
<stop offset="0.9" stop-color="#FFFFFA"/>
<stop offset="0.97" stop-color="white"/>
<stop offset="1" stop-color="white"/>
</linearGradient>
<linearGradient id="paint1_linear_53471_41903" x1="27.9761" y1="121.17" x2="27.9761" y2="10.1302" gradientUnits="userSpaceOnUse">
<stop stop-color="#8CC038"/>
<stop offset="0.36" stop-color="#9FCA57"/>
<stop offset="0.9" stop-color="#FFFFFA"/>
<stop offset="0.97" stop-color="white"/>
<stop offset="1" stop-color="white"/>
</linearGradient>
</defs>
</svg>
