<svg viewBox="0 0 317 178" xmlns="http://www.w3.org/2000/svg">
  <path d="M159.458 2.388h2.395l17.461 25.224V2.388h2.264v29.175h-2.221L161.722 6.165v25.398h-2.221V2.387h-.043z" />
  <path fill-rule="evenodd" clip-rule="evenodd" d="M195.207 10.202c-5.573 0-9.013 4.82-9.013 10.724 0 5.991 2.961 11.114 9.405 11.114a12.17 12.17 0 007.141-2.127l-.958-1.78a10.35 10.35 0 01-6.052 1.953c-5.051 0-7.054-4.385-7.098-9.16v-.478h14.457c.435-5.948-2.526-10.246-7.882-10.246zm-.087 1.997c4.006 0 5.617 3.213 5.661 6.382h-12.018c.609-3.56 2.699-6.382 6.357-6.382z" />
  <path d="M205.527 10.68h2.482l5.095 17.41 5.486-17.41h2.221l5.487 17.453 5.138-17.453h2.308l-6.314 20.926h-2.09l-5.661-17.627-5.661 17.627h-2.09l-6.401-20.926zM253.948 20.579l-9.797-18.191h2.743l8.317 15.76h.087l8.317-15.76h2.482l-9.754 18.19v10.985h-2.395V20.578z" />
  <path fill-rule="evenodd" clip-rule="evenodd" d="M273.499 10.202c-6.575 0-9.405 5.688-9.405 10.94 0 5.254 2.83 10.898 9.449 10.898 6.575 0 9.58-5.73 9.58-10.984 0-5.21-3.048-10.854-9.624-10.854zm-.13 1.954c4.79 0 7.315 4.298 7.315 8.987 0 4.732-2.308 8.943-7.141 8.943-4.746 0-7.098-4.298-7.098-9.03 0-4.689 2.178-8.9 6.924-8.9z" />
  <path d="M287.521 10.68h2.307v3.647c.784-1.52 2.7-4.125 5.617-4.125a5.71 5.71 0 012.004.348l-.567 2.127a4.338 4.338 0 00-1.698-.304c-2.917 0-4.79 3.43-5.356 4.646v14.543h-2.307V10.68z" />
  <path fill-rule="evenodd" clip-rule="evenodd" d="M303.937 0h-2.265v31.562h2.265V0zm9.405 10.68l-9.188 9.16 9.667 11.766h2.874l-9.754-11.766 9.275-9.16h-2.874zM165.859 46.324h-6.401v29.218h2.438V63.124h3.701c6.619 0 10.277-3.3 10.277-8.553 0-5.21-3.876-8.248-10.015-8.248zm7.576 8.335c0 3.82-2.308 6.382-7.881 6.382v.044h-3.658V48.406h3.745c5.617 0 7.794 2.605 7.794 6.252z" />
  <path d="M179.575 69.377V54.616h2.308v14.283c0 3.083 1.088 5.036 4.311 5.036 3.135 0 5.704-2.952 6.401-4.168V54.616h2.264v16.888c-.023 1.356.108 2.71.392 4.038h-2.352a22.658 22.658 0 01-.304-3.43c-1.002 1.563-3.397 3.907-6.967 3.907-4.311-.043-6.053-2.909-6.053-6.642z" />
  <path fill-rule="evenodd" clip-rule="evenodd" d="M200.607 43.936v30.477c1.437.955 3.788 1.563 6.27 1.52 6.401 0 10.363-5.124 10.363-10.985 0-6.078-2.917-10.853-8.882-10.853a7.527 7.527 0 00-5.487 2.43v-12.59h-2.264zm7.358 12.243c5.139 0 6.88 4.341 6.88 8.9 0 4.341-2.569 8.943-7.881 8.943a9.6 9.6 0 01-4.093-.825v-14.63a7.418 7.418 0 015.094-2.388z" />
  <path d="M221.943 43.936h2.308v31.562h-2.308V43.936z" />
  <path fill-rule="evenodd" clip-rule="evenodd" d="M231.332 46.904a1.713 1.713 0 00-.854 1.503 1.714 1.714 0 00.841 1.54 1.725 1.725 0 001.758 0c.542-.321.865-.912.841-1.54a1.713 1.713 0 00-.854-1.503 1.723 1.723 0 00-1.732 0zm2.064 7.668h-2.352v20.926h2.352V54.572z" />
  <path d="M237.793 65.035c0-6.599 3.832-10.897 9.232-10.897 3.135 0 5.094 1.172 6.227 2.17l-1.176 1.65a7.576 7.576 0 00-5.095-1.866c-4.659 0-6.749 4.037-6.749 8.856 0 4.646 2.046 9.074 6.706 9.074a8.429 8.429 0 005.356-1.867l1.001 1.693c-1.132.999-3.353 2.128-6.488 2.128-6.053 0-9.014-5.34-9.014-10.94zM158.848 119.434V90.259h6.227v24.182h10.886v4.993h-17.113z" />
  <path fill-rule="evenodd" clip-rule="evenodd" d="M181.014 94.282a3.527 3.527 0 002.524 1.013 3.487 3.487 0 003.125-1.698 3.465 3.465 0 000-3.55 3.487 3.487 0 00-3.125-1.698 3.482 3.482 0 00-2.506.969 3.461 3.461 0 00-1.065 2.46 3.51 3.51 0 001.047 2.504zm-.394 3.792v21.36h5.879v-21.36h-5.879zM197.515 99.767V87.87h-5.835v30.39c1.002.478 3.963 1.694 8.796 1.694 6.445 0 11.365-4.038 11.365-11.332 0-7.337-3.745-11.027-9.1-11.027a7.697 7.697 0 00-5.226 2.17zm2.961 15.629a8.313 8.313 0 01-2.961-.477v-11.115a5.176 5.176 0 013.614-1.606c3.179 0 4.529 2.431 4.529 6.425 0 4.342-1.916 6.773-5.182 6.773z" />
  <path d="M228.257 103.197a4.199 4.199 0 00-2.264-.478c-2.613 0-4.137 2.301-4.659 3.256v13.459h-5.835v-21.36h5.835v2.908c.914-1.562 2.699-3.43 5.399-3.43 1.568 0 2.439.305 2.918.565l-1.394 5.08z" />
  <path fill-rule="evenodd" clip-rule="evenodd" d="M243.41 117.133c.039.776.156 1.547.349 2.301v-.044h5.748a28.441 28.441 0 01-.61-6.295v-7.684c0-5.688-2.787-7.902-8.622-7.902-4.572 0-7.402 1.954-8.665 3.083l2.569 3.56a8.993 8.993 0 015.443-1.997c2.743 0 3.484 1.172 3.484 2.995v1.216h-.741c-5.66 0-11.408 2.04-11.408 7.597 0 3.821 2.787 5.992 6.444 5.992a7.955 7.955 0 006.009-2.822zm-1.088-7.164h.784v3.864a5.313 5.313 0 01-3.963 1.867c-1.35 0-2.613-.651-2.613-2.214 0-2.518 2.352-3.517 5.792-3.517z" />
  <path d="M266.315 103.197a4.133 4.133 0 00-2.221-.478c-2.613 0-4.137 2.301-4.659 3.256v13.459H253.6v-21.36h5.835v2.908c.914-1.562 2.699-3.43 5.399-3.43 1.568 0 2.439.305 2.918.565l-1.437 5.08zM269.842 98.074h6.226l4.747 14.066h.218l4.354-14.066h6.009l-8.839 23.617c-1.873 5.036-4.137 7.989-9.972 7.989a11.8 11.8 0 01-3.309-.391l.827-4.602a6.694 6.694 0 002.047.217c3.004 0 4.049-1.433 4.876-3.734l.784-2.17-7.968-20.926zM80.251 85.353c-.87-1.65-3.396-2.04-6.052-1.91a16.55 16.55 0 00-4.18.651c-1.48.434-3.484 1.433-2.613 3.473.566 1.39 2.57 1.954 4.006 2.432 1.655.564 3.484.998 4.746 1.736.74.434 1.524 1.563 2.57 1.433 1.044-.13 1.698-2.214 1.915-3.256.305-1.607.175-3.56-.392-4.559z" />
  <path fill-rule="evenodd" clip-rule="evenodd" d="M68.103 42.112C31.047 42.112.87 72.155.87 109.492c0 37.336 30.394 67.423 67.275 67.423 37.448 0 67.798-30.043 67.798-67.38-.043-37.38-30.393-67.423-67.841-67.423zM28.652 156.77a10.757 10.757 0 01-2.482-3.039c-5.748-9.16-8.97-41.548-1.568-52.531 2.352-3.864 4.834-2.084 4.006.911-1.436 6.686-.566 10.42 2.7 17.67 3.631 7.609 12.59 17.321 19.008 24.278v.001c2.665 2.887 4.89 5.301 6.117 6.893 7.185 9.29 9.58 16.063 9.536 17.887-.043 1.389-.305 2.3-2.787 2.083-12.932-.998-25.516-6.382-34.53-14.153zm99.052-30.575l.054-.162C138.6 89.521 111.647 46.497 64.837 48.19c-2.961.174-5.4 1.086-3.222 2.779 6.662 5.123 10.233 11.765 11.495 17.8.087.52.349.825 1.045 1.042 3.049.825 10.756 3.864 13.15 5.687.95.722 1.892 1.69 2.868 2.693 1.487 1.528 3.052 3.136 4.84 4.08 3.412 1.8 6.769 3.27 10.024 4.698h.003c1.77.777 3.511 1.54 5.213 2.335 2.134.955 6.053 3.56 5.792 6.642-.041.486-.157.952-.269 1.404-.129.518-.254 1.018-.254 1.505 0 .562.232 1.19.45 1.783.136.368.267.723.334 1.039.446 2.111.563 4.278.348 6.425-.305 2.301-1.045 5.948-2.351 8.076a9.2 9.2 0 01-.429.591c-.375.49-.74.967-.834 1.623a11.245 11.245 0 01-.697 2.518c-.13.217-.13.608.131.651 5.138 1.91 10.494 5.34 12.889 7.12 1.22.88 1.83-.952 2.341-2.486zm-18.975-20.828a13.067 13.067 0 01-.13-1.215c0-.359.594-.806 1.046-1.147.095-.072.184-.139.26-.199a13.968 13.968 0 011.785-1.259c.14-.07.223.055.273.13.013.019.023.035.032.043 1.742 2.605 1.089 9.074-.174 12.157-.131.303-.392.434-.523.217-.653-1.39-1.567-2.649-2.656-3.3a.683.683 0 01-.217-.521 12.16 12.16 0 00.304-4.906zM68.495 74.239c-7.708-1.867-14.152.564-16.373 2.344-4.18 3.3-7.446 8.64-6.14 16.237.523 3.257 1.524 5.992 3.136 8.249 4.45 6.297 11.622 9.674 18.79 13.048 3.21 1.512 6.42 3.023 9.382 4.796a.63.63 0 00.915-.131l.016-.023c1.604-2.334 2.91-4.235 5.601-5.36 2.43-1 6.123-.808 9.537-.63h.003c.44.023.875.046 1.303.066 3.875.173 8.055-.174 9.449-2.171 1.698-2.388 1.611-7.163-.958-8.64-.742-.415-1.668-.622-2.595-.829-.816-.183-1.633-.365-2.326-.69-1.088-.478-1.916-1.433-2.525-2.735-.48-1.086-.958-2.866-.305-4.038.556-1.066 2.037-.75 3.246-.49l.063.013c2.395.564 6.445 1.128 8.752.13.654-.347-1.785-1.997-2.699-2.431-2.15-1.062-4.607-1.873-7.06-2.684-2.765-.913-5.525-1.825-7.832-3.09-1.545-.858-2.923-1.961-4.307-3.07-1.7-1.36-3.408-2.727-5.447-3.66a74.477 74.477 0 00-11.626-4.211zM37.187 59.391c-1.873-.217-1.916-1.606-1.133-2.127a47.598 47.598 0 018.753-4.515 4.145 4.145 0 012.438-.391c2.482.26 6.575 1.91 11.278 5.253 5.617 3.994 10.668 11.635 7.316 11.027a34.489 34.489 0 00-3.702-.52c-1.44-.124-2.611-.093-3.57-.067-.722.02-1.324.036-1.83-.02a2.276 2.276 0 01-1.262-.695c-4.746-4.255-10.233-6.946-18.288-7.945zm51.817 59.652a3.827 3.827 0 00-1.655 2.214c-.027.09-.069.215-.118.361-.187.558-.474 1.413-.404 1.723.067.37.58.897.969 1.297.112.116.215.222.293.309a35.233 35.233 0 002.744 2.909 7.342 7.342 0 001.61 1.259c.604.301 1.44.37 2.348.445v.001c.272.022.55.045.831.075l.035.004c3.344.346 7.026.728 8.892-1.176.218-.217.305-.868.348-1.303.206-1.335.871-2.369 1.537-3.405.741-1.154 1.484-2.31 1.598-3.888a6.094 6.094 0 00-.348-2.605 2.83 2.83 0 00-1.437-1.737c-1.213-.509-2.098.102-2.896.652-.291.201-.57.393-.849.521-1.622.768-4 .934-6.289 1.093l-.294.021-.21.014c-.295.021-.592.039-.889.058h-.001c-2.234.139-4.432.277-5.815 1.158zM22.948 68.031c.385-.43.883-.746 1.437-.912a37.386 37.386 0 0123.557 1.997c1.393.608 2.047 1.476 1.132 2.084-1.176.695-4.703 2.996-6.662 4.819-.566.478-1.568.521-2.177.434l-.246-.032c-7.157-.935-11.025-1.44-21.875 2.68-1.698.695-3.222-.26-2.438-1.563 1.437-2.648 4.833-7.033 7.272-9.507zM8.36 95.816a2.946 2.946 0 00-.653 1.606c-2.787 13.502-.566 24.79 2.09 31.997.61 1.563 3.048.955 2.961-2.388.016-.605.023-1.275.03-2.002.082-9.085.246-27.125 21.09-39.546 1.262-.738 2.35-1.476 1.828-2.778-.305-.738-1.655-.868-3.484-.608-14.064 2.475-23.121 12.59-23.862 13.72zm27.738 17.279c-3.963-9.638-1.394-18.278.392-21.577.87-1.65 1.741-2.735 2.873-2.431 1.22.347 1.525 1.606 1.699 3.907 1.263 19.233 12.932 25.702 27.563 32.518 11.583 5.904 24.733 12.633 35.75 28.957 1.654 2.345 1.916 3.777.043 5.123-6.706 4.559-12.802 7.771-21.728 9.855-1.35.304-2.743.087-3.92-2.995-6.741-17.265-15.963-24.728-24.496-31.632-7.174-5.805-13.86-11.216-18.176-21.725zm73.067 38.335c.609 1.172 1.698 2.649 3.57.782 3.223-3.17 7.795-9.291 9.319-12.243.035-.077.074-.155.115-.235.258-.511.56-1.11.146-1.936-.74-1.519-4.877-6.165-7.664-8.292l-.033-.026c-1.085-.822-2.55-1.932-3.929-2.319a3.285 3.285 0 00-1.089-.13c-1.025.118-1.157.592-1.561 2.034l-.137.484c-.74 2.518-2.177 4.298-3.44 4.819a6.954 6.954 0 01-3.745.608c-1.088-.087-1.654.912-.914 1.65 4.137 4.515 6.706 9.204 9.362 14.804z" />
  <path d="M71.456 89.999c1.654.564 3.483.998 4.746 1.736.74.434 1.524 1.563 2.569 1.433 1.045-.13 1.698-2.214 1.916-3.256.305-1.563.13-3.517-.392-4.516-.87-1.65-3.397-2.04-6.053-1.91-1.415.038-2.82.257-4.18.651-1.48.435-3.483 1.433-2.612 3.474.566 1.302 2.569 1.91 4.005 2.388z" />
</svg>
