<svg xmlns="http://www.w3.org/2000/svg" viewBox="0 0 966.787 543.733" xml:space="preserve">
    <path style="fill:#000000;fill-opacity:1;fill-rule:nonzero;stroke:none" d="M3639.75 4023.47h54.52l400.81-580.52v580.52h52.5v-672.39h-51.5l-404.85 584.56v-584.56h-51.48v672.39M4588.79 3650.93c-1.01 72.69-38.36 147.4-130.24 147.4-83.79 0-132.26-64.61-146.39-147.4zm-335.2-54.52c0 136.29 78.75 247.35 206.98 247.35 123.17 0 190.82-98.94 180.71-236.24h-332.16v-11.11c1.02-110.05 47.46-211.01 162.56-211.01 61.58 0 113.07 25.24 139.32 45.44l22.21-41.4c-30.29-22.21-85.82-49.47-163.56-49.47-147.4 0-216.06 118.12-216.06 256.44M4697.79 3832.66h56.54l117.13-400.82 126.19 400.82h51.49l126.2-401.82 118.12 401.82h52.51l-145.39-481.58h-48.46l-130.24 405.85-130.24-405.85h-48.46l-145.39 481.58M5810.34 3604.49l-225.13 418.98h62.59l190.81-363.45h2.02l190.82 363.45h56.54l-223.13-418.98v-253.41h-54.52v253.41M6424.16 3591.36c0 108.03-57.55 206.97-167.59 206.97-109.04 0-158.51-96.92-158.51-204.95 0-109.04 53.51-207.98 162.54-207.98 110.04 0 163.56 96.93 163.56 205.96zm-381.63 0c0 121.16 64.61 252.4 216.05 252.4 151.45 0 221.11-130.24 221.11-250.38 0-121.15-68.65-253.41-220.1-253.41-151.44 0-217.06 130.24-217.06 251.39M6580.52 3832.66h52.51v-83.8c18.17 35.34 61.58 94.9 129.23 94.9 22.2 0 38.36-5.05 46.44-8.08l-13.13-49.46c-8.08 3.03-19.18 7.07-39.38 7.07-66.63 0-110.05-78.76-123.16-107.03v-335.18h-52.51v481.58M6963.13 3621.65l211.02 211.01h65.63l-213.03-211.01 224.13-270.57h-65.63zm-57.53 456.34h52.5v-726.91h-52.5v726.91M3780.09 2672.61c128.21 0 180.71 58.56 180.71 147.41 0 83.8-50.48 144.37-178.7 144.37h-85.81v-291.78zm-139.33 339.23h146.39c141.35 0 230.19-69.67 230.19-189.81 0-121.14-83.8-196.87-236.25-196.87h-84.8v-285.71h-55.53v672.39M4102.12 2480.79v340.24h52.51V2491.9c0-70.68 25.23-116.11 98.93-116.11 71.69 0 131.24 67.64 147.41 95.91v349.33h52.49v-388.7c0-38.36 4.04-74.71 9.09-92.88h-53.51c-3.02 16.15-7.07 52.5-7.07 78.75-23.22-36.35-77.74-89.86-159.51-89.86-100.96 0-140.34 65.63-140.34 152.45M4911.82 2579.73c0 105-40.39 204.95-157.5 204.95-41.39 0-89.86-24.23-117.12-54.52v-337.21c22.21-11.1 55.52-19.18 93.9-19.18 122.15 0 180.72 106.01 180.72 205.96zm-327.11-215.05v701.68h52.49V2776.6c29.28 33.32 76.74 55.53 126.21 55.53 137.29 0 203.93-110.04 203.93-250.38 0-135.29-90.87-253.41-238.27-253.41-57.54 0-111.05 14.13-144.36 36.34M5075.34 3066.36h52.51v-726.91h-52.51v726.91M5284.32 2821.03h53.5v-481.58h-53.5zm-13.13 142.35c0 23.22 18.18 40.39 39.39 40.39 22.19 0 40.37-17.17 40.37-40.39s-18.18-41.4-40.37-41.4c-21.21 0-39.39 18.18-39.39 41.4M5438.77 2580.74c0 152.45 87.84 251.39 212.02 251.39 71.69 0 117.12-27.26 143.36-50.48l-27.26-38.36c-27.25 23.22-63.6 43.41-117.1 43.41-107.03 0-155.49-92.88-155.49-203.94 0-107.02 47.46-208.99 154.48-208.99 55.53 0 101.96 24.23 123.17 43.41l23.22-39.37c-26.25-23.22-76.73-49.47-149.43-49.47-138.31 0-206.97 123.17-206.97 252.4M3625.61 1327.8v672.4h143.36v-557.29h250.39V1327.8h-393.75M4125.79 1327.8v491.7h135.28v-491.7zm67.65 555.28c-47.46 0-81.79 37.36-81.79 80.78 0 42.4 34.33 78.75 81.79 78.75 47.45 0 82.78-36.35 82.78-78.75 0-43.42-35.33-80.78-82.78-80.78M4513.47 1431.8c9.08-3.03 30.28-11.12 67.64-11.12 74.71 0 119.12 55.53 119.12 156.49 0 91.88-31.28 148.41-103.98 148.41-42.39 0-74.71-27.25-82.78-37.35zm0 622.92v-273.61c22.21 22.23 65.62 50.49 120.13 50.49 123.19 0 209-84.8 209-254.43 0-167.58-113.08-261.48-261.49-261.48-111.06 0-178.7 28.27-201.92 39.38v699.65h134.28M5220.17 1701.36c-8.08 5.04-23.23 11.11-51.51 11.11-59.55 0-94.89-52.51-107.01-74.71V1327.8h-134.28v491.7h134.28v-66.65c21.2 36.35 61.59 78.75 124.18 78.75 36.35 0 55.53-7.07 66.64-13.14l-32.3-117.1M5560.39 1545.89h-17.17c-78.74 0-133.26-23.24-133.26-80.78 0-36.34 29.29-51.48 59.56-51.48 48.47 0 76.74 28.27 90.87 43.4zm15.15-218.09c-4.05 12.13-7.06 37.35-8.09 52.51-22.2-26.25-68.65-64.62-138.31-64.62-83.8 0-148.41 50.47-148.41 138.32 0 128.22 132.26 174.66 262.49 174.66h17.17v28.27c0 42.41-17.17 68.64-79.76 68.64-63.6 0-107.02-33.3-125.19-46.43l-58.56 81.77c29.28 26.25 93.9 70.68 198.9 70.68 134.28 0 197.88-51.5 197.88-181.73v-176.68c0-66.63 7.06-114.07 14.13-145.39h-132.25M6094.45 1701.36c-8.07 5.04-23.22 11.11-51.48 11.11-59.57 0-94.91-52.51-107.03-74.71V1327.8h-134.28v491.7h134.28v-66.65c21.21 36.35 61.59 78.75 124.19 78.75 36.33 0 55.52-7.07 66.63-13.14l-32.31-117.1M6175.21 1819.5h143.35l109.05-324.1h5.05l99.95 324.1h138.32L6468 1275.32c-43.42-116.11-94.91-183.75-229.18-183.75-41.4 0-65.63 6.04-75.72 9.08l19.18 106.01c7.06-2.02 18.17-5.04 47.45-5.04 68.65 0 92.88 33.3 112.06 85.81l18.17 50.47-184.75 481.6" transform="matrix(.13333 0 0 -.13333 0 543.733)"/>
    <path style="fill:#fff;fill-opacity:1;fill-rule:nonzero;stroke:none" d="M1830.57 2008.74c-4.74-24.69-19.79-72.37-43.86-75.47-24.25-3.1-41.72 22.9-59.11 32.64-29.34 16.37-70.83 27.08-109.17 39.77-33.08 10.96-78.43 24.53-91.73 56.09-19.93 46.99 26.63 69.22 60.15 79.54 31.58 9.7 54.69 13.35 95.86 15.27 60.56 2.91 118.38-5.76 138.71-43.83 12.26-22.93 16-68.42 9.15-104.01zm555.91-30.29c-105.48 51.62-242.47 77.48-342.15 132.85-78.92 43.76-139.43 116.04-224.36 154.99-86.64 42.42-217.05 85.06-266.9 97.35-176.22 43.35-324.24-13.1-375.58-53.73-95.86-75.75-170.75-198.88-141.53-376.02 12.38-74.88 35.43-137.87 72.06-189.67 148.64-209.94 426.84-278.14 647.23-410.58 7.77-5.29 15.88-3.88 20.84 2.87 37.02 54.44 67.11 98.26 129.46 124.19 63.3 26.43 162.92 17.45 248.81 13.27 88.73-4.29 184.51 4.04 216.69 49.92 38.45 54.76 36.21 165.1-22.48 198.81-31.49 18.15-78.44 18.98-112.69 34.77-24.99 11.55-44.26 33.16-58.04 63.21-11.56 25.14-22.3 66.42-7.32 93.35 13.79 24.81 48.56 17.79 76.49 11.3 55.35-12.71 147.84-26.18 201.09-2.82 15.69 8.01-40.4 45.57-61.62 55.94M157.34 1830.22c3.183 17.97 4.574 22.97 15.394 37.1 17.149 25.64 225.188 259.08 547.637 315.65 42.434 6.08 73.008 3.14 79.961-13.87 12.188-29.82-12.504-47-42.219-64.2-517.156-309.08-480.496-768.56-485.449-956.52 1.559-76.89-53.965-90.88-67.828-54.66-60.691 165.56-111.723 425.06-47.496 736.5M507.273 2507.12c10.598 11.24 17.508 16.4 33.223 20.83 198.621 49.34 397.863 17.93 541.344-46.05 32.21-14.26 46.72-34.47 25.57-48.04-26.9-15.63-108.422-68.65-153.48-110.64-13.102-11.29-36.453-11.88-50.235-10.05-168.199 22.17-255.558 35.27-508.414-60.58-38.797-16.31-73.695 5.88-55.84 36.38 33.668 60.3 111.961 161.18 167.832 218.15M834.086 2705.56c-43.481 4.95-44.098 36.76-25.711 49.15 47.25 33.1 123.914 73.07 201.035 103.65 23.09 9.15 35.01 11.53 56.16 9.41 56.83-5.69 150.94-43.95 258.92-121 129.5-92.4 244.7-267.94 167.66-253.73-48.73 8.44-27.51 6.12-84.63 12.39-58.36 5.17-96.66-.82-123.56 1.92-11.72.96-20.95 8.76-29.2 15.52-109.3 98.01-235.56 160.21-420.674 182.69" transform="matrix(.13333 0 0 -.13333 0 543.733)"/>
    <path style="fill:#fff;fill-opacity:1;fill-rule:nonzero;stroke:none" d="M2914.7 1171.28c-11.66-36.39-25.51-82.04-55.19-60.86-55.14 41.03-177.7 119.91-296.39 163.69-6.37 1.42-5.65 10.27-3.4 15.26 8.41 18.64 12.18 35.88 15.82 57.94 3.38 20.64 18.27 34.43 28.51 50.98 30.42 48.59 46.9 133.29 53.54 186.13 5.04 48.55 2.04 102.65-8.48 147.74-4.49 19.26-18.38 44.09-18.01 65.39.36 20.84 10.16 42.67 12.17 67.27 5.87 71.18-83.96 130.53-132.99 153.4-111.22 51.93-229.43 98.38-349.56 161.76-67.81 35.77-122.23 114.23-176.64 156.34-54.96 42.41-231.6 112.47-302.2 131.12-15.94 5.02-21.59 11.64-24.29 24.33-29.1 138.89-111.07 291.88-264.18 410.19-49.58 38.53 6.02 60.45 74.3 63.78 1076.36 36.9 1695.76-953.65 1446.99-1794.46" transform="matrix(.13333 0 0 -.13333 0 543.733)"/>
    <path style="fill:#fff;fill-opacity:1;fill-rule:nonzero;stroke:none" d="M2477.65 1647.38c-.77 5.48-3.13 24.03-3.11 27.86.06 9.79 20.18 23.11 29.56 30.56 14.23 11.33 30.7 23.77 41.49 29.21 3.9 2.45 6.49-3.22 7.02-4.34 39.68-60.23 24.8-209.1-3.87-279.89-3.32-7.2-9.39-10-11.86-4.73-14.63 31.94-36.34 60.69-61.27 76.47-4.6 3.57-4.95 11.01-4.6 12.39 8.02 33.64 12.19 70.95 6.64 112.47M1986.94 1280.96c8.55 24.68 18.5 39.22 37.68 51.22 36.11 22.65 96.12 23.63 154.04 27.59 56.12 3.79 116.08 7.07 156.01 25.52 24.16 11.11 48.33 42.76 85.67 26.64 17.68-7.62 27.3-23.82 32.58-39.93 5.92-17.95 10.23-36.08 8.39-60.14-5.37-69.44-61.77-103.35-71.92-168.26-.94-10.03-2.65-24.55-8.41-30.32-43.06-43.83-128.22-34.61-205.21-26.86-27.56 2.74-54.8 3.49-73.44 12.37-13.45 6.29-25.52 19.12-36.7 29.49-24.63 22.83-38.56 39.63-63.25 67.32-8.38 9.38-27.36 26.36-28.61 36.67-1.06 9.89 9.52 38.28 13.17 48.69M638.656 462.559c-28.258 23.152-40.414 42.683-56.664 70.101-131.824 210.711-205.707 956.92-35.836 1210.02 54.059 88.68 111.328 47.8 92.297-20.75-32.535-153.88-12.594-240.11 62.231-407.08 117.593-248.13 480.556-592.639 576.646-717.588 164.72-214.282 219.54-370.403 218.79-412.461-.89-32.262-7.08-52.832-63.62-48.059-298.24 23.637-586.559 147.289-793.844 325.817" transform="matrix(.13333 0 0 -.13333 0 543.733)"/>
    <path style="fill:#fff;fill-opacity:1;fill-rule:nonzero;stroke:none" d="M809.16 1468.87c-90.969 221.61-31.566 421.16 8.613 496.85 20.262 38.19 40.063 63.14 65.918 55.96 28.133-7.85 34.633-36.64 38.516-90.02 28.629-442.98 296.573-592.13 633.123-748.53 265.51-135.73 567.6-290.911 820.78-666.81 38.32-54.261 43.85-87.191.59-118.281-154.36-105.379-294.2-178.828-498.79-226.539-30.8-7.211-62.56-1.801-89.84 68.57-284.22 732.309-761.41 699.301-978.91 1228.8M2569.57 568.539c-43.27-43.25-67.81-9.34-81.95 18.43-60.6 128.863-119.79 236.711-215.24 341.172-16.54 16.761-3.8 40.289 20.51 37.898 31.07-2.488 51.43-.789 85.61 13.902 28.91 12.418 62.04 52.959 78.56 111.189 12.04 42.48 12.6 54.98 38.63 57.63 6.47.61 18.31-1.02 25.49-3.09 31.68-9.02 65.7-34.9 90.56-53.97 63.76-48.71 158.88-156.208 175.53-190.989 10.57-22.141.45-37.172-5.51-49.813-33.36-68.218-138.58-209.578-212.19-282.359" transform="matrix(.13333 0 0 -.13333 0 543.733)"/>
    <path style="fill:#000000;fill-opacity:1;fill-rule:nonzero;stroke:none" d="M2569.57 568.48c-43.27-43.25-67.81-9.339-81.95 18.43-60.6 128.86-119.79 236.711-215.24 341.172-16.54 16.758-3.8 40.297 20.51 37.898 31.07-2.488 51.43-.789 85.61 13.899 28.91 12.422 62.04 52.961 78.56 111.191 12.04 42.48 12.6 54.98 38.63 57.63 6.47.61 18.31-1.02 25.49-3.09 31.68-9.02 65.7-34.9 90.56-53.97 63.76-48.7 158.88-156.199 175.53-190.992 10.57-22.136.45-37.168-5.51-49.808-33.36-68.219-138.58-209.57-212.19-282.36zM809.348 1469.09c-90.969 221.6-31.571 421.15 8.613 496.84 20.262 38.19 40.062 63.14 65.918 55.96 28.133-7.85 34.633-36.64 38.516-90.02 28.625-442.98 296.565-592.13 633.115-748.52 265.52-135.74 567.61-290.909 820.79-666.811 38.32-54.269 43.85-87.199.58-118.277-154.36-105.383-294.19-178.84-498.78-226.543-30.8-7.207-62.57-1.797-89.85 68.57C1504.03 972.59 1026.84 939.59 809.348 1469.09zm-651.743 361.23c3.192 17.97 4.583 22.97 15.403 37.1 17.148 25.63 225.18 259.08 547.637 315.64 42.425 6.07 73.003 3.14 79.957-13.87 12.187-29.82-12.504-47.01-42.211-64.2-517.164-309.08-480.5-768.56-485.453-956.52 1.558-76.88-53.961-90.88-67.833-54.66-60.687 165.56-111.722 425.07-47.5 736.51zm349.668 677.17c10.598 11.24 17.508 16.4 33.223 20.83 198.621 49.33 397.863 17.92 541.344-46.06 32.21-14.26 46.72-34.47 25.57-48.03-26.9-15.63-108.422-68.65-153.48-110.64-13.102-11.29-36.453-11.88-50.235-10.05-168.199 22.17-255.558 35.27-508.414-60.58-38.797-16.32-73.695 5.88-55.84 36.37 33.668 60.31 111.961 161.18 167.832 218.16zM1986.94 1281.33c8.55 24.68 18.5 39.22 37.68 51.23 36.11 22.64 96.12 23.62 154.04 27.58 56.12 3.79 116.08 7.07 156.01 25.52 24.16 11.11 48.33 42.76 85.67 26.64 17.68-7.62 27.3-23.82 32.58-39.93 5.92-17.95 10.23-36.07 8.39-60.14-5.37-69.44-61.77-103.35-71.92-168.26-.94-10.03-2.65-24.55-8.41-30.32-43.06-43.83-128.22-34.61-205.21-26.86-27.56 2.74-54.8 3.49-73.44 12.37-13.45 6.3-25.52 19.12-36.7 29.49-24.63 22.83-38.56 39.63-63.25 67.32-8.38 9.38-27.36 26.36-28.61 36.67-1.06 9.89 9.52 38.28 13.17 48.69zM834.086 2705.92c-43.481 4.96-44.098 36.76-25.711 49.15 47.25 33.11 123.914 73.08 201.035 103.66 23.09 9.14 35.01 11.53 56.16 9.4 56.83-5.69 150.94-43.95 258.92-120.99 129.5-92.4 244.7-267.94 167.66-253.73-48.73 8.44-27.51 6.11-84.63 12.38-58.36 5.18-96.66-.81-123.56 1.93-11.72.95-20.95 8.76-29.2 15.51-109.3 98.01-235.56 160.21-420.674 182.69zm343.404-395.64c51.34 40.63 199.36 97.08 375.58 53.73 49.85-12.29 180.26-54.93 266.9-97.36 84.93-38.94 145.44-111.23 224.36-154.99 99.68-55.36 236.67-81.22 342.15-132.84 21.22-10.37 77.31-47.92 61.62-55.94-53.25-23.36-145.74-9.89-201.09 2.82-27.93 6.49-62.7 13.52-76.49-11.3-14.98-26.93-4.24-68.21 7.32-93.35 13.78-30.05 33.05-51.66 58.04-63.21 34.25-15.79 81.2-16.62 112.69-34.77 58.69-33.71 60.93-144.05 22.48-198.81-32.18-45.87-127.96-54.2-216.69-49.92-85.89 4.18-185.51 13.16-248.81-13.27-62.35-25.93-92.44-69.75-129.46-124.19-4.96-6.75-13.07-8.16-20.84-2.87-220.39 132.44-498.59 200.65-647.23 410.58-36.63 51.8-59.68 114.79-72.06 189.67-29.22 177.14 45.67 300.27 141.53 376.02zm1300.16-662.53c-.77 5.48-3.13 24.03-3.11 27.86.06 9.79 20.18 23.11 29.56 30.56 14.23 11.33 30.7 23.77 41.49 29.21 3.9 2.45 6.49-3.22 7.02-4.34 39.68-60.23 24.8-209.1-3.87-279.89-3.32-7.2-9.39-10-11.86-4.73-14.63 31.94-36.34 60.69-61.27 76.47-4.6 3.57-4.95 11.01-4.6 12.39 8.02 33.64 12.19 70.95 6.64 112.47zm437.05-476.1c-11.66-36.39-25.51-82.03-55.19-60.86-55.14 41.03-177.7 119.91-296.39 163.69-6.37 1.43-5.65 10.27-3.4 15.26 8.41 18.65 12.18 35.88 15.82 57.94 3.38 20.64 18.27 34.43 28.51 50.98 30.42 48.59 46.9 133.29 53.54 186.13 5.04 48.55 2.04 102.65-8.48 147.74-4.49 19.26-18.38 44.09-18.01 65.39.36 20.84 10.16 42.67 12.17 67.27 5.87 71.18-83.96 130.52-132.99 153.4-111.22 51.93-229.43 98.37-349.56 161.75-67.81 35.77-122.23 114.24-176.64 156.35-54.96 42.4-231.6 112.47-302.2 131.11-15.94 5.02-21.59 11.65-24.29 24.34-29.1 138.88-111.07 291.88-264.18 410.19-49.58 38.53 6.02 60.45 74.3 63.78C2544.07 3003 3163.47 2012.45 2914.7 1171.65zM638.656 462.93c-28.258 23.152-40.414 42.679-56.664 70.101-131.824 210.711-205.707 956.919-35.836 1210.019 54.059 88.69 111.328 47.8 92.297-20.75-32.535-153.88-12.594-240.11 62.231-407.08 117.593-248.13 480.556-592.638 576.646-717.591 164.72-214.277 219.54-370.399 218.79-412.457-.89-32.262-7.08-52.832-63.62-48.051-298.24 23.629-586.559 147.277-793.844 325.809zm905.504 2641.83C693.301 3104.76 0 2412.92 0 1552.57 0 692.25 697.52 0 1545.12 0c860.35 0 1556.61 691.891 1556.61 1552.22 0 860.38-697.26 1552.54-1557.57 1552.54" transform="matrix(.13333 0 0 -.13333 0 543.733)"/>
    <path style="fill:#000000;fill-opacity:1;fill-rule:nonzero;stroke:none" d="M1618.66 2005.68c38.34-12.69 79.82-23.4 109.16-39.77 17.39-9.74 34.86-35.74 59.12-32.64 24.06 3.1 39.1 50.78 43.85 75.47 6.85 35.59 3.11 81.08-9.15 104.01-20.32 38.07-78.15 46.74-138.71 43.83-41.17-1.92-64.27-5.57-95.86-15.27-33.52-10.32-80.07-32.55-60.15-79.54 13.3-31.56 58.65-45.13 91.74-56.09" transform="matrix(.13333 0 0 -.13333 0 543.733)"/>
</svg>