<svg viewBox="0 0 327 266" fill="none" xmlns="http://www.w3.org/2000/svg">
<path d="M23.5527 154.725C22.5563 154.666 20.0984 154.607 18.2236 154.607C16.3488 154.607 13.8909 154.666 12.8944 154.725C12.8354 154.725 12.7763 154.548 12.8354 154.489C14.9464 153.67 15.8247 152.503 15.8247 147.595V116.528H12.3113C6.56888 116.528 4.17003 117.812 2.23619 123.068C2.17715 123.127 2 123.068 2 123.009C2.23619 119.621 2.23619 115.886 2.11809 113.841C2.11809 113.723 2.17714 113.664 2.29524 113.664C3.46883 113.723 7.68341 113.782 10.4366 113.782H26.018C28.7711 113.782 32.9857 113.723 34.1593 113.664C34.2774 113.664 34.3364 113.723 34.3364 113.841C34.2183 115.886 34.2183 119.621 34.4545 123.009C34.4545 123.068 34.2774 123.127 34.2183 123.068C32.2845 117.812 29.8857 116.528 24.1432 116.528H20.6298V147.595C20.6298 152.503 21.5081 153.67 23.6191 154.489C23.6708 154.548 23.6118 154.725 23.5527 154.725Z" fill="#D3BA81"/>
<path d="M23.5527 154.725C22.5563 154.666 20.0984 154.607 18.2236 154.607C16.3488 154.607 13.8909 154.666 12.8944 154.725C12.8354 154.725 12.7763 154.548 12.8354 154.489C14.9464 153.67 15.8247 152.503 15.8247 147.595V116.528H12.3113C6.56888 116.528 4.17003 117.812 2.23619 123.068C2.17715 123.127 2 123.068 2 123.009C2.23619 119.621 2.23619 115.886 2.11809 113.841C2.11809 113.723 2.17714 113.664 2.29524 113.664C3.46883 113.723 7.68341 113.782 10.4366 113.782H26.018C28.7711 113.782 32.9857 113.723 34.1593 113.664C34.2774 113.664 34.3364 113.723 34.3364 113.841C34.2183 115.886 34.2183 119.621 34.4545 123.009C34.4545 123.068 34.2774 123.127 34.2183 123.068C32.2845 117.812 29.8857 116.528 24.1432 116.528H20.6298V147.595C20.6298 152.503 21.5081 153.67 23.6191 154.489C23.6708 154.548 23.6118 154.725 23.5527 154.725Z" fill="#D3BA81"/>
<path d="M53.2464 116.536H45.9835V133.298H53.2464C59.7491 133.298 62.613 130.73 62.613 124.891C62.6204 119.046 59.7491 116.536 53.2464 116.536ZM58.5165 135.395L64.9011 147.249C66.835 150.865 68.6507 152.445 70.8134 152.445C71.3374 152.445 71.9869 152.268 71.9869 152.268C72.046 152.268 72.1641 152.445 72.1641 152.504C71.5219 153.847 69.8243 155.073 67.5952 155.073C64.4287 155.073 62.613 153.434 60.2732 149.057L53.3645 136.037H45.9835V147.596C45.9835 152.504 46.8618 153.67 48.9728 154.49C49.0318 154.549 48.9728 154.726 48.9137 154.726C47.9173 154.667 45.4594 154.608 43.5846 154.608C41.7098 154.608 39.4291 154.667 38.4326 154.726C38.3736 154.726 38.3145 154.549 38.3736 154.49C40.3074 153.67 41.1858 152.622 41.1858 147.891V120.559C41.1858 115.827 40.3074 114.779 38.3736 113.96C38.3145 113.901 38.3736 113.724 38.4326 113.724C38.4326 113.724 40.1893 113.783 44.5811 113.783H53.3055C62.6204 113.783 67.6543 117.348 67.6543 124.707C67.6543 130.722 64.4361 134.288 58.5165 135.395Z" fill="#D3BA81"/>
<path d="M53.2464 116.536H45.9835V133.298H53.2464C59.7491 133.298 62.613 130.73 62.613 124.891C62.6204 119.046 59.7491 116.536 53.2464 116.536ZM58.5165 135.395L64.9011 147.249C66.835 150.865 68.6507 152.445 70.8134 152.445C71.3374 152.445 71.9869 152.268 71.9869 152.268C72.046 152.268 72.1641 152.445 72.1641 152.504C71.5219 153.847 69.8243 155.073 67.5952 155.073C64.4287 155.073 62.613 153.434 60.2732 149.057L53.3645 136.037H45.9835V147.596C45.9835 152.504 46.8618 153.67 48.9728 154.49C49.0318 154.549 48.9728 154.726 48.9137 154.726C47.9173 154.667 45.4594 154.608 43.5846 154.608C41.7098 154.608 39.4291 154.667 38.4326 154.726C38.3736 154.726 38.3145 154.549 38.3736 154.49C40.3074 153.67 41.1858 152.622 41.1858 147.891V120.559C41.1858 115.827 40.3074 114.779 38.3736 113.96C38.3145 113.901 38.3736 113.724 38.4326 113.724C38.4326 113.724 40.1893 113.783 44.5811 113.783H53.3055C62.6204 113.783 67.6543 117.348 67.6543 124.707C67.6543 130.722 64.4361 134.288 58.5165 135.395Z" fill="#D3BA81"/>
<path d="M106.139 154.784C104.965 154.725 100.751 154.666 97.9975 154.666H82.5933C78.2015 154.666 76.4448 154.725 76.4448 154.725C76.3858 154.725 76.3267 154.548 76.3858 154.489C78.3196 153.67 79.198 152.622 79.198 147.89V120.558C79.198 115.827 78.3196 114.779 76.3858 113.96C76.3267 113.9 76.3858 113.723 76.4448 113.723C76.4448 113.723 78.2015 113.782 82.5933 113.782H96.4697C99.2228 113.782 103.437 113.723 104.611 113.664C104.729 113.664 104.788 113.723 104.788 113.841C104.67 115.709 104.67 119.038 104.906 122.189C104.906 122.248 104.729 122.308 104.67 122.248C102.795 117.635 99.8649 116.528 94.5949 116.528H83.9957V132.235H91.4948C97.0011 132.235 98.8168 131.298 100.101 128.382C100.16 128.323 100.337 128.382 100.337 128.441C100.219 129.489 100.16 131.711 100.16 133.578C100.16 135.446 100.219 137.668 100.337 138.716C100.337 138.775 100.16 138.834 100.101 138.775C98.8095 135.852 96.9937 134.922 91.4948 134.922H83.9957V151.913H95.5323C101.858 151.913 104.257 150.857 106.191 145.602C106.25 145.543 106.427 145.602 106.427 145.661C106.191 149.049 106.191 152.555 106.309 154.6C106.309 154.725 106.25 154.784 106.139 154.784Z" fill="#D3BA81"/>
<path d="M106.139 154.784C104.965 154.725 100.751 154.666 97.9975 154.666H82.5933C78.2015 154.666 76.4448 154.725 76.4448 154.725C76.3858 154.725 76.3267 154.548 76.3858 154.489C78.3196 153.67 79.198 152.622 79.198 147.89V120.558C79.198 115.827 78.3196 114.779 76.3858 113.96C76.3267 113.9 76.3858 113.723 76.4448 113.723C76.4448 113.723 78.2015 113.782 82.5933 113.782H96.4697C99.2228 113.782 103.437 113.723 104.611 113.664C104.729 113.664 104.788 113.723 104.788 113.841C104.67 115.709 104.67 119.038 104.906 122.189C104.906 122.248 104.729 122.308 104.67 122.248C102.795 117.635 99.8649 116.528 94.5949 116.528H83.9957V132.235H91.4948C97.0011 132.235 98.8168 131.298 100.101 128.382C100.16 128.323 100.337 128.382 100.337 128.441C100.219 129.489 100.16 131.711 100.16 133.578C100.16 135.446 100.219 137.668 100.337 138.716C100.337 138.775 100.16 138.834 100.101 138.775C98.8095 135.852 96.9937 134.922 91.4948 134.922H83.9957V151.913H95.5323C101.858 151.913 104.257 150.857 106.191 145.602C106.25 145.543 106.427 145.602 106.427 145.661C106.191 149.049 106.191 152.555 106.309 154.6C106.309 154.725 106.25 154.784 106.139 154.784Z" fill="#D3BA81"/>
<path d="M135.126 139.661L127.863 121.969L120.6 139.661H135.126ZM137.296 154.726C137.237 154.667 137.237 154.438 137.237 154.438C139.754 153.501 140.337 152.216 138.056 146.732L136.3 142.466H119.493L117.972 146.142C115.751 151.515 115.802 153.146 119.146 154.438C119.146 154.438 119.146 154.674 119.087 154.726C118.031 154.667 115.92 154.608 113.935 154.608C112.178 154.608 110.008 154.667 108.783 154.726C108.724 154.667 108.724 154.438 108.724 154.438C111.359 153.213 112.532 151.515 114.754 146.142L128.638 112.388C128.697 112.329 128.933 112.329 128.992 112.388L143.223 146.725C145.511 152.275 146.33 153.264 148.375 154.431C148.375 154.431 148.375 154.667 148.316 154.718C147.024 154.659 145.208 154.6 142.751 154.6C140.344 154.608 138.411 154.667 137.296 154.726Z" fill="#D3BA81"/>
<path d="M135.126 139.661L127.863 121.969L120.6 139.661H135.126ZM137.296 154.726C137.237 154.667 137.237 154.438 137.237 154.438C139.754 153.501 140.337 152.216 138.056 146.732L136.3 142.466H119.493L117.972 146.142C115.751 151.515 115.802 153.146 119.146 154.438C119.146 154.438 119.146 154.674 119.087 154.726C118.031 154.667 115.92 154.608 113.935 154.608C112.178 154.608 110.008 154.667 108.783 154.726C108.724 154.667 108.724 154.438 108.724 154.438C111.359 153.213 112.532 151.515 114.754 146.142L128.638 112.388C128.697 112.329 128.933 112.329 128.992 112.388L143.223 146.725C145.511 152.275 146.33 153.264 148.375 154.431C148.375 154.431 148.375 154.667 148.316 154.718C147.024 154.659 145.208 154.6 142.751 154.6C140.344 154.608 138.411 154.667 137.296 154.726Z" fill="#D3BA81"/>
<path d="M172.141 114.491C172.783 114.491 173.426 114.255 173.78 114.026C173.839 114.026 174.016 114.085 174.016 114.144C174.016 117.126 174.252 120.042 174.717 123.024C174.717 123.083 174.54 123.142 174.481 123.083C171.787 118.064 167.801 115.665 163.528 115.665C159.372 115.665 156.501 118.233 156.501 122.086C156.501 126.699 159.719 127.984 166.104 130.966C171.256 133.357 177.234 136.339 177.234 143.462C177.234 150.703 172.2 155.552 164.347 155.552C158.198 155.552 154.449 152.747 152.515 152.747C151.991 152.747 151.46 152.924 151.113 153.153C151.054 153.153 150.876 153.094 150.935 153.035C151.467 150.171 151.755 147.079 152.05 143.167C152.05 143.108 152.286 143.108 152.286 143.108C153.984 148.828 157.615 152.799 164.524 152.799C170.089 152.799 172.961 149.529 172.961 144.975C172.961 140.244 170.266 138.664 163.587 135.571C158.376 133.18 152.227 130.604 152.227 123.658C152.227 117.119 157.32 112.912 163.646 112.912C167.462 112.912 169.979 114.491 172.141 114.491Z" fill="#D3BA81"/>
<path d="M172.141 114.491C172.783 114.491 173.426 114.255 173.78 114.026C173.839 114.026 174.016 114.085 174.016 114.144C174.016 117.126 174.252 120.042 174.717 123.024C174.717 123.083 174.54 123.142 174.481 123.083C171.787 118.064 167.801 115.665 163.528 115.665C159.372 115.665 156.501 118.233 156.501 122.086C156.501 126.699 159.719 127.984 166.104 130.966C171.256 133.357 177.234 136.339 177.234 143.462C177.234 150.703 172.2 155.552 164.347 155.552C158.198 155.552 154.449 152.747 152.515 152.747C151.991 152.747 151.46 152.924 151.113 153.153C151.054 153.153 150.876 153.094 150.935 153.035C151.467 150.171 151.755 147.079 152.05 143.167C152.05 143.108 152.286 143.108 152.286 143.108C153.984 148.828 157.615 152.799 164.524 152.799C170.089 152.799 172.961 149.529 172.961 144.975C172.961 140.244 170.266 138.664 163.587 135.571C158.376 133.18 152.227 130.604 152.227 123.658C152.227 117.119 157.32 112.912 163.646 112.912C167.462 112.912 169.979 114.491 172.141 114.491Z" fill="#D3BA81"/>
<path d="M185.444 139.366V120.559C185.444 115.827 184.566 114.779 182.632 113.96C182.573 113.901 182.632 113.724 182.691 113.724C183.687 113.783 185.968 113.842 187.843 113.842C189.718 113.842 191.998 113.783 192.995 113.724C193.054 113.724 193.113 113.901 193.054 113.96C191.12 114.779 190.242 115.827 190.242 120.559V139.476C190.242 148.644 194.279 152.15 201.66 152.15C208.746 152.15 212.791 148.12 212.791 139.07V121.843C212.791 116.824 212.031 114.957 209.396 113.96C209.337 113.901 209.396 113.724 209.455 113.724C210.51 113.783 212.326 113.842 214.319 113.842C216.371 113.842 218.186 113.783 219.183 113.724C219.242 113.724 219.301 113.901 219.242 113.96C216.607 114.957 215.847 116.824 215.847 121.843V139.248C215.847 150.578 209.816 155.538 200.797 155.538C191.474 155.545 185.444 150.578 185.444 139.366Z" fill="#D3BA81"/>
<path d="M185.444 139.366V120.559C185.444 115.827 184.566 114.779 182.632 113.96C182.573 113.901 182.632 113.724 182.691 113.724C183.687 113.783 185.968 113.842 187.843 113.842C189.718 113.842 191.998 113.783 192.995 113.724C193.054 113.724 193.113 113.901 193.054 113.96C191.12 114.779 190.242 115.827 190.242 120.559V139.476C190.242 148.644 194.279 152.15 201.66 152.15C208.746 152.15 212.791 148.12 212.791 139.07V121.843C212.791 116.824 212.031 114.957 209.396 113.96C209.337 113.901 209.396 113.724 209.455 113.724C210.51 113.783 212.326 113.842 214.319 113.842C216.371 113.842 218.186 113.783 219.183 113.724C219.242 113.724 219.301 113.901 219.242 113.96C216.607 114.957 215.847 116.824 215.847 121.843V139.248C215.847 150.578 209.816 155.538 200.797 155.538C191.474 155.545 185.444 150.578 185.444 139.366Z" fill="#D3BA81"/>
<path d="M240.379 116.536H233.116V133.298H240.379C246.881 133.298 249.752 130.73 249.752 124.891C249.745 119.046 246.874 116.536 240.379 116.536ZM245.649 135.395L252.033 147.249C253.967 150.865 255.783 152.445 257.945 152.445C258.47 152.445 259.119 152.268 259.119 152.268C259.178 152.268 259.296 152.445 259.296 152.504C258.654 153.847 256.956 155.073 254.727 155.073C251.561 155.073 249.752 153.434 247.405 149.057L240.497 136.037H233.116V147.596C233.116 152.504 233.994 153.67 236.105 154.49C236.164 154.549 236.105 154.726 236.046 154.726C235.049 154.667 232.591 154.608 230.717 154.608C228.842 154.608 226.561 154.667 225.565 154.726C225.506 154.726 225.447 154.549 225.506 154.49C227.439 153.67 228.318 152.622 228.318 147.891V120.559C228.318 115.827 227.439 114.779 225.506 113.96C225.447 113.901 225.506 113.724 225.565 113.724C225.565 113.724 227.321 113.783 231.713 113.783H240.438C249.752 113.783 254.786 117.348 254.786 124.707C254.786 130.722 251.561 134.288 245.649 135.395Z" fill="#D3BA81"/>
<path d="M240.379 116.536H233.116V133.298H240.379C246.881 133.298 249.752 130.73 249.752 124.891C249.745 119.046 246.874 116.536 240.379 116.536ZM245.649 135.395L252.033 147.249C253.967 150.865 255.783 152.445 257.945 152.445C258.47 152.445 259.119 152.268 259.119 152.268C259.178 152.268 259.296 152.445 259.296 152.504C258.654 153.847 256.956 155.073 254.727 155.073C251.561 155.073 249.752 153.434 247.405 149.057L240.497 136.037H233.116V147.596C233.116 152.504 233.994 153.67 236.105 154.49C236.164 154.549 236.105 154.726 236.046 154.726C235.049 154.667 232.591 154.608 230.717 154.608C228.842 154.608 226.561 154.667 225.565 154.726C225.506 154.726 225.447 154.549 225.506 154.49C227.439 153.67 228.318 152.622 228.318 147.891V120.559C228.318 115.827 227.439 114.779 225.506 113.96C225.447 113.901 225.506 113.724 225.565 113.724C225.565 113.724 227.321 113.783 231.713 113.783H240.438C249.752 113.783 254.786 117.348 254.786 124.707C254.786 130.722 251.561 134.288 245.649 135.395Z" fill="#D3BA81"/>
<path d="M293.728 154.784C292.554 154.725 288.34 154.666 285.586 154.666H270.182C265.79 154.666 264.034 154.725 264.034 154.725C263.975 154.725 263.916 154.548 263.975 154.489C265.908 153.67 266.787 152.622 266.787 147.89V120.558C266.787 115.827 265.908 114.779 263.975 113.96C263.916 113.9 263.975 113.723 264.034 113.723C264.034 113.723 265.79 113.782 270.182 113.782H284.066C286.819 113.782 291.034 113.723 292.207 113.664C292.325 113.664 292.384 113.723 292.384 113.841C292.266 115.709 292.266 119.038 292.502 122.189C292.502 122.248 292.325 122.308 292.266 122.248C290.391 117.635 287.461 116.528 282.191 116.528H271.592V132.235H279.091C284.597 132.235 286.413 131.298 287.697 128.382C287.756 128.323 287.934 128.382 287.934 128.441C287.815 129.489 287.756 131.711 287.756 133.578C287.756 135.446 287.815 137.668 287.934 138.716C287.934 138.775 287.756 138.834 287.697 138.775C286.406 135.852 284.59 134.922 279.091 134.922H271.592V151.913H283.129C289.454 151.913 291.853 150.857 293.787 145.602C293.846 145.543 294.023 145.602 294.023 145.661C293.787 149.049 293.787 152.555 293.905 154.6C293.905 154.725 293.846 154.784 293.728 154.784Z" fill="#D3BA81"/>
<path d="M293.728 154.784C292.554 154.725 288.34 154.666 285.586 154.666H270.182C265.79 154.666 264.034 154.725 264.034 154.725C263.975 154.725 263.916 154.548 263.975 154.489C265.908 153.67 266.787 152.622 266.787 147.89V120.558C266.787 115.827 265.908 114.779 263.975 113.96C263.916 113.9 263.975 113.723 264.034 113.723C264.034 113.723 265.79 113.782 270.182 113.782H284.066C286.819 113.782 291.034 113.723 292.207 113.664C292.325 113.664 292.384 113.723 292.384 113.841C292.266 115.709 292.266 119.038 292.502 122.189C292.502 122.248 292.325 122.308 292.266 122.248C290.391 117.635 287.461 116.528 282.191 116.528H271.592V132.235H279.091C284.597 132.235 286.413 131.298 287.697 128.382C287.756 128.323 287.934 128.382 287.934 128.441C287.815 129.489 287.756 131.711 287.756 133.578C287.756 135.446 287.815 137.668 287.934 138.716C287.934 138.775 287.756 138.834 287.697 138.775C286.406 135.852 284.59 134.922 279.091 134.922H271.592V151.913H283.129C289.454 151.913 291.853 150.857 293.787 145.602C293.846 145.543 294.023 145.602 294.023 145.661C293.787 149.049 293.787 152.555 293.905 154.6C293.905 154.725 293.846 154.784 293.728 154.784Z" fill="#D3BA81"/>
<path d="M320.907 114.491C321.549 114.491 322.191 114.255 322.546 114.026C322.605 114.026 322.782 114.085 322.782 114.144C322.782 117.126 323.018 120.042 323.483 123.024C323.483 123.083 323.306 123.142 323.247 123.083C320.553 118.064 316.567 115.665 312.293 115.665C308.138 115.665 305.267 118.233 305.267 122.086C305.267 126.699 308.485 127.984 314.869 130.966C320.021 133.357 326 136.339 326 143.462C326 150.703 320.966 155.552 313.113 155.552C306.964 155.552 303.215 152.747 301.281 152.747C300.757 152.747 300.225 152.924 299.878 153.153C299.819 153.153 299.642 153.094 299.701 153.035C300.225 150.171 300.521 147.079 300.816 143.167C300.816 143.108 301.052 143.108 301.052 143.108C302.75 148.828 306.381 152.799 313.29 152.799C318.855 152.799 321.726 149.529 321.726 144.975C321.726 140.244 319.032 138.664 312.352 135.571C307.141 133.18 300.993 130.604 300.993 123.658C300.993 117.119 306.086 112.912 312.412 112.912C316.22 112.912 318.744 114.491 320.907 114.491Z" fill="#D3BA81"/>
<path d="M320.907 114.491C321.549 114.491 322.191 114.255 322.546 114.026C322.605 114.026 322.782 114.085 322.782 114.144C322.782 117.126 323.018 120.042 323.483 123.024C323.483 123.083 323.306 123.142 323.247 123.083C320.553 118.064 316.567 115.665 312.293 115.665C308.138 115.665 305.267 118.233 305.267 122.086C305.267 126.699 308.485 127.984 314.869 130.966C320.021 133.357 326 136.339 326 143.462C326 150.703 320.966 155.552 313.113 155.552C306.964 155.552 303.215 152.747 301.281 152.747C300.757 152.747 300.225 152.924 299.878 153.153C299.819 153.153 299.642 153.094 299.701 153.035C300.225 150.171 300.521 147.079 300.816 143.167C300.816 143.108 301.052 143.108 301.052 143.108C302.75 148.828 306.381 152.799 313.29 152.799C318.855 152.799 321.726 149.529 321.726 144.975C321.726 140.244 319.032 138.664 312.352 135.571C307.141 133.18 300.993 130.604 300.993 123.658C300.993 117.119 306.086 112.912 312.412 112.912C316.22 112.912 318.744 114.491 320.907 114.491Z" fill="#D3BA81"/>
<path d="M45.5654 90.5545C45.5875 90.4881 45.7056 90.3848 45.7794 90.3848C46.2001 90.5545 47.4918 90.8793 48.5252 91.0638C48.5916 91.1007 48.5621 91.3517 48.4957 91.3886C47.049 91.5584 46.3847 92.1636 45.9049 93.9572L45.5949 95.1234L54.216 97.4337C55.5889 97.8027 56.1793 97.6994 56.8289 96.8801C56.8732 96.858 57.0872 96.9465 57.0946 97.0056C56.9101 97.5518 56.7108 98.2308 56.5115 98.9763C56.3122 99.7292 56.1498 100.408 56.0317 100.977C56.0022 101.028 55.766 100.999 55.7365 100.954C55.5815 99.9285 55.1239 99.5447 53.751 99.1756L45.1299 96.8653L44.8199 98.0316C44.3401 99.8252 44.6132 100.681 45.7794 101.552C45.8163 101.619 45.7204 101.855 45.6466 101.848C44.6575 101.493 43.3806 101.124 42.9303 101.065C42.8639 101.028 42.8122 100.881 42.827 100.814C42.982 100.504 43.2772 99.6849 43.757 97.9061L44.9306 93.5143C45.3956 91.7576 45.5432 90.9088 45.5654 90.5545Z" fill="white"/>
<path d="M45.5654 90.5545C45.5875 90.4881 45.7056 90.3848 45.7794 90.3848C46.2001 90.5545 47.4918 90.8793 48.5252 91.0638C48.5916 91.1007 48.5621 91.3517 48.4957 91.3886C47.049 91.5584 46.3847 92.1636 45.9049 93.9572L45.5949 95.1234L54.216 97.4337C55.5889 97.8027 56.1793 97.6994 56.8289 96.8801C56.8732 96.858 57.0872 96.9465 57.0946 97.0056C56.9101 97.5518 56.7108 98.2308 56.5115 98.9763C56.3122 99.7292 56.1498 100.408 56.0317 100.977C56.0022 101.028 55.766 100.999 55.7365 100.954C55.5815 99.9285 55.1239 99.5447 53.751 99.1756L45.1299 96.8653L44.8199 98.0316C44.3401 99.8252 44.6132 100.681 45.7794 101.552C45.8163 101.619 45.7204 101.855 45.6466 101.848C44.6575 101.493 43.3806 101.124 42.9303 101.065C42.8639 101.028 42.8122 100.881 42.827 100.814C42.982 100.504 43.2772 99.6849 43.757 97.9061L44.9306 93.5143C45.3956 91.7576 45.5432 90.9088 45.5654 90.5545Z" fill="white"/>
<path d="M54.1178 87.1002L57.1809 88.3254C58.4504 88.8347 59.0409 88.8199 59.72 88.1409C59.7643 88.1187 59.9709 88.2442 59.9709 88.2959C59.7274 88.7978 59.469 89.4104 59.1885 90.0969C58.9154 90.7833 58.6866 91.4107 58.5095 91.9421C58.4726 91.9864 58.2438 91.9347 58.2216 91.8831C58.1995 90.9235 57.7861 90.5028 56.5092 89.9935L49.512 87.1961C48.2424 86.6868 47.6519 86.7016 46.9729 87.3806C46.9286 87.4028 46.7219 87.2773 46.7219 87.2256C46.9655 86.7237 47.2238 86.1111 47.5043 85.4246C47.7774 84.7382 48.0062 84.1108 48.1834 83.5794C48.2203 83.5351 48.4491 83.5868 48.4712 83.6384C48.4934 84.598 48.9067 85.0187 50.1836 85.528L53.1287 86.7089L55.6087 80.5015L52.6637 79.3205C51.3941 78.8112 50.8037 78.826 50.1246 79.505C50.0803 79.5272 49.8736 79.4017 49.8736 79.35C50.1172 78.8481 50.3756 78.2281 50.656 77.5491C50.9291 76.8626 51.1579 76.2352 51.3351 75.7038C51.372 75.6595 51.6008 75.7112 51.623 75.7628C51.6451 76.7224 52.0584 77.1431 53.3354 77.6524L60.3326 80.4498C61.6022 80.9591 62.1926 80.9443 62.8717 80.2579C62.916 80.2358 63.1226 80.3612 63.1226 80.4129C62.8791 80.9148 62.6207 81.5274 62.3403 82.2139C62.0672 82.9003 61.8383 83.5277 61.6612 84.0591C61.6243 84.1034 61.3955 84.0518 61.3733 84.0001C61.3512 83.0406 60.9379 82.6198 59.6609 82.1106L56.5978 80.8853L54.1178 87.1002Z" fill="white"/>
<path d="M54.1178 87.1002L57.1809 88.3254C58.4504 88.8347 59.0409 88.8199 59.72 88.1409C59.7643 88.1187 59.9709 88.2442 59.9709 88.2959C59.7274 88.7978 59.469 89.4104 59.1885 90.0969C58.9154 90.7833 58.6866 91.4107 58.5095 91.9421C58.4726 91.9864 58.2438 91.9347 58.2216 91.8831C58.1995 90.9235 57.7861 90.5028 56.5092 89.9935L49.512 87.1961C48.2424 86.6868 47.6519 86.7016 46.9729 87.3806C46.9286 87.4028 46.7219 87.2773 46.7219 87.2256C46.9655 86.7237 47.2238 86.1111 47.5043 85.4246C47.7774 84.7382 48.0062 84.1108 48.1834 83.5794C48.2203 83.5351 48.4491 83.5868 48.4712 83.6384C48.4934 84.598 48.9067 85.0187 50.1836 85.528L53.1287 86.7089L55.6087 80.5015L52.6637 79.3205C51.3941 78.8112 50.8037 78.826 50.1246 79.505C50.0803 79.5272 49.8736 79.4017 49.8736 79.35C50.1172 78.8481 50.3756 78.2281 50.656 77.5491C50.9291 76.8626 51.1579 76.2352 51.3351 75.7038C51.372 75.6595 51.6008 75.7112 51.623 75.7628C51.6451 76.7224 52.0584 77.1431 53.3354 77.6524L60.3326 80.4498C61.6022 80.9591 62.1926 80.9443 62.8717 80.2579C62.916 80.2358 63.1226 80.3612 63.1226 80.4129C62.8791 80.9148 62.6207 81.5274 62.3403 82.2139C62.0672 82.9003 61.8383 83.5277 61.6612 84.0591C61.6243 84.1034 61.3955 84.0518 61.3733 84.0001C61.3512 83.0406 60.9379 82.6198 59.6609 82.1106L56.5978 80.8853L54.1178 87.1002Z" fill="white"/>
<path d="M64.3914 77.9182C64.3471 77.9551 64.1257 77.8739 64.1109 77.8296C64.1774 76.8774 63.7935 76.3829 62.4502 75.6448L56.3903 72.3307C54.9067 71.5188 54.2351 71.4598 53.4822 72.0133C53.4305 72.0281 53.246 71.8805 53.2534 71.8288C53.5117 71.3933 53.9029 70.7216 54.2351 70.109L56.2058 66.4997C57.0842 64.8906 57.4385 64.0934 57.5418 63.7613C57.5787 63.6949 57.7189 63.6284 57.7854 63.6506C58.1544 63.9163 59.0992 64.4108 60.0587 64.8316C60.1104 64.8832 60.0218 65.1194 59.948 65.1416C58.6932 64.994 57.9846 65.4663 57.1432 67.0016L55.5858 69.8507L59.6823 72.0945L60.7378 70.1607C61.2987 69.1347 61.4095 68.3745 60.8485 67.5921C60.819 67.533 60.9814 67.3116 61.033 67.3264C61.343 67.5183 61.9999 67.8947 62.4354 68.1383C62.8783 68.3819 63.55 68.7288 63.8747 68.8838C63.9116 68.928 63.8157 69.179 63.7493 69.1864C62.7897 69.1347 62.2066 69.6366 61.6457 70.67L60.5902 72.5964L64.7826 74.892L66.436 71.8731C67.3365 70.2271 67.3069 69.4152 66.3105 68.2342C66.2883 68.1604 66.4433 67.9538 66.5098 67.9759C67.4693 68.5811 68.4584 69.1052 68.9308 69.2971C68.9972 69.334 69.0267 69.4964 68.9972 69.5554C68.8201 69.8064 68.4805 70.3452 67.3881 72.3529L65.2993 76.1836C64.9745 76.7815 64.6202 77.4679 64.3914 77.9182Z" fill="white"/>
<path d="M64.3914 77.9182C64.3471 77.9551 64.1257 77.8739 64.1109 77.8296C64.1774 76.8774 63.7935 76.3829 62.4502 75.6448L56.3903 72.3307C54.9067 71.5188 54.2351 71.4598 53.4822 72.0133C53.4305 72.0281 53.246 71.8805 53.2534 71.8288C53.5117 71.3933 53.9029 70.7216 54.2351 70.109L56.2058 66.4997C57.0842 64.8906 57.4385 64.0934 57.5418 63.7613C57.5787 63.6949 57.7189 63.6284 57.7854 63.6506C58.1544 63.9163 59.0992 64.4108 60.0587 64.8316C60.1104 64.8832 60.0218 65.1194 59.948 65.1416C58.6932 64.994 57.9846 65.4663 57.1432 67.0016L55.5858 69.8507L59.6823 72.0945L60.7378 70.1607C61.2987 69.1347 61.4095 68.3745 60.8485 67.5921C60.819 67.533 60.9814 67.3116 61.033 67.3264C61.343 67.5183 61.9999 67.8947 62.4354 68.1383C62.8783 68.3819 63.55 68.7288 63.8747 68.8838C63.9116 68.928 63.8157 69.179 63.7493 69.1864C62.7897 69.1347 62.2066 69.6366 61.6457 70.67L60.5902 72.5964L64.7826 74.892L66.436 71.8731C67.3365 70.2271 67.3069 69.4152 66.3105 68.2342C66.2883 68.1604 66.4433 67.9538 66.5098 67.9759C67.4693 68.5811 68.4584 69.1052 68.9308 69.2971C68.9972 69.334 69.0267 69.4964 68.9972 69.5554C68.8201 69.8064 68.4805 70.3452 67.3881 72.3529L65.2993 76.1836C64.9745 76.7815 64.6202 77.4679 64.3914 77.9182Z" fill="white"/>
<path d="M79.8315 54.5276L66.8261 54.8819L72.2216 59.1038C73.5724 60.1593 74.2145 60.3586 75.1962 59.8936C75.2479 59.8862 75.4103 60.056 75.3881 60.115C75.115 60.4324 74.6722 60.9712 74.3031 61.4436C73.934 61.916 73.5207 62.477 73.2771 62.8165C73.2255 62.846 73.0188 62.7353 73.0188 62.6836C73.2329 61.6134 72.8859 61.0451 71.5352 59.9896L66.1249 55.7602C65.0472 54.9188 64.3977 54.749 63.5563 55.1476C63.5046 55.155 63.3422 54.9778 63.3644 54.9261C63.6448 54.594 64.0729 54.0847 64.4494 53.5976C64.8849 53.044 65.1211 52.7045 65.4163 52.269C65.4606 52.2395 65.6156 52.2468 65.6746 52.2911C66.0216 52.8373 66.6046 53.0661 67.6823 53.0366L76.7019 52.8595L71.8747 49.0877C70.524 48.0322 69.8818 47.8256 68.9002 48.298C68.8485 48.3053 68.6861 48.1282 68.7083 48.0765C68.974 47.7591 69.4242 47.2203 69.7933 46.7479C70.1623 46.2829 70.5757 45.7146 70.8192 45.375C70.8635 45.3455 71.0702 45.4563 71.0776 45.5079C70.8635 46.5782 71.2104 47.1465 72.5612 48.202L80.0603 54.0626C80.0899 54.129 79.9201 54.4981 79.8315 54.5276Z" fill="white"/>
<path d="M79.8315 54.5276L66.8261 54.8819L72.2216 59.1038C73.5724 60.1593 74.2145 60.3586 75.1962 59.8936C75.2479 59.8862 75.4103 60.056 75.3881 60.115C75.115 60.4324 74.6722 60.9712 74.3031 61.4436C73.934 61.916 73.5207 62.477 73.2771 62.8165C73.2255 62.846 73.0188 62.7353 73.0188 62.6836C73.2329 61.6134 72.8859 61.0451 71.5352 59.9896L66.1249 55.7602C65.0472 54.9188 64.3977 54.749 63.5563 55.1476C63.5046 55.155 63.3422 54.9778 63.3644 54.9261C63.6448 54.594 64.0729 54.0847 64.4494 53.5976C64.8849 53.044 65.1211 52.7045 65.4163 52.269C65.4606 52.2395 65.6156 52.2468 65.6746 52.2911C66.0216 52.8373 66.6046 53.0661 67.6823 53.0366L76.7019 52.8595L71.8747 49.0877C70.524 48.0322 69.8818 47.8256 68.9002 48.298C68.8485 48.3053 68.6861 48.1282 68.7083 48.0765C68.974 47.7591 69.4242 47.2203 69.7933 46.7479C70.1623 46.2829 70.5757 45.7146 70.8192 45.375C70.8635 45.3455 71.0702 45.4563 71.0776 45.5079C70.8635 46.5782 71.2104 47.1465 72.5612 48.202L80.0603 54.0626C80.0899 54.129 79.9201 54.4981 79.8315 54.5276Z" fill="white"/>
<path d="M82.6099 51.2652C82.5582 51.2947 82.3663 51.1545 82.3663 51.1028C82.6911 50.2097 82.4623 49.6266 81.3699 48.5416L76.4689 43.6848C75.2658 42.4965 74.6384 42.2529 73.76 42.5777C73.7083 42.5777 73.5681 42.3858 73.5902 42.3341C73.9593 41.9872 74.5203 41.4484 75.0148 40.9538L77.9082 38.0309C79.1999 36.7245 79.7608 36.0602 79.9527 35.765C80.0044 35.7133 80.1594 35.6911 80.2184 35.728C80.4989 36.0823 81.2666 36.8204 82.0711 37.4921C82.108 37.5585 81.9604 37.7578 81.8792 37.7578C80.7204 37.2633 79.9011 37.5216 78.6684 38.769L76.3877 41.0719L79.7018 44.3565L81.2518 42.7917C82.0785 41.9577 82.3885 41.2565 82.0711 40.356C82.0563 40.2895 82.2704 40.1272 82.322 40.1493C82.5656 40.415 83.0897 40.9612 83.4513 41.3155C83.813 41.6698 84.3592 42.1939 84.6323 42.4301C84.6618 42.4817 84.4921 42.6958 84.433 42.6884C83.5252 42.371 82.824 42.6958 82.0047 43.5298L80.4546 45.0946L83.8499 48.453L86.2709 46.0099C87.5921 44.6813 87.7914 43.8841 87.1566 42.4743C87.1566 42.4005 87.3559 42.2455 87.4224 42.2824C88.1752 43.1313 88.9871 43.9063 89.3783 44.2236C89.43 44.2753 89.4153 44.4377 89.3636 44.4894C89.12 44.6813 88.655 45.102 87.0385 46.7332L83.968 49.8333C83.4809 50.3352 82.9494 50.8961 82.6099 51.2652Z" fill="white"/>
<path d="M82.6099 51.2652C82.5582 51.2947 82.3663 51.1545 82.3663 51.1028C82.6911 50.2097 82.4623 49.6266 81.3699 48.5416L76.4689 43.6848C75.2658 42.4965 74.6384 42.2529 73.76 42.5777C73.7083 42.5777 73.5681 42.3858 73.5902 42.3341C73.9593 41.9872 74.5203 41.4484 75.0148 40.9538L77.9082 38.0309C79.1999 36.7245 79.7608 36.0602 79.9527 35.765C80.0044 35.7133 80.1594 35.6911 80.2184 35.728C80.4989 36.0823 81.2666 36.8204 82.0711 37.4921C82.108 37.5585 81.9604 37.7578 81.8792 37.7578C80.7204 37.2633 79.9011 37.5216 78.6684 38.769L76.3877 41.0719L79.7018 44.3565L81.2518 42.7917C82.0785 41.9577 82.3885 41.2565 82.0711 40.356C82.0563 40.2895 82.2704 40.1272 82.322 40.1493C82.5656 40.415 83.0897 40.9612 83.4513 41.3155C83.813 41.6698 84.3592 42.1939 84.6323 42.4301C84.6618 42.4817 84.4921 42.6958 84.433 42.6884C83.5252 42.371 82.824 42.6958 82.0047 43.5298L80.4546 45.0946L83.8499 48.453L86.2709 46.0099C87.5921 44.6813 87.7914 43.8841 87.1566 42.4743C87.1566 42.4005 87.3559 42.2455 87.4224 42.2824C88.1752 43.1313 88.9871 43.9063 89.3783 44.2236C89.43 44.2753 89.4153 44.4377 89.3636 44.4894C89.12 44.6813 88.655 45.102 87.0385 46.7332L83.968 49.8333C83.4809 50.3352 82.9494 50.8961 82.6099 51.2652Z" fill="white"/>
<path d="M82.5847 33.543C82.533 33.5357 82.4149 33.329 82.4518 33.2847C82.7766 33.0559 83.4704 32.5687 84.024 32.1333C84.6514 31.6461 85.3305 31.0778 85.6478 30.8121C85.6995 30.7973 85.8767 30.9597 85.8693 31.0113C85.3378 31.6756 85.3083 32.3178 86.7329 33.2404L92.837 37.2041L90.7851 30.3101L90.667 30.2437C89.1169 29.2989 88.6962 29.1735 88.0172 29.3506C87.9655 29.3432 87.8474 29.1366 87.8843 29.0923C88.2091 28.8635 88.9029 28.3763 89.4565 27.9408C90.0839 27.4537 90.7629 26.8853 91.0803 26.6196C91.132 26.5975 91.3091 26.7672 91.3017 26.8189C90.7851 27.4684 90.726 28.1106 92.2022 29.0185L98.4023 32.8418L96.0921 26.1472C95.6344 24.7891 94.9701 24.3684 93.7818 24.8998C93.7301 24.8924 93.6194 24.6858 93.6489 24.6415C94.0032 24.3905 94.7561 23.8296 95.2654 23.431C95.7378 23.0693 96.3209 22.5895 96.6087 22.346C96.6604 22.3238 96.8375 22.4936 96.8302 22.5453C96.4611 23.2169 96.4094 23.8296 96.9852 25.4829L100.454 35.7057C100.447 35.7574 100.137 36.0009 100.07 36.0009L92.1063 31.1294L94.7856 40.0901C94.7782 40.1417 94.4682 40.3853 94.4018 40.3853L85.205 34.4878C83.6845 33.5209 83.249 33.3733 82.5847 33.543Z" fill="white"/>
<path d="M82.5847 33.543C82.533 33.5357 82.4149 33.329 82.4518 33.2847C82.7766 33.0559 83.4704 32.5687 84.024 32.1333C84.6514 31.6461 85.3305 31.0778 85.6478 30.8121C85.6995 30.7973 85.8767 30.9597 85.8693 31.0113C85.3378 31.6756 85.3083 32.3178 86.7329 33.2404L92.837 37.2041L90.7851 30.3101L90.667 30.2437C89.1169 29.2989 88.6962 29.1735 88.0172 29.3506C87.9655 29.3432 87.8474 29.1366 87.8843 29.0923C88.2091 28.8635 88.9029 28.3763 89.4565 27.9408C90.0839 27.4537 90.7629 26.8853 91.0803 26.6196C91.132 26.5975 91.3091 26.7672 91.3017 26.8189C90.7851 27.4684 90.726 28.1106 92.2022 29.0185L98.4023 32.8418L96.0921 26.1472C95.6344 24.7891 94.9701 24.3684 93.7818 24.8998C93.7301 24.8924 93.6194 24.6858 93.6489 24.6415C94.0032 24.3905 94.7561 23.8296 95.2654 23.431C95.7378 23.0693 96.3209 22.5895 96.6087 22.346C96.6604 22.3238 96.8375 22.4936 96.8302 22.5453C96.4611 23.2169 96.4094 23.8296 96.9852 25.4829L100.454 35.7057C100.447 35.7574 100.137 36.0009 100.07 36.0009L92.1063 31.1294L94.7856 40.0901C94.7782 40.1417 94.4682 40.3853 94.4018 40.3853L85.205 34.4878C83.6845 33.5209 83.249 33.3733 82.5847 33.543Z" fill="white"/>
<path d="M115.49 26.2803C114.966 26.5165 114.332 26.8339 113.653 27.1956C112.966 27.5572 112.353 27.9042 111.866 28.2068C111.807 28.2142 111.667 28.0296 111.682 27.978C112.331 27.166 112.302 26.5682 111.63 25.3134L110.257 22.7374L105.423 20.1024C103.873 19.2535 103.445 19.0321 102.647 19.069C102.596 19.0543 102.522 18.8328 102.559 18.7885C102.913 18.6188 103.695 18.2423 104.338 17.9028C105.024 17.5411 105.733 17.1204 106.094 16.9064C106.153 16.899 106.294 17.0835 106.279 17.1352C105.806 17.7109 105.806 18.2054 107.106 18.9214L110.84 20.9955L111.217 17.0614C111.342 15.6885 110.966 15.0537 109.829 15.253C109.777 15.2383 109.704 15.0168 109.741 14.9725C110.117 14.7954 110.981 14.3525 111.542 14.0573C112.08 13.7694 112.553 13.4963 112.878 13.3044C112.937 13.297 113.077 13.4816 113.062 13.5332C112.678 13.9613 112.582 14.6256 112.39 16.4857L111.852 21.8738L113.232 24.4646C113.903 25.7194 114.376 26.081 115.417 25.9998C115.454 26.022 115.535 26.2434 115.49 26.2803Z" fill="white"/>
<path d="M115.49 26.2803C114.966 26.5165 114.332 26.8339 113.653 27.1956C112.966 27.5572 112.353 27.9042 111.866 28.2068C111.807 28.2142 111.667 28.0296 111.682 27.978C112.331 27.166 112.302 26.5682 111.63 25.3134L110.257 22.7374L105.423 20.1024C103.873 19.2535 103.445 19.0321 102.647 19.069C102.596 19.0543 102.522 18.8328 102.559 18.7885C102.913 18.6188 103.695 18.2423 104.338 17.9028C105.024 17.5411 105.733 17.1204 106.094 16.9064C106.153 16.899 106.294 17.0835 106.279 17.1352C105.806 17.7109 105.806 18.2054 107.106 18.9214L110.84 20.9955L111.217 17.0614C111.342 15.6885 110.966 15.0537 109.829 15.253C109.777 15.2383 109.704 15.0168 109.741 14.9725C110.117 14.7954 110.981 14.3525 111.542 14.0573C112.08 13.7694 112.553 13.4963 112.878 13.3044C112.937 13.297 113.077 13.4816 113.062 13.5332C112.678 13.9613 112.582 14.6256 112.39 16.4857L111.852 21.8738L113.232 24.4646C113.903 25.7194 114.376 26.081 115.417 25.9998C115.454 26.022 115.535 26.2434 115.49 26.2803Z" fill="white"/>
<path d="M126.912 14.4407C125.606 11.134 123.524 9.82754 121.037 10.8092C118.571 11.7835 117.929 14.1307 119.228 17.43C120.535 20.7368 122.616 22.0432 125.104 21.0615C127.569 20.0946 128.211 17.7474 126.912 14.4407ZM117.398 18.1903C115.981 14.6031 117.339 11.1192 120.66 9.81277C124.011 8.49156 127.318 10.0711 128.735 13.6805C130.152 17.2676 128.794 20.7515 125.473 22.058C122.122 23.3866 118.822 21.7996 117.398 18.1903Z" fill="white"/>
<path d="M126.912 14.4407C125.606 11.134 123.524 9.82754 121.037 10.8092C118.571 11.7835 117.929 14.1307 119.228 17.43C120.535 20.7368 122.616 22.0432 125.104 21.0615C127.569 20.0946 128.211 17.7474 126.912 14.4407ZM117.398 18.1903C115.981 14.6031 117.339 11.1192 120.66 9.81277C124.011 8.49156 127.318 10.0711 128.735 13.6805C130.152 17.2676 128.794 20.7515 125.473 22.058C122.122 23.3866 118.822 21.7996 117.398 18.1903Z" fill="white"/>
<path d="M135.974 6.22554L133.442 6.88245L134.719 11.7835L137.251 11.1266C139.133 10.6394 139.731 9.71677 139.288 8.00437C138.838 6.28458 137.841 5.73839 135.974 6.22554ZM132.18 9.18534C131.752 7.54675 131.339 7.02269 130.416 6.85292C130.372 6.83078 130.349 6.59459 130.394 6.55768C130.888 6.44697 131.641 6.26982 132.32 6.09267L135.723 5.20695C138.565 4.46884 140.631 5.32504 141.192 7.47293C141.643 9.2001 140.816 10.6837 139.022 11.5768L141.163 13.9461C142.004 14.8835 142.528 15.2673 143.281 15.0754C143.562 15.0016 143.805 14.8097 143.953 14.6399C144.004 14.6104 144.189 14.6695 144.196 14.7211C144.226 15.4002 143.835 16.3228 142.816 16.5885C141.51 16.9281 140.58 16.0719 139.598 14.9647L137.192 12.219L134.977 12.7947L135.716 15.6216C136.062 16.9428 136.424 17.4078 137.376 17.5555C137.421 17.5776 137.443 17.8138 137.398 17.8507C136.852 17.954 136.195 18.109 135.479 18.2936C134.763 18.4781 134.121 18.6626 133.59 18.8398C133.531 18.8324 133.442 18.6183 133.464 18.5741C134.225 17.9836 134.313 17.4005 133.966 16.0793L132.18 9.18534Z" fill="white"/>
<path d="M135.974 6.22554L133.442 6.88245L134.719 11.7835L137.251 11.1266C139.133 10.6394 139.731 9.71677 139.288 8.00437C138.838 6.28458 137.841 5.73839 135.974 6.22554ZM132.18 9.18534C131.752 7.54675 131.339 7.02269 130.416 6.85292C130.372 6.83078 130.349 6.59459 130.394 6.55768C130.888 6.44697 131.641 6.26982 132.32 6.09267L135.723 5.20695C138.565 4.46884 140.631 5.32504 141.192 7.47293C141.643 9.2001 140.816 10.6837 139.022 11.5768L141.163 13.9461C142.004 14.8835 142.528 15.2673 143.281 15.0754C143.562 15.0016 143.805 14.8097 143.953 14.6399C144.004 14.6104 144.189 14.6695 144.196 14.7211C144.226 15.4002 143.835 16.3228 142.816 16.5885C141.51 16.9281 140.58 16.0719 139.598 14.9647L137.192 12.219L134.977 12.7947L135.716 15.6216C136.062 16.9428 136.424 17.4078 137.376 17.5555C137.421 17.5776 137.443 17.8138 137.398 17.8507C136.852 17.954 136.195 18.109 135.479 18.2936C134.763 18.4781 134.121 18.6626 133.59 18.8398C133.531 18.8324 133.442 18.6183 133.464 18.5741C134.225 17.9836 134.313 17.4005 133.966 16.0793L132.18 9.18534Z" fill="white"/>
<path d="M150.67 15.083C150.109 15.12 149.444 15.1938 148.714 15.2897C147.983 15.3857 147.319 15.4964 146.772 15.6071C146.713 15.5997 146.647 15.3709 146.684 15.3266C147.511 14.8321 147.666 14.2637 147.488 12.9056L146.477 5.43599C146.293 4.07787 145.99 3.57596 145.06 3.31763C145.023 3.2881 145.023 3.0519 145.075 3.02238C145.636 2.98547 146.293 2.91166 147.031 2.81571C147.761 2.71975 148.418 2.60904 148.972 2.49833C149.031 2.50571 149.097 2.73451 149.061 2.7788C148.234 3.27333 148.079 3.84167 148.263 5.19979L148.802 9.16343L152.515 4.43954C153.43 3.25857 153.497 2.54261 152.485 2.3138C152.441 2.28428 152.448 2.04808 152.5 2.01855C152.928 1.98165 153.969 1.85617 154.633 1.7676C155.275 1.67902 156.08 1.55355 156.486 1.47974C156.538 1.48712 156.611 1.71593 156.574 1.76022C155.829 2.06284 155.312 2.67547 154.058 4.2624L151.828 7.03768L156.176 11.8944C157.305 13.1418 157.63 13.4961 158.368 13.7471C158.412 13.7766 158.405 14.0128 158.353 14.0423C157.955 14.0792 157.099 14.1604 156.383 14.2564C155.593 14.3597 154.759 14.5147 154.353 14.5885C154.294 14.5811 154.227 14.3523 154.264 14.308C154.921 13.9242 155.098 13.4666 154.153 12.3963L150.699 8.47698L149.001 10.5954L149.282 12.6694C149.466 14.0275 149.769 14.5295 150.699 14.7878C150.721 14.8247 150.714 15.0609 150.67 15.083Z" fill="white"/>
<path d="M150.67 15.083C150.109 15.12 149.444 15.1938 148.714 15.2897C147.983 15.3857 147.319 15.4964 146.772 15.6071C146.713 15.5997 146.647 15.3709 146.684 15.3266C147.511 14.8321 147.666 14.2637 147.488 12.9056L146.477 5.43599C146.293 4.07787 145.99 3.57596 145.06 3.31763C145.023 3.2881 145.023 3.0519 145.075 3.02238C145.636 2.98547 146.293 2.91166 147.031 2.81571C147.761 2.71975 148.418 2.60904 148.972 2.49833C149.031 2.50571 149.097 2.73451 149.061 2.7788C148.234 3.27333 148.079 3.84167 148.263 5.19979L148.802 9.16343L152.515 4.43954C153.43 3.25857 153.497 2.54261 152.485 2.3138C152.441 2.28428 152.448 2.04808 152.5 2.01855C152.928 1.98165 153.969 1.85617 154.633 1.7676C155.275 1.67902 156.08 1.55355 156.486 1.47974C156.538 1.48712 156.611 1.71593 156.574 1.76022C155.829 2.06284 155.312 2.67547 154.058 4.2624L151.828 7.03768L156.176 11.8944C157.305 13.1418 157.63 13.4961 158.368 13.7471C158.412 13.7766 158.405 14.0128 158.353 14.0423C157.955 14.0792 157.099 14.1604 156.383 14.2564C155.593 14.3597 154.759 14.5147 154.353 14.5885C154.294 14.5811 154.227 14.3523 154.264 14.308C154.921 13.9242 155.098 13.4666 154.153 12.3963L150.699 8.47698L149.001 10.5954L149.282 12.6694C149.466 14.0275 149.769 14.5295 150.699 14.7878C150.721 14.8247 150.714 15.0609 150.67 15.083Z" fill="white"/>
<path d="M168.79 2.18096L168.665 7.61343L170.945 7.6651C172.916 7.70939 173.75 6.92699 173.794 5.0522C173.839 3.1405 173.005 2.27692 171.071 2.23264L168.79 2.18096ZM169.742 13.6364C169.779 13.6733 169.735 13.9095 169.683 13.9242C169.1 13.8726 168.391 13.843 167.609 13.8209C166.864 13.8061 166.184 13.8061 165.624 13.8283C165.572 13.8061 165.542 13.5699 165.579 13.533C166.48 13.1714 166.731 12.6325 166.76 11.2449L166.93 4.04837C166.967 2.33597 166.709 1.70858 165.867 1.28786C165.83 1.25096 165.874 1.01476 165.926 1C166.435 1.02952 167.218 1.06643 167.926 1.08119L171.115 1.155C174.067 1.22143 175.854 2.70503 175.802 5.03744C175.75 7.36986 173.876 8.78702 170.923 8.71321L168.642 8.66154L168.583 11.1932C168.546 12.6399 168.79 13.1935 169.742 13.6364Z" fill="white"/>
<path d="M168.79 2.18096L168.665 7.61343L170.945 7.6651C172.916 7.70939 173.75 6.92699 173.794 5.0522C173.839 3.1405 173.005 2.27692 171.071 2.23264L168.79 2.18096ZM169.742 13.6364C169.779 13.6733 169.735 13.9095 169.683 13.9242C169.1 13.8726 168.391 13.843 167.609 13.8209C166.864 13.8061 166.184 13.8061 165.624 13.8283C165.572 13.8061 165.542 13.5699 165.579 13.533C166.48 13.1714 166.731 12.6325 166.76 11.2449L166.93 4.04837C166.967 2.33597 166.709 1.70858 165.867 1.28786C165.83 1.25096 165.874 1.01476 165.926 1C166.435 1.02952 167.218 1.06643 167.926 1.08119L171.115 1.155C174.067 1.22143 175.854 2.70503 175.802 5.03744C175.75 7.36986 173.876 8.78702 170.923 8.71321L168.642 8.66154L168.583 11.1932C168.546 12.6399 168.79 13.1935 169.742 13.6364Z" fill="white"/>
<path d="M187.818 10.4922L188.401 5.90853C188.615 4.21827 188.467 3.56136 187.559 2.95611C187.53 2.9192 187.596 2.69039 187.648 2.67562C188.054 2.74944 188.748 2.85278 189.338 2.92659C189.929 3.0004 190.623 3.0742 191.036 3.10373C191.088 3.12587 191.095 3.36207 191.051 3.39898C190.025 3.76065 189.715 4.35113 189.501 6.04878L188.918 10.6324C188.489 13.9687 186.533 15.5334 183.323 15.1201C179.986 14.692 178.466 12.7065 178.894 9.35549L179.544 4.24042C179.713 2.8823 179.551 2.32133 178.724 1.83418C178.695 1.79728 178.761 1.56847 178.813 1.55371C179.359 1.65705 180.016 1.76037 180.747 1.85633C181.477 1.95228 182.142 2.01872 182.695 2.04824C182.747 2.07038 182.754 2.30657 182.71 2.34348C181.787 2.6092 181.492 3.11111 181.315 4.46923L180.666 9.5843C180.341 12.116 181.359 13.5184 183.714 13.8137C186.157 14.1163 187.493 13.0386 187.818 10.4922Z" fill="white"/>
<path d="M187.818 10.4922L188.401 5.90853C188.615 4.21827 188.467 3.56136 187.559 2.95611C187.53 2.9192 187.596 2.69039 187.648 2.67562C188.054 2.74944 188.748 2.85278 189.338 2.92659C189.929 3.0004 190.623 3.0742 191.036 3.10373C191.088 3.12587 191.095 3.36207 191.051 3.39898C190.025 3.76065 189.715 4.35113 189.501 6.04878L188.918 10.6324C188.489 13.9687 186.533 15.5334 183.323 15.1201C179.986 14.692 178.466 12.7065 178.894 9.35549L179.544 4.24042C179.713 2.8823 179.551 2.32133 178.724 1.83418C178.695 1.79728 178.761 1.56847 178.813 1.55371C179.359 1.65705 180.016 1.76037 180.747 1.85633C181.477 1.95228 182.142 2.01872 182.695 2.04824C182.747 2.07038 182.754 2.30657 182.71 2.34348C181.787 2.6092 181.492 3.11111 181.315 4.46923L180.666 9.5843C180.341 12.116 181.359 13.5184 183.714 13.8137C186.157 14.1163 187.493 13.0386 187.818 10.4922Z" fill="white"/>
<path d="M198.219 10.7946C200.035 11.2669 200.98 10.7798 201.378 9.22977C201.792 7.64285 201.186 6.74236 199.385 6.27735L197.252 5.72377L196.086 10.241L198.219 10.7946ZM197.149 16.5296C198.979 17.002 199.968 16.5149 200.374 14.928C200.802 13.2894 200.16 12.3741 198.345 11.9091L195.835 11.2596L194.639 15.8875L197.149 16.5296ZM191.584 16.227C191.532 16.1975 191.561 15.9613 191.606 15.9318C192.543 15.762 192.934 15.2675 193.318 13.7839L195.045 7.09665C195.466 5.45805 195.363 4.79376 194.639 4.19589C194.61 4.15161 194.706 3.93756 194.765 3.93018C195.252 4.0778 195.997 4.28446 196.676 4.4616L199.681 5.23662C202.456 5.95258 203.858 7.59856 203.371 9.48812C203.017 10.8462 201.888 11.636 200.264 11.7172C201.939 12.5808 202.699 13.8946 202.301 15.4299C201.777 17.4744 199.703 18.279 196.891 17.5556L193.525 16.6847C192.831 16.5149 192.078 16.3377 191.584 16.227Z" fill="white"/>
<path d="M198.219 10.7946C200.035 11.2669 200.98 10.7798 201.378 9.22977C201.792 7.64285 201.186 6.74236 199.385 6.27735L197.252 5.72377L196.086 10.241L198.219 10.7946ZM197.149 16.5296C198.979 17.002 199.968 16.5149 200.374 14.928C200.802 13.2894 200.16 12.3741 198.345 11.9091L195.835 11.2596L194.639 15.8875L197.149 16.5296ZM191.584 16.227C191.532 16.1975 191.561 15.9613 191.606 15.9318C192.543 15.762 192.934 15.2675 193.318 13.7839L195.045 7.09665C195.466 5.45805 195.363 4.79376 194.639 4.19589C194.61 4.15161 194.706 3.93756 194.765 3.93018C195.252 4.0778 195.997 4.28446 196.676 4.4616L199.681 5.23662C202.456 5.95258 203.858 7.59856 203.371 9.48812C203.017 10.8462 201.888 11.636 200.264 11.7172C201.939 12.5808 202.699 13.8946 202.301 15.4299C201.777 17.4744 199.703 18.279 196.891 17.5556L193.525 16.6847C192.831 16.5149 192.078 16.3377 191.584 16.227Z" fill="white"/>
<path d="M205.754 20.2573C205.097 20.0137 204.366 19.7554 203.887 19.593C203.842 19.5561 203.894 19.3273 203.938 19.3051C204.868 19.2313 205.341 18.7515 205.931 17.1646L208.426 10.4921C208.906 9.20783 208.876 8.62472 208.182 7.96043C208.16 7.91614 208.278 7.70947 208.337 7.70947C208.847 7.93829 209.467 8.18924 210.16 8.44758C210.884 8.72068 211.555 8.94949 212.102 9.11926C212.146 9.15616 212.094 9.38498 212.05 9.40712C211.009 9.45879 210.581 9.87951 210.087 11.2155L206.957 19.5708L209.673 20.5894C211.43 21.2463 212.235 21.1061 213.26 19.9473C213.327 19.9178 213.556 20.0359 213.548 20.1097C213.083 21.1504 212.707 22.1985 212.581 22.693C212.559 22.7595 212.397 22.8185 212.33 22.789C212.057 22.6487 211.482 22.3904 209.334 21.5933L205.754 20.2573Z" fill="white"/>
<path d="M205.754 20.2573C205.097 20.0137 204.366 19.7554 203.887 19.593C203.842 19.5561 203.894 19.3273 203.938 19.3051C204.868 19.2313 205.341 18.7515 205.931 17.1646L208.426 10.4921C208.906 9.20783 208.876 8.62472 208.182 7.96043C208.16 7.91614 208.278 7.70947 208.337 7.70947C208.847 7.93829 209.467 8.18924 210.16 8.44758C210.884 8.72068 211.555 8.94949 212.102 9.11926C212.146 9.15616 212.094 9.38498 212.05 9.40712C211.009 9.45879 210.581 9.87951 210.087 11.2155L206.957 19.5708L209.673 20.5894C211.43 21.2463 212.235 21.1061 213.26 19.9473C213.327 19.9178 213.556 20.0359 213.548 20.1097C213.083 21.1504 212.707 22.1985 212.581 22.693C212.559 22.7595 212.397 22.8185 212.33 22.789C212.057 22.6487 211.482 22.3904 209.334 21.5933L205.754 20.2573Z" fill="white"/>
<path d="M218.547 25.3722C218.562 25.4165 218.429 25.6157 218.377 25.6084C217.868 25.3279 217.24 25.0179 216.539 24.6857C215.838 24.3536 215.196 24.0731 214.657 23.8591C214.613 23.8222 214.686 23.5933 214.731 23.5786C215.772 23.6081 216.229 23.2317 216.834 21.94L219.964 15.2896C220.569 13.998 220.569 13.4075 219.883 12.6251C219.868 12.5734 219.993 12.3815 220.053 12.3889C220.562 12.6694 221.189 12.9794 221.89 13.3115C222.592 13.6437 223.234 13.9241 223.773 14.1382C223.817 14.1751 223.743 14.4039 223.699 14.426C222.658 14.3965 222.2 14.773 221.595 16.0646L218.466 22.715C217.86 23.9919 217.86 24.5898 218.547 25.3722Z" fill="white"/>
<path d="M218.547 25.3722C218.562 25.4165 218.429 25.6157 218.377 25.6084C217.868 25.3279 217.24 25.0179 216.539 24.6857C215.838 24.3536 215.196 24.0731 214.657 23.8591C214.613 23.8222 214.686 23.5933 214.731 23.5786C215.772 23.6081 216.229 23.2317 216.834 21.94L219.964 15.2896C220.569 13.998 220.569 13.4075 219.883 12.6251C219.868 12.5734 219.993 12.3815 220.053 12.3889C220.562 12.6694 221.189 12.9794 221.89 13.3115C222.592 13.6437 223.234 13.9241 223.773 14.1382C223.817 14.1751 223.743 14.4039 223.699 14.426C222.658 14.3965 222.2 14.773 221.595 16.0646L218.466 22.715C217.86 23.9919 217.86 24.5898 218.547 25.3722Z" fill="white"/>
<path d="M232.961 18.8474C234.327 19.652 234.748 20.5008 235.419 20.892C235.604 21.0027 235.803 20.9879 235.98 20.9289C236.069 20.9584 236.187 21.1134 236.202 21.1651C235.648 22.1172 235.161 23.0841 234.748 24.1175C234.711 24.1765 234.474 24.1249 234.452 24.0511C234.548 22.1025 233.84 20.6041 232.423 19.77C230.23 18.4857 227.994 19.4527 226.208 22.501C224.421 25.5494 224.687 28.0221 226.909 29.3285C228.385 30.1921 230.127 30.1109 231.832 29.0554C231.906 29.0333 232.076 29.2178 232.031 29.2769C231.278 30.1331 230.607 31.0336 229.994 31.9267C229.942 31.9414 229.78 31.9045 229.706 31.8455C229.655 31.6462 229.551 31.5059 229.315 31.3657C228.68 30.9893 227.728 31.0409 226.348 30.229C223.3 28.4428 222.532 24.8335 224.473 21.5194C226.414 18.2126 229.987 17.1055 232.961 18.8474Z" fill="white"/>
<path d="M232.961 18.8474C234.327 19.652 234.748 20.5008 235.419 20.892C235.604 21.0027 235.803 20.9879 235.98 20.9289C236.069 20.9584 236.187 21.1134 236.202 21.1651C235.648 22.1172 235.161 23.0841 234.748 24.1175C234.711 24.1765 234.474 24.1249 234.452 24.0511C234.548 22.1025 233.84 20.6041 232.423 19.77C230.23 18.4857 227.994 19.4527 226.208 22.501C224.421 25.5494 224.687 28.0221 226.909 29.3285C228.385 30.1921 230.127 30.1109 231.832 29.0554C231.906 29.0333 232.076 29.2178 232.031 29.2769C231.278 30.1331 230.607 31.0336 229.994 31.9267C229.942 31.9414 229.78 31.9045 229.706 31.8455C229.655 31.6462 229.551 31.5059 229.315 31.3657C228.68 30.9893 227.728 31.0409 226.348 30.229C223.3 28.4428 222.532 24.8335 224.473 21.5194C226.414 18.2126 229.987 17.1055 232.961 18.8474Z" fill="white"/>
<path d="M238.254 38.0233C237.708 37.5804 237.095 37.108 236.689 36.8054C236.66 36.7537 236.778 36.5544 236.829 36.5471C237.737 36.7685 238.335 36.4659 239.398 35.152L243.886 29.6236C244.749 28.5607 244.904 27.9924 244.462 27.1436C244.454 27.0919 244.631 26.9369 244.683 26.9517C245.096 27.3281 245.598 27.7636 246.174 28.2286C246.779 28.7158 247.333 29.1439 247.805 29.4834C247.835 29.535 247.717 29.7343 247.665 29.7417C246.661 29.4612 246.13 29.7196 245.229 30.8267L239.612 37.7576L241.863 39.588C243.317 40.769 244.129 40.8871 245.465 40.1195C245.539 40.1121 245.716 40.2966 245.687 40.3631C244.919 41.1971 244.225 42.0755 243.952 42.5036C243.908 42.5626 243.738 42.5626 243.686 42.5183C243.472 42.2969 243.007 41.8688 241.229 40.4295L238.254 38.0233Z" fill="white"/>
<path d="M238.254 38.0233C237.708 37.5804 237.095 37.108 236.689 36.8054C236.66 36.7537 236.778 36.5544 236.829 36.5471C237.737 36.7685 238.335 36.4659 239.398 35.152L243.886 29.6236C244.749 28.5607 244.904 27.9924 244.462 27.1436C244.454 27.0919 244.631 26.9369 244.683 26.9517C245.096 27.3281 245.598 27.7636 246.174 28.2286C246.779 28.7158 247.333 29.1439 247.805 29.4834C247.835 29.535 247.717 29.7343 247.665 29.7417C246.661 29.4612 246.13 29.7196 245.229 30.8267L239.612 37.7576L241.863 39.588C243.317 40.769 244.129 40.8871 245.465 40.1195C245.539 40.1121 245.716 40.2966 245.687 40.3631C244.919 41.1971 244.225 42.0755 243.952 42.5036C243.908 42.5626 243.738 42.5626 243.686 42.5183C243.472 42.2969 243.007 41.8688 241.229 40.4295L238.254 38.0233Z" fill="white"/>
<path d="M249.103 47.2719C249.103 47.3235 248.919 47.4712 248.867 47.4416C248.476 47.0135 247.981 46.5116 247.42 45.9802C246.859 45.4414 246.343 44.969 245.9 44.5925C245.87 44.5409 246.011 44.349 246.062 44.349C247.036 44.7107 247.597 44.4966 248.587 43.4706L253.694 38.171C254.683 37.1451 254.875 36.5767 254.477 35.6172C254.477 35.5655 254.668 35.4253 254.713 35.4474C255.104 35.8755 255.599 36.3774 256.159 36.9089C256.72 37.4477 257.237 37.9201 257.68 38.2965C257.71 38.3482 257.569 38.5401 257.518 38.5401C256.543 38.1784 255.982 38.3925 254.993 39.4184L249.886 44.718C248.897 45.7514 248.705 46.3123 249.103 47.2719Z" fill="white"/>
<path d="M249.103 47.2719C249.103 47.3235 248.919 47.4712 248.867 47.4416C248.476 47.0135 247.981 46.5116 247.42 45.9802C246.859 45.4414 246.343 44.969 245.9 44.5925C245.87 44.5409 246.011 44.349 246.062 44.349C247.036 44.7107 247.597 44.4966 248.587 43.4706L253.694 38.171C254.683 37.1451 254.875 36.5767 254.477 35.6172C254.477 35.5655 254.668 35.4253 254.713 35.4474C255.104 35.8755 255.599 36.3774 256.159 36.9089C256.72 37.4477 257.237 37.9201 257.68 38.2965C257.71 38.3482 257.569 38.5401 257.518 38.5401C256.543 38.1784 255.982 38.3925 254.993 39.4184L249.886 44.718C248.897 45.7514 248.705 46.3123 249.103 47.2719Z" fill="white"/>
<path d="M259.738 48.9991C260.971 50.4162 262.019 50.5491 263.23 49.501C264.47 48.4234 264.477 47.3383 263.267 45.9359L261.827 44.2752L258.306 47.3383L259.738 48.9991ZM255.605 53.1177C256.845 54.5423 257.93 54.6973 259.17 53.627C260.447 52.5125 260.44 51.4053 259.207 49.9881L257.502 48.0322L253.9 51.1617L255.605 53.1177ZM251.191 49.7077C251.169 49.656 251.324 49.4715 251.376 49.4789C252.247 49.8701 252.844 49.6855 254.003 48.6817L259.214 44.1571C260.491 43.0426 260.779 42.4373 260.521 41.5368C260.528 41.4852 260.727 41.3597 260.772 41.3892C261.089 41.7804 261.584 42.3783 262.049 42.9097L264.078 45.2495C265.961 47.4122 266.175 49.5601 264.706 50.837C263.643 51.7596 262.263 51.767 260.882 50.9108C261.776 52.5715 261.657 54.0846 260.454 55.1254C258.86 56.5056 256.697 55.9963 254.793 53.8042L252.512 51.1765C252.062 50.6524 251.538 50.0841 251.191 49.7077Z" fill="white"/>
<path d="M259.738 48.9991C260.971 50.4162 262.019 50.5491 263.23 49.501C264.47 48.4234 264.477 47.3383 263.267 45.9359L261.827 44.2752L258.306 47.3383L259.738 48.9991ZM255.605 53.1177C256.845 54.5423 257.93 54.6973 259.17 53.627C260.447 52.5125 260.44 51.4053 259.207 49.9881L257.502 48.0322L253.9 51.1617L255.605 53.1177ZM251.191 49.7077C251.169 49.656 251.324 49.4715 251.376 49.4789C252.247 49.8701 252.844 49.6855 254.003 48.6817L259.214 44.1571C260.491 43.0426 260.779 42.4373 260.521 41.5368C260.528 41.4852 260.727 41.3597 260.772 41.3892C261.089 41.7804 261.584 42.3783 262.049 42.9097L264.078 45.2495C265.961 47.4122 266.175 49.5601 264.706 50.837C263.643 51.7596 262.263 51.767 260.882 50.9108C261.776 52.5715 261.657 54.0846 260.454 55.1254C258.86 56.5056 256.697 55.9963 254.793 53.8042L252.512 51.1765C252.062 50.6524 251.538 50.0841 251.191 49.7077Z" fill="white"/>
<path d="M272.23 57.5244L270.746 55.3691L266.568 58.2403L268.052 60.3956C269.152 61.9973 270.222 62.2482 271.683 61.2518C273.152 60.2332 273.322 59.1113 272.23 57.5244ZM268.155 54.9631C269.55 54.0036 269.905 53.4352 269.75 52.5126C269.757 52.4609 269.971 52.3576 270.015 52.3945C270.288 52.8226 270.709 53.4721 271.108 54.0479L273.101 56.9486C274.761 59.3696 274.658 61.6061 272.835 62.8609C271.366 63.8721 269.691 63.599 268.237 62.2113L266.738 65.0309C266.148 66.138 265.963 66.7654 266.399 67.4076C266.561 67.6438 266.827 67.8135 267.033 67.8874C267.078 67.9243 267.085 68.1162 267.033 68.1457C266.399 68.404 265.402 68.345 264.812 67.4888C264.044 66.3743 264.539 65.208 265.24 63.909L267.004 60.713L265.705 58.8234L263.299 60.4768C262.169 61.2518 261.859 61.7537 262.044 62.6985C262.036 62.7501 261.822 62.8535 261.778 62.8166C261.49 62.3368 261.129 61.7758 260.708 61.1632C260.287 60.5506 259.896 60.0118 259.549 59.5763C259.534 59.5246 259.704 59.3622 259.756 59.3696C260.568 59.8863 261.143 59.7682 262.273 58.9932L268.155 54.9631Z" fill="white"/>
<path d="M272.23 57.5244L270.746 55.3691L266.568 58.2403L268.052 60.3956C269.152 61.9973 270.222 62.2482 271.683 61.2518C273.152 60.2332 273.322 59.1113 272.23 57.5244ZM268.155 54.9631C269.55 54.0036 269.905 53.4352 269.75 52.5126C269.757 52.4609 269.971 52.3576 270.015 52.3945C270.288 52.8226 270.709 53.4721 271.108 54.0479L273.101 56.9486C274.761 59.3696 274.658 61.6061 272.835 62.8609C271.366 63.8721 269.691 63.599 268.237 62.2113L266.738 65.0309C266.148 66.138 265.963 66.7654 266.399 67.4076C266.561 67.6438 266.827 67.8135 267.033 67.8874C267.078 67.9243 267.085 68.1162 267.033 68.1457C266.399 68.404 265.402 68.345 264.812 67.4888C264.044 66.3743 264.539 65.208 265.24 63.909L267.004 60.713L265.705 58.8234L263.299 60.4768C262.169 61.2518 261.859 61.7537 262.044 62.6985C262.036 62.7501 261.822 62.8535 261.778 62.8166C261.49 62.3368 261.129 61.7758 260.708 61.1632C260.287 60.5506 259.896 60.0118 259.549 59.5763C259.534 59.5246 259.704 59.3622 259.756 59.3696C260.568 59.8863 261.143 59.7682 262.273 58.9932L268.155 54.9631Z" fill="white"/>
<path d="M274.487 74.8696L278.029 70.5665L272.501 71.0831L274.487 74.8696ZM268.574 73.1055C268.56 73.1572 268.338 73.231 268.294 73.1941C268.095 72.7734 267.762 72.1091 267.445 71.5039C267.157 70.9577 266.832 70.3819 266.626 70.0203C266.618 69.9612 266.81 69.821 266.855 69.8357C267.489 70.2343 268.124 70.3524 269.814 70.1974L280.805 69.26C280.864 69.2895 281.041 69.6291 281.034 69.6881L274.014 78.3535C272.885 79.7411 272.678 80.2726 272.656 80.8926C272.641 80.9442 272.42 81.018 272.376 80.9811C272.139 80.4497 271.918 79.9994 271.571 79.3278C271.217 78.6561 270.818 77.9328 270.516 77.4382C270.508 77.3792 270.7 77.2389 270.744 77.2537C271.379 77.8368 271.977 77.9328 273.143 76.5082L273.785 75.748L271.394 71.1865L270.737 71.2455C269.084 71.3931 268.441 71.8286 268.574 73.1055Z" fill="white"/>
<path d="M274.487 74.8696L278.029 70.5665L272.501 71.0831L274.487 74.8696ZM268.574 73.1055C268.56 73.1572 268.338 73.231 268.294 73.1941C268.095 72.7734 267.762 72.1091 267.445 71.5039C267.157 70.9577 266.832 70.3819 266.626 70.0203C266.618 69.9612 266.81 69.821 266.855 69.8357C267.489 70.2343 268.124 70.3524 269.814 70.1974L280.805 69.26C280.864 69.2895 281.041 69.6291 281.034 69.6881L274.014 78.3535C272.885 79.7411 272.678 80.2726 272.656 80.8926C272.641 80.9442 272.42 81.018 272.376 80.9811C272.139 80.4497 271.918 79.9994 271.571 79.3278C271.217 78.6561 270.818 77.9328 270.516 77.4382C270.508 77.3792 270.7 77.2389 270.744 77.2537C271.379 77.8368 271.977 77.9328 273.143 76.5082L273.785 75.748L271.394 71.1865L270.737 71.2455C269.084 71.3931 268.441 71.8286 268.574 73.1055Z" fill="white"/>
<path d="M285.825 83.4538L284.88 81.018L280.156 82.8486L281.101 85.2843C281.802 87.1 282.784 87.5872 284.43 86.9524C286.091 86.3029 286.519 85.2548 285.825 83.4538ZM282.444 80.0216C284.024 79.409 284.496 78.9366 284.563 78.0066C284.585 77.9623 284.814 77.9106 284.851 77.9549C285.02 78.4347 285.279 79.158 285.53 79.8149L286.799 83.0921C287.862 85.8305 287.242 87.9858 285.175 88.7829C283.507 89.4251 281.942 88.7756 280.85 87.0927L278.746 89.4915C277.912 90.4289 277.588 91.0046 277.868 91.7206C277.971 91.9937 278.193 92.2151 278.377 92.3332C278.414 92.3775 278.37 92.5694 278.318 92.5842C277.647 92.6875 276.687 92.407 276.303 91.4327C275.816 90.1706 276.562 89.152 277.543 88.0522L279.994 85.3434L279.167 83.2102L276.443 84.2657C275.167 84.7602 274.746 85.1736 274.709 86.1331C274.687 86.1774 274.458 86.2291 274.421 86.1848C274.251 85.6534 274.03 85.0186 273.764 84.3322C273.498 83.6457 273.24 83.0257 273.004 82.5164C273.004 82.4574 273.203 82.3393 273.255 82.3614C273.927 83.0478 274.517 83.07 275.794 82.5755L282.444 80.0216Z" fill="white"/>
<path d="M285.825 83.4538L284.88 81.018L280.156 82.8486L281.101 85.2843C281.802 87.1 282.784 87.5872 284.43 86.9524C286.091 86.3029 286.519 85.2548 285.825 83.4538ZM282.444 80.0216C284.024 79.409 284.496 78.9366 284.563 78.0066C284.585 77.9623 284.814 77.9106 284.851 77.9549C285.02 78.4347 285.279 79.158 285.53 79.8149L286.799 83.0921C287.862 85.8305 287.242 87.9858 285.175 88.7829C283.507 89.4251 281.942 88.7756 280.85 87.0927L278.746 89.4915C277.912 90.4289 277.588 91.0046 277.868 91.7206C277.971 91.9937 278.193 92.2151 278.377 92.3332C278.414 92.3775 278.37 92.5694 278.318 92.5842C277.647 92.6875 276.687 92.407 276.303 91.4327C275.816 90.1706 276.562 89.152 277.543 88.0522L279.994 85.3434L279.167 83.2102L276.443 84.2657C275.167 84.7602 274.746 85.1736 274.709 86.1331C274.687 86.1774 274.458 86.2291 274.421 86.1848C274.251 85.6534 274.03 85.0186 273.764 84.3322C273.498 83.6457 273.24 83.0257 273.004 82.5164C273.004 82.4574 273.203 82.3393 273.255 82.3614C273.927 83.0478 274.517 83.07 275.794 82.5755L282.444 80.0216Z" fill="white"/>
<path d="M279.367 101.663C279.256 101.095 279.094 100.408 278.902 99.6628C278.703 98.9099 278.511 98.2383 278.334 97.6847C278.341 97.6256 278.555 97.5371 278.599 97.5592C279.242 98.3785 279.832 98.4892 281.205 98.1275L284.032 97.3894L287.715 93.3003C288.896 91.9865 289.213 91.6248 289.361 90.8424C289.391 90.7981 289.627 90.776 289.656 90.8203C289.737 91.2115 289.922 92.0529 290.107 92.7541C290.298 93.507 290.549 94.2968 290.668 94.6953C290.66 94.7544 290.446 94.843 290.402 94.8208C289.952 94.2303 289.472 94.1122 288.475 95.212L285.589 98.3637L289.332 99.6407C290.638 100.084 291.347 99.8621 291.42 98.7033C291.45 98.659 291.679 98.6368 291.716 98.6811C291.804 99.0871 292.033 100.032 292.188 100.644C292.343 101.235 292.498 101.759 292.609 102.121C292.601 102.18 292.387 102.268 292.343 102.246C292.018 101.774 291.391 101.523 289.627 100.903L284.504 99.124L281.663 99.8621C280.282 100.224 279.825 100.6 279.662 101.634C279.633 101.685 279.397 101.707 279.367 101.663Z" fill="white"/>
<path d="M279.367 101.663C279.256 101.095 279.094 100.408 278.902 99.6628C278.703 98.9099 278.511 98.2383 278.334 97.6847C278.341 97.6256 278.555 97.5371 278.599 97.5592C279.242 98.3785 279.832 98.4892 281.205 98.1275L284.032 97.3894L287.715 93.3003C288.896 91.9865 289.213 91.6248 289.361 90.8424C289.391 90.7981 289.627 90.776 289.656 90.8203C289.737 91.2115 289.922 92.0529 290.107 92.7541C290.298 93.507 290.549 94.2968 290.668 94.6953C290.66 94.7544 290.446 94.843 290.402 94.8208C289.952 94.2303 289.472 94.1122 288.475 95.212L285.589 98.3637L289.332 99.6407C290.638 100.084 291.347 99.8621 291.42 98.7033C291.45 98.659 291.679 98.6368 291.716 98.6811C291.804 99.0871 292.033 100.032 292.188 100.644C292.343 101.235 292.498 101.759 292.609 102.121C292.601 102.18 292.387 102.268 292.343 102.246C292.018 101.774 291.391 101.523 289.627 100.903L284.504 99.124L281.663 99.8621C280.282 100.224 279.825 100.6 279.662 101.634C279.633 101.685 279.397 101.707 279.367 101.663Z" fill="white"/>
<path d="M57.7724 174.197C57.7946 174.263 57.7429 174.411 57.6765 174.448C57.2262 174.522 55.9493 174.898 54.9676 175.274C54.8938 175.274 54.7905 175.046 54.8274 174.979C55.9788 174.093 56.2446 173.23 55.7353 171.444L55.4031 170.285L46.819 172.721C45.4461 173.112 44.9958 173.503 44.863 174.529C44.8408 174.573 44.6046 174.603 44.5677 174.558C44.4422 173.99 44.2725 173.311 44.0584 172.566C43.8444 171.82 43.6377 171.148 43.4458 170.602C43.4458 170.543 43.6599 170.447 43.7115 170.469C44.3684 171.274 44.9589 171.37 46.3318 170.979L54.916 168.543L54.5838 167.384C54.0745 165.598 53.4029 165 51.9562 164.852C51.8897 164.815 51.8528 164.564 51.9193 164.528C52.9526 164.328 54.2369 163.981 54.6576 163.804C54.7314 163.804 54.8495 163.9 54.8717 163.967C54.8938 164.313 55.0636 165.17 55.5655 166.934L56.8055 171.303C57.3074 173.075 57.6101 173.887 57.7724 174.197Z" fill="white"/>
<path d="M57.7724 174.197C57.7946 174.263 57.7429 174.411 57.6765 174.448C57.2262 174.522 55.9493 174.898 54.9676 175.274C54.8938 175.274 54.7905 175.046 54.8274 174.979C55.9788 174.093 56.2446 173.23 55.7353 171.444L55.4031 170.285L46.819 172.721C45.4461 173.112 44.9958 173.503 44.863 174.529C44.8408 174.573 44.6046 174.603 44.5677 174.558C44.4422 173.99 44.2725 173.311 44.0584 172.566C43.8444 171.82 43.6377 171.148 43.4458 170.602C43.4458 170.543 43.6599 170.447 43.7115 170.469C44.3684 171.274 44.9589 171.37 46.3318 170.979L54.916 168.543L54.5838 167.384C54.0745 165.598 53.4029 165 51.9562 164.852C51.8897 164.815 51.8528 164.564 51.9193 164.528C52.9526 164.328 54.2369 163.981 54.6576 163.804C54.7314 163.804 54.8495 163.9 54.8717 163.967C54.8938 164.313 55.0636 165.17 55.5655 166.934L56.8055 171.303C57.3074 173.075 57.6101 173.887 57.7724 174.197Z" fill="white"/>
<path d="M53.9607 183.615L50.9419 184.943C49.6871 185.497 49.2885 185.925 49.2959 186.885C49.2811 186.929 49.0449 186.995 49.008 186.951C48.8161 186.427 48.5652 185.807 48.2625 185.135C47.9673 184.456 47.6794 183.858 47.4211 183.356C47.4137 183.297 47.613 183.172 47.6647 183.194C48.3659 183.851 48.9564 183.851 50.2111 183.297L57.1051 180.264C58.3598 179.71 58.7584 179.282 58.751 178.315C58.7732 178.271 59.002 178.204 59.0389 178.249C59.2308 178.773 59.4818 179.393 59.7844 180.064C60.0796 180.744 60.3675 181.341 60.6258 181.843C60.6332 181.902 60.4339 182.028 60.3822 182.006C59.681 181.349 59.0906 181.356 57.8358 181.902L54.935 183.179L57.6291 189.298L60.5299 188.021C61.7847 187.468 62.1832 187.04 62.1759 186.073C62.1906 186.021 62.4194 185.962 62.4637 186.006C62.6556 186.53 62.9066 187.15 63.2018 187.829C63.4971 188.508 63.7849 189.106 64.0433 189.608C64.0506 189.667 63.8514 189.793 63.7997 189.771C63.0985 189.114 62.508 189.121 61.2532 189.667L54.3593 192.701C53.1045 193.254 52.7059 193.683 52.7133 194.649C52.6912 194.694 52.4624 194.76 52.4255 194.716C52.2336 194.192 51.9826 193.572 51.68 192.893C51.3847 192.214 51.0969 191.616 50.8385 191.114C50.8312 191.055 51.0304 190.929 51.0821 190.952C51.7833 191.608 52.3738 191.601 53.6286 191.055L56.6474 189.726L53.9607 183.615Z" fill="white"/>
<path d="M53.9607 183.615L50.9419 184.943C49.6871 185.497 49.2885 185.925 49.2959 186.885C49.2811 186.929 49.0449 186.995 49.008 186.951C48.8161 186.427 48.5652 185.807 48.2625 185.135C47.9673 184.456 47.6794 183.858 47.4211 183.356C47.4137 183.297 47.613 183.172 47.6647 183.194C48.3659 183.851 48.9564 183.851 50.2111 183.297L57.1051 180.264C58.3598 179.71 58.7584 179.282 58.751 178.315C58.7732 178.271 59.002 178.204 59.0389 178.249C59.2308 178.773 59.4818 179.393 59.7844 180.064C60.0796 180.744 60.3675 181.341 60.6258 181.843C60.6332 181.902 60.4339 182.028 60.3822 182.006C59.681 181.349 59.0906 181.356 57.8358 181.902L54.935 183.179L57.6291 189.298L60.5299 188.021C61.7847 187.468 62.1832 187.04 62.1759 186.073C62.1906 186.021 62.4194 185.962 62.4637 186.006C62.6556 186.53 62.9066 187.15 63.2018 187.829C63.4971 188.508 63.7849 189.106 64.0433 189.608C64.0506 189.667 63.8514 189.793 63.7997 189.771C63.0985 189.114 62.508 189.121 61.2532 189.667L54.3593 192.701C53.1045 193.254 52.7059 193.683 52.7133 194.649C52.6912 194.694 52.4624 194.76 52.4255 194.716C52.2336 194.192 51.9826 193.572 51.68 192.893C51.3847 192.214 51.0969 191.616 50.8385 191.114C50.8312 191.055 51.0304 190.929 51.0821 190.952C51.7833 191.608 52.3738 191.601 53.6286 191.055L56.6474 189.726L53.9607 183.615Z" fill="white"/>
<path d="M55.4906 200.34C55.4758 200.281 55.6603 200.134 55.7046 200.141C56.4944 200.672 57.1218 200.584 58.4209 199.779L64.3036 196.163C65.7503 195.277 66.1267 194.723 66.0234 193.793C66.0381 193.742 66.2522 193.653 66.2965 193.69C66.5474 194.133 66.9386 194.797 67.3003 195.395L69.4556 198.894C70.4151 200.458 70.9318 201.16 71.1753 201.411C71.2123 201.47 71.2049 201.625 71.1532 201.684C70.7399 201.876 69.8468 202.444 69.0053 203.071C68.9315 203.093 68.7691 202.894 68.7913 202.82C69.5441 201.809 69.4851 200.953 68.5698 199.462L66.8722 196.701L62.8938 199.145L64.0452 201.019C64.6579 202.016 65.2631 202.488 66.2226 202.392C66.2891 202.392 66.3998 202.643 66.3629 202.687C66.0455 202.865 65.3886 203.241 64.9605 203.507C64.5324 203.772 63.8976 204.178 63.595 204.385C63.5359 204.4 63.3662 204.186 63.3957 204.127C63.9124 203.322 63.7721 202.562 63.1521 201.566L62.0007 199.691L57.9337 202.193L59.7347 205.123C60.7164 206.717 61.4397 207.101 62.9602 206.821C63.034 206.836 63.1374 207.072 63.0857 207.123C62.0819 207.655 61.1371 208.26 60.7385 208.57C60.6795 208.607 60.5171 208.555 60.4802 208.496C60.3473 208.216 60.0521 207.662 58.849 205.714L56.5608 202.001C56.1918 201.418 55.7711 200.761 55.4906 200.34Z" fill="white"/>
<path d="M55.4906 200.34C55.4758 200.281 55.6603 200.134 55.7046 200.141C56.4944 200.672 57.1218 200.584 58.4209 199.779L64.3036 196.163C65.7503 195.277 66.1267 194.723 66.0234 193.793C66.0381 193.742 66.2522 193.653 66.2965 193.69C66.5474 194.133 66.9386 194.797 67.3003 195.395L69.4556 198.894C70.4151 200.458 70.9318 201.16 71.1753 201.411C71.2123 201.47 71.2049 201.625 71.1532 201.684C70.7399 201.876 69.8468 202.444 69.0053 203.071C68.9315 203.093 68.7691 202.894 68.7913 202.82C69.5441 201.809 69.4851 200.953 68.5698 199.462L66.8722 196.701L62.8938 199.145L64.0452 201.019C64.6579 202.016 65.2631 202.488 66.2226 202.392C66.2891 202.392 66.3998 202.643 66.3629 202.687C66.0455 202.865 65.3886 203.241 64.9605 203.507C64.5324 203.772 63.8976 204.178 63.595 204.385C63.5359 204.4 63.3662 204.186 63.3957 204.127C63.9124 203.322 63.7721 202.562 63.1521 201.566L62.0007 199.691L57.9337 202.193L59.7347 205.123C60.7164 206.717 61.4397 207.101 62.9602 206.821C63.034 206.836 63.1374 207.072 63.0857 207.123C62.0819 207.655 61.1371 208.26 60.7385 208.57C60.6795 208.607 60.5171 208.555 60.4802 208.496C60.3473 208.216 60.0521 207.662 58.849 205.714L56.5608 202.001C56.1918 201.418 55.7711 200.761 55.4906 200.34Z" fill="white"/>
<path d="M78.2832 212.711L74.2457 216.254L75.7293 217.945C77.0136 219.406 78.1429 219.495 79.538 218.269C80.9625 217.022 81.0216 215.834 79.7594 214.402L78.2832 212.711ZM70.5921 221.074C70.5921 221.126 70.3854 221.251 70.3412 221.222C69.9869 220.764 69.5366 220.225 69.0273 219.642C68.5402 219.089 68.0899 218.594 67.6914 218.203C67.6692 218.151 67.8242 217.967 67.8759 217.974C68.7395 218.387 69.3004 218.21 70.3338 217.302L75.6851 212.601C76.962 211.486 77.2425 210.874 76.9767 209.98C76.9767 209.929 77.176 209.803 77.2277 209.833C77.5451 210.224 78.047 210.822 78.512 211.346L80.5935 213.715C82.5199 215.907 82.638 218.203 80.9035 219.723C79.1689 221.244 76.8882 220.831 74.9617 218.638L73.4781 216.948L71.5959 218.601C70.5109 219.539 70.2673 220.085 70.5921 221.074Z" fill="white"/>
<path d="M78.2832 212.711L74.2457 216.254L75.7293 217.945C77.0136 219.406 78.1429 219.495 79.538 218.269C80.9625 217.022 81.0216 215.834 79.7594 214.402L78.2832 212.711ZM70.5921 221.074C70.5921 221.126 70.3854 221.251 70.3412 221.222C69.9869 220.764 69.5366 220.225 69.0273 219.642C68.5402 219.089 68.0899 218.594 67.6914 218.203C67.6692 218.151 67.8242 217.967 67.8759 217.974C68.7395 218.387 69.3004 218.21 70.3338 217.302L75.6851 212.601C76.962 211.486 77.2425 210.874 76.9767 209.98C76.9767 209.929 77.176 209.803 77.2277 209.833C77.5451 210.224 78.047 210.822 78.512 211.346L80.5935 213.715C82.5199 215.907 82.638 218.203 80.9035 219.723C79.1689 221.244 76.8882 220.831 74.9617 218.638L73.4781 216.948L71.5959 218.601C70.5109 219.539 70.2673 220.085 70.5921 221.074Z" fill="white"/>
<path d="M89.9019 231.533C92.2417 228.861 92.4557 226.41 90.4481 224.653C88.4552 222.904 86.0785 223.406 83.7313 226.078C81.3915 228.75 81.1774 231.2 83.1851 232.957C85.178 234.706 87.5621 234.205 89.9019 231.533ZM82.2182 224.794C84.7573 221.893 88.4773 221.509 91.164 223.864C93.8729 226.24 93.9762 229.901 91.4224 232.817C88.8759 235.718 85.1632 236.101 82.4765 233.747C79.7603 231.37 79.6569 227.709 82.2182 224.794Z" fill="white"/>
<path d="M89.9019 231.533C92.2417 228.861 92.4557 226.41 90.4481 224.653C88.4552 222.904 86.0785 223.406 83.7313 226.078C81.3915 228.75 81.1774 231.2 83.1851 232.957C85.178 234.706 87.5621 234.205 89.9019 231.533ZM82.2182 224.794C84.7573 221.893 88.4773 221.509 91.164 223.864C93.8729 226.24 93.9762 229.901 91.4224 232.817C88.8759 235.718 85.1632 236.101 82.4765 233.747C79.7603 231.37 79.6569 227.709 82.2182 224.794Z" fill="white"/>
<path d="M93.5992 242.169C93.0161 241.778 92.3666 241.357 91.9311 241.091C91.8942 241.047 91.9976 240.833 92.0492 240.825C92.9719 240.973 93.5402 240.611 94.485 239.209L98.4708 233.304C99.2384 232.167 99.3417 231.592 98.825 230.78C98.8177 230.728 98.98 230.558 99.0317 230.573C99.4746 230.913 100.021 231.304 100.633 231.717C101.276 232.153 101.866 232.529 102.368 232.824C102.405 232.869 102.302 233.083 102.25 233.09C101.224 232.898 100.715 233.208 99.9174 234.389L94.9278 241.785L97.3341 243.409C98.8915 244.457 99.7034 244.509 100.973 243.623C101.047 243.608 101.239 243.778 101.209 243.852C100.515 244.752 99.9027 245.69 99.6665 246.14C99.6222 246.199 99.4598 246.221 99.4008 246.177C99.1646 245.977 98.6627 245.594 96.7657 244.317L93.5992 242.169Z" fill="white"/>
<path d="M93.5992 242.169C93.0161 241.778 92.3666 241.357 91.9311 241.091C91.8942 241.047 91.9976 240.833 92.0492 240.825C92.9719 240.973 93.5402 240.611 94.485 239.209L98.4708 233.304C99.2384 232.167 99.3417 231.592 98.825 230.78C98.8177 230.728 98.98 230.558 99.0317 230.573C99.4746 230.913 100.021 231.304 100.633 231.717C101.276 232.153 101.866 232.529 102.368 232.824C102.405 232.869 102.302 233.083 102.25 233.09C101.224 232.898 100.715 233.208 99.9174 234.389L94.9278 241.785L97.3341 243.409C98.8915 244.457 99.7034 244.509 100.973 243.623C101.047 243.608 101.239 243.778 101.209 243.852C100.515 244.752 99.9027 245.69 99.6665 246.14C99.6222 246.199 99.4598 246.221 99.4008 246.177C99.1646 245.977 98.6627 245.594 96.7657 244.317L93.5992 242.169Z" fill="white"/>
<path d="M115.329 247.572C116.945 244.413 116.546 241.985 114.17 240.767C111.808 239.564 109.623 240.627 108.007 243.793C106.39 246.952 106.789 249.388 109.165 250.598C111.527 251.801 113.712 250.731 115.329 247.572ZM106.228 242.922C107.984 239.49 111.49 238.206 114.672 239.829C117.882 241.468 118.872 244.996 117.107 248.443C115.351 251.875 111.845 253.16 108.663 251.536C105.46 249.89 104.464 246.369 106.228 242.922Z" fill="white"/>
<path d="M115.329 247.572C116.945 244.413 116.546 241.985 114.17 240.767C111.808 239.564 109.623 240.627 108.007 243.793C106.39 246.952 106.789 249.388 109.165 250.598C111.527 251.801 113.712 250.731 115.329 247.572ZM106.228 242.922C107.984 239.49 111.49 238.206 114.672 239.829C117.882 241.468 118.872 244.996 117.107 248.443C115.351 251.875 111.845 253.16 108.663 251.536C105.46 249.89 104.464 246.369 106.228 242.922Z" fill="white"/>
<path d="M129.326 259.809L124.771 247.623L122.528 254.096C121.967 255.713 121.981 256.385 122.742 257.167C122.764 257.211 122.653 257.425 122.594 257.418C122.21 257.263 121.553 257.019 120.985 256.827C120.424 256.635 119.752 256.421 119.354 256.303C119.31 256.266 119.354 256.038 119.398 256.015C120.476 255.875 120.904 255.359 121.465 253.735L123.716 247.247C124.166 245.955 124.107 245.283 123.458 244.619C123.436 244.575 123.546 244.368 123.605 244.368C124.011 244.531 124.631 244.759 125.214 244.966C125.879 245.195 126.277 245.313 126.779 245.453C126.823 245.49 126.868 245.638 126.846 245.704C126.44 246.213 126.417 246.833 126.794 247.845L129.887 256.318L131.894 250.524C132.455 248.907 132.44 248.236 131.68 247.453C131.658 247.409 131.769 247.195 131.828 247.195C132.212 247.35 132.869 247.594 133.437 247.793C133.998 247.985 134.669 248.199 135.068 248.317C135.112 248.354 135.068 248.583 135.024 248.605C133.946 248.745 133.518 249.262 132.957 250.886L129.842 259.883C129.776 259.927 129.377 259.883 129.326 259.809Z" fill="white"/>
<path d="M129.326 259.809L124.771 247.623L122.528 254.096C121.967 255.713 121.981 256.385 122.742 257.167C122.764 257.211 122.653 257.425 122.594 257.418C122.21 257.263 121.553 257.019 120.985 256.827C120.424 256.635 119.752 256.421 119.354 256.303C119.31 256.266 119.354 256.038 119.398 256.015C120.476 255.875 120.904 255.359 121.465 253.735L123.716 247.247C124.166 245.955 124.107 245.283 123.458 244.619C123.436 244.575 123.546 244.368 123.605 244.368C124.011 244.531 124.631 244.759 125.214 244.966C125.879 245.195 126.277 245.313 126.779 245.453C126.823 245.49 126.868 245.638 126.846 245.704C126.44 246.213 126.417 246.833 126.794 247.845L129.887 256.318L131.894 250.524C132.455 248.907 132.44 248.236 131.68 247.453C131.658 247.409 131.769 247.195 131.828 247.195C132.212 247.35 132.869 247.594 133.437 247.793C133.998 247.985 134.669 248.199 135.068 248.317C135.112 248.354 135.068 248.583 135.024 248.605C133.946 248.745 133.518 249.262 132.957 250.886L129.842 259.883C129.776 259.927 129.377 259.883 129.326 259.809Z" fill="white"/>
<path d="M140.92 252.458C140.654 253.765 141.355 254.385 143.333 255.603C145.105 256.754 146.67 257.92 146.212 260.149C145.747 262.408 143.909 263.508 141.436 262.998C139.687 262.644 138.691 261.685 137.997 261.544C137.731 261.493 137.569 261.566 137.414 261.685C137.34 261.685 137.17 261.596 137.148 261.537C137.517 260.452 137.849 259.382 138.13 258.282C138.174 258.238 138.395 258.245 138.44 258.311C138.632 260.245 139.776 261.603 141.665 261.987C143.186 262.297 144.241 261.707 144.514 260.4C144.795 259.042 144.234 258.341 142.241 257.123C140.403 255.957 138.794 254.894 139.237 252.717C139.658 250.65 141.392 249.572 143.599 250.022C144.891 250.288 145.444 250.805 146.079 250.93C146.293 250.975 146.47 250.916 146.596 250.82C146.67 250.812 146.839 250.886 146.861 250.945C146.692 251.956 146.596 252.968 146.529 254.008C146.515 254.082 146.271 254.104 146.227 254.038C145.651 252.355 144.669 251.307 143.363 251.041C142.079 250.761 141.156 251.307 140.92 252.458Z" fill="white"/>
<path d="M140.92 252.458C140.654 253.765 141.355 254.385 143.333 255.603C145.105 256.754 146.67 257.92 146.212 260.149C145.747 262.408 143.909 263.508 141.436 262.998C139.687 262.644 138.691 261.685 137.997 261.544C137.731 261.493 137.569 261.566 137.414 261.685C137.34 261.685 137.17 261.596 137.148 261.537C137.517 260.452 137.849 259.382 138.13 258.282C138.174 258.238 138.395 258.245 138.44 258.311C138.632 260.245 139.776 261.603 141.665 261.987C143.186 262.297 144.241 261.707 144.514 260.4C144.795 259.042 144.234 258.341 142.241 257.123C140.403 255.957 138.794 254.894 139.237 252.717C139.658 250.65 141.392 249.572 143.599 250.022C144.891 250.288 145.444 250.805 146.079 250.93C146.293 250.975 146.47 250.916 146.596 250.82C146.67 250.812 146.839 250.886 146.861 250.945C146.692 251.956 146.596 252.968 146.529 254.008C146.515 254.082 146.271 254.104 146.227 254.038C145.651 252.355 144.669 251.307 143.363 251.041C142.079 250.761 141.156 251.307 140.92 252.458Z" fill="white"/>
<path d="M155.814 264.821C155.261 264.748 154.597 264.674 153.858 264.622C153.12 264.57 152.456 264.534 151.895 264.534C151.843 264.511 151.821 264.275 151.866 264.238C152.773 263.928 153.047 263.404 153.15 262.039L153.703 254.525C153.807 253.159 153.615 252.598 152.759 252.155C152.729 252.119 152.781 251.89 152.832 251.875C153.386 251.949 154.05 252.015 154.788 252.074C155.527 252.133 156.191 252.163 156.752 252.163C156.803 252.185 156.826 252.421 156.781 252.458C155.873 252.768 155.6 253.292 155.497 254.658L155.202 258.651L159.808 254.798C160.944 253.838 161.158 253.145 160.214 252.716C160.184 252.68 160.236 252.443 160.287 252.436C160.715 252.488 161.756 252.584 162.42 252.628C163.07 252.68 163.875 252.716 164.295 252.731C164.347 252.753 164.369 252.99 164.332 253.026C163.542 253.167 162.908 253.661 161.35 254.96L158.597 257.211L161.845 262.858C162.694 264.312 162.937 264.725 163.609 265.124C163.646 265.161 163.587 265.39 163.535 265.412C163.144 265.36 162.28 265.264 161.564 265.213C160.774 265.154 159.926 265.131 159.512 265.117C159.461 265.094 159.439 264.858 159.483 264.829C160.206 264.593 160.472 264.179 159.771 262.932L157.195 258.385L155.098 260.112L154.943 262.201C154.84 263.567 155.032 264.12 155.888 264.563C155.918 264.578 155.866 264.807 155.814 264.821Z" fill="white"/>
<path d="M155.814 264.821C155.261 264.748 154.597 264.674 153.858 264.622C153.12 264.57 152.456 264.534 151.895 264.534C151.843 264.511 151.821 264.275 151.866 264.238C152.773 263.928 153.047 263.404 153.15 262.039L153.703 254.525C153.807 253.159 153.615 252.598 152.759 252.155C152.729 252.119 152.781 251.89 152.832 251.875C153.386 251.949 154.05 252.015 154.788 252.074C155.527 252.133 156.191 252.163 156.752 252.163C156.803 252.185 156.826 252.421 156.781 252.458C155.873 252.768 155.6 253.292 155.497 254.658L155.202 258.651L159.808 254.798C160.944 253.838 161.158 253.145 160.214 252.716C160.184 252.68 160.236 252.443 160.287 252.436C160.715 252.488 161.756 252.584 162.42 252.628C163.07 252.68 163.875 252.716 164.295 252.731C164.347 252.753 164.369 252.99 164.332 253.026C163.542 253.167 162.908 253.661 161.35 254.96L158.597 257.211L161.845 262.858C162.694 264.312 162.937 264.725 163.609 265.124C163.646 265.161 163.587 265.39 163.535 265.412C163.144 265.36 162.28 265.264 161.564 265.213C160.774 265.154 159.926 265.131 159.512 265.117C159.461 265.094 159.439 264.858 159.483 264.829C160.206 264.593 160.472 264.179 159.771 262.932L157.195 258.385L155.098 260.112L154.943 262.201C154.84 263.567 155.032 264.12 155.888 264.563C155.918 264.578 155.866 264.807 155.814 264.821Z" fill="white"/>
<path d="M176.948 264.88C176.373 264.88 175.671 264.91 174.896 264.954C174.121 265.006 173.42 265.065 172.852 265.139C172.8 265.124 172.748 264.895 172.778 264.851C173.708 264.379 173.922 263.818 173.833 262.4L173.649 259.485L170.335 255.093C169.272 253.683 168.977 253.3 168.231 253.004C168.194 252.967 168.216 252.739 168.268 252.709C168.667 252.702 169.53 252.687 170.246 252.635C171.021 252.584 171.848 252.495 172.261 252.451C172.313 252.466 172.365 252.694 172.335 252.739C171.671 253.071 171.464 253.514 172.35 254.702L174.896 258.134L176.86 254.702C177.539 253.506 177.458 252.768 176.336 252.48C176.299 252.443 176.321 252.207 176.373 252.192C176.786 252.185 177.76 252.141 178.388 252.096C179 252.06 179.539 252.008 179.915 251.964C179.967 251.978 180.019 252.207 179.989 252.251C179.465 252.48 179.104 253.049 178.159 254.665L175.443 259.352L175.627 262.282C175.716 263.7 176.003 264.224 176.985 264.578C177.022 264.63 177 264.866 176.948 264.88Z" fill="white"/>
<path d="M176.948 264.88C176.373 264.88 175.671 264.91 174.896 264.954C174.121 265.006 173.42 265.065 172.852 265.139C172.8 265.124 172.748 264.895 172.778 264.851C173.708 264.379 173.922 263.818 173.833 262.4L173.649 259.485L170.335 255.093C169.272 253.683 168.977 253.3 168.231 253.004C168.194 252.967 168.216 252.739 168.268 252.709C168.667 252.702 169.53 252.687 170.246 252.635C171.021 252.584 171.848 252.495 172.261 252.451C172.313 252.466 172.365 252.694 172.335 252.739C171.671 253.071 171.464 253.514 172.35 254.702L174.896 258.134L176.86 254.702C177.539 253.506 177.458 252.768 176.336 252.48C176.299 252.443 176.321 252.207 176.373 252.192C176.786 252.185 177.76 252.141 178.388 252.096C179 252.06 179.539 252.008 179.915 251.964C179.967 251.978 180.019 252.207 179.989 252.251C179.465 252.48 179.104 253.049 178.159 254.665L175.443 259.352L175.627 262.282C175.716 263.7 176.003 264.224 176.985 264.578C177.022 264.63 177 264.866 176.948 264.88Z" fill="white"/>
<path d="M191.9 262.887C191.841 262.88 191.752 262.666 191.782 262.622C192.534 262.039 192.645 261.419 192.291 259.928L190.697 253.211C190.305 251.565 189.899 251.026 188.984 250.842C188.94 250.812 188.925 250.583 188.969 250.546C189.464 250.443 190.224 250.288 190.903 250.118L194.904 249.166C196.69 248.738 197.517 248.472 197.834 248.317C197.908 248.302 198.048 248.362 198.085 248.428C198.137 248.878 198.402 249.912 198.727 250.908C198.727 250.982 198.491 251.078 198.425 251.033C197.701 250 196.867 249.793 195.169 250.199L192.01 250.952L193.088 255.492L195.229 254.982C196.365 254.709 197.007 254.281 197.207 253.344C197.229 253.285 197.502 253.255 197.531 253.307C197.598 253.661 197.753 254.399 197.871 254.894C197.989 255.381 198.181 256.119 198.284 256.466C198.277 256.525 198.026 256.621 197.974 256.577C197.369 255.831 196.609 255.735 195.465 256.001L193.324 256.51L194.431 261.16L197.782 260.363C199.605 259.928 200.196 259.367 200.403 257.831C200.44 257.765 200.698 257.743 200.735 257.809C200.927 258.931 201.2 260.016 201.37 260.496C201.384 260.57 201.288 260.703 201.222 260.717C200.912 260.754 200.292 260.865 198.07 261.396L193.826 262.408C193.132 262.555 192.387 262.747 191.9 262.887Z" fill="white"/>
<path d="M191.9 262.887C191.841 262.88 191.752 262.666 191.782 262.622C192.534 262.039 192.645 261.419 192.291 259.928L190.697 253.211C190.305 251.565 189.899 251.026 188.984 250.842C188.94 250.812 188.925 250.583 188.969 250.546C189.464 250.443 190.224 250.288 190.903 250.118L194.904 249.166C196.69 248.738 197.517 248.472 197.834 248.317C197.908 248.302 198.048 248.362 198.085 248.428C198.137 248.878 198.402 249.912 198.727 250.908C198.727 250.982 198.491 251.078 198.425 251.033C197.701 250 196.867 249.793 195.169 250.199L192.01 250.952L193.088 255.492L195.229 254.982C196.365 254.709 197.007 254.281 197.207 253.344C197.229 253.285 197.502 253.255 197.531 253.307C197.598 253.661 197.753 254.399 197.871 254.894C197.989 255.381 198.181 256.119 198.284 256.466C198.277 256.525 198.026 256.621 197.974 256.577C197.369 255.831 196.609 255.735 195.465 256.001L193.324 256.51L194.431 261.16L197.782 260.363C199.605 259.928 200.196 259.367 200.403 257.831C200.44 257.765 200.698 257.743 200.735 257.809C200.927 258.931 201.2 260.016 201.37 260.496C201.384 260.57 201.288 260.703 201.222 260.717C200.912 260.754 200.292 260.865 198.07 261.396L193.826 262.408C193.132 262.555 192.387 262.747 191.9 262.887Z" fill="white"/>
<path d="M210.286 257.389C210.33 257.411 210.382 257.64 210.338 257.676C209.924 257.817 209.009 258.141 208.404 258.378C207.828 258.599 207.319 258.813 206.95 258.968C206.891 258.968 206.773 258.761 206.795 258.717C207.282 258.319 207.526 257.647 207.998 255.957L209.29 251.373L205.141 248.598C203.769 247.69 203.377 247.417 202.595 247.35C202.551 247.328 202.499 247.099 202.543 247.062C202.92 246.937 203.739 246.664 204.418 246.406C205.156 246.125 205.939 245.786 206.315 245.623C206.374 245.623 206.492 245.83 206.47 245.874C205.916 246.391 205.85 246.878 207.001 247.66L210.109 249.771L211.032 246.391C211.364 245.143 211.15 244.472 210.013 244.523C209.969 244.501 209.917 244.272 209.961 244.236C210.375 244.095 211.29 243.763 211.895 243.534C212.449 243.32 212.98 243.099 213.349 242.944C213.408 242.944 213.526 243.15 213.504 243.195C213.017 243.593 212.773 244.265 212.301 245.955L211.083 250.281L215.46 253.203C216.826 254.111 217.224 254.384 217.999 254.451C218.044 254.473 218.095 254.702 218.051 254.739C217.674 254.864 216.855 255.137 216.176 255.396C215.438 255.676 214.656 256.016 214.279 256.178C214.22 256.178 214.102 255.971 214.124 255.927C214.678 255.403 214.744 254.916 213.593 254.141L210.257 251.868L209.26 255.529C208.928 256.769 209.149 257.44 210.286 257.389Z" fill="white"/>
<path d="M210.286 257.389C210.33 257.411 210.382 257.64 210.338 257.676C209.924 257.817 209.009 258.141 208.404 258.378C207.828 258.599 207.319 258.813 206.95 258.968C206.891 258.968 206.773 258.761 206.795 258.717C207.282 258.319 207.526 257.647 207.998 255.957L209.29 251.373L205.141 248.598C203.769 247.69 203.377 247.417 202.595 247.35C202.551 247.328 202.499 247.099 202.543 247.062C202.92 246.937 203.739 246.664 204.418 246.406C205.156 246.125 205.939 245.786 206.315 245.623C206.374 245.623 206.492 245.83 206.47 245.874C205.916 246.391 205.85 246.878 207.001 247.66L210.109 249.771L211.032 246.391C211.364 245.143 211.15 244.472 210.013 244.523C209.969 244.501 209.917 244.272 209.961 244.236C210.375 244.095 211.29 243.763 211.895 243.534C212.449 243.32 212.98 243.099 213.349 242.944C213.408 242.944 213.526 243.15 213.504 243.195C213.017 243.593 212.773 244.265 212.301 245.955L211.083 250.281L215.46 253.203C216.826 254.111 217.224 254.384 217.999 254.451C218.044 254.473 218.095 254.702 218.051 254.739C217.674 254.864 216.855 255.137 216.176 255.396C215.438 255.676 214.656 256.016 214.279 256.178C214.22 256.178 214.102 255.971 214.124 255.927C214.678 255.403 214.744 254.916 213.593 254.141L210.257 251.868L209.26 255.529C208.928 256.769 209.149 257.44 210.286 257.389Z" fill="white"/>
<path d="M222.929 245.793L224.531 248.679C225.195 249.875 225.66 250.236 226.619 250.14C226.671 250.155 226.752 250.376 226.715 250.421C226.206 250.657 225.616 250.967 224.974 251.329C224.331 251.69 223.756 252.03 223.283 252.325C223.224 252.332 223.084 252.148 223.099 252.096C223.689 251.336 223.63 250.753 222.966 249.55L219.312 242.959C218.648 241.763 218.183 241.401 217.223 241.497C217.172 241.482 217.091 241.261 217.135 241.217C217.644 240.98 218.235 240.67 218.877 240.309C219.526 239.947 220.095 239.608 220.567 239.312C220.626 239.305 220.766 239.489 220.752 239.541C220.161 240.301 220.22 240.884 220.884 242.088L222.42 244.863L228.265 241.623L226.73 238.847C226.066 237.652 225.601 237.29 224.641 237.386C224.59 237.371 224.509 237.15 224.545 237.105C225.055 236.862 225.645 236.559 226.287 236.197C226.937 235.843 227.505 235.504 227.978 235.201C228.037 235.186 228.177 235.378 228.162 235.43C227.572 236.19 227.631 236.773 228.295 237.976L231.949 244.568C232.613 245.763 233.078 246.125 234.037 246.029C234.089 246.044 234.17 246.265 234.126 246.31C233.617 246.553 233.026 246.856 232.384 247.217C231.735 247.572 231.166 247.911 230.694 248.214C230.635 248.221 230.495 248.037 230.509 247.985C231.1 247.225 231.041 246.642 230.376 245.439L228.775 242.553L222.929 245.793Z" fill="white"/>
<path d="M222.929 245.793L224.531 248.679C225.195 249.875 225.66 250.236 226.619 250.14C226.671 250.155 226.752 250.376 226.715 250.421C226.206 250.657 225.616 250.967 224.974 251.329C224.331 251.69 223.756 252.03 223.283 252.325C223.224 252.332 223.084 252.148 223.099 252.096C223.689 251.336 223.63 250.753 222.966 249.55L219.312 242.959C218.648 241.763 218.183 241.401 217.223 241.497C217.172 241.482 217.091 241.261 217.135 241.217C217.644 240.98 218.235 240.67 218.877 240.309C219.526 239.947 220.095 239.608 220.567 239.312C220.626 239.305 220.766 239.489 220.752 239.541C220.161 240.301 220.22 240.884 220.884 242.088L222.42 244.863L228.265 241.623L226.73 238.847C226.066 237.652 225.601 237.29 224.641 237.386C224.59 237.371 224.509 237.15 224.545 237.105C225.055 236.862 225.645 236.559 226.287 236.197C226.937 235.843 227.505 235.504 227.978 235.201C228.037 235.186 228.177 235.378 228.162 235.43C227.572 236.19 227.631 236.773 228.295 237.976L231.949 244.568C232.613 245.763 233.078 246.125 234.037 246.029C234.089 246.044 234.17 246.265 234.126 246.31C233.617 246.553 233.026 246.856 232.384 247.217C231.735 247.572 231.166 247.911 230.694 248.214C230.635 248.221 230.495 248.037 230.509 247.985C231.1 247.225 231.041 246.642 230.376 245.439L228.775 242.553L222.929 245.793Z" fill="white"/>
<path d="M242.985 239.755C243.036 239.762 243.14 239.977 243.11 240.021C242.623 240.331 242.04 240.729 241.413 241.18C240.785 241.63 240.224 242.058 239.781 242.427C239.722 242.442 239.56 242.272 239.567 242.228C240.099 241.335 239.988 240.744 239.154 239.593L234.851 233.629C234.017 232.477 233.5 232.182 232.482 232.404C232.43 232.396 232.327 232.182 232.356 232.138C232.843 231.828 233.426 231.429 234.054 230.979C234.681 230.529 235.242 230.101 235.685 229.732C235.737 229.717 235.906 229.887 235.899 229.931C235.368 230.824 235.478 231.414 236.312 232.566L240.615 238.53C241.442 239.689 241.966 239.984 242.985 239.755Z" fill="white"/>
<path d="M242.985 239.755C243.036 239.762 243.14 239.977 243.11 240.021C242.623 240.331 242.04 240.729 241.413 241.18C240.785 241.63 240.224 242.058 239.781 242.427C239.722 242.442 239.56 242.272 239.567 242.228C240.099 241.335 239.988 240.744 239.154 239.593L234.851 233.629C234.017 232.477 233.5 232.182 232.482 232.404C232.43 232.396 232.327 232.182 232.356 232.138C232.843 231.828 233.426 231.429 234.054 230.979C234.681 230.529 235.242 230.101 235.685 229.732C235.737 229.717 235.906 229.887 235.899 229.931C235.368 230.824 235.478 231.414 236.312 232.566L240.615 238.53C241.442 239.689 241.966 239.984 242.985 239.755Z" fill="white"/>
<path d="M251.227 231.939C252.645 230.684 252.785 229.591 251.692 228.366C250.563 227.097 249.456 227.126 248.054 228.366L246.112 230.093L249.286 233.666L251.227 231.939ZM247.065 227.849C248.467 226.602 248.592 225.554 247.522 224.351C246.43 223.126 245.345 223.126 243.957 224.358L242.311 225.82L245.411 229.311L247.065 227.849ZM247.876 236.389C247.825 236.411 247.64 236.264 247.648 236.212C248.031 235.341 247.84 234.743 246.821 233.599L242.23 228.44C241.101 227.17 240.495 226.897 239.595 227.163C239.543 227.163 239.418 226.964 239.44 226.912C239.831 226.587 240.422 226.085 240.946 225.62L243.263 223.561C245.404 221.657 247.552 221.413 248.843 222.867C249.773 223.915 249.796 225.296 248.961 226.691C250.607 225.775 252.128 225.879 253.176 227.067C254.578 228.647 254.091 230.809 251.921 232.743L249.323 235.053C248.806 235.511 248.245 236.042 247.876 236.389Z" fill="white"/>
<path d="M251.227 231.939C252.645 230.684 252.785 229.591 251.692 228.366C250.563 227.097 249.456 227.126 248.054 228.366L246.112 230.093L249.286 233.666L251.227 231.939ZM247.065 227.849C248.467 226.602 248.592 225.554 247.522 224.351C246.43 223.126 245.345 223.126 243.957 224.358L242.311 225.82L245.411 229.311L247.065 227.849ZM247.876 236.389C247.825 236.411 247.64 236.264 247.648 236.212C248.031 235.341 247.84 234.743 246.821 233.599L242.23 228.44C241.101 227.17 240.495 226.897 239.595 227.163C239.543 227.163 239.418 226.964 239.44 226.912C239.831 226.587 240.422 226.085 240.946 225.62L243.263 223.561C245.404 221.657 247.552 221.413 248.843 222.867C249.773 223.915 249.796 225.296 248.961 226.691C250.607 225.775 252.128 225.879 253.176 227.067C254.578 228.647 254.091 230.809 251.921 232.743L249.323 235.053C248.806 235.511 248.245 236.042 247.876 236.389Z" fill="white"/>
<path d="M262.086 222.21C262.138 222.21 262.286 222.395 262.263 222.447C261.85 222.845 261.356 223.355 260.831 223.923C260.307 224.491 259.842 225.023 259.481 225.473C259.429 225.502 259.23 225.37 259.23 225.318C259.569 224.336 259.341 223.783 258.292 222.816L252.875 217.841C251.827 216.874 251.258 216.697 250.306 217.118C250.254 217.118 250.107 216.933 250.129 216.881C250.542 216.483 251.037 215.973 251.561 215.405C252.085 214.837 252.55 214.305 252.912 213.855C252.963 213.826 253.155 213.958 253.163 214.01C252.823 214.992 253.052 215.545 254.1 216.505L259.518 221.48C260.566 222.454 261.134 222.631 262.086 222.21Z" fill="white"/>
<path d="M262.086 222.21C262.138 222.21 262.286 222.395 262.263 222.447C261.85 222.845 261.356 223.355 260.831 223.923C260.307 224.491 259.842 225.023 259.481 225.473C259.429 225.502 259.23 225.37 259.23 225.318C259.569 224.336 259.341 223.783 258.292 222.816L252.875 217.841C251.827 216.874 251.258 216.697 250.306 217.118C250.254 217.118 250.107 216.933 250.129 216.881C250.542 216.483 251.037 215.973 251.561 215.405C252.085 214.837 252.55 214.305 252.912 213.855C252.963 213.826 253.155 213.958 253.163 214.01C252.823 214.992 253.052 215.545 254.1 216.505L259.518 221.48C260.566 222.454 261.134 222.631 262.086 222.21Z" fill="white"/>
<path d="M262.161 201.927C262.205 201.868 262.352 201.824 262.419 201.854C262.751 202.164 263.829 202.946 264.722 203.5C264.766 203.559 264.648 203.78 264.574 203.795C263.164 203.418 262.323 203.736 261.216 205.227L260.492 206.194L267.652 211.53C268.796 212.379 269.379 212.505 270.28 211.98C270.331 211.973 270.494 212.143 270.479 212.195C270.103 212.637 269.667 213.191 269.21 213.811C268.745 214.431 268.339 215.007 268.021 215.494C267.977 215.523 267.763 215.413 267.755 215.361C267.992 214.35 267.711 213.818 266.567 212.97L259.407 207.633L258.684 208.6C257.577 210.091 257.511 210.984 258.271 212.231C258.286 212.305 258.101 212.49 258.035 212.46C257.252 211.766 256.189 210.955 255.798 210.726C255.754 210.667 255.754 210.512 255.798 210.453C256.064 210.224 256.64 209.567 257.732 208.098L260.448 204.452C261.555 202.983 262.013 202.245 262.161 201.927Z" fill="white"/>
<path d="M262.161 201.927C262.205 201.868 262.352 201.824 262.419 201.854C262.751 202.164 263.829 202.946 264.722 203.5C264.766 203.559 264.648 203.78 264.574 203.795C263.164 203.418 262.323 203.736 261.216 205.227L260.492 206.194L267.652 211.53C268.796 212.379 269.379 212.505 270.28 211.98C270.331 211.973 270.494 212.143 270.479 212.195C270.103 212.637 269.667 213.191 269.21 213.811C268.745 214.431 268.339 215.007 268.021 215.494C267.977 215.523 267.763 215.413 267.755 215.361C267.992 214.35 267.711 213.818 266.567 212.97L259.407 207.633L258.684 208.6C257.577 210.091 257.511 210.984 258.271 212.231C258.286 212.305 258.101 212.49 258.035 212.46C257.252 211.766 256.189 210.955 255.798 210.726C255.754 210.667 255.754 210.512 255.798 210.453C256.064 210.224 256.64 209.567 257.732 208.098L260.448 204.452C261.555 202.983 262.013 202.245 262.161 201.927Z" fill="white"/>
<path d="M277.512 200.731C277.564 200.717 277.741 200.872 277.733 200.923C277.408 201.403 277.032 201.994 276.641 202.665C276.242 203.33 275.903 203.942 275.637 204.459C275.593 204.496 275.371 204.407 275.364 204.356C275.497 203.322 275.157 202.828 273.932 202.104L267.606 198.347C266.381 197.617 265.791 197.558 264.942 198.17C264.89 198.185 264.713 198.03 264.72 197.978C265.045 197.499 265.422 196.908 265.813 196.236C266.211 195.572 266.551 194.96 266.817 194.443C266.861 194.406 267.082 194.494 267.09 194.546C266.957 195.58 267.296 196.074 268.522 196.797L274.847 200.554C276.073 201.278 276.663 201.337 277.512 200.731Z" fill="white"/>
<path d="M277.512 200.731C277.564 200.717 277.741 200.872 277.733 200.923C277.408 201.403 277.032 201.994 276.641 202.665C276.242 203.33 275.903 203.942 275.637 204.459C275.593 204.496 275.371 204.407 275.364 204.356C275.497 203.322 275.157 202.828 273.932 202.104L267.606 198.347C266.381 197.617 265.791 197.558 264.942 198.17C264.89 198.185 264.713 198.03 264.72 197.978C265.045 197.499 265.422 196.908 265.813 196.236C266.211 195.572 266.551 194.96 266.817 194.443C266.861 194.406 267.082 194.494 267.09 194.546C266.957 195.58 267.296 196.074 268.522 196.797L274.847 200.554C276.073 201.278 276.663 201.337 277.512 200.731Z" fill="white"/>
<path d="M279.085 183.947C275.852 182.478 273.438 182.988 272.339 185.416C271.239 187.83 272.412 189.963 275.645 191.432C278.878 192.9 281.292 192.391 282.392 189.963C283.491 187.549 282.318 185.416 279.085 183.947ZM274.855 193.255C271.342 191.66 269.903 188.206 271.379 184.958C272.87 181.674 276.346 180.522 279.875 182.124C283.388 183.718 284.827 187.173 283.351 190.42C281.86 193.705 278.384 194.856 274.855 193.255Z" fill="white"/>
<path d="M279.085 183.947C275.852 182.478 273.438 182.988 272.339 185.416C271.239 187.83 272.412 189.963 275.645 191.432C278.878 192.9 281.292 192.391 282.392 189.963C283.491 187.549 282.318 185.416 279.085 183.947ZM274.855 193.255C271.342 191.66 269.903 188.206 271.379 184.958C272.87 181.674 276.346 180.522 279.875 182.124C283.388 183.718 284.827 187.173 283.351 190.42C281.86 193.705 278.384 194.856 274.855 193.255Z" fill="white"/>
<path d="M290.748 169.082L278.798 174.226L285.374 176.145C287.02 176.625 287.692 176.581 288.43 175.784C288.474 175.762 288.688 175.858 288.696 175.917C288.563 176.308 288.349 176.98 288.179 177.548C288.009 178.116 287.832 178.803 287.736 179.201C287.707 179.246 287.471 179.216 287.441 179.172C287.249 178.101 286.71 177.695 285.064 177.216L278.473 175.289C277.159 174.905 276.495 174.994 275.86 175.673C275.816 175.695 275.602 175.599 275.594 175.54C275.735 175.127 275.941 174.492 276.111 173.909C276.31 173.237 276.406 172.831 276.517 172.322C276.547 172.278 276.694 172.226 276.768 172.241C277.292 172.617 277.92 172.617 278.909 172.189L287.22 168.683L281.337 166.963C279.691 166.484 279.019 166.528 278.281 167.325C278.237 167.347 278.023 167.251 278.015 167.192C278.148 166.801 278.362 166.129 278.532 165.561C278.702 164.993 278.879 164.314 278.982 163.908C279.012 163.863 279.248 163.893 279.27 163.937C279.462 165.007 280.001 165.406 281.647 165.893L290.785 168.565C290.844 168.624 290.814 169.03 290.748 169.082Z" fill="white"/>
<path d="M290.748 169.082L278.798 174.226L285.374 176.145C287.02 176.625 287.692 176.581 288.43 175.784C288.474 175.762 288.688 175.858 288.696 175.917C288.563 176.308 288.349 176.98 288.179 177.548C288.009 178.116 287.832 178.803 287.736 179.201C287.707 179.246 287.471 179.216 287.441 179.172C287.249 178.101 286.71 177.695 285.064 177.216L278.473 175.289C277.159 174.905 276.495 174.994 275.86 175.673C275.816 175.695 275.602 175.599 275.594 175.54C275.735 175.127 275.941 174.492 276.111 173.909C276.31 173.237 276.406 172.831 276.517 172.322C276.547 172.278 276.694 172.226 276.768 172.241C277.292 172.617 277.92 172.617 278.909 172.189L287.22 168.683L281.337 166.963C279.691 166.484 279.019 166.528 278.281 167.325C278.237 167.347 278.023 167.251 278.015 167.192C278.148 166.801 278.362 166.129 278.532 165.561C278.702 164.993 278.879 164.314 278.982 163.908C279.012 163.863 279.248 163.893 279.27 163.937C279.462 165.007 280.001 165.406 281.647 165.893L290.785 168.565C290.844 168.624 290.814 169.03 290.748 169.082Z" fill="white"/>
</svg>
