<svg version="1.0" xmlns="http://www.w3.org/2000/svg" viewBox="0 0 1114 601">
  <path d="M115.2 66.6L0 133.2l.2 134.1.3 134.1 172 99.4c94.6 54.6 172.5 99.6 173.2 99.8 1 .5 112.9-63.2 116-66 1-.9-12.3-9-55.7-34-31.4-18.1-57-33.2-57-33.5 0-.3 25.7-15.4 57-33.5l57-32.8V133.5L347.9 67C284.5 30.4 232.2.4 231.6.3c-.6-.2-53 29.7-116.4 66.3zm172.5 100.5c30.7 17.7 56.4 32.7 57.1 33.3.9.9 1.2 28.4 1 133.2l-.3 132.1-56-32.4c-30.8-17.9-56.6-32.7-57.2-33-.7-.3-26.8 14.2-58 32.2-31.3 18-57.1 33-57.6 33.2-.4.2-.6-59.3-.5-132.2l.3-132.7 57-32.9c31.4-18.1 57.3-32.9 57.7-32.9.4 0 25.9 14.5 56.5 32.1zM610.1 67.5c-8.1 2.3-14.5 6.2-20.6 12.6-23.2 24.3-12 65.1 20 73.4 7.5 1.9 17.4 1.9 24.7 0l5.7-1.5 9.6 5.5c12.2 6.9 12.6 7 17.3 4.6 7.8-4 6.8-6.5-5.3-13.3l-9.3-5.2 3.4-4c13-15.2 13.6-39.4 1.4-55.7-4.8-6.4-12.4-12.1-19.8-14.9-7.5-2.9-19.8-3.5-27.1-1.5zm25.3 13.9c3.1 1.5 7.5 4.9 10 7.7 14.6 16.2 10 40.3-9.7 50.6-4.5 2.4-6.3 2.8-14.2 2.8-7.8 0-9.7-.4-14-2.7-14.4-7.6-21.5-23.7-16.9-38.4 6-19.2 27.1-28.6 44.8-20zM955.1 67.4c-.8.9-1 13.3-.9 43.7l.3 42.4 4.6.3c3 .2 5-.2 5.7-1.1.8-.9 1.3-10.6 1.4-31.2l.3-29.9 25.3 31.7c24.1 30.1 25.6 31.7 28.7 31.7 2.1 0 3.5-.6 3.9-1.6.9-2.4.7-82.7-.3-84.2-.5-.9-2.5-1.2-5.7-1l-4.9.3-.5 30.6-.5 30.7L987 97.9C965.3 70.7 961.1 66 958.9 66c-1.5 0-3.2.6-3.8 1.4zM1072.3 67c-11.9 2.4-20.3 11.7-20.3 22.7 0 10.4 6.1 18.4 18.5 24.2 13.7 6.4 15.9 7.6 19.1 10.7 6.4 6 5.2 13.8-2.9 17.4-7.2 3.3-13 2.2-23.2-4.6-6.2-4.1-7.2-4-10.8.8-2.6 3.5-1.6 6.1 3.9 9.9 10.6 7.2 26 9.2 35.9 4.5 15.1-7 19.1-23.5 8.7-35.6-2.6-3.1-6.8-5.7-17.8-11.1-15.8-7.7-18.4-10-18.4-16.7 0-3.2.7-4.7 3-7.1 5.2-5.1 12.5-5.4 22.5-.7 2.9 1.4 6 2.6 6.9 2.6 2.1 0 5.9-6.5 5.1-8.9-.8-2.7-9.8-6.9-17.1-8.1-6.6-1.1-7.3-1.1-13.1 0zM692.7 68.6c-.4.4-.7 14.4-.7 31 0 28.3.1 30.7 2.1 35.9 2.8 7.5 9.9 14.6 17.6 17.5 8.2 3.1 21.5 2.5 28.9-1.2 6-3.1 11.8-9.3 14.8-15.7 2-4.4 2.1-6 2.1-36.1V68.5l-4.8-.3c-2.7-.2-5.5.2-6.3.9-1.1.9-1.4 6.2-1.4 29.8 0 27.8-.1 28.8-2.2 33.1-1.3 2.4-4 5.7-6.1 7.4-3.2 2.6-4.9 3.1-10.5 3.4-8.8.5-14.4-2.3-18.7-9.3l-3-4.8-.5-30.1-.5-30.1-5-.3c-2.8-.2-5.4 0-5.8.4zM790.2 69.2c-1.8 1.8-1.7 80.7.1 83.1 1.1 1.6 3.6 1.7 27.2 1.5l26-.3v-10l-20.7-.3-20.8-.2v-27l17.8-.2 17.7-.3v-10l-17.7-.3-17.8-.2V79l20.8-.2 20.7-.3v-10l-26-.3c-19.4-.2-26.4.1-27.3 1zM872.5 69.2c-.3.7-.4 20-.3 42.8l.3 41.5h53v-10l-20.7-.3-20.8-.2v-27l17.8-.2 17.7-.3v-10l-17.7-.3-17.8-.2V79l20.8-.2 20.7-.3v-10l-26.3-.3c-20.5-.2-26.4 0-26.7 1zM995.5 257c-15 2.4-27.1 11.6-33.8 25.8-3 6.3-3.2 7.3-3.2 18.3 0 11.3.1 11.7 3.7 19 4.6 9.3 12.2 16.8 21.5 21.2 6.5 3 7.4 3.2 18.8 3.2 11.5 0 12.3-.1 18.5-3.2 7.3-3.6 13-8.4 13-10.8 0-2.3-4.9-6.5-7.5-6.5-1.2 0-3.4.9-4.8 2s-5.1 3.2-8.3 4.7c-11 5-25.7 1.6-34-8.1-6.1-7.1-7.9-12.1-7.9-21.6 0-10 2-15.4 8.3-22.2 10.6-11.5 28.2-13.1 41.1-3.7 2.3 1.6 4.9 2.9 6 2.9 1.8 0 7.1-5.2 7.1-6.9 0-3.2-10.6-10.4-19-12.9-5.2-1.6-13.9-2.1-19.5-1.2zM583.5 259.3c-.3.6-.4 19.9-.3 42.7l.3 41.5h11l.3-14.7.3-14.6 13.2-.4c14.2-.4 17.5-1.4 24.5-7.3 11.3-9.5 11.3-30.9 0-41.1-7.5-6.7-10.1-7.4-30.6-7.4-13.7 0-18.4.3-18.7 1.3zm36.6 13c5.9 3 9.4 9.7 8.4 15.8-.9 5.3-6.4 11.5-11.3 12.9-2.1.5-7.9 1-12.9 1H595v-32h10.3c8.9 0 11 .3 14.8 2.3zM665.1 259.9c-1.4 2.6-1.4 49.4 0 58.1 1.8 11.1 7.4 19 17.2 24.2 3.6 2 5.7 2.3 15.2 2.3 10 0 11.5-.2 16.1-2.7 7.3-3.8 13-10.7 15.4-18.6 1.8-5.7 2-9.3 2-34.2 0-15.3-.3-28.5-.6-29.4-.7-1.9-9.4-2.2-11.2-.4-.9.9-1.2 8.9-1.2 29.8 0 27.7-.1 28.7-2.2 33-1.3 2.4-4 5.7-6.1 7.4-7.1 5.6-21 4.6-26.8-2-5.2-5.9-5.4-7.1-5.9-38.9l-.5-30-5.2-.3c-4.3-.3-5.4 0-6.2 1.7zM763.2 259.2c-.9.9-1.2 11.6-1.2 41.9 0 34.2.2 40.8 1.4 41.9 1.1.8 6.8 1.1 20.8.8 17.6-.3 19.7-.5 23.4-2.5 15-8 18.1-28 5.9-38l-3.8-3.2 3.1-3.9c4.2-5.2 5.2-8.2 5.2-15.3 0-7.4-1.7-11.5-6.5-16.2-5.9-5.7-10.3-6.7-30-6.7-12 0-17.5.4-18.3 1.2zm36.5 12.4c1.5 1.1 3.5 4 4.3 6.2 1.3 3.7 1.3 4.7 0 8.4-2.5 6.9-5.4 8.2-18.1 8.6l-10.9.4v-26.4l10.9.4c9.2.3 11.5.7 13.8 2.4zm1 37.4c4.5 2.7 6.5 6.3 6.5 11.2-.1 4.9-2.5 8.6-7.3 11-2.6 1.4-5.9 1.8-14.1 1.8H775v-26h11.3c9.3 0 11.7.3 14.4 2zM849.2 259.2c-1.9 1.9-1.7 82.1.2 83.7.9.8 8.2 1.1 24.2.9l22.9-.3v-10l-17.7-.3-17.8-.2-.2-37.3-.3-37.2-5-.3c-3-.2-5.5.2-6.3 1zM919.1 259.9c-1.7 3.1-1.5 80.2.2 82.5 1 1.3 2.4 1.7 6.2 1.4l5-.3v-85l-5.2-.3c-4.3-.3-5.4 0-6.2 1.7zM899.1 449.7c-15 32.2-36.1 80.3-35.9 81.8.3 1.7 1.2 2 5.9 2.3l5.6.3 4.5-10.3 4.5-10.3 19.7-.3 19.6-.2 4 8.7c5.7 12.5 5 11.8 11.1 11.8 5 0 5.4-.2 5.6-2.5.2-1.5-6.9-18.6-18-43l-18.2-40.5-3.6-.3c-3-.3-3.7.1-4.8 2.5zm12.3 36.6l7.4 16.7h-15c-13.9 0-15-.1-14.4-1.8 1.1-3.1 14.1-32 14.3-31.8.1.1 3.5 7.7 7.7 16.9zM583.5 449.3c-.3.6-.4 19.9-.3 42.7l.3 41.5h48v-10l-17.7-.3-17.8-.2v-36.3c0-26.9-.3-36.6-1.2-37.5-1.6-1.6-10.7-1.6-11.3.1zM653.6 449.6c-.8 2-.8 80.8 0 82.8.7 1.9 9.4 2.2 11.2.4.9-.9 1.2-11.5 1.2-41.4 0-22.1-.3-40.9-.6-41.8-.9-2.3-10.9-2.3-11.8 0zM699.2 449.2c-.9.9-1.2 11.6-1.2 41.9 0 34.2.2 40.8 1.4 41.9 1.1.8 6.8 1.1 20.8.8l19.3-.3 5.5-3.1c13.8-7.8 16.3-27 4.8-36.8l-4.1-3.5 2.8-3.3c4.1-4.8 5.5-8.9 5.5-15.8 0-7.4-1.6-11.6-6.5-16.3-5.9-5.7-10.3-6.7-30-6.7-12 0-17.5.4-18.3 1.2zm36.5 12.4c1.5 1.1 3.5 4 4.3 6.2 1.3 3.7 1.3 4.7 0 8.4-1 2.7-2.7 5-4.9 6.5-3 2-4.6 2.3-13.7 2.3H711v-26.2l10.9.4c9.2.3 11.5.7 13.8 2.4zm.2 37.2c10 5.1 10 17.3 0 22.4-2.6 1.4-5.9 1.8-14.1 1.8H711v-26h10.8c8.2 0 11.5.4 14.1 1.8zM785.2 449.2c-.9.9-1.2 11.6-1.2 41.9 0 33.9.2 40.9 1.4 41.8.8.7 3.6 1.1 6.3.9l4.8-.3.3-15.8.3-15.7H817l8 16 8 16h6c9 0 8.9-1.4-.8-19.2l-7.9-14.6 4.3-3.1c8.7-6.1 13.5-16.6 12-26.2-.8-5.7-5.7-14.1-9.9-17.3-6.4-4.9-10.4-5.6-31.1-5.6-13.6 0-19.6.4-20.4 1.2zm39.1 12.2c1.8.7 4.5 2.8 6 4.5 5.2 6.2 4.5 14-1.9 20.2l-3.5 3.4-14 .3-13.9.4V460h12c7.9 0 13.2.5 15.3 1.4zM965.6 449.5c-.8 2.1-.8 80.8 0 82.9.9 2.3 10.9 2.3 11.8 0 .3-.9.6-8.1.6-16V502h19.5l8 15.8 8 15.7h5.9c9.3 0 9.3-.7-.2-18.1-8-14.8-8-14.9-5.9-16.4 9.6-6.7 14-14.1 14-24 .1-7.8-2.4-14-7.5-19.2-6.9-6.8-8.9-7.3-32.4-7.6-18.8-.3-21.2-.1-21.8 1.3zm40 12.1c4.2 2 7 5.5 8.5 10.5 1 3.3.9 4.3-1.2 8.6-1.3 2.6-3.9 5.8-5.8 7-3.1 2.1-4.6 2.3-16.2 2.3H978v-30h12.1c9.1 0 12.9.4 15.5 1.6zM1043.5 450.1c-.8 2.4.2 4 16.7 26.7l11.8 16.3v19.2c0 13.7.3 19.6 1.2 20.5 1.8 1.8 10.5 1.5 11.2-.4.3-.9.6-10.1.6-20.4v-18.9l14.5-19.8c17.1-23.2 17.5-24.6 8.4-25.1l-5.7-.3-11.7 16.1c-6.5 8.9-12.1 15.8-12.4 15.3-.4-.4-5-6.7-10.1-13.8-13-18.1-12.4-17.5-18.6-17.5-4.4 0-5.4.3-5.9 2.1z"/>
</svg>
