<svg viewBox="0 0 682 196" fill="none" xmlns="http://www.w3.org/2000/svg">
<path d="M32.4537 44.8212C31.7824 43.9986 31.7335 42.8999 32.7417 42.5666L102.608 19.4645C103.424 19.1952 104.264 19.8031 104.262 20.6605C104.261 21.3498 104.821 21.8151 105.504 21.9204C106.032 22.0031 106.612 22.0404 107.174 21.9884C107.901 21.9204 108.52 21.4618 108.52 20.7325C108.52 20.7325 108.516 13.7286 108.516 13.3833C108.516 13.0073 108.352 12.4433 107.772 12.1647C107.448 12.0073 107.037 11.8847 106.664 12.0087L28.4064 37.9694C25.3935 38.944 24.8564 39.3093 24.8564 42.5452L24.8831 175.561C24.8831 175.687 24.8964 175.818 24.9351 175.938C26.5511 180.867 32.3309 183.122 32.3309 183.122C38.0055 185.277 40.9294 185.875 46.0693 184.091C46.0693 184.091 46.1836 51.3944 46.1159 50.8117C46.0972 50.6464 45.9727 50.5184 45.8102 50.4877C45.2639 50.3851 36.8564 50.2091 32.4549 44.8212" fill="#1B385E"/>
<path d="M7.60886 33.2467C6.90421 32.4533 6.88861 31.3254 7.89632 30.992L77.7634 7.88995C78.578 7.62062 79.418 8.22862 79.418 9.08727C79.4167 9.77658 79.974 10.2606 80.658 10.3472C81.1713 10.4112 81.7819 10.4592 82.3286 10.4139C83.0552 10.3552 83.6739 9.88857 83.6739 9.15926C83.6739 9.15926 83.6699 2.38876 83.6699 1.95544C83.6699 1.47812 83.4379 0.871475 83.0099 0.638138C82.5552 0.390152 82.1926 0.311478 81.8193 0.435486L3.56163 26.3962C0.548639 27.3708 0.0117188 27.7361 0.0117188 30.972L0.0370518 163.987C0.0370518 164.114 0.0533175 164.243 0.0898499 164.363C1.56008 169.285 7.48539 171.549 7.48539 171.549C13.1592 173.702 16.0838 174.3 21.2237 172.518C21.2237 172.518 21.337 39.8212 21.27 39.2372C21.2513 39.0732 21.126 38.9452 20.9633 38.9145C20.4169 38.8118 12.1829 38.3999 7.60792 33.2467" fill="#57AC35"/>
<path d="M149.72 36.7906C149.72 35.932 148.881 35.3253 148.065 35.596L85.8607 56.2648C69.8518 60.9914 69.0505 61.5394 63.9466 59.6607C61.0818 58.6074 58.8494 57.0715 57.5417 55.3822C56.8917 54.5435 56.8897 53.4609 57.898 53.1276L127.764 30.0255C128.58 29.7575 129.42 30.3641 129.418 31.2228C129.417 31.9121 129.974 32.4001 130.658 32.4828C131.182 32.5468 131.761 32.5854 132.324 32.5494C133.054 32.5041 133.676 32.0268 133.674 31.2948L133.672 24.071C133.672 23.5163 133.572 23.1243 132.929 22.727C132.593 22.5203 132.194 22.447 131.821 22.571L53.5626 48.5317C50.5497 49.5063 50.0127 49.8716 50.0127 53.1076L50.0388 183.078C50.0388 183.205 50.0428 184.467 50.0404 184.594C49.9618 188.8 54.9136 191.141 57.2642 192.192C61.1172 193.915 66.083 195.074 71.2242 193.292L148.869 168.075C149.378 167.901 149.72 167.423 149.72 166.885V141.932C149.72 141.088 148.905 140.483 148.096 140.727L85.8305 161.137C85.0225 161.382 84.1452 160.758 84.1452 159.914V137.869C84.1452 137.313 84.5092 136.824 85.0398 136.664L148.764 115.79C149.537 115.506 149.72 115.374 149.72 114.711L149.672 89.232C149.672 88.5014 148.845 87.9907 148.04 88.2227L85.6785 108.876C84.8745 109.107 84.1452 108.292 84.1452 107.453L84.2412 85.3188C84.2412 84.7708 84.5945 84.2868 85.1145 84.1201L148.974 62.9167C149.494 62.7487 149.714 62.0087 149.714 61.4607L149.72 36.7906" fill="#656263"/>
<path d="M257.68 121.443C257.68 126.074 256.832 130.295 255.133 134.101C253.435 137.911 250.989 141.125 247.8 143.751C244.61 146.375 240.723 148.408 236.146 149.847C231.565 151.287 226.443 152.009 220.785 152.009C216.564 152.009 212.757 151.647 209.361 150.929C205.965 150.208 202.955 149.335 200.331 148.304C197.705 147.277 195.44 146.17 193.538 144.985C191.632 143.804 190.115 142.747 188.984 141.82L198.245 126.692C198.864 127.104 199.791 127.748 201.025 128.622C202.26 129.498 203.804 130.346 205.656 131.17C207.509 131.994 209.671 132.739 212.14 133.407C214.61 134.077 217.336 134.411 220.321 134.411C225.57 134.411 229.609 133.253 232.441 130.938C235.27 128.622 236.686 125.819 236.686 122.524C236.686 120.26 236.041 118.331 234.757 116.734C233.467 115.141 231.77 113.725 229.661 112.489C227.551 111.254 225.107 110.046 222.329 108.862C219.55 107.679 216.668 106.314 213.684 104.77C210.492 103.226 207.56 101.529 204.884 99.677C202.207 97.8237 199.891 95.7158 197.937 93.3465C195.982 90.9812 194.438 88.2293 193.306 85.088C192.172 81.9494 191.608 78.2709 191.608 74.0496C191.608 69.6257 192.482 65.6632 194.232 62.1633C195.982 58.666 198.347 55.6794 201.333 53.2088C204.317 50.7395 207.817 48.8369 211.83 47.4983C215.845 46.161 220.168 45.4904 224.798 45.4904C229.017 45.4904 232.749 45.7997 235.991 46.417C239.232 47.0343 242.088 47.7823 244.559 48.6556C247.028 49.5316 249.087 50.4569 250.734 51.4342C252.379 52.4128 253.768 53.3128 254.901 54.1355L246.102 69.4191C245.176 68.8018 244.042 68.1338 242.707 67.4125C241.367 66.6938 239.823 66.0232 238.075 65.4045C236.323 64.7872 234.421 64.2472 232.363 63.7846C230.303 63.3206 228.195 63.0899 226.034 63.0899C221.813 63.0899 218.469 63.9912 216 65.7912C213.529 67.5938 212.294 70.2431 212.294 73.7416C212.294 75.8016 212.781 77.5229 213.761 78.9135C214.737 80.3028 216.076 81.5628 217.774 82.6947C219.473 83.8294 221.48 84.9094 223.796 85.9373C226.111 86.9667 228.605 88.0986 231.282 89.3333C234.679 90.8772 237.971 92.5238 241.162 94.2731C244.351 96.0238 247.156 98.133 249.576 100.602C251.992 103.073 253.949 105.981 255.441 109.325C256.932 112.67 257.68 116.71 257.68 121.443ZM270.029 150.157V74.9763H290.715V150.157H270.029ZM293.031 52.9008C293.031 56.1954 291.82 59.0753 289.403 61.5459C286.985 64.0152 283.974 65.2512 280.373 65.2512C276.769 65.2512 273.785 64.0152 271.418 61.5459C269.05 59.0753 267.868 56.1954 267.868 52.9008C267.868 49.6076 269.05 46.7783 271.418 44.4104C273.785 42.0438 276.769 40.8598 280.373 40.8598C283.974 40.8598 286.985 42.0438 289.403 44.4104C291.82 46.7783 293.031 49.6076 293.031 52.9008ZM366.356 85.0107C369.445 81.4094 372.841 78.5269 376.546 76.3656C380.252 74.2043 384.882 73.1243 390.439 73.1243C394.454 73.1243 397.824 73.7416 400.551 74.9763C403.278 76.2109 405.491 77.9095 407.188 80.0708C408.887 82.2321 410.095 84.8054 410.816 87.7893C411.535 90.7759 411.897 94.0171 411.897 97.5144V150.157H391.366V101.684C391.366 97.9784 390.723 95.1491 389.437 93.1932C388.147 91.2385 385.809 90.2599 382.413 90.2599C380.765 90.2599 379.221 90.5439 377.781 91.1079C376.338 91.6745 375.053 92.3959 373.921 93.2692C372.788 94.1451 371.76 95.0718 370.835 96.0491C369.908 97.0277 369.083 97.9277 368.364 98.7504V150.157H347.832V101.684C347.832 97.877 347.138 95.0211 345.747 93.1145C344.359 91.2119 342.121 90.2599 339.033 90.2599C337.181 90.2599 335.455 90.6452 333.862 91.4172C332.265 92.1892 330.875 93.0905 329.693 94.1185C328.509 95.1491 327.532 96.1784 326.761 97.2064C325.988 98.2357 325.396 99.0077 324.985 99.5223V150.157H304.453V74.9763H324.521V84.2387C325.448 83.2107 326.58 82.0268 327.918 80.6881C329.254 79.3522 330.852 78.1415 332.703 77.0602C334.557 75.9789 336.665 75.0536 339.033 74.2816C341.399 73.5097 344.074 73.1243 347.06 73.1243C352.411 73.1243 356.605 74.2043 359.643 76.3656C362.677 78.5269 364.915 81.4094 366.356 85.0107ZM473.184 112.489C473.184 105.389 471.949 99.7797 469.479 95.6624C467.008 91.5479 463.251 89.4879 458.21 89.4879C456.254 89.4879 454.506 89.7959 452.96 90.4132C451.416 91.0319 450.027 91.7532 448.793 92.5745C447.558 93.3998 446.555 94.2491 445.783 95.1224C445.01 95.9984 444.417 96.6931 444.007 97.2064V131.014C445.343 132.148 447.017 133.28 449.025 134.411C451.031 135.544 453.679 136.109 456.975 136.109C462.224 136.109 466.236 134.024 469.016 129.856C471.795 125.688 473.184 119.899 473.184 112.489ZM494.951 112.489C494.951 118.459 494.126 123.863 492.481 128.699C490.834 133.537 488.517 137.679 485.534 141.125C482.548 144.575 478.997 147.251 474.883 149.153C470.765 151.057 466.236 152.009 461.296 152.009C456.667 152.009 452.96 151.393 450.182 150.157C447.403 148.921 445.343 147.74 444.007 146.606V183.964H423.476V74.9763H443.545V82.8494C445.602 80.2788 448.303 78.0135 451.648 76.0576C454.992 74.103 459.236 73.1243 464.385 73.1243C473.956 73.1243 481.444 76.5202 486.846 83.3121C492.249 90.1052 494.951 99.8303 494.951 112.489ZM506.992 150.157V39.0065H527.524V150.157H506.992ZM536.168 74.9763H558.088L574.761 124.531H575.533L590.817 74.9763H611.966L580.937 158.184C579.288 162.609 577.488 166.571 575.533 170.071C573.577 173.568 571.261 176.501 568.587 178.871C565.908 181.236 562.744 183.063 559.092 184.351C555.438 185.636 551.038 186.281 545.894 186.281C542.702 186.281 540.181 186.1 538.329 185.74C536.477 185.379 535.137 185.096 534.316 184.892L537.248 168.682C537.762 168.887 538.534 169.067 539.564 169.223C540.592 169.377 542.238 169.453 544.505 169.453C549.753 169.453 553.559 168.27 555.927 165.902C558.294 163.534 560.196 160.345 561.639 156.333L564.418 148.613L536.168 74.9763ZM621.384 150.157V47.3423H680.664V65.2512H642.841V88.4079H676.185V105.389H642.841V132.25H681.744V150.157H621.384Z" fill="#1B385E"/>
</svg>
