<svg xmlns="http://www.w3.org/2000/svg" viewBox="0 0 327.045 119.691">
  <path d="M277.596 75.851c0-8.969-.046-17.9-.046-26.856-.017-6.498 1.196-19.651-11.682-24.62a21.82 21.82 0 00-3.504-.856 26.031 26.031 0 00-9.896.856 22.694 22.694 0 00-6.023 3.272c-.433.31-1.28 1.032-1.839 1.528a37.478 37.478 0 00-3.353 3.46c-.026 0 .27-7.03.304-8.416h-47.732c-.104.227-6.666 24.573-7.274 26.683-.514-2.001-7.572-25.973-7.748-26.683H153.65V0h-25.465v24.455c-.027.02-27.162 0-27.324 0-.047.048-12.675 10.12-13.121 10.465 0-12.655.003-34.704.003-34.885C79.384.035 70.97 0 62.612 0l.003 14.073a17.495 17.495 0 00-5.506-7.93c-.265-.22-.914-.769-1.43-1.115-3.792-2.545-5.283-3.012-9.714-4.107A35.017 35.017 0 0042.053.39c-.714-.067-3.53-.218-4.05-.233a511.864 511.864 0 00-8.722-.078H0q0 38 .047 75.97c.716 0 34.158-.142 34.76-.142 1.346 0 2.306-.06 3.594-.06a54.638 54.638 0 008.574-.913 22.542 22.542 0 009.106-4.218c5.638-4.787 6.307-8.214 6.529-8.579l-.012 13.608h24.978V61.406c.345-.284 2.788-2.312 2.84-2.312.998 1.287 12.898 15.798 13.608 16.65h49.625V29.75c.026 0 19.356 42.224 19.62 42.873-.63 1.275-18.374 38.247-18.374 38.273h27.074c.365-.877 35.612-80.465 35.612-80.517.026 0-.02 18.05-.02 45.473h25.574v-22.78c0-5.166-.943-9.81 5.232-9.632 2.316.066 3.614 2.608 3.71 3.974v28.438zM37.066 55.633c-2.638 2.797-7.72 2.224-11.953 2.224V46.128c7.693 0 8.73.014 9.917.52a5.162 5.162 0 013.279 4.882c0 2.352-.525 3.34-1.244 4.103zm0-28.068c-2.638 2.798-7.72 2.224-11.953 2.224V18.06c7.693 0 8.73.014 9.917.521a5.162 5.162 0 013.279 4.88c0 2.353-.525 3.342-1.244 4.104zM62.55 48.67c-.521-2.765-4.888-7.078-7.423-8.7a28.131 28.131 0 00-2.657-1.48c-.37-.184-1.21-.522-1.237-.548a21.838 21.838 0 008.863-6.267 12.437 12.437 0 002.481-4.32c0 6.93-.001 21.315-.027 21.315zm65.599 21.213c-.026 0-20.484-26.864-20.51-26.864.717-.568 20.484-15.963 20.51-15.963z"/>
  <path d="M143.024 91.463a9.615 9.615 0 014.517.779c.239.12.781.368 1.012.467v6.607c-.052 0-2.502-2.406-5.328-1.42a4.678 4.678 0 00-2.07 2.289 6.192 6.192 0 00-.234 1.947c.168 1.822 2.034 3.917 5.296 3.037a6.237 6.237 0 002.336-1.557v6.619a15.868 15.868 0 01-2.648 1.012 11.664 11.664 0 01-8.177-1.48c-2.858-1.685-5.446-6.504-3.815-11.525a10.195 10.195 0 015.607-5.996 15.992 15.992 0 013.504-.78zM73.247 92.086h7.32v8.566c0 1.546-.104 3.156.546 4.05a2.898 2.898 0 002.492.779 3.404 3.404 0 001.635-.623c.762-.778.7-2.44.7-3.972v-8.8h7.243c0 .646.153 11.962-.233 13.784-.358 1.991-2.237 4.1-5.218 5.062a12.708 12.708 0 01-2.468.444 22.58 22.58 0 01-3.92-.027 11.635 11.635 0 01-4.732-1.325 7.208 7.208 0 01-2.826-3.407 20.37 20.37 0 01-.539-5.653zm12.694 8.8v-8.8h7.242c0 .646.153 11.962-.233 13.784M72.299 90.562a7.909 7.909 0 00-6.896-6.604c-2.203-.325-13.693-.151-13.878-.151v27.158h7.768v-8.722c5.783.02 9.628-.167 11.837-3.738a10.61 10.61 0 001.087-3.015c.061-.324.197-1.088.207-1.331a23.295 23.295 0 00-.125-3.597zm-8.4 4.367c-1.085.974-2.94.77-4.592.77v-5.567c3.061.041 3.627.287 4.075.518a2.551 2.551 0 011.045 2.079c-.02 1.298-.203 1.835-.528 2.2zM115.86 98.816a9.564 9.564 0 00-6.368-6.922 8.678 8.678 0 00-7.82 1.282V81.027h-7.243v29.827h7.243v-1.246a5.684 5.684 0 002.96 1.635 10.31 10.31 0 005.496-.42 9.963 9.963 0 006.029-8.457 15.003 15.003 0 00-.297-3.55zm-10.802 6.252a3.615 3.615 0 113.615-3.615 3.615 3.615 0 01-3.615 3.615z"/>
  <circle cx="129.029" cy="85.729" r="4.034"/>
  <path d="M116.932 81.057h7.23v29.8h-7.23s-.03-29.83 0-29.8zM125.368 92.11h7.23v18.747h-7.23s-.03-18.777 0-18.747z"/>
  <g>
    <circle cx="223.562" cy="85.729" r="4.034"/>
    <path d="M219.901 92.11h7.23v18.747h-7.23s-.03-18.777 0-18.747zM249.872 98.87a9.564 9.564 0 00-6.368-6.922 8.678 8.678 0 00-7.82 1.282V81.082h-7.243v29.826h7.242v-1.246a5.684 5.684 0 002.96 1.635 10.31 10.31 0 005.496-.42 9.963 9.963 0 006.03-8.457 15.003 15.003 0 00-.297-3.55zm-10.803 6.252a3.615 3.615 0 113.615-3.615 3.615 3.615 0 01-3.615 3.615zM279.092 92.093l.002 1.063c-.232-.136-.576-.427-.914-.62a6.266 6.266 0 00-2.292-.862c-5.628-.588-8.082 2.038-9.532 3.935a9.07 9.07 0 00-.973 2.129h-.094v-5.645c-5.361-.32-6.973 2.197-7.024 2.197v-2.197h-7.305v18.76l7.267-.004c.16-5.709-.388-9.521.788-11.215a3.866 3.866 0 012.457-1.318 7.012 7.012 0 011.893.06 10.655 10.655 0 011.535.563 24.339 24.339 0 00-.234 3.504c.538 4.526 2.694 6.926 6.075 8.41 2.551 1.06 7.018.691 8.24-1.15h.162c0 .39.008 1.004.008 1.15h7.243v-18.76zm-3.356 13.029a3.615 3.615 0 113.615-3.615 3.615 3.615 0 01-3.615 3.615zM202.876 83.728v27.121h15.98v-6.72l-8.165.028v-20.43s-7.842-.026-7.815 0zM302.06 99.127c-.508-.165-1.39-.624-1.947-.737a6.5 6.5 0 00-1.736-.06 3.738 3.738 0 00-2.614 1.318c-1.177 1.693-.589 5.495-.747 11.204h-7.308V92.093h7.304v2.21c.052 0 1.694-2.21 7.025-2.21 0 .359.036 5.216.036 5.642m-14.365 13.117V92.093h7.242"/>
    <path d="M301.248 92.093l9.194 15.863-6.273 11.735h8.166l14.71-27.598h-8.207l-4.38 8.643-4.516-8.643s-8.68-.013-8.694 0z"/>
  </g>
</svg>
