<svg viewBox="0 0 172 152" fill="none" xmlns="http://www.w3.org/2000/svg">
<path d="M154.516 34.2437L108.393 41.2322L152.478 31.5007C152.565 31.4746 152.646 31.4308 152.717 31.3718C152.787 31.3128 152.846 31.2398 152.889 31.157C152.933 31.0742 152.96 30.9832 152.97 30.8892C152.98 30.7953 152.971 30.7003 152.946 30.6097C152.897 30.4469 152.795 30.3073 152.657 30.2148C152.52 30.1223 152.356 30.0828 152.194 30.103L106.038 39.8869L149.456 27.3775C149.542 27.3533 149.623 27.3114 149.693 27.2541C149.763 27.1968 149.822 27.1253 149.866 27.0439C149.909 26.9625 149.937 26.8727 149.947 26.78C149.957 26.6873 149.949 26.5934 149.923 26.5039C149.876 26.3212 149.762 26.1654 149.606 26.0705C149.449 25.9755 149.263 25.9492 149.088 25.9972L105.487 38.2271L146.033 23.726C146.205 23.6657 146.348 23.5362 146.429 23.3658C146.511 23.1954 146.524 22.9982 146.467 22.8175C146.409 22.6368 146.285 22.4874 146.122 22.4022C145.96 22.317 145.771 22.303 145.598 22.3632V22.3632L102.932 37.0216L141.958 20.057C142.126 19.9852 142.26 19.8464 142.331 19.6711C142.401 19.4958 142.402 19.2984 142.334 19.1223C142.265 18.9462 142.132 18.8059 141.965 18.7322C141.797 18.6584 141.609 18.6574 141.44 18.7292L99.8931 36.3926L137.065 16.5802C137.222 16.4852 137.337 16.3288 137.384 16.1453C137.431 15.9618 137.406 15.7663 137.316 15.6018C137.229 15.452 137.093 15.3396 136.934 15.2851C136.775 15.2306 136.602 15.2376 136.447 15.3048L97.8725 35.2745L131.822 13.4529C131.952 13.3549 132.047 13.2129 132.089 13.0507C132.132 12.8885 132.12 12.7159 132.055 12.5618C132.009 12.4795 131.947 12.4077 131.874 12.3506C131.801 12.2936 131.717 12.2525 131.629 12.2297C131.54 12.2069 131.448 12.2029 131.358 12.2179C131.268 12.233 131.181 12.2667 131.104 12.3172V12.3172L94.7665 35.0299L125.91 10.5701C125.983 10.515 126.044 10.4451 126.09 10.3646C126.136 10.2842 126.167 10.1948 126.179 10.1019C126.192 10.0089 126.186 9.9143 126.163 9.82365C126.139 9.73301 126.099 9.64819 126.044 9.57425C125.992 9.49699 125.926 9.4314 125.85 9.38142C125.774 9.33145 125.689 9.29812 125.6 9.28343C125.511 9.26875 125.42 9.27301 125.333 9.29596C125.246 9.31892 125.164 9.36009 125.092 9.41701V9.41701L92.128 34.5931L119.548 7.98437C119.657 7.84522 119.714 7.66888 119.707 7.48892C119.7 7.30896 119.63 7.13796 119.51 7.00846C119.391 6.87897 119.23 6.80003 119.058 6.78669C118.886 6.77334 118.716 6.82652 118.579 6.93609V6.93609L89.523 34.331L112.785 5.74805C112.904 5.6044 112.964 5.41694 112.952 5.22691C112.939 5.03687 112.855 4.85982 112.718 4.73471C112.581 4.6096 112.401 4.54668 112.22 4.55979C112.038 4.57289 111.869 4.66095 111.749 4.8046V4.8046L87.6694 33.4225L106.155 4.01839C106.206 3.94038 106.241 3.85274 106.259 3.76048C106.277 3.66822 106.278 3.57313 106.261 3.48066C106.243 3.38818 106.209 3.30013 106.16 3.22152C106.11 3.14292 106.046 3.0753 105.972 3.02253C105.897 2.96976 105.813 2.93287 105.725 2.91397C105.637 2.89507 105.546 2.89453 105.458 2.91237C105.369 2.93022 105.285 2.9661 105.21 3.01798C105.135 3.06985 105.07 3.1367 105.02 3.21471L84.9809 33.7021L99.0915 2.60322C99.1504 2.42479 99.1396 2.22926 99.0614 2.05913C98.9832 1.88901 98.844 1.75805 98.6741 1.69471C98.5298 1.64078 98.3725 1.63902 98.2272 1.68969C98.0818 1.74037 97.957 1.84057 97.8725 1.97425L83.1941 32.7586L92.3618 1.62483C92.3816 1.53534 92.3844 1.44266 92.3699 1.35207C92.3554 1.26147 92.324 1.17476 92.2775 1.09687C92.231 1.01898 92.1702 0.951455 92.0987 0.898149C92.0272 0.844843 91.9464 0.806804 91.8609 0.786207C91.7062 0.752708 91.5453 0.776152 91.4053 0.852567C91.2653 0.928982 91.1549 1.05367 91.0927 1.20552L81.0733 32.514L85.6822 1.06575C85.711 0.878084 85.6674 0.686142 85.5609 0.532146C85.4544 0.378151 85.2938 0.274717 85.1144 0.244598C84.9351 0.214479 84.7516 0.260143 84.6044 0.371544C84.4572 0.482945 84.3584 0.650957 84.3296 0.838621V0.838621L78.8857 33.0382L78.7187 0.716322C78.7187 0.526342 78.6466 0.344142 78.5182 0.209806C78.3898 0.0754696 78.2156 0 78.0341 0C77.8525 0 77.6783 0.0754696 77.5499 0.209806C77.4215 0.344142 77.3494 0.526342 77.3494 0.716322L76.8317 33.2478L71.6049 0.786207C71.5701 0.606484 71.4706 0.447596 71.3272 0.34228C71.1837 0.236963 71.007 0.193238 70.8336 0.220113C70.6602 0.246989 70.5033 0.342417 70.3951 0.486739C70.287 0.63106 70.2359 0.813282 70.2523 0.995862L74.711 33.5274L64.2741 1.24046C64.2084 1.07636 64.0868 0.943671 63.9329 0.86822C63.7789 0.792768 63.6036 0.779952 63.4411 0.832264C63.2786 0.884577 63.1405 0.998276 63.0537 1.15123C62.9669 1.30419 62.9376 1.48546 62.9715 1.65977L72.4733 33.5274L57.1102 2.07908C57.0194 1.91461 56.8698 1.7946 56.6945 1.74546C56.5191 1.69631 56.3323 1.72205 56.175 1.81701C56.0318 1.90799 55.9244 2.04962 55.8723 2.21627C55.8202 2.38292 55.8269 2.56357 55.8911 2.72552L70.3358 33.8244L49.9296 3.38943C49.8781 3.31142 49.8123 3.24479 49.7362 3.19336C49.6601 3.14192 49.575 3.10668 49.4858 3.08964C49.3967 3.07261 49.3052 3.07411 49.2165 3.09407C49.1279 3.11403 49.044 3.15206 48.9694 3.20598C48.8948 3.25989 48.8312 3.32865 48.782 3.40831C48.7328 3.48798 48.6992 3.577 48.6829 3.67028C48.6666 3.76357 48.668 3.8593 48.6871 3.952C48.7062 4.0447 48.7425 4.13257 48.7941 4.21057V4.21057L67.8477 33.7894L43.0329 5.0492C42.9726 4.97922 42.8997 4.92235 42.8184 4.88185C42.7371 4.84134 42.6489 4.81799 42.559 4.81312C42.4691 4.80825 42.3791 4.82197 42.2942 4.85348C42.2093 4.88499 42.1312 4.93369 42.0644 4.99678C41.9975 5.05988 41.9431 5.13614 41.9044 5.22121C41.8657 5.30628 41.8434 5.3985 41.8387 5.49259C41.8341 5.58669 41.8472 5.68082 41.8773 5.76962C41.9074 5.85842 41.9539 5.94014 42.0143 6.01012V6.01012L65.6601 34.2961L36.2531 7.18069C36.118 7.05326 35.9401 6.9872 35.7584 6.99703C35.5768 7.00686 35.4063 7.09178 35.2845 7.2331C35.1628 7.37443 35.0996 7.56059 35.109 7.75063C35.1184 7.94066 35.1996 8.11901 35.3346 8.24644V8.24644L62.4205 33.9991L30.1746 9.53931C30.1029 9.48239 30.021 9.44122 29.9337 9.41826C29.8464 9.39531 29.7556 9.39104 29.6667 9.40573C29.5778 9.42042 29.4927 9.45375 29.4164 9.50372C29.3401 9.5537 29.2742 9.61929 29.2228 9.69655C29.1675 9.77049 29.1271 9.85531 29.1038 9.94595C29.0806 10.0366 29.0751 10.1312 29.0875 10.2242C29.1 10.3171 29.1302 10.4065 29.1764 10.4869C29.2226 10.5674 29.2838 10.6373 29.3564 10.6924L60.1327 34.663L24.4135 12.2823C24.3372 12.2322 24.2521 12.1987 24.1632 12.1839C24.0743 12.169 23.9834 12.1732 23.8961 12.196C23.8087 12.2189 23.7267 12.26 23.6549 12.3168C23.5831 12.3737 23.5231 12.4451 23.4783 12.5269C23.3847 12.6872 23.3549 12.8796 23.3955 13.0626C23.4361 13.2456 23.5438 13.4046 23.6954 13.5053L58.0787 35.6239L18.9529 15.4446C18.7929 15.3725 18.6127 15.3669 18.4488 15.4289C18.285 15.491 18.15 15.616 18.0712 15.7786C17.9925 15.9412 17.9759 16.129 18.0249 16.304C18.0739 16.4789 18.1848 16.6276 18.335 16.72L55.123 36.2179L14.1603 18.7467C14.0769 18.7111 13.9877 18.6931 13.8977 18.6936C13.8077 18.6941 13.7187 18.7131 13.6358 18.7496C13.5528 18.7861 13.4775 18.8394 13.4142 18.9063C13.3509 18.9733 13.3009 19.0526 13.2669 19.1398C13.2329 19.227 13.2156 19.3203 13.2161 19.4145C13.2166 19.5086 13.2348 19.6017 13.2697 19.6885C13.3046 19.7753 13.3555 19.8541 13.4195 19.9203C13.4835 19.9865 13.5593 20.0389 13.6426 20.0745V20.0745L53.4531 37.5283L9.83523 22.503C9.7497 22.4732 9.6594 22.4613 9.56948 22.4679C9.47955 22.4746 9.39177 22.4998 9.31113 22.542C9.2305 22.5841 9.1586 22.6425 9.09953 22.7138C9.04046 22.785 8.99539 22.8678 8.96688 22.9572C8.93837 23.0467 8.92699 23.1412 8.93338 23.2353C8.93977 23.3294 8.96381 23.4212 9.00413 23.5056C9.08555 23.676 9.22833 23.8055 9.40105 23.8657V23.8657L51.3991 38.7687L6.12804 26.5389C5.95863 26.5065 5.78378 26.5421 5.63834 26.6386C5.4929 26.7351 5.38756 26.8854 5.34332 27.0595C5.29908 27.2336 5.31918 27.4188 5.39963 27.5781C5.48007 27.7374 5.61495 27.8592 5.77736 27.9191L49.5956 40.149L3.10552 30.6621C3.0189 30.6357 2.92816 30.6274 2.83848 30.6377C2.7488 30.648 2.66194 30.6767 2.58286 30.7221C2.50377 30.7676 2.43402 30.8288 2.37757 30.9025C2.32112 30.9761 2.27909 31.0606 2.25387 31.1513C2.22865 31.2419 2.22074 31.3368 2.23059 31.4307C2.24044 31.5245 2.26786 31.6154 2.31127 31.6981C2.35469 31.7808 2.41326 31.8538 2.48364 31.9129C2.55401 31.9719 2.63482 32.0159 2.72144 32.0423H2.82164L46.356 41.337L0.934646 34.6979C0.760135 34.6807 0.585968 34.7342 0.448026 34.8474C0.310083 34.9605 0.218873 35.1247 0.193185 35.3061C0.167498 35.4875 0.20929 35.6723 0.309952 35.8225C0.410614 35.9726 0.562478 36.0766 0.734258 36.1131L33.4143 41.1972L77.7168 46.6308L115.557 41.931L154.716 35.6589C154.806 35.6501 154.894 35.6228 154.974 35.5784C155.053 35.5341 155.124 35.4736 155.182 35.4005C155.239 35.3274 155.282 35.2431 155.308 35.1525C155.334 35.0619 155.343 34.9668 155.334 34.8726C155.326 34.7784 155.299 34.6868 155.257 34.6032C155.215 34.5196 155.157 34.4456 155.087 34.3855C155.017 34.3254 154.937 34.2804 154.85 34.253C154.763 34.2257 154.672 34.2166 154.582 34.2262L154.516 34.2437Z" fill="#ED1C24"/>
<path d="M167.41 138.023C167.272 137.861 167.108 137.725 166.926 137.621C167.264 137.587 167.578 137.426 167.811 137.167C168.016 136.921 168.124 136.602 168.111 136.276C168.112 136.017 168.042 135.762 167.911 135.542C167.793 135.334 167.61 135.173 167.393 135.088C167.052 134.986 166.696 134.945 166.341 134.966H164.671V139.665H165.49V137.918H165.657C165.79 137.902 165.924 137.902 166.057 137.918C166.145 137.96 166.225 138.02 166.291 138.093C166.441 138.285 166.575 138.495 166.709 138.705L167.276 139.596H168.395L167.844 138.705C167.719 138.464 167.574 138.236 167.41 138.023V138.023ZM166.074 137.115H165.556V135.839H166.108C166.303 135.945 166.522 135.993 166.742 135.979C166.871 135.99 166.99 136.053 167.076 136.154C167.157 136.257 167.198 136.387 167.193 136.521C167.225 136.629 167.225 136.744 167.193 136.853C167.139 136.943 167.056 137.011 166.959 137.045C166.668 137.109 166.371 137.133 166.074 137.115Z" fill="#00ACE4"/>
<path d="M166.258 133.114C165.425 133.11 164.611 133.365 163.917 133.846C163.223 134.327 162.681 135.012 162.359 135.815C162.038 136.618 161.951 137.503 162.11 138.358C162.269 139.213 162.667 139.999 163.253 140.617C163.84 141.235 164.588 141.658 165.404 141.831C166.219 142.004 167.066 141.921 167.836 141.591C168.606 141.261 169.265 140.699 169.731 139.977C170.196 139.255 170.446 138.405 170.449 137.534V137.534C170.451 136.956 170.345 136.383 170.135 135.848C169.926 135.313 169.617 134.826 169.228 134.415C168.839 134.005 168.376 133.679 167.867 133.455C167.357 133.232 166.81 133.116 166.258 133.114ZM166.258 141.308C165.538 141.308 164.834 141.084 164.235 140.666C163.636 140.247 163.17 139.652 162.894 138.956C162.619 138.26 162.547 137.495 162.687 136.756C162.828 136.017 163.174 135.338 163.683 134.806C164.193 134.273 164.841 133.91 165.547 133.763C166.253 133.616 166.985 133.692 167.651 133.98C168.316 134.268 168.884 134.756 169.284 135.383C169.684 136.009 169.898 136.746 169.898 137.499C169.894 138.508 169.509 139.474 168.827 140.187C168.145 140.9 167.222 141.303 166.258 141.308V141.308Z" fill="#00ACE4"/>
<path d="M77.8676 51.1558H78.0346L56.4093 48.6399V48.6574L0 41.8611V141.552L76.4815 151.79L156.153 142.234V41.8611L77.8676 51.1558Z" fill="#00ACE4"/>
<path d="M8.18311 99.6736V67.6663L25.3497 69.8502V76.5067L15.5307 75.2488V81.3637L22.4942 82.2548V88.7191L15.5307 87.8281V100.6L8.18311 99.6736Z" fill="#ED1C24"/>
<path d="M8.48334 68.4701L24.5311 70.4968V75.7381L15.1296 74.5326V81.923L22.0763 82.814V88.0554L15.1296 87.1643V99.9184L8.58353 99.0797V68.2604L8.48334 68.4701ZM7.3645 66.9326V100.128L8.46664 100.268L14.9459 101.089L16.3486 101.264V88.5446L21.9595 89.2609L23.3956 89.4356V81.6958L22.3435 81.5561L16.4488 80.8048V75.9827L24.5311 77.031L25.8503 77.2057V69.2738L24.7816 69.134L8.73382 67.1248L7.3645 66.9501V66.9326Z" fill="white"/>
<path d="M25.3486 101.787V78.5679L31.8947 79.4065V102.608L25.3486 101.787Z" fill="#ED1C24"/>
<path d="M26.1864 79.3193L31.48 80.0007V101.857L26.1697 101.176V79.3717L26.1864 79.3193ZM24.9507 77.8342V102.294L26.0194 102.434L31.3464 103.115L32.7157 103.29V78.8301L31.647 78.6903L26.32 78.0089L24.9507 77.8342Z" fill="white"/>
<path d="M33.9329 102.94V79.5112L39.5604 80.245L39.7441 82.6211C40.1242 81.9536 40.665 81.4022 41.3127 81.022C41.9603 80.6418 42.692 80.4462 43.4346 80.4547C44.2266 80.4754 45.0102 80.6287 45.7558 80.9089L46.1565 81.0662V87.8625L45.4051 87.6878C44.5436 87.4095 43.6509 87.2509 42.7499 87.2161C41.1969 87.2161 40.4789 87.8625 40.4789 89.2602V103.761L33.9329 102.94Z" fill="#ED1C24"/>
<path d="M34.3166 80.2452L38.7752 80.8043L39.1259 85.2245C39.8607 82.3767 41.2968 81.0838 43.2506 81.0838C43.9745 81.1024 44.6908 81.244 45.3713 81.5031V86.9891C44.4519 86.6865 43.4961 86.5218 42.5325 86.4999C40.4284 86.4999 39.6436 87.653 39.6436 89.1905V103.045L34.3333 102.364V80.2277L34.3166 80.2452ZM33.1143 78.7776V103.517L34.183 103.657L39.51 104.338L40.8793 104.513V89.173C40.8793 88.4567 41.0129 87.7578 42.5492 87.7578C43.3934 87.7881 44.23 87.9349 45.0374 88.1946L46.6238 88.6663V80.5946L45.8055 80.2976C44.9923 79.9819 44.1344 79.8106 43.2673 79.7909C42.0965 79.7742 40.9609 80.2096 40.0778 81.0139V79.6512L39.0758 79.5289L34.5003 78.9523L33.1143 78.7776Z" fill="white"/>
<path d="M56.0922 106.086C55.6346 106.083 55.1775 106.054 54.7229 105.998C49.7132 105.369 46.6072 101.98 46.6072 97.3501V95.8301L52.3349 96.5639V97.8219C52.2691 98.4195 52.4326 99.02 52.7895 99.4917C53.1464 99.9634 53.6676 100.268 54.2386 100.338H55.1237C56.0421 100.338 56.4095 99.9883 56.4095 99.0798C56.4095 97.5947 55.0068 96.7386 52.0845 95.0964C49.6297 93.7511 47.0748 91.8467 47.0748 87.9157C47.0748 83.9846 49.5796 81.6959 53.4705 81.6959C53.8929 81.6609 54.3172 81.6609 54.7396 81.6959C59.265 82.2724 62.1707 85.4522 62.1707 89.7851V90.8508L56.7936 90.2568V88.9814C56.7936 87.7934 56.1423 87.1295 54.7897 86.9547H54.3388C53.387 86.9547 53.2033 87.3915 53.2033 88.0205C53.2033 88.929 53.9714 89.6278 56.5431 90.9906C59.6324 92.6329 62.7718 94.9391 62.7718 99.5865C62.7918 100.427 62.6527 101.263 62.3627 102.047C62.0726 102.831 61.6372 103.547 61.0816 104.154C60.526 104.762 59.8612 105.248 59.1253 105.586C58.3893 105.923 57.5969 106.105 56.7936 106.121L56.0922 106.086Z" fill="#ED1C24"/>
<path d="M53.4536 82.2023H54.6727C59.1647 82.7788 61.6863 85.8537 61.6863 89.7848V90.1517L57.1942 89.5751V88.9112C57.1942 87.4611 56.3927 86.4652 54.6393 86.2381H54.1049C52.9694 86.2381 52.435 86.8147 52.435 87.9852C52.435 89.1558 53.4703 90.1342 56.0587 91.4795C59.3985 93.2266 61.9701 95.428 61.9701 99.4988C61.9879 100.254 61.8633 101.005 61.6035 101.709C61.3437 102.414 60.9537 103.058 60.4559 103.605C59.9581 104.151 59.3622 104.59 58.7023 104.896C58.0424 105.202 57.3313 105.368 56.6097 105.387H55.9084C55.4804 105.421 55.0505 105.421 54.6226 105.387C49.6129 104.758 47.0412 101.421 47.0412 97.3848V96.5811L51.5332 97.1577V97.9439C51.4964 98.3296 51.533 98.7192 51.6409 99.0901C51.7489 99.461 51.9259 99.8059 52.1619 100.105C52.3979 100.404 52.6882 100.651 53.0159 100.832C53.3437 101.012 53.7025 101.124 54.0715 101.159H54.9732C56.2257 101.159 56.8936 100.547 56.8936 99.2193C56.8936 97.28 55.2237 96.2666 52.1845 94.6069C49.1453 92.9471 47.4754 91.1126 47.4754 87.8804C47.4754 84.2813 49.8633 82.2023 53.3534 82.2023H53.4536ZM53.7041 81.1016C49.4292 81.1016 46.6571 83.8271 46.6571 88.0901C46.6571 92.3531 49.496 94.5894 51.9841 95.9521L52.1678 96.057L47.7092 95.4804L46.3398 95.3057V97.5246C46.3398 102.417 49.6796 105.998 54.7896 106.662C55.2568 106.688 55.725 106.688 56.1923 106.662C57.0508 106.741 57.9159 106.643 58.738 106.372C59.5602 106.102 60.3233 105.664 60.9839 105.085C61.6445 104.506 62.1896 103.796 62.588 102.997C62.9864 102.197 63.2304 101.323 63.3061 100.425C63.3061 100.163 63.3061 99.9181 63.3061 99.6735C63.3061 95.2183 60.6342 92.8248 57.7787 91.1475L61.7363 91.6542L63.1057 91.8289V90.0818C63.1057 85.3296 59.9663 81.8528 55.0901 81.2239C54.6411 81.1687 54.1896 81.1395 53.7375 81.1365L53.7041 81.1016ZM56.1255 90.1517C54.2051 89.0685 53.821 88.5793 53.821 88.125C53.7878 88.0171 53.7878 87.901 53.821 87.7931C53.9694 87.7578 54.1235 87.7578 54.2719 87.7931H54.6393C55.9585 87.9678 56.0754 88.5793 56.0754 89.1383V90.1866L56.1255 90.1517ZM54.9565 99.9356H54.5057C53.3033 99.7783 52.8358 99.2193 52.8358 97.9963V96.4239C54.7395 97.542 55.6746 98.171 55.6746 99.2018C55.6746 99.7259 55.6746 99.8482 54.9899 99.8482L54.9565 99.9356Z" fill="white"/>
<path d="M66.8151 107.116L66.6648 106.784C65.6605 104.285 65.226 101.575 65.3957 98.8695V88.9982L62.9409 88.6488V82.9881L65.7965 83.355V79.4763L72.3425 78.6028V84.1936L75.6823 84.6129V90.1513L72.3425 89.732V99.5683C72.1923 102.1 72.6758 104.629 73.7452 106.906L74.3297 108.042L66.8151 107.116Z" fill="#ED1C24"/>
<path d="M71.5395 79.3717V84.7878L74.8793 85.2071V89.4351L71.5395 89.0158V99.7606C71.4071 102.228 71.8844 104.689 72.9256 106.906L67.3481 106.19C66.4406 103.928 66.0517 101.475 66.2125 99.0268V88.4393L63.357 88.0724V83.7045L66.2125 84.0714V80.0181L71.3725 79.3367L71.5395 79.3717ZM72.7753 77.8691L71.3559 78.0613L66.079 78.7602L64.9768 78.9524V82.6213L63.4739 82.4466L62.1714 82.2719V89.2604L63.2902 89.4002L64.9601 89.6273V99.1666C64.8151 101.816 65.255 104.464 66.2459 106.906L66.5298 107.535H67.1978L72.792 108.252L75.1632 108.654L74.0611 106.505C73.1132 104.457 72.682 102.189 72.8087 99.9179V90.5707L74.7291 90.8153L76.065 90.9901V84.0016L75.0129 83.8618L72.792 83.5822V77.8691H72.7753Z" fill="white"/>
<path d="M91.228 106.645L80.5239 107.92V77.6599L90.9608 76.4369C95.5697 75.8953 98.108 78.184 98.108 82.4296V84.6659C98.108 84.6659 97.3398 89.9073 94.3841 90.7808C97.4567 91.1827 98.5422 95.9174 98.5422 95.9174V98.8351C98.5422 103.203 95.9037 106.086 91.228 106.645ZM92.3802 83.7748C92.3802 82.2723 91.7624 81.3813 90.1426 81.5735L86.6525 82.0102V89.785L89.8921 89.4355C90.2254 89.431 90.5546 89.3578 90.8609 89.2201C91.1672 89.0824 91.4446 88.8829 91.6772 88.6331C91.9098 88.3832 92.0931 88.0879 92.2166 87.7639C92.3401 87.44 92.4013 87.0937 92.3969 86.745C92.4052 86.6578 92.4052 86.57 92.3969 86.4829L92.3802 83.7748ZM92.3802 96.2493C92.3802 94.5022 91.5286 93.7335 89.9422 93.9082L86.6024 94.2925V102.015L90.1927 101.665C90.4843 101.661 90.7723 101.596 91.0401 101.475C91.3079 101.354 91.5503 101.179 91.7534 100.96C91.9566 100.741 92.1165 100.482 92.224 100.199C92.3316 99.915 92.3847 99.612 92.3802 99.3068C92.3885 99.2197 92.3885 99.1319 92.3802 99.0447V96.2493Z" fill="white"/>
<path d="M108.361 104.897C103.902 105.421 100.963 102.94 100.963 98.1184V91.1823C100.848 89.0005 101.561 86.8595 102.946 85.224C104.331 83.5886 106.277 82.5906 108.361 82.4466C109.145 82.2725 109.954 82.2618 110.742 82.4153C111.53 82.5688 112.281 82.8833 112.953 83.341C113.624 83.7986 114.203 84.3904 114.656 85.0823C115.109 85.7743 115.426 86.5529 115.591 87.3735C115.728 88.0512 115.756 88.7478 115.675 89.4351V96.4236C115.757 98.5563 115.038 100.638 113.67 102.222C112.303 103.806 110.397 104.766 108.361 104.897V104.897ZM110.364 89.0682C110.426 88.5382 110.285 88.0041 109.972 87.5821C109.66 87.1601 109.201 86.8842 108.695 86.8145C108.512 86.7883 108.326 86.7883 108.143 86.8145C107.492 86.8724 106.888 87.1964 106.463 87.7162C106.038 88.2361 105.826 88.91 105.872 89.5924V98.328C105.832 98.6441 105.865 98.9655 105.967 99.2659C106.069 99.5662 106.238 99.8368 106.46 100.055C106.682 100.274 106.95 100.434 107.243 100.522C107.536 100.611 107.844 100.625 108.143 100.564C108.784 100.489 109.373 100.159 109.786 99.6413C110.2 99.1239 110.407 98.4595 110.364 97.7864V89.0682Z" fill="white"/>
<path d="M125.528 102.87C121.069 103.395 118.13 100.914 118.13 96.0916V89.1031C118.043 86.9408 118.768 84.8286 120.151 83.2188C121.533 81.609 123.463 80.6294 125.528 80.4898C127.109 80.1432 128.756 80.4675 130.109 81.3913C131.462 82.3151 132.408 83.7629 132.742 85.4167C132.875 86.0591 132.908 86.7198 132.842 87.3734V94.3619C132.938 96.5017 132.223 98.5947 130.854 100.187C129.485 101.78 127.571 102.744 125.528 102.87V102.87ZM127.531 87.0415C127.571 86.7255 127.539 86.404 127.437 86.1036C127.335 85.8033 127.166 85.5327 126.944 85.3142C126.722 85.0957 126.454 84.9355 126.161 84.847C125.868 84.7585 125.559 84.7442 125.26 84.8052C124.609 84.8631 124.005 85.1871 123.58 85.7069C123.155 86.2268 122.943 86.9007 122.989 87.5831V96.3187C122.949 96.5855 122.961 96.8581 123.024 97.12C123.087 97.3819 123.2 97.6279 123.356 97.8431C123.512 98.0584 123.707 98.2386 123.931 98.3729C124.155 98.5073 124.403 98.593 124.659 98.6249C124.885 98.6686 125.118 98.6686 125.344 98.6249C125.985 98.55 126.573 98.2194 126.987 97.7019C127.4 97.1845 127.607 96.5201 127.565 95.847L127.531 87.0415Z" fill="white"/>
<path d="M145.999 100.18L142.659 91.8467L140.655 95.7253V100.827L135.278 101.438V71.1607L140.589 70.5317V88.8591L145.465 78.3763L150.641 77.7648L145.966 87.4614L151.176 99.569L145.999 100.18Z" fill="white"/>
<path d="M29.0576 67.946L30.1263 71.0559L32.5477 71.4054L30.7943 72.9603L31.529 75.9129L29.0576 74.0435L26.5694 75.2141L27.3042 72.4711L25.5508 70.4444L27.9721 70.7414L29.0576 67.946Z" fill="white"/>
</svg>
