<svg viewBox="0 0 300 71" fill="#C60917" xmlns="http://www.w3.org/2000/svg">
<g clip-path="url(#clip0_51609_40290)">
<path d="M0 66.1146C3.74096 61.8492 7.60662 57.6829 11.173 53.2438C11.4265 52.7404 12.0953 52.0478 12.2259 51.9429C12.6662 51.5889 13 51.0002 13.5 50.5002C14 50.5002 14.8462 51.0283 15.4039 51.1256C16.7953 51.7559 16.1287 51.395 16.959 51.7559C26.6109 55.9507 37.3134 57.1438 47.6598 55.1782C63.1225 52.6983 78.3606 49.0032 93.7235 45.8785C103.45 43.8946 113.201 42.0594 123.252 43.0762C128.472 43.3951 133.533 44.9845 137.991 47.7044C142.448 50.4243 146.165 54.1916 148.815 58.6749C149.065 59.0716 149.364 59.4684 149.738 60.0388C150.087 59.6695 150.405 59.2713 150.686 58.8485C157.445 47.6392 167.819 42.9026 180.614 42.7042C192.859 42.5058 204.606 45.5809 216.427 48.1352C227.75 50.6151 239.097 53.095 250.545 54.9302C262.546 57.2351 274.976 55.6261 285.984 50.3423L300.075 67.181C294.912 68.2721 290.373 69.6609 285.784 70.1569C267.878 72.6368 250.569 69.3137 233.411 64.6266C220.692 61.1796 208.022 57.5093 195.153 54.707C184.853 52.4007 174.428 52.2271 164.627 57.3853C159.539 60.0929 155.138 63.9179 151.758 68.5697L150.112 70.752C146.945 67.4786 144.152 64.0067 140.81 61.1796C133.029 54.6326 123.701 52.8222 113.725 53.4918C100.133 54.4094 87.314 58.7245 74.3703 62.4443C61.981 66.3923 49.235 69.1331 36.3122 70.6281C25.009 71.8704 13.571 70.9443 2.61867 67.9001C1.79566 67.6521 0.897828 67.5529 0.124697 67.3794L-1 67.0002L0 66.1146Z"/>
<path d="M15.5703 30H20.5615V11.7793H20.9326L27.7979 30H31.3047L38.1699 11.7793H38.541V30H43.5322V3.22559H37.1123L29.7275 22.8193H29.3936L21.9902 3.22559H15.5703V30ZM51.9375 37.1992C56.9844 37.1992 59.6748 35.3809 61.4932 29.9814L68.4512 9.57129H62.7363L58.4502 25.0459H58.0791L53.793 9.57129H47.8369L55.0176 30L54.832 30.7793C54.4424 32.375 53.3291 33.1172 51.3994 33.1172C50.8984 33.1172 50.3604 33.0986 49.9893 33.0615V37.1436C50.6201 37.1807 51.3066 37.1992 51.9375 37.1992ZM72.7559 30H90.2715V25.3799H78.3594V3.22559H72.7559V30ZM97.582 6.43555C99.252 6.43555 100.625 5.09961 100.625 3.42969C100.625 1.74121 99.252 0.405273 97.582 0.405273C95.9121 0.405273 94.5205 1.74121 94.5205 3.42969C94.5205 5.09961 95.9121 6.43555 97.582 6.43555ZM94.8545 30H100.272V9.57129H94.8545V30ZM117.788 30.3154C122.891 30.3154 126.082 26.3262 126.082 19.7949V19.7578C126.082 13.1895 122.965 9.2373 117.788 9.2373C114.986 9.2373 112.704 10.6104 111.665 12.8369H111.331V1.75977H105.913V30H111.331V26.8271H111.665C112.723 29.0352 114.894 30.3154 117.788 30.3154ZM115.933 25.8252C113.075 25.8252 111.275 23.5615 111.275 19.8135V19.7764C111.275 16.0283 113.094 13.7275 115.933 13.7275C118.79 13.7275 120.571 16.0283 120.571 19.7578V19.7949C120.571 23.5615 118.809 25.8252 115.933 25.8252ZM130.479 30H135.897V18.5703C135.897 15.6758 137.846 13.9131 140.926 13.9131C141.761 13.9131 142.596 14.043 143.412 14.2285V9.49707C142.874 9.34863 142.113 9.2373 141.39 9.2373C138.736 9.2373 136.881 10.5361 136.231 12.7441H135.897V9.57129H130.479V30ZM152.226 30.3154C154.897 30.3154 157.05 29.1836 158.089 27.291H158.423V30H163.767V16.0469C163.767 11.6865 160.705 9.12598 155.287 9.12598C150.147 9.12598 146.771 11.501 146.344 15.082L146.325 15.249H151.335L151.372 15.1748C151.799 13.9688 153.042 13.2822 154.99 13.2822C157.217 13.2822 158.423 14.2842 158.423 16.0469V17.7354L153.487 18.0322C148.403 18.3291 145.564 20.4814 145.564 24.1553V24.1924C145.564 27.9033 148.329 30.3154 152.226 30.3154ZM150.853 23.8584V23.8213C150.853 22.3369 151.984 21.4648 154.304 21.3164L158.423 21.0566V22.5596C158.423 24.7119 156.549 26.3633 154.044 26.3633C152.17 26.3633 150.853 25.417 150.853 23.8584ZM169.073 30H174.491V18.5703C174.491 15.6758 176.439 13.9131 179.52 13.9131C180.354 13.9131 181.189 14.043 182.006 14.2285V9.49707C181.468 9.34863 180.707 9.2373 179.983 9.2373C177.33 9.2373 175.475 10.5361 174.825 12.7441H174.491V9.57129H169.073V30ZM188.426 37.1992C193.473 37.1992 196.163 35.3809 197.981 29.9814L204.939 9.57129H199.225L194.938 25.0459H194.567L190.281 9.57129H184.325L191.506 30L191.32 30.7793C190.931 32.375 189.817 33.1172 187.888 33.1172C187.387 33.1172 186.849 33.0986 186.478 33.0615V37.1436C187.108 37.1807 187.795 37.1992 188.426 37.1992ZM209.244 30H214.606V12.874H214.903L227.298 30H231.937V3.22559H226.574V20.2773H226.277L213.92 3.22559H209.244V30ZM245.853 30H251.456V19.999L260.789 3.22559H254.722L248.84 14.4883H248.506L242.605 3.22559H236.538L245.853 19.999V30ZM275.132 30.6865C281.589 30.6865 286.172 26.8643 286.747 21.2607L286.766 21.0566H281.311L281.273 21.2051C280.68 24.0625 278.36 25.9365 275.15 25.9365C270.92 25.9365 268.304 22.374 268.304 16.6221V16.585C268.304 10.833 270.92 7.28906 275.132 7.28906C278.323 7.28906 280.717 9.33008 281.292 12.3359V12.4658H286.747V12.2432C286.228 6.58398 281.478 2.53906 275.132 2.53906C267.357 2.53906 262.57 7.90137 262.57 16.585V16.6221C262.57 25.3057 267.376 30.6865 275.132 30.6865Z"/>
</g>
</svg>
