<svg viewBox="0 0 250 134" fill="#000000" xmlns="http://www.w3.org/2000/svg">
<path d="M25.8528 14.8491L0 29.6984L0.0448833 59.5976L0.112208 89.4967L38.7119 111.659C59.9417 123.833 77.4237 133.866 77.5808 133.911C77.8052 134.022 102.917 119.82 103.613 119.195C103.838 118.995 100.853 117.189 91.1131 111.615C84.0664 107.579 78.3214 104.212 78.3214 104.145C78.3214 104.078 84.0889 100.712 91.1131 96.6761L103.905 89.363V59.553V29.7653L78.0745 14.9383C63.8465 6.77792 52.1095 0.0890681 51.9749 0.0667719C51.8402 0.0221795 40.0808 6.68874 25.8528 14.8491ZM64.5646 37.2568C71.4542 41.2032 77.2217 44.5476 77.3788 44.6814C77.5808 44.8821 77.6481 51.0135 77.6032 74.3799L77.5359 103.833L64.9686 96.6092C58.0566 92.6182 52.2666 89.3184 52.132 89.2515C51.9749 89.1846 46.1176 92.4175 39.1158 96.4308C32.0916 100.444 26.3016 103.789 26.1894 103.833C26.0996 103.878 26.0548 90.6115 26.0772 74.3576L26.1445 44.7706L38.9363 37.4352C45.983 33.3996 51.7953 30.0997 51.8851 30.0997C51.9749 30.0997 57.6975 33.3327 64.5646 37.2568Z" />
<path d="M136.917 15.0498C135.099 15.5626 133.663 16.4321 132.294 17.8591C127.087 23.2771 129.601 32.3739 136.782 34.2245C138.465 34.6481 140.687 34.6481 142.325 34.2245L143.604 33.89L145.759 35.1163C148.497 36.6548 148.586 36.6771 149.641 36.142C151.391 35.2501 151.167 34.6927 148.452 33.1766L146.365 32.0172L147.128 31.1253C150.045 27.7363 150.18 22.3406 147.442 18.7063C146.365 17.2794 144.659 16.0085 142.998 15.3842C141.315 14.7376 138.555 14.6038 136.917 15.0498ZM142.594 18.1489C143.29 18.4834 144.277 19.2415 144.839 19.8657C148.115 23.4777 147.083 28.8511 142.662 31.1476C141.652 31.6827 141.248 31.7719 139.475 31.7719C137.725 31.7719 137.298 31.6827 136.333 31.1699C133.102 29.4754 131.508 25.8857 132.54 22.6082C133.887 18.3273 138.622 16.2315 142.594 18.1489Z" />
<path d="M214.34 15.0275C214.161 15.2282 214.116 17.9929 214.138 24.7709L214.205 34.2245L215.238 34.2914C215.911 34.336 216.36 34.2468 216.517 34.0461C216.696 33.8455 216.809 31.6828 216.831 27.0897L216.898 20.4232L222.576 27.4911C227.985 34.2022 228.321 34.559 229.017 34.559C229.488 34.559 229.802 34.4252 229.892 34.2022C230.094 33.6671 230.049 15.7633 229.825 15.4288C229.713 15.2282 229.264 15.1613 228.546 15.2059L227.446 15.2728L227.334 22.0954L227.222 28.9403L221.499 21.8278C216.629 15.7633 215.687 14.7154 215.193 14.7154C214.856 14.7154 214.475 14.8491 214.34 15.0275Z" />
<path d="M240.642 14.9382C237.971 15.4734 236.086 17.5469 236.086 19.9995C236.086 22.3183 237.455 24.102 240.238 25.3951C243.312 26.8221 243.806 27.0897 244.524 27.7808C245.96 29.1186 245.691 30.8577 243.873 31.6604C242.258 32.3961 240.956 32.1509 238.667 30.6347C237.275 29.7206 237.051 29.7429 236.243 30.8131C235.66 31.5935 235.884 32.1732 237.118 33.0204C239.497 34.6258 242.953 35.0717 245.175 34.0238C248.564 32.463 249.461 28.7842 247.127 26.0863C246.544 25.3951 245.601 24.8154 243.133 23.6115C239.587 21.8946 239.003 21.3818 239.003 19.888C239.003 19.1745 239.161 18.8401 239.677 18.305C240.844 17.1679 242.482 17.101 244.726 18.1489C245.377 18.461 246.073 18.7286 246.275 18.7286C246.746 18.7286 247.599 17.2793 247.419 16.7442C247.24 16.1422 245.22 15.2058 243.582 14.9382C242.1 14.693 241.943 14.693 240.642 14.9382Z" />
<path d="M155.453 15.2951C155.363 15.3843 155.296 18.5057 155.296 22.2069C155.296 28.5167 155.319 29.0518 155.767 30.2112C156.396 31.8834 157.989 33.4665 159.717 34.113C161.557 34.8042 164.542 34.6704 166.203 33.8455C167.549 33.1543 168.851 31.7719 169.524 30.345C169.973 29.364 169.995 29.0072 169.995 22.2961V15.2728L168.918 15.2059C168.312 15.1613 167.684 15.2505 167.504 15.4066C167.258 15.6072 167.19 16.7889 167.19 22.0508C167.19 28.2492 167.168 28.4721 166.696 29.4308C166.405 29.966 165.799 30.7017 165.328 31.0808C164.609 31.6605 164.228 31.7719 162.971 31.8388C160.996 31.9503 159.74 31.326 158.775 29.7653L158.101 28.6951L157.989 21.9839L157.877 15.2728L156.755 15.2059C156.126 15.1613 155.543 15.2059 155.453 15.2951Z" />
<path d="M177.334 15.4288C176.93 15.8301 176.952 33.4218 177.356 33.9569C177.603 34.3136 178.164 34.3359 183.461 34.2913L189.295 34.2244V33.1096V31.9948L184.65 31.9279L179.982 31.8833V28.8734V25.8634L183.977 25.8188L187.949 25.7519V24.6371V23.5223L183.977 23.4554L179.982 23.4108V20.5123V17.6138L184.65 17.5692L189.295 17.5023V16.3875V15.2727L183.461 15.2058C179.107 15.1612 177.536 15.2281 177.334 15.4288Z" />
<path d="M195.803 15.4289C195.736 15.585 195.714 19.8882 195.736 24.9717L195.803 34.2246H201.75H207.697V33.1098V31.995L203.052 31.9281L198.384 31.8835V28.8735V25.8635L202.379 25.819L206.351 25.7521V24.6373V23.5224L202.379 23.4556L198.384 23.411V20.5125V17.614L203.052 17.5694L207.697 17.5025V16.3877V15.2729L201.795 15.206C197.195 15.1614 195.871 15.206 195.803 15.4289Z" />
<path d="M223.407 57.3011C220.04 57.8362 217.325 59.8875 215.821 63.0536C215.148 64.4582 215.103 64.6812 215.103 67.1338C215.103 69.6532 215.126 69.7424 215.934 71.37C216.966 73.4436 218.672 75.1158 220.759 76.0968C222.217 76.7657 222.419 76.8103 224.978 76.8103C227.558 76.8103 227.738 76.788 229.129 76.0968C230.768 75.2942 232.047 74.2239 232.047 73.6888C232.047 73.176 230.947 72.2396 230.364 72.2396C230.094 72.2396 229.601 72.4403 229.286 72.6855C228.972 72.9308 228.142 73.399 227.424 73.7334C224.955 74.8482 221.656 74.0902 219.794 71.9274C218.425 70.3444 218.021 69.2296 218.021 67.1115C218.021 64.8818 218.47 63.6778 219.883 62.1617C222.262 59.5976 226.212 59.2409 229.107 61.3367C229.623 61.6935 230.207 61.9833 230.453 61.9833C230.857 61.9833 232.047 60.8239 232.047 60.4449C232.047 59.7314 229.668 58.1261 227.783 57.5687C226.616 57.212 224.663 57.1005 223.407 57.3011Z" />
<path d="M130.947 57.8139C130.88 57.9477 130.857 62.2509 130.88 67.3344L130.947 76.5873H132.181H133.415L133.483 73.3097L133.55 70.0545L136.512 69.9653C139.699 69.8761 140.44 69.6532 142.011 68.3377C144.546 66.2196 144.546 61.4482 142.011 59.174C140.327 57.6801 139.744 57.5241 135.143 57.5241C132.069 57.5241 131.014 57.591 130.947 57.8139ZM139.16 60.7124C140.485 61.3813 141.27 62.8751 141.046 64.2352C140.844 65.4169 139.609 66.7993 138.51 67.1114C138.038 67.2229 136.737 67.3344 135.615 67.3344H133.528V63.767V60.1996H135.839C137.836 60.1996 138.308 60.2665 139.16 60.7124Z" />
<path d="M149.26 57.9477C148.945 58.5274 148.945 68.9621 149.26 70.9018C149.664 73.3767 150.92 75.1381 153.12 76.2975C153.927 76.7434 154.399 76.8103 156.531 76.8103C158.775 76.8103 159.111 76.7657 160.144 76.2083C161.782 75.3611 163.061 73.8226 163.6 72.0612C164.004 70.7903 164.049 69.9877 164.049 64.4359C164.049 61.0246 163.981 58.0815 163.914 57.8809C163.757 57.4572 161.804 57.3903 161.4 57.7917C161.199 57.9923 161.131 59.776 161.131 64.4359C161.131 70.612 161.109 70.8349 160.637 71.7937C160.346 72.3288 159.74 73.0645 159.269 73.4436C157.675 74.6922 154.556 74.4692 153.254 72.9977C152.087 71.6822 152.042 71.4146 151.93 64.3245L151.818 57.6356L150.651 57.5687C149.686 57.5018 149.439 57.5687 149.26 57.9477Z" />
<path d="M171.275 57.7916C171.073 57.9922 171.005 60.3779 171.005 67.1337C171.005 74.7589 171.05 76.2305 171.32 76.4758C171.566 76.6541 172.846 76.721 175.987 76.6541C179.937 76.5872 180.408 76.5426 181.239 76.0967C184.605 74.313 185.301 69.8538 182.563 67.6242L181.71 66.9107L182.406 66.0411C183.348 64.8817 183.573 64.2129 183.573 62.6298C183.573 60.9799 183.191 60.0658 182.114 59.0178C180.79 57.747 179.803 57.524 175.382 57.524C172.688 57.524 171.454 57.6132 171.275 57.7916ZM179.466 60.5563C179.803 60.8015 180.251 61.4481 180.431 61.9386C180.723 62.7636 180.723 62.9866 180.431 63.8115C179.87 65.35 179.219 65.6398 176.369 65.729L173.923 65.8182V62.8751V59.932L176.369 60.0212C178.434 60.0881 178.95 60.1773 179.466 60.5563ZM179.69 68.8951C180.7 69.4971 181.149 70.2997 181.149 71.3922C181.127 72.4847 180.588 73.3097 179.511 73.8448C178.927 74.157 178.187 74.2461 176.346 74.2461H173.923V71.3476V68.4491H176.459C178.546 68.4491 179.084 68.516 179.69 68.8951Z" />
<path d="M190.575 57.7915C190.148 58.2152 190.193 76.0967 190.619 76.4534C190.821 76.6318 192.46 76.6987 196.05 76.6541L201.19 76.5872V75.4724V74.3576L197.217 74.2907L193.223 74.2461L193.178 65.9296L193.111 57.6355L191.988 57.5686C191.315 57.524 190.754 57.6132 190.575 57.7915Z" />
<path d="M206.261 57.9477C205.88 58.6389 205.925 75.8293 206.306 76.3421C206.531 76.6319 206.845 76.7211 207.698 76.6542L208.82 76.5873V67.1115V57.6356L207.653 57.5687C206.688 57.5018 206.441 57.5687 206.261 57.9477Z" />
<path d="M201.773 100.266C198.407 107.445 193.671 118.17 193.716 118.504C193.784 118.883 193.986 118.95 195.04 119.017L196.297 119.084L197.307 116.787L198.317 114.491L202.738 114.424L207.136 114.379L208.034 116.319C209.313 119.106 209.156 118.95 210.525 118.95C211.647 118.95 211.737 118.905 211.782 118.393C211.827 118.058 210.233 114.245 207.742 108.805L203.658 99.7752L202.85 99.7084C202.177 99.6415 202.02 99.7306 201.773 100.266ZM204.533 108.426L206.194 112.15H202.828C199.708 112.15 199.461 112.127 199.596 111.748C199.843 111.057 202.76 104.614 202.805 104.658C202.828 104.68 203.591 106.375 204.533 108.426Z" />
<path d="M130.947 100.177C130.88 100.31 130.857 104.614 130.88 109.697L130.947 118.95H136.333H141.719V117.835V116.72L137.747 116.654L133.752 116.609V108.515C133.752 102.518 133.685 100.355 133.483 100.154C133.124 99.7976 131.081 99.7976 130.947 100.177Z" />
<path d="M146.679 100.243C146.499 100.689 146.499 118.259 146.679 118.705C146.836 119.128 148.788 119.195 149.192 118.794C149.394 118.593 149.461 116.23 149.461 109.563C149.461 104.636 149.394 100.444 149.327 100.243C149.125 99.7307 146.881 99.7307 146.679 100.243Z" />
<path d="M156.912 100.154C156.71 100.355 156.643 102.741 156.643 109.496C156.643 117.122 156.688 118.593 156.957 118.838C157.204 119.017 158.483 119.084 161.625 119.017L165.956 118.95L167.19 118.259C170.287 116.52 170.848 112.239 168.268 110.054L167.347 109.273L167.976 108.538C168.896 107.467 169.21 106.553 169.21 105.015C169.21 103.365 168.851 102.428 167.751 101.381C166.427 100.11 165.44 99.8867 161.019 99.8867C158.326 99.8867 157.092 99.9759 156.912 100.154ZM165.103 102.919C165.44 103.164 165.889 103.811 166.068 104.301C166.36 105.126 166.36 105.349 166.068 106.174C165.844 106.776 165.462 107.289 164.969 107.623C164.295 108.069 163.936 108.136 161.894 108.136H159.56V105.215V102.295L162.006 102.384C164.071 102.451 164.587 102.54 165.103 102.919ZM165.148 111.213C167.392 112.35 167.392 115.07 165.148 116.207C164.565 116.52 163.824 116.609 161.984 116.609H159.56V113.71V110.812H161.984C163.824 110.812 164.565 110.901 165.148 111.213Z" />
<path d="M176.212 100.154C176.01 100.355 175.943 102.741 175.943 109.496C175.943 117.055 175.988 118.616 176.257 118.816C176.436 118.972 177.065 119.062 177.671 119.017L178.748 118.95L178.815 115.427L178.882 111.927H181.104H183.348L185.144 115.494L186.939 119.062H188.286C190.305 119.062 190.283 118.749 188.106 114.781L186.333 111.525L187.298 110.834C189.251 109.474 190.328 107.133 189.991 104.993C189.812 103.722 188.712 101.849 187.769 101.135C186.333 100.043 185.435 99.8868 180.79 99.8868C177.738 99.8868 176.391 99.976 176.212 100.154ZM184.987 102.874C185.391 103.031 185.996 103.499 186.333 103.878C187.5 105.26 187.343 106.999 185.907 108.382L185.121 109.14L181.979 109.207L178.86 109.296V105.929V102.562H181.553C183.326 102.562 184.515 102.674 184.987 102.874Z" />
<path d="M216.697 100.221C216.517 100.689 216.517 118.237 216.697 118.705C216.899 119.218 219.143 119.218 219.345 118.705C219.412 118.504 219.479 116.899 219.479 115.137V111.927H221.679H223.856L225.651 115.45L227.446 118.95H228.77C230.857 118.95 230.857 118.794 228.725 114.914C226.93 111.615 226.93 111.592 227.401 111.258C229.556 109.764 230.543 108.114 230.543 105.907C230.566 104.168 230.005 102.785 228.86 101.626C227.312 100.11 226.863 99.9982 221.589 99.9314C217.37 99.8645 216.831 99.9091 216.697 100.221ZM225.673 102.919C226.616 103.365 227.244 104.145 227.581 105.26C227.805 105.996 227.783 106.219 227.312 107.178C227.02 107.757 226.436 108.471 226.01 108.738C225.314 109.207 224.978 109.251 222.374 109.251H219.479V105.907V102.562H222.195C224.237 102.562 225.09 102.651 225.673 102.919Z" />
<path d="M234.179 100.355C233.999 100.89 234.223 101.247 237.926 106.308L240.574 109.942V114.223C240.574 117.278 240.642 118.593 240.844 118.794C241.248 119.195 243.2 119.128 243.357 118.705C243.424 118.504 243.492 116.453 243.492 114.156V109.942L246.746 105.528C250.583 100.355 250.673 100.043 248.631 99.9313L247.352 99.8645L244.726 103.454C243.267 105.438 242.011 106.977 241.943 106.865C241.854 106.776 240.821 105.372 239.677 103.789C236.759 99.753 236.894 99.8868 235.503 99.8868C234.515 99.8868 234.291 99.9536 234.179 100.355Z" />
</svg>
