<svg viewBox="0 0 199 216" fill="none" xmlns="http://www.w3.org/2000/svg">
<path d="M4.06494 187H7.0752V174.014H15.0293C15.2271 174.014 15.4468 174.014 15.6445 174.014L22.9395 187H26.4551L18.7646 173.531C23.0054 172.41 25.5542 169.048 25.5542 164.588V164.544C25.5542 158.897 21.5991 155.293 15.4248 155.293H4.06494V187ZM7.0752 171.333V157.974H15.0513C19.6655 157.974 22.478 160.479 22.478 164.632V164.676C22.478 168.895 19.7754 171.333 15.1831 171.333H7.0752ZM41.4427 187.396C46.6722 187.396 50.1219 184.539 51.0447 181.331L51.1106 181.155H48.1883L48.1004 181.309C47.3313 183.155 44.9583 184.781 41.5086 184.781C36.8064 184.781 33.7742 181.463 33.6863 175.926H51.4622V174.695C51.4622 167.686 47.5511 162.94 41.201 162.94C34.8509 162.94 30.72 167.818 30.72 175.201V175.245C30.72 182.671 34.8069 187.396 41.4427 187.396ZM41.201 165.533C45.2659 165.533 48.1883 168.301 48.5179 173.553H33.7083C34.0818 168.433 37.1141 165.533 41.201 165.533ZM65.8565 187.396C71.0201 187.396 74.9972 184.539 74.9972 180.474V180.43C74.9972 177.024 72.7779 175.179 68.2076 174.08L64.9337 173.311C61.7916 172.564 60.3414 171.443 60.3414 169.51V169.466C60.3414 167.115 62.7804 165.379 65.8785 165.379C69.0206 165.379 71.2179 166.873 71.7452 169.07H74.6017C74.0523 165.335 70.6686 162.94 65.9005 162.94C61.1324 162.94 57.3751 165.774 57.3751 169.598V169.62C57.3751 172.938 59.4186 174.761 63.8131 175.794L67.109 176.585C70.5587 177.398 72.0309 178.606 72.0309 180.65V180.694C72.0309 183.155 69.4161 184.935 65.9444 184.935C62.5167 184.935 60.2535 183.418 59.6163 181.067H56.628C57.1114 184.935 60.693 187.396 65.8565 187.396ZM90.8856 187.396C96.1151 187.396 99.5648 184.539 100.488 181.331L100.554 181.155H97.6312L97.5434 181.309C96.7743 183.155 94.4013 184.781 90.9516 184.781C86.2494 184.781 83.2172 181.463 83.1293 175.926H100.905V174.695C100.905 167.686 96.994 162.94 90.6439 162.94C84.2938 162.94 80.163 167.818 80.163 175.201V175.245C80.163 182.671 84.2499 187.396 90.8856 187.396ZM90.6439 165.533C94.7089 165.533 97.6312 168.301 97.9608 173.553H83.1513C83.5248 168.433 86.557 165.533 90.6439 165.533ZM107.345 187H110.246V172.234C110.246 168.411 112.97 165.708 116.662 165.708C117.563 165.708 118.332 165.796 119.189 166.016V163.16C118.617 163.028 117.826 162.94 116.969 162.94C113.761 162.94 111.454 164.522 110.531 167.225H110.246V163.335H107.345V187ZM131.1 187H134.176L143.009 163.335H139.911L132.77 183.858H132.506L125.343 163.335H122.267L131.1 187ZM157.118 187.396C163.732 187.396 167.885 182.715 167.885 175.179V175.135C167.885 167.598 163.732 162.94 157.118 162.94C150.504 162.94 146.373 167.598 146.373 175.135V175.179C146.373 182.715 150.504 187.396 157.118 187.396ZM157.118 184.803C152.24 184.803 149.34 181.155 149.34 175.179V175.135C149.34 169.158 152.24 165.533 157.118 165.533C161.996 165.533 164.896 169.158 164.896 175.135V175.179C164.896 181.155 161.996 184.803 157.118 184.803ZM175.907 158.414C177.071 158.414 178.038 157.469 178.038 156.282C178.038 155.096 177.071 154.151 175.907 154.151C174.72 154.151 173.754 155.096 173.754 156.282C173.754 157.469 174.72 158.414 175.907 158.414ZM174.435 187H177.335V163.335H174.435V187ZM185.094 187H187.994V172.234C187.994 168.411 190.719 165.708 194.41 165.708C195.311 165.708 196.08 165.796 196.937 166.016V163.16C196.366 163.028 195.575 162.94 194.718 162.94C191.51 162.94 189.203 164.522 188.28 167.225H187.994V163.335H185.094V187Z" fill="black"/>
<path d="M3.62598 211H4.8125V200.462H4.92676L12.3447 211H13.5049V198.317H12.3184V208.847H12.2041L4.8125 198.317H3.62598V211ZM20.534 211H21.7293V205.516L26.2732 198.317H24.9021L21.1844 204.294H21.0789L17.3611 198.317H15.9812L20.534 205.516V211ZM28.7584 211H29.9625V206.219H33.2584C35.6754 206.219 37.3277 204.619 37.3277 202.264V202.246C37.3277 199.891 35.6754 198.317 33.2584 198.317H28.7584V211ZM32.9771 199.39C34.9283 199.39 36.1061 200.471 36.1061 202.255V202.272C36.1061 204.065 34.9283 205.146 32.9771 205.146H29.9625V199.39H32.9771ZM40.1381 211H47.6879V209.91H41.3422V198.317H40.1381V211ZM55.4092 211H59.584C63.46 211 65.6045 208.601 65.6045 204.663V204.646C65.6045 200.717 63.4512 198.317 59.584 198.317H55.4092V211ZM56.6133 209.91V199.407H59.5137C62.6074 199.407 64.374 201.385 64.374 204.654V204.672C64.374 207.941 62.6162 209.91 59.5137 209.91H56.6133ZM68.5467 211H76.2107V209.91H69.7508V205.041H75.8855V203.969H69.7508V199.407H76.2107V198.317H68.5467V211ZM83.3541 211.264C86.0875 211.264 87.9156 209.778 87.9156 207.537V207.528C87.9156 205.762 86.8521 204.698 84.2154 204.101L82.9146 203.802C80.9898 203.362 80.2076 202.65 80.2076 201.534V201.525C80.2076 200.11 81.5348 199.17 83.2838 199.17C85.0855 199.161 86.2809 200.102 86.4654 201.323L86.4742 201.429H87.6783L87.6695 201.314C87.5201 199.495 85.7975 198.054 83.3189 198.054C80.7877 198.054 78.9859 199.539 78.9859 201.552V201.561C78.9859 203.31 80.0582 204.391 82.607 204.971L83.9078 205.261C85.859 205.7 86.6939 206.5 86.6939 207.669V207.687C86.6939 209.11 85.3229 210.147 83.4156 210.147C81.4645 210.147 80.0055 209.189 79.8736 207.792L79.8648 207.695H78.6607L78.6695 207.792C78.8541 209.822 80.6734 211.264 83.3541 211.264ZM90.7611 211H91.9652V198.317H90.7611V211ZM100.559 211.264C103.749 211.264 105.85 209.119 105.85 205.92V204.681H100.726V205.744H104.646V206.025C104.646 208.486 103.02 210.147 100.559 210.147C97.8605 210.147 96.1467 208.012 96.1467 204.637V204.619C96.1467 201.288 97.8693 199.17 100.559 199.17C102.554 199.17 103.978 200.146 104.505 201.938L104.531 202.018H105.736L105.718 201.93C105.217 199.565 103.257 198.054 100.559 198.054C97.1486 198.054 94.9162 200.638 94.9162 204.619V204.637C94.9162 208.671 97.1311 211.264 100.559 211.264ZM108.862 211H110.049V200.462H110.163L117.581 211H118.741V198.317H117.555V208.847H117.44L110.049 198.317H108.862V211ZM131.323 211.264C134.056 211.264 135.884 209.778 135.884 207.537V207.528C135.884 205.762 134.821 204.698 132.184 204.101L130.883 203.802C128.959 203.362 128.176 202.65 128.176 201.534V201.525C128.176 200.11 129.504 199.17 131.253 199.17C133.054 199.161 134.25 200.102 134.434 201.323L134.443 201.429H135.647L135.638 201.314C135.489 199.495 133.766 198.054 131.288 198.054C128.756 198.054 126.955 199.539 126.955 201.552V201.561C126.955 203.31 128.027 204.391 130.576 204.971L131.877 205.261C133.828 205.7 134.663 206.5 134.663 207.669V207.687C134.663 209.11 133.292 210.147 131.384 210.147C129.433 210.147 127.974 209.189 127.842 207.792L127.834 207.695H126.629L126.638 207.792C126.823 209.822 128.642 211.264 131.323 211.264ZM142.131 211H143.327V205.516L147.871 198.317H146.499L142.782 204.294H142.676L138.958 198.317H137.579L142.131 205.516V211ZM154.258 211.264C156.991 211.264 158.82 209.778 158.82 207.537V207.528C158.82 205.762 157.756 204.698 155.119 204.101L153.819 203.802C151.894 203.362 151.112 202.65 151.112 201.534V201.525C151.112 200.11 152.439 199.17 154.188 199.17C155.989 199.161 157.185 200.102 157.369 201.323L157.378 201.429H158.582L158.573 201.314C158.424 199.495 156.701 198.054 154.223 198.054C151.692 198.054 149.89 199.539 149.89 201.552V201.561C149.89 203.31 150.962 204.391 153.511 204.971L154.812 205.261C156.763 205.7 157.598 206.5 157.598 207.669V207.687C157.598 209.11 156.227 210.147 154.32 210.147C152.368 210.147 150.909 209.189 150.778 207.792L150.769 207.695H149.565L149.573 207.792C149.758 209.822 151.577 211.264 154.258 211.264ZM165.066 211H166.262V199.407H170.516V198.317H160.812V199.407H165.066V211ZM173.115 211H180.779V209.91H174.319V205.041H180.454V203.969H174.319V199.407H180.779V198.317H173.115V211ZM183.853 211H184.978V200.655H185.066L189.434 211H190.48L194.857 200.655H194.945V211H196.07V198.317H194.681L190.014 209.418H189.909L185.233 198.317H183.853V211Z" fill="black"/>
<path d="M104.736 0.0660937H74.2977C74.2977 0.0660937 64.8763 -1.02099 56.1797 5.62227C47.483 12.2655 47.6038 20.9622 47.6038 20.9622H96.4016C96.4016 20.9622 120.317 19.6335 118.868 42.0998C117.418 64.5661 96.4016 61.5464 96.4016 61.5464L87 61.6672L96.1461 81.3554H97.0055C97.0055 81.3554 111.741 86.3077 129.739 74.1082C147.736 61.9088 146.528 42.0998 146.528 42.0998C146.528 42.0998 148.34 26.156 137.469 13.4734C126.598 0.790833 104.736 0.0660937 104.736 0.0660937Z" fill="#0576D3"/>
<path d="M96.1461 81.3554L96.1461 61.5464L104.736 68L117.525 81.3553L96.1461 81.3554Z" fill="white"/>
<path d="M104.132 61.667H85.4102L119.714 128.583H151.843L124.183 77.3037C124.183 77.3037 114.52 61.667 104.132 61.667Z" fill="#004B98"/>
<path d="M102.079 61.3047C88.5506 61.6671 85.4102 61.6671 85.4102 61.6671L95.7735 81.4545C95.7735 81.4545 108.739 81.225 114.278 79.9059C119.817 78.5867 124.062 77.3693 124.062 77.3693C124.062 77.3693 115.607 60.9424 102.079 61.3047Z" fill="#004B98"/>
<rect x="47" y="0.065918" width="27.0562" height="20.7753" fill="#004B98"/>
<rect x="47" y="20.8413" width="27.0562" height="107.5" fill="#0576D3"/>
</svg>
