<svg viewBox="0 0 186 74" fill="none" xmlns="http://www.w3.org/2000/svg">
<path d="M44.4297 13.7454C41.1276 10.8316 37.428 8.9097 32.9029 8.16575C27.3383 7.23582 23.2107 8.56872 20.8564 9.34367C20.3672 9.49866 20.306 9.80865 20.306 10.2116C20.2755 11.2345 20.7035 12.0405 21.0398 12.3505C21.4067 12.6915 21.7736 12.5055 22.324 12.3195C24.4948 11.5755 27.4911 11.0486 30.6404 11.4205C33.6367 11.7615 36.419 12.6914 38.4981 13.8694C35.5629 14.3033 31.1601 15.4503 26.5433 18.829C22.752 18.6121 17.9823 19.139 12.6929 21.8358C2.66427 26.9195 -3.63418 39.8456 2.29737 53.9187C4.71279 59.6223 10.1857 64.8919 16.5759 66.7828C20.306 67.8987 23.6387 67.8057 24.5254 67.7438C24.8006 67.9607 25.2592 68.3017 25.8095 68.6737C34.768 74.6873 43.0232 73.4784 47.8847 70.7815C52.3486 68.3017 58.2802 62.0711 58.4636 51.2219C66.7494 43.1314 65.1901 33.801 64.0894 29.8333C61.4905 20.3789 52.8072 14.3963 44.4297 13.7454ZM53.9691 47.2231C53.9997 47.9361 53.6939 48.2461 52.8684 48.835C51.7677 49.61 50.0861 50.5399 48.435 51.0669C48.221 51.1289 48.1293 50.8809 48.1904 50.7259C48.4044 50.3229 48.7102 49.703 48.8936 49.3C49.2605 48.494 49.6274 47.6571 49.9332 46.8512C50.5753 45.1773 51.2173 43.0074 51.6148 41.2405C51.676 40.9616 51.8594 40.9306 51.9511 41.0855C52.1346 41.3645 52.7461 42.7594 53.1741 44.1543C53.6328 45.6422 53.9385 46.8202 53.9691 47.2231ZM45.4081 48.1841C44.766 49.517 44.1851 50.6329 43.5736 51.4078C43.2067 51.8728 40.7913 52.7098 36.3273 50.7879C33.2087 49.455 31.4353 48.0601 28.7753 44.5263C28.1638 43.6894 27.6746 42.9764 27.3383 42.4495C26.9714 41.8605 26.7879 41.3955 25.7484 41.6125C24.984 41.7675 23.3635 42.4184 22.4769 43.7514C22.1405 44.2783 22.3851 44.7123 22.6909 45.2083C23.2718 46.2002 24.1585 47.3781 24.984 48.3701C27.8886 51.9038 31.5576 54.8796 35.8687 56.3675C36.4496 56.5535 37.5503 56.8635 38.0395 56.9875C38.3758 57.0805 38.5287 57.4834 38.3453 57.6694C37.214 58.9093 34.2788 60.9242 33.3921 61.3892C31.2519 62.5051 29.081 63.2801 27.4606 63.528C26.9102 63.621 26.3904 63.714 25.6261 63.0631C24.6782 62.2261 23.8222 61.2342 23.0578 60.2423C21.5596 58.2584 20.3978 55.9955 19.6028 53.6397C17.9518 48.773 17.7683 43.4724 18.8996 38.4817C19.9391 33.863 22.0794 29.5233 25.198 25.9896C25.6261 25.4936 27.2465 23.8817 27.7357 23.5407C28.1332 23.2927 28.653 23.0448 29.9371 23.2927C32.0162 23.7267 35.5018 24.7496 39.2319 27.0745C44.2157 30.1743 47.0591 33.615 47.9458 34.731C48.649 35.6299 48.6796 36.2499 48.5573 37.2418C48.1293 41.4265 46.5394 45.8282 45.4081 48.1841ZM43.3901 18.1781C43.6347 18.2091 43.9099 18.2711 44.2768 18.767C44.98 19.759 46.1419 21.7738 46.6005 22.8278C47.426 24.8116 48.0681 27.3535 48.3433 28.6244C48.4044 28.9344 48.1598 28.8724 48.0681 28.8104C47.7929 28.5004 47.212 28.0044 47.0286 27.8494C46.1725 26.9815 43.6959 24.9666 40.7913 23.2617C38.1924 21.7428 35.1349 20.5029 33.8813 20.162C33.7284 20.131 33.6673 19.883 33.8507 19.79C34.4011 19.542 36.1744 18.86 38.3147 18.4571C39.9657 18.1471 41.8308 18.0231 43.3901 18.1781ZM4.13187 46.6962C3.06174 40.0316 5.04911 33.4911 9.36019 29.2443C11.6839 26.9505 14.4968 25.1216 17.5849 24.0987C18.5021 23.7887 20.1532 23.3547 21.2539 23.1687C21.5596 23.1377 21.6513 23.5097 21.4679 23.6957C20.4283 24.8116 18.9607 27.1365 18.5021 27.9114C14.9248 33.956 13.3655 41.2405 14.0993 48.2461C14.986 56.8945 19.2053 62.1021 19.878 63.0011C20.0309 63.2181 20.1837 63.59 19.8474 63.652C19.7863 63.652 19.4499 63.59 18.9607 63.497C9.39076 61.3582 5.14084 52.9267 4.13187 46.6962ZM31.3436 66.9378C30.9767 66.7828 31.0073 66.5038 31.3436 66.3798C32.2914 66.0389 34.0342 65.3259 34.8597 64.8609C36.5108 63.962 38.0701 62.8771 39.5071 61.6372C40.2409 61.0172 41.8002 59.5913 42.7175 58.5064C43.0232 58.1344 43.543 57.4834 44.552 57.3595C46.5088 57.1425 47.0897 57.0495 48.4656 56.7085C49.7803 56.3675 52.0429 55.5616 53.541 54.7246C53.7245 54.6316 54.0302 54.7246 53.9385 55.1896C53.2659 58.5684 50.9422 63.776 46.784 66.4418C41.9837 69.6036 36.3885 69.2626 31.3436 66.9378ZM57.9744 43.4104C57.7298 43.8134 57.3629 43.7204 57.21 43.3794C57.0877 43.0074 56.9348 42.4804 56.8125 42.1085C56.1705 40.3106 55.3755 38.5437 54.3971 36.9008C53.9079 36.0949 53.3882 35.2579 52.7767 34.359C52.4098 33.801 52.4098 33.5221 52.4098 32.8401C52.3792 28.9654 51.1868 23.6337 49.2911 20.1929C49.1077 19.852 49.3828 19.635 49.5969 19.728C54.7029 22.1148 57.4546 25.6176 58.7694 28.9344C61.7045 36.3119 59.2891 41.2095 57.9744 43.4104Z" fill="#008375"/>
<path d="M84.3488 38.2041C84.3488 35.8482 82.5448 34.7323 80.1906 34.7323H76.6133V45.7366H78.937V41.7998H79.9154C82.6366 41.7998 84.3488 40.5909 84.3488 38.2041ZM82.0251 38.2351C82.0251 39.444 81.4136 40.064 79.946 40.064H78.937V36.5302H80.0071C81.4441 36.4992 82.0251 37.1192 82.0251 38.2351ZM86.9171 42.2028H91.9313C92.2065 39.227 90.9835 37.4911 88.5069 37.4911C86.3055 37.4911 84.5934 39.134 84.5934 41.6759C84.5934 44.2487 86.0915 45.9226 88.7515 45.9226C90.372 45.9226 91.1975 45.4576 91.7173 45.1476L91.0141 43.7217C90.6166 43.9077 90.0357 44.2797 88.935 44.2797C87.6509 44.2797 87.0394 43.4427 86.9171 42.2028ZM86.9171 40.7149C87.0699 39.661 87.5897 39.072 88.5069 39.072C89.4853 39.072 89.8522 39.816 89.8828 40.7149H86.9171ZM98.4744 37.7081C98.2909 37.6151 97.9852 37.4911 97.4043 37.4911C96.3953 37.4911 95.7532 38.1731 95.4169 38.793V37.7081H93.2461V45.7366H95.4169V40.6839C95.6003 40.3119 96.1813 39.475 97.1291 39.475C97.5877 39.475 97.8323 39.568 97.9546 39.661L98.4744 37.7081ZM102.052 39.32H103.947V37.6771H102.052V37.0262C102.052 35.9722 102.449 35.4453 103.336 35.4453C103.917 35.4453 104.284 35.6003 104.437 35.6623L104.926 34.0194C104.742 33.8954 104.161 33.6474 102.999 33.6474C100.982 33.6474 99.8808 34.9493 99.8808 36.8712V37.7081H98.6884V39.351H99.8808V45.7676H102.052V39.32ZM112.294 41.6449C112.294 39.568 111.041 37.4601 108.289 37.4601C105.537 37.4601 104.345 39.63 104.345 41.7069C104.345 43.7837 105.537 45.8916 108.32 45.8916C111.071 45.9226 112.294 43.6907 112.294 41.6449ZM110.001 41.7378C110.001 43.2257 109.573 44.2487 108.32 44.2487C107.097 44.2487 106.607 43.1638 106.607 41.6449C106.607 40.157 107.005 39.103 108.228 39.103C109.481 39.103 110.001 40.219 110.001 41.7378ZM118.654 37.7081C118.47 37.6151 118.165 37.4911 117.584 37.4911C116.575 37.4911 115.933 38.1731 115.596 38.793V37.7081H113.426V45.7366H115.596V40.6839C115.78 40.3119 116.361 39.475 117.309 39.475C117.767 39.475 118.012 39.568 118.134 39.661L118.654 37.7081ZM125.961 38.7621C125.656 38.0181 125.044 37.4911 123.913 37.4911C122.629 37.4911 121.956 38.2041 121.528 38.6691V37.6771H119.418V45.7056H121.589V40.281C121.742 40.064 122.262 39.289 123.057 39.289C123.699 39.289 123.974 39.692 123.974 40.4979V45.6746H126.145V40.188C126.45 39.816 126.94 39.289 127.612 39.289C128.316 39.289 128.56 39.723 128.56 40.4979V45.6746H130.731V40.033C130.731 38.5451 130.15 37.4291 128.468 37.4291C127.337 37.4911 126.603 37.9871 125.961 38.7621ZM134.583 37.6771H132.413V45.7056H134.583V37.6771ZM134.828 35.3213C134.828 34.6393 134.247 34.0194 133.483 34.0194C132.718 34.0194 132.168 34.6083 132.168 35.3213C132.168 36.0342 132.718 36.6542 133.483 36.6542C134.247 36.6542 134.828 36.0342 134.828 35.3213ZM143.542 45.7056V40.064C143.542 38.5761 142.9 37.4601 141.157 37.4601C139.842 37.4601 139.047 38.1731 138.619 38.6691V37.6771H136.51V45.7056H138.68V40.312C138.833 40.095 139.475 39.32 140.301 39.32C141.096 39.32 141.371 39.723 141.371 40.5289V45.7056H143.542ZM149.626 37.6771C149.229 37.5531 148.74 37.4911 148.22 37.4911C146.018 37.4911 144.704 38.6691 144.704 40.4049C144.704 41.4589 145.224 42.2958 146.11 42.8228C145.652 43.1018 145.224 43.5667 145.224 44.3417C145.224 44.9306 145.499 45.3026 145.927 45.5506C145.132 45.9846 144.581 46.6355 144.581 47.5035C144.581 48.9604 145.896 49.6423 148.067 49.6423C150.666 49.6423 152.409 48.4334 152.409 46.7285C152.409 44.3417 150.33 44.3417 148.678 44.2487C147.547 44.1867 147.089 44.0937 147.089 43.6597C147.089 43.4427 147.241 43.2877 147.394 43.1948C147.7 43.2568 148.006 43.2877 148.342 43.2877C150.544 43.2877 151.767 42.1098 151.767 40.3739C151.767 39.909 151.675 39.475 151.461 39.072H152.531V37.6461H149.626V37.6771ZM148.22 41.8928C147.333 41.8928 146.783 41.3349 146.783 40.4049C146.783 39.475 147.333 38.917 148.22 38.917C149.107 38.917 149.657 39.475 149.657 40.4049C149.657 41.3349 149.137 41.8928 148.22 41.8928ZM147.303 45.9846C147.639 46.0466 148.006 46.0776 148.373 46.1086C149.535 46.2016 150.268 46.1706 150.268 47.0075C150.268 47.6894 149.535 48.1854 148.189 48.1854C147.089 48.1854 146.63 47.7515 146.63 47.1005C146.661 46.6355 146.875 46.2635 147.303 45.9846ZM159.166 43.6597H163.507L164.241 45.7366H166.748L162.498 34.7323H160.266L156.139 45.7366H158.462L159.166 43.6597ZM162.835 41.7998H159.808L160.725 39.165C161.061 38.2351 161.275 37.3981 161.306 37.2742H161.337C161.367 37.3981 161.581 38.2351 161.917 39.165L162.835 41.7998ZM172.772 37.7081C172.588 37.6151 172.282 37.4911 171.701 37.4911C170.692 37.4911 170.05 38.1731 169.714 38.793V37.7081H167.543V45.7366H169.714V40.6839C169.898 40.3119 170.478 39.475 171.426 39.475C171.885 39.475 172.13 39.568 172.252 39.661L172.772 37.7081ZM174.27 39.32V43.4117C174.27 44.9616 174.912 45.9226 176.777 45.9226C177.755 45.9226 178.428 45.6436 178.764 45.4576L178.275 43.8147C178.122 43.9077 177.694 44.1247 177.236 44.1247C176.624 44.1247 176.441 43.7837 176.441 42.9778V39.32H178.306V37.6771H176.441V35.3523H174.3V37.6771H173.016V39.32H174.27ZM185.002 43.3497C185.002 41.9858 184.084 41.4279 182.831 40.9009C181.913 40.5289 181.21 40.3739 181.21 39.847C181.21 39.413 181.547 39.134 182.311 39.134C183.075 39.134 183.687 39.444 183.993 39.661L184.757 38.1731C184.39 37.9561 183.565 37.5221 182.219 37.5221C180.415 37.5221 179.253 38.4831 179.253 39.971C179.253 41.1799 179.926 41.8308 181.027 42.3578C182.158 42.9158 183.014 43.0398 183.014 43.5977C183.014 44.0627 182.556 44.3107 181.699 44.3107C180.813 44.3107 180.048 43.8767 179.743 43.6597L179.009 45.1786C179.498 45.5196 180.415 45.9226 181.822 45.9226C183.84 45.9226 185.002 45.0236 185.002 43.3497Z" fill="black"/>
<path d="M76.7197 29.7333H81.948V28.9584H77.6064V18.7291H76.7197V29.7333ZM83.966 20.217C84.3329 20.217 84.6081 19.907 84.6081 19.535C84.6081 19.1631 84.3023 18.8841 83.966 18.8841C83.6297 18.8841 83.3239 19.1631 83.3239 19.535C83.3239 19.907 83.5991 20.217 83.966 20.217ZM83.5379 29.7333H84.394V21.8599H83.5379V29.7333ZM89.1026 29.9193C91.4874 29.9193 92.955 27.9975 92.955 25.7656C92.955 23.4718 91.8849 21.6739 89.6529 21.6739C88.858 21.6739 88.0936 22.0459 87.6044 22.5728V17.8301H86.7483V29.2994C87.3292 29.6714 88.1853 29.9193 89.1026 29.9193ZM89.1332 29.1754C88.5217 29.1754 87.9713 29.0514 87.6044 28.8654V23.3478C88.0325 22.8518 88.8274 22.4488 89.5001 22.4488C91.3957 22.4488 92.0378 24.0917 92.0378 25.7966C92.0684 27.4395 91.1205 29.1754 89.1332 29.1754ZM94.9118 29.7333H95.7679V24.2467C95.982 23.7817 96.6852 22.5108 97.7553 22.5108C98.0916 22.5108 98.2751 22.5728 98.3974 22.6348L98.6114 21.8289C98.4891 21.7669 98.2139 21.7049 97.8776 21.7049C96.7769 21.7049 96.0737 22.6658 95.7985 23.2548V21.8909H94.9118V29.7333ZM101.516 29.9193C102.433 29.9193 103.32 29.4544 103.87 28.7414C103.901 29.0204 103.931 29.4854 103.993 29.7333H104.849C104.757 29.3924 104.696 28.8344 104.696 28.1524V24.1847C104.696 22.4798 103.809 21.6739 102.219 21.6739C101.21 21.6739 100.354 22.0149 99.6815 22.6658L100.14 23.2548C100.782 22.6348 101.424 22.4178 102.158 22.4178C103.32 22.4178 103.87 23.0068 103.87 24.2777V25.1766H103.503C101.699 25.1766 99.4064 25.7656 99.4064 27.8735C99.3452 29.1134 100.232 29.9193 101.516 29.9193ZM101.638 29.1754C100.966 29.1754 100.232 28.7104 100.232 27.8425C100.232 26.3856 101.699 25.8586 103.442 25.8586H103.809V27.9665C103.228 28.7414 102.494 29.1754 101.638 29.1754ZM106.958 29.7333H107.814V24.2467C108.029 23.7817 108.732 22.5108 109.802 22.5108C110.138 22.5108 110.322 22.5728 110.444 22.6348L110.658 21.8289C110.536 21.7669 110.26 21.7049 109.924 21.7049C108.823 21.7049 108.12 22.6658 107.845 23.2548V21.8909H106.989V29.7333H106.958ZM111.728 33.5151C113.41 33.5151 114.021 32.3372 114.572 30.8493L117.904 21.8289H117.018L114.633 28.5864L112.187 21.8289H111.269L114.174 29.6403L113.777 30.7563C113.318 31.9962 112.859 32.7401 111.728 32.7401C111.422 32.7401 111.3 32.7091 111.178 32.6781L111.055 33.3911C111.208 33.4841 111.392 33.5151 111.728 33.5151ZM123.316 29.7333H124.142V22.5418H126.159V21.8599H124.142V20.62C124.142 19.1941 124.722 18.4501 125.915 18.4501C126.373 18.4501 126.74 18.5741 126.893 18.6671L127.107 17.9231C126.893 17.8301 126.496 17.7061 125.915 17.7061C124.203 17.7061 123.285 18.7911 123.285 20.589V21.9219H121.94V22.6038H123.285V29.7333H123.316ZM130.195 29.9193C132.641 29.9193 133.742 27.7495 133.742 25.7656C133.742 23.8127 132.611 21.6739 130.165 21.6739C127.719 21.6739 126.679 23.8127 126.679 25.7966C126.71 27.7805 127.78 29.9193 130.195 29.9193ZM130.226 29.1754C128.483 29.1754 127.596 27.5635 127.596 25.7656C127.596 23.9987 128.391 22.4178 130.165 22.4178C131.938 22.4178 132.855 24.0297 132.855 25.7966C132.855 27.5945 131.999 29.1754 130.226 29.1754ZM135.699 29.7333H136.555V24.2467C136.769 23.7817 137.472 22.5108 138.542 22.5108C138.879 22.5108 139.062 22.5728 139.184 22.6348L139.398 21.8289C139.276 21.7669 139.001 21.7049 138.665 21.7049C137.564 21.7049 136.861 22.6658 136.586 23.2548V21.8909H135.729V29.7333H135.699ZM146.492 29.9193C147.226 29.9193 147.776 29.6094 147.99 29.4544L147.654 28.8034C147.501 28.9274 147.042 29.1754 146.584 29.1754C145.88 29.1754 145.636 28.7414 145.636 27.9355V22.5728H147.623V21.8909H145.636V19.628H144.78V21.8599H143.465V22.5418H144.78V27.9665C144.78 29.2064 145.33 29.9193 146.492 29.9193ZM149.641 29.7333H150.497V23.9987C150.772 23.5648 151.72 22.4488 152.882 22.4488C154.044 22.4488 154.472 23.1618 154.472 24.3397V29.7333H155.328V24.1537C155.328 22.7278 154.686 21.6739 153.065 21.6739C151.751 21.6739 150.864 22.5728 150.497 23.0998V17.8301H149.641V29.7333ZM160.709 29.9193C161.963 29.9193 162.849 29.4854 163.339 29.1134L162.972 28.4314C162.544 28.7724 161.718 29.1754 160.74 29.1754C158.875 29.1754 158.141 27.5325 158.11 25.7346V25.5486H163.461C163.492 25.3936 163.492 25.2696 163.492 25.1147C163.492 23.0998 162.421 21.6739 160.556 21.6739C158.477 21.6739 157.224 23.5028 157.224 25.7036C157.224 27.9975 158.324 29.9193 160.709 29.9193ZM158.171 24.8357C158.385 23.4718 159.18 22.4178 160.526 22.4178C161.993 22.4178 162.605 23.6267 162.635 24.8357H158.171Z" fill="black"/>
<path d="M76.6868 12.6878H77.5124V3.14047L84.0248 12.6878H84.8503V1.68357H83.9942V11.1689L77.5429 1.68357H76.6562V12.6878H76.6868ZM89.8646 12.8428C91.1182 12.8428 92.0049 12.4088 92.4941 12.0369L92.1272 11.3549C91.6991 11.6959 90.8736 12.0989 89.8952 12.0989C88.0301 12.0989 87.2963 10.456 87.2658 8.6581V8.47211H92.6164C92.647 8.31712 92.647 8.19313 92.647 8.03814C92.647 6.02328 91.5768 4.59737 89.7118 4.59737C87.6327 4.59737 86.3791 6.42625 86.3791 8.6271C86.3791 10.9209 87.4798 12.8428 89.8646 12.8428ZM87.3269 7.79015C87.5409 6.42624 88.3359 5.37232 89.6812 5.37232C91.1488 5.37232 91.7603 6.58123 91.7909 7.79015H87.3269ZM95.8268 12.6878H96.6217L98.7314 6.05428L100.841 12.6878H101.636L103.99 4.81436H103.134L101.239 11.3859L99.19 4.81436H98.3645L96.316 11.3549L94.4203 4.81436H93.5031L95.8268 12.6878ZM111.084 12.6878H111.97V8.53411L115.578 1.68357H114.661L111.573 7.63516H111.542L108.454 1.68357H107.445L111.084 8.53411V12.6878ZM118.177 12.8428C120.623 12.8428 121.724 10.673 121.724 8.6891C121.724 6.73623 120.592 4.59737 118.146 4.59737C115.701 4.59737 114.661 6.73622 114.661 8.72009C114.661 10.735 115.731 12.8428 118.177 12.8428ZM118.177 12.0989C116.404 12.0989 115.548 10.487 115.548 8.6891C115.548 6.92222 116.343 5.34132 118.116 5.34132C119.889 5.34132 120.807 6.95321 120.807 8.72009C120.807 10.518 119.95 12.0989 118.177 12.0989ZM123.344 12.6878H124.2V7.20119C124.414 6.73623 125.118 5.46531 126.188 5.46531C126.524 5.46531 126.707 5.52731 126.83 5.58931L127.044 4.78336C126.922 4.72136 126.646 4.65937 126.31 4.65937C125.209 4.65937 124.506 5.62031 124.231 6.20927V4.84536H123.344V12.6878ZM133.067 12.6878H134.137L130.529 8.25512L133.954 4.81436H132.884L129.49 8.25512L133.067 12.6878ZM128.542 12.6878H129.398V0.815626H128.542V12.6878ZM139.549 12.6878H140.436V8.00714H141.812C144.258 8.00714 145.633 6.76723 145.633 4.78336C145.633 2.83049 144.196 1.68357 141.934 1.68357H139.549V12.6878ZM140.436 7.23219V2.45852H141.812C143.891 2.45852 144.686 3.45045 144.686 4.81436C144.686 6.27126 143.829 7.23219 141.781 7.23219H140.436ZM149.302 12.8428C150.617 12.8428 151.504 11.9749 151.871 11.3859C151.871 11.8199 151.932 12.4088 151.993 12.6878H152.849C152.757 12.3779 152.696 11.7889 152.696 11.1689V4.81436H151.84V10.518C151.565 10.9829 150.617 12.0989 149.455 12.0989C148.263 12.0989 147.865 11.3549 147.865 10.208V4.81436H147.009V10.363C147.009 11.7889 147.651 12.8428 149.302 12.8428ZM157.374 12.8428C159.759 12.8428 161.227 10.9209 161.227 8.6891C161.227 6.39525 160.157 4.59737 157.925 4.59737C157.13 4.59737 156.365 4.96934 155.876 5.49631V0.753632H155.02V12.2229C155.57 12.6258 156.426 12.8428 157.374 12.8428ZM157.405 12.0989C156.793 12.0989 156.243 11.9749 155.907 11.7889V6.30226C156.335 5.80629 157.13 5.40332 157.802 5.40332C159.698 5.40332 160.34 7.04621 160.34 8.75109C160.309 10.394 159.362 12.0989 157.405 12.0989ZM162.847 12.6878H163.703V0.815626H162.847V12.6878ZM166.577 3.14047C166.944 3.14047 167.219 2.83049 167.219 2.45852C167.219 2.08654 166.914 1.80756 166.577 1.80756C166.241 1.80756 165.935 2.08654 165.935 2.45852C165.935 2.86149 166.241 3.14047 166.577 3.14047ZM166.149 12.6878H167.005V4.81436H166.149V12.6878ZM172.05 12.8428C173.212 12.8428 174.038 12.4088 174.466 12.0369L174.099 11.3859C173.762 11.6959 172.998 12.0989 172.111 12.0989C170.399 12.0989 169.635 10.425 169.635 8.6891C169.635 6.86022 170.43 5.34132 172.142 5.34132C172.998 5.34132 173.579 5.6823 174.038 6.05428L174.466 5.43432C174.038 5.06234 173.304 4.59737 172.142 4.59737C170.155 4.59737 168.718 6.20926 168.718 8.72009C168.718 10.8589 169.818 12.8428 172.05 12.8428Z" fill="black"/>
</svg>
