<svg viewBox="0 0 125 126" fill="none" xmlns="http://www.w3.org/2000/svg">
<path fill-rule="evenodd" clip-rule="evenodd" d="M122.666 79.0815L122.66 79.101C122.161 80.6829 121.527 82.6958 120.258 81.7727C116.249 78.8355 111.884 76.4143 107.268 74.5662C106.993 74.4964 107.028 74.1177 107.128 73.9133C107.487 73.1026 107.719 72.2422 107.818 71.3617C108.071 70.5367 108.493 69.773 109.057 69.119C110.35 66.5569 111.143 63.7732 111.395 60.9158C111.616 58.7382 111.488 56.5394 111.015 54.4021C110.648 53.4802 110.383 52.5209 110.226 51.5414C110.226 51.0443 110.354 50.5471 110.488 50.0243L110.488 50.0242C110.606 49.5669 110.729 49.0898 110.775 48.576C110.188 45.4367 107.953 42.8553 104.925 41.8181C103.292 41.0567 101.623 40.3186 99.9283 39.5692C96.5542 38.0769 93.0777 36.5392 89.5723 34.6814C86.7865 32.6101 84.184 30.3042 81.7935 27.7889C77.6345 25.3034 73.1688 23.3685 68.5091 22.0327C67.957 21.9494 67.5235 21.517 67.44 20.9662C65.8369 13.7599 61.7204 7.35579 55.8243 2.89546C53.656 1.20598 56.1191 0.239139 59.1167 0.104566C79.2322 -1.02727 98.6569 7.60362 111.269 23.277C123.88 38.9503 128.125 59.7355 122.666 79.0815ZM29.5009 8.84576C28.7039 9.37578 28.7039 10.7442 30.6463 10.9417C37.6046 11.515 44.1771 14.2403 49.3663 18.704C49.7049 19.0572 50.1581 19.2914 50.653 19.369C51.142 19.4095 51.7022 19.3914 52.3657 19.3698C53.359 19.3376 54.5839 19.2978 56.1479 19.4364C57.4098 19.5387 58.6637 19.7173 59.9019 19.9713C63.3129 20.5736 58.2015 13.1052 52.4644 9.1734C49.1063 6.6216 45.1645 4.86335 40.96 4.04188C40.0961 3.93254 39.2177 4.07178 38.4371 4.44179C35.3018 5.59989 32.3059 7.07635 29.5009 8.84576ZM16.5015 19.9447C16.8744 19.5103 17.3717 19.1952 17.9293 19.0401C25.7792 17.1614 34.0417 17.8546 41.4506 21.0136C42.8438 21.6183 43.491 22.4647 42.5721 23.0548C40.2231 24.4489 37.9927 26.026 35.9026 27.7709C35.2538 28.1687 34.48 28.3233 33.7239 28.2063C26.2687 26.729 18.5262 27.6274 11.6302 30.7699C9.93075 31.4713 8.42885 30.5039 9.21439 29.2317C11.2956 25.8887 13.7387 22.775 16.5015 19.9447ZM98.2814 43.6276C96.1482 42.58 93.7224 41.7751 91.3015 40.9718L91.3014 40.9718C88.486 40.0377 85.6773 39.1057 83.3431 37.7968C81.7617 36.9231 80.3593 35.7923 78.9523 34.6577C77.2695 33.3008 75.58 31.9385 73.5697 31.0042C69.8152 29.2527 65.9161 27.8293 61.9159 26.7501C56.3564 25.2169 50.4087 26.0742 45.5094 29.1152C40.4797 32.9777 38.0812 39.3596 39.3228 45.5762C39.7191 48.5499 40.7936 51.3929 42.4632 53.886C46.9371 60.2187 54.0881 63.6053 61.2447 66.9946L61.2447 66.9946C64.4764 68.5251 67.7092 70.0561 70.6972 71.8592C70.9615 72.0811 71.3558 72.0469 71.5779 71.7827L71.5802 71.7799L71.6398 71.7352C72.9 69.3701 74.8737 67.4619 77.2806 66.2813C80.8329 65.3919 84.5232 65.1933 88.1505 65.6963C91.4747 66.3364 94.9146 65.5382 97.6165 63.4998C99.4777 60.7481 99.0566 57.0516 96.6242 54.7884C95.8761 54.3576 94.925 54.1519 93.9709 53.9455C93.1788 53.7741 92.3846 53.6023 91.7027 53.3009C90.5427 52.7226 89.6405 51.7325 89.1725 50.5243C88.4944 49.2696 88.3825 47.7857 88.8649 46.4436C89.7495 45.5582 91.1102 45.3567 92.2137 45.9478C95.0795 46.7644 98.1099 46.8123 101 46.0866C100.503 44.9047 99.5076 44.0039 98.2814 43.6276ZM74.0461 42.2889C73.9765 43.6307 73.2634 44.8566 72.1311 45.581C71.1383 45.4014 70.2349 44.8932 69.5662 44.1382C68.0376 43.4136 66.4469 42.8278 64.8134 42.388C63.2054 42.1213 61.768 41.2302 60.8147 39.9089C59.9613 37.8513 61.9756 36.8894 63.4441 36.4085C64.8008 36.002 66.2055 35.777 67.6214 35.7392C69.8362 35.2382 72.1489 35.972 73.669 37.658C74.1892 39.1439 74.3191 40.7384 74.0461 42.2889ZM2.03627 48.1409C1.63166 48.5911 1.38721 49.1596 1.34019 49.7597C-0.991349 60.5504 -0.270646 71.7666 3.42336 82.1797C4.05382 83.7537 6.52034 83.146 6.44972 79.769C6.46794 79.1455 6.47556 78.4548 6.48384 77.7046C6.58561 68.4831 6.78645 50.285 27.9774 37.7011C29.2989 36.9441 30.4085 36.187 29.8537 34.877C28.8997 34.0088 27.5223 33.7659 26.3229 34.2544C16.8851 36.0778 8.33604 40.9659 2.03627 48.1409ZM102.126 56.6795C102.126 56.8557 102.24 57.6913 102.278 57.9329C102.496 59.5948 102.403 61.2794 102.001 62.9116C101.988 63.1185 102.069 63.3213 102.224 63.4704C103.508 64.3428 104.514 65.5223 105.134 66.8834C105.226 67.1251 105.524 66.9841 105.676 66.672C107.375 62.69 107.441 58.2669 105.86 54.243L105.852 54.2283C105.808 54.1438 105.697 53.9323 105.524 54.0316C104.829 54.411 104.167 54.842 103.546 55.3203C102.946 55.6424 102.455 56.113 102.126 56.6795ZM81.61 73.8964C81.8488 72.9563 82.4266 72.1458 83.2253 71.6307C85.3218 70.7367 87.5809 70.3211 89.8476 70.4122C92.1241 70.4147 94.3851 70.0267 96.5383 69.2642C97.4901 68.2602 98.8666 67.8158 100.203 68.0809C100.903 68.4321 101.418 69.0816 101.614 69.8583C101.92 70.7155 102.047 71.6304 101.985 72.5419C101.076 75.0897 100.043 77.5885 98.8905 80.029C98.9015 80.5103 98.7723 80.9838 98.5196 81.3885C95.8619 83.0033 92.6809 83.4306 89.711 82.5717C88.6338 82.5719 87.5644 82.3829 86.5487 82.0128C85.9555 81.663 85.4214 81.2157 84.9676 80.6887C84.1918 79.9406 83.6583 79.3231 82.9951 78.5555C82.7656 78.2898 82.5205 78.0061 82.2444 77.6927C81.7313 77.2352 81.3087 76.6795 81 76.0564C81.1453 75.3203 81.3494 74.5978 81.61 73.8964ZM19.9236 107.506C20.5356 108.698 21.3844 109.754 22.4181 110.608C32.2358 118.906 44.4022 123.93 57.2161 124.977C59.6907 125.181 59.9649 124.288 60 122.872C58.3181 116.127 55.0281 109.89 50.4112 104.693C49.1819 103.085 46.9438 100.646 44.2638 97.7257C37.7963 90.6776 28.7558 80.8254 25.1121 73.0924C21.9715 67.665 21.0019 61.2504 22.398 55.1377C23.2212 52.1352 20.7117 50.3397 18.342 54.2399C10.8836 65.3817 14.1165 98.2239 19.9236 107.506ZM30.1067 65.1896C27.1716 58.2251 27.3088 50.3557 30.4847 43.4965C31.375 41.8198 32.2305 40.7268 33.3645 41.068C34.5979 41.4093 34.8566 42.6755 35.0455 45.0248C36.3138 64.3884 48.0317 70.8874 62.7337 77.7327C77.1939 83.9279 89.6298 94.0114 98.6433 106.85C100.324 109.209 100.563 110.648 98.6783 112.013C92.1456 116.738 84.7208 120.103 76.849 121.905C75.5111 122.212 74.1086 121.975 72.9099 118.893C66.1551 101.466 56.8936 93.9458 48.3196 86.9837C41.1422 81.1557 34.4467 75.719 30.1067 65.1896ZM102.739 104.307C103.35 105.525 104.449 106.977 106.333 105.119C109.928 101.449 113.037 97.3442 115.582 92.9039C116.037 92.2705 116.127 91.4513 115.821 90.7368C113.699 87.622 111.114 84.8385 108.152 82.4795C106.962 81.4974 105.619 80.7096 104.176 80.1461C103.81 80.0381 103.429 79.9918 103.047 80.0092C102.004 80.1353 101.879 80.6016 101.477 82.104C101.443 82.2328 101.407 82.3693 101.367 82.5138C100.944 84.5096 99.7056 86.2465 97.9428 87.3175C96.7847 87.8719 95.4882 88.0843 94.2101 87.9289C93.7794 87.8172 93.3269 88.0103 93.1155 88.3962C92.9041 88.7821 92.9888 89.2603 93.3204 89.553C97.2327 93.9499 100.412 98.9296 102.739 104.307Z" fill="white"/>
</svg>
