<svg width="205" height="80" viewBox="0 0 205 80" fill="none" xmlns="http://www.w3.org/2000/svg">
<path d="M49.2945 14.9049C45.6308 11.7161 41.5262 9.61291 36.5056 8.79876C30.3317 7.78108 25.7521 9.23975 23.14 10.0878C22.5973 10.2574 22.5294 10.5967 22.5294 11.0377C22.4955 12.1571 22.9704 13.0391 23.3436 13.3783C23.7506 13.7515 24.1577 13.5479 24.7683 13.3444C27.1768 12.5303 30.5013 11.9536 33.9953 12.3607C37.3198 12.7338 40.4067 13.7515 42.7135 15.0405C39.4569 15.5155 34.572 16.7706 29.4497 20.4682C25.2432 20.2307 19.9513 20.8074 14.0827 23.7587C2.95599 29.322 -4.0321 43.4678 2.54892 58.8688C5.22881 65.1106 11.301 70.8774 18.3909 72.9467C22.5294 74.1679 26.227 74.0662 27.2108 73.9983C27.5161 74.2358 28.0249 74.6089 28.6355 75.016C38.5749 81.597 47.734 80.274 53.1278 77.3227C58.0805 74.6089 64.6615 67.7904 64.865 55.9175C74.0581 47.0636 72.3281 36.8529 71.1068 32.5108C68.2234 22.1643 58.5893 15.6172 49.2945 14.9049ZM59.8784 51.5414C59.9123 52.3217 59.5731 52.6609 58.6572 53.3054C57.436 54.1535 55.5702 55.1712 53.7384 55.7479C53.5009 55.8157 53.3991 55.5443 53.467 55.3747C53.7044 54.9337 54.0437 54.2553 54.2472 53.8143C54.6543 52.9323 55.0614 52.0164 55.4006 51.1344C56.113 49.3025 56.8253 46.928 57.2663 44.9944C57.3342 44.6891 57.5377 44.6551 57.6395 44.8247C57.843 45.13 58.5215 46.6566 58.9964 48.1831C59.5052 49.8114 59.8445 51.1005 59.8784 51.5414ZM50.38 52.5931C49.6676 54.0517 49.0231 55.2729 48.3447 56.121C47.9376 56.6299 45.2577 57.5458 40.305 55.4426C36.8448 53.9839 34.8773 52.4574 31.926 48.5902C31.2476 47.6742 30.7048 46.894 30.3317 46.3173C29.9246 45.6728 29.7211 45.164 28.5677 45.4014C27.7196 45.571 25.9217 46.2834 24.9379 47.7421C24.5648 48.3188 24.8362 48.7937 25.1754 49.3365C25.8199 50.422 26.8037 51.7111 27.7196 52.7966C30.9423 56.6638 35.013 59.9204 39.7961 61.5487C40.4406 61.7522 41.6619 62.0914 42.2046 62.2271C42.5778 62.3289 42.7474 62.7699 42.5439 62.9734C41.2887 64.3303 38.0321 66.5353 37.0484 67.0442C34.6738 68.2654 32.2653 69.1134 30.4674 69.3848C29.8567 69.4866 29.2801 69.5884 28.432 68.876C27.3804 67.9601 26.4305 66.8745 25.5825 65.789C23.9203 63.618 22.6312 61.1416 21.7492 58.5635C19.9174 53.2376 19.7138 47.4368 20.969 41.9752C22.1224 36.9207 24.4969 32.1715 27.9571 28.3044C28.432 27.7616 30.2299 25.9976 30.7727 25.6245C31.2137 25.3531 31.7903 25.0817 33.2151 25.3531C35.5218 25.828 39.389 26.9474 43.5276 29.4916C49.057 32.8839 52.2118 36.6494 53.1956 37.8706C53.9758 38.8543 54.0098 39.5328 53.8741 40.6183C53.3991 45.1979 51.6352 50.0149 50.38 52.5931ZM48.1411 19.7558C48.4125 19.7897 48.7178 19.8576 49.1249 20.4004C49.9051 21.4859 51.1942 23.6909 51.703 24.8442C52.6189 27.0153 53.3313 29.797 53.6366 31.1878C53.7044 31.527 53.4331 31.4592 53.3313 31.3913C53.026 31.0521 52.3815 30.5093 52.1779 30.3397C51.2281 29.3899 48.4803 27.1849 45.2577 25.3192C42.3742 23.6569 38.982 22.3 37.5911 21.9269C37.4215 21.893 37.3537 21.6216 37.5572 21.5198C38.1678 21.2484 40.1353 20.5021 42.5099 20.0611C44.3418 19.7219 46.4111 19.5862 48.1411 19.7558ZM4.58428 50.9648C3.39699 43.6714 5.60196 36.5137 10.3851 31.8662C12.9632 29.356 16.0841 27.3545 19.5103 26.2351C20.528 25.8958 22.3598 25.4209 23.581 25.2174C23.9203 25.1835 24.022 25.5905 23.8185 25.7941C22.6651 27.0153 21.0368 29.5595 20.528 30.4076C16.559 37.0225 14.829 44.9943 15.6431 52.6609C16.6269 62.1253 21.3082 67.8244 22.0545 68.8081C22.2241 69.0456 22.3937 69.4527 22.0206 69.5205C21.9527 69.5205 21.5796 69.4527 21.0368 69.3509C10.419 67.0102 5.70373 57.7832 4.58428 50.9648ZM34.7755 73.1163C34.3685 72.9467 34.4024 72.6414 34.7755 72.5057C35.8272 72.1326 37.7607 71.3523 38.6767 70.8435C40.5085 69.8597 42.2386 68.6724 43.8329 67.3155C44.6471 66.6371 46.3771 65.0766 47.3948 63.8893C47.734 63.4823 48.3107 62.7699 49.4302 62.6342C51.6012 62.3967 52.2458 62.295 53.7723 61.9218C55.231 61.5487 57.7413 60.6667 59.4035 59.7508C59.607 59.649 59.9462 59.7508 59.8445 60.2596C59.0982 63.9572 56.52 69.6562 51.9065 72.5736C46.5807 76.0337 40.3728 75.6605 34.7755 73.1163ZM64.3223 47.3689C64.0509 47.8099 63.6438 47.7082 63.4742 47.335C63.3385 46.928 63.1689 46.3513 63.0332 45.9442C62.3208 43.9767 61.4388 42.0431 60.3533 40.2452C59.8105 39.3632 59.2339 38.4473 58.5554 37.4635C58.1483 36.8529 58.1483 36.5476 58.1483 35.8013C58.1144 31.5609 56.7914 25.7262 54.6882 21.9608C54.4847 21.5876 54.79 21.3502 55.0274 21.4519C60.6925 24.064 63.7456 27.8973 65.2043 31.527C68.4609 39.6006 65.781 44.9604 64.3223 47.3689Z" fill="white"/>
<path d="M93.3266 42.8572C93.3266 40.2791 91.3252 39.0578 88.7131 39.0578H84.7441V51.1004H87.3223V46.7922H88.4078C91.4269 46.7922 93.3266 45.4692 93.3266 42.8572ZM90.7485 42.8911C90.7485 44.2141 90.07 44.8926 88.4417 44.8926H87.3223V41.0254H88.5096C90.1039 40.9914 90.7485 41.6699 90.7485 42.8911ZM96.1761 47.2332H101.739C102.045 43.9766 100.688 42.077 97.9401 42.077C95.4977 42.077 93.598 43.8749 93.598 46.6565C93.598 49.4721 95.2602 51.304 98.2115 51.304C100.009 51.304 100.925 50.7951 101.502 50.4559L100.722 48.8954C100.281 49.099 99.6362 49.506 98.415 49.506C96.9903 49.506 96.3118 48.5901 96.1761 47.2332ZM96.1761 45.6049C96.3457 44.4516 96.9224 43.807 97.9401 43.807C99.0256 43.807 99.4327 44.6212 99.4666 45.6049H96.1761ZM108.999 42.3144C108.795 42.2126 108.456 42.077 107.812 42.077C106.692 42.077 105.98 42.8233 105.607 43.5017V42.3144H103.198V51.1004H105.607V45.571C105.81 45.1639 106.455 44.248 107.506 44.248C108.015 44.248 108.287 44.3498 108.422 44.4516L108.999 42.3144ZM112.968 44.0784H115.071V42.2805H112.968V41.5681C112.968 40.4147 113.409 39.8381 114.393 39.8381C115.037 39.8381 115.444 40.0077 115.614 40.0755L116.157 38.2776C115.953 38.1419 115.309 37.8705 114.019 37.8705C111.781 37.8705 110.559 39.2953 110.559 41.3985V42.3144H109.236V44.1123H110.559V51.1343H112.968V44.0784ZM124.332 46.6226C124.332 44.3498 122.941 42.043 119.888 42.043C116.835 42.043 115.512 44.4176 115.512 46.6905C115.512 48.9633 116.835 51.27 119.922 51.27C122.975 51.304 124.332 48.8615 124.332 46.6226ZM121.788 46.7244C121.788 48.3527 121.313 49.4721 119.922 49.4721C118.565 49.4721 118.022 48.2848 118.022 46.6226C118.022 44.9943 118.463 43.8409 119.82 43.8409C121.211 43.8409 121.788 45.0622 121.788 46.7244ZM131.388 42.3144C131.184 42.2126 130.845 42.077 130.201 42.077C129.081 42.077 128.369 42.8233 127.996 43.5017V42.3144H125.587V51.1004H127.996V45.571C128.199 45.1639 128.844 44.248 129.895 44.248C130.404 44.248 130.676 44.3498 130.811 44.4516L131.388 42.3144ZM139.495 43.4678C139.156 42.6537 138.478 42.077 137.223 42.077C135.798 42.077 135.052 42.8572 134.577 43.366V42.2805H132.236V51.0665H134.645V45.13C134.814 44.8926 135.391 44.0445 136.273 44.0445C136.985 44.0445 137.291 44.4855 137.291 45.3675V51.0326H139.699V45.0282C140.038 44.6212 140.581 44.0445 141.327 44.0445C142.108 44.0445 142.379 44.5194 142.379 45.3675V51.0326H144.787V44.8586C144.787 43.2303 144.143 42.0091 142.277 42.0091C141.022 42.077 140.208 42.6197 139.495 43.4678ZM149.062 42.2805H146.653V51.0665H149.062V42.2805ZM149.333 39.7024C149.333 38.9561 148.689 38.2776 147.84 38.2776C146.992 38.2776 146.382 38.9221 146.382 39.7024C146.382 40.4826 146.992 41.161 147.84 41.161C148.689 41.161 149.333 40.4826 149.333 39.7024ZM159.001 51.0665V44.8926C159.001 43.2643 158.289 42.043 156.355 42.043C154.896 42.043 154.014 42.8233 153.54 43.366V42.2805H151.199V51.0665H153.607V45.1639C153.777 44.9265 154.489 44.0784 155.405 44.0784C156.287 44.0784 156.593 44.5194 156.593 45.4014V51.0665H159.001ZM165.752 42.2805C165.311 42.1448 164.768 42.077 164.191 42.077C161.749 42.077 160.29 43.366 160.29 45.2657C160.29 46.4191 160.867 47.335 161.851 47.9117C161.342 48.217 160.867 48.7258 160.867 49.5739C160.867 50.2184 161.172 50.6255 161.647 50.8969C160.765 51.3718 160.154 52.0842 160.154 53.034C160.154 54.6284 161.613 55.3747 164.022 55.3747C166.905 55.3747 168.839 54.0517 168.839 52.1859C168.839 49.5739 166.532 49.5739 164.7 49.4721C163.445 49.4043 162.936 49.3025 162.936 48.8276C162.936 48.5901 163.106 48.4205 163.275 48.3188C163.615 48.3866 163.954 48.4205 164.327 48.4205C166.769 48.4205 168.126 47.1315 168.126 45.2318C168.126 44.7229 168.025 44.248 167.787 43.807H168.974V42.2466H165.752V42.2805ZM164.191 46.894C163.207 46.894 162.597 46.2834 162.597 45.2657C162.597 44.248 163.207 43.6374 164.191 43.6374C165.175 43.6374 165.786 44.248 165.786 45.2657C165.786 46.2834 165.209 46.894 164.191 46.894ZM163.174 51.3718C163.547 51.4396 163.954 51.4736 164.361 51.5075C165.65 51.6093 166.464 51.5753 166.464 52.4912C166.464 53.2375 165.65 53.7803 164.157 53.7803C162.936 53.7803 162.427 53.3054 162.427 52.593C162.461 52.0842 162.699 51.6771 163.174 51.3718ZM176.336 48.8276H181.153L181.967 51.1004H184.748L180.033 39.0578H177.557L172.977 51.1004H175.555L176.336 48.8276ZM180.406 46.7922H177.048L178.066 43.9088C178.439 42.8911 178.676 41.9752 178.71 41.8395H178.744C178.778 41.9752 179.016 42.8911 179.389 43.9088L180.406 46.7922ZM191.431 42.3144C191.228 42.2126 190.888 42.077 190.244 42.077C189.125 42.077 188.412 42.8233 188.039 43.5017V42.3144H185.63V51.1004H188.039V45.571C188.243 45.1639 188.887 44.248 189.939 44.248C190.447 44.248 190.719 44.3498 190.855 44.4516L191.431 42.3144ZM193.093 44.0784V48.5562C193.093 50.2524 193.806 51.304 195.875 51.304C196.961 51.304 197.707 50.9986 198.08 50.7951L197.537 48.9972C197.368 49.099 196.893 49.3364 196.384 49.3364C195.706 49.3364 195.502 48.9633 195.502 48.0813V44.0784H197.571V42.2805H195.502V39.7363H193.127V42.2805H191.703V44.0784H193.093ZM205 48.4884C205 46.9958 203.983 46.3852 202.592 45.8085C201.574 45.4014 200.794 45.2318 200.794 44.6551C200.794 44.1802 201.167 43.8749 202.015 43.8749C202.863 43.8749 203.542 44.2141 203.881 44.4516L204.729 42.8233C204.322 42.5858 203.406 42.1109 201.913 42.1109C199.912 42.1109 198.623 43.1625 198.623 44.7908C198.623 46.1138 199.369 46.8261 200.59 47.4028C201.846 48.0134 202.795 48.1491 202.795 48.7597C202.795 49.2686 202.287 49.54 201.337 49.54C200.353 49.54 199.505 49.0651 199.166 48.8276L198.351 50.4898C198.894 50.863 199.912 51.304 201.472 51.304C203.711 51.304 205 50.3202 205 48.4884Z" fill="white"/>
<path d="M85.1172 32.409H90.918V31.561H86.1009V20.3665H85.1172V32.409ZM93.1569 21.9947C93.564 21.9947 93.8693 21.6555 93.8693 21.2484C93.8693 20.8414 93.53 20.5361 93.1569 20.5361C92.7837 20.5361 92.4445 20.8414 92.4445 21.2484C92.4445 21.6555 92.7498 21.9947 93.1569 21.9947ZM92.682 32.409H93.6318V23.7927H92.682V32.409ZM98.8559 32.6126C101.502 32.6126 103.13 30.5094 103.13 28.0669C103.13 25.5566 101.943 23.5891 99.4665 23.5891C98.5845 23.5891 97.7365 23.9962 97.1937 24.5729V19.3827H96.2439V31.9341C96.8884 32.3412 97.8382 32.6126 98.8559 32.6126ZM98.8898 31.7984C98.2114 31.7984 97.6008 31.6627 97.1937 31.4592V25.4209C97.6686 24.8782 98.5506 24.4372 99.2969 24.4372C101.4 24.4372 102.112 26.2351 102.112 28.1008C102.146 29.8987 101.095 31.7984 98.8898 31.7984ZM105.301 32.409H106.251V26.4047C106.489 25.8959 107.269 24.505 108.456 24.505C108.829 24.505 109.033 24.5729 109.168 24.6407L109.406 23.7587C109.27 23.6909 108.965 23.623 108.592 23.623C107.371 23.623 106.59 24.6746 106.285 25.3192V23.8266H105.301V32.409ZM112.629 32.6126C113.646 32.6126 114.63 32.1037 115.241 31.3235C115.275 31.6288 115.308 32.1377 115.376 32.409H116.326C116.224 32.0359 116.157 31.4253 116.157 30.679V26.3369C116.157 24.4711 115.173 23.5891 113.409 23.5891C112.289 23.5891 111.339 23.9623 110.593 24.6746L111.102 25.3192C111.814 24.6407 112.527 24.4033 113.341 24.4033C114.63 24.4033 115.241 25.0478 115.241 26.4386V27.4224H114.834C112.832 27.4224 110.288 28.0669 110.288 30.3737C110.22 31.7306 111.204 32.6126 112.629 32.6126ZM112.764 31.7984C112.018 31.7984 111.204 31.2896 111.204 30.3397C111.204 28.7454 112.832 28.1687 114.766 28.1687H115.173V30.4754C114.528 31.3235 113.714 31.7984 112.764 31.7984ZM118.667 32.409H119.617V26.4047C119.854 25.8959 120.634 24.505 121.822 24.505C122.195 24.505 122.398 24.5729 122.534 24.6407L122.771 23.7587C122.636 23.6909 122.33 23.623 121.957 23.623C120.736 23.623 119.956 24.6746 119.651 25.3192V23.8266H118.701V32.409H118.667ZM123.959 36.5476C125.825 36.5476 126.503 35.2585 127.114 33.6303L130.811 23.7587H129.827L127.181 31.1539L124.468 23.7587H123.45L126.673 32.3073L126.232 33.5285C125.723 34.8854 125.214 35.6995 123.959 35.6995C123.62 35.6995 123.484 35.6656 123.348 35.6317L123.212 36.4119C123.382 36.5137 123.586 36.5476 123.959 36.5476ZM136.815 32.409H137.731V24.5389H139.97V23.7927H137.731V22.4357C137.731 20.8753 138.376 20.0611 139.699 20.0611C140.208 20.0611 140.615 20.1968 140.784 20.2986L141.022 19.4845C140.784 19.3827 140.343 19.247 139.699 19.247C137.799 19.247 136.782 20.4343 136.782 22.4018V23.8605H135.289V24.6068H136.782V32.409H136.815ZM144.448 32.6126C147.162 32.6126 148.383 30.238 148.383 28.0669C148.383 25.9298 147.128 23.5891 144.414 23.5891C141.7 23.5891 140.547 25.9298 140.547 28.1008C140.581 30.2719 141.768 32.6126 144.448 32.6126ZM144.482 31.7984C142.548 31.7984 141.565 30.0344 141.565 28.0669C141.565 26.1333 142.447 24.4033 144.414 24.4033C146.382 24.4033 147.399 26.1672 147.399 28.1008C147.399 30.0684 146.45 31.7984 144.482 31.7984ZM150.554 32.409H151.504V26.4047C151.742 25.8959 152.522 24.505 153.709 24.505C154.082 24.505 154.286 24.5729 154.421 24.6407L154.659 23.7587C154.523 23.6909 154.218 23.623 153.845 23.623C152.623 23.623 151.843 24.6746 151.538 25.3192V23.8266H150.588V32.409H150.554ZM162.529 32.6126C163.343 32.6126 163.954 32.2733 164.191 32.1037L163.818 31.3914C163.648 31.527 163.14 31.7984 162.631 31.7984C161.85 31.7984 161.579 31.3235 161.579 30.4415V24.5729H163.784V23.8266H161.579V21.3502H160.629V23.7927H159.171V24.5389H160.629V30.4754C160.629 31.8323 161.24 32.6126 162.529 32.6126ZM166.023 32.409H166.973V26.1333C167.278 25.6584 168.33 24.4372 169.619 24.4372C170.908 24.4372 171.383 25.2174 171.383 26.5065V32.409H172.333V26.3029C172.333 24.7425 171.62 23.5891 169.822 23.5891C168.364 23.5891 167.38 24.5729 166.973 25.1496V19.3827H166.023V32.409ZM178.303 32.6126C179.694 32.6126 180.678 32.1377 181.22 31.7306L180.813 30.9843C180.338 31.3574 179.422 31.7984 178.337 31.7984C176.268 31.7984 175.454 30.0005 175.42 28.033V27.8295H181.356C181.39 27.6598 181.39 27.5242 181.39 27.3545C181.39 25.1496 180.203 23.5891 178.133 23.5891C175.827 23.5891 174.436 25.5906 174.436 27.9991C174.436 30.5094 175.657 32.6126 178.303 32.6126ZM175.487 27.0492C175.725 25.5566 176.607 24.4033 178.099 24.4033C179.728 24.4033 180.406 25.7262 180.44 27.0492H175.487Z" fill="white"/>
<path d="M85.0828 13.7515H85.9987V3.30331L93.2242 13.7515H94.1401V1.70894H93.1903V12.0893L86.0326 1.70894H85.0488V13.7515H85.0828ZM99.7035 13.9211C101.094 13.9211 102.078 13.4462 102.621 13.0391L102.214 12.2928C101.739 12.666 100.823 13.107 99.7374 13.107C97.6681 13.107 96.854 11.3091 96.82 9.34156V9.13802H102.757C102.79 8.96841 102.79 8.83272 102.79 8.6631C102.79 6.45812 101.603 4.89767 99.5339 4.89767C97.2271 4.89767 95.8363 6.89912 95.8363 9.30763C95.8363 11.8179 97.0575 13.9211 99.7035 13.9211ZM96.8879 8.39172C97.1253 6.89911 98.0073 5.74574 99.4999 5.74574C101.128 5.74574 101.807 7.06873 101.841 8.39172H96.8879ZM106.318 13.7515H107.2L109.541 6.49205L111.882 13.7515H112.764L115.376 5.13513H114.426L112.323 12.3268L110.05 5.13513H109.134L106.861 12.2928L104.758 5.13513H103.74L106.318 13.7515ZM123.246 13.7515H124.23V9.20587L128.233 1.70894H127.215L123.789 8.2221H123.755L120.329 1.70894H119.209L123.246 9.20587V13.7515ZM131.116 13.9211C133.83 13.9211 135.051 11.5465 135.051 9.37548C135.051 7.23835 133.796 4.89767 131.082 4.89767C128.368 4.89767 127.215 7.23834 127.215 9.4094C127.215 11.6144 128.402 13.9211 131.116 13.9211ZM131.116 13.107C129.148 13.107 128.199 11.343 128.199 9.37548C128.199 7.44189 129.081 5.71182 131.048 5.71182C133.016 5.71182 134.033 7.4758 134.033 9.4094C134.033 11.3769 133.083 13.107 131.116 13.107ZM136.849 13.7515H137.799V7.74719C138.036 7.23834 138.816 5.84751 140.004 5.84751C140.377 5.84751 140.58 5.91536 140.716 5.98321L140.954 5.10121C140.818 5.03337 140.513 4.96552 140.139 4.96552C138.918 4.96552 138.138 6.01713 137.833 6.66166V5.16906H136.849V13.7515ZM147.636 13.7515H148.824L144.821 8.90056L148.62 5.13513H147.433L143.667 8.90056L147.636 13.7515ZM142.616 13.7515H143.566V0.759098H142.616V13.7515ZM154.828 13.7515H155.812V8.62918H157.338C160.052 8.62918 161.579 7.27227 161.579 5.10121C161.579 2.96408 159.984 1.70894 157.474 1.70894H154.828V13.7515ZM155.812 7.78111V2.55701H157.338C159.645 2.55701 160.527 3.64253 160.527 5.13513C160.527 6.7295 159.577 7.78111 157.304 7.78111H155.812ZM165.649 13.9211C167.108 13.9211 168.092 12.9713 168.499 12.3268C168.499 12.8017 168.567 13.4462 168.635 13.7515H169.584C169.483 13.4123 169.415 12.7678 169.415 12.0893V5.13513H168.465V11.3769C168.16 11.8858 167.108 13.107 165.819 13.107C164.496 13.107 164.055 12.2928 164.055 11.0377V5.13513H163.105V11.2073C163.105 12.7678 163.818 13.9211 165.649 13.9211ZM174.605 13.9211C177.251 13.9211 178.879 11.8179 178.879 9.37548C178.879 6.8652 177.692 4.89767 175.216 4.89767C174.334 4.89767 173.485 5.30475 172.943 5.88143V0.691254H171.993V13.2427C172.603 13.6837 173.553 13.9211 174.605 13.9211ZM174.639 13.107C173.96 13.107 173.35 12.9713 172.977 12.7678V6.76343C173.452 6.22066 174.334 5.77967 175.08 5.77967C177.183 5.77967 177.895 7.57757 177.895 9.44332C177.862 11.2412 176.81 13.107 174.639 13.107ZM180.677 13.7515H181.627V0.759098H180.677V13.7515ZM184.816 3.30331C185.223 3.30331 185.528 2.96408 185.528 2.55701C185.528 2.14993 185.189 1.84463 184.816 1.84463C184.443 1.84463 184.103 2.14993 184.103 2.55701C184.103 2.998 184.443 3.30331 184.816 3.30331ZM184.341 13.7515H185.291V5.13513H184.341V13.7515ZM190.888 13.9211C192.177 13.9211 193.093 13.4462 193.568 13.0391L193.161 12.3268C192.788 12.666 191.939 13.107 190.956 13.107C189.056 13.107 188.208 11.2752 188.208 9.37548C188.208 7.37404 189.09 5.71182 190.99 5.71182C191.939 5.71182 192.584 6.08498 193.093 6.49205L193.568 5.81359C193.093 5.40652 192.279 4.89767 190.99 4.89767C188.785 4.89767 187.19 6.66165 187.19 9.4094C187.19 11.7501 188.411 13.9211 190.888 13.9211Z" fill="white"/>
</svg>
