<svg viewBox="0 0 24 25" fill="none" xmlns="http://www.w3.org/2000/svg">
  <path id="icon/navigation/more_vert_24px" fill-rule="evenodd" clip-rule="evenodd" d="M12 8.1875C13.1 8.1875 14 7.2875 14 6.1875C14 5.0875 13.1 4.1875 12 4.1875C10.9 4.1875 10 5.0875 10 6.1875C10 7.2875 10.9 8.1875 12 8.1875ZM12 10.1875C10.9 10.1875 10 11.0875 10 12.1875C10 13.2875 10.9 14.1875 12 14.1875C13.1 14.1875 14 13.2875 14 12.1875C14 11.0875 13.1 10.1875 12 10.1875ZM10 18.1875C10 17.0875 10.9 16.1875 12 16.1875C13.1 16.1875 14 17.0875 14 18.1875C14 19.2875 13.1 20.1875 12 20.1875C10.9 20.1875 10 19.2875 10 18.1875Z" />
</svg>
