<svg width="364" height="300" viewBox="0 0 364 300" fill="none" xmlns="http://www.w3.org/2000/svg">
<path d="M2.2002 6.17407H7.7002L47.8002 64.2741V6.17407H53.0002V73.3741H47.9002L7.4002 14.8741V73.3741H2.3002V6.17407H2.2002Z" fill="white"/>
<path fill-rule="evenodd" clip-rule="evenodd" d="M84.3006 24.1741C71.5006 24.1741 63.6006 35.2741 63.6006 48.8741C63.6006 62.6741 70.4006 74.4741 85.2006 74.4741C91.0457 74.6 96.7826 72.886 101.601 69.5741L99.4006 65.4741C95.356 68.399 90.4919 69.9737 85.5006 69.9741C73.9006 69.9741 69.3006 59.8741 69.2006 48.8741V47.7741H102.401C103.401 34.0741 96.6006 24.1741 84.3006 24.1741ZM84.1006 28.7741C93.3006 28.7741 97.0006 36.1741 97.1006 43.4741H69.5006C70.9006 35.2741 75.7006 28.7741 84.1006 28.7741Z" fill="white"/>
<path d="M108 25.274H113.7L125.4 65.374L138 25.274H143.1L155.7 65.474L167.5 25.274H172.8L158.3 73.474H153.5L140.5 32.874L127.5 73.474H122.7L108 25.274Z" fill="white"/>
<path d="M219.2 48.0741L196.7 6.17407H203L222.1 42.4741H222.3L241.4 6.17407H247.1L224.7 48.0741V73.3741H219.2V48.0741Z" fill="white"/>
<path fill-rule="evenodd" clip-rule="evenodd" d="M264.1 24.1741C249 24.1741 242.5 37.2741 242.5 49.3741C242.5 61.4741 249 74.4741 264.2 74.4741C279.3 74.4741 286.2 61.2741 286.2 49.1741C286.2 37.1741 279.2 24.1741 264.1 24.1741ZM263.8 28.6741C274.8 28.6741 280.6 38.5741 280.6 49.3741C280.6 60.2741 275.3 69.9741 264.2 69.9741C253.3 69.9741 247.9 60.0741 247.9 49.1741C247.9 38.3741 252.9 28.6741 263.8 28.6741Z" fill="white"/>
<path d="M296.3 25.2741H301.6V33.6741C303.4 30.1741 307.8 24.1741 314.5 24.1741C316.069 24.1623 317.627 24.4333 319.1 24.9741L317.8 29.8741C316.56 29.3816 315.234 29.1436 313.9 29.1741C307.2 29.1741 302.9 37.0741 301.6 39.8741V73.3741H296.3L296.3 25.2741Z" fill="white"/>
<path fill-rule="evenodd" clip-rule="evenodd" d="M334 0.674072H328.8V73.3741H334V0.674072ZM355.6 25.2741L334.5 46.3741L356.7 73.4741H363.3L340.9 46.3741L362.2 25.2741H355.6Z" fill="white"/>
<path fill-rule="evenodd" clip-rule="evenodd" d="M16.9002 107.374H2.3002H2.2002V174.674H7.8002V146.074H16.3002C31.5002 146.074 39.9002 138.474 39.9002 126.374C39.9002 114.374 31.0002 107.374 16.9002 107.374ZM34.3002 126.574C34.3002 135.374 29.0002 141.274 16.2002 141.274V141.374H7.8002V112.174H16.4002C29.3002 112.174 34.3002 118.174 34.3002 126.574Z" fill="white"/>
<path d="M48.4004 160.474V126.474H53.7004V159.374C53.7004 166.474 56.2004 170.974 63.6004 170.974C70.8004 170.974 76.7004 164.174 78.3004 161.374V126.474H83.5004V165.374C83.4473 168.498 83.7493 171.618 84.4004 174.674H79.0004C78.5682 172.062 78.3342 169.421 78.3004 166.774C76.0004 170.374 70.5004 175.774 62.3004 175.774C52.4004 175.674 48.4004 169.074 48.4004 160.474Z" fill="white"/>
<path fill-rule="evenodd" clip-rule="evenodd" d="M96.7002 101.874V172.074C100 174.274 105.4 175.674 111.1 175.574C125.8 175.574 134.9 163.774 134.9 150.274C134.9 136.274 128.2 125.274 114.5 125.274C109.705 125.31 105.14 127.338 101.9 130.874V101.874H96.7002ZM113.6 130.074C125.4 130.074 129.4 140.074 129.4 150.574C129.4 160.574 123.5 171.174 111.3 171.174C108.065 171.24 104.856 170.591 101.9 169.274V135.574C104.925 132.273 109.129 130.297 113.6 130.074Z" fill="white"/>
<path d="M145.7 101.874H151V174.574H145.7V101.874Z" fill="white"/>
<path fill-rule="evenodd" clip-rule="evenodd" d="M167.261 108.71C166.031 109.427 165.282 110.751 165.301 112.174C165.246 113.62 165.987 114.981 167.232 115.72C168.476 116.46 170.025 116.46 171.27 115.72C172.514 114.981 173.255 113.62 173.201 112.174C173.219 110.751 172.47 109.427 171.241 108.71C170.011 107.993 168.49 107.993 167.261 108.71ZM172.001 126.374H166.601V174.574H172.001V126.374Z" fill="white"/>
<path d="M182.101 150.474C182.101 135.274 190.901 125.374 203.301 125.374C210.501 125.374 215.001 128.074 217.601 130.374L214.901 134.174C211.667 131.342 207.498 129.81 203.201 129.874C192.501 129.874 187.701 139.174 187.701 150.274C187.701 160.974 192.401 171.174 203.101 171.174C207.575 171.208 211.922 169.689 215.401 166.874L217.701 170.774C215.101 173.074 210.001 175.674 202.801 175.674C188.901 175.674 182.101 163.374 182.101 150.474Z" fill="white"/>
<path d="M0.799805 275.774V208.574H15.0998V264.274H40.0998V275.774H0.799805Z" fill="white"/>
<path fill-rule="evenodd" clip-rule="evenodd" d="M51.7041 217.841C53.2455 219.363 55.3334 220.204 57.4998 220.174C60.4283 220.282 63.1818 218.781 64.6781 216.262C66.1744 213.742 66.1744 210.606 64.6781 208.086C63.1818 205.567 60.4283 204.066 57.4998 204.174C55.3598 204.117 53.2863 204.921 51.7446 206.406C50.2029 207.891 49.3221 209.933 49.2998 212.074C49.2965 214.241 50.1626 216.318 51.7041 217.841ZM50.7998 226.574V275.774H64.2998V226.574H50.7998Z" fill="white"/>
<path fill-rule="evenodd" clip-rule="evenodd" d="M89.6002 230.474V203.074H76.2002V273.074C78.5002 274.174 85.3002 276.974 96.4002 276.974C111.2 276.974 122.5 267.674 122.5 250.874C122.5 233.974 113.9 225.474 101.6 225.474C97.1096 225.553 92.8181 227.341 89.6002 230.474ZM96.4002 266.474C94.0855 266.524 91.7812 266.151 89.6002 265.374V239.774C91.7659 237.488 94.752 236.157 97.9002 236.074C105.2 236.074 108.3 241.674 108.3 250.874C108.3 260.874 103.9 266.474 96.4002 266.474Z" fill="white"/>
<path d="M160.199 238.374C158.604 237.527 156.802 237.145 154.999 237.274C148.999 237.274 145.499 242.574 144.299 244.774V275.774H130.899V226.574H144.299V233.274C146.399 229.674 150.499 225.374 156.699 225.374C160.299 225.374 162.299 226.074 163.399 226.674L160.199 238.374Z" fill="white"/>
<path fill-rule="evenodd" clip-rule="evenodd" d="M194.999 270.474C195.089 272.263 195.357 274.038 195.799 275.774V275.674H208.999C207.998 270.907 207.528 266.044 207.599 261.174V243.474C207.599 230.374 201.199 225.274 187.799 225.274C177.299 225.274 170.799 229.774 167.899 232.374L173.799 240.574C177.343 237.701 181.739 236.083 186.299 235.974C192.599 235.974 194.299 238.674 194.299 242.874V245.674H192.599C179.599 245.674 166.399 250.374 166.399 263.174C166.399 271.974 172.799 276.974 181.199 276.974C186.528 276.927 191.57 274.553 194.999 270.474ZM192.499 253.974H194.199H194.299V262.874C192.027 265.551 188.711 267.119 185.199 267.174C182.099 267.174 179.199 265.674 179.199 262.074C179.199 256.274 184.599 253.974 192.499 253.974Z" fill="white"/>
<path d="M247.599 238.374C246.036 237.537 244.269 237.155 242.499 237.274C236.499 237.274 232.999 242.574 231.799 244.774V275.774H218.399V226.574H231.799V233.274C233.899 229.674 237.999 225.374 244.199 225.374C247.799 225.374 249.799 226.074 250.899 226.674L247.599 238.374Z" fill="white"/>
<path d="M255.699 226.574H269.999L280.899 258.974H281.399L291.399 226.574H305.199L284.899 280.974C280.599 292.574 275.399 299.374 261.999 299.374C259.436 299.437 256.877 299.133 254.399 298.474L256.299 287.874C257.831 288.283 259.416 288.452 260.999 288.374C267.899 288.374 270.299 285.074 272.199 279.774L273.999 274.774L255.699 226.574Z" fill="white"/>
</svg>
