<svg width="457" height="258" viewBox="0 0 457 258" fill="none" xmlns="http://www.w3.org/2000/svg">
<path d="M229.882 3.45544H233.334L258.507 39.9276V3.45544H261.771V45.6401H258.57L233.146 8.91685V45.6401H229.945V3.45544H229.882Z" fill="black"/>
<path fill-rule="evenodd" clip-rule="evenodd" d="M281.42 14.7549C273.385 14.7549 268.426 21.7229 268.426 30.2602C268.426 38.9232 272.694 46.3306 281.985 46.3306C285.654 46.4097 289.256 45.3336 292.28 43.2546L290.899 40.6808C288.36 42.517 285.307 43.5055 282.173 43.5057C274.892 43.5057 272.004 37.1655 271.941 30.2602V29.5697H292.782C293.41 20.9696 289.141 14.7549 281.42 14.7549ZM281.295 17.6425C287.07 17.6425 289.393 22.2878 289.455 26.8704H272.13C273.008 21.7228 276.022 17.6425 281.295 17.6425Z" fill="black"/>
<path d="M296.298 15.4454H299.876L307.221 40.618L315.13 15.4454H318.332L326.241 40.6808L333.649 15.4454H336.976L327.874 45.7028H324.86L316.7 20.2163L308.539 45.7028H305.526L296.298 15.4454Z" fill="black"/>
<path d="M366.103 29.7581L351.979 3.45544H355.933L367.923 26.2427H368.049L380.039 3.45544H383.617L369.555 29.7581V45.6401H366.103V29.7581Z" fill="black"/>
<path fill-rule="evenodd" clip-rule="evenodd" d="M394.289 14.7549C384.81 14.7549 380.729 22.9784 380.729 30.5741C380.729 38.1699 384.81 46.3306 394.352 46.3306C403.831 46.3306 408.162 38.0443 408.162 30.4486C408.162 22.9156 403.768 14.7549 394.289 14.7549ZM394.101 17.5797C401.006 17.5797 404.647 23.7944 404.647 30.5741C404.647 37.4165 401.32 43.5057 394.352 43.5057C387.509 43.5057 384.119 37.291 384.119 30.4485C384.119 23.6689 387.258 17.5797 394.101 17.5797Z" fill="black"/>
<path d="M414.502 15.4454H417.829V20.7185C418.959 18.5214 421.721 14.7549 425.927 14.7549C426.912 14.7475 427.89 14.9176 428.815 15.2571L427.999 18.333C427.22 18.0239 426.388 17.8745 425.55 17.8936C421.344 17.8936 418.645 22.8528 417.829 24.6105V45.64H414.502L414.502 15.4454Z" fill="black"/>
<path fill-rule="evenodd" clip-rule="evenodd" d="M438.169 0.00280762H434.904V45.64H438.169V0.00280762ZM451.728 15.4454L438.482 28.6908L452.418 45.7028H456.562L442.5 28.6908L455.871 15.4454H451.728Z" fill="black"/>
<path fill-rule="evenodd" clip-rule="evenodd" d="M239.11 66.9834H229.945H229.882V109.231H233.397V91.2772H238.733C248.275 91.2772 253.548 86.5063 253.548 78.9106C253.548 71.3776 247.961 66.9834 239.11 66.9834ZM250.033 79.0362C250.033 84.5604 246.705 88.2641 238.67 88.2641V88.3268H233.397V69.9966H238.796C246.894 69.9966 250.033 73.7631 250.033 79.0362Z" fill="black"/>
<path d="M258.884 100.317V78.9734H262.211V99.6263C262.211 104.083 263.78 106.908 268.426 106.908C272.945 106.908 276.649 102.64 277.653 100.882V78.9734H280.918V103.393C280.884 105.354 281.074 107.313 281.483 109.231H278.093C277.822 107.591 277.675 105.933 277.653 104.272C276.21 106.532 272.757 109.921 267.609 109.921C261.395 109.859 258.884 105.715 258.884 100.317Z" fill="black"/>
<path fill-rule="evenodd" clip-rule="evenodd" d="M289.204 63.5308V107.599C291.276 108.98 294.666 109.859 298.244 109.796C307.472 109.796 313.184 102.388 313.184 93.9138C313.184 85.1253 308.978 78.2201 300.378 78.2201C297.368 78.2424 294.502 79.5159 292.468 81.7355V63.5308H289.204ZM299.813 81.2333C307.22 81.2333 309.731 87.5108 309.731 94.1021C309.731 100.38 306.028 107.034 298.369 107.034C296.338 107.075 294.324 106.668 292.468 105.841V84.6859C294.367 82.6138 297.006 81.3733 299.813 81.2333Z" fill="black"/>
<path d="M319.964 63.5308H323.291V109.168H319.964V63.5308Z" fill="black"/>
<path fill-rule="evenodd" clip-rule="evenodd" d="M333.498 67.8224C332.726 68.2725 332.256 69.1031 332.267 69.9967C332.233 70.9047 332.698 71.7587 333.48 72.2228C334.261 72.6869 335.233 72.6869 336.014 72.2228C336.796 71.7587 337.261 70.9047 337.227 69.9967C337.238 69.1031 336.768 68.2725 335.996 67.8224C335.224 67.3723 334.27 67.3723 333.498 67.8224ZM336.473 78.9107H333.083V109.168H336.473V78.9107Z" fill="black"/>
<path d="M342.813 94.0393C342.813 84.4975 348.338 78.2828 356.122 78.2828C360.641 78.2828 363.466 79.9778 365.099 81.4216L363.404 83.807C361.374 82.0294 358.757 81.0676 356.059 81.1077C349.342 81.1077 346.329 86.9457 346.329 93.9137C346.329 100.631 349.279 107.034 355.996 107.034C358.805 107.055 361.534 106.101 363.717 104.334L365.161 106.783C363.529 108.226 360.328 109.859 355.808 109.859C347.082 109.859 342.813 102.137 342.813 94.0393Z" fill="black"/>
<path d="M229.003 172.696V130.511H237.98V165.477H253.673V172.696H229.003Z" fill="black"/>
<path fill-rule="evenodd" clip-rule="evenodd" d="M260.958 136.329C261.925 137.284 263.236 137.812 264.596 137.793C266.434 137.861 268.163 136.919 269.102 135.337C270.041 133.756 270.041 131.787 269.102 130.205C268.163 128.624 266.434 127.682 264.596 127.749C263.252 127.713 261.951 128.218 260.983 129.15C260.015 130.083 259.462 131.365 259.448 132.709C259.446 134.069 259.99 135.373 260.958 136.329ZM260.39 141.811V172.696H268.864V141.811H260.39Z" fill="black"/>
<path fill-rule="evenodd" clip-rule="evenodd" d="M284.747 144.259V127.059H276.335V171.001C277.779 171.692 282.047 173.449 289.015 173.449C298.306 173.449 305.4 167.611 305.4 157.065C305.4 146.456 300.001 141.12 292.28 141.12C289.461 141.17 286.767 142.292 284.747 144.259ZM289.015 166.858C287.562 166.889 286.116 166.655 284.747 166.168V150.097C286.106 148.662 287.981 147.826 289.957 147.775C294.54 147.775 296.486 151.29 296.486 157.065C296.486 163.343 293.724 166.858 289.015 166.858Z" fill="black"/>
<path d="M329.066 149.218C328.064 148.686 326.933 148.447 325.802 148.528C322.035 148.528 319.838 151.855 319.085 153.236V172.696H310.673V141.811H319.085V146.017C320.403 143.757 322.977 141.058 326.869 141.058C329.129 141.058 330.384 141.497 331.075 141.874L329.066 149.218Z" fill="black"/>
<path fill-rule="evenodd" clip-rule="evenodd" d="M350.912 169.369C350.968 170.492 351.136 171.607 351.414 172.696V172.633H359.7C359.071 169.641 358.776 166.588 358.821 163.531V152.42C358.821 144.196 354.804 140.995 346.392 140.995C339.8 140.995 335.72 143.82 333.9 145.452L337.603 150.599C339.828 148.796 342.587 147.78 345.45 147.712C349.405 147.712 350.472 149.407 350.472 152.043V153.801H349.405C341.244 153.801 332.958 156.751 332.958 164.786C332.958 170.311 336.976 173.449 342.249 173.449C345.594 173.42 348.759 171.929 350.912 169.369ZM349.342 159.011H350.409H350.472V164.598C349.046 166.279 346.964 167.263 344.76 167.297C342.814 167.297 340.993 166.356 340.993 164.096C340.993 160.455 344.383 159.011 349.342 159.011Z" fill="black"/>
<path d="M383.931 149.218C382.949 148.693 381.84 148.453 380.729 148.528C376.963 148.528 374.766 151.855 374.012 153.236V172.696H365.601V141.811H374.012V146.017C375.331 143.757 377.904 141.058 381.796 141.058C384.056 141.058 385.312 141.497 386.002 141.874L383.931 149.218Z" fill="black"/>
<path d="M389.015 141.811H397.992L404.835 162.15H405.148L411.426 141.811H420.089L407.346 175.96C404.646 183.242 401.382 187.511 392.97 187.511C391.361 187.55 389.755 187.36 388.199 186.946L389.392 180.292C390.353 180.548 391.349 180.654 392.342 180.606C396.674 180.606 398.18 178.534 399.373 175.207L400.503 172.068L389.015 141.811Z" fill="black"/>
<path d="M115.694 123.418C114.438 121.033 110.797 120.468 106.968 120.656C104.927 120.71 102.902 121.026 100.942 121.598C98.8074 122.225 95.9198 123.669 97.1753 126.619C97.9914 128.628 100.879 129.444 102.951 130.135C105.336 130.951 107.973 131.579 109.793 132.646C110.86 133.274 111.99 134.906 113.497 134.717C115.003 134.529 115.945 131.516 116.259 130.009C116.698 127.687 116.51 124.862 115.694 123.418Z" fill="black"/>
<path fill-rule="evenodd" clip-rule="evenodd" d="M98.18 60.8943C44.7587 60.8943 1.25586 104.334 1.25586 158.321C1.25586 212.307 45.0726 255.81 98.2428 255.81C152.229 255.81 195.983 212.37 195.983 158.383C195.92 104.334 152.166 60.8943 98.18 60.8943ZM41.3061 226.682C39.8541 225.449 38.6412 223.96 37.7279 222.288C29.4417 209.043 24.7963 162.213 35.4681 146.331C38.8579 140.744 42.436 143.318 41.2433 147.649C39.1718 157.316 40.4273 162.715 45.1354 173.198C50.3701 184.2 63.2856 198.243 72.5386 208.303L72.5389 208.304C76.3793 212.479 79.5888 215.969 81.3564 218.271C91.7142 231.704 95.1668 241.497 95.104 244.134C95.0413 246.143 94.6646 247.461 91.0865 247.147C72.4424 245.703 54.3005 237.919 41.3061 226.682ZM184.104 182.472L184.181 182.238C199.812 129.444 160.955 67.2345 93.4719 69.6827C89.2033 69.9338 85.6879 71.2521 88.8266 73.7003C98.4311 81.1077 103.579 90.7123 105.399 99.438C105.525 100.191 105.901 100.631 106.906 100.945C111.3 102.137 122.411 106.532 125.864 109.168C127.232 110.213 128.59 111.612 129.997 113.062C132.141 115.271 134.398 117.596 136.975 118.961C141.894 121.563 146.734 123.691 151.427 125.754C153.98 126.876 156.49 127.98 158.946 129.13C162.022 130.511 167.672 134.278 167.295 138.735C167.237 139.436 167.069 140.111 166.907 140.764C166.721 141.514 166.542 142.236 166.542 142.941C166.542 143.754 166.876 144.662 167.191 145.518C167.387 146.051 167.575 146.564 167.672 147.021C168.314 150.074 168.484 153.208 168.174 156.312C167.734 159.639 166.667 164.912 164.784 167.988C164.59 168.287 164.377 168.567 164.166 168.843C163.625 169.552 163.099 170.241 162.964 171.189C162.771 172.438 162.434 173.66 161.959 174.83C161.771 175.144 161.771 175.709 162.147 175.772C169.555 178.534 177.276 183.493 180.729 186.067C182.487 187.34 183.367 184.691 184.104 182.472ZM156.749 152.357C156.686 152.043 156.561 150.85 156.561 150.599C156.561 150.081 157.417 149.434 158.068 148.942C158.206 148.838 158.334 148.741 158.444 148.653C159.253 147.98 160.114 147.372 161.018 146.833C161.218 146.732 161.339 146.913 161.411 147.022C161.429 147.049 161.444 147.071 161.457 147.084C163.968 150.85 163.026 160.204 161.206 164.661C161.018 165.1 160.641 165.289 160.453 164.975C159.511 162.966 158.193 161.146 156.623 160.204C156.416 160.009 156.301 159.735 156.309 159.451C156.936 157.14 157.085 154.727 156.749 152.357ZM98.745 107.348C87.6339 104.648 78.3432 108.164 75.1417 110.737C69.1153 115.508 64.4072 123.23 66.2905 134.215C67.0438 138.923 68.4876 142.878 70.8103 146.142C77.2269 155.247 87.5662 160.13 97.8988 165.009L97.8989 165.009C102.527 167.195 107.153 169.38 111.426 171.943C111.622 172.102 111.876 172.172 112.126 172.136C112.376 172.1 112.6 171.962 112.744 171.754L112.767 171.721C115.079 168.346 116.963 165.597 120.842 163.97C124.344 162.525 129.669 162.803 134.591 163.06C135.227 163.093 135.855 163.126 136.473 163.154C142.06 163.405 148.086 162.903 150.095 160.016C152.543 156.563 152.417 149.658 148.714 147.523C147.645 146.922 146.31 146.623 144.973 146.324C143.797 146.06 142.619 145.796 141.62 145.326C140.051 144.636 138.858 143.255 137.979 141.372C137.289 139.802 136.598 137.228 137.54 135.533C138.342 133.991 140.477 134.45 142.219 134.823L142.311 134.843C145.763 135.659 151.601 136.475 154.928 135.031C155.87 134.529 152.355 132.144 151.036 131.516C147.938 129.981 144.395 128.808 140.859 127.636C136.873 126.315 132.894 124.996 129.567 123.167C127.341 121.927 125.354 120.332 123.358 118.729C120.909 116.763 118.446 114.786 115.506 113.437C110.098 110.945 104.491 108.908 98.745 107.348ZM53.61 85.8786C50.9107 85.5648 50.8479 83.556 51.9778 82.8027C55.9463 80.1953 60.1749 78.0074 64.5956 76.2741C65.6824 75.7319 66.909 75.5348 68.1109 75.7091C71.6891 76.0858 77.5899 78.4712 84.3696 83.3049C92.4675 89.0801 99.7494 100.128 94.9158 99.2496C93.1521 98.902 91.3709 98.6505 89.5799 98.4964C87.5037 98.3174 85.8153 98.3629 84.4333 98.4002C83.3917 98.4283 82.5242 98.4517 81.7958 98.3708C81.0961 98.2424 80.4571 97.8899 79.9754 97.3664C73.1329 91.2145 65.2233 87.3225 53.61 85.8786ZM128.312 172.131C127.146 172.864 126.296 174.006 125.926 175.333C125.887 175.463 125.827 175.644 125.756 175.855C125.487 176.661 125.074 177.898 125.173 178.346C125.27 178.881 126.009 179.643 126.57 180.221C126.733 180.389 126.881 180.542 126.994 180.668C128.231 182.144 129.552 183.548 130.948 184.874C131.634 185.587 132.416 186.199 133.271 186.695C134.141 187.13 135.345 187.23 136.655 187.339C137.047 187.371 137.449 187.405 137.854 187.448L137.904 187.453C142.724 187.954 148.033 188.506 150.722 185.753C151.036 185.439 151.162 184.498 151.225 183.87C151.522 181.939 152.48 180.444 153.439 178.945C154.508 177.277 155.579 175.605 155.744 173.324C155.851 172.047 155.68 170.762 155.242 169.557C154.929 168.47 154.179 167.561 153.171 167.046C151.422 166.31 150.145 167.193 148.995 167.989C148.576 168.279 148.174 168.557 147.772 168.741C145.433 169.852 142.005 170.092 138.705 170.322C138.462 170.339 138.22 170.356 137.979 170.373C137.552 170.403 137.123 170.43 136.695 170.457C133.475 170.658 130.307 170.857 128.312 172.131ZM33.0827 98.3708C33.6385 97.7489 34.3554 97.2927 35.1542 97.0526C46.4881 94.3053 58.408 95.3188 69.1153 99.9402C71.1241 100.819 72.0658 102.075 70.7475 102.953C69.0526 103.958 63.9678 107.285 61.143 109.921C60.3269 110.612 58.8831 110.675 58.0042 110.549L57.6503 110.503C47.3325 109.151 41.756 108.42 26.1147 114.378C23.6664 115.383 21.4693 114.002 22.5993 112.118C24.6708 108.289 29.5673 101.949 33.0827 98.3708ZM12.0531 138.547C11.5138 139.209 11.1858 140.018 11.1115 140.869C7.09392 160.392 10.2954 176.714 14.1247 187.134C15.0035 189.394 18.5189 188.515 18.3934 183.682C18.4166 182.807 18.4254 181.838 18.435 180.786C18.554 167.651 18.7904 141.566 48.8391 123.606C50.6596 122.539 52.229 121.472 51.4757 119.589C51.0362 118.521 49.0902 118.333 46.4537 118.71C26.1774 122.288 13.1203 136.914 12.0531 138.547ZM52.0406 163.531C46.3281 149.595 50.0318 137.103 52.6055 132.332C53.861 129.946 55.1165 128.377 56.7487 128.817C58.5064 129.319 58.9458 131.139 59.1969 134.466C61.0174 162.275 77.841 171.629 98.9333 181.485C115.631 190.022 134.589 199.752 150.471 223.355C152.857 226.745 153.233 228.817 150.534 230.763C140.867 237.354 132.078 241.999 119.21 245.013C117.264 245.452 115.255 245.138 113.56 240.681C103.84 215.717 90.5449 204.927 78.2435 194.943C67.9016 186.55 58.2622 178.727 52.0406 163.531ZM157.377 218.961C158.255 220.656 159.825 222.79 162.524 220.091C167.169 215.508 173.761 206.657 175.958 202.389C176.009 202.278 176.066 202.165 176.124 202.05C176.496 201.31 176.932 200.444 176.335 199.25C175.267 197.053 169.304 190.336 165.286 187.26L165.238 187.223C163.673 186.034 161.562 184.429 159.574 183.87C159.065 183.718 158.534 183.655 158.004 183.682C156.527 183.852 156.335 184.537 155.753 186.622C155.693 186.84 155.627 187.073 155.556 187.323C154.489 190.964 152.417 193.537 150.597 194.291C148.914 195.079 147.045 195.384 145.198 195.169C143.629 195.044 142.813 196.488 143.88 197.555C149.844 204.083 153.547 210.863 157.377 218.961Z" fill="black"/>
<path d="M103.014 130.135C105.399 130.951 108.036 131.579 109.856 132.646C110.924 133.274 112.054 134.906 113.56 134.717C115.067 134.529 116.008 131.516 116.322 130.009C116.762 127.749 116.511 124.925 115.757 123.481C114.502 121.095 110.861 120.53 107.032 120.719C104.991 120.773 102.965 121.089 101.005 121.66C98.8709 122.288 95.9833 123.732 97.2388 126.682C98.0548 128.565 100.942 129.444 103.014 130.135Z" fill="black"/>
</svg>
