<svg width="48" height="49" viewBox="0 0 48 49" fill="none" xmlns="http://www.w3.org/2000/svg">
<mask id="mask0" mask-type="alpha" maskUnits="userSpaceOnUse" x="0" y="0" width="48" height="49">
<path fill-rule="evenodd" clip-rule="evenodd" d="M0 0.00280762H48V48.0028H0V0.00280762Z" fill="white"/>
</mask>
<g mask="url(#mask0)">
<path fill-rule="evenodd" clip-rule="evenodd" d="M39.7647 39.2216C39.0951 39.8904 38.7153 39.3661 38.4965 38.9366C37.5587 36.9441 36.6427 35.2764 35.1656 33.6611C34.9097 33.4019 35.1068 33.0379 35.483 33.075C35.9638 33.1135 36.2789 33.0872 36.8079 32.8601C37.2552 32.668 37.7679 32.0412 38.0236 31.1407C38.2099 30.4839 38.2186 30.2906 38.6214 30.2496C38.7215 30.2402 38.9048 30.2654 39.0159 30.2974C39.5061 30.4369 40.0326 30.8371 40.4173 31.1319C41.404 31.885 42.876 33.5473 43.1337 34.0852C43.2972 34.4276 43.1406 34.66 43.0484 34.8555C42.5322 35.9104 40.9038 38.0961 39.7647 39.2216ZM12.5249 25.2954C11.1171 21.8687 12.0363 18.7831 12.6581 17.6127C12.9717 17.0221 13.2781 16.6363 13.6783 16.7474C14.1136 16.8687 14.2142 17.3139 14.2742 18.1393C14.7173 24.9892 18.8637 27.2955 24.0719 29.7138C28.1809 31.8128 32.8558 34.2122 36.7738 40.0248C37.3668 40.864 37.4524 41.3732 36.7828 41.8538C34.394 43.4833 32.2301 44.6192 29.064 45.3568C28.5874 45.4683 28.0958 45.3846 27.6736 44.2965C23.2752 32.9728 15.8906 33.4831 12.5249 25.2954ZM2.43905 19.7096C2.48841 19.4318 2.50992 19.3544 2.67737 19.1359C2.94277 18.7396 6.16208 15.1298 11.1522 14.2552C11.8087 14.1613 12.2819 14.2066 12.3895 14.4696C12.5781 14.9307 12.196 15.1966 11.7363 15.4624C3.73309 20.2417 4.30041 27.3467 4.22381 30.2532C4.24795 31.442 3.38861 31.6584 3.17412 31.0984C2.23493 28.5383 1.44507 24.5255 2.43905 19.7096ZM7.85028 9.23848C8.01416 9.06467 8.12109 8.98488 8.36436 8.91638C11.4381 8.15359 14.5213 8.63928 16.7417 9.62861C17.2402 9.84912 17.4647 10.1616 17.1374 10.3713C16.7211 10.613 15.4596 11.4328 14.7623 12.0821C14.5596 12.2567 14.1982 12.2658 13.985 12.2376C11.382 11.8947 10.0301 11.6922 6.11705 13.1743C5.51661 13.4267 4.97668 13.0834 5.25291 12.6119C5.77396 11.6793 6.98552 10.1196 7.85028 9.23848ZM30.7484 28.1987C30.8807 27.8171 31.0346 27.5923 31.3315 27.4065C31.8903 27.0565 32.8189 27.0413 33.7153 26.9801C34.5837 26.9215 35.5116 26.8707 36.1296 26.5855C36.5034 26.4137 36.8775 25.9242 37.4553 26.1735C37.7289 26.2913 37.8778 26.5418 37.9595 26.791C38.0511 27.0685 38.1178 27.3487 38.0893 27.7209C38.0062 28.7947 37.1334 29.319 36.9764 30.3227C36.9618 30.4778 36.9354 30.7024 36.8462 30.7916C36.1799 31.4693 34.862 31.3268 33.6705 31.2069C33.244 31.1646 32.8225 31.153 32.534 31.0156C32.3259 30.9182 32.1391 30.72 31.9661 30.5596C31.5849 30.2066 31.3694 29.9468 30.9873 29.5187C30.8576 29.3736 30.5639 29.111 30.5445 28.9516C30.5281 28.7987 30.6919 28.3597 30.7484 28.1987ZM12.9077 6.17011C12.2347 6.09342 12.2253 5.60169 12.5097 5.4101C13.2409 4.89812 14.4274 4.28006 15.6209 3.80719C15.9782 3.66586 16.1626 3.6289 16.4899 3.66184C17.3694 3.74983 18.8258 4.34144 20.4968 5.53272C22.5008 6.96152 24.2836 9.67591 23.0914 9.45618C22.3373 9.32567 22.6656 9.3617 21.7817 9.26475C20.8786 9.18465 20.2859 9.27727 19.8696 9.2349C19.6882 9.22021 19.5454 9.09945 19.4177 8.99507C17.7263 7.47953 15.7724 6.51772 12.9077 6.17011ZM18.2219 12.288C19.0164 11.6597 21.3071 10.7868 24.0341 11.4571C24.8056 11.6472 26.8237 12.3065 28.1645 12.9626C29.4788 13.5648 30.4152 14.6826 31.6365 15.3593C33.1791 16.2153 35.299 16.6152 36.9313 17.4134C37.2597 17.5737 38.1277 18.1544 37.8849 18.2784C37.0609 18.6396 35.6296 18.4313 34.773 18.2348C34.3408 18.1344 33.8027 18.0257 33.5893 18.4095C33.3575 18.8259 33.5237 19.4642 33.7026 19.853C33.9158 20.3177 34.214 20.6518 34.6008 20.8304C35.1308 21.0746 35.8574 21.0874 36.3447 21.3681C37.2529 21.8893 37.2876 23.5955 36.6926 24.4423C36.1946 25.1516 34.7123 25.2804 33.3392 25.2142C32.0101 25.1496 30.4684 25.0107 29.4888 25.4194C28.524 25.8204 28.0583 26.498 27.4854 27.3398C27.4087 27.4441 27.2831 27.466 27.1629 27.3842C23.7523 25.3362 19.4471 24.2815 17.1469 21.0353C16.58 20.2343 16.2233 19.2603 16.0317 18.1024C15.5795 15.3633 16.7385 13.4593 18.2219 12.288ZM38.3422 22.5327C38.3303 22.448 38.2938 22.1611 38.2941 22.1019C38.295 21.9505 38.6064 21.7446 38.7515 21.6294C38.9718 21.4542 39.2266 21.2618 39.3936 21.1777C39.454 21.1398 39.494 21.2275 39.5022 21.2448C40.1163 22.1761 39.886 24.4781 39.4424 25.5728C39.391 25.6841 39.297 25.7274 39.2588 25.6459C39.0324 25.152 38.6964 24.7074 38.3107 24.4634C38.2395 24.4082 38.2341 24.2932 38.2395 24.2719C38.3636 23.7517 38.4281 23.1747 38.3422 22.5327ZM45.1057 29.8947C44.9252 30.4574 44.7109 31.1631 44.2516 30.8358C43.3983 30.2013 41.5016 28.9816 39.6649 28.3046C39.5663 28.2825 39.5774 28.1458 39.6123 28.0687C39.7424 27.7803 39.8007 27.5138 39.8571 27.1727C39.9094 26.8536 40.1398 26.6403 40.2983 26.3844C40.769 25.6331 41.0241 24.3233 41.1268 23.5063C41.2048 22.7555 41.1584 21.919 40.9956 21.2217C40.9261 20.9239 40.7112 20.54 40.7169 20.2106C40.7224 19.8884 40.8741 19.5508 40.9052 19.1704C40.9961 18.0697 39.6059 17.1522 38.8472 16.7984C37.126 15.9954 35.2967 15.2773 33.4376 14.2972C32.3883 13.7441 31.5461 12.5307 30.7041 11.8795C29.8536 11.2239 27.12 10.1404 26.0275 9.85218C25.7808 9.77455 25.6934 9.67203 25.6516 9.47581C25.2013 7.32829 23.9328 4.96243 21.5633 3.13299C20.7961 2.53719 21.6565 2.19824 22.7131 2.14675C39.3701 1.57632 48.9554 16.8933 45.1057 29.8947ZM9.88343 40.8538C9.4461 40.4958 9.25792 40.1938 9.00644 39.7698C6.9665 36.5116 5.82304 24.9728 8.45197 21.0591C9.2884 19.6877 10.1747 20.32 9.88018 21.38C9.37677 23.7594 9.68534 25.0928 10.8432 27.6747C12.6631 31.5116 18.28 36.8388 19.767 38.7709C22.3161 42.0843 23.1644 44.4984 23.1528 45.1488C23.139 45.6476 23.0433 45.9657 22.1683 45.8918C17.553 45.5264 13.0911 43.6144 9.88343 40.8538ZM23.8962 0.00280762C10.729 0.00280762 0 10.7008 0 24.0045C0 37.3077 10.7943 48.0121 23.9111 48.0121C37.2252 48.0121 48 37.3133 48 24.0099C48 10.7058 37.2097 0.00280762 23.8962 0.00280762Z" fill="black"/>
</g>
<path fill-rule="evenodd" clip-rule="evenodd" d="M25.0495 16.998C25.6428 17.1942 26.2847 17.3598 26.7388 17.613C27.0079 17.7636 27.2782 18.1656 27.6536 18.1177C28.026 18.0698 28.2587 17.3325 28.3322 16.9507C28.4382 16.4004 28.3804 15.6969 28.1906 15.3424C27.8762 14.7537 26.9812 14.6196 26.0441 14.6646C25.407 14.6943 25.0495 14.7507 24.5606 14.9007C24.0419 15.0603 23.3215 15.4041 23.6298 16.1307C23.8356 16.6187 24.5374 16.8285 25.0495 16.998Z" fill="black"/>
</svg>
