<svg width="320" height="174" viewBox="0 0 320 174" fill="none" xmlns="http://www.w3.org/2000/svg">
<g clip-path="url(#clip0)">
<path d="M33.0916 19.8049L0 38.936L0.0574506 77.4566L0.143627 115.977L49.5512 144.53C76.7253 160.214 99.1023 173.141 99.3034 173.198C99.5907 173.342 131.734 155.044 132.625 154.239C132.912 153.981 129.092 151.654 116.625 144.473C107.605 139.274 100.251 134.936 100.251 134.85C100.251 134.764 107.634 130.426 116.625 125.227L132.998 115.805V77.3992V39.0222L99.9354 19.9198C81.7235 9.40637 66.7002 0.788788 66.5278 0.760056C66.3555 0.702606 51.3034 9.29147 33.0916 19.8049ZM82.6427 48.6739C91.4614 53.7583 98.8438 58.0671 99.0449 58.2394C99.3034 58.4979 99.3896 66.3974 99.3321 96.5015L99.246 134.448L83.1598 125.141C74.3124 119.999 66.9013 115.748 66.7289 115.661C66.5278 115.575 59.0305 119.74 50.0682 124.911C41.0772 130.081 33.6661 134.39 33.5224 134.448C33.4075 134.505 33.3501 117.414 33.3788 96.4728L33.465 58.3543L49.8384 48.9037C58.8582 43.7044 66.298 39.4531 66.4129 39.4531C66.5278 39.4531 73.8528 43.6182 82.6427 48.6739Z" fill="black"/>
<path d="M175.253 20.0635C172.927 20.7242 171.088 21.8445 169.336 23.6829C162.672 30.6632 165.889 42.3831 175.081 44.7673C177.235 45.3131 180.079 45.3131 182.176 44.7673L183.813 44.3364L186.571 45.9163C190.076 47.8984 190.19 47.9271 191.541 47.2377C193.781 46.0887 193.494 45.3705 190.018 43.4172L187.347 41.9235L188.323 40.7745C192.058 36.4082 192.23 29.4567 188.726 24.7745C187.347 22.9361 185.164 21.2987 183.038 20.4944C180.883 19.6614 177.35 19.489 175.253 20.0635ZM182.521 24.0564C183.411 24.4872 184.675 25.4639 185.393 26.2682C189.587 30.9217 188.266 37.8445 182.607 40.8032C181.314 41.4926 180.797 41.6075 178.528 41.6075C176.287 41.6075 175.742 41.4926 174.506 40.8319C170.37 38.6488 168.33 34.024 169.652 29.8014C171.375 24.2862 177.436 21.586 182.521 24.0564Z" fill="black"/>
<path d="M274.355 20.0349C274.125 20.2934 274.068 23.8553 274.097 32.5878L274.183 44.7674L275.504 44.8535C276.366 44.911 276.94 44.7961 277.142 44.5376C277.371 44.279 277.515 41.4927 277.544 35.5753L277.63 26.9864L284.897 36.0923C291.82 44.7386 292.251 45.1982 293.142 45.1982C293.745 45.1982 294.147 45.0259 294.262 44.7386C294.52 44.0492 294.463 20.9828 294.176 20.5519C294.032 20.2934 293.458 20.2072 292.538 20.2647L291.131 20.3508L290.987 29.1408L290.844 37.9595L283.519 28.7961C277.285 20.9828 276.079 19.6327 275.447 19.6327C275.016 19.6327 274.528 19.8051 274.355 20.0349Z" fill="black"/>
<path d="M308.021 19.9198C304.603 20.6092 302.19 23.2807 302.19 26.4405C302.19 29.4279 303.942 31.7259 307.504 33.392C311.44 35.2304 312.072 35.5751 312.991 36.4656C314.829 38.1891 314.485 40.4297 312.158 41.4638C310.09 42.4117 308.423 42.0958 305.494 40.1424C303.713 38.9647 303.425 38.9934 302.391 40.3722C301.644 41.3776 301.932 42.1245 303.511 43.216C306.556 45.2843 310.98 45.8588 313.824 44.5087C318.161 42.4979 319.31 37.7582 316.323 34.2825C315.576 33.392 314.37 32.6451 311.21 31.094C306.671 28.8821 305.924 28.2214 305.924 26.2968C305.924 25.3776 306.125 24.9467 306.786 24.2573C308.28 22.7923 310.377 22.7062 313.249 24.0563C314.082 24.4584 314.973 24.8031 315.231 24.8031C315.835 24.8031 316.926 22.936 316.696 22.2466C316.467 21.471 313.881 20.2645 311.784 19.9198C309.888 19.6038 309.687 19.6038 308.021 19.9198Z" fill="black"/>
<path d="M198.98 20.3794C198.865 20.4943 198.779 24.5159 198.779 29.2843C198.779 37.4136 198.808 38.103 199.383 39.5967C200.187 41.7511 202.226 43.7906 204.438 44.6236C206.794 45.5141 210.614 45.3417 212.74 44.2789C214.463 43.3884 216.129 41.6075 216.991 39.769C217.566 38.5051 217.594 38.0455 217.594 29.3992V20.3507L216.216 20.2645C215.44 20.2071 214.636 20.322 214.406 20.5231C214.09 20.7816 214.004 22.304 214.004 29.0832C214.004 37.0689 213.975 37.3561 213.372 38.5913C212.998 39.2807 212.223 40.2286 211.62 40.717C210.7 41.4638 210.212 41.6074 208.603 41.6936C206.076 41.8373 204.467 41.0329 203.232 39.0222L202.37 37.6434L202.226 28.997L202.083 20.3507L200.646 20.2645C199.842 20.2071 199.095 20.2645 198.98 20.3794Z" fill="black"/>
<path d="M226.987 20.5516C226.47 21.0687 226.499 43.7329 227.016 44.4223C227.332 44.882 228.05 44.9107 234.829 44.8532L242.298 44.7671V43.3308V41.8945L236.351 41.8083L230.377 41.7509V37.873V33.9951L235.49 33.9376L240.574 33.8514V32.4152V30.9789L235.49 30.8927L230.377 30.8353V27.101V23.3667L236.351 23.3092L242.298 23.2231V21.7868V20.3505L234.829 20.2644C229.256 20.2069 227.246 20.2931 226.987 20.5516Z" fill="black"/>
<path d="M250.628 20.5519C250.542 20.753 250.513 26.297 250.542 32.8463L250.628 44.7673H258.24H265.853V43.3311V41.8948L259.906 41.8086L253.932 41.7512V37.8733V33.9953L259.045 33.9379L264.129 33.8517V32.4154V30.9792L259.045 30.893L253.932 30.8356V27.1013V23.367L259.906 23.3095L265.853 23.2233V21.7871V20.3508L258.298 20.2646C252.409 20.2072 250.714 20.2646 250.628 20.5519Z" fill="black"/>
<path d="M285.96 74.4979C281.652 75.1873 278.176 77.83 276.251 81.909C275.389 83.7187 275.332 84.006 275.332 87.1658C275.332 90.4117 275.361 90.5266 276.395 92.6236C277.716 95.295 279.899 97.4494 282.571 98.7134C284.438 99.5751 284.697 99.6326 287.971 99.6326C291.275 99.6326 291.504 99.6038 293.285 98.7134C295.382 97.6792 297.02 96.3004 297.02 95.611C297.02 94.9503 295.612 93.7439 294.865 93.7439C294.521 93.7439 293.889 94.0024 293.486 94.3184C293.084 94.6344 292.021 95.2376 291.102 95.6685C287.942 97.1047 283.72 96.1281 281.336 93.3417C279.583 91.3022 279.066 89.866 279.066 87.1371C279.066 84.2645 279.641 82.7134 281.451 80.76C284.495 77.4566 289.551 76.997 293.257 79.6972C293.917 80.1568 294.664 80.5302 294.98 80.5302C295.497 80.5302 297.02 79.0365 297.02 78.5482C297.02 77.629 293.975 75.5607 291.562 74.8426C290.068 74.383 287.569 74.2394 285.96 74.4979Z" fill="black"/>
<path d="M167.613 75.1588C167.526 75.3311 167.498 80.8751 167.526 87.4245L167.613 99.3455H169.192H170.772L170.859 95.1228L170.945 90.929L174.736 90.814C178.815 90.6991 179.763 90.4119 181.774 88.7171C185.02 85.9882 185.02 79.841 181.774 76.911C179.62 74.9864 178.873 74.7853 172.984 74.7853C169.049 74.7853 167.699 74.8715 167.613 75.1588ZM178.126 78.8931C179.821 79.7548 180.826 81.6794 180.539 83.4317C180.28 84.9541 178.701 86.7351 177.293 87.1372C176.69 87.2808 175.024 87.4245 173.587 87.4245H170.916V82.8284V78.2324H173.875C176.431 78.2324 177.034 78.3185 178.126 78.8931Z" fill="black"/>
<path d="M191.053 75.331C190.65 76.0778 190.65 89.5213 191.053 92.0204C191.57 95.2089 193.178 97.4782 195.993 98.9719C197.027 99.5464 197.631 99.6326 200.36 99.6326C203.232 99.6326 203.663 99.5751 204.984 98.857C207.081 97.7654 208.719 95.7834 209.408 93.5141C209.925 91.8767 209.983 90.8426 209.983 83.69C209.983 79.2951 209.896 75.5033 209.81 75.2448C209.609 74.699 207.11 74.6128 206.593 75.1299C206.334 75.3884 206.248 77.6864 206.248 83.69C206.248 91.6469 206.22 91.9342 205.616 93.1694C205.243 93.8588 204.467 94.8067 203.864 95.295C201.825 96.9037 197.832 96.6164 196.166 94.7205C194.672 93.0258 194.615 92.681 194.471 83.5464L194.327 74.9288L192.834 74.8426C191.598 74.7565 191.282 74.8426 191.053 75.331Z" fill="black"/>
<path d="M219.231 75.13C218.973 75.3885 218.887 78.4621 218.887 87.1659C218.887 96.9899 218.944 98.8858 219.289 99.2018C219.605 99.4316 221.242 99.5178 225.264 99.4316C230.319 99.3454 230.923 99.2879 231.985 98.7134C236.294 96.4154 237.185 90.6704 233.68 87.7978L232.589 86.8786L233.479 85.7583C234.686 84.2646 234.973 83.4028 234.973 81.3633C234.973 79.2377 234.485 78.0599 233.106 76.7098C231.411 75.0725 230.147 74.7852 224.488 74.7852C221.041 74.7852 219.461 74.9002 219.231 75.13ZM229.716 78.6919C230.147 79.0079 230.722 79.8409 230.951 80.4729C231.325 81.5357 231.325 81.823 230.951 82.8858C230.233 84.8678 229.4 85.2413 225.752 85.3562L222.621 85.4711V81.6793V77.8876L225.752 78.0025C228.395 78.0887 229.055 78.2036 229.716 78.6919ZM230.003 89.4352C231.296 90.2107 231.871 91.2449 231.871 92.6524C231.842 94.0599 231.152 95.1228 229.774 95.8122C229.027 96.2143 228.079 96.3292 225.723 96.3292H222.621V92.5949V88.8607H225.867C228.538 88.8607 229.228 88.9468 230.003 89.4352Z" fill="black"/>
<path d="M243.935 75.1299C243.39 75.6757 243.447 98.7134 243.993 99.173C244.251 99.4028 246.348 99.4889 250.944 99.4315L257.523 99.3453V97.9091V96.4728L252.438 96.3866L247.325 96.3292L247.268 85.6146L247.181 74.9288L245.745 74.8426C244.883 74.7852 244.165 74.9001 243.935 75.1299Z" fill="black"/>
<path d="M264.015 75.331C263.526 76.2215 263.584 98.3687 264.072 99.0294C264.359 99.4029 264.761 99.5178 265.853 99.4316L267.289 99.3454V87.1371V74.9289L265.796 74.8427C264.56 74.7565 264.244 74.8427 264.015 75.331Z" fill="black"/>
<path d="M258.269 129.852C253.96 139.101 247.899 152.918 247.956 153.349C248.043 153.837 248.301 153.923 249.651 154.01L251.26 154.096L252.553 151.137L253.845 148.178L259.504 148.092L265.134 148.035L266.283 150.534C267.921 154.124 267.719 153.923 269.472 153.923C270.908 153.923 271.023 153.866 271.08 153.205C271.138 152.774 269.098 147.862 265.91 140.853L260.682 129.22L259.648 129.133C258.786 129.047 258.585 129.162 258.269 129.852ZM261.802 140.365L263.928 145.162H259.619C255.626 145.162 255.31 145.133 255.482 144.645C255.798 143.755 259.533 135.453 259.59 135.51C259.619 135.539 260.596 137.722 261.802 140.365Z" fill="black"/>
<path d="M167.613 129.737C167.526 129.909 167.498 135.453 167.526 142.003L167.613 153.924H174.507H181.401V152.487V151.051L176.316 150.965L171.203 150.907V140.48C171.203 132.753 171.117 129.967 170.859 129.708C170.399 129.249 167.785 129.249 167.613 129.737Z" fill="black"/>
<path d="M187.749 129.823C187.519 130.397 187.519 153.033 187.749 153.607C187.95 154.153 190.449 154.239 190.966 153.722C191.224 153.464 191.31 150.419 191.31 141.83C191.31 135.482 191.224 130.081 191.138 129.823C190.88 129.162 188.007 129.162 187.749 129.823Z" fill="black"/>
<path d="M200.848 129.708C200.589 129.966 200.503 133.04 200.503 141.744C200.503 151.568 200.56 153.464 200.905 153.78C201.221 154.009 202.858 154.096 206.88 154.009L212.424 153.923L214.004 153.033C217.968 150.792 218.686 145.277 215.383 142.462L214.205 141.456L215.009 140.509C216.187 139.13 216.589 137.952 216.589 135.97C216.589 133.844 216.129 132.638 214.722 131.288C213.027 129.65 211.763 129.363 206.104 129.363C202.657 129.363 201.077 129.478 200.848 129.708ZM211.332 133.27C211.763 133.586 212.338 134.419 212.568 135.051C212.941 136.114 212.941 136.401 212.568 137.464C212.28 138.239 211.792 138.9 211.16 139.331C210.298 139.905 209.839 139.991 207.225 139.991H204.237V136.228V132.465L207.368 132.58C210.011 132.667 210.672 132.781 211.332 133.27ZM211.39 143.956C214.262 145.421 214.262 148.925 211.39 150.39C210.643 150.792 209.695 150.907 207.34 150.907H204.237V147.173V143.439H207.34C209.695 143.439 210.643 143.553 211.39 143.956Z" fill="black"/>
<path d="M225.551 129.708C225.292 129.967 225.206 133.04 225.206 141.744C225.206 151.482 225.264 153.493 225.608 153.751C225.838 153.952 226.642 154.067 227.418 154.01L228.797 153.924L228.883 149.385L228.969 144.875H231.813H234.685L236.983 149.471L239.281 154.067H241.005C243.59 154.067 243.562 153.665 240.775 148.552L238.506 144.358L239.741 143.467C242.24 141.715 243.619 138.699 243.188 135.941C242.958 134.304 241.551 131.891 240.344 130.972C238.506 129.564 237.357 129.363 231.411 129.363C227.504 129.363 225.781 129.478 225.551 129.708ZM236.782 133.213C237.299 133.414 238.075 134.017 238.506 134.505C240 136.286 239.799 138.527 237.96 140.308L236.955 141.284L232.933 141.371L228.94 141.485V137.148V132.81H232.387C234.657 132.81 236.179 132.954 236.782 133.213Z" fill="black"/>
<path d="M277.372 129.794C277.142 130.397 277.142 153.004 277.372 153.608C277.63 154.268 280.503 154.268 280.761 153.608C280.847 153.349 280.934 151.281 280.934 149.011V144.875H283.749H286.535L288.833 149.414L291.131 153.923H292.826C295.497 153.923 295.497 153.722 292.768 148.724C290.47 144.473 290.47 144.444 291.074 144.013C293.831 142.089 295.095 139.963 295.095 137.119C295.124 134.879 294.406 133.098 292.941 131.604C290.959 129.651 290.384 129.507 283.634 129.421C278.233 129.335 277.544 129.392 277.372 129.794ZM288.862 133.27C290.068 133.844 290.872 134.85 291.303 136.286C291.591 137.234 291.562 137.521 290.959 138.757C290.585 139.503 289.838 140.423 289.293 140.767C288.402 141.371 287.971 141.428 284.639 141.428H280.934V137.119V132.81H284.409C287.023 132.81 288.115 132.925 288.862 133.27Z" fill="black"/>
<path d="M299.749 129.966C299.519 130.656 299.806 131.115 304.546 137.636L307.935 142.318V147.834C307.935 151.769 308.022 153.464 308.28 153.722C308.797 154.239 311.296 154.153 311.497 153.607C311.584 153.349 311.67 150.706 311.67 147.747V142.318L315.835 136.631C320.747 129.966 320.862 129.564 318.248 129.421L316.61 129.334L313.25 133.959C311.382 136.516 309.774 138.498 309.688 138.354C309.573 138.239 308.251 136.43 306.786 134.39C303.052 129.191 303.224 129.363 301.444 129.363C300.18 129.363 299.892 129.449 299.749 129.966Z" fill="black"/>
</g>
<defs>
<clipPath id="clip0">
<rect width="320" height="172.639" fill="white" transform="translate(0 0.674072)"/>
</clipPath>
</defs>
</svg>
