<svg width="73" height="99" viewBox="0 0 73 99" fill="none" xmlns="http://www.w3.org/2000/svg">
<path d="M4.76528 27.0564C4.76528 27.4056 4.71458 27.701 4.58785 27.9964C4.46111 28.265 4.30903 28.5067 4.0809 28.6947C3.85278 28.8827 3.5993 29.0439 3.26979 29.1513C2.94028 29.2587 2.58542 29.3124 2.20521 29.3124C1.90104 29.3124 1.64757 29.2856 1.41944 29.2318C1.19132 29.1781 0.963194 29.1244 0.785764 29.0439C0.608333 28.9633 0.45625 28.8827 0.304167 28.8021C0.177431 28.7216 0.0760416 28.641 0 28.5604L0.63368 27.4324C0.684375 27.4593 0.735069 27.513 0.836458 27.5667C0.9125 27.6204 1.03924 27.701 1.16597 27.7547C1.29271 27.8084 1.44479 27.8621 1.62222 27.9159C1.79965 27.9696 1.97708 27.9964 2.17986 27.9964C2.53472 27.9964 2.81354 27.9159 3.01632 27.7279C3.2191 27.5667 3.32049 27.3519 3.32049 27.1102C3.32049 26.949 3.26979 26.7879 3.19375 26.6804C3.09236 26.573 2.99097 26.4656 2.83889 26.3582C2.6868 26.2776 2.53472 26.1702 2.33194 26.0896C2.12917 26.009 1.92639 25.9016 1.72361 25.7942C1.49549 25.6867 1.29271 25.5525 1.11528 25.4182C0.937847 25.2839 0.760416 25.1228 0.63368 24.9616C0.506944 24.8005 0.380208 24.5856 0.304167 24.3439C0.228125 24.1022 0.177431 23.8336 0.177431 23.5382C0.177431 23.2159 0.228125 22.9205 0.354861 22.6519C0.481597 22.3834 0.63368 22.1685 0.836458 21.9805C1.03924 21.7925 1.29271 21.6582 1.57153 21.5508C1.85035 21.4434 2.15451 21.3896 2.48403 21.3896C2.78819 21.3896 3.04167 21.4165 3.26979 21.4702C3.49792 21.5239 3.70069 21.5776 3.87812 21.6314C4.05555 21.6851 4.18229 21.7656 4.30903 21.8462C4.43576 21.9268 4.5118 21.9805 4.58785 22.0342L3.97951 23.1622C3.90347 23.1085 3.82743 23.0548 3.75139 23.0011C3.65 22.9473 3.54861 22.8936 3.42187 22.8399C3.29514 22.7862 3.1684 22.7593 3.01632 22.7325C2.86424 22.7056 2.7375 22.6788 2.58542 22.6788C2.28125 22.6788 2.05312 22.7325 1.87569 22.8668C1.69826 23.0011 1.62222 23.1891 1.62222 23.4576C1.62222 23.6188 1.64757 23.7262 1.72361 23.8336C1.79965 23.941 1.87569 24.0216 2.00243 24.1022C2.12917 24.1828 2.2559 24.2633 2.43333 24.3439C2.58542 24.4245 2.76285 24.505 2.96562 24.5856C3.19375 24.693 3.42187 24.8273 3.65 24.9616C3.87812 25.0959 4.05555 25.257 4.23299 25.4182C4.41042 25.5793 4.53715 25.821 4.63854 26.0627C4.71458 26.4119 4.76528 26.7073 4.76528 27.0564Z" fill="white"/>
<path d="M9.70881 22.9197V29.1774H8.16263V22.9197H6.18555V21.6038H11.6605V22.9197H9.70881Z" fill="white"/>
<path d="M15.9436 24.6654C15.8929 24.5043 15.8423 24.3432 15.7916 24.2089C15.7409 24.0477 15.7155 23.9135 15.6648 23.806C15.6395 23.6986 15.6141 23.5912 15.5888 23.5106C15.5634 23.43 15.5634 23.3763 15.5634 23.3495H15.5381C15.5381 23.3763 15.5127 23.43 15.4874 23.5106C15.462 23.5912 15.4367 23.6986 15.4113 23.806C15.386 23.9403 15.3353 24.0746 15.2846 24.2089C15.2339 24.3432 15.1832 24.5043 15.1325 24.6654L14.5242 26.4649H16.5266L15.9436 24.6654ZM13.637 29.1774H12.1162L14.8537 21.6038H16.3238L19.1374 29.1774H17.4898L16.9829 27.754H14.1186L13.637 29.1774Z" fill="white"/>
<path d="M23.6237 29.1774H22.1789L19.416 21.6038H21.0382L22.5591 26.1426C22.6098 26.2769 22.6351 26.438 22.6858 26.5723C22.7365 26.7066 22.7619 26.8408 22.8125 26.9751C22.8379 27.1094 22.8886 27.19 22.8886 27.2706C22.9139 27.3511 22.9139 27.4048 22.9139 27.4048H22.9393C22.9393 27.4048 22.9393 27.3511 22.9646 27.2706C22.99 27.19 23.0153 27.0826 23.0407 26.9751C23.066 26.8408 23.1167 26.7334 23.1674 26.5723C23.2181 26.438 23.2434 26.2769 23.2941 26.1426L24.7389 21.6038H26.2598L23.6237 29.1774Z" fill="white"/>
<path d="M31.5076 23.8866C31.5076 23.5375 31.4062 23.2689 31.2034 23.1077C31.0006 22.9466 30.6964 22.8392 30.2655 22.8392H29.5051V24.934H30.3416C30.7471 24.934 31.0513 24.8534 31.2287 24.6654C31.4062 24.4774 31.5076 24.2089 31.5076 23.8866ZM31.9131 29.1774L30.5951 27.0288C30.443 26.814 30.3416 26.626 30.2402 26.5186C30.1388 26.3843 30.0628 26.3037 29.9867 26.2231C29.9107 26.1694 29.86 26.1157 29.7839 26.0889C29.7332 26.062 29.6572 26.062 29.5558 26.062H29.4544V29.1774H27.9336V21.6038H30.3162C31.1527 21.6038 31.8117 21.7918 32.268 22.1678C32.7242 22.5437 32.9523 23.0809 32.9523 23.806C32.9523 24.1283 32.9016 24.3969 32.8003 24.6117C32.6989 24.8534 32.5721 25.0414 32.4201 25.2026C32.268 25.3637 32.0905 25.498 31.8878 25.6054C31.685 25.7129 31.4822 25.7666 31.2541 25.8203V25.8471C31.3555 25.9277 31.4822 26.0351 31.6089 26.1963C31.7357 26.3574 31.9131 26.5991 32.0905 26.9214L33.4846 29.1774H31.9131Z" fill="white"/>
<path d="M40.4306 25.392C40.4306 25.0429 40.3799 24.7206 40.3038 24.3983C40.2278 24.0761 40.1011 23.8075 39.9236 23.5658C39.7462 23.3241 39.5434 23.1361 39.29 23.0018C39.0365 22.8675 38.7323 22.7869 38.3774 22.7869C38.0226 22.7869 37.7184 22.8675 37.4396 23.0018C37.1861 23.1361 36.958 23.3241 36.7806 23.5658C36.6031 23.8075 36.4764 24.0761 36.4004 24.3983C36.3243 24.7206 36.2736 25.0429 36.2736 25.392C36.2736 25.7412 36.3243 26.0903 36.4004 26.4126C36.4764 26.7349 36.6031 27.0303 36.7806 27.272C36.958 27.5137 37.1608 27.7017 37.4396 27.8629C37.6931 27.9972 38.0226 28.0777 38.3774 28.0777C38.7323 28.0777 39.0365 27.9972 39.3153 27.8629C39.5688 27.7286 39.7969 27.5406 39.9743 27.2989C40.1518 27.0572 40.2785 26.7886 40.3545 26.4663C40.3799 26.0903 40.4306 25.768 40.4306 25.392ZM42.0275 25.3652C42.0275 25.8755 41.9514 26.3858 41.7993 26.8423C41.6472 27.3257 41.4191 27.7286 41.1149 28.1046C40.8108 28.4806 40.4306 28.7492 39.9743 28.9909C39.5181 29.2057 38.9858 29.3132 38.4028 29.3132C37.7945 29.3132 37.2622 29.2057 36.8059 28.9909C36.3497 28.776 35.9441 28.4806 35.64 28.1315C35.3358 27.7823 35.0823 27.3526 34.9302 26.896C34.7528 26.4126 34.6768 25.9292 34.6768 25.4189C34.6768 24.9086 34.7528 24.3983 34.9302 23.9418C35.0823 23.4584 35.3358 23.0555 35.64 22.6795C35.9441 22.3035 36.3243 22.0349 36.8059 21.8201C37.2622 21.6052 37.7945 21.4978 38.4028 21.4978C39.0111 21.4978 39.5434 21.6052 39.9997 21.8201C40.4559 22.0349 40.8361 22.3304 41.1656 22.6795C41.4698 23.0286 41.7233 23.4584 41.8754 23.9149C41.9514 24.3715 42.0275 24.8549 42.0275 25.3652Z" fill="white"/>
<path d="M48.2614 27.0557C48.2614 27.4049 48.2107 27.7003 48.0839 27.9957C47.9572 28.2643 47.8051 28.506 47.577 28.694C47.3489 28.882 47.0954 29.0431 46.7659 29.1505C46.4364 29.258 46.0815 29.3117 45.7013 29.3117C45.3971 29.3117 45.1437 29.2848 44.9155 29.2311C44.6874 29.1774 44.4593 29.1237 44.2819 29.0431C44.1044 28.9625 43.9523 28.882 43.8003 28.8014C43.6735 28.7208 43.5721 28.6403 43.4961 28.5597L44.1298 27.4317C44.1805 27.4586 44.2312 27.5123 44.3325 27.566C44.4086 27.6197 44.5353 27.7003 44.6621 27.754C44.7888 27.8077 44.9409 27.8614 45.1183 27.9151C45.2957 27.9688 45.4732 27.9957 45.6759 27.9957C46.0308 27.9957 46.3096 27.9151 46.5124 27.7271C46.7152 27.566 46.8166 27.3511 46.8166 27.1094C46.8166 26.9483 46.7659 26.7871 46.6898 26.6797C46.5884 26.5723 46.4871 26.4649 46.335 26.3574C46.1829 26.2769 46.0308 26.1694 45.828 26.0889C45.6253 26.0083 45.4225 25.9009 45.2197 25.7934C44.9916 25.686 44.7888 25.5517 44.6114 25.4174C44.4339 25.2832 44.2565 25.122 44.1298 24.9609C44.003 24.7997 43.8763 24.5849 43.8003 24.3432C43.7242 24.1015 43.6735 23.8329 43.6735 23.5375C43.6735 23.2152 43.7242 22.9198 43.851 22.6512C43.9777 22.3826 44.1298 22.1678 44.3325 21.9798C44.5353 21.7918 44.7888 21.6575 45.0676 21.5501C45.3464 21.4426 45.6506 21.3889 45.9801 21.3889C46.2843 21.3889 46.5378 21.4158 46.7659 21.4695C46.994 21.5232 47.1968 21.5769 47.3742 21.6306C47.5516 21.6843 47.6784 21.7649 47.8051 21.8455C47.9319 21.9261 48.0079 21.9798 48.0839 22.0335L47.4756 23.1615C47.3996 23.1078 47.3235 23.054 47.2475 23.0003C47.1461 22.9466 47.0447 22.8929 46.918 22.8392C46.7912 22.7855 46.6645 22.7586 46.5124 22.7318C46.3603 22.7049 46.2336 22.678 46.0815 22.678C45.7773 22.678 45.5492 22.7318 45.3718 22.866C45.1944 23.0003 45.1183 23.1883 45.1183 23.4569C45.1183 23.618 45.1437 23.7255 45.2197 23.8329C45.2957 23.9403 45.3718 24.0209 45.4985 24.1015C45.6253 24.182 45.752 24.2626 45.9294 24.3432C46.0815 24.4237 46.2589 24.5043 46.4617 24.5849C46.6898 24.6923 46.918 24.8266 47.1461 24.9609C47.3742 25.0952 47.5516 25.2563 47.7291 25.4174C47.9065 25.6054 48.0332 25.8203 48.1346 26.062C48.2107 26.4111 48.2614 26.7066 48.2614 27.0557Z" fill="white"/>
<path d="M73 55.4158H0V57.0272H73V55.4158Z" fill="white"/>
<path d="M73 34.8708H0V36.4823H73V34.8708Z" fill="white"/>
<path d="M73 96.5071H0V98.1185H73V96.5071Z" fill="white"/>
<path d="M73 75.9622H0V77.5736H73V75.9622Z" fill="white"/>
<path d="M4.81597 49.7238L2.02778 45.5073C1.825 45.2118 1.64757 44.9433 1.52083 44.7284C1.3941 44.5135 1.3434 44.3793 1.31806 44.3793H1.3434C1.3434 44.3793 1.3434 44.433 1.3434 44.4867C1.3434 44.5404 1.3434 44.621 1.36875 44.7284C1.36875 44.8358 1.36875 44.9164 1.3941 45.0507C1.3941 45.1581 1.3941 45.2924 1.3941 45.3998V49.7238H0V42.1501H1.52083L4.10625 46.0712C4.20764 46.2324 4.30903 46.3935 4.41042 46.5278C4.51181 46.6889 4.58785 46.8232 4.63854 46.9307C4.71458 47.0381 4.76528 47.1455 4.79062 47.2261C4.84132 47.3067 4.84132 47.3335 4.84132 47.3335H4.86667C4.86667 47.3335 4.86667 47.2798 4.86667 47.2261C4.86667 47.1455 4.86667 47.0649 4.84132 46.9575C4.84132 46.8501 4.84132 46.7158 4.81597 46.5815C4.81597 46.4472 4.81597 46.313 4.81597 46.1518V42.1501H6.18472V49.7238H4.81597Z" fill="white"/>
<path d="M10.2913 42.1501H8.77051V49.7238H10.2913V42.1501Z" fill="white"/>
<path d="M15.9954 45.2118C15.9447 45.0507 15.8941 44.8895 15.8434 44.7553C15.7927 44.5941 15.7673 44.4598 15.7166 44.3524C15.6913 44.245 15.6659 44.1375 15.6406 44.057C15.6152 43.9764 15.6152 43.9227 15.6152 43.8958H15.5899C15.5899 43.9227 15.5645 43.9764 15.5392 44.057C15.5138 44.1375 15.4885 44.245 15.4632 44.3524C15.4378 44.4867 15.3871 44.621 15.3364 44.7553C15.2857 44.8895 15.235 45.0507 15.1843 45.2118L14.576 47.0112H16.5784L15.9954 45.2118ZM13.7142 49.7238H12.1934L14.9309 42.1501H16.401L19.2145 49.7238H17.567L17.0854 48.3004H14.1958L13.7142 49.7238Z" fill="white"/>
<path d="M24.4851 44.433C24.4851 44.0838 24.3837 43.8153 24.1809 43.6541C23.9781 43.493 23.674 43.3856 23.2177 43.3856H22.4573V45.4804H23.2938C23.6993 45.4804 24.0035 45.3998 24.1809 45.2118C24.3837 45.0238 24.4851 44.7553 24.4851 44.433ZM24.8906 49.7238L23.5726 47.5752C23.4205 47.3604 23.3191 47.1724 23.2177 47.0649C23.1163 46.9307 23.0403 46.8501 22.9643 46.7695C22.8882 46.7158 22.8375 46.6621 22.7615 46.6352C22.7108 46.6084 22.6347 46.6084 22.5334 46.6084H22.432V49.7238H20.9111V42.1501H23.2938C24.1302 42.1501 24.7893 42.3381 25.2455 42.7141C25.7018 43.0901 25.9299 43.6273 25.9299 44.3524C25.9299 44.6747 25.8792 44.9433 25.7778 45.1581C25.6764 45.3998 25.5497 45.5878 25.3976 45.749C25.2455 45.9101 25.0681 46.0444 24.8653 46.1518C24.6625 46.2592 24.4597 46.313 24.2316 46.3667V46.3935C24.333 46.4741 24.4597 46.5815 24.5865 46.7427C24.7132 46.9038 24.8906 47.1455 25.0681 47.4678L26.4622 49.7238H24.8906Z" fill="white"/>
<path d="M33.6862 49.0524C33.5848 49.1329 33.4834 49.2404 33.3314 49.3209C33.1793 49.4015 33.0018 49.5089 32.8244 49.5895C32.6216 49.6701 32.4189 49.7238 32.1907 49.7775C31.9626 49.8312 31.7091 49.8581 31.4557 49.8581C30.8473 49.8581 30.315 49.7506 29.8588 49.5358C29.4025 49.3209 29.0223 49.0255 28.7182 48.6764C28.414 48.3004 28.1859 47.8975 28.0338 47.4141C27.8817 46.9307 27.8057 46.4472 27.8057 45.937C27.8057 45.4267 27.8817 44.9164 28.0338 44.4598C28.1859 43.9764 28.414 43.5736 28.7435 43.2244C29.0477 42.8753 29.4532 42.5799 29.9095 42.365C30.3657 42.1502 30.898 42.0427 31.5064 42.0427C31.988 42.0427 32.3935 42.0964 32.723 42.2039C33.0525 42.3113 33.3821 42.4456 33.6609 42.6604L32.9765 43.8421C32.7737 43.7078 32.5709 43.6004 32.3175 43.5199C32.0893 43.4393 31.8105 43.4124 31.481 43.4124C31.1515 43.4124 30.8473 43.4661 30.5939 43.6004C30.3404 43.7347 30.1123 43.9227 29.9602 44.1376C29.7827 44.3793 29.656 44.6478 29.58 44.9433C29.4786 45.2387 29.4532 45.5878 29.4532 45.937C29.4532 46.313 29.5039 46.6352 29.58 46.9575C29.656 47.2798 29.7827 47.5484 29.9602 47.7901C30.1376 48.0318 30.3404 48.2198 30.6192 48.3541C30.8727 48.4884 31.1768 48.5689 31.5317 48.5689C31.9119 48.5689 32.2414 48.5152 32.4949 48.3809C32.7484 48.2735 32.9765 48.1392 33.1539 47.9781L33.6862 49.0524Z" fill="white"/>
<path d="M40.2488 49.7238V46.4472H37.0297V49.7238H35.5342V42.1501H37.0297V45.1313H40.2488V42.1501H41.7442V49.7238H40.2488Z" fill="white"/>
<path d="M49.5028 45.937C49.5028 45.5878 49.4521 45.2655 49.3761 44.9433C49.3001 44.621 49.1733 44.3524 48.9959 44.1107C48.8185 43.869 48.6157 43.681 48.3622 43.5467C48.1087 43.4124 47.8046 43.3319 47.4497 43.3319C47.0949 43.3319 46.7907 43.4124 46.5119 43.5467C46.2584 43.681 46.0303 43.869 45.8528 44.1107C45.6754 44.3524 45.5487 44.621 45.4726 44.9433C45.3966 45.2655 45.3459 45.5878 45.3459 45.937C45.3459 46.2861 45.3966 46.6352 45.4726 46.9575C45.5487 47.2798 45.6754 47.5752 45.8528 47.8169C46.0303 48.0587 46.2331 48.2467 46.5119 48.4078C46.7653 48.5421 47.0949 48.6227 47.4497 48.6227C47.8046 48.6227 48.1087 48.5421 48.3876 48.4078C48.641 48.2735 48.8692 48.0855 49.0466 47.8438C49.224 47.6021 49.3508 47.3335 49.4268 47.0112C49.4521 46.6352 49.5028 46.313 49.5028 45.937ZM51.0997 45.9101C51.0997 46.4204 51.0237 46.9307 50.8716 47.3872C50.7195 47.8707 50.4914 48.2735 50.1872 48.6495C49.8831 49.0255 49.5028 49.2941 49.0466 49.5358C48.5903 49.7506 48.0581 49.8581 47.4751 49.8581C46.8667 49.8581 46.3344 49.7506 45.8782 49.5358C45.4219 49.3209 45.0164 49.0255 44.7122 48.6764C44.408 48.3272 44.1546 47.8975 44.0025 47.441C43.8251 46.9575 43.749 46.4741 43.749 45.9638C43.749 45.4535 43.8251 44.9433 44.0025 44.4867C44.1546 44.0033 44.408 43.6004 44.7122 43.2244C45.0164 42.8484 45.3966 42.5799 45.8782 42.365C46.3344 42.1502 46.8667 42.0427 47.4751 42.0427C48.0834 42.0427 48.6157 42.1502 49.0719 42.365C49.5282 42.5799 49.9084 42.8753 50.2379 43.2244C50.5674 43.5736 50.7956 44.0033 50.9476 44.4598C51.0237 44.9164 51.0997 45.3998 51.0997 45.9101Z" fill="white"/>
<path d="M57.3864 47.6023C57.3864 47.9515 57.3357 48.2469 57.2089 48.5423C57.0822 48.8109 56.9301 49.0526 56.702 49.2406C56.4739 49.4286 56.2204 49.5898 55.8909 49.6972C55.5614 49.8046 55.2065 49.8583 54.8263 49.8583C54.5221 49.8583 54.2687 49.8315 54.0405 49.7778C53.8124 49.724 53.5843 49.6703 53.4069 49.5898C53.2294 49.5092 53.0773 49.4286 52.9253 49.348C52.7985 49.2675 52.6971 49.1869 52.6211 49.1063L53.2548 47.9783C53.3055 48.0052 53.3562 48.0589 53.4575 48.1126C53.5336 48.1663 53.6603 48.2469 53.7871 48.3006C53.9138 48.3543 54.0659 48.4081 54.2433 48.4618C54.4207 48.5155 54.5982 48.5423 54.801 48.5423C55.1558 48.5423 55.4346 48.4618 55.6374 48.2738C55.8402 48.1126 55.9416 47.8978 55.9416 47.6561C55.9416 47.4949 55.8909 47.3338 55.8148 47.2264C55.7388 47.1189 55.6121 47.0115 55.46 46.9041C55.3079 46.8235 55.1558 46.7161 54.953 46.6355C54.7503 46.5549 54.5475 46.4475 54.3447 46.3401C54.1166 46.2326 53.9138 46.0984 53.7364 45.9641C53.5589 45.8298 53.3815 45.6687 53.2548 45.5075C53.128 45.3464 53.0013 45.1315 52.9253 44.8898C52.8492 44.6481 52.7985 44.3795 52.7985 44.0841C52.7985 43.7618 52.8492 43.4664 52.976 43.1978C53.1027 42.9293 53.2548 42.7144 53.4575 42.5264C53.6603 42.3384 53.9138 42.2041 54.1926 42.0967C54.4714 41.9893 54.7756 41.9355 55.1051 41.9355C55.4093 41.9355 55.6628 41.9624 55.8909 42.0161C56.119 42.0698 56.3218 42.1235 56.4992 42.1773C56.6766 42.231 56.8034 42.3115 56.9301 42.3921C57.0569 42.4727 57.1329 42.5264 57.2089 42.5801L56.6006 43.7081C56.5246 43.6544 56.4485 43.6007 56.3725 43.5738C56.2711 43.5201 56.1697 43.4664 56.043 43.4127C55.9162 43.359 55.7895 43.3321 55.6374 43.3052C55.4853 43.2784 55.3586 43.2515 55.2065 43.2515C54.9023 43.2515 54.6742 43.3052 54.4968 43.4395C54.3194 43.5738 54.2433 43.7618 54.2433 44.0304C54.2433 44.1915 54.2687 44.299 54.3447 44.4064C54.4207 44.5138 54.4968 44.5944 54.6235 44.6749C54.7503 44.7555 54.877 44.8361 55.0544 44.9167C55.2065 44.9972 55.3839 45.0778 55.5867 45.1584C55.8148 45.2658 56.043 45.4001 56.2711 45.5344C56.4992 45.6687 56.6766 45.8298 56.8541 45.9909C57.0315 46.1789 57.1582 46.3938 57.2596 46.6355C57.361 46.8772 57.3864 47.2532 57.3864 47.6023Z" fill="white"/>
<path d="M1.52083 64.0093V65.8625H3.80208V67.1247H1.52083V70.267H0V62.6934H4.10625V64.0093H1.52083Z" fill="white"/>
<path d="M11.4569 66.4824C11.4569 66.1332 11.4063 65.811 11.3302 65.4887C11.2542 65.1664 11.1274 64.8978 10.95 64.6561C10.7726 64.4144 10.5698 64.2264 10.3163 64.0921C10.0628 63.9578 9.75868 63.8773 9.40382 63.8773C9.04896 63.8773 8.74479 63.9578 8.46597 64.0921C8.2125 64.2264 7.98438 64.4144 7.80694 64.6561C7.62951 64.8978 7.50278 65.1664 7.42674 65.4887C7.35069 65.811 7.3 66.1332 7.3 66.4824C7.3 66.8315 7.35069 67.1807 7.42674 67.503C7.50278 67.8252 7.62951 68.1207 7.80694 68.3624C7.98438 68.6041 8.18715 68.7921 8.46597 68.9532C8.71944 69.0875 9.04896 69.1681 9.40382 69.1681C9.75868 69.1681 10.0628 69.0875 10.3417 68.9532C10.6205 68.8189 10.8233 68.6309 11.0007 68.3892C11.1781 68.1475 11.3049 67.8789 11.3809 67.5567C11.4063 67.1807 11.4569 66.8584 11.4569 66.4824ZM13.0538 66.4555C13.0538 66.9658 12.9778 67.4761 12.8257 67.9327C12.6736 68.4161 12.4455 68.8189 12.1413 69.1949C11.8372 69.5709 11.4569 69.8395 11.0007 70.0812C10.5444 70.2961 10.0122 70.4035 9.42917 70.4035C8.82083 70.4035 8.28854 70.2961 7.83229 70.0812C7.37604 69.8664 6.97049 69.5709 6.66632 69.2218C6.36215 68.8727 6.10868 68.4429 5.9566 67.9864C5.77917 67.503 5.70312 67.0195 5.70312 66.5092C5.70312 65.999 5.77917 65.4887 5.9566 65.0321C6.10868 64.5487 6.36215 64.1458 6.66632 63.7698C6.97049 63.3938 7.35069 63.1253 7.83229 62.9104C8.28854 62.6956 8.82083 62.5881 9.42917 62.5881C10.0375 62.5881 10.5698 62.6956 11.026 62.9104C11.4823 63.1253 11.8625 63.4207 12.192 63.7698C12.5215 64.119 12.7497 64.5487 12.9017 65.0053C12.9778 65.4618 13.0538 65.9453 13.0538 66.4555Z" fill="white"/>
<path d="M20.937 67.1792C20.937 68.2266 20.6835 69.0055 20.2019 69.5694C19.7204 70.1334 18.9853 70.402 17.9967 70.402C16.9575 70.402 16.1971 70.1334 15.6901 69.6232C15.1832 69.086 14.9551 68.334 14.9551 67.3403V62.6941H16.4759V67.206C16.4759 67.8506 16.6026 68.334 16.8308 68.6295C17.0589 68.9249 17.4645 69.086 18.0474 69.086C18.5797 69.086 18.9599 68.9249 19.2134 68.6026C19.4669 68.2803 19.5683 67.8506 19.5683 67.2866V62.6672H20.9624V67.1792H20.937Z" fill="white"/>
<path d="M28.1108 70.267L25.3227 66.0505C25.1199 65.755 24.9424 65.4865 24.8157 65.2716C24.689 65.0568 24.6383 64.9225 24.6129 64.9225H24.5876C24.5876 64.9225 24.5876 64.9762 24.5876 65.0299C24.5876 65.0836 24.5876 65.1642 24.6129 65.2716C24.6129 65.379 24.6129 65.4596 24.6383 65.5939C24.6383 65.7013 24.6383 65.8356 24.6383 65.943V70.267H23.2695V62.6934H24.7904L27.3758 66.6145C27.4772 66.7756 27.5786 66.9367 27.6799 67.071C27.7813 67.2322 27.8574 67.3664 27.9081 67.4739C27.9841 67.5813 28.0348 67.6887 28.0602 67.7693C28.1108 67.8499 28.1108 67.8767 28.1108 67.8767H28.1362C28.1362 67.8767 28.1362 67.823 28.1362 67.7693C28.1362 67.6887 28.1362 67.6082 28.1108 67.5007C28.1108 67.3933 28.1108 67.259 28.0855 67.1247C28.0855 66.9905 28.0855 66.8562 28.0855 66.695V62.6934H29.4542V70.267H28.1108Z" fill="white"/>
<path d="M36.7274 66.4265C36.7274 65.567 36.5246 64.9493 36.119 64.5733C35.7135 64.1705 35.0798 63.9825 34.2433 63.9825H33.5843V68.9779H34.294C35.1051 68.9779 35.7135 68.763 36.119 68.3333C36.5246 67.9036 36.7274 67.259 36.7274 66.4265ZM38.3242 66.3727C38.3242 66.9099 38.2482 67.4202 38.0708 67.9036C37.8933 68.387 37.6652 68.7899 37.3104 69.139C36.9808 69.4881 36.5499 69.7567 36.0176 69.9716C35.4854 70.1596 34.877 70.267 34.1673 70.267H32.0635V62.6934H34.218C34.9277 62.6934 35.536 62.7739 36.043 62.9619C36.5499 63.1499 36.9808 63.3916 37.3104 63.7139C37.6399 64.0362 37.8933 64.4391 38.0454 64.8688C38.2482 65.3253 38.3242 65.8356 38.3242 66.3727Z" fill="white"/>
<path d="M43.0404 65.755C42.9897 65.5939 42.939 65.4328 42.8883 65.2985C42.8376 65.1373 42.8122 65.003 42.7615 64.8956C42.7362 64.7882 42.7108 64.6808 42.6855 64.6002C42.6602 64.5196 42.6602 64.4659 42.6602 64.4391H42.6348C42.6348 64.4659 42.6095 64.5196 42.5841 64.6002C42.5588 64.6808 42.5334 64.7882 42.5081 64.8956C42.4827 65.0299 42.432 65.1642 42.3813 65.2985C42.3306 65.4328 42.2799 65.5939 42.2293 65.755L41.6209 67.5544H43.6233L43.0404 65.755ZM40.7591 70.267H39.2383L41.9758 62.6934H43.4459L46.2595 70.267H44.6119L44.1303 68.8436H41.2661L40.7591 70.267Z" fill="white"/>
<path d="M50.0868 64.0093V70.267H48.566V64.0093H46.5889V62.6934H52.0639V64.0093H50.0868Z" fill="white"/>
<path d="M55.4847 62.6934H53.9639V70.267H55.4847V62.6934Z" fill="white"/>
<path d="M63.2402 66.4824C63.2402 66.1332 63.1895 65.811 63.1135 65.4887C63.0374 65.1664 62.9107 64.8978 62.7332 64.6561C62.5558 64.4144 62.353 64.2264 62.0996 64.0921C61.8461 63.9578 61.5419 63.8773 61.1871 63.8773C60.8322 63.8773 60.528 63.9578 60.2492 64.0921C59.9957 64.2264 59.7676 64.4144 59.5902 64.6561C59.4128 64.8978 59.286 65.1664 59.21 65.4887C59.1339 65.811 59.0832 66.1332 59.0832 66.4824C59.0832 66.8315 59.1339 67.1807 59.21 67.503C59.286 67.8252 59.4128 68.1207 59.5902 68.3624C59.7676 68.6041 59.9704 68.7921 60.2492 68.9532C60.5027 69.0875 60.8322 69.1681 61.1871 69.1681C61.5419 69.1681 61.8461 69.0875 62.1249 68.9532C62.3784 68.8189 62.6065 68.6309 62.7839 68.3892C62.9614 68.1475 63.0881 67.8789 63.1641 67.5567C63.2148 67.1807 63.2402 66.8584 63.2402 66.4824ZM64.8624 66.4555C64.8624 66.9658 64.7864 67.4761 64.6343 67.9327C64.4822 68.4161 64.2541 68.8189 63.9499 69.1949C63.6457 69.5709 63.2655 69.8395 62.8093 70.0812C62.353 70.2961 61.8207 70.4035 61.2378 70.4035C60.6294 70.4035 60.0971 70.2961 59.6409 70.0812C59.1846 69.8664 58.7791 69.5709 58.4749 69.2218C58.1707 68.8727 57.9173 68.4429 57.7652 67.9864C57.5878 67.503 57.5117 67.0195 57.5117 66.5092C57.5117 65.999 57.5878 65.4887 57.7652 65.0321C57.9173 64.5487 58.1707 64.1458 58.4749 63.7698C58.7791 63.3938 59.1593 63.1253 59.6409 62.9104C60.0971 62.6956 60.6294 62.5881 61.2378 62.5881C61.8461 62.5881 62.3784 62.6956 62.8346 62.9104C63.2909 63.1253 63.6711 63.4207 64.0006 63.7698C64.3301 64.119 64.5582 64.5487 64.7103 65.0053C64.761 65.4618 64.8624 65.9453 64.8624 66.4555Z" fill="white"/>
<path d="M71.605 70.267L68.8168 66.0505C68.614 65.755 68.4366 65.4865 68.3099 65.2716C68.1831 65.0568 68.1324 64.9225 68.1071 64.9225H68.0817C68.0817 64.9225 68.0817 64.9762 68.0817 65.0299C68.0817 65.0836 68.0817 65.1642 68.1071 65.2716C68.1071 65.379 68.1071 65.4596 68.1324 65.5939C68.1324 65.7013 68.1324 65.8356 68.1324 65.943V70.267H66.7637V62.6934H68.2845L70.8699 66.6145C70.9713 66.7756 71.0727 66.9367 71.1741 67.071C71.2755 67.2322 71.3515 67.3664 71.4022 67.4739C71.4783 67.5813 71.529 67.6887 71.5543 67.7693C71.605 67.8499 71.605 67.8767 71.605 67.8767H71.6303C71.6303 67.8767 71.6303 67.823 71.6303 67.7693C71.6303 67.6887 71.6303 67.6082 71.605 67.5007C71.605 67.3933 71.605 67.259 71.5796 67.1247C71.5796 66.9905 71.5796 66.8562 71.5796 66.695V62.6934H72.9484V70.267H71.605Z" fill="white"/>
<path d="M0 90.8146V83.241H1.52083V89.5255H4.18229V90.8146H0Z" fill="white"/>
<path d="M7.70638 83.241H6.18555V90.8146H7.70638V83.241Z" fill="white"/>
<path d="M13.9157 88.5855C13.9157 88.2363 13.8143 87.9678 13.6115 87.7798C13.4088 87.5918 13.0793 87.5112 12.6484 87.5112H11.7865V89.606H12.5723C13.0032 89.606 13.3327 89.5255 13.5608 89.3643C13.8143 89.2032 13.9157 88.9346 13.9157 88.5855ZM13.6622 85.3627C13.6622 84.745 13.282 84.4495 12.5216 84.4495H11.7865V86.3295H12.4963C12.9018 86.3295 13.206 86.2489 13.3834 86.0878C13.5862 85.9535 13.6622 85.7118 13.6622 85.3627ZM15.4619 88.7198C15.4619 89.0958 15.3858 89.4449 15.2591 89.7135C15.107 89.982 14.9296 90.1969 14.6761 90.358C14.4227 90.5192 14.1438 90.6535 13.789 90.7072C13.4341 90.7877 13.0793 90.8146 12.6737 90.8146H10.3164V83.241H12.699C13.0286 83.241 13.3327 83.2678 13.6369 83.3215C13.9411 83.3752 14.1945 83.4827 14.4227 83.6438C14.6508 83.7781 14.8282 83.993 14.9549 84.2347C15.0817 84.4764 15.1577 84.7718 15.1577 85.1209C15.1577 85.6044 15.031 86.0072 14.8029 86.2758C14.5747 86.5444 14.2706 86.7592 13.8904 86.8666V86.8935C14.0931 86.9204 14.2959 87.0009 14.4987 87.0815C14.6761 87.1621 14.8536 87.2964 15.0056 87.4575C15.1577 87.6186 15.2591 87.7798 15.3352 87.9946C15.4112 88.1826 15.4619 88.4243 15.4619 88.7198Z" fill="white"/>
<path d="M21.0886 85.5238C21.0886 85.1747 20.9872 84.9061 20.7844 84.745C20.5817 84.5838 20.2775 84.4764 19.8212 84.4764H19.0608V86.5712H19.8973C20.3028 86.5712 20.607 86.4906 20.7844 86.3026C21.0126 86.1147 21.0886 85.8461 21.0886 85.5238ZM21.4942 90.8146L20.1761 88.6661C20.024 88.4512 19.9226 88.2632 19.8212 88.1558C19.7199 88.0215 19.6438 87.9409 19.5678 87.8603C19.4917 87.8066 19.441 87.7529 19.365 87.7261C19.3143 87.6992 19.2383 87.6992 19.1369 87.6992H19.0355V90.8146H17.5146V83.241H19.8973C20.7337 83.241 21.3928 83.429 21.849 83.805C22.3053 84.181 22.5334 84.7181 22.5334 85.4432C22.5334 85.7655 22.4827 86.0341 22.3813 86.2489C22.2799 86.4906 22.1532 86.6786 22.0011 86.8398C21.849 87.0009 21.6716 87.1352 21.4688 87.2426C21.266 87.3501 21.0633 87.4038 20.8351 87.4575V87.4844C20.9365 87.5649 21.0633 87.6724 21.19 87.8335C21.3167 87.9946 21.4942 88.2363 21.6716 88.5586L23.0657 90.8146H21.4942Z" fill="white"/>
<path d="M28.2122 86.3026C28.1615 86.1415 28.1108 85.9804 28.0602 85.8461C28.0095 85.6849 27.9841 85.5507 27.9334 85.4432C27.9081 85.3358 27.8827 85.2284 27.8574 85.1478C27.832 85.0672 27.832 85.0135 27.832 84.9867H27.8067C27.8067 85.0135 27.7813 85.0672 27.756 85.1478C27.7306 85.2284 27.7053 85.3358 27.6799 85.4432C27.6546 85.5775 27.6039 85.7118 27.5532 85.8461C27.5025 85.9804 27.4518 86.1415 27.4011 86.3026L26.7928 88.1021H28.7952L28.2122 86.3026ZM25.931 90.8146H24.4102L27.1477 83.241H28.6178L31.4313 90.8146H29.7838L29.3022 89.3912H26.4379L25.931 90.8146Z" fill="white"/>
<path d="M36.6775 85.5238C36.6775 85.1747 36.5761 84.9061 36.3733 84.745C36.1705 84.5838 35.8664 84.4764 35.4355 84.4764H34.675V86.5712H35.5115C35.9171 86.5712 36.2212 86.4906 36.3987 86.3026C36.5761 86.1147 36.6775 85.8461 36.6775 85.5238ZM37.083 90.8146L35.765 88.6661C35.6129 88.4512 35.5115 88.2632 35.4101 88.1558C35.3087 88.0215 35.2327 87.9409 35.1566 87.8603C35.0806 87.8066 35.0299 87.7529 34.9539 87.7261C34.9032 87.6992 34.8271 87.6992 34.7257 87.6992H34.6243V90.8146H33.1035V83.241H35.4862C36.3226 83.241 36.9816 83.429 37.4379 83.805C37.8941 84.181 38.1223 84.7181 38.1223 85.4432C38.1223 85.7655 38.0716 86.0341 37.9702 86.2489C37.8688 86.4906 37.7421 86.6786 37.59 86.8398C37.4379 87.0009 37.2605 87.1352 37.0577 87.2426C36.8549 87.3501 36.6521 87.4038 36.424 87.4575V87.4844C36.5254 87.5649 36.6521 87.6724 36.7789 87.8335C36.9056 87.9946 37.083 88.2363 37.2605 88.5586L38.6546 90.8146H37.083Z" fill="white"/>
<path d="M43.2668 87.9678V90.8146H41.746V87.9678L39.3887 83.241H41.0616L42.5824 86.4638L44.1033 83.241H45.5734L43.2668 87.9678Z" fill="white"/>
<path d="M73 15.9102H48.2611V2.88467L24.7389 15.9102H0V14.3257H24.3333L49.7566 0.118408V14.3257H73V15.9102Z" fill="white"/>
</svg>
