<svg viewBox="0 0 36 36" xmlns="http://www.w3.org/2000/svg">
    <path fill-rule="evenodd" clip-rule="evenodd" d="M19.2288 36H1.98692C0.889254 36 0 35.1102 0 34.013V1.98691C0 0.889391 0.889394 0 1.98692 0H34.0132C35.1105 0 36 0.889391 36 1.98691V34.013C36 35.1103 35.1103 36 34.0132 36H24.8395V22.0588H29.5189L30.2196 16.6257H24.8395V13.157C24.8395 11.584 25.2763 10.512 27.532 10.512L30.409 10.5107V5.65132C29.9114 5.58511 28.2036 5.43718 26.2167 5.43718C22.0686 5.43718 19.2288 7.96915 19.2288 12.6189V16.6257H14.5373V22.0588H19.2288V36Z"/>
</svg>
