<svg viewBox="0 0 36 36" fill="none" xmlns="http://www.w3.org/2000/svg">
    <path fill-rule="evenodd" clip-rule="evenodd" d="M36 6.55147C34.6772 7.15385 33.253 7.56122 31.7591 7.74323C33.2847 6.80715 34.4554 5.32287 35.0069 3.55472C33.5784 4.42146 32 5.052 30.3138 5.39003C28.9699 3.91874 27.0491 3 24.9234 3C20.8473 3 17.5404 6.39111 17.5404 10.5731C17.5404 11.1668 17.6038 11.7432 17.7306 12.2979C11.5922 11.9816 6.15108 8.96966 2.50607 4.38245C1.87005 5.50487 1.50659 6.80715 1.50659 8.19394C1.50659 10.8202 2.81036 13.1387 4.7924 14.4973C3.58373 14.4605 2.44268 14.1159 1.44532 13.5526V13.6457C1.44532 17.3164 3.99154 20.3781 7.37242 21.0715C6.7533 21.2492 6.10037 21.338 5.42631 21.338C4.95087 21.338 4.486 21.2925 4.03592 21.2037C4.97623 24.2113 7.70205 26.402 10.935 26.4605C8.40781 28.493 5.22134 29.7042 1.76228 29.7042C1.1664 29.7042 0.576862 29.6696 0 29.6002C3.26889 31.7454 7.15267 33 11.3217 33C24.9086 33 32.336 21.4615 32.336 11.4529C32.336 11.1235 32.3296 10.7941 32.3169 10.4713C33.7602 9.40303 35.0132 8.07043 36 6.55147Z"/>
</svg>
