<svg viewBox="0 0 36 36" xmlns="http://www.w3.org/2000/svg">
  <path d="M35.9818 10.0262C35.8271 13.4487 33.373 18.1241 28.6406 24.0663C23.7465 30.2744 19.6047 33.375 16.2154 33.375C14.1199 33.375 12.3408 31.4853 10.8923 27.7058C9.9219 24.2412 8.95854 20.7767 7.98815 17.3122C6.91228 13.5327 5.75203 11.643 4.52146 11.643C4.24722 11.643 3.30496 12.1959 1.69467 13.2947L0 11.167C1.77905 9.64823 3.52998 8.12244 5.25277 6.60365C7.6225 4.60192 9.40155 3.55206 10.5899 3.44708C13.3886 3.18111 15.1184 5.04986 15.7653 9.05331C16.4615 13.3647 16.9467 16.0524 17.2139 17.1022C18.0226 20.6787 18.9156 22.4635 19.886 22.4635C20.6384 22.4635 21.7705 21.3086 23.2824 18.985C24.7872 16.6613 25.5958 14.8975 25.7013 13.6797C25.9193 11.678 25.1106 10.6701 23.2824 10.6701C22.4174 10.6701 21.5314 10.8661 20.6173 11.251C22.3823 5.59578 25.7646 2.85216 30.7572 3.00614C34.4559 3.11112 36.1998 5.44881 35.9818 10.0262Z" />
</svg>
