<svg viewBox="0 0 36 36" xmlns="http://www.w3.org/2000/svg">
  <g clip-path="url(#clip0_80207_143160)">
    <path d="M29.473 7.53646C29.2286 7.41016 28.9907 7.2717 28.7602 7.12161C28.0898 6.67844 27.4752 6.15625 26.9296 5.5663C25.5643 4.0042 25.0544 2.41947 24.8666 1.30993H24.8742C24.7173 0.388967 24.7821 -0.206909 24.792 -0.206909H18.5737V23.8378C18.5737 24.1606 18.5737 24.4797 18.5602 24.795C18.5602 24.8342 18.5564 24.8704 18.5541 24.9126C18.5541 24.93 18.5541 24.9481 18.5503 24.9662C18.5503 24.9707 18.5503 24.9753 18.5503 24.9798C18.4848 25.8425 18.2082 26.6759 17.745 27.4066C17.2818 28.1374 16.6461 28.7431 15.8938 29.1705C15.1098 29.6166 14.223 29.8505 13.321 29.8494C10.4238 29.8494 8.07575 27.487 8.07575 24.5695C8.07575 21.6519 10.4238 19.2895 13.321 19.2895C13.8694 19.289 14.4144 19.3753 14.9359 19.5452L14.9434 13.2139C13.3605 13.0094 11.7523 13.1352 10.2204 13.5833C8.68854 14.0315 7.26615 14.7922 6.04299 15.8176C4.97122 16.7488 4.07017 17.86 3.3804 19.101C3.11792 19.5535 2.12756 21.3721 2.00763 24.3236C1.9322 25.9988 2.4353 27.7344 2.67516 28.4517V28.4668C2.82601 28.8892 3.41057 30.3306 4.36322 31.5457C5.1314 32.5204 6.03898 33.3767 7.05673 34.0869V34.0718L7.07182 34.0869C10.0821 36.1325 13.4198 35.9982 13.4198 35.9982C13.9976 35.9748 15.933 35.9982 18.131 34.9565C20.5688 33.8018 21.9566 32.0813 21.9566 32.0813C22.8433 31.0532 23.5483 29.8817 24.0414 28.6169C24.6041 27.1378 24.792 25.3637 24.792 24.6547V11.8984C24.8674 11.9437 25.8721 12.6082 25.8721 12.6082C25.8721 12.6082 27.3195 13.5359 29.5778 14.1401C31.198 14.5701 33.3809 14.6606 33.3809 14.6606V8.4876C32.616 8.57057 31.063 8.3292 29.473 7.53646Z"/>
  </g>
</svg>
