<svg viewBox="0 0 36 36" xmlns="http://www.w3.org/2000/svg">
    <g clip-path="url(#clip0_17226_337)">
        <path fill-rule="evenodd" clip-rule="evenodd" d="M14.283 22.4524L14.2819 12.2658L24.0086 17.3767L14.283 22.4524ZM35.64 10.5006C35.64 10.5006 35.2879 8.00241 34.209 6.90228C32.8399 5.45773 31.3054 5.45092 30.6022 5.36708C25.5645 4.99999 18.0079 5 18.0079 5H17.9921C17.9921 5 10.4355 4.99999 5.39775 5.36708C4.6935 5.45092 3.16013 5.45773 1.78988 6.90228C0.711004 8.00241 0.359997 10.5006 0.359997 10.5006C0.359997 10.5006 0 13.435 0 16.3683V19.1192C0 22.0536 0.359997 24.9869 0.359997 24.9869C0.359997 24.9869 0.711004 27.4851 1.78988 28.5853C3.16013 30.0298 4.95899 29.9845 5.75999 30.1352C8.63999 30.4139 18 30.5 18 30.5C18 30.5 25.5645 30.4887 30.6022 30.1216C31.3054 30.0366 32.8399 30.0298 34.209 28.5853C35.2879 27.4851 35.64 24.9869 35.64 24.9869C35.64 24.9869 36 22.0536 36 19.1192V16.3683C36 13.435 35.64 10.5006 35.64 10.5006Z"/>
    </g>
</svg>
