<svg viewBox="0 0 36 36" xmlns="http://www.w3.org/2000/svg">
  <path d="M18 0C8.1 0 0 8.1 0 18C0 27.9 8.1 36 18 36C27.9 36 36 27.9 36 18C36 8.1 27.9 0 18 0ZM25.3026 25.9308C24.9642 25.9308 24.795 25.7616 24.4566 25.5924C21.9168 24.0678 18.7002 23.2218 15.3144 23.2218C13.4514 23.2218 11.421 23.5602 9.7272 23.8986C9.3888 23.8986 9.0504 24.0678 8.8812 24.0678C8.2044 24.0678 7.6968 23.5602 7.6968 22.8834C7.6968 22.2066 8.0352 21.699 8.712 21.699C10.9134 21.1914 13.1148 20.853 15.4854 20.853C19.3788 20.853 22.9356 21.8682 25.983 23.562C26.3214 23.9004 26.6598 24.0696 26.6598 24.7464C26.3178 25.5924 25.8102 25.9308 25.3026 25.9308ZM27.1638 21.1914C26.8254 21.1914 26.487 21.0222 26.1486 20.853C23.2704 18.99 19.206 17.9748 14.805 17.9748C12.6036 17.9748 10.5714 18.3132 9.0486 18.6516C8.7102 18.8208 8.541 18.8208 8.2026 18.8208C7.3566 18.8208 6.8472 18.144 6.8472 17.4654C6.8472 16.6194 7.1856 16.281 8.0316 15.9408C10.0638 15.4332 12.096 14.9256 14.9742 14.9256C19.7154 14.9256 24.1164 16.11 27.8424 18.3114C28.35 18.6498 28.6884 19.1574 28.6884 19.6668C28.5192 20.5128 28.0116 21.1914 27.1638 21.1914ZM29.3652 15.7716C29.0268 15.7716 28.8576 15.6024 28.35 15.4332C24.9642 13.5702 20.0538 12.3858 15.3126 12.3858C12.942 12.3858 10.4022 12.7242 8.2008 13.2318C7.8624 13.2318 7.6932 13.401 7.1856 13.401C6.1704 13.572 5.4918 12.7242 5.4918 11.709C5.4918 10.6938 5.9994 10.1844 6.6762 10.0152C9.387 9.3384 12.2652 9 15.3126 9C20.5614 9 25.9794 10.1844 30.213 12.3858C30.7206 12.7242 31.2282 13.2318 31.2282 14.0796C31.059 15.0948 30.3804 15.7716 29.3652 15.7716Z" />
</svg>
