<svg viewBox="0 0 36 36" fill="none" xmlns="http://www.w3.org/2000/svg">
<g clip-path="url(#clip0_77654_130801)">
<path d="M0 24.3856C0 24.8324 0.161959 25.1702 0.485807 25.3991C0.80969 25.6281 1.15589 25.709 1.52443 25.642C1.87062 25.575 2.11353 25.4522 2.25317 25.2735C2.39275 25.0948 2.46257 24.7989 2.46257 24.3856V19.5276C2.46257 19.1813 2.34253 18.8882 2.10241 18.6481C1.86232 18.408 1.56916 18.2879 1.22293 18.2879C0.887888 18.2879 0.600324 18.408 0.360202 18.6481C0.120079 18.8882 0 19.1813 0 19.5276V24.3856ZM3.85295 26.4629C3.85295 26.7868 3.96743 27.0297 4.19637 27.1916C4.42533 27.3536 4.71849 27.4345 5.07584 27.4345C5.44439 27.4345 5.74311 27.3536 5.97207 27.1916C6.20101 27.0297 6.31549 26.7868 6.31549 26.4629V15.1386C6.31549 14.8035 6.19541 14.5159 5.95532 14.2758C5.7152 14.0357 5.42204 13.9157 5.07584 13.9157C4.74081 13.9157 4.45321 14.0357 4.21312 14.2758C3.973 14.516 3.85295 14.8035 3.85295 15.1386V26.4629ZM7.68915 26.999C7.68915 27.3228 7.80642 27.5657 8.04094 27.7277C8.27547 27.8896 8.577 27.9706 8.94558 27.9706C9.30293 27.9706 9.59609 27.8896 9.82503 27.7277C10.054 27.5657 10.1685 27.3228 10.1685 26.999V16.663C10.1685 16.3168 10.0484 16.0208 9.80831 15.7751C9.56819 15.5295 9.28062 15.4066 8.94558 15.4066C8.59935 15.4066 8.30341 15.5295 8.05773 15.7751C7.81204 16.0208 7.68919 16.3168 7.68919 16.663L7.68915 26.999ZM11.5421 27.0492C11.5421 27.6635 11.9553 27.9706 12.7817 27.9706C13.6082 27.9706 14.0214 27.6635 14.0214 27.0492V10.2972C14.0214 9.35914 13.7366 8.82867 13.167 8.70581C12.7985 8.61646 12.4355 8.72256 12.0781 9.0241C11.7207 9.32563 11.5421 9.74999 11.5421 10.2972V27.0492H11.5421ZM15.4621 27.535V9.30888C15.4621 8.72816 15.6352 8.38196 15.9814 8.27026C16.7297 8.09158 17.4723 8.00223 18.2094 8.00223C19.9181 8.00223 21.5096 8.40427 22.9837 9.20837C24.4579 10.0125 25.6501 11.1097 26.5602 12.5001C27.4704 13.8906 27.9981 15.4233 28.1433 17.0986C28.8245 16.8082 29.5504 16.663 30.321 16.663C31.8845 16.663 33.2219 17.2158 34.3331 18.3215C35.4443 19.4271 36 20.7561 36 22.3085C36 23.872 35.4443 25.2066 34.3331 26.3122C33.2219 27.4178 31.8901 27.9706 30.3378 27.9706L15.7636 27.9539C15.663 27.9204 15.5876 27.8589 15.5374 27.7696C15.4871 27.6803 15.4621 27.602 15.4621 27.535Z"/>
</g>
</svg>
