<svg
  viewBox="0 0 23 23"
  xmlns="http://www.w3.org/2000/svg"
>
  <path
    fillRule="evenodd"
    clipRule="evenodd"
    d="M2.83315 0H25.4983C27.0565 0 28.3315 1.35 28.3315 3V21C28.3315 22.65 27.0565 24 25.4983 24H5.66629L0 30L0.0141657 3C0.0141657 1.35 1.27492 0 2.83315 0ZM4.49094 21H25.4987V3H2.83355V22.755L3.65517 21.885L4.49094 21ZM5.66611 15H8.49926V18H5.66611V15ZM8.49926 10.5H5.66611V13.5H8.49926V10.5ZM5.66611 6H8.49926V9H5.66611V6ZM18.4156 15H11.3327V18H18.4156V15ZM11.3327 10.5H22.6653V13.5H11.3327V10.5ZM22.6653 6H11.3327V9H22.6653V6Z"
  />
</svg>
