<svg viewBox="0 0 24 24" xmlns="http://www.w3.org/2000/svg">
  <path fill-rule="evenodd" clip-rule="evenodd" d="M20.0004 4V8.69L23.3104 12L20.0004 15.31V20H15.3104L12.0004 23.31L8.69043 20H4.00043V15.31L0.69043 12L4.00043 8.69V4H8.69043L12.0004 0.690002L15.3104 4H20.0004ZM18.0004 18V14.48L20.4804 12L18.0004 9.52V6H14.4804L12.0004 3.52L9.52043 6H6.00043V9.52L3.52043 12L6.00043 14.48V18H9.52043L12.0004 20.48L14.4804 18H18.0004ZM12.0004 6.5C8.97043 6.5 6.50043 8.97 6.50043 12C6.50043 15.03 8.97043 17.5 12.0004 17.5C15.0304 17.5 17.5004 15.03 17.5004 12C17.5004 8.97 15.0304 6.5 12.0004 6.5ZM8.50043 12C8.50043 13.93 10.0704 15.5 12.0004 15.5C13.9304 15.5 15.5004 13.93 15.5004 12C15.5004 10.07 13.9304 8.5 12.0004 8.5C10.0704 8.5 8.50043 10.07 8.50043 12Z" />
</svg>
