<svg xmlns="http://www.w3.org/2000/svg" xmlns:xlink="http://www.w3.org/1999/xlink"><symbol viewBox="0 0 24 14" id="arrow" xmlns="http://www.w3.org/2000/svg"><path fill-rule="evenodd" clip-rule="evenodd" d="M10.526 12.871L.263 1.676 1.737.324 12 11.52 22.263.324l1.474 1.352L13.474 12.87a2 2 0 01-2.948 0z"/></symbol><symbol viewBox="0 0 18 18" id="arrow-small" xmlns="http://www.w3.org/2000/svg"><path d="M9 14c-.5 0-.9-.2-1.3-.5L.3 5.7l1.4-1.4L9 11.9l7.3-7.6 1.4 1.4-7.5 7.8c-.3.3-.7.5-1.2.5z"/></symbol><symbol viewBox="0 0 14 9" id="arrow-xsmall" xmlns="http://www.w3.org/2000/svg"><path fill-rule="evenodd" clip-rule="evenodd" d="M5.984 7.578L.424 1.514 1.9.163l5.22 5.695L12.341.163l1.475 1.351-5.56 6.064a1.542 1.542 0 01-2.272 0zm1.474-1.351z"/></symbol><symbol viewBox="0 0 11 8" id="arrow-xsmall-thin" xmlns="http://www.w3.org/2000/svg"><path fill-rule="evenodd" clip-rule="evenodd" d="M4.793 7.123L.594 1.293l.812-.585L5.5 6.394 9.594.708l.812.584-4.199 5.831A.873.873 0 015.5 7.5a.873.873 0 01-.707-.377z"/></symbol><symbol viewBox="0 0 68 68" id="book" xmlns="http://www.w3.org/2000/svg"><path fill-rule="evenodd" clip-rule="evenodd" d="M2.778 2.871c-.004 2.183.005 4.08.784 5.81.78 1.73 2.446 3.486 6.387 4.868h55.276A2.77 2.77 0 0168 16.314v48.92A2.77 2.77 0 0165.225 68H8.328v-.017c-1.795-.09-3.272-.537-4.464-1.293-1.346-.852-2.223-2.033-2.788-3.297C0 60.99 0 58.131 0 56.273V3.863a79.399 79.399 0 010-.892v-.388h.002v-.287H.04A2.774 2.774 0 012.777 0h59.62c.795 0 1.44.643 1.44 1.436 0 .793-.645 1.435-1.44 1.435H2.777zM2.777 56.17V12.421c1.265 1.348 3.057 2.52 5.55 3.48v49.312c-1.332-.086-2.283-.42-2.973-.856-.801-.508-1.355-1.221-1.743-2.09-.814-1.818-.834-4.122-.834-6.097zm8.326 9.064v-48.92h54.122v48.92H11.103z"/><path d="M6.705 5.169a1.15 1.15 0 00-1.153 1.148 1.15 1.15 0 001.153 1.149h57.367a1.15 1.15 0 001.153-1.149 1.15 1.15 0 00-1.153-1.148H6.705zm2.317 5.168a1.15 1.15 0 011.152-1.149H65.46a1.15 1.15 0 011.152 1.149 1.15 1.15 0 01-1.152 1.149H10.174a1.15 1.15 0 01-1.152-1.149z"/></symbol><symbol viewBox="0 0 68 68" id="booklist" xmlns="http://www.w3.org/2000/svg"><path d="M65.437 36.55c-2.032-2.2-4.471-7.513 0-13.199" stroke="#000" stroke-width="3"/><path fill-rule="evenodd" clip-rule="evenodd" d="M6.366 20.177l29.751 7.274a.273.273 0 00.103.003.172.172 0 00.063-.02L64.575 9.366 34.84 3.006a.265.265 0 00-.097-.003.178.178 0 00-.061.02L6.366 20.178zm-.52-.134l.002.001a.026.026 0 01-.002-.001zm29.558 10.322L5.197 22.979a3.243 3.243 0 01-.803-.31 8.056 8.056 0 00-.287.69c-.408 1.12-.644 2.46-.68 3.83-.037 1.37.127 2.711.473 3.83.351 1.139.849 1.921 1.382 2.346a.26.26 0 00.057.03c.046.018.112.04.207.06l30.097 6.621c.508.112 1.036.03 1.432-.19L63.253 23.47a11.515 11.515 0 01-1.742-4.709 10.872 10.872 0 01.222-4.02l-23.836 15.22a3.23 3.23 0 01-2.492.403zM4.313 17.913a2.83 2.83 0 00-1.158 1.295c-.839.86-1.445 1.97-1.865 3.124-.536 1.47-.817 3.136-.861 4.776-.044 1.64.147 3.314.605 4.796.28.908.676 1.794 1.217 2.56-1.71 1.77-2.346 4.35-2.238 6.706.092 2.034.747 4.172 2.011 5.797-1.54 1.76-2.114 4.21-2.011 6.46.122 2.696 1.233 5.574 3.44 7.2a3.801 3.801 0 001.45.633l30.096 6.62c1.213.267 2.518.087 3.593-.531l.025-.014.024-.016 27.615-17.315a1.5 1.5 0 00.16-2.426c-.806-.927-1.684-2.466-1.93-4.334-.191-1.448-.01-3.147.956-4.987l.814-.511a1.5 1.5 0 00.16-2.426c-.806-.927-1.684-2.466-1.93-4.333-.21-1.593.03-3.49 1.27-5.544l.5-.314a1.5 1.5 0 00.162-2.425c-.807-.926-1.686-2.466-1.932-4.334-.249-1.89.135-4.209 2.074-6.71l.129-.082c2.17-1.385 1.53-4.5-1.038-5.049L35.466.072a3.232 3.232 0 00-2.34.386L4.313 17.913zM38.616 42.46l22.969-14.402a10.843 10.843 0 00-.075 3.32 11.51 11.51 0 001.728 4.687l-.031.051-26.132 16.386c-.396.22-.924.302-1.432.19l-30.097-6.62a.859.859 0 01-.315-.117c-1.26-.929-2.127-2.82-2.223-4.922-.09-1.982.52-3.733 1.638-4.71.089.024.174.045.255.063l30.097 6.62c1.213.267 2.518.086 3.593-.531l.025-.015zm22.906-1.746L38.64 55.062l-.024.015-.025.014c-1.075.618-2.38.798-3.593.532l-30.096-6.62a4.414 4.414 0 01-.535-.153c-.94 1.012-1.441 2.63-1.359 4.44.096 2.103.963 3.994 2.223 4.922a.857.857 0 00.315.118l30.097 6.62c.508.112 1.036.03 1.432-.19l26.178-16.415a11.511 11.511 0 01-1.742-4.709c-.123-.929-.13-1.909.01-2.922zM36.205 6.64a1 1 0 00-.454 1.948l15.25 3.554a1 1 0 10.453-1.948L36.205 6.64zm-5.083 3.046a1 1 0 00-.454 1.948l15.25 3.553a1 1 0 10.453-1.947L31.122 9.685zM26.04 13.24a1 1 0 00-.454 1.948l15.25 3.554a1 1 0 10.453-1.948L26.04 13.24z"/></symbol><symbol viewBox="0 0 24 24" id="cancel" xmlns="http://www.w3.org/2000/svg"><g clip-path="url(#gclip0)"><rect x="-.402" y="1.012" width="2" height="33.079" rx="1" transform="rotate(-45 -.402 1.012)"/><rect x="1.012" y="24.402" width="2" height="33.079" rx="1" transform="rotate(-135 1.012 24.402)"/></g><defs><clipPath id="gclip0"><path d="M0 0h24v24H0z"/></clipPath></defs></symbol><symbol viewBox="0 0 68 68" id="cd" xmlns="http://www.w3.org/2000/svg"><path fill-rule="evenodd" clip-rule="evenodd" d="M42.327 34a8.327 8.327 0 11-16.653 0 8.327 8.327 0 0116.653 0zm-2.775 0a5.551 5.551 0 11-11.102 0 5.551 5.551 0 0111.102 0z"/><path fill-rule="evenodd" clip-rule="evenodd" d="M68 34c0 18.778-15.222 34-34 34S0 52.778 0 34 15.222 0 34 0s34 15.222 34 34zm-2.776 0c0 17.245-13.98 31.224-31.224 31.224-17.245 0-31.224-13.98-31.224-31.224C2.776 16.755 16.756 2.776 34 2.776c17.245 0 31.224 13.98 31.224 31.224z"/></symbol><symbol viewBox="0 0 17 13" id="check" xmlns="http://www.w3.org/2000/svg"><path fill-rule="evenodd" clip-rule="evenodd" d="M16.206 1.891L9.634 10.79a3.5 3.5 0 01-5.558.095l-3.251-4.1 2.35-1.864 3.252 4.1a.5.5 0 00.794-.014L13.793.11l2.413 1.782z"/></symbol><symbol viewBox="0 0 68 68" id="computer" xmlns="http://www.w3.org/2000/svg"><path d="M15.495 45.526a1.153 1.153 0 000 2.305h37.01a1.153 1.153 0 000-2.305h-37.01zm-1.153 6.914c0-.636.516-1.152 1.153-1.152h37.01a1.153 1.153 0 110 2.305h-37.01a1.152 1.152 0 01-1.152-1.152zm1.153 4.61a1.152 1.152 0 100 2.306h37.01a1.153 1.153 0 100-2.305h-37.01z"/><path fill-rule="evenodd" clip-rule="evenodd" d="M6.587 0a2.776 2.776 0 00-2.775 2.776V36.41c0 .503.134.975.368 1.382a2.767 2.767 0 00-.694 1.492L.026 64.852A2.775 2.775 0 002.776 68h62.448a2.776 2.776 0 002.75-3.148l-3.46-25.568a2.767 2.767 0 00-.694-1.49c.234-.408.368-.88.368-1.383V2.776A2.776 2.776 0 0061.412 0H6.587zm54.825 2.776H6.587V36.41h54.825V2.776zm.35 36.88H6.238L2.776 65.225h62.448l-3.461-25.567z"/></symbol><symbol fill="none" viewBox="0 0 24 24" id="full-accessibility" xmlns="http://www.w3.org/2000/svg"><path fill-rule="evenodd" clip-rule="evenodd" d="M1.676 0h20.647C23.245 0 24 .755 24 1.676v20.648c0 .922-.755 1.676-1.677 1.676H1.676A1.681 1.681 0 010 22.324V1.676C0 .755.754 0 1.676 0z" fill="#155196"/><path fill-rule="evenodd" clip-rule="evenodd" d="M9.407 5.593a1.781 1.781 0 001.601-1.768c0-.977-.796-1.774-1.773-1.774-.977 0-1.775.797-1.775 1.774 0 .298.084.603.222.86l.632 8.895 6.511.002 2.67 6.257 3.506-1.375-.543-1.293-1.962.708-2.583-5.965-6.055.04-.082-1.126 4.382.002V9.163l-4.55-.002-.2-3.568z" fill="#fff"/><path fill-rule="evenodd" clip-rule="evenodd" d="M15.956 18.35c-1.099 2.172-3.4 3.604-5.852 3.604-3.604 0-6.543-2.94-6.543-6.543 0-2.53 1.533-4.881 3.821-5.924l.149 1.933c-1.354.853-2.188 2.391-2.188 4.005a4.756 4.756 0 004.746 4.745c2.392 0 4.43-1.835 4.71-4.19l1.157 2.37z" fill="#fff"/></symbol><symbol viewBox="0 0 24 2" id="minus" xmlns="http://www.w3.org/2000/svg"><rect width="24" height="2" rx="1"/></symbol><symbol viewBox="0 0 65 65" id="movie" xmlns="http://www.w3.org/2000/svg"><path fill-rule="evenodd" clip-rule="evenodd" d="M40.46 32.5a7.96 7.96 0 11-15.918 0 7.96 7.96 0 0115.918 0zm-2.653 0a5.306 5.306 0 11-10.613 0 5.306 5.306 0 0110.613 0z"/><path fill-rule="evenodd" clip-rule="evenodd" d="M32.5 48.419c8.792 0 15.919-7.127 15.919-15.919 0-8.791-7.127-15.918-15.919-15.918-8.791 0-15.918 7.127-15.918 15.918 0 8.792 7.127 15.919 15.918 15.919zm0-2.654c7.326 0 13.265-5.939 13.265-13.265 0-7.326-5.939-13.265-13.265-13.265-7.326 0-13.265 5.939-13.265 13.265 0 7.326 5.939 13.265 13.265 13.265zm-12.663-.602a5.307 5.307 0 10-7.503 7.506 5.307 5.307 0 007.503-7.506zm-1.875 1.876a2.653 2.653 0 10-3.753 3.753 2.653 2.653 0 003.753-3.753z"/><path fill-rule="evenodd" clip-rule="evenodd" d="M44.694 12.802a5.306 5.306 0 117.504 7.504 5.306 5.306 0 01-7.504-7.504zm1.876 1.876a2.653 2.653 0 113.752 3.752 2.653 2.653 0 01-3.752-3.752zM15.255 32.5a5.306 5.306 0 10-10.612 0 5.306 5.306 0 0010.612 0zm-2.653 0a2.653 2.653 0 10-5.306 0 2.653 2.653 0 005.306 0zm43.112-5.306a5.306 5.306 0 110 10.613 5.306 5.306 0 010-10.613zm0 2.653a2.653 2.653 0 110 5.306 2.653 2.653 0 010-5.306zm-35.878-10.01a5.306 5.306 0 10-7.504-7.504 5.306 5.306 0 007.504 7.504zm-1.876-1.876a2.653 2.653 0 10-3.752-3.752 2.653 2.653 0 003.752 3.752zm34.237 26.733a5.306 5.306 0 11-7.504 7.505 5.306 5.306 0 017.504-7.505zm-1.876 1.877a2.653 2.653 0 11-3.751 3.752 2.653 2.653 0 013.751-3.752zM32.499 15.255a5.306 5.306 0 100-10.612 5.306 5.306 0 000 10.612zm0-2.653a2.653 2.653 0 100-5.306 2.653 2.653 0 000 5.306zm5.306 43.112a5.306 5.306 0 11-10.613 0 5.306 5.306 0 0110.613 0zm-2.653 0a2.653 2.653 0 11-5.306 0 2.653 2.653 0 015.306 0z"/><path fill-rule="evenodd" clip-rule="evenodd" d="M34.158 64.959c-.55.027-1.102.041-1.658.041C14.55 65 0 50.45 0 32.5S14.55 0 32.5 0 65 14.55 65 32.5c0 13.373-8.077 24.859-19.618 29.847h18.29a1.327 1.327 0 010 2.653H34.49c-.115 0-.225-.014-.331-.041zM62.347 32.5c0 16.484-13.363 29.847-29.847 29.847S2.653 48.984 2.653 32.5 16.016 2.653 32.5 2.653 62.347 16.016 62.347 32.5z"/></symbol><symbol fill="none" viewBox="0 0 24 24" id="partial-accessibility" xmlns="http://www.w3.org/2000/svg"><path fill-rule="evenodd" clip-rule="evenodd" d="M1.676 0h20.647C23.245 0 24 .754 24 1.676v20.647c0 .923-.755 1.677-1.677 1.677H1.676A1.681 1.681 0 010 22.323V1.676A1.68 1.68 0 011.676 0z" fill="#EFEDEB"/><path fill-rule="evenodd" clip-rule="evenodd" d="M9.407 5.592a1.781 1.781 0 001.601-1.767c0-.977-.796-1.774-1.773-1.774-.977 0-1.775.797-1.775 1.774 0 .298.084.603.222.86l.632 8.895 6.511.002 2.67 6.257 3.506-1.375-.543-1.293-1.962.708-2.583-5.965-6.055.04-.082-1.126 4.382.002V9.162l-4.55-.002-.2-3.569z" fill="#000"/><path fill-rule="evenodd" clip-rule="evenodd" d="M15.956 18.35c-1.099 2.172-3.4 3.603-5.852 3.603-3.604 0-6.543-2.94-6.543-6.542 0-2.53 1.533-4.881 3.821-5.924l.149 1.932c-1.354.853-2.188 2.392-2.188 4.005a4.756 4.756 0 004.746 4.746c2.392 0 4.43-1.836 4.71-4.19l1.157 2.37z" fill="#000"/></symbol><symbol fill="none" viewBox="0 0 73 69" id="play" xmlns="http://www.w3.org/2000/svg"><path d="M15.5 3.5V66l54-31.5-54-31z" fill="#fff"/><path clip-rule="evenodd" d="M13.75 68.708L73 34.5 13.75.292v68.416zM67 34.5L16.75 63.512V5.488L67 34.5z"/></symbol><symbol viewBox="0 0 24 24" id="plus" xmlns="http://www.w3.org/2000/svg"><rect x="11" y="24" width="24" height="2" rx="1" transform="rotate(-90 11 24)"/><rect y="11" width="24" height="2" rx="1"/></symbol><symbol viewBox="0 0 24 24" id="search" xmlns="http://www.w3.org/2000/svg"><path fill-rule="evenodd" clip-rule="evenodd" d="M18 10a8 8 0 11-16 0 8 8 0 0116 0zm-1.671 7.743A9.958 9.958 0 0110 20C4.477 20 0 15.523 0 10S4.477 0 10 0s10 4.477 10 10a9.958 9.958 0 01-2.257 6.329l5.96 5.96a1 1 0 01-1.414 1.414l-5.96-5.96z"/></symbol><symbol viewBox="0 0 18 18" id="search-small" xmlns="http://www.w3.org/2000/svg"><path fill-rule="evenodd" clip-rule="evenodd" d="M13.002 7.501A5.501 5.501 0 112 7.501a5.501 5.501 0 0111.002 0zm-.95 5.965a7.501 7.501 0 111.414-1.414l3.785 3.785a1 1 0 01-1.414 1.414l-3.786-3.786z"/></symbol><symbol viewBox="0 0 36 36" id="social-facebook" xmlns="http://www.w3.org/2000/svg"><path fill-rule="evenodd" clip-rule="evenodd" d="M19.229 36H1.987A1.987 1.987 0 010 34.013V1.987C0 .889.89 0 1.987 0h32.026C35.111 0 36 .89 36 1.987v32.026C36 35.11 35.11 36 34.013 36H24.84V22.059h4.679l.7-5.433h-5.38v-3.469c0-1.573.437-2.645 2.693-2.645l2.877-.001V5.65c-.498-.066-2.205-.214-4.192-.214-4.148 0-6.988 2.532-6.988 7.182v4.007h-4.692v5.433h4.692V36z"/></symbol><symbol viewBox="0 0 36 36" id="social-instagram" xmlns="http://www.w3.org/2000/svg"><path fill-rule="evenodd" clip-rule="evenodd" d="M18 0c-4.889 0-5.502.02-7.421.108C8.663.196 7.354.5 6.209.945a8.823 8.823 0 00-3.188 2.076A8.83 8.83 0 00.945 6.209C.5 7.354.195 8.663.108 10.58.021 12.499 0 13.11 0 18s.02 5.502.108 7.421c.088 1.916.392 3.225.837 4.37a8.823 8.823 0 002.076 3.188c1 1 2.005 1.616 3.188 2.076 1.145.445 2.454.75 4.37.837 1.92.087 2.532.108 7.421.108s5.502-.02 7.421-.108c1.916-.088 3.225-.392 4.37-.837a8.824 8.824 0 003.188-2.076c1-1 1.616-2.005 2.076-3.188.445-1.145.75-2.454.837-4.37.087-1.92.108-2.532.108-7.421s-.02-5.502-.108-7.421c-.088-1.916-.392-3.225-.837-4.37a8.823 8.823 0 00-2.076-3.188A8.83 8.83 0 0029.791.945C28.646.5 27.337.195 25.42.108 23.501.021 22.89 0 18 0zm0 3.243c4.806 0 5.375.019 7.273.105 1.756.08 2.709.373 3.343.62.84.327 1.44.717 2.07 1.346.63.63 1.02 1.23 1.346 2.07.247.634.54 1.587.62 3.342.086 1.898.105 2.468.105 7.274s-.019 5.375-.105 7.273c-.08 1.756-.373 2.709-.62 3.343a5.574 5.574 0 01-1.346 2.07c-.63.63-1.23 1.02-2.07 1.346-.634.247-1.587.54-3.343.62-1.897.086-2.466.105-7.273.105-4.806 0-5.376-.019-7.274-.105-1.755-.08-2.708-.373-3.342-.62a5.576 5.576 0 01-2.07-1.346 5.577 5.577 0 01-1.346-2.07c-.247-.634-.54-1.587-.62-3.343-.086-1.898-.105-2.467-.105-7.273 0-4.806.019-5.376.105-7.274.08-1.755.373-2.708.62-3.342.327-.84.717-1.44 1.346-2.07.63-.63 1.23-1.02 2.07-1.346.634-.247 1.587-.54 3.342-.62 1.898-.086 2.468-.105 7.274-.105zm0 5.514a9.243 9.243 0 100 18.486 9.243 9.243 0 000-18.486zM18 24a6 6 0 110-12 6 6 0 010 12zM29.768 8.392a2.16 2.16 0 11-4.32 0 2.16 2.16 0 014.32 0z"/></symbol><symbol fill="none" viewBox="0 0 228 37" id="social-media-icon-set" xmlns="http://www.w3.org/2000/svg"><path fill-rule="evenodd" clip-rule="evenodd" d="M71.229 36H53.987A1.987 1.987 0 0152 34.013V1.987C52 .889 52.89 0 53.987 0h32.026C87.11 0 88 .89 88 1.987v32.026C88 35.11 87.11 36 86.013 36H76.84V22.059h4.68l.7-5.433h-5.38v-3.469c0-1.573.437-2.645 2.693-2.645l2.877-.001V5.65c-.498-.066-2.205-.214-4.192-.214-4.148 0-6.988 2.532-6.988 7.182v4.007h-4.692v5.433h4.692V36z" fill="#000"/><g clip-path="url(#uclip0)"><path fill-rule="evenodd" clip-rule="evenodd" d="M174.555 28.756c-.655.319-1.908.597-2.842.62-2.821.078-3.368-2.024-3.391-3.548V14.621h7.076v-5.45h-7.051V0h-5.16c-.085 0-.234.076-.254.269C162.631 3.075 161.345 8 156 9.97v4.65h3.566v11.762c0 4.028 2.907 9.75 10.583 9.615 2.59-.046 5.466-1.153 6.101-2.11l-1.695-5.132z" fill="#000"/></g><g clip-path="url(#uclip1)"><path fill-rule="evenodd" clip-rule="evenodd" d="M18 0c-4.889 0-5.502.02-7.421.108C8.663.196 7.354.5 6.209.945a8.823 8.823 0 00-3.188 2.076A8.83 8.83 0 00.945 6.209C.5 7.354.195 8.663.108 10.58.021 12.499 0 13.11 0 18s.02 5.502.108 7.421c.088 1.916.392 3.225.837 4.37a8.823 8.823 0 002.076 3.188c1 1 2.005 1.616 3.188 2.076 1.145.445 2.454.75 4.37.837 1.92.087 2.532.108 7.421.108s5.502-.02 7.421-.108c1.916-.088 3.225-.392 4.37-.837a8.824 8.824 0 003.188-2.076c1-1 1.616-2.005 2.076-3.188.445-1.145.75-2.454.837-4.37.087-1.92.108-2.532.108-7.421s-.02-5.502-.108-7.421c-.088-1.916-.392-3.225-.837-4.37a8.823 8.823 0 00-2.076-3.188A8.83 8.83 0 0029.791.945C28.646.5 27.337.195 25.42.108 23.501.021 22.89 0 18 0zm0 3.243c4.806 0 5.375.019 7.273.105 1.756.08 2.709.373 3.343.62.84.327 1.44.717 2.07 1.346.63.63 1.02 1.23 1.346 2.07.247.634.54 1.587.62 3.342.086 1.898.105 2.468.105 7.274s-.019 5.375-.105 7.273c-.08 1.756-.373 2.709-.62 3.343a5.574 5.574 0 01-1.346 2.07c-.63.63-1.23 1.02-2.07 1.346-.634.247-1.587.54-3.343.62-1.897.086-2.466.105-7.273.105-4.806 0-5.376-.019-7.274-.105-1.755-.08-2.708-.373-3.342-.62a5.576 5.576 0 01-2.07-1.346 5.577 5.577 0 01-1.346-2.07c-.247-.634-.54-1.587-.62-3.343-.086-1.898-.105-2.467-.105-7.273 0-4.806.019-5.376.105-7.274.08-1.755.373-2.708.62-3.342.327-.84.717-1.44 1.346-2.07.63-.63 1.23-1.02 2.07-1.346.634-.247 1.587-.54 3.342-.62 1.898-.086 2.468-.105 7.274-.105zm0 5.514a9.243 9.243 0 100 18.486 9.243 9.243 0 000-18.486zM18 24a6 6 0 110-12 6 6 0 010 12zM29.768 8.392a2.16 2.16 0 11-4.32 0 2.16 2.16 0 014.32 0z" fill="#000"/></g><g clip-path="url(#uclip2)"><path fill-rule="evenodd" clip-rule="evenodd" d="M118.283 23.452l-.001-10.186 9.727 5.11-9.726 5.076zm21.357-11.951s-.352-2.499-1.431-3.599c-1.369-1.444-2.904-1.451-3.607-1.535C129.564 6 122.008 6 122.008 6h-.016s-7.556 0-12.594.367c-.704.084-2.238.09-3.608 1.535-1.079 1.1-1.43 3.599-1.43 3.599s-.36 2.934-.36 5.867v2.751c0 2.935.36 5.868.36 5.868s.351 2.498 1.43 3.598c1.37 1.445 3.169 1.4 3.97 1.55 2.88.279 12.24.365 12.24.365s7.564-.011 12.602-.378c.703-.085 2.238-.092 3.607-1.537 1.079-1.1 1.431-3.598 1.431-3.598s.36-2.933.36-5.868v-2.75c0-2.934-.36-5.868-.36-5.868z" fill="#000"/></g><path fill-rule="evenodd" clip-rule="evenodd" d="M228 7.551a14.428 14.428 0 01-4.241 1.192 7.558 7.558 0 003.248-4.188 14.553 14.553 0 01-4.693 1.835A7.285 7.285 0 00216.923 4c-4.076 0-7.383 3.391-7.383 7.573 0 .594.064 1.17.191 1.725-6.139-.316-11.58-3.328-15.225-7.916a7.711 7.711 0 00-.999 3.812c0 2.626 1.303 4.945 3.285 6.303a7.256 7.256 0 01-3.347-.944v.093c0 3.67 2.547 6.732 5.927 7.425a7.04 7.04 0 01-1.946.267 7.24 7.24 0 01-1.39-.134c.94 3.007 3.666 5.198 6.899 5.256a14.584 14.584 0 01-9.173 3.244A14.64 14.64 0 01192 30.6a20.565 20.565 0 0011.322 3.4c13.587 0 21.014-11.538 21.014-21.547 0-.33-.006-.659-.019-.982A15.166 15.166 0 00228 7.551z" fill="#000"/><defs><clipPath id="uclip0"><path fill="#fff" transform="translate(156)" d="M0 0h20.25v36H0z"/></clipPath><clipPath id="uclip1"><path fill="#fff" d="M0 0h36v36H0z"/></clipPath><clipPath id="uclip2"><path fill="#fff" transform="translate(104 6)" d="M0 0h36v25.5H0z"/></clipPath></defs></symbol><symbol viewBox="0 0 36 36" id="social-tumblr" xmlns="http://www.w3.org/2000/svg"><g clip-path="url(#vclip0)"><path fill-rule="evenodd" clip-rule="evenodd" d="M26.555 28.756c-.655.319-1.908.597-2.842.62-2.82.078-3.368-2.024-3.39-3.548V14.621h7.075v-5.45h-7.051V0h-5.16c-.085 0-.233.076-.255.269C14.631 3.075 13.345 8 8 9.97v4.65h3.566v11.762c0 4.028 2.907 9.75 10.583 9.615 2.59-.046 5.466-1.153 6.101-2.11l-1.695-5.132z"/></g><defs><clipPath id="vclip0"><path fill="#fff" transform="translate(8)" d="M0 0h20.25v36H0z"/></clipPath></defs></symbol><symbol viewBox="0 0 36 36" id="social-twitter" xmlns="http://www.w3.org/2000/svg"><path fill-rule="evenodd" clip-rule="evenodd" d="M36 6.551a14.427 14.427 0 01-4.24 1.192 7.557 7.557 0 003.247-4.188 14.548 14.548 0 01-4.693 1.835A7.284 7.284 0 0024.924 3c-4.077 0-7.384 3.391-7.384 7.573 0 .594.064 1.17.19 1.725-6.138-.316-11.579-3.328-15.224-7.916a7.711 7.711 0 00-1 3.812 7.623 7.623 0 003.286 6.303 7.252 7.252 0 01-3.347-.944v.093c0 3.67 2.547 6.732 5.927 7.425a7.042 7.042 0 01-1.946.267 7.24 7.24 0 01-1.39-.134c.94 3.007 3.666 5.198 6.899 5.256a14.584 14.584 0 01-9.173 3.244A14.64 14.64 0 010 29.6 20.563 20.563 0 0011.322 33c13.587 0 21.014-11.538 21.014-21.547 0-.33-.006-.659-.02-.982A15.158 15.158 0 0036 6.551z"/></symbol><symbol viewBox="0 0 36 36" id="social-youtube" xmlns="http://www.w3.org/2000/svg"><g clip-path="url(#xclip0)"><path fill-rule="evenodd" clip-rule="evenodd" d="M14.283 22.452l-.001-10.186 9.727 5.11-9.726 5.076zM35.64 10.501s-.352-2.499-1.431-3.599c-1.37-1.444-2.904-1.451-3.607-1.535C25.564 5 18.008 5 18.008 5h-.016s-7.557 0-12.594.367c-.704.084-2.238.09-3.608 1.535C.71 8.002.36 10.501.36 10.501S0 13.435 0 16.368v2.751c0 2.935.36 5.868.36 5.868s.351 2.498 1.43 3.598c1.37 1.445 3.169 1.4 3.97 1.55C8.64 30.414 18 30.5 18 30.5s7.564-.011 12.602-.378c.703-.085 2.238-.092 3.607-1.537 1.079-1.1 1.431-3.598 1.431-3.598s.36-2.933.36-5.868v-2.75c0-2.934-.36-5.868-.36-5.868z"/></g><defs><clipPath id="xclip0"><path fill="#fff" transform="translate(0 5)" d="M0 0h36v25.5H0z"/></clipPath></defs></symbol></svg>